<?xml version="1.0" encoding="utf-8"?>
<!-- Generator: Adobe Illustrator 17.0.0, SVG Export Plug-In . SVG Version: 6.00 Build 0)  -->
<!DOCTYPE svg PUBLIC "-//W3C//DTD SVG 1.1//EN" "http://www.w3.org/Graphics/SVG/1.1/DTD/svg11.dtd">
<svg xmlns:xlink="http://www.w3.org/1999/xlink" version="1.1" id="Ebene_1" xmlns="http://www.w3.org/2000/svg" x="0px"
     y="0px"
     width="686.125px" height="351.112px" viewBox="0 0 686.125 351.112" enable-background="new 0 0 686.125 351.112"
     xml:space="preserve">
<g>
	<path fill="#FFFFFF" d="M685.87,215.179l-266.412-0.019c3.619-3.498,6.757-7.239,7.989-12.15c-3.362,1.713,1.175-3.109-1.874-2.674
		l0.503-1.161c-1.403-0.022-2.442-1.92-1.731-3.163l-0.741,0.437c-0.745-0.667,0.447-1.667,0.01-2.408
		c-0.905,0.021-2.109,0.016-2.104-1.188c-0.442,0.463-0.685,0.944-1.209,1.199c-2.923-2.163-0.699-5.783-2.88-8.383l-0.248,1.685
		c-1.91,0.034-2.36-1.712-4.045-1.96c-0.427-3.149-2.652-5.251-4.102-8.189l-0.498-0.044l-0.204,1.187
		c2.117,2.193,3.857,5.256,4.102,8.189l-0.706,0.039c0.254,2.833-1.965,5.249-3.66,7.409c-0.498-0.044-0.463-0.442-0.745-0.667
		c-2.37,0.696-1.034-3.102-2.42-3.324c-0.508,2.365-0.436,4.981-1.433,7.202c-3.127-0.976-2.415-4.528-5.243-5.478
		c0.017-0.199,0.017-0.199,0.243-0.481c-0.741,0.437-2.17,0.714-2.59-0.227c-1.209,1.199-3.331,0.21-5.003,0.968l0.026-0.299
		c-2.17,0.714-4.318,0.024-6.528,0.031l1.01-1.217c-0.956-1.69,1.171-1.905,1.717-3.564l-1.161-0.503
		c-0.276-1.43,3.154-1.631,1.232-2.603l0.706-0.039l-0.913-2.188c-0.983-1.391,1.435-1.481,1.894-2.143l-0.42-0.94
		c1.928-0.233-0.008-2.209,0.751-2.845c-0.255-0.524-0.719-0.966-1.143-0.702c-0.238-0.723-1.238-1.915-0.016-2.109
		c-0.432-1.945-2.188,0.913-2.629-0.933l0.243-0.481l0.281,0.225l0.971-1.923c-0.918-0.984-1.189-3.617-2.58-2.635l0.281,0.225
		l-0.723,0.238c-1.169-0.403-3.114,0.029-2.923-2.163l-0.498-0.044c-1.178-0.304-1.183,0.9-1.95,1.636
		c-2.391-0.209-5.982,0.681-6.717-2.395l1.43-0.276l-0.281-0.225c-0.966,0.719-3.127-0.976-3.093,0.934
		c-1.702-0.049-1.959,1.736-3.38,1.913l0.463,0.442l-1.491,0.974l-0.437-0.741l-0.442,0.463l-0.255-0.524
		c-0.928,1.425-2.894,0.951-4.059,1.652c-0.264-0.425-0.961-0.486-1.204-0.005c-4.137,0.24-8.395,1.875-10.52,5.504
		c-0.961-0.486-2.401,2.199-3.114,0.029c10.319-11.243,26.355-21.284,41.95-14.8c-0.762-0.468-1.182-1.408-2.143-1.894
		c2.915-0.046,5.513,2.39,7.937,4.509l0.468-0.762l5.252,3.069l-1.645-1.85l0.451-0.563c-3.117-3.385-5.922-5.738-9.581-8.668
		l0.724-0.238l-2.43-0.915l0.455,0.542c-2.165-0.491-5.523,0.019-6.921-1.208c1.634-1.463,1.462-4.088,1.147-6.224
		c2.103-4.534,0.698-10.278,2.585-14.63c0.481,0.243,1.182,1.408,1.641,0.746c0.951,2.894-0.273,7.706,3.803,8.163
		c0.685-0.944-0.215-2.127-0.653-2.868l1.675-13.405l0.741-0.437c1.686-10.091,7.915-18.179,12.428-27.321l-0.458-1.646
		c1.886-4.352,4.063-8.579,5.768-13.147c1.915-1.238,1.224-4.812,3.351-5.027l-0.454-0.542l1.209-1.199
		c0.243-0.481-0.039-0.706-0.502-1.148l0.442-0.463c5.005,4.754,11.949,10.281,14.571,17.035c-3.818-4.55-7.675-9.806-12.944-12.676
		l-0.529,1.459c1.918,2.175,4.767,4.031,5.498,6.002c-2.421-1.015-3.099-3.584-5.52-4.599l3.082,3.783l-3.867-2.848l-0.486,0.961
		c2.857,4.064,8.165,7.641,9.848,12.506c-3.33-2.098-4.519-5.716-7.901-7.216c-1-1.192-3.138-4.29-4.807-2.428
		c0.281,0.225,0.481,0.243,0.762,0.468l-0.425,0.264l3.862,4.052l-0.225,0.281l7.623,8.095l-0.979-0.286
		c4.797,4.836,7.912,10.53,10.079,16.742c4.312,11.52-1.892,23.926-4.099,35.377c1.723,0.954-0.197,3.396,0.929,4.297
		c1.248-0.493,0.945-1.624,1.413-2.386c7.43-11.496,12.171-23.228,13.672-36.949c-0.74-1.872,0.916-4.738-0.295-6.952
		c0.281,0.225,0.217-0.182,0.724-0.238c-0.704-4.579-0.749-9.803-1.933-14.624c-4.067-8.587-10.504-16.478-16.551-24.235
		l18.18-2.425c-5.778-0.506-12.454,1.219-19.185,2.437c-0.961-0.486-0.276-1.43-0.502-1.148l-0.498-0.044
		c-0.437-0.741-1.481-1.435-1.918-2.175c0.516-0.156,1.966,0.473,1.872-0.74c-0.481-0.243-0.923,0.22-1.43,0.276
		c-0.723,0.238-1.91,0.034-1.641-0.746l10.08-1.628l-3.357,0.509c-2.634,0.271-5.97,1.686-7.948,0.208
		c-1.26-0.512-3.078-2.678-4.556-0.7c0.973,3.799-4.827,2.388-6.958,3.808c2.127-0.215,4.822-1.184,6.489-0.737l-12.151,2.35
		c4.275,0.474,8.153-1.395,11.748-1.181l-1.894,2.143l-0.238-0.723l-2.202,2.217l-38.996,7.43l-2.857-4.064
		c13.217-3.06,26.321-4.824,39.576-7.178c-12.67,1.401-26.632,3.793-39.559,6.979c-4.112-5.78-8.891-10.816-14.095-15.588
		l0.524-0.255c-1.486-0.23-2.122-0.989-1.883-2.574c-1.214,2.403-2.91-1.158-4.132-0.964l2.624,2.137
		c-1.183,0.9-2.391-0.209-3.595-0.214c-9.105-7.221-18.419-14.36-29.896-16.268c0.473-1.966,1.219-3.607,0.722-5.96
		c-4.292-0.275-5.98,4.094-7.454,7.178c-1.204-0.005-3.37-0.496-3.799,0.973c0.519,0.949,0.272,2.634,1.675,2.656
		c-3.102,9.064-5.506,18.189-5.221,27.55c-1.969,4.144,3.065,12.013,0.577,15.208l0.407-0.065l0.437,0.741l-6.992,1.898
		l-0.039-0.706l-0.26,0.68l-6.186,1.868c-1.69,0.956-4.544,0.305-5.328,1.24l-0.736-0.767l10.311-3.113l-11.008,3.052
		c-1.905-1.171-5.292-1.467-6.474-2.875c-3.85-0.738-7.661-3.079-11.793-4.043l-0.437-0.741l-0.524,0.255
		c-1.68-1.452-3.85-0.738-5.231-2.164c-4.777-1.622-10.069-3.089-15.106-4.032c-12.278-3.082-26.082-4.791-38.085-4.135
		c-1.402-2.331,3.108-4.546-1.006-5.709c-2.192-0.192-3.804,2.177-4.732,3.601c-0.935,15.277,2.817,29.759,7.626,43.631
		l-2.413,1.194l1.746-0.45c-0.26,0.68-1.69,0.956-2.431,1.393c-1.905-1.171-4.804,0.985-6.65,1.426
		c0.979,0.286,2.197-1.012,3.132-0.228c-1.23,0.294-2.894,0.951-3.838,0.267c-0.94,0.42-3.319,1.215-3.18,1.93
		c-5.467,0.526-10.029,3.339-15.076,4.804l1.204,0.005l-0.442,0.463c-0.711,1.243-2.132,1.42-2.85,0.453l-10.995,4.057l-0.044,0.498
		c-0.468,0.762-1.702-0.049-1.386-0.222l-9.873,3.854l0.486-0.961c-0.442,0.463-1.473,0.775-1.227,1.398l-29.737,11.753
		l-2.651,0.471l0.281,0.225l-0.949,0.519c-4.081,0.747-6.516,3.345-9.791,4.062l0.273,0.325l-3.591,0.89
		c-35.674,15.349-71.607,31.378-105.434,52.009c-0.447,1.667,1.42,2.132,2.355,2.916L0,213.588c2.188-0.913,4.106,1.263,6.259,0.748
		l13.92-6.512c35.474-15.367,70.667-30.959,107.11-43.631c2.642,7.659,6.975,14.363,13.92,19.889
		c1.675,2.656,4.966,4.048,7.464,6.475c5.255,6.483,11.944,11.485,19.181,14.828l-0.442,0.463c1.879,1.469,3.569,0.513,4.971,2.844
		c4.275,0.474,7.392,3.859,11.506,5.022c1.204,0.005,2.335-0.298,2.854,0.651l-0.199-0.017l2.421,1.015l-0.767,0.736
		c1.183-0.9,2.447,0.716,3.876,0.44l0.486-0.961c0.299,0.026,0.281,0.225,0.463,0.442l-0.199-0.017l1.966,0.473l-2.153,0.514
		c0.806-0.03,1.187,0.204,1.723,0.954c-0.984,0.918-1.879-1.469-3.578-0.413c3.789,1.436,7.678,2.88,11.698,2.83
		c-0.243,0.481-0.905,0.021-0.75,0.537c0.463,0.442,1.005-0.012,1.248-0.493l0.22,0.923l0.468-0.762
		c0.741-0.437,1.884,0.265,1.923,0.971l-1.928,0.233c0.979,0.286,2.408,0.01,3.612,0.015c0.463,0.442,1.225,0.91,1.182,1.408
		c-44.354,7.864-86.507,21.542-125.557,42.218l-0.481-0.243c-0.017,0.199-0.044,0.498-0.243,0.481
		c-7.384-1.65-8.165,8.42-14.372,9.383l1.928-0.233c-0.746,1.641-2.843,2.662-2.584,4.291c-1.928,0.233,1.25,2.92-1.483,3.183
		c0.987,0.187,0.983,1.391,1.402,2.331c-2.114,1.22,1.233,3.119,1.635,4.259l-1.91,0.034c9.829,6.983,21.041,10.775,33.099,12.934
		c14.873,2.104,30.881,5.01,46.037,5.031c27.5,1.201,53.381,0.253,78.576-5.472l1.391-0.983c0.308-0.073,0.706-0.039,1.014-0.112
		l-0.027,50.791l459.245,0.026L685.87,215.179L685.87,215.179z M427.905,89.919l2.657,4.047
		C429.32,93.255,428.156,91.647,427.905,89.919L427.905,89.919z M412.85,71.537l4.996,4.854c-0.524,0.255-1.217-1.01-1.659-0.547
		C414.988,74.635,412.849,73.846,412.85,71.537L412.85,71.537z M204.554,301.056c5.51-1.024,11.553-2.402,17.02-2.928
		c1.62-0.159,3.348-0.41,5.077-0.66l-0.052,0.598c-2.551,0.479-5.103,0.959-7.654,1.438l-0.463-0.442
		c-3.843,1.471-8.876,1.633-13.455,2.336L204.554,301.056L204.554,301.056z M139.017,304.357l0.243-0.481l12.942,1.233
		C148.082,305.15,143.054,304.108,139.017,304.357L139.017,304.357z M224.743,226.331l1.949,0.672l0.034,58.124
		c-2.642,0.371-5.376,0.634-8.001,0.806c-5.921-0.016-12.64,2.207-17.751,0.957l-0.26,0.68c-2.646-0.733-5.224,0.045-7.948,0.208
		c-2.403-1.214-5.722,0.001-7.87-0.689c-2.401,2.199-4.296-1.38-6.671,0.521l-19.625-1.717c-1.187-0.204-2.431,1.393-3.114,0.029
		c-22.972-3.616-48.107-4.309-68.233-17.514l0.442-0.463l0.281,0.225l-0.039-0.706c2.651-0.471,5.744-1.405,8.102-3.106
		c8.145-3.604,17.252-6.722,25.657-11.006c27.37-7.644,54.102-19.459,82.925-23.06l-0.463-0.442l2.642-0.371
		c-0.398-0.035-0.78-0.269-0.654-0.559L224.743,226.331L224.743,226.331z M195.527,218.355c0.217-0.182,1.629-0.259,2.365,0.508
		C196.926,219.581,196.207,218.615,195.527,218.355L195.527,218.355z M162.961,132.791c-0.044,0.498-0.767,0.736-1.022,0.212
		C162.237,133.029,162.48,132.548,162.961,132.791L162.961,132.791z M213.735,130.708c2.209-0.007,3.16,2.886,4.546,3.108
		c-0.243,0.481,0.519,0.949,0.983,1.391l0.26-0.68c7.684,7.398,14.67,17.043,22.763,22.068l0.039,0.706
		c1.403,0.022,1.212,2.214,3.365,1.7c-0.746,1.641,1.879,1.469,2.905,2.362c-29.712-4.607-61.801-8.418-93.844-3.593
		c-1.915,1.238-4.579,0.704-6.732,1.218l-14.148,3.38l-0.255-0.524c18.2-7.241,37.098-14.422,55.571-21.338l-0.463-0.442l1.91-0.034
		C198.139,136.872,205.777,133.324,213.735,130.708L213.735,130.708z M231.233,84.457l-0.199-0.017l0.026-0.299l0.199,0.017
		L231.233,84.457L231.233,84.457z M266.119,101.061c-1.72,0.151-3.423,2.411-5.48,1.829l-1.166,0.701l0.459-0.662l-1.984-0.274
		c0.706-0.039,1.192-1,0.529-1.459c-3.612-0.015-7.399,1.963-11.289,2.827c-2.608-0.027-5.982,0.681-8.603,1.958
		c-3.357,0.509-7.23,1.174-10.029,3.339c4.822-1.184,9.812-3.157,14.889-3.817c0,0,0.276,1.43,1.442,0.728l-1.915,1.238l1.161,0.503
		l-0.498-0.044l0.463,0.442l-0.199-0.017c-0.026,0.299-0.035,0.398-0.044,0.498l0,0l0,0l0,0c-1.204-0.005-3.513-0.006-4.042,1.453
		l-0.78-0.269l0.785-0.935c-2.651,0.471-4.54,1.41-7.399,1.963c3.605-2.194,6.208-0.963,9.306-3.101
		c-1.398-1.227-4.254,0.431-5.965,0.482c0.741-0.437,1.91-0.034,1.889-0.939c-4.076-0.457-7.859,2.625-11.497,2.909
		c0.017-0.199-0.281-0.225-0.255-0.524c-0.33,1.477-2.041,1.528-3.579,1.895l1.863-0.64l-0.463-0.442l-6.23,2.366
		c-0.017,0.199,0.281,0.225,0.481,0.243c-0.723,0.238-1.928,0.233-1.915,1.238l-0.481-0.243c-0.281-0.225,1.646-0.458,1.227-1.398
		l-1.672,0.757c-5.997-11.767-9.569-23.724-10.021-36.914c1.255,1.716,3.59,1.418,5.287,2.671l0.519,0.949
		c4.777,1.622,9.511,1.434,14.864,2.204c-0.286,0.979,0.701,1.166,1.199,1.209c0.923-0.22,1.161,0.503,1.723,0.954
		c5.492,1.484,10.268,3.107,16.029,3.812c6.249,3.157,13.378,4.282,19.184,7.902l-0.225,0.281l0.961,0.486
		c-0.685,0.944-2.639,1.476-3.137,1.432c-0.248,1.685,1.928-0.233,3.088,0.27l-0.442,0.463l0.281,0.225
		c-1.403-0.022-3.319,1.215-5.246,1.448l0.034,1.91c1.192-1,2.695-0.969,3.843-1.471c-0.767,0.736-2.396,0.995-2.132,1.42
		c1.486,0.23,2.911-1.151,4.267-1.735L266.119,101.061L266.119,101.061z M232.916,113.414c-0.741,0.437-2.127,0.215-2.613,1.177
		c0,0-0.706,0.039-1.412,0.077c-0.94,0.42-1.924,1.337-2.885,0.852c-1.23,0.294-0.182-0.217,1.456-0.575
		c-0.507,0.056-1.005,0.012-1.421,0.177c0.009-0.1,1.122-0.203,2.235-0.306c0.308-0.073,0.507-0.056,0.814-0.13
		c0.1,0.009,0.208-0.082,0.308-0.073c0.308-0.073,0.524-0.255,0.841-0.428l-2.608-0.027c1.464-0.675,4.297-0.929,5.489-1.929
		l0.039,0.706c1.204,0.005,1.723,0.954,3.114-0.029c-0.529,1.459-2.214,1.212-3.098,2.138l0.987,0.187
		c-1.646,0.458-3.336,1.415-5.264,1.648c0.971-1.923,2.899-2.156,4.264-2.839c0.026-0.299-0.281-0.225-0.481-0.243L232.916,113.414
		L232.916,113.414z M235.319,114.628c0.253-2.889,5.064-1.665,7.404-3.167c3.635-1.388,7.46-2.66,11.233-3.334
		c-4.528,2.415-10.111,3.131-14.92,5.32C237.875,112.944,236.749,114.352,235.319,114.628L235.319,114.628z M236.506,114.832
		l1.005-0.012l-1.43,0.276L236.506,114.832L236.506,114.832z M239.88,114.124l3.319-1.215l0.199,0.017L239.88,114.124
		L239.88,114.124z M242.945,118.106c1.265-0.692,2.184-2.017,3.579-1.895C245.748,117.046,244.084,117.704,242.945,118.106
		c-0.208,0.082-0.425,0.264-0.732,0.337C242.421,118.361,242.629,118.279,242.945,118.106L242.945,118.106z M247.258,111.256
		c0.719,0.966,1.646-0.458,2.408,0.01c-0.199-0.017-0.217,0.182-0.217,0.182c0.455,0.542,1.685,0.248,2.408,0.01l-2.413,1.194
		l-0.519-0.949l-1.672,0.757C247.514,111.78,247.514,111.78,247.258,111.256L247.258,111.256z M263.749,109.787l-16.086,6.021
		C252.789,113.446,258.304,111.218,263.749,109.787L263.749,109.787z M258.786,109.152l0.723-0.238l0.281,0.225L258.786,109.152
		L258.786,109.152z M249.908,105.063c0.026-0.299-0.182-0.217-0.481-0.243c1.204,0.005,2.188-0.913,3.6-0.99
		c-1.69,0.956-3.124,2.437-5.506,2.128L249.908,105.063L249.908,105.063z M255.188,105.525c-1.209,1.199-4.341,1.427-5.987,1.885
		C251.354,106.896,252.979,105.533,255.188,105.525L255.188,105.525z M251.855,110.353c0.992-1.017,2.59,0.227,3.817-1.172
		C255.212,109.844,253.019,111.961,251.855,110.353L251.855,110.353z M246.798,106.196l-0.182-0.217l0.741-0.437l0.199,0.017
		L246.798,106.196L246.798,106.196z M237.66,110.818l-0.481-0.243l1.166-0.701L237.66,110.818L237.66,110.818z M235.797,111.458
		l-0.199-0.017l0.767-0.736L235.797,111.458L235.797,111.458z M233.601,112.47c-0.78-0.269,1.192-1,1.672-0.757
		C235.511,112.436,233.363,111.747,233.601,112.47L233.601,112.47z M231.726,109.797l0.68,0.26
		C232.181,110.338,230.76,110.515,231.726,109.797L231.726,109.797z M257.622,105.236l0.199,0.017l-0.442,0.463l-0.182-0.217
		L257.622,105.236L257.622,105.236z M260.179,103.553l0.255,0.524C260.252,103.86,259.529,104.098,260.179,103.553L260.179,103.553z
		 M264.277,102.606l-0.017,0.199l-0.706,0.039l0.017-0.199L264.277,102.606L264.277,102.606z M265.256,102.893l0.706-0.039
		l-1.447,0.476L265.256,102.893L265.256,102.893z M266.2,103.577l-1.945,0.432l1.872-0.74L266.2,103.577L266.2,103.577z
		 M268.518,101.17c-0.117,0.191-0.234,0.381-0.442,0.463l0.706-0.039c-0.425,0.264-0.425,0.264-0.905,0.021L268.518,101.17
		c0.108-0.091,0.225-0.281,0.325-0.273L268.518,101.17L268.518,101.17z M273.109,101.472l-4.804,0.985
		C269.558,100.759,271.451,100.925,273.109,101.472L273.109,101.472z M276.7,102.89c-5.528,1.223-11.039,4.555-17.004,5.037
		c3.787-1.977,6.225-1.162,9.631-3.373c0.243-0.481-0.537-0.75-0.463-0.442c-2.183-0.291-3.324,2.42-5.246,1.448l-5.762,1.604
		c0.1,0.009,0.199,0.017,0.199,0.017s0,0-0.009,0.1c0.199,0.017,0.407-0.065,0.507-0.056c-0.225,0.281-0.524,0.255-0.923,0.22
		c0.199,0.017,0.199,0.017,0.416-0.164c-0.1-0.009-0.1-0.009-0.199-0.017c-0.697-0.061-1.664,0.658-1.91,0.034
		c5.97-1.686,11.77-2.584,17.727-5.275L276.7,102.89L276.7,102.89z M278.142,103.618c-5.008,2.172-9.812,3.157-14.651,4.54
		C268.355,106.476,273.337,104.603,278.142,103.618L278.142,103.618z M290.154,92.523l-0.905,0.021
		C289.448,92.562,289.665,92.38,290.154,92.523L290.154,92.523z M303.323,91.166l-1.464,0.675l0.455,0.542l-1.62,0.159
		c-0.017,0.199-0.026,0.299,0.073,0.308c-0.598-0.052-1.213,0.095-2.443,0.389c0.238,0.723,1.403,0.022,2.391,0.209
		c-3.093,0.934-7.854,1.421-11.073,2.645c-0.442,0.463-0.905,0.021-1.187-0.204l1.239-0.394c0.243-0.481,0.832-0.329,1.239-0.394
		l-1.239,0.394c-0.009,0.1-0.108,0.091-0.117,0.191c2.833-0.254,6.026-1.179,7.876-2.824c-1.468-0.43-4.042,1.453-5.042,0.262
		c-1.434,1.481-3.998,0.955-4.727,2.397c-0.22-0.923-1.204-0.005-1.667-0.447c4.766-1.691,9.592-4.08,14.634-4.341l-3.111,1.133
		c1.187,0.204,3.855-0.466,5.246-1.448L303.323,91.166L303.323,91.166z M294.442,94.002c-0.524,0.255-0.923,0.22-1.629,0.259
		C293.519,94.223,293.762,93.742,294.442,94.002L294.442,94.002z M293.301,96.713l-0.984,0.918l-0.281-0.225l-0.923,0.22
		C291.139,97.327,292.487,96.843,293.301,96.713L293.301,96.713z M295.173,95.974l-0.425,0.264l-0.706,0.039L295.173,95.974
		L295.173,95.974z M296.121,95.454l0.199,0.017l-0.524,0.255L296.121,95.454L296.121,95.454z M302.168,95.18
		c0.238,0.723-0.966,0.719-1.391,0.983l-0.281-0.225C300.921,95.673,301.38,95.011,302.168,95.18L302.168,95.18z M304.512,94.783
		l-0.524,0.255l0.269-0.78L304.512,94.783L304.512,94.783z M304.572,96.394c-3.873,0.665-7.478,2.859-11.228,2.129
		c2.197-1.012,4.285-1.934,6.737-2.422l-0.442,0.463C300.933,96.678,303.104,95.965,304.572,96.394L304.572,96.394z M304.727,96.91
		l-2.17,0.714l1.872-0.74L304.727,96.91L304.727,96.91z M308.143,108.351l-0.463-0.442l-0.503,1.161
		c-3.37-0.496-4.767-4.031-7.668-5.288l0.017-0.199l-1.944-1.877l7.399-1.963C306.258,102.364,307.69,105.501,308.143,108.351
		L308.143,108.351z M395.077,73.897l-20.113,3.862l19.706-3.797L395.077,73.897L395.077,73.897z M400.604,72.674
		c-1.672,0.757-3.158,0.527-5.003,0.968C396.767,72.94,398.958,73.132,400.604,72.674L400.604,72.674z M370.224,79.151l35.903-6.496
		c-0.503,1.161-1.882,3.148-3.346,3.823l0.762,0.468c-0.225,0.281-0.243,0.481-0.26,0.68c-1.161-0.503-1.69,0.956-2.175,1.918
		c-0.005,1.204-2.336,2.606-3.126,4.746c-5.498,10.059-11.039,20.616-11.487,32.623l-0.667,0.745
		C383.119,103.869,377.85,90.659,370.224,79.151L370.224,79.151z M320.569,200.384c-0.02,4.817,1.004,10.327,2.639,14.585
		c0.1,0.009,0.191,0.117,0.191,0.117l-92.148-0.031c-36.021-7.066-70.385-19.308-95.111-48.775c4.761-0.487,10.5-0.688,15.559-1.148
		c3.153,0.677,6.467,0.666,9.053-0.212l-0.017,0.199c0.017-0.199,0.984-0.918,1.403,0.022c5.778,0.506,12.653-1.202,18.413-0.497
		c3.551,0.712,7.13-1.183,9.291,0.512c-0.498-0.044-0.987-0.187-1.685-0.248c1.225,0.91,3.37,0.496,4.6,0.202l-2.165-0.491
		l2.37-0.696c8.195,0.416,19.669,1.219,27.5,1.201c0.255,0.524,0.762,0.468,0.719,0.966c5.323-0.036,10.754,2.145,16.039,1.403
		l-0.005,1.204c6.484,0.467,12.743,1.215,18.437,3.821l-1.199-1.209c3.153,0.677,6.955,3.118,9.793,1.66l14.649,8.108l0.442-0.463
		c0.762,0.468,0.502,1.148,0.476,1.447c1.491-0.974,2.91,1.158,4.093,0.258c-1.923-0.971-2.662-2.843-4.81-3.533
		c0.529-1.459,1.403,0.022,2.17-0.714c-3.833-0.938-6.452-4.279-10.358-5.524l0.243-0.481c-1.667-0.447-3.347-1.899-4.564-2.909
		l0.243-0.481l-2.667-1.639l-0.741,0.437c-0.281-0.225-0.437-0.741-0.944-0.685c0.044-0.498,0.442-0.463,0.486-0.961
		c-1.442-0.728-3.083-1.474-4.048-3.064l0.723-0.238c-2.442-1.92-4.784-3.832-7.214-4.747l0.944,0.685
		c-2.408-0.01-1.697-1.253-3.828-2.142l0.542-0.455c-2.143-1.894-3.619-4.533-6.447-5.483l1.862,1.669
		c-2.132,1.42-1.636-1.95-2.823-2.154l0.498,0.044c-1.402-2.331-2.575-3.839-5.277-5.079c-3.614-5.737-10.966-11.198-14.41-17.723
		l8.427-3.378l-0.463-0.442c0.199,0.017,0.524-0.255,0.723-0.238c0.481,0.243,0.039,0.706,0.22,0.923l4.285-1.934l2.37-0.696
		c0.192-2.192,3.86-1.67,5.775-2.908l0.437,0.741c1.915-1.238,4.124-1.245,5.758-2.708l-0.481-0.243
		c4.29-3.138,11.944-4.576,17.958-6.761l-2.639,1.476l0.78,0.269c5.225-2.354,10.333-4.517,16.06-5.722
		c0.082,0.208-0.026,0.299-0.126,0.29c0.208-0.082,0.407-0.065,0.615-0.147c2.823,2.154,7.205,4.846,10.093,7.408
		c2.165,0.491,2.667,1.639,4.083,2.666c2.844,3.06,7.231,4.548,9.126,8.126c4.104,3.571,7.442,7.879,11.251,12.528
		c0.973,3.799,4.371,7.409,6.483,10.806c1.187,0.204,2.192,0.192,2.876-0.752c1.166-0.701,1.199,1.209,1.718,2.158
		c0.044-0.498,0.724-0.238,1.005-0.012c-0.199-0.017-0.225,0.281-0.723,0.238c0.463,0.442,0.961,0.486,1.442,0.728
		c-0.667,0.745,1.481,1.434,0.034,1.91c3.373,1.6,3.111,6.897,7.178,7.454l-1.939-3.081l0.888,0.178
		c-0.381-0.234-0.745-0.667-1.096-0.096c0.529-1.459-1.631-3.154-0.99-3.6l-0.75,0.537l-1-1.192l1.148-0.502l-0.745-0.667
		l-0.26,0.68c-0.432-1.945-2.177-3.804-2.626-5.55c0.199,0.017,0.524-0.255,0.498,0.044l-0.294-1.23l0.706-0.039
		c-0.463-0.442-0.918-0.984-1.156-1.707l-0.524,0.255c-0.719-0.966-1.463-1.634-1.259-2.82c0.746-1.641-2.9-3.566-0.968-5.003
		l-1.199-1.209c0.225-0.281,0.442-0.463,0.75-0.537c-2.172-5.008-4.798-10.558-6.97-15.567l0.459-0.662
		c-3.09-5.992-4.771-13.166-6.431-19.434l0.481,0.243l-0.463-0.442l17.086-4.829c-0.255-0.524-2.165-0.491-2.933,0.245l0.264,0.425
		c-1.91,0.034-3.076,0.735-4.761,0.487c-0.425,0.264-1.43,0.276-0.992,1.017l-8.123,2.2l-0.255-0.524l1.646-0.458
		c-0.961-0.486-1.69,0.956-2.408-0.01c5.45-2.635,10.735-3.377,16.986-4.838l-0.463-0.442l0.442-0.463
		c-5.003,0.968-10.033,2.234-14.59,3.843c-0.923,0.22-2.894,0.951-2.872-0.452c2.894-0.951,6.676-1.725,9.587-2.875l1.239-0.394
		l0.009-0.1c2.396-0.995,4.082-3.056,6.716-3.327c-0.044,0.498-0.442,0.463-0.468,0.762c1.192-1,3.076-0.735,3.86-1.67
		c-1.161-0.503-2.59-0.227-3.586-0.314l4.566-1.709c-3.53,0.193-5.948,2.591-9.085,4.023l-0.463-0.442
		c-1.166,0.701-2.608-0.027-4.081,0.747c-0.299-0.026-0.589-0.152-0.87-0.377c-1.538,0.367-4.7-0.21-5.463,1.63
		c-0.918-0.984-1.68-1.452-2.91-1.158c1.915-1.238,6.559-1.534,8.456-2.573l-0.04,1.603l1.603,0.04
		c1.408-1.182,2.209-0.007,3.6-0.99c-0.77-2.677,3.119-1.233,4.021-2.359l-0.463-0.442l1.148-0.502
		c-2.612,1.177-5.688,1.912-8.664,2.655l-0.238-0.723c1.248-0.493,3.149-0.427,3.86-1.67c-1.222,0.194-4.804,0.985-7.217,2.179
		l0.213-1.286c-2.17,0.714-4.358,1.626-7.369,2.768l-0.476-1.447l3.292-0.917c-1.187-0.204-2.127,0.215-3.076,0.735
		c-0.714-2.17-0.946-4.098-1.669-6.169c0.698-10.278-0.024-20.38,3.347-30.223c1.872-0.74,3.139,1.981,4.993,1.441l-0.169,0.788
		l0.68,0.26c0.044-0.498-0.264-0.425-0.537-0.75c0.542-0.455,0.966-0.719,1.746-0.45c0.514,2.153,3.37,0.496,4.534,2.103
		c0.476,1.447-1.695,2.161-2.137,2.624c0.039,0.706,0.719,0.966,1.243,0.711c0.665,3.873,4.316,4.594,7.183,6.25
		c2.624,2.137,4.767,4.031,7.651,5.488c2.831,4.363,7.966,7.623,10.814,11.787l-0.225,0.281c2.17-0.714,2.182,2.6,3.568,2.822
		c-4.042,1.453-10.323,2.108-14.391,3.86c-2.153,0.514-0.442,0.463-1.95,1.636l12.901-2.887c0.049-1.702,2.613-1.177,4.059-1.652
		c1.415,3.336,4.503,3.606,5.238,6.682l-0.225,0.281c6.483,10.806,13.672,21.574,15.814,33.807l-0.984,0.918l0.905-0.021
		c-0.044,0.498-0.269,0.78-0.187,0.987c1.453,4.042,0.208,7.948,1.644,12.19c-1.474,3.083,0.477,7.169,0.263,10.764
		c-1.435,1.481,0.956,1.69,0.427,3.149C350.28,156.808,326.608,173.81,320.569,200.384L320.569,200.384z M317.923,84.914
		c0.255,0.524-0.524,0.255-0.442,0.463C317.399,85.17,317.724,84.897,317.923,84.914L317.923,84.914z M313.103,91.821l0.498,0.044
		l-0.949,0.519L313.103,91.821L313.103,91.821z M314.034,91.501c0.169-0.788,3.371-1.813,5.29-1.946l1.019-1.316
		c0.524-0.255,0.025,2.01,0.086,1.312c-0.299-0.026-0.697-0.061-1.105,0.004l-0.342,0.472L314.034,91.501L314.034,91.501z
		 M318.622,90.697c-0.928,1.425-3.093,0.934-4.584,1.908C315.529,91.631,317.257,91.381,318.622,90.697L318.622,90.697z
		 M321.061,89.204l0.442-0.463l0.199,0.017C320.78,88.979,321.741,89.464,321.061,89.204L321.061,89.204z M324.175,89.176
		l0.199,0.017l-1.23,0.294L324.175,89.176L324.175,89.176z M318.907,83.997l-0.017,0.199c0.516-0.156,1.031-0.311,1.555-0.567
		L318.907,83.997L318.907,83.997z M327.311,82.022c-2.85,0.453-4.904,0.976-6.858,1.508L327.311,82.022L327.311,82.022z
		 M325.41,89.986l-1.239,0.394l-0.035,0.398L325.41,89.986L325.41,89.986z M281.029,106.18c0.516-0.156,1.512-0.069,1.837-0.341
		C282.35,105.994,281.744,106.042,281.029,106.18L281.029,106.18z M229.199,114.594c-0.1-0.009-0.108,0.091-0.208,0.082
		c0.407-0.065,0.806-0.03,1.204,0.005C229.913,114.456,229.506,114.521,229.199,114.594L229.199,114.594z M229.09,114.685
		l-0.1-0.009l-0.1-0.009C228.891,114.668,228.991,114.677,229.09,114.685L229.09,114.685z M228.683,114.75
		c-0.199-0.017-0.407,0.065-0.507,0.056c-0.308,0.073-0.507,0.056-0.814,0.13C227.769,114.871,228.276,114.815,228.683,114.75
		L228.683,114.75z M301.925,87.63l-5.536,1.323C299.469,89.323,301.124,88.765,301.925,87.63L301.925,87.63z"/>
    <polygon fill="#FFFFFF" points="334.059,0.299 333.271,0.129 333.977,0.091 	"/>
    <path fill="#FFFFFF" d="M335.48,0.122c0.255,0.524-0.724,0.238-1.23,0.294C334.458,0.334,334.9-0.13,335.48,0.122L335.48,0.122
		L335.48,0.122z"/>
    <path fill="#FFFFFF" d="M338.334,0.773c1.204,0.005,2.889,0.253,4.037-0.249c0.044-0.498-0.706,0.039-0.979-0.286
		c1.187,0.204,3.556-0.492,4.357,0.682c0.481,0.243,0.979,0.286,1.204,0.005c0.468-0.762,1.442,0.728,1.646-0.458
		c-0.264-0.425-0.489-0.143-0.689-0.161c2.352-0.497,4.988,2.645,7.671,0.671l0.044-0.498c1.685,0.248,3.314-0.011,4.773,0.518
		l-3.639,0.284c0.42,0.94,1.43-0.276,2.347,0.707c1.166-0.701,2.672,0.435,3.617-1.189L362.22,1.96
		c1.928-0.233,4.357,0.682,5.566-0.517l-0.199-0.017c0.701,1.166,3.132-0.228,4.574,0.501l5.479,0.479
		c-0.217,0.182-0.286,0.979,0.519,0.949l0.923-0.22c-0.281-0.225-0.463-0.442-0.762-0.468c0.966-0.719,2.872,0.452,4.275,0.474
		c0.182,0.217-1.447,0.476-0.204,1.187l1.408-1.182l0.493,1.248c0.706-0.039,2.426-0.189,2.612-1.177
		c0.706-0.039-0.26,0.68,0.012,1.005c0.22,0.923,1.473-0.775,1.243,0.711c0.706-0.039,1.889-0.939,2.608,0.027
		c1.872-0.74,3.551,0.712,5.523-0.019c2.104,1.188,4.799,0.219,7.146,0.926c-0.044,0.498-0.741,0.437-0.685,0.944l0.281,0.225
		c1.677-1.961,6.246-0.257,8.394,0.433c0.217-0.182-0.039-0.706,0.459-0.662c0.463,0.442,0.956,1.69,2.16,1.695l0.243-0.481
		c0.044-0.498-0.454-0.542-0.961-0.486l-0.199-0.017l-0.199-0.017c0.486-0.961,1.204,0.005,1.91-0.034
		c-0.325,0.273,0.138,0.715,0.61,1.057c0.044-0.498,0.468-0.762,0.204-1.187c2.429,0.915,5.462,0.679,7.159,1.931
		c0.68,0.26,1.442,0.728,2.365,0.508l-0.46-0.442c1.503,0.031,2.889,0.253,3.607,1.219c0.723-0.238,1.646-0.458,1.641,0.746
		c0.222-1.386,3.132-0.228,4.553-0.405c0.757,1.672,2.403,1.214,4.071,1.661c0.225-0.281,0.044-0.498-0.039-0.706l1.199,1.209
		c0.723-0.238,0.243-0.481-0.012-1.005c1.222-0.194,1.94,0.772,3.17,0.478c-0.949,0.519-1.949-0.672-2.634,0.271
		c-0.442,0.463,0.481,0.243,0.537,0.75c1.209-1.199,2.429,0.915,2.876-0.752c0.22,0.923,0.979,0.286,1.486,0.23
		c5.049,1.948,11.278,1.89,16.328,3.838l-0.442,0.463c1.442,0.728,3.612,0.015,3.564,1.717c1.23-0.294,1.396-2.187,3.076-0.735
		l1.222-0.194l-0.443,0.465c0.68,0.26,1.187,0.204,1.447-0.476l-0.217,0.182l1.161,0.503l-0.524,0.255l1.91-0.034l-1.166,0.701
		c0.509,3.357,4.551,1.904,5.976,2.832l-0.017,0.199c0.979,0.286,1.702,0.049,2.872,0.452c-0.22-0.923-1.905-1.171-2.867-1.656
		l0.199,0.017l-0.437-0.741l-0.667,0.745l-4.05-0.756c0.724-0.238,1.685,0.248,2.153-0.514l-2.165-0.491
		c0.905-0.021,2.431-1.393,3.114-0.029c1.408-1.182,2.585,1.431,3.868,0.539c0.675,1.464,1.884,0.265,3.17,0.478
		c-0.711,1.243,0.658,1.664,1.662,1.651l-3.331,0.21c0.238,0.723,2.109-0.016,2.403,1.214l1.005-0.012
		c-1.646,0.458,0.016,2.109-0.751,2.845c0.757,1.672,1.486,0.23,2.629,0.933c1.723,0.954,3.607,1.219,5.474,1.684l-0.437-0.741
		c2.408,0.01,4.573,2.809,6.423,1.164c1.945-0.432,2.398,2.418,4.556,0.7c4.309,2.385,10.516,1.422,14.617,3.889l1.166-0.701
		c0.281,0.225,0.238,0.723,0.736,0.767c-0.425,0.264-1.248,0.493-1.707,1.156l0.944,0.685c-0.217,0.182-0.68-0.26-0.949,0.519
		c6.397,1.463,12.638,2.411,18.905,3.059l0.039,0.706c-12.699-1.713-25.419-4.332-37.845-5.72c-0.685,0.944-1.641-0.746-2.17,0.714
		c1.442,0.728,3.838-0.267,5.462,0.679l0.762,0.468c0.248-1.685,2.136-0.315,3.088,0.27c2.906,0.054,7.19,0.428,10.317,1.405
		c0.281,0.225,0.039,0.706,0.437,0.741l0.243-0.481c1.641,0.746,3.083,1.474,4.812,1.224l0.26-0.68
		c3.578,0.413,6.435,2.169,10.048,2.184c-1.672,0.757-4.556-0.7-6.666-0.684c-10.841-1.149-21.287-3.368-32.302-4.834
		c-1.199-1.209-3.396-0.197-5.037-0.943c-5.037-0.943-10.798-1.647-15.31-2.845c-2.37,0.696-5.219-1.159-8.099-1.512
		c-1.243-0.711-2.881,1.956-3.097-0.171c-0.68-0.26-2.122-0.989-2.915,0.046l-68.515-12.015c-37.603-6.201-81.429-5.518-119.52,1.89
		c-42.12,9.867-79.075,31.829-114.01,59.389c-5.036,4.779-10.795,9.796-16.757,13.692c-1.85,1.645-3.091,4.347-5.521,5.741
		l-0.498-0.044c9.317-15.848,27.053-29.254,40.491-41.73c4.333-3.636,9.857-5.964,13.13-10.094l-0.199-0.017
		c4.341-1.427,8.116-6.718,12.7-8.626c0.281,0.225,0.264,0.425,0.463,0.442c0.217-0.182,0.524-0.255,0.442-0.463l-0.281-0.225
		c2.583-1.982,6.417-3.354,9.298-5.31c4.108-3.355,8.851-3.642,12.652-6.924c3.093-0.934,5.494-3.133,9.124-3.317
		c0.512-1.26,1.959-1.736,3.18-1.93l-0.017,0.199c7.422-3.366,15.822-6.446,23.681-9.071l0.762,0.468
		c1.721-2.459,4.778-0.686,6.98-2.903c1.407,1.127,4.037-0.249,5.783-0.699c-0.944-0.685-1.928,0.233-2.651,0.471
		c0.468-0.762,2.938-1.449,3.881-0.765c1.153-1.706,3.899-0.964,5.29-1.946c0.243-0.481-0.044,0.498,0.238,0.723
		c1.677-1.961,6.043-1.379,8.179-1.694l4.098-0.946c-0.437-0.741-2.651,0.471-4.055,0.448l10.505-1.892l0.463,0.442
		c0.486-0.961,3.119-1.233,4.323-1.228l-0.568,0.753c0.463,0.442,1.187,0.204,1.884,0.265l-1.243-0.711
		c1.685,0.248,3.574-0.691,4.998,0.237l0.442-0.463L305.8,2.04l1.91-0.034l-0.044,0.498l1.403,0.022L309.03,1.82
		c2.396-0.995,2.429,0.915,5.059-0.461l-0.442,0.463c0.706-0.039,1.966,0.473,2.434-0.289l-1.685-0.248
		c0.442-0.463,1.43-0.276,2.127-0.215c-0.161,0.689,0.519,0.949,1.017,0.992c0.724-0.238,1.148-0.502,1.872-0.74
		c-0.32-0.931-0.706,0.039-1.187-0.204c1.469-1.879,1.212,2.214,2.352-0.497c0.255,0.524,0.294,1.23,1,1.192l0.243-0.481
		l-0.073-0.308l1.204,0.005c0,0-0.225,0.281-0.017,0.199c-0.017,0.199-0.017,0.199,0.281,0.225l0.442-0.463l-0.281-0.225L327.257,0
		l0.012,1.005l3.838-0.267l-1.442-0.728l2.906,0.054l-0.468,0.762c1.641,0.746,3.05-0.436,5.016,0.037L336.89,0.04l1.403,0.022
		L338.334,0.773L338.334,0.773L338.334,0.773z"/>
    <path fill="#FFFFFF"
          d="M347.132,0.037c0.255,0.524-1.447,0.476-1.403-0.022L347.132,0.037L347.132,0.037L347.132,0.037z"/>
    <polygon fill="#FFFFFF" points="355.093,0.834 353.651,0.106 355.119,0.535 	"/>
    <path fill="#FFFFFF" d="M365.813,1.069l-0.017,0.199l-0.862-0.477C365.133,0.809,365.631,0.853,365.813,1.069L365.813,1.069
		L365.813,1.069z"/>
    <polygon fill="#FFFFFF" points="311.24,1.816 311.24,1.816 310.499,2.253 310.517,2.054 	"/>
    <polygon fill="#FFFFFF" points="406.591,6.544 406.608,6.345 407.596,6.532 407.37,6.813 	"/>
    <path fill="#FFFFFF" d="M449.984,14.255c-0.017,0.199-0.442,0.463-0.75,0.537C449.46,14.511,449.685,14.229,449.984,14.255
		L449.984,14.255L449.984,14.255z"/>
    <polygon fill="#FFFFFF" points="469.797,20.707 469.815,20.507 470.819,20.495 470.802,20.694 	"/>
    <path fill="#FFFFFF" d="M484.432,22.088l-0.243,0.481l0.204-1.187C484.493,21.39,484.948,21.932,484.432,22.088L484.432,22.088
		L484.432,22.088z"/>
    <polygon fill="#FFFFFF" points="486.395,21.456 486.421,21.157 487.101,21.418 487.084,21.617 	"/>
    <path fill="#FFFFFF" d="M488.288,21.622c-0.017,0.199-0.498-0.044-0.905,0.021C487.582,21.66,488.024,21.197,488.288,21.622
		L488.288,21.622L488.288,21.622z"/>
    <path fill="#FFFFFF" d="M489.249,22.107c-0.741,0.437,0.012,1.005,0.276,1.43c-0.68-0.26-0.949,0.519-0.685,0.944
		c-0.463-0.442-1.667-0.447-1.403-0.022c0.217-0.182,0.187-0.987,0.005-1.204c-0.463-0.442-1.187-0.204-1.685-0.248
		c0.667-0.745-0.68-0.26-0.42-0.94C486.654,23.085,487.819,22.384,489.249,22.107L489.249,22.107L489.249,22.107z"/>
    <polygon fill="#FFFFFF" points="491.696,22.823 491.15,22.173 491.614,22.615 	"/>
    <path fill="#FFFFFF" d="M494.099,24.037c-0.468,0.762-2.872-0.452-2.132,1.42c1.143,0.702,1.728-0.25,2.651-0.471l-0.255-0.524
		c1.486,0.23,1.227-1.398,2.408,0.01l-0.667,0.745c0.199,0.017-0.017,0.199-0.044,0.498c-0.238-0.723-1.486-0.23-1.928,0.233
		c1.662,1.651,2.413-1.194,4.072-0.648c0.447-1.667,1.667,0.447,2.153-0.514l-0.225,0.281c0.519,0.949,1.43-0.276,2.127-0.215
		c-0.949,0.519-0.022,1.403,0.034,1.91c-2.625,0.172-4.083-2.666-5.496-0.28c1.68,1.452,0.685-0.944,2.452-0.488l-1.166,0.701
		l6.28,1.654l0.243-0.481l12.196,2.874l1.408-1.182c-1.651,1.662,0.9,1.183,1.437,1.933c3.855-0.466,8.181,1.72,11.776,1.934
		c2.573,0.426,6.241,0.948,9.13,1.2c6.678,1.688,13.196,4.066,20.845,3.831c-1.667-0.447-4.523,1.21-6.021-0.025
		c-2.209,0.007-5.977-0.523-7.887-0.489c-0.956-1.69-3.331,0.21-5.037-0.943c0.199,0.017-0.039-0.706,0.269-0.78
		c1.005-0.012,1.966,0.473,2.59,0.227c-1.243-0.711-3.347-1.899-4.474-0.492c-2.132,1.42-4.287-1.479-6.302-0.25l-0.745-0.667
		c-0.217,0.182-0.26,0.68-0.767,0.736c-0.752-2.876-3.889-1.444-5.518-1.185l0.225-0.281c-1.005,0.012-2.122-0.989-2.634,0.271
		l-0.498-0.044c-0.255-0.524,0.442-0.463,0.486-0.961c-0.463-0.442-1.005,0.012-1.685-0.248l0.519,0.949
		c-0.762-0.468-0.719-0.966-1.884-0.265l-0.498-0.044c0.243-0.481,0.667-0.745,0.529-1.459c-0.225,0.281-1.386-0.222-1.473,0.775
		l-0.017,0.199l-0.719-0.966c-0.286,0.979-0.706,0.039-1.503-0.031c-1.667-0.447-3.574,0.691-5.054-0.743
		c0.923-0.22,1.641,0.746,2.664,0.534c-0.22-0.923-2.603-1.232-3.634-0.92c-1.01,1.217-2.122-0.989-3.833-0.938l-0.685,0.944
		l-0.736-0.767l0.442-0.463l0.264,0.425c1.408-1.182,3.569,0.513,5.016,0.037c-3.347-1.899-7.87-0.689-10.802-0.443l-0.212-1.022
		l-0.524,0.255c-0.42-0.94-2.447-0.716-3.612-0.015c0.26-0.68-2.148-0.69-2.884-1.457l-1.23,0.294
		c0.928-1.425,2.915-0.046,4.362-0.522l-0.044,0.498l3.868,0.539c-4.607-2.411-11.252-2.189-16.726-3.873
		c1.464-0.675,4.088,1.462,5.947-0.283l-1.667-0.447l1.928-0.233l-0.493-1.248C490.885,24.057,493.038,23.543,494.099,24.037
		L494.099,24.037L494.099,24.037z"/>
    <path fill="#FFFFFF"
          d="M487.091,23.826c-0.498-0.044-1.464,0.675-1.486-0.23L487.091,23.826L487.091,23.826L487.091,23.826z"/>
    <path fill="#FFFFFF" d="M503.866,25.996c1.641,0.746,3.595,0.214,4.513,1.198c2.418-2.398,2.36,1.712,5.054,0.743
		c0.984-0.918,1.403,0.022,2.669-0.67c0.463,0.442,0.021,0.905-0.286,0.979c0.437,0.741,2.188-0.913,1.923,0.971
		c-0.979-0.286-1.966-0.473-3.17-0.478l0.944,0.685l-1.91,0.034l0.724-0.238c-0.255-0.524-0.519-0.949-1.143-0.702
		c-0.498-0.044-1.707,1.156-2.651,0.471l0.949-0.519c-0.493-1.248-2.165-0.491-3.109-1.175l-0.044,0.498l1.243,0.711
		c-1.667-0.447-5.722,0.001-7.215-2.438l1.391-0.983L503.866,25.996L503.866,25.996L503.866,25.996z"/>
    <polygon fill="#FFFFFF" points="506.001,25.681 505.538,25.239 506.036,25.283 	"/>
    <path fill="#FFFFFF" d="M487.319,26.958c0.425-0.264,1.187,0.204,1.447-0.476l4.838,0.925c-0.524,0.255-1.166,0.701-1.889,0.939
		l0.005-1.204c-2.153,0.514-1.949-0.672-3.357,0.509c-1.425-0.928-4.799-0.219-4.525-2.203
		C485.214,25.77,487.324,25.753,487.319,26.958L487.319,26.958L487.319,26.958z"/>
    <polygon fill="#FFFFFF" points="513.239,26.716 512.061,26.412 513.265,26.417 	"/>
    <path fill="#FFFFFF" d="M526.859,30.517l-0.017,0.199c-0.984,0.918-2.148-0.69-3.612-0.015c-0.9-1.183-3.153-0.677-4.794-1.423
		l1.421-0.177l-0.039-0.706C522.364,29.12,524.468,30.308,526.859,30.517L526.859,30.517L526.859,30.517z"/>
    <path fill="#FFFFFF"
          d="M524.257,29.286l-1.005,0.012c0.199,0.017,0.46-0.662,0.94-0.42L524.257,29.286L524.257,29.286z"/>
    <path fill="#FFFFFF" d="M494.742,29.314l-0.044,0.498l-0.437-0.741C494.56,29.097,494.543,29.296,494.742,29.314L494.742,29.314
		L494.742,29.314z"/>
    <path fill="#FFFFFF"
          d="M528.25,29.535c-0.702,1.143-2.373-0.408-2.872-0.452L528.25,29.535L528.25,29.535L528.25,29.535z"/>
    <path fill="#FFFFFF" d="M500.464,29.312c-0.044,0.498-0.468,0.762-0.75,0.537C499.541,29.533,500.264,29.295,500.464,29.312
		L500.464,29.312L500.464,29.312z"/>
    <path fill="#FFFFFF" d="M530.003,31.294l-2.391-0.209l0.044-0.498C528.588,30.267,529.224,31.025,530.003,31.294L530.003,31.294
		L530.003,31.294z"/>
    <polygon fill="#FFFFFF" points="510.096,31.661 509.407,31.5 510.113,31.461 	"/>
    <path fill="#FFFFFF"
          d="M527.634,31.99l-1.005,0.012c0.243-0.481,0.442-0.463,0.94-0.42L527.634,31.99L527.634,31.99z"/>
    <path fill="#FFFFFF"
          d="M531.896,31.46c-0.217,0.182-1.447,0.476-1.005,0.012L531.896,31.46L531.896,31.46L531.896,31.46z"/>
    <polygon fill="#FFFFFF" points="538.805,31.663 539.121,31.49 540.563,32.218 	"/>
    <path fill="#FFFFFF" d="M546.02,34.101c-0.468,0.762-1.442-0.728-1.945,0.432l0.762,0.468c-0.724,0.238-2.156-2.899-2.872-0.452
		l-0.779-0.269l0.199,0.017c-2.161-1.695-6.236-2.152-9.286-1.716c1.677-1.961,4.353-0.422,6.428-0.04
		C541.226,32.678,543.672,33.394,546.02,34.101L546.02,34.101L546.02,34.101z"/>
    <polygon fill="#FFFFFF" points="535.542,33.385 534.763,33.116 535.46,33.177 	"/>
    <path fill="#FFFFFF" d="M546.505,33.14c-0.225,0.281-0.017,0.199-0.017,0.199l-0.481-0.243L546.505,33.14L546.505,33.14
		L546.505,33.14z"/>
    <path fill="#FFFFFF" d="M548.688,33.431c-0.225,0.281-0.442,0.463-0.286,0.979c0.238,0.723,0.741-0.437,0.68,0.26
		c-0.75,0.537-2.365-0.508-3.158,0.527C546.02,34.101,547.965,33.669,548.688,33.431L548.688,33.431L548.688,33.431z"/>
    <path fill="#FFFFFF" d="M550.88,33.623c-0.243,0.481-1.248,0.493-1.43,0.276C549.62,33.111,550.3,33.371,550.88,33.623
		L550.88,33.623L550.88,33.623z"/>
    <path fill="#FFFFFF" d="M551.273,34.862c-0.26,0.68-1.005,0.012-1.629,0.259l0.243-0.481
		C550.368,34.883,550.819,34.32,551.273,34.862L551.273,34.862L551.273,34.862z"/>
    <path fill="#FFFFFF" d="M553.682,34.872c-0.741,0.437-0.905,0.021-1.629,0.259l0.044-0.498
		C552.478,34.867,553.201,34.629,553.682,34.872L553.682,34.872L553.682,34.872z"/>
    <path fill="#FFFFFF" d="M540.239,38.213l-19.608-1.916l0.905-0.021l-2.585-1.431l0.225-0.281
		C526.154,36.278,533.617,37.031,540.239,38.213L540.239,38.213L540.239,38.213z"/>
    <path fill="#FFFFFF" d="M555.575,35.037l-1.187-0.204C554.613,34.552,555.337,34.314,555.575,35.037L555.575,35.037L555.575,35.037
		z"/>
    <polygon fill="#FFFFFF" points="529.555,35.27 529.997,34.807 531.175,35.111 	"/>
    <polygon fill="#FFFFFF" points="553.902,35.794 554.652,35.258 555.106,35.799 	"/>
    <path fill="#FFFFFF" d="M560.43,35.763c-0.989,2.122-3.088-0.27-4.518,0.006C557.277,35.086,559.177,37.46,560.43,35.763
		L560.43,35.763L560.43,35.763z"/>
    <path fill="#FFFFFF" d="M551.588,36.997c-0.524,0.255-0.238-0.723-0.294-1.23C552.074,36.036,551.515,36.69,551.588,36.997
		L551.588,36.997L551.588,36.997z"/>
    <polygon fill="#FFFFFF" points="552.719,36.695 552.754,36.296 553.941,36.5 	"/>
    <path fill="#FFFFFF" d="M562.833,36.977l-1.884-0.265C561.309,36.041,562.314,36.028,562.833,36.977L562.833,36.977L562.833,36.977
		z"/>
    <polygon fill="#FFFFFF" points="555.101,37.003 555.825,36.766 557.029,36.771 	"/>
    <polygon fill="#FFFFFF" points="521.333,37.462 521.376,36.964 522.581,36.969 	"/>
    <polygon fill="#FFFFFF" points="526.431,37.707 526.375,37.201 527.553,37.504 	"/>
    <path fill="#FFFFFF" d="M560.463,37.673c-0.243,0.481-1.222,0.194-1.486-0.23C559.476,37.487,560.199,37.249,560.463,37.673
		L560.463,37.673L560.463,37.673z"/>
    <polygon fill="#FFFFFF" points="562.122,38.22 561.36,37.752 562.066,37.713 	"/>
    <path fill="#FFFFFF" d="M531.949,38.893l-2.365-0.508C530.204,37.034,530.944,38.905,531.949,38.893L531.949,38.893L531.949,38.893
		z"/>
    <path fill="#FFFFFF" d="M543.128,38.466c-0.299-0.026-1.209,1.199-1.403-0.022C542.167,37.98,542.73,38.431,543.128,38.466
		L543.128,38.466L543.128,38.466z"/>
    <path fill="#FFFFFF" d="M537.401,39.671l-0.905,0.021l0.26-0.68C536.639,39.203,537.445,39.173,537.401,39.671L537.401,39.671
		L537.401,39.671z"/>
    <path fill="#FFFFFF" d="M520.18,39.168c-0.741,0.437-1.447,0.476-2.127,0.215C518.694,38.938,519.474,39.207,520.18,39.168
		L520.18,39.168L520.18,39.168z"/>
    <path fill="#FFFFFF"
          d="M563.087,39.81l-5.778-0.506c1.435-1.481,3.833,0.938,5.722-0.001L563.087,39.81L563.087,39.81z"/>
    <path fill="#FFFFFF" d="M540.572,40.149l-1.005,0.012l0.225-0.281l-0.944-0.685C539.555,39.157,540.542,39.343,540.572,40.149
		L540.572,40.149L540.572,40.149z"/>
    <path fill="#FFFFFF" d="M539.107,40.824c-0.199-0.017-0.961-0.486-1.222,0.194l5.773,1.71c-2.408-0.01-5.743-0.904-7.44-2.157
		L539.107,40.824L539.107,40.824L539.107,40.824z"/>
    <path fill="#FFFFFF" d="M546.223,43.253l-1.91,0.034l0.044-0.498C544.846,42.932,545.768,42.712,546.223,43.253L546.223,43.253
		L546.223,43.253z"/>
    <path fill="#FFFFFF" d="M557.279,46.53l-5.28-0.462l0.044-0.498C554.425,45.878,555.187,46.347,557.279,46.53L557.279,46.53
		L557.279,46.53z"/>
    <path fill="#FFFFFF" d="M577.186,48.472c-0.677,3.153,3.116,5.693-0.433,8.394c-2.911,1.151-3.87,4.078-6.764,5.03
		c-0.049,1.702-1.396,2.187-2.817,2.363l-5.799-1.411c-2.843,2.662-5.958,5-8.883,7.454l0.255,0.524l-1.43,0.276
		c1,1.192-1.469,1.879-1.955,2.84c-1.685-0.248-0.473,1.966-2.175,1.918c0.182,0.217,0.481,0.243,0.987,0.187
		c-0.723,0.238-1.434,1.481-1.954,0.532c-1.166,0.701-0.534,2.664-2.656,1.675l-0.044,0.498c-0.463-0.442-1.403-0.022-1.166,0.701
		c-0.243,0.481,0.463,0.442,0.437,0.741c0.243-0.481,1.248-0.493,1.646-0.458l-2.904,3.36l-0.22-0.923
		c-0.762-0.468-1.672,0.757-1.408,1.182c0.481,0.243,0.905-0.021,1.403,0.022l-1.651,1.662c-0.238-0.723-0.979-0.286-1.204-0.005
		l0.537,0.75l-2.434,0.289c1.498,1.235-0.733,2.646-1.656,2.867c-0.524,0.255-0.767,0.736-0.984,0.918l0.463,0.442l-0.299-0.026
		l-0.044,0.498c-1.204-0.005-2.634,0.271-3.561,1.696l1.187,0.204l-1.447,0.476l0.762,0.468c-0.498-0.044-0.741,0.437-0.685,0.944
		c-0.498-0.044-1.928,0.233-2.669,0.67c-0.017,0.199,0.264,0.425,0.238,0.723l-0.442,0.463c-0.238-0.723-0.961-0.486-1.468-0.43
		l1,1.192c-0.933,2.629-3.352-0.695-4.54,1.41c0.519,0.949,2.153-0.514,1.905,1.171c-0.923,0.22-1.171,1.905-2.413,1.194
		c-0.701-1.166-2.881,1.956-4.076-0.457c-0.706,0.039-2.214,1.212-0.928,1.425c-0.42-0.94-1.646,0.458-2.37,0.696l0.519,0.949
		l-2.132,1.42c1.459,0.529,1.889-0.939,2.838-1.458l0.005-1.204c0.476,1.447,1.43-0.276,1.954-0.532
		c1.966,0.473,4.081-0.747,5.965-0.482l-0.724,0.238l0.463,0.442c-1.01,1.217-3.071-0.469-4.081,0.747
		c0.281,0.225,0.463,0.442,0.437,0.741c-0.498-0.044-1.36-0.52-1.706-1.153l-1.634,1.463l0.879,0.278l-1.148,0.502
		c0.238,0.723,1.403,0.022,2.209-0.007l-0.017,0.199l1.685,0.248c-2.188,0.913-3.323,2.42-5.775,2.908l0.248-1.685
		c-1.187-0.204-1.469,1.879-2.639,1.476c-0.966,0.719-2.916,2.355-4.341,1.427c0.524-0.255,1.403,0.022,1.174-0.801
		c-0.745-0.667-1.43,0.276-2.352,0.497l-0.044,0.498c-1.264-1.616-2.197,1.012-3.137,1.432c0.961,0.486,1.872-0.74,3.149-0.427
		l-2.375,1.9c0.442-0.463-0.502-1.148-1.199-1.209c-1.005,0.012-1.746,0.45-2.183-0.291l-2.639,1.476
		c1,1.192,1.646-0.458,2.915-0.046l-0.641,0.446l0.238,0.723l-0.425,0.264l-0.255-0.524c-0.949,0.519-2.088,0.922-3.154,1.631
		l1.017,0.992c-2.148-0.69-4.259,1.635-6.256,2.665l-0.19-0.117c-0.933,2.629-3.761,1.679-4.975,4.082
		c-1.459-0.529-2.149,1.619-4.059,1.652c-3.129,3.641-8.366,2.681-11.304,6.439c0.199,0.017,0.255,0.524-0.044,0.498
		c-2.664-0.534-4.788,3.094-7.92,3.322c0.772-1.94,3.336-1.415,4.264-2.839c2.114-1.22,5.295-3.151,7.643-4.752
		c0.498,0.044,0.949-0.519,1.491-0.974c-0.22-0.923-1.486-0.23-1.928,0.233l0.486-0.961c8.393-5.289,16.034-13.454,24.227-18.76
		l1.227-1.398c-3.899,0.964-6.465,5.056-10.264,6.028c2.392-2.1,5.312-3.35,6.163-6.186l0.481,0.243l22.262-21.542l0.238,0.723
		l1.37-1.888l0.463,0.442c-0.259-1.629,1.391-0.983,2.119-2.425c4.3-5.546,10.033-10.265,14.116-15.629l0.498,0.044
		c-0.026,0.299-0.225,0.281-0.442,0.463c2.408,0.01,3.589-4.304,6.261-3.869c2.617-2.381,5.235-4.762,8.172-6.211l-0.944-0.685
		c0.204-1.187,1.43-0.276,1.872-0.74l-0.32-0.931c6.943-0.196,11.967-5.98,19.395-4.828
		C573.601,45.849,575.501,48.224,577.186,48.472L577.186,48.472L577.186,48.472z"/>
    <path fill="#FFFFFF"
          d="M516.06,105.762c-0.199-0.017-0.966,0.719-1.005,0.012L516.06,105.762L516.06,105.762L516.06,105.762z"/>
    <path fill="#FFFFFF" d="M509.59,112.022l0.281,0.225l-2.838,1.458l-0.437-0.741c-1.192,1-2.677,0.77-3.86,1.67
		c0.264,0.425,0.788,0.169,0.987,0.187c-2.17,0.714-3.38,1.913-5.55,2.626l1.685,0.248l-3.158,0.527
		c0.012,1.005-2.109,0.016-1.127,1.407c1.187,0.204,2.669-0.67,3.773-0.674c-3.799,0.973-7.659,2.642-11.264,4.837l0.736,0.767
		c-0.966,0.719-1.386-0.222-2.625,0.172c0.493,1.248-1.447,0.476-1.933,1.437c-0.949,0.519-1.95,1.636-3.401,1.007
		c3.881-0.765,6.041-4.792,10.022-5.548l6.963-5.012l-0.243,0.481c1.928-0.233,3.622-2.393,5.031-3.575l0.264,0.425l4.325-3.537
		c1.624,0.945,2.651-0.471,4.081-0.747c0.022-1.403,1.403,0.022,1.889-0.939C514.139,110.513,510.842,110.325,509.59,112.022
		L509.59,112.022L509.59,112.022z"/>
    <polygon fill="#FFFFFF" points="506.965,112.194 509.595,110.818 510.102,110.762 	"/>
    <path fill="#FFFFFF" d="M502.69,111.72c0.476,1.447-0.949,0.519-1.426,1.381L501,112.676
		C501.979,112.963,501.659,112.031,502.69,111.72L502.69,111.72L502.69,111.72z"/>
    <polygon fill="#FFFFFF" points="508.468,112.225 508.386,112.017 508.892,111.961 508.866,112.26 	"/>
    <polygon fill="#FFFFFF" points="501.476,114.123 500.813,113.664 501.42,113.616 	"/>
    <path fill="#FFFFFF" d="M504.585,115.299c-0.044,0.498-1.127,1.407-2.158,1.718C502.432,115.813,503.68,115.32,504.585,115.299
		L504.585,115.299L504.585,115.299z"/>
    <polygon fill="#FFFFFF" points="494.778,117.251 494.297,117.008 494.795,117.052 	"/>
    <path fill="#FFFFFF" d="M502.228,117c-0.459,0.662-1.209,1.199-1.915,1.238C500.274,117.531,501.505,117.238,502.228,117
		L502.228,117L502.228,117z"/>
    <path fill="#FFFFFF" d="M496.43,121.311l-0.199-0.017c-0.463-0.442,0.741-0.437,0.91-1.225
		C497.396,120.592,496.954,121.056,496.43,121.311L496.43,121.311L496.43,121.311z"/>
    <path fill="#FFFFFF" d="M495.78,121.856c-3.336,1.415-5.78,4.112-9.597,5.284C489.71,125.842,491.907,122.521,495.78,121.856
		L495.78,121.856L495.78,121.856z"/>
    <polygon fill="#FFFFFF" points="485.226,127.759 484.944,127.533 485.243,127.56 	"/>
    <path fill="#FFFFFF" d="M479.715,128.782l0.463,0.442c-0.667,0.745-2.408-0.01-2.92,1.25c-0.215-2.127,2.158-1.718,3.566-2.9
		L479.715,128.782L479.715,128.782z"/>
    <path fill="#FFFFFF" d="M479.948,130.71l3.822-2.376C483.73,129.937,481.096,130.208,479.948,130.71L479.948,130.71L479.948,130.71
		z"/>
    <polygon fill="#FFFFFF" points="473.226,129.52 473.695,128.758 474.201,128.702 	"/>
    <path fill="#FFFFFF" d="M473.961,132.595c-2.127,0.215-3.601,3.299-5.533,2.427l-0.039-0.706l0.498,0.044l-0.225,0.281
		c0.481,0.243,1.702,0.049,1.473-0.775c0.762,0.468,1.889-0.939,2.413-1.194l-0.498-0.044c0.26-0.68,1.447-0.476,1.872-0.74
		l2.674-1.874C477.037,131.861,473.945,130.486,473.961,132.595L473.961,132.595L473.961,132.595z"/>
    <path fill="#FFFFFF" d="M479.489,131.373L479.489,131.373l-0.463-0.442C479.225,130.948,479.407,131.165,479.489,131.373
		L479.489,131.373L479.489,131.373z"/>
    <path fill="#FFFFFF" d="M478.739,131.909c0.264,0.425-0.425,0.264-0.923,0.22l0.667-0.745L478.739,131.909L478.739,131.909
		L478.739,131.909z"/>
    <path fill="#FFFFFF" d="M477.275,132.584c-0.017,0.199-0.243,0.481-0.243,0.481l0.044-0.498L477.275,132.584L477.275,132.584
		L477.275,132.584z"/>
    <path fill="#FFFFFF" d="M476.326,133.103l-0.243,0.481l-0.255-0.524C475.828,133.06,476.352,132.805,476.326,133.103
		L476.326,133.103L476.326,133.103z"/>
    <polygon fill="#FFFFFF" points="461.966,135.461 462.153,134.473 462.85,134.534 	"/>
    <path fill="#FFFFFF" d="M468.467,135.729l-0.044,0.498c-1.442-0.728-3.137,1.432-4.358,1.626l1.227-1.398
		c0.026-0.299-0.498-0.044-0.281-0.225l1.403,0.022l-0.762-0.468l0.199,0.017C466.236,137.139,467.649,134.754,468.467,135.729
		L468.467,135.729L468.467,135.729z"/>
    <polygon fill="#FFFFFF" points="464.144,136.956 464.287,136.467 464.595,136.394 	"/>
    <polygon fill="#FFFFFF" points="461.453,139.03 463.641,138.117 461.509,139.537 	"/>
    <path fill="#FFFFFF" d="M460.742,140.272c-0.498-0.044-0.923,0.22-1.43,0.276l1.209-1.199
		C460.703,139.566,460.759,140.073,460.742,140.272L460.742,140.272L460.742,140.272z"/>
    <path fill="#FFFFFF" d="M458.84,140.207l-0.498-0.044l0.243-0.481C459.101,139.527,458.858,140.007,458.84,140.207L458.84,140.207
		L458.84,140.207z"/>
    <path fill="#FFFFFF" d="M457.15,141.163l-0.498-0.044l0.26-0.68C457.112,140.457,457.168,140.964,457.15,141.163L457.15,141.163
		L457.15,141.163z"/>
    <polygon fill="#FFFFFF" points="339.235,50.139 339.551,49.966 340.24,50.127 	"/>
    <path fill="#FFFFFF" d="M322.514,53.093c-0.442,0.463-2.365-0.508-3.309-1.193l-0.238-0.723
		C320.081,51.074,321.523,51.802,322.514,53.093L322.514,53.093L322.514,53.093z"/>
    <polygon fill="#FFFFFF" points="342.6,51.839 342.925,51.567 345.501,53.097 345.284,53.279 	"/>
    <path fill="#FFFFFF" d="M485.466,57.312c-0.044,0.498-0.923,0.22-1.222,0.194C483.782,57.064,485.003,56.87,485.466,57.312
		L485.466,57.312L485.466,57.312z"/>
    <path fill="#FFFFFF" d="M476.344,58.32c-0.017,0.199-0.225,0.281-0.442,0.463l-0.281-0.225l0.26-0.68l1.667,0.447L476.344,58.32
		L476.344,58.32L476.344,58.32z"/>
    <path fill="#FFFFFF" d="M474.135,58.328l-0.225,0.281l-0.463-0.442C473.879,57.804,473.953,58.111,474.135,58.328L474.135,58.328
		L474.135,58.328z"/>
    <polygon fill="#FFFFFF" points="478.752,58.33 477.773,58.044 478.471,58.105 	"/>
    <polygon fill="#FFFFFF" points="471.527,58.301 471.545,58.101 472.731,58.306 472.714,58.505 	"/>
    <path fill="#FFFFFF" d="M469.093,58.589c0.039,0.706-1.166,0.701-1.971,0.731C467.689,58.567,468.413,58.329,469.093,58.589
		L469.093,58.589L469.093,58.589z"/>
    <path fill="#FFFFFF" d="M466.749,58.987c-0.26,0.68-0.905,0.021-1.187-0.204C466.061,58.826,466.468,58.761,466.749,58.987
		L466.749,58.987L466.749,58.987z"/>
    <path fill="#FFFFFF"
          d="M454.339,59.708l-0.706,0.039c-0.264-0.425,0.243-0.481,0.741-0.437L454.339,59.708L454.339,59.708z"/>
    <path fill="#FFFFFF" d="M462.188,59.491l-0.017,0.199l-0.961-0.486C461.707,59.248,461.962,59.773,462.188,59.491L462.188,59.491
		L462.188,59.491z"/>
    <path fill="#FFFFFF"
          d="M453.027,59.794l-2.669,0.67C450.9,60.009,452.191,59.018,453.027,59.794L453.027,59.794L453.027,59.794z"
    />
    <path fill="#FFFFFF" d="M458.857,59.702c0,0-0.026,0.299-0.225,0.281l-0.199-0.017l0.044-0.498
		C458.575,59.476,458.874,59.502,458.857,59.702L458.857,59.702L458.857,59.702z"/>
    <polygon fill="#FFFFFF" points="460.958,59.785 459.78,59.481 460.784,59.469 	"/>
    <path fill="#FFFFFF"
          d="M448.53,60.705l-0.706,0.039c0.017-0.199,0.26-0.68,0.741-0.437L448.53,60.705L448.53,60.705z"/>
    <path fill="#FFFFFF" d="M448.044,61.667c-0.276-1.43-1.884-0.265-3.153-0.677C445.216,60.717,448.292,59.982,448.044,61.667
		L448.044,61.667L448.044,61.667z"/>
    <path fill="#FFFFFF" d="M454.975,60.466c-1.227,1.398-3.855,0.466-5.501,0.924C450.402,59.966,453.303,61.223,454.975,60.466
		L454.975,60.466L454.975,60.466z"/>
    <polygon fill="#FFFFFF" points="436.782,61.886 442.284,60.962 444.194,60.928 	"/>
    <polygon fill="#FFFFFF" points="435.634,62.388 435.596,61.682 436.302,61.643 	"/>
    <path fill="#FFFFFF" d="M444.713,61.877c-0.225,0.281-1.69,0.956-2.426,0.189c-3.081,1.939-7.169,0.477-10.505,1.892
		C435.634,62.388,440.152,62.382,444.713,61.877L444.713,61.877L444.713,61.877z"/>
    <polygon fill="#FFFFFF" points="430.068,62.905 432.42,62.408 433.932,62.339 	"/>
    <path fill="#FFFFFF"
          d="M421.214,63.134c-0.044,0.498-1.447,0.476-1.204-0.005L421.214,63.134L421.214,63.134L421.214,63.134z"/>
    <path fill="#FFFFFF" d="M430.813,63.572c-0.442,0.463-1.447,0.476-1.872,0.74l-0.039-0.706
		C429.409,63.55,430.306,63.628,430.813,63.572L430.813,63.572L430.813,63.572z"/>
    <path fill="#FFFFFF" d="M427.936,64.324l-4.098,0.946C424.562,65.033,426.295,63.578,427.936,64.324L427.936,64.324L427.936,64.324
		z"/>
    <path fill="#FFFFFF" d="M445.621,65.269c-0.035,0.398-0.243,0.481-0.468,0.762l-0.238-0.723L445.621,65.269L445.621,65.269
		L445.621,65.269z"/>
    <path fill="#FFFFFF" d="M438.66,65.664c-0.498-0.044-0.949,0.519-1.629,0.259C437.292,65.243,438.271,65.53,438.66,65.664
		L438.66,65.664L438.66,65.664z"/>
    <path fill="#FFFFFF" d="M441.541,66.016c-0.017,0.199-1.248,0.493-1.945,0.432C440.137,65.994,440.861,65.756,441.541,66.016
		L441.541,66.016L441.541,66.016z"/>
    <path fill="#FFFFFF" d="M443.052,65.948c-0.017,0.199-0.425,0.264-0.923,0.22C442.082,65.562,442.745,66.021,443.052,65.948
		L443.052,65.948L443.052,65.948z"/>
    <path fill="#FFFFFF" d="M445.616,66.473c-0.905,0.021-1.945,0.432-2.833,0.254C443.533,66.191,444.711,66.495,445.616,66.473
		L445.616,66.473L445.616,66.473z"/>
    <path fill="#FFFFFF" d="M428.888,67.218c-0.442,0.463-1.646,0.458-2.37,0.696C426.705,66.927,428.164,67.456,428.888,67.218
		L428.888,67.218L428.888,67.218z"/>
    <path fill="#FFFFFF" d="M399.177,68.333c-4.528,2.415-10.306,1.909-15.353,3.375C388.145,69.375,394.104,70.098,399.177,68.333
		L399.177,68.333L399.177,68.333z"/>
    <polygon fill="#FFFFFF" points="408.524,69.352 407.364,68.848 408.325,69.334 	"/>
    <path fill="#FFFFFF" d="M380.975,72.161c-0.468,0.762-1.248,0.493-1.646,0.458l1.209-1.199L380.975,72.161L380.975,72.161
		L380.975,72.161z"/>
    <path fill="#FFFFFF"
          d="M371.89,73.876c1.408-1.182,4.523-1.21,6.45-1.443L371.89,73.876L371.89,73.876L371.89,73.876z"/>
    <path fill="#FFFFFF" d="M369.98,73.91c0.039,0.706-0.949,0.519-1.447,0.476C368.776,73.905,369.482,73.866,369.98,73.91
		L369.98,73.91L369.98,73.91z"/>
    <polygon fill="#FFFFFF" points="344.795,77.227 345.038,76.747 346.017,77.033 	"/>
    <polygon fill="#FFFFFF" points="346.419,78.172 346.454,77.774 347.459,77.761 	"/>
    <polygon fill="#FFFFFF" points="340.489,78.256 340.433,77.749 341.421,77.936 	"/>
    <path fill="#FFFFFF" d="M346.012,78.237l-0.723,0.238l-0.255-0.524C345.531,77.994,345.757,77.713,346.012,78.237L346.012,78.237
		L346.012,78.237z"/>
    <path fill="#FFFFFF"
          d="M344.491,78.405l-1.954,0.532C343.144,78.89,343.63,77.928,344.491,78.405L344.491,78.405L344.491,78.405z"
    />
    <path fill="#FFFFFF" d="M340.666,79.677l0.706-0.039c-0.442,0.463-1.192,1-2.17,0.714L340.666,79.677
		c-0.281-0.225-0.498-0.044-0.498-0.044c0.26-0.68,1.43-0.276,1.889-0.939L340.666,79.677L340.666,79.677z"/>
    <path fill="#FFFFFF" d="M337.803,79.125c0.281,0.225,0.255,0.524,0.22,0.923l0.979,0.286c-1.452,1.68-2.421-1.015-3.401,1.007
		c-0.039-0.706-0.25-1.728,0.772-1.94l-3.656,0.483c1.192-1,2.894-0.951,4.137-0.24C336.915,78.947,337.578,79.406,337.803,79.125
		L337.803,79.125L337.803,79.125z"/>
    <path fill="#FFFFFF" d="M347.662,78.883c0.238,0.723-0.442,0.463-0.767,0.736l-0.039-0.706L347.662,78.883L347.662,78.883
		L347.662,78.883z"/>
    <path fill="#FFFFFF" d="M210.375,79.621l-1.91,0.034l0.044-0.498C209.132,78.91,209.695,79.361,210.375,79.621L210.375,79.621
		L210.375,79.621z"/>
    <path fill="#FFFFFF"
          d="M341.874,80.786c0.767-0.736,2.838-1.458,4.523-1.21L341.874,80.786L341.874,80.786L341.874,80.786z"/>
    <polygon fill="#FFFFFF" points="330.392,80.083 331.115,79.845 331.812,79.906 	"/>
    <path fill="#FFFFFF" d="M333.518,81.059l-0.005,1.204l4.605-1.002c-1.872,0.74-4.341,1.427-6.511,2.141l1.707-1.156
		c-0.182-0.217-0.498-0.044-0.68-0.26c0,0,0.741-0.437,0.667-0.745l-4.822,1.184C330.118,82.066,332.081,79.126,333.518,81.059
		L333.518,81.059L333.518,81.059z"/>
    <path fill="#FFFFFF" d="M330.422,80.888c-0.26,0.68-2.153,0.514-3.093,0.934C328.001,79.874,329.737,81.832,330.422,80.888
		L330.422,80.888L330.422,80.888z"/>
    <polygon fill="#FFFFFF" points="326.809,80.873 327.09,81.099 326.549,81.553 326.566,81.354 	"/>
    <path fill="#FFFFFF"
          d="M336.181,83.902c2.894-0.951,6.412-2.149,9.825-2.152L336.181,83.902L336.181,83.902L336.181,83.902z"/>
    <polygon fill="#FFFFFF" points="339.243,84.471 349.293,82.038 349.8,81.981 	"/>
    <polygon fill="#FFFFFF" points="324.197,82.05 324.378,82.267 323.755,82.513 323.456,82.487 	"/>
    <path fill="#FFFFFF" d="M320.116,82.797l0.425-0.264L320.116,82.797z"/>
    <path fill="#FFFFFF" d="M315.775,84.225l-0.199-0.017l1.183-0.9C317.005,83.931,316.282,84.168,315.775,84.225L315.775,84.225
		L315.775,84.225z"/>
    <path fill="#FFFFFF"
          d="M226.416,84.437l-2.122-0.989C225.2,83.427,226.179,83.714,226.416,84.437L226.416,84.437L226.416,84.437z"
    />
    <polygon fill="#FFFFFF" points="349.565,84.671 351.934,83.975 350.994,84.395 	"/>
    <polygon fill="#FFFFFF" points="227.621,84.442 226.858,83.974 227.565,83.935 	"/>
    <polygon fill="#FFFFFF" points="330.454,85.107 330.653,85.125 329.904,85.661 329.704,85.644 	"/>
    <path fill="#FFFFFF" d="M353.84,85.146c-0.741,0.437-1.192,1-2.17,0.714C352.193,85.604,353.142,85.085,353.84,85.146
		L353.84,85.146L353.84,85.146z"/>
    <polygon fill="#FFFFFF" points="334.902,85.898 335.227,85.625 335.426,85.643 	"/>
    <path fill="#FFFFFF" d="M351.288,85.625c-2.855,1.657-7.473,1.655-10.99,2.853l-0.044,0.498c-2.85,0.453-7.156,1.482-8.885,1.732
		C337.647,88.949,344.582,86.544,351.288,85.625L351.288,85.625L351.288,85.625z"/>
    <path fill="#FFFFFF"
          d="M318.42,87.267l-0.706,0.039C317.757,86.807,318.139,87.041,318.42,87.267L318.42,87.267L318.42,87.267z"/>
    <polygon fill="#FFFFFF" points="327.32,89.953 333.749,87.604 334.52,87.972 	"/>
    <path fill="#FFFFFF" d="M341.921,89.423c-1.222,0.194-0.728,1.442-2.413,1.194C340.011,89.457,340.973,89.942,341.921,89.423
		L341.921,89.423L341.921,89.423z"/>
    <path fill="#FFFFFF" d="M333.512,92.602l0.26-0.68l-0.979-0.286c1.945-0.432,3.838-0.267,5.8-0.898L333.512,92.602L333.512,92.602z
		"/>
    <polygon fill="#FFFFFF" points="251.102,91.415 250.141,90.93 250.847,90.891 	"/>
    <polygon fill="#FFFFFF" points="296.119,92.041 296.418,92.067 296.336,91.859 296.136,91.842 	"/>
    <path fill="#FFFFFF" d="M333.231,92.377c-0.217,0.182-0.923,0.22-1.447,0.476C332.126,92.381,332.551,92.117,333.231,92.377
		L333.231,92.377L333.231,92.377z"/>
    <polygon fill="#FFFFFF" points="321.024,94.22 321.041,94.021 322.527,94.251 	"/>
    <path fill="#FFFFFF" d="M316.756,95.955c0.486-0.961,1.928-0.233,2.431-1.393l0.463,0.442L316.756,95.955L316.756,95.955
		L316.756,95.955z"/>
    <path fill="#FFFFFF" d="M246.725,103.58c5.489-1.929,8.869-3.842,14.396-5.065C257.136,100.476,251.846,102.422,246.725,103.58
		L246.725,103.58L246.725,103.58z"/>
    <path fill="#FFFFFF" d="M222.548,110.298c-0.442,0.463-1.447,0.476-1.872,0.74C220.919,110.557,221.824,110.536,222.548,110.298
		L222.548,110.298L222.548,110.298z"/>
    <path fill="#FFFFFF" d="M219.97,111.077c-0.524,0.255-0.984,0.918-1.464,0.675C218.532,111.453,219.489,110.834,219.97,111.077
		L219.97,111.077L219.97,111.077z"/>
    <path fill="#FFFFFF" d="M261.863,114.14c-0.944-0.685-0.923,0.22-1.603-0.04c-0.984,0.918-2.656,1.675-4.766,1.691
		c-0.498-0.044-1.178-0.304-0.918-0.984c2.651-0.471,4.766-1.691,7.659-2.642C263.115,112.442,261.906,113.641,261.863,114.14
		L261.863,114.14L261.863,114.14z"/>
    <polygon fill="#FFFFFF" points="233.639,113.176 233.622,113.375 233.098,113.631 232.916,113.414 	"/>
    <path fill="#FFFFFF" d="M204.842,116.479l-0.199-0.017l0.685-0.944C205.301,115.816,205.539,116.54,204.842,116.479
		L204.842,116.479L204.842,116.479z"/>
    <polygon fill="#FFFFFF" points="202.671,117.192 203.213,116.738 203.412,116.755 	"/>
    <path fill="#FFFFFF" d="M202.182,117.049c0.264,0.425-0.442,0.463-0.767,0.736C201.467,117.187,201.684,117.006,202.182,117.049
		L202.182,117.049L202.182,117.049z"/>
    <path fill="#FFFFFF" d="M199.868,118.252c-0.017,0.199-0.923,0.22-0.68-0.26C199.388,118.009,199.812,117.745,199.868,118.252
		L199.868,118.252L199.868,118.252z"/>
    <path fill="#FFFFFF" d="M197.698,118.966c-0.044,0.498-0.524,0.255-0.923,0.22C196.719,118.679,197.399,118.939,197.698,118.966
		L197.698,118.966L197.698,118.966z"/>
    <polygon fill="#FFFFFF" points="195.527,119.679 195.527,119.679 192.616,120.83 	"/>
    <path fill="#FFFFFF" d="M243.468,120.159c-0.199-0.017-0.442,0.463-0.723,0.238l0.044-0.498
		C242.987,119.916,243.213,119.635,243.468,120.159L243.468,120.159L243.468,120.159z"/>
    <polygon fill="#FFFFFF" points="241.055,121.353 240.817,120.63 241.523,120.591 	"/>
    <path fill="#FFFFFF" d="M190.762,121.37c0.463,0.442-0.524,0.255-0.949,0.519C189.558,121.365,190.463,121.344,190.762,121.37
		L190.762,121.37L190.762,121.37z"/>
    <path fill="#FFFFFF" d="M188.574,122.283c-0.017,0.199-0.217,0.182-0.524,0.255l0.468-0.762
		C188.817,121.802,188.773,122.3,188.574,122.283L188.574,122.283L188.574,122.283z"/>
    <path fill="#FFFFFF"
          d="M187.352,122.477c-0.044,0.498-1.464,0.675-1.187-0.204L187.352,122.477L187.352,122.477L187.352,122.477z"
    />
    <polygon fill="#FFFFFF" points="185.182,123.191 184.212,122.805 185.018,122.775 	"/>
    <polygon fill="#FFFFFF" points="185.68,123.234 185.399,123.009 186.204,122.979 	"/>
    <path fill="#FFFFFF" d="M180.941,124.627c-0.044,0.498-0.767,0.736-1.447,0.476C179.71,124.921,180.408,124.982,180.941,124.627
		L180.941,124.627L180.941,124.627z"/>
    <path fill="#FFFFFF" d="M176.872,126.379c0.481,0.243-0.225,0.281-0.243,0.481l-0.255-0.524L176.872,126.379L176.872,126.379
		L176.872,126.379z"/>
    <polygon fill="#FFFFFF" points="173.255,127.568 173.199,127.061 174.477,127.374 	"/>
    <path fill="#FFFFFF" d="M168.914,128.995c0.255,0.524-0.225,0.281-0.468,0.762C167.965,129.514,168.633,128.77,168.914,128.995
		L168.914,128.995L168.914,128.995z"/>
    <path fill="#FFFFFF" d="M166.258,130.67l-0.498-0.044l0.243-0.481C166.275,130.471,166.258,130.67,166.258,130.67L166.258,130.67
		L166.258,130.67z"/>
    <polygon fill="#FFFFFF" points="164.386,131.41 164.348,130.704 164.855,130.648 	"/>
    <polygon fill="#FFFFFF" points="160.769,132.599 159.825,131.914 160.306,132.157 	"/>
    <path fill="#FFFFFF" d="M157.858,133.75l-0.706,0.039l0.26-0.68C157.62,133.026,157.676,133.533,157.858,133.75L157.858,133.75
		L157.858,133.75z"/>
    <path fill="#FFFFFF" d="M373.763,137.381l-0.034-1.91C374.011,135.696,374.023,136.701,373.763,137.381L373.763,137.381
		L373.763,137.381z"/>
    <path fill="#FFFFFF"
          d="M143.301,139.503l-0.498-0.044c0.026-0.299,0.243-0.481,0.524-0.255L143.301,139.503L143.301,139.503z"/>
    <path fill="#FFFFFF" d="M330.45,150.556l-0.044,0.498l-0.719-0.966C330.112,149.824,330.368,150.348,330.45,150.556L330.45,150.556
		L330.45,150.556z"/>
    <path fill="#FFFFFF" d="M338.079,155.138l-0.044,0.498c-0.281-0.225-1.204-0.005-0.736-0.767
		C337.599,154.895,337.807,154.813,338.079,155.138L338.079,155.138L338.079,155.138z"/>
    <path fill="#FFFFFF" d="M252.765,157.311l-1.888-1.37C251.549,156.301,252.554,156.289,252.765,157.311L252.765,157.311
		L252.765,157.311z"/>
    <polygon fill="#FFFFFF" points="338.754,156.603 338.317,155.862 338.516,155.879 	"/>
    <path fill="#FFFFFF" d="M339.064,159.942l-0.692-1.265C339.069,158.738,338.809,159.418,339.064,159.942L339.064,159.942
		L339.064,159.942z"/>
    <polygon fill="#FFFFFF" points="260.217,162.781 260.416,162.799 265.681,166.873 265.664,167.072 	"/>
    <path fill="#FFFFFF" d="M198.397,164.901l-0.044,0.498c-0.281-0.225-1.178-0.304-0.437-0.741
		C197.89,164.957,198.089,164.975,198.397,164.901L198.397,164.901L198.397,164.901z"/>
    <polygon fill="#FFFFFF" points="179.901,165.19 178.715,164.986 179.702,165.173 	"/>
    <path fill="#FFFFFF" d="M187.832,165.182c-0.468,0.762-1.728,0.25-2.109,0.016C185.749,164.899,187.07,164.713,187.832,165.182
		L187.832,165.182L187.832,165.182z"/>
    <polygon fill="#FFFFFF" points="181.188,165.403 180.707,165.161 181.105,165.195 	"/>
    <path fill="#FFFFFF" d="M184.519,165.193l-1.43,0.276l0.026-0.299C183.54,164.907,183.994,165.448,184.519,165.193L184.519,165.193
		L184.519,165.193z"/>
    <path fill="#FFFFFF" d="M175.184,165.179c-0.723,0.238-1.889,0.939-2.669,0.67C172.776,165.169,174.417,165.915,175.184,165.179
		L175.184,165.179L175.184,165.179z"/>
    <path fill="#FFFFFF" d="M377.148,166.386l-0.299-0.026l-0.463-0.442C376.611,165.637,376.866,166.161,377.148,166.386
		L377.148,166.386L377.148,166.386z"/>
    <polygon fill="#FFFFFF" points="383.376,166.329 382.389,166.142 383.095,166.103 	"/>
    <polygon fill="#FFFFFF" points="268.322,168.811 266.162,167.116 268.366,168.313 	"/>
    <path fill="#FFFFFF" d="M413.275,169.948l-0.667,0.745l0.182,0.217l0.524-0.255c2.667,1.639,7.453,3.162,8.625,6.978
		c0.458,1.646,1.614,3.353,3.112,4.589c-1.192,1,1.723,0.954,0.714,2.17l-2.148-0.69l-0.044,0.498
		c-0.918-0.984-2.347-0.707-3.335-0.894c-1.217-1.01-2.437-3.124-3.802-2.441c1.161,0.503,0.276,1.43,0.995,2.396
		c-0.281-0.225-0.498-0.044-0.78-0.269l-0.225,0.281c0.182,0.217,0.745,0.667,0.502,1.148c-0.706,0.039-1.425-0.928-1.884-0.265
		c-1.481-1.435-1.228-4.323-2.652-5.251c-0.182-0.217,0.217-0.182,0.243-0.481c-0.68-0.26-1.243-0.711-1.481-1.435l0.442-0.463
		l-0.481-0.243l-0.225,0.281c-1.905-1.171-5.04-4.356-2.868-7.378l-0.039-0.706C410.663,168.816,410.945,169.042,413.275,169.948
		L413.275,169.948L413.275,169.948z"/>
    <path fill="#FFFFFF" d="M180.127,213.092l-1.342-0.72C179.266,212.616,180.206,212.196,180.127,213.092L180.127,213.092
		L180.127,213.092z"/>
    <polygon fill="#FFFFFF" points="228.566,213.616 228.592,213.317 229.753,213.82 	"/>
    <path fill="#FFFFFF" d="M232.642,214.073l-0.044,0.498l-0.706,0.039l-0.039-0.706C232.161,213.83,232.425,214.255,232.642,214.073
		L232.642,214.073L232.642,214.073z"/>
    <path fill="#FFFFFF" d="M187.407,215.938c-0.723,0.238-2.391-0.209-3.127-0.976C185.441,215.465,186.645,215.47,187.407,215.938
		L187.407,215.938L187.407,215.938z"/>
    <path fill="#FFFFFF" d="M237.679,215.016c-0.225,0.281,0.455,0.542,0.039,0.706l-0.706,0.039
		C236.448,215.31,237.479,214.998,237.679,215.016L237.679,215.016L237.679,215.016z"/>
    <path fill="#FFFFFF" d="M240.987,216.209l-0.017,0.199l-0.662-0.459C240.606,215.974,241.031,215.71,240.987,216.209
		L240.987,216.209L240.987,216.209z"/>
    <path fill="#FFFFFF"
          d="M242.997,216.184c0.238,0.723-1.204-0.005-1.403-0.022L242.997,216.184L242.997,216.184L242.997,216.184z"
    />
    <polygon fill="#FFFFFF" points="245.842,216.935 243.651,216.743 245.544,216.908 	"/>
    <path fill="#FFFFFF" d="M203.244,221.941c-0.225,0.281-0.442,0.463-0.741,0.437l-0.199-0.017
		C202.239,221.953,202.963,221.715,203.244,221.941L203.244,221.941L203.244,221.941z"/>
    <polygon fill="#FFFFFF" points="194.529,287.129 194.066,286.687 194.573,286.631 	"/>
    <path fill="#FFFFFF" d="M231.24,300.078c-0.017,0.199-0.243,0.481-0.442,0.463l-0.199-0.017
		C230.517,300.316,230.742,300.035,231.24,300.078L231.24,300.078L231.24,300.078z"/>
    <path fill="#FFFFFF" d="M228.065,300.804c-0.741,0.437-1.672,0.757-2.651,0.471C226.137,301.037,227.16,300.825,228.065,300.804
		L228.065,300.804L228.065,300.804z"/>
    <path fill="#82B624" d="M319.183,322.93l0.013-49.487l-34.331,0.008l0.031,22.589l6.926,0.004l0.018,7.831
		c-1.629,0.259-4.245,0.331-5.558,0.417c-7.931,0.009-9.784-1.759-9.769-21.433c-0.011-19.375,2.103-20.595,11.238-20.599
		c5.722-0.001,13.856,1.112,25.241,5.22l5.463-25.722c-14.69-4.196-23.846-5.098-30.573-5.084
		c-29.207-0.046-42.399,13.054-42.412,46.48c0.044,31.624,11.285,46.561,39.188,46.593
		C295.296,329.774,307.374,327.117,319.183,322.93L319.183,322.93z M406.854,302.995c-0.914,0.121-1.928,0.233-2.933,0.245
		c-2.209,0.008-2.763-0.543-3.711-2.332l-5.885-10.754c7.371-5.077,11.997-13.205,12.003-24.748
		c-0.041-20.18-13.149-27.551-31.917-27.587l-38.949,0.005v90.645l28.809,0.011l-0.031-30.619l3.214-0.02l7.653,16.931
		c4.716,10.35,9.773,14.507,22.022,14.474c2.508,0.019,6.762-0.412,9.803-0.749L406.854,302.995L406.854,302.995z M376.877,268.15
		c0.031,6.528-1.646,8.489-5.566,8.547l-7.125-0.021l0.026-16.36l7.532-0.044C375.348,260.387,376.902,262.129,376.877,268.15
		L376.877,268.15z M455.876,224.569c0.021-7.125-4.733-10.151-11.161-10.111c-6.926-0.004-11.233,3.334-11.228,10.16
		c-0.004,6.926,4.235,10.108,10.962,10.094C452.081,234.677,455.908,231.097,455.876,224.569L455.876,224.569z M482.177,224.561
		c0.021-7.125-4.534-10.134-11.161-10.111c-6.826,0.005-11.233,3.334-11.228,10.16c-0.004,6.926,4.335,10.116,11.161,10.111
		C478.282,234.66,482.208,231.089,482.177,224.561L482.177,224.561z M494.217,293.473l0.047-55.608l-28.51,0.015l0.022,57.119
		c-0.021,7.125-0.875,8.857-8.209,8.919c-7.532,0.044-8.181-1.72-8.151-8.944l-0.022-57.119l-29.814,0.002l-0.047,55.608
		c-0.038,31.416,16.809,36.203,37.288,36.188C482.516,329.691,494.242,319.575,494.217,293.473L494.217,293.473z M584.709,328.493
		v-90.645l-26.799-0.036l0.012,27.405c-0.024,3.712,0.208,7.948,0.583,11.695l-1.503-0.031c-1.003-4.605-2.33-8.937-3.788-11.775
		l-12.46-27.39l-30.312-0.042v90.645l26.699,0.027l-0.017-34.232c-0.003-3.413-0.199-8.048-0.475-11.786l1.503,0.031
		c0.747,4.081,2.265,8.53,3.689,11.766l15.571,34.288L584.709,328.493L584.709,328.493z M665.114,328.501l-1.252-24.703
		l-32.521-0.035l0.035-8.429l29.008,0.028l0.043-24.59l-29.008-0.028l0.009-8.13l31.516,0.047l-0.048-24.698l-61.13-0.028v90.645
		L665.114,328.501L665.114,328.501z"/>
</g>
</svg>
