<?xml version="1.0" encoding="utf-8"?>
<!-- Generator: Adobe Illustrator 17.0.0, SVG Export Plug-In . SVG Version: 6.00 Build 0)  -->
<!DOCTYPE svg PUBLIC "-//W3C//DTD SVG 1.1//EN" "http://www.w3.org/Graphics/SVG/1.1/DTD/svg11.dtd">
<svg xmlns:xlink="http://www.w3.org/1999/xlink" version="1.1" id="Ebene_1" xmlns="http://www.w3.org/2000/svg" x="0px"
     y="0px"
     width="896.59px" height="498.403px" viewBox="1286.364 1052.124 896.59 498.403"
     enable-background="new 1286.364 1052.124 896.59 498.403" xml:space="preserve">
<g>
	<polygon fill="#82B624" points="1513.256,1414.542 1513.211,1550.455 2182.954,1550.527 2182.908,1414.506 	"/>
    <path fill="#FFFFFF" d="M1593.594,1527.774l-1.841-24.855l-25.495-0.022l0.03-65.748l-29.714,0.01v90.645L1593.594,1527.774
		L1593.594,1527.774z M1668.069,1527.866l-1.252-24.703l-32.521-0.035l0.035-8.429l29.008,0.028l0.043-24.59l-29.008-0.028
		l0.009-8.13l31.516,0.047l-0.048-24.698l-61.13-0.028v90.645L1668.069,1527.866L1668.069,1527.866z M1744.652,1498.127
		c0.038-15.355-8.252-22.706-19.989-26.242l-15.171-4.439c-2.936-0.859-3.482-1.509-3.424-3.311c0.036-2.707,0.985-3.226,3.692-3.19
		c5.323-0.036,9.897,0.464,26.398,4.618l6.199-24.955c-15.539-3.668-23.193-4.539-29.612-4.598
		c-20.479,0.015-35.454,10.55-35.434,29.825c0.035,15.663,8.361,22.615,20.071,26.45l14.439,4.777
		c3.317,1.093,3.971,1.652,3.961,4.061c0.037,3.015-1.21,3.508-4.416,3.428c-5.016-0.037-7.407-0.246-28.407-6.902l-6.896,24.894
		c17.349,5.935,23.616,6.583,32.253,6.536C1728.297,1529.019,1744.693,1518.308,1744.652,1498.127L1744.652,1498.127z
		 M1856.484,1437.242l-29.714,0.01l-9.126,48.088c-0.96,5.236-1.314,10.425-1.358,13.232l-1.503-0.031
		c0.045-2.807-0.498-8.074-1.457-13.177l-9.144-48.08l-30.52,0.04l23.195,90.566l36.341-0.033L1856.484,1437.242L1856.484,1437.242z
		 M1929.167,1527.822l-1.252-24.703l-32.521-0.035l0.035-8.429l29.008,0.028l0.043-24.59l-29.008-0.028l0.009-8.13l31.516,0.047
		l-0.048-24.698l-61.13-0.028v90.645L1929.167,1527.822L1929.167,1527.822z M2013.704,1502.393
		c-0.914,0.121-1.928,0.233-2.933,0.245c-2.209,0.008-2.763-0.543-3.711-2.332l-5.885-10.754
		c7.371-5.077,11.997-13.205,12.003-24.748c-0.041-20.18-13.149-27.551-31.917-27.587l-38.949,0.005v90.645l28.809,0.011
		l-0.031-30.619l3.214-0.02l7.653,16.931c4.716,10.35,9.773,14.507,22.022,14.474c2.508,0.019,6.762-0.412,9.803-0.749
		L2013.704,1502.393L2013.704,1502.393z M1983.835,1467.457c0.031,6.528-1.646,8.489-5.566,8.547l-7.125-0.021l0.026-16.36
		l7.532-0.044C1982.207,1459.685,1983.86,1461.436,1983.835,1467.457L1983.835,1467.457z M2088.115,1461.924l-0.048-24.698
		l-66.653-0.009l0.048,24.698l18.27-0.008l-0.039,65.847l29.814-0.002l0.039-65.847L2088.115,1461.924L2088.115,1461.924z
		 M2162.939,1498.184c0.038-15.355-8.253-22.706-19.989-26.242l-15.171-4.439c-2.936-0.859-3.482-1.509-3.424-3.311
		c0.036-2.707,0.985-3.226,3.692-3.19c5.323-0.036,9.897,0.464,26.407,4.519l6.199-24.955c-15.539-3.668-23.193-4.539-29.612-4.598
		c-20.479,0.015-35.454,10.55-35.434,29.825c0.035,15.663,8.361,22.615,20.071,26.45l14.439,4.777
		c3.317,1.093,3.971,1.652,3.961,4.061c0.037,3.015-1.21,3.508-4.416,3.428c-5.016-0.037-7.407-0.246-28.407-6.902l-6.896,24.894
		c17.349,5.935,23.616,6.583,32.253,6.536C2146.584,1529.076,2162.889,1518.256,2162.939,1498.184L2162.939,1498.184z"/>
</g>
    <g>
	<path fill="#82B624" d="M1972.234,1267.303l-266.412-0.019c3.619-3.498,6.757-7.239,7.989-12.15
		c-3.362,1.713,1.175-3.109-1.874-2.674l0.503-1.161c-1.403-0.022-2.442-1.92-1.731-3.163l-0.741,0.437
		c-0.745-0.667,0.447-1.667,0.01-2.408c-0.905,0.021-2.109,0.016-2.104-1.188c-0.442,0.463-0.685,0.944-1.209,1.199
		c-2.923-2.163-0.699-5.783-2.88-8.383l-0.248,1.685c-1.91,0.034-2.36-1.712-4.045-1.96c-0.427-3.149-2.652-5.251-4.102-8.189
		l-0.498-0.044l-0.204,1.187c2.117,2.193,3.857,5.256,4.102,8.189l-0.706,0.039c0.254,2.833-1.965,5.249-3.66,7.409
		c-0.498-0.044-0.463-0.442-0.745-0.667c-2.37,0.696-1.034-3.102-2.42-3.324c-0.508,2.365-0.436,4.981-1.433,7.202
		c-3.127-0.976-2.415-4.528-5.243-5.478c0.017-0.199,0.017-0.199,0.243-0.481c-0.741,0.437-2.17,0.714-2.59-0.227
		c-1.209,1.199-3.331,0.21-5.003,0.968l0.026-0.299c-2.17,0.714-4.318,0.024-6.528,0.031l1.01-1.217
		c-0.956-1.69,1.171-1.905,1.717-3.564l-1.161-0.503c-0.276-1.43,3.154-1.631,1.232-2.603l0.706-0.039l-0.913-2.188
		c-0.983-1.391,1.435-1.481,1.894-2.143l-0.42-0.94c1.928-0.233-0.008-2.209,0.751-2.845c-0.255-0.524-0.719-0.966-1.143-0.702
		c-0.238-0.723-1.238-1.915-0.016-2.109c-0.432-1.945-2.188,0.913-2.629-0.933l0.243-0.481l0.281,0.225l0.971-1.923
		c-0.918-0.984-1.189-3.617-2.58-2.635l0.281,0.225l-0.723,0.238c-1.169-0.403-3.114,0.029-2.923-2.163l-0.498-0.044
		c-1.178-0.304-1.183,0.9-1.95,1.636c-2.391-0.209-5.982,0.681-6.717-2.395l1.43-0.276l-0.281-0.225
		c-0.966,0.719-3.127-0.976-3.093,0.934c-1.702-0.049-1.959,1.736-3.38,1.913l0.463,0.442l-1.491,0.974l-0.437-0.741l-0.442,0.463
		l-0.255-0.524c-0.928,1.425-2.894,0.951-4.059,1.652c-0.264-0.425-0.961-0.486-1.204-0.005c-4.137,0.24-8.395,1.875-10.52,5.504
		c-0.961-0.486-2.401,2.199-3.114,0.029c10.319-11.243,26.355-21.284,41.95-14.8c-0.762-0.468-1.182-1.408-2.143-1.894
		c2.915-0.046,5.513,2.39,7.937,4.509l0.468-0.762l5.252,3.069l-1.645-1.85l0.451-0.563c-3.117-3.385-5.922-5.738-9.581-8.668
		l0.724-0.238l-2.43-0.915l0.455,0.542c-2.165-0.491-5.523,0.019-6.921-1.208c1.634-1.463,1.462-4.088,1.147-6.224
		c2.103-4.534,0.698-10.278,2.585-14.63c0.481,0.243,1.182,1.408,1.641,0.746c0.951,2.894-0.273,7.706,3.803,8.163
		c0.685-0.944-0.215-2.127-0.653-2.868l1.675-13.405l0.741-0.437c1.686-10.091,7.915-18.179,12.428-27.321l-0.458-1.646
		c1.886-4.352,4.063-8.579,5.768-13.147c1.915-1.238,1.224-4.812,3.351-5.027l-0.454-0.542l1.209-1.199
		c0.243-0.481-0.039-0.706-0.502-1.148l0.442-0.463c5.005,4.754,11.949,10.281,14.571,17.035c-3.818-4.55-7.675-9.806-12.944-12.676
		l-0.529,1.459c1.918,2.175,4.767,4.031,5.498,6.002c-2.421-1.015-3.099-3.584-5.52-4.599l3.082,3.783l-3.867-2.848l-0.486,0.961
		c2.857,4.064,8.165,7.641,9.848,12.506c-3.33-2.098-4.519-5.716-7.901-7.216c-1-1.192-3.138-4.29-4.807-2.428
		c0.281,0.225,0.481,0.243,0.762,0.468l-0.425,0.264l3.862,4.052l-0.225,0.281l7.623,8.095l-0.979-0.286
		c4.797,4.836,7.912,10.53,10.079,16.742c4.312,11.52-1.892,23.926-4.099,35.377c1.723,0.954-0.197,3.396,0.929,4.297
		c1.248-0.493,0.945-1.624,1.413-2.386c7.43-11.496,12.171-23.228,13.672-36.949c-0.74-1.872,0.916-4.738-0.295-6.952
		c0.281,0.225,0.217-0.182,0.724-0.238c-0.704-4.579-0.749-9.803-1.933-14.624c-4.067-8.587-10.504-16.478-16.551-24.235
		l18.18-2.425c-5.778-0.506-12.454,1.219-19.185,2.437c-0.961-0.486-0.276-1.43-0.502-1.148l-0.498-0.044
		c-0.437-0.741-1.481-1.435-1.918-2.175c0.516-0.156,1.966,0.473,1.872-0.74c-0.481-0.243-0.923,0.22-1.43,0.276
		c-0.723,0.238-1.91,0.034-1.641-0.746l10.08-1.628l-3.357,0.509c-2.634,0.271-5.97,1.686-7.948,0.208
		c-1.26-0.512-3.078-2.678-4.556-0.7c0.973,3.799-4.827,2.388-6.958,3.808c2.127-0.215,4.822-1.184,6.489-0.737l-12.151,2.35
		c4.275,0.474,8.153-1.395,11.748-1.181l-1.894,2.143l-0.238-0.723l-2.202,2.217l-38.996,7.43l-2.857-4.064
		c13.217-3.06,26.321-4.824,39.576-7.178c-12.67,1.401-26.632,3.793-39.559,6.979c-4.112-5.78-8.891-10.816-14.095-15.588
		l0.524-0.255c-1.486-0.23-2.122-0.989-1.883-2.574c-1.214,2.403-2.91-1.158-4.132-0.964l2.624,2.137
		c-1.183,0.9-2.391-0.209-3.595-0.214c-9.105-7.221-18.419-14.36-29.896-16.268c0.473-1.966,1.219-3.607,0.722-5.96
		c-4.292-0.275-5.98,4.094-7.454,7.178c-1.204-0.005-3.37-0.496-3.799,0.973c0.519,0.949,0.272,2.634,1.675,2.656
		c-3.102,9.064-5.506,18.189-5.221,27.55c-1.969,4.144,3.065,12.013,0.577,15.208l0.407-0.065l0.437,0.741l-6.992,1.898
		l-0.039-0.706l-0.26,0.68l-6.186,1.868c-1.69,0.956-4.544,0.305-5.328,1.24l-0.736-0.767l10.311-3.113l-11.008,3.052
		c-1.905-1.171-5.292-1.467-6.474-2.875c-3.85-0.738-7.661-3.079-11.793-4.043l-0.437-0.741l-0.524,0.255
		c-1.68-1.452-3.85-0.738-5.231-2.164c-4.777-1.622-10.069-3.089-15.106-4.032c-12.278-3.082-26.082-4.791-38.085-4.135
		c-1.402-2.331,3.108-4.546-1.006-5.709c-2.192-0.192-3.804,2.177-4.732,3.601c-0.935,15.277,2.817,29.759,7.626,43.631
		l-2.413,1.194l1.746-0.45c-0.26,0.68-1.69,0.956-2.431,1.393c-1.905-1.171-4.804,0.985-6.65,1.426
		c0.979,0.286,2.197-1.012,3.132-0.228c-1.23,0.294-2.894,0.951-3.838,0.267c-0.94,0.42-3.319,1.215-3.18,1.93
		c-5.467,0.526-10.029,3.339-15.076,4.804l1.204,0.005l-0.442,0.463c-0.711,1.243-2.132,1.42-2.85,0.453l-10.995,4.057l-0.044,0.498
		c-0.468,0.762-1.702-0.049-1.386-0.222l-9.873,3.854l0.486-0.961c-0.442,0.463-1.473,0.775-1.227,1.398l-29.737,11.753
		l-2.651,0.471l0.281,0.225l-0.949,0.519c-4.081,0.747-6.516,3.345-9.791,4.062l0.273,0.325l-3.591,0.89
		c-35.674,15.349-71.607,31.378-105.434,52.009c-0.447,1.667,1.42,2.132,2.355,2.916l-4.004,4.468
		c2.188-0.913,4.106,1.263,6.259,0.748l13.92-6.512c35.474-15.367,70.667-30.959,107.11-43.631
		c2.642,7.659,6.975,14.363,13.92,19.889c1.675,2.656,4.966,4.048,7.464,6.475c5.255,6.483,11.944,11.485,19.181,14.828
		l-0.442,0.463c1.879,1.469,3.569,0.513,4.971,2.844c4.275,0.474,7.392,3.859,11.506,5.022c1.204,0.005,2.335-0.298,2.854,0.651
		l-0.199-0.017l2.421,1.015l-0.767,0.736c1.183-0.9,2.447,0.716,3.876,0.44l0.486-0.961c0.299,0.026,0.281,0.225,0.463,0.442
		l-0.199-0.017l1.966,0.473l-2.153,0.514c0.806-0.03,1.187,0.204,1.723,0.954c-0.984,0.918-1.879-1.469-3.578-0.413
		c3.789,1.436,7.678,2.88,11.698,2.83c-0.243,0.481-0.905,0.021-0.75,0.537c0.463,0.442,1.005-0.012,1.248-0.493l0.22,0.923
		l0.468-0.762c0.741-0.437,1.884,0.265,1.923,0.971l-1.928,0.233c0.979,0.286,2.408,0.01,3.612,0.015
		c0.463,0.442,1.225,0.91,1.182,1.408c-44.354,7.864-86.507,21.542-125.557,42.218l-0.481-0.243
		c-0.017,0.199-0.044,0.498-0.243,0.481c-7.384-1.65-8.165,8.42-14.372,9.383l1.928-0.233c-0.746,1.641-2.843,2.662-2.584,4.291
		c-1.928,0.233,1.25,2.92-1.483,3.183c0.987,0.187,0.983,1.391,1.402,2.331c-2.114,1.22,1.233,3.119,1.635,4.259l-1.91,0.034
		c9.829,6.983,21.041,10.775,33.099,12.934c14.873,2.104,30.881,5.01,46.037,5.031c27.5,1.201,53.381,0.253,78.576-5.472
		l1.391-0.983c0.308-0.073,0.706-0.039,1.014-0.112l-0.027,50.791l459.245,0.026L1972.234,1267.303L1972.234,1267.303z
		 M1714.269,1142.043l2.657,4.047C1715.683,1145.379,1714.52,1143.771,1714.269,1142.043L1714.269,1142.043z M1699.214,1123.661
		l4.996,4.854c-0.524,0.255-1.217-1.01-1.659-0.547C1701.352,1126.759,1699.213,1125.97,1699.214,1123.661L1699.214,1123.661z
		 M1490.917,1353.18c5.51-1.024,11.553-2.402,17.02-2.928c1.62-0.159,3.348-0.41,5.077-0.66l-0.052,0.598
		c-2.551,0.479-5.103,0.959-7.654,1.438l-0.463-0.442c-3.843,1.471-8.876,1.633-13.455,2.336L1490.917,1353.18L1490.917,1353.18z
		 M1425.38,1356.481l0.243-0.481l12.942,1.233C1434.446,1357.274,1429.417,1356.232,1425.38,1356.481L1425.38,1356.481z
		 M1511.107,1278.455l1.949,0.672l0.034,58.124c-2.642,0.371-5.376,0.634-8.001,0.806c-5.921-0.016-12.64,2.207-17.751,0.957
		l-0.26,0.68c-2.646-0.733-5.224,0.045-7.948,0.208c-2.403-1.214-5.722,0.001-7.87-0.689c-2.401,2.199-4.296-1.38-6.671,0.521
		l-19.625-1.717c-1.187-0.204-2.431,1.393-3.114,0.029c-22.972-3.616-48.107-4.309-68.233-17.514l0.442-0.463l0.281,0.225
		l-0.039-0.706c2.651-0.471,5.744-1.405,8.102-3.106c8.145-3.604,17.252-6.722,25.657-11.006
		c27.37-7.644,54.102-19.459,82.925-23.06l-0.463-0.442l2.642-0.371c-0.398-0.035-0.78-0.269-0.654-0.559L1511.107,1278.455
		L1511.107,1278.455z M1481.891,1270.479c0.217-0.182,1.629-0.259,2.365,0.508
		C1483.29,1271.705,1482.571,1270.739,1481.891,1270.479L1481.891,1270.479z M1449.324,1184.915
		c-0.044,0.498-0.767,0.736-1.022,0.212C1448.6,1185.153,1448.844,1184.672,1449.324,1184.915L1449.324,1184.915z
		 M1500.099,1182.832c2.209-0.007,3.16,2.886,4.546,3.108c-0.243,0.481,0.519,0.949,0.983,1.391l0.26-0.68
		c7.684,7.398,14.67,17.043,22.763,22.068l0.039,0.706c1.403,0.022,1.212,2.214,3.365,1.7c-0.746,1.641,1.879,1.469,2.905,2.362
		c-29.712-4.607-61.801-8.418-93.844-3.593c-1.915,1.238-4.579,0.704-6.732,1.218l-14.148,3.38l-0.255-0.524
		c18.2-7.241,37.098-14.422,55.571-21.338l-0.463-0.442l1.91-0.034C1484.503,1188.996,1492.141,1185.448,1500.099,1182.832
		L1500.099,1182.832z M1517.597,1136.581l-0.199-0.017l0.026-0.299l0.199,0.017L1517.597,1136.581L1517.597,1136.581z
		 M1552.483,1153.185c-1.72,0.151-3.423,2.411-5.48,1.829l-1.166,0.701l0.459-0.662l-1.984-0.274c0.706-0.039,1.192-1,0.529-1.459
		c-3.612-0.015-7.399,1.963-11.289,2.827c-2.608-0.027-5.982,0.681-8.603,1.958c-3.357,0.509-7.23,1.174-10.029,3.339
		c4.822-1.184,9.812-3.157,14.889-3.817c0,0,0.276,1.43,1.442,0.728l-1.915,1.238l1.161,0.503l-0.498-0.044l0.463,0.442
		l-0.199-0.017c-0.026,0.299-0.035,0.398-0.044,0.498l0,0l0,0l0,0c-1.204-0.005-3.513-0.006-4.042,1.453l-0.78-0.269l0.785-0.935
		c-2.651,0.471-4.54,1.41-7.399,1.963c3.605-2.194,6.208-0.963,9.306-3.101c-1.398-1.227-4.254,0.431-5.965,0.482
		c0.741-0.437,1.91-0.034,1.889-0.939c-4.076-0.457-7.859,2.625-11.497,2.909c0.017-0.199-0.281-0.225-0.255-0.524
		c-0.33,1.477-2.041,1.528-3.579,1.895l1.863-0.64l-0.463-0.442l-6.23,2.366c-0.017,0.199,0.281,0.225,0.481,0.243
		c-0.723,0.238-1.928,0.233-1.915,1.238l-0.481-0.243c-0.281-0.225,1.646-0.458,1.227-1.398l-1.672,0.757
		c-5.997-11.767-9.569-23.724-10.021-36.914c1.255,1.716,3.59,1.418,5.287,2.671l0.519,0.949c4.777,1.622,9.511,1.434,14.864,2.204
		c-0.286,0.979,0.701,1.166,1.199,1.209c0.923-0.22,1.161,0.503,1.723,0.954c5.492,1.484,10.268,3.107,16.029,3.812
		c6.249,3.157,13.378,4.282,19.184,7.902l-0.225,0.281l0.961,0.486c-0.685,0.944-2.639,1.476-3.137,1.432
		c-0.248,1.685,1.928-0.233,3.088,0.27l-0.442,0.463l0.281,0.225c-1.403-0.022-3.319,1.215-5.246,1.448l0.034,1.91
		c1.192-1,2.695-0.969,3.843-1.471c-0.767,0.736-2.396,0.995-2.132,1.42c1.486,0.23,2.911-1.151,4.267-1.735L1552.483,1153.185
		L1552.483,1153.185z M1519.28,1165.538c-0.741,0.437-2.127,0.215-2.613,1.177c0,0-0.706,0.039-1.412,0.077
		c-0.94,0.42-1.924,1.337-2.885,0.852c-1.23,0.294-0.182-0.217,1.456-0.575c-0.507,0.056-1.005,0.012-1.421,0.177
		c0.009-0.1,1.122-0.203,2.235-0.306c0.308-0.073,0.507-0.056,0.814-0.13c0.1,0.009,0.208-0.082,0.308-0.073
		c0.308-0.073,0.524-0.255,0.841-0.428l-2.608-0.027c1.464-0.675,4.297-0.929,5.489-1.929l0.039,0.706
		c1.204,0.005,1.723,0.954,3.114-0.029c-0.529,1.459-2.214,1.212-3.098,2.138l0.987,0.187c-1.646,0.458-3.336,1.415-5.264,1.648
		c0.971-1.923,2.899-2.156,4.264-2.839c0.026-0.299-0.281-0.225-0.481-0.243L1519.28,1165.538L1519.28,1165.538z M1521.682,1166.752
		c0.253-2.889,5.064-1.665,7.404-3.167c3.635-1.388,7.46-2.66,11.233-3.334c-4.528,2.415-10.111,3.131-14.92,5.32
		C1524.239,1165.068,1523.113,1166.476,1521.682,1166.752L1521.682,1166.752z M1522.87,1166.956l1.005-0.012l-1.43,0.276
		L1522.87,1166.956L1522.87,1166.956z M1526.244,1166.248l3.319-1.215l0.199,0.017L1526.244,1166.248L1526.244,1166.248z
		 M1529.308,1170.23c1.265-0.692,2.184-2.017,3.579-1.895C1532.112,1169.17,1530.448,1169.828,1529.308,1170.23
		c-0.208,0.082-0.425,0.264-0.732,0.337C1528.785,1170.485,1528.993,1170.403,1529.308,1170.23L1529.308,1170.23z M1533.621,1163.38
		c0.719,0.966,1.646-0.458,2.408,0.01c-0.199-0.017-0.217,0.182-0.217,0.182c0.455,0.542,1.685,0.248,2.408,0.01l-2.413,1.194
		l-0.519-0.949l-1.672,0.757C1533.878,1163.904,1533.878,1163.904,1533.621,1163.38L1533.621,1163.38z M1550.113,1161.911
		l-16.086,6.021C1539.152,1165.57,1544.667,1163.342,1550.113,1161.911L1550.113,1161.911z M1545.15,1161.276l0.723-0.238
		l0.281,0.225L1545.15,1161.276L1545.15,1161.276z M1536.271,1157.187c0.026-0.299-0.182-0.217-0.481-0.243
		c1.204,0.005,2.188-0.913,3.6-0.99c-1.69,0.956-3.124,2.437-5.506,2.128L1536.271,1157.187L1536.271,1157.187z M1541.552,1157.649
		c-1.209,1.199-4.341,1.427-5.987,1.885C1537.718,1159.02,1539.343,1157.657,1541.552,1157.649L1541.552,1157.649z
		 M1538.219,1162.477c0.992-1.017,2.59,0.227,3.817-1.172C1541.576,1161.968,1539.383,1164.085,1538.219,1162.477L1538.219,1162.477
		z M1533.161,1158.32l-0.182-0.217l0.741-0.437l0.199,0.017L1533.161,1158.32L1533.161,1158.32z M1524.024,1162.942l-0.481-0.243
		l1.166-0.701L1524.024,1162.942L1524.024,1162.942z M1522.161,1163.582l-0.199-0.017l0.767-0.736L1522.161,1163.582
		L1522.161,1163.582z M1519.964,1164.594c-0.78-0.269,1.192-1,1.672-0.757C1521.875,1164.56,1519.727,1163.871,1519.964,1164.594
		L1519.964,1164.594z M1518.089,1161.921l0.68,0.26C1518.545,1162.462,1517.124,1162.639,1518.089,1161.921L1518.089,1161.921z
		 M1543.985,1157.36l0.199,0.017l-0.442,0.463l-0.182-0.217L1543.985,1157.36L1543.985,1157.36z M1546.542,1155.677l0.255,0.524
		C1546.615,1155.984,1545.893,1156.222,1546.542,1155.677L1546.542,1155.677z M1550.641,1154.73l-0.017,0.199l-0.706,0.039
		l0.017-0.199L1550.641,1154.73L1550.641,1154.73z M1551.62,1155.017l0.706-0.039l-1.447,0.476L1551.62,1155.017L1551.62,1155.017z
		 M1552.563,1155.701l-1.945,0.432l1.872-0.74L1552.563,1155.701L1552.563,1155.701z M1554.881,1153.294
		c-0.117,0.191-0.234,0.381-0.442,0.463l0.706-0.039c-0.425,0.264-0.425,0.264-0.905,0.021L1554.881,1153.294
		c0.108-0.091,0.225-0.281,0.325-0.273L1554.881,1153.294L1554.881,1153.294z M1559.473,1153.596l-4.804,0.985
		C1555.922,1152.883,1557.815,1153.049,1559.473,1153.596L1559.473,1153.596z M1563.063,1155.014
		c-5.528,1.223-11.039,4.555-17.004,5.037c3.787-1.977,6.225-1.162,9.631-3.373c0.243-0.481-0.537-0.75-0.463-0.442
		c-2.183-0.291-3.324,2.42-5.246,1.448l-5.762,1.604c0.1,0.009,0.199,0.017,0.199,0.017s0,0-0.009,0.1
		c0.199,0.017,0.407-0.065,0.507-0.056c-0.225,0.281-0.524,0.255-0.923,0.22c0.199,0.017,0.199,0.017,0.416-0.164
		c-0.1-0.009-0.1-0.009-0.199-0.017c-0.697-0.061-1.664,0.658-1.91,0.034c5.97-1.686,11.77-2.584,17.727-5.275L1563.063,1155.014
		L1563.063,1155.014z M1564.505,1155.742c-5.008,2.172-9.812,3.157-14.651,4.54
		C1554.719,1158.6,1559.701,1156.727,1564.505,1155.742L1564.505,1155.742z M1576.518,1144.647l-0.905,0.021
		C1575.812,1144.686,1576.029,1144.504,1576.518,1144.647L1576.518,1144.647z M1589.687,1143.29l-1.464,0.675l0.455,0.542
		l-1.62,0.159c-0.017,0.199-0.026,0.299,0.073,0.308c-0.598-0.052-1.213,0.095-2.443,0.389c0.238,0.723,1.403,0.022,2.391,0.209
		c-3.093,0.934-7.854,1.421-11.073,2.645c-0.442,0.463-0.905,0.021-1.187-0.204l1.239-0.394c0.243-0.481,0.832-0.329,1.239-0.394
		l-1.239,0.394c-0.009,0.1-0.108,0.091-0.117,0.191c2.833-0.254,6.026-1.179,7.876-2.824c-1.468-0.43-4.042,1.453-5.042,0.262
		c-1.434,1.481-3.998,0.955-4.727,2.397c-0.22-0.923-1.204-0.005-1.667-0.447c4.766-1.691,9.592-4.08,14.634-4.341l-3.111,1.133
		c1.187,0.204,3.855-0.466,5.246-1.448L1589.687,1143.29L1589.687,1143.29z M1580.806,1146.126c-0.524,0.255-0.923,0.22-1.629,0.259
		C1579.883,1146.347,1580.125,1145.866,1580.806,1146.126L1580.806,1146.126z M1579.665,1148.837l-0.984,0.918l-0.281-0.225
		l-0.923,0.22C1577.503,1149.451,1578.85,1148.967,1579.665,1148.837L1579.665,1148.837z M1581.536,1148.098l-0.425,0.264
		l-0.706,0.039L1581.536,1148.098L1581.536,1148.098z M1582.484,1147.578l0.199,0.017l-0.524,0.255L1582.484,1147.578
		L1582.484,1147.578z M1588.531,1147.304c0.238,0.723-0.966,0.719-1.391,0.983l-0.281-0.225
		C1587.285,1147.797,1587.744,1147.135,1588.531,1147.304L1588.531,1147.304z M1590.875,1146.907l-0.524,0.255l0.269-0.78
		L1590.875,1146.907L1590.875,1146.907z M1590.936,1148.518c-3.873,0.665-7.478,2.859-11.228,2.129
		c2.197-1.012,4.285-1.934,6.737-2.422l-0.442,0.463C1587.297,1148.802,1589.468,1148.089,1590.936,1148.518L1590.936,1148.518z
		 M1591.091,1149.034l-2.17,0.714l1.872-0.74L1591.091,1149.034L1591.091,1149.034z M1594.506,1160.475l-0.463-0.442l-0.503,1.161
		c-3.37-0.496-4.767-4.031-7.668-5.288l0.017-0.199l-1.944-1.877l7.399-1.963
		C1592.621,1154.488,1594.053,1157.625,1594.506,1160.475L1594.506,1160.475z M1681.441,1126.021l-20.113,3.862l19.706-3.797
		L1681.441,1126.021L1681.441,1126.021z M1686.968,1124.798c-1.672,0.757-3.158,0.527-5.003,0.968
		C1683.13,1125.064,1685.322,1125.256,1686.968,1124.798L1686.968,1124.798z M1656.588,1131.275l35.903-6.496
		c-0.503,1.161-1.882,3.148-3.346,3.823l0.762,0.468c-0.225,0.281-0.243,0.481-0.26,0.68c-1.161-0.503-1.69,0.956-2.175,1.918
		c-0.005,1.204-2.336,2.606-3.126,4.746c-5.498,10.059-11.039,20.616-11.487,32.623l-0.667,0.745
		C1669.483,1155.993,1664.214,1142.783,1656.588,1131.275L1656.588,1131.275z M1606.932,1252.508
		c-0.02,4.817,1.004,10.327,2.639,14.585c0.1,0.009,0.191,0.117,0.191,0.117l-92.148-0.031
		c-36.021-7.066-70.385-19.308-95.111-48.775c4.761-0.487,10.5-0.688,15.559-1.148c3.153,0.677,6.467,0.666,9.053-0.212
		l-0.017,0.199c0.017-0.199,0.984-0.918,1.403,0.022c5.778,0.506,12.653-1.202,18.413-0.497c3.551,0.712,7.13-1.183,9.291,0.512
		c-0.498-0.044-0.987-0.187-1.685-0.248c1.225,0.91,3.37,0.496,4.6,0.202l-2.165-0.491l2.37-0.696
		c8.195,0.416,19.669,1.219,27.5,1.201c0.255,0.524,0.762,0.468,0.719,0.966c5.323-0.036,10.754,2.145,16.039,1.403l-0.005,1.204
		c6.484,0.467,12.743,1.215,18.437,3.821l-1.199-1.209c3.153,0.677,6.955,3.118,9.793,1.66l14.649,8.108l0.442-0.463
		c0.762,0.468,0.502,1.148,0.476,1.447c1.491-0.974,2.91,1.158,4.093,0.258c-1.923-0.971-2.662-2.843-4.81-3.533
		c0.529-1.459,1.403,0.022,2.17-0.714c-3.833-0.938-6.452-4.279-10.358-5.524l0.243-0.481c-1.667-0.447-3.347-1.899-4.564-2.909
		l0.243-0.481l-2.667-1.639l-0.741,0.437c-0.281-0.225-0.437-0.741-0.944-0.685c0.044-0.498,0.442-0.463,0.486-0.961
		c-1.442-0.728-3.083-1.474-4.048-3.064l0.723-0.238c-2.442-1.92-4.784-3.832-7.214-4.747l0.944,0.685
		c-2.408-0.01-1.697-1.253-3.828-2.142l0.542-0.455c-2.143-1.894-3.619-4.533-6.447-5.483l1.862,1.669
		c-2.132,1.42-1.636-1.95-2.823-2.154l0.498,0.044c-1.402-2.331-2.575-3.839-5.277-5.079c-3.614-5.737-10.966-11.198-14.41-17.723
		l8.427-3.378l-0.463-0.442c0.199,0.017,0.524-0.255,0.723-0.238c0.481,0.243,0.039,0.706,0.22,0.923l4.285-1.934l2.37-0.696
		c0.192-2.192,3.86-1.67,5.775-2.908l0.437,0.741c1.915-1.238,4.124-1.245,5.758-2.708l-0.481-0.243
		c4.29-3.138,11.944-4.576,17.958-6.761l-2.639,1.476l0.78,0.269c5.225-2.354,10.333-4.517,16.06-5.722
		c0.082,0.208-0.026,0.299-0.126,0.29c0.208-0.082,0.407-0.065,0.615-0.147c2.823,2.154,7.205,4.846,10.093,7.408
		c2.165,0.491,2.667,1.639,4.083,2.666c2.844,3.06,7.231,4.548,9.126,8.126c4.104,3.571,7.442,7.879,11.251,12.528
		c0.973,3.799,4.371,7.409,6.483,10.806c1.187,0.204,2.192,0.192,2.876-0.752c1.166-0.701,1.199,1.209,1.718,2.158
		c0.044-0.498,0.724-0.238,1.005-0.012c-0.199-0.017-0.225,0.281-0.723,0.238c0.463,0.442,0.961,0.486,1.442,0.728
		c-0.667,0.745,1.481,1.434,0.034,1.91c3.373,1.6,3.111,6.897,7.178,7.454l-1.939-3.081l0.888,0.178
		c-0.381-0.234-0.745-0.667-1.096-0.096c0.529-1.459-1.631-3.154-0.99-3.6l-0.75,0.537l-1-1.192l1.148-0.502l-0.745-0.667
		l-0.26,0.68c-0.432-1.945-2.177-3.804-2.626-5.55c0.199,0.017,0.524-0.255,0.498,0.044l-0.294-1.23l0.706-0.039
		c-0.463-0.442-0.918-0.984-1.156-1.707l-0.524,0.255c-0.719-0.966-1.463-1.634-1.259-2.82c0.746-1.641-2.9-3.566-0.968-5.003
		l-1.199-1.209c0.225-0.281,0.442-0.463,0.75-0.537c-2.172-5.008-4.798-10.558-6.97-15.567l0.459-0.662
		c-3.09-5.992-4.771-13.166-6.431-19.434l0.481,0.243l-0.463-0.442l17.086-4.829c-0.255-0.524-2.165-0.491-2.933,0.245l0.264,0.425
		c-1.91,0.034-3.076,0.735-4.761,0.487c-0.425,0.264-1.43,0.276-0.992,1.017l-8.123,2.2l-0.255-0.524l1.646-0.458
		c-0.961-0.486-1.69,0.956-2.408-0.01c5.45-2.635,10.735-3.377,16.986-4.838l-0.463-0.442l0.442-0.463
		c-5.003,0.968-10.033,2.234-14.59,3.843c-0.923,0.22-2.894,0.951-2.872-0.452c2.894-0.951,6.676-1.725,9.587-2.875l1.239-0.394
		l0.009-0.1c2.396-0.995,4.082-3.056,6.716-3.327c-0.044,0.498-0.442,0.463-0.468,0.762c1.192-1,3.076-0.735,3.86-1.67
		c-1.161-0.503-2.59-0.227-3.586-0.314l4.566-1.709c-3.53,0.193-5.948,2.591-9.085,4.023l-0.463-0.442
		c-1.166,0.701-2.608-0.027-4.081,0.747c-0.299-0.026-0.589-0.152-0.87-0.377c-1.538,0.367-4.7-0.21-5.463,1.63
		c-0.918-0.984-1.68-1.452-2.91-1.158c1.915-1.238,6.559-1.534,8.456-2.573l-0.04,1.603l1.603,0.04
		c1.408-1.182,2.209-0.007,3.6-0.99c-0.77-2.677,3.119-1.233,4.021-2.359l-0.463-0.442l1.148-0.502
		c-2.612,1.177-5.688,1.912-8.664,2.655l-0.238-0.723c1.248-0.493,3.149-0.427,3.86-1.67c-1.222,0.194-4.804,0.985-7.217,2.179
		l0.213-1.286c-2.17,0.714-4.358,1.626-7.369,2.768l-0.476-1.447l3.292-0.917c-1.187-0.204-2.127,0.215-3.076,0.735
		c-0.714-2.17-0.946-4.098-1.669-6.169c0.698-10.278-0.024-20.38,3.347-30.223c1.872-0.74,3.139,1.981,4.993,1.441l-0.169,0.788
		l0.68,0.26c0.044-0.498-0.264-0.425-0.537-0.75c0.542-0.455,0.966-0.719,1.746-0.45c0.514,2.153,3.37,0.496,4.534,2.103
		c0.476,1.447-1.695,2.161-2.137,2.624c0.039,0.706,0.719,0.966,1.243,0.711c0.665,3.873,4.316,4.594,7.183,6.25
		c2.624,2.137,4.767,4.031,7.651,5.488c2.831,4.363,7.966,7.623,10.814,11.787l-0.225,0.281c2.17-0.714,2.182,2.6,3.568,2.822
		c-4.042,1.453-10.323,2.108-14.391,3.86c-2.153,0.514-0.442,0.463-1.95,1.636l12.901-2.887c0.049-1.702,2.613-1.177,4.059-1.652
		c1.415,3.336,4.503,3.606,5.238,6.682l-0.225,0.281c6.483,10.806,13.672,21.574,15.814,33.807l-0.984,0.918l0.905-0.021
		c-0.044,0.498-0.269,0.78-0.187,0.987c1.453,4.042,0.208,7.948,1.644,12.19c-1.474,3.083,0.477,7.169,0.263,10.764
		c-1.435,1.481,0.956,1.69,0.427,3.149C1636.644,1208.932,1612.972,1225.934,1606.932,1252.508L1606.932,1252.508z
		 M1604.286,1137.038c0.255,0.524-0.524,0.255-0.442,0.463C1603.763,1137.294,1604.088,1137.021,1604.286,1137.038
		L1604.286,1137.038z M1599.467,1143.945l0.498,0.044l-0.949,0.519L1599.467,1143.945L1599.467,1143.945z M1600.397,1143.625
		c0.169-0.788,3.371-1.813,5.29-1.946l1.019-1.316c0.524-0.255,0.025,2.01,0.086,1.312c-0.299-0.026-0.697-0.061-1.105,0.004
		l-0.342,0.472L1600.397,1143.625L1600.397,1143.625z M1604.985,1142.821c-0.928,1.425-3.093,0.934-4.584,1.908
		C1601.893,1143.755,1603.62,1143.505,1604.985,1142.821L1604.985,1142.821z M1607.425,1141.328l0.442-0.463l0.199,0.017
		C1607.144,1141.103,1608.104,1141.588,1607.425,1141.328L1607.425,1141.328z M1610.539,1141.3l0.199,0.017l-1.23,0.294
		L1610.539,1141.3L1610.539,1141.3z M1605.271,1136.121l-0.017,0.199c0.516-0.156,1.031-0.311,1.555-0.567L1605.271,1136.121
		L1605.271,1136.121z M1613.675,1134.146c-2.85,0.453-4.904,0.976-6.858,1.508L1613.675,1134.146L1613.675,1134.146z
		 M1611.774,1142.11l-1.239,0.394l-0.035,0.398L1611.774,1142.11L1611.774,1142.11z M1567.393,1158.304
		c0.516-0.156,1.512-0.069,1.837-0.341C1568.714,1158.118,1568.108,1158.166,1567.393,1158.304L1567.393,1158.304z
		 M1515.562,1166.718c-0.1-0.009-0.108,0.091-0.208,0.082c0.407-0.065,0.806-0.03,1.204,0.005
		C1516.276,1166.58,1515.87,1166.645,1515.562,1166.718L1515.562,1166.718z M1515.453,1166.809l-0.1-0.009l-0.1-0.009
		C1515.255,1166.792,1515.354,1166.801,1515.453,1166.809L1515.453,1166.809z M1515.047,1166.874
		c-0.199-0.017-0.407,0.065-0.507,0.056c-0.308,0.073-0.507,0.056-0.814,0.13C1514.133,1166.995,1514.64,1166.939,1515.047,1166.874
		L1515.047,1166.874z M1588.289,1139.754l-5.536,1.323C1585.833,1141.447,1587.488,1140.889,1588.289,1139.754L1588.289,1139.754z"
    />
        <polygon fill="#82B624" points="1620.422,1052.423 1619.635,1052.253 1620.341,1052.215 	"/>
        <path fill="#82B624" d="M1621.844,1052.246c0.255,0.524-0.724,0.238-1.23,0.294
		C1620.822,1052.458,1621.264,1051.994,1621.844,1052.246L1621.844,1052.246L1621.844,1052.246z"/>
        <path fill="#82B624" d="M1624.698,1052.897c1.204,0.005,2.889,0.253,4.037-0.249c0.044-0.498-0.706,0.039-0.979-0.286
		c1.187,0.204,3.556-0.492,4.357,0.682c0.481,0.243,0.979,0.286,1.204,0.005c0.468-0.762,1.442,0.728,1.646-0.458
		c-0.264-0.425-0.489-0.143-0.689-0.161c2.352-0.497,4.988,2.645,7.671,0.671l0.044-0.498c1.685,0.248,3.314-0.011,4.773,0.518
		l-3.639,0.284c0.42,0.94,1.43-0.276,2.347,0.707c1.166-0.701,2.672,0.435,3.617-1.189l-0.503,1.161
		c1.928-0.233,4.357,0.682,5.566-0.517l-0.199-0.017c0.701,1.166,3.132-0.228,4.574,0.501l5.479,0.479
		c-0.217,0.182-0.286,0.979,0.519,0.949l0.923-0.22c-0.281-0.225-0.463-0.442-0.762-0.468c0.966-0.719,2.872,0.452,4.275,0.474
		c0.182,0.217-1.447,0.476-0.204,1.187l1.408-1.182l0.493,1.248c0.706-0.039,2.426-0.189,2.612-1.177
		c0.706-0.039-0.26,0.68,0.012,1.005c0.22,0.923,1.473-0.775,1.243,0.711c0.706-0.039,1.889-0.939,2.608,0.027
		c1.872-0.74,3.551,0.712,5.523-0.019c2.104,1.188,4.799,0.219,7.146,0.926c-0.044,0.498-0.741,0.437-0.685,0.944l0.281,0.225
		c1.677-1.961,6.246-0.257,8.394,0.433c0.217-0.182-0.039-0.706,0.459-0.662c0.463,0.442,0.956,1.69,2.16,1.695l0.243-0.481
		c0.044-0.498-0.454-0.542-0.961-0.486l-0.199-0.017l-0.199-0.017c0.486-0.961,1.204,0.005,1.91-0.034
		c-0.325,0.273,0.138,0.715,0.61,1.057c0.044-0.498,0.468-0.762,0.204-1.187c2.429,0.915,5.462,0.679,7.159,1.931
		c0.68,0.26,1.442,0.728,2.365,0.508l-0.46-0.442c1.503,0.031,2.889,0.253,3.607,1.219c0.723-0.238,1.646-0.458,1.641,0.746
		c0.222-1.386,3.132-0.228,4.553-0.405c0.757,1.672,2.403,1.214,4.071,1.661c0.225-0.281,0.044-0.498-0.039-0.706l1.199,1.209
		c0.723-0.238,0.243-0.481-0.012-1.005c1.222-0.194,1.94,0.772,3.17,0.478c-0.949,0.519-1.949-0.672-2.634,0.271
		c-0.442,0.463,0.481,0.243,0.537,0.75c1.209-1.199,2.429,0.915,2.876-0.752c0.22,0.923,0.979,0.286,1.486,0.23
		c5.049,1.948,11.278,1.89,16.328,3.838l-0.442,0.463c1.442,0.728,3.612,0.015,3.564,1.717c1.23-0.294,1.396-2.187,3.076-0.735
		l1.222-0.194l-0.443,0.465c0.68,0.26,1.187,0.204,1.447-0.476l-0.217,0.182l1.161,0.503l-0.524,0.255l1.91-0.034l-1.166,0.701
		c0.509,3.357,4.551,1.904,5.976,2.832l-0.017,0.199c0.979,0.286,1.702,0.049,2.872,0.452c-0.22-0.923-1.905-1.171-2.867-1.656
		l0.199,0.017l-0.437-0.741l-0.667,0.745l-4.05-0.756c0.724-0.238,1.685,0.248,2.153-0.514l-2.165-0.491
		c0.905-0.021,2.431-1.393,3.114-0.029c1.408-1.182,2.585,1.431,3.868,0.539c0.675,1.464,1.884,0.265,3.17,0.478
		c-0.711,1.243,0.658,1.664,1.662,1.651l-3.331,0.21c0.238,0.723,2.109-0.016,2.403,1.214l1.005-0.012
		c-1.646,0.458,0.016,2.109-0.751,2.845c0.757,1.672,1.486,0.23,2.629,0.933c1.723,0.954,3.607,1.219,5.474,1.684l-0.437-0.741
		c2.408,0.01,4.573,2.809,6.423,1.164c1.945-0.432,2.398,2.418,4.556,0.7c4.309,2.385,10.516,1.422,14.617,3.889l1.166-0.701
		c0.281,0.225,0.238,0.723,0.736,0.767c-0.425,0.264-1.248,0.493-1.707,1.156l0.944,0.685c-0.217,0.182-0.68-0.26-0.949,0.519
		c6.397,1.463,12.638,2.411,18.905,3.059l0.039,0.706c-12.699-1.713-25.419-4.332-37.845-5.72c-0.685,0.944-1.641-0.746-2.17,0.714
		c1.442,0.728,3.838-0.267,5.462,0.679l0.762,0.468c0.248-1.685,2.136-0.315,3.088,0.27c2.906,0.054,7.19,0.428,10.317,1.405
		c0.281,0.225,0.039,0.706,0.437,0.741l0.243-0.481c1.641,0.746,3.083,1.474,4.812,1.224l0.26-0.68
		c3.578,0.413,6.435,2.169,10.048,2.184c-1.672,0.757-4.556-0.7-6.666-0.684c-10.841-1.149-21.287-3.368-32.302-4.834
		c-1.199-1.209-3.396-0.197-5.037-0.943c-5.037-0.943-10.798-1.647-15.31-2.845c-2.37,0.696-5.219-1.159-8.099-1.512
		c-1.243-0.711-2.881,1.956-3.097-0.171c-0.68-0.26-2.122-0.989-2.915,0.046l-68.515-12.015c-37.603-6.201-81.429-5.518-119.52,1.89
		c-42.12,9.867-79.075,31.829-114.01,59.389c-5.036,4.779-10.795,9.796-16.757,13.692c-1.85,1.645-3.091,4.347-5.521,5.741
		l-0.498-0.044c9.317-15.848,27.053-29.254,40.491-41.73c4.333-3.636,9.857-5.964,13.13-10.094l-0.199-0.017
		c4.341-1.427,8.116-6.718,12.7-8.626c0.281,0.225,0.264,0.425,0.463,0.442c0.217-0.182,0.524-0.255,0.442-0.463l-0.281-0.225
		c2.583-1.982,6.417-3.354,9.298-5.31c4.108-3.355,8.851-3.642,12.652-6.924c3.093-0.934,5.494-3.133,9.124-3.317
		c0.512-1.26,1.959-1.736,3.18-1.93l-0.017,0.199c7.422-3.366,15.822-6.446,23.681-9.071l0.762,0.468
		c1.721-2.459,4.778-0.686,6.98-2.903c1.407,1.127,4.037-0.249,5.783-0.699c-0.944-0.685-1.928,0.233-2.651,0.471
		c0.468-0.762,2.938-1.449,3.881-0.765c1.153-1.706,3.899-0.964,5.29-1.946c0.243-0.481-0.044,0.498,0.238,0.723
		c1.677-1.961,6.043-1.379,8.179-1.694l4.098-0.946c-0.437-0.741-2.651,0.471-4.055,0.448l10.505-1.892l0.463,0.442
		c0.486-0.961,3.119-1.233,4.323-1.228l-0.568,0.753c0.463,0.442,1.187,0.204,1.884,0.265l-1.243-0.711
		c1.685,0.248,3.574-0.691,4.998,0.237l0.442-0.463l-0.961-0.486l1.91-0.034l-0.044,0.498l1.403,0.022l-0.039-0.706
		c2.396-0.995,2.429,0.915,5.059-0.461l-0.442,0.463c0.706-0.039,1.966,0.473,2.434-0.289l-1.685-0.248
		c0.442-0.463,1.43-0.276,2.127-0.215c-0.161,0.689,0.519,0.949,1.017,0.992c0.724-0.238,1.148-0.502,1.872-0.74
		c-0.32-0.931-0.706,0.039-1.187-0.204c1.469-1.879,1.212,2.214,2.352-0.497c0.255,0.524,0.294,1.23,1,1.192l0.243-0.481
		l-0.073-0.308l1.204,0.005c0,0-0.225,0.281-0.017,0.199c-0.017,0.199-0.017,0.199,0.281,0.225l0.442-0.463l-0.281-0.225
		l3.881-0.765l0.012,1.005l3.838-0.267l-1.442-0.728l2.906,0.054l-0.468,0.762c1.641,0.746,3.05-0.436,5.016,0.037l-0.229-0.823
		l1.403,0.022L1624.698,1052.897L1624.698,1052.897L1624.698,1052.897z"/>
        <path fill="#82B624" d="M1633.495,1052.161c0.255,0.524-1.447,0.476-1.403-0.022L1633.495,1052.161L1633.495,1052.161
		L1633.495,1052.161z"/>
        <polygon fill="#82B624" points="1641.457,1052.958 1640.015,1052.23 1641.483,1052.659 	"/>
        <path fill="#82B624" d="M1652.177,1053.193l-0.017,0.199l-0.862-0.477C1651.496,1052.933,1651.995,1052.977,1652.177,1053.193
		L1652.177,1053.193L1652.177,1053.193z"/>
        <polygon fill="#82B624" points="1597.604,1053.94 1597.604,1053.94 1596.863,1054.377 1596.88,1054.178 	"/>
        <polygon fill="#82B624" points="1692.954,1058.668 1692.972,1058.469 1693.959,1058.656 1693.734,1058.937 	"/>
        <path fill="#82B624" d="M1736.348,1066.379c-0.017,0.199-0.442,0.463-0.75,0.537
		C1735.823,1066.635,1736.048,1066.353,1736.348,1066.379L1736.348,1066.379L1736.348,1066.379z"/>
        <polygon fill="#82B624" points="1756.161,1072.831 1756.178,1072.631 1757.182,1072.619 1757.166,1072.818 	"/>
        <path fill="#82B624" d="M1770.796,1074.212l-0.243,0.481l0.204-1.187C1770.857,1073.514,1771.312,1074.056,1770.796,1074.212
		L1770.796,1074.212L1770.796,1074.212z"/>
        <polygon fill="#82B624" points="1772.759,1073.58 1772.785,1073.281 1773.464,1073.542 1773.448,1073.741 	"/>
        <path fill="#82B624" d="M1774.651,1073.746c-0.017,0.199-0.498-0.044-0.905,0.021
		C1773.946,1073.784,1774.388,1073.321,1774.651,1073.746L1774.651,1073.746L1774.651,1073.746z"/>
        <path fill="#82B624" d="M1775.613,1074.231c-0.741,0.437,0.012,1.005,0.276,1.43c-0.68-0.26-0.949,0.519-0.685,0.944
		c-0.463-0.442-1.667-0.447-1.403-0.022c0.217-0.182,0.187-0.987,0.005-1.204c-0.463-0.442-1.187-0.204-1.685-0.248
		c0.667-0.745-0.68-0.26-0.42-0.94C1773.017,1075.209,1774.182,1074.508,1775.613,1074.231L1775.613,1074.231L1775.613,1074.231z"/>
        <polygon fill="#82B624" points="1778.06,1074.947 1777.514,1074.297 1777.978,1074.739 	"/>
        <path fill="#82B624" d="M1780.463,1076.161c-0.468,0.762-2.872-0.452-2.132,1.42c1.143,0.702,1.728-0.25,2.651-0.471l-0.255-0.524
		c1.486,0.23,1.227-1.398,2.408,0.01l-0.667,0.745c0.199,0.017-0.017,0.199-0.044,0.498c-0.238-0.723-1.486-0.23-1.928,0.233
		c1.662,1.651,2.413-1.194,4.072-0.648c0.447-1.667,1.667,0.447,2.153-0.514l-0.225,0.281c0.519,0.949,1.43-0.276,2.127-0.215
		c-0.949,0.519-0.022,1.403,0.034,1.91c-2.625,0.172-4.083-2.666-5.496-0.28c1.68,1.452,0.685-0.944,2.452-0.488l-1.166,0.701
		l6.28,1.654l0.243-0.481l12.196,2.874l1.408-1.182c-1.651,1.662,0.9,1.183,1.437,1.933c3.855-0.466,8.181,1.72,11.776,1.934
		c2.573,0.426,6.241,0.948,9.13,1.2c6.678,1.688,13.196,4.066,20.845,3.831c-1.667-0.447-4.523,1.21-6.021-0.025
		c-2.209,0.007-5.977-0.523-7.887-0.489c-0.956-1.69-3.331,0.21-5.037-0.943c0.199,0.017-0.039-0.706,0.269-0.78
		c1.005-0.012,1.966,0.473,2.59,0.227c-1.243-0.711-3.347-1.899-4.474-0.492c-2.132,1.42-4.287-1.479-6.302-0.25l-0.745-0.667
		c-0.217,0.182-0.26,0.68-0.767,0.736c-0.752-2.876-3.889-1.444-5.518-1.185l0.225-0.281c-1.005,0.012-2.122-0.989-2.634,0.271
		l-0.498-0.044c-0.255-0.524,0.442-0.463,0.486-0.961c-0.463-0.442-1.005,0.012-1.685-0.248l0.519,0.949
		c-0.762-0.468-0.719-0.966-1.884-0.265l-0.498-0.044c0.243-0.481,0.667-0.745,0.529-1.459c-0.225,0.281-1.386-0.222-1.473,0.775
		l-0.017,0.199l-0.719-0.966c-0.286,0.979-0.706,0.039-1.503-0.031c-1.667-0.447-3.574,0.691-5.054-0.743
		c0.923-0.22,1.641,0.746,2.664,0.534c-0.22-0.923-2.603-1.232-3.634-0.92c-1.01,1.217-2.122-0.989-3.833-0.938l-0.685,0.944
		l-0.736-0.767l0.442-0.463l0.264,0.425c1.408-1.182,3.569,0.513,5.016,0.037c-3.347-1.899-7.87-0.689-10.802-0.443l-0.212-1.022
		l-0.524,0.255c-0.42-0.94-2.447-0.716-3.612-0.015c0.26-0.68-2.148-0.69-2.884-1.457l-1.23,0.294
		c0.928-1.425,2.915-0.046,4.362-0.522l-0.044,0.498l3.868,0.539c-4.607-2.411-11.252-2.189-16.726-3.873
		c1.464-0.675,4.088,1.462,5.947-0.283l-1.667-0.447l1.928-0.233l-0.493-1.248
		C1777.249,1076.181,1779.401,1075.667,1780.463,1076.161L1780.463,1076.161L1780.463,1076.161z"/>
        <path fill="#82B624" d="M1773.454,1075.95c-0.498-0.044-1.464,0.675-1.486-0.23L1773.454,1075.95L1773.454,1075.95
		L1773.454,1075.95z"/>
        <path fill="#82B624" d="M1790.229,1078.12c1.641,0.746,3.595,0.214,4.513,1.198c2.418-2.398,2.36,1.712,5.054,0.743
		c0.984-0.918,1.403,0.022,2.669-0.67c0.463,0.442,0.021,0.905-0.286,0.979c0.437,0.741,2.188-0.913,1.923,0.971
		c-0.979-0.286-1.966-0.473-3.17-0.478l0.944,0.685l-1.91,0.034l0.724-0.238c-0.255-0.524-0.519-0.949-1.143-0.702
		c-0.498-0.044-1.707,1.156-2.651,0.471l0.949-0.519c-0.493-1.248-2.165-0.491-3.109-1.175l-0.044,0.498l1.243,0.711
		c-1.667-0.447-5.722,0.001-7.215-2.438l1.391-0.983L1790.229,1078.12L1790.229,1078.12L1790.229,1078.12z"/>
        <polygon fill="#82B624" points="1792.365,1077.805 1791.901,1077.363 1792.4,1077.407 	"/>
        <path fill="#82B624" d="M1773.682,1079.082c0.425-0.264,1.187,0.204,1.447-0.476l4.838,0.925c-0.524,0.255-1.166,0.701-1.889,0.939
		l0.005-1.204c-2.153,0.514-1.949-0.672-3.357,0.509c-1.425-0.928-4.799-0.219-4.525-2.203
		C1771.578,1077.894,1773.688,1077.877,1773.682,1079.082L1773.682,1079.082L1773.682,1079.082z"/>
        <polygon fill="#82B624" points="1799.603,1078.84 1798.425,1078.536 1799.629,1078.541 	"/>
        <path fill="#82B624" d="M1813.223,1082.641l-0.017,0.199c-0.984,0.918-2.148-0.69-3.612-0.015c-0.9-1.183-3.153-0.677-4.794-1.423
		l1.421-0.177l-0.039-0.706C1808.728,1081.244,1810.832,1082.432,1813.223,1082.641L1813.223,1082.641L1813.223,1082.641z"/>
        <path fill="#82B624"
              d="M1810.62,1081.41l-1.005,0.012c0.199,0.017,0.46-0.662,0.94-0.42L1810.62,1081.41L1810.62,1081.41z"/>
        <path fill="#82B624" d="M1781.105,1081.438l-0.044,0.498l-0.437-0.741C1780.923,1081.221,1780.906,1081.42,1781.105,1081.438
		L1781.105,1081.438L1781.105,1081.438z"/>
        <path fill="#82B624" d="M1814.614,1081.659c-0.702,1.143-2.373-0.408-2.872-0.452L1814.614,1081.659L1814.614,1081.659
		L1814.614,1081.659z"/>
        <path fill="#82B624" d="M1786.828,1081.436c-0.044,0.498-0.468,0.762-0.75,0.537
		C1785.905,1081.657,1786.628,1081.419,1786.828,1081.436L1786.828,1081.436L1786.828,1081.436z"/>
        <path fill="#82B624" d="M1816.366,1083.418l-2.391-0.209l0.044-0.498C1814.952,1082.391,1815.588,1083.149,1816.366,1083.418
		L1816.366,1083.418L1816.366,1083.418z"/>
        <polygon fill="#82B624" points="1796.459,1083.785 1795.771,1083.624 1796.477,1083.585 	"/>
        <path fill="#82B624"
              d="M1813.998,1084.114l-1.005,0.012c0.243-0.481,0.442-0.463,0.94-0.42L1813.998,1084.114L1813.998,1084.114z"
        />
        <path fill="#82B624" d="M1818.26,1083.584c-0.217,0.182-1.447,0.476-1.005,0.012L1818.26,1083.584L1818.26,1083.584
		L1818.26,1083.584z"/>
        <polygon fill="#82B624" points="1825.168,1083.787 1825.484,1083.614 1826.927,1084.342 	"/>
        <path fill="#82B624" d="M1832.384,1086.225c-0.468,0.762-1.442-0.728-1.945,0.432l0.762,0.468
		c-0.724,0.238-2.156-2.899-2.872-0.452l-0.779-0.269l0.199,0.017c-2.161-1.695-6.236-2.152-9.286-1.716
		c1.677-1.961,4.353-0.422,6.428-0.04C1827.589,1084.802,1830.036,1085.518,1832.384,1086.225L1832.384,1086.225L1832.384,1086.225z
		"/>
        <polygon fill="#82B624" points="1821.906,1085.509 1821.126,1085.24 1821.823,1085.301 	"/>
        <path fill="#82B624" d="M1832.869,1085.264c-0.225,0.281-0.017,0.199-0.017,0.199l-0.481-0.243L1832.869,1085.264
		L1832.869,1085.264L1832.869,1085.264z"/>
        <path fill="#82B624" d="M1835.052,1085.555c-0.225,0.281-0.442,0.463-0.286,0.979c0.238,0.723,0.741-0.437,0.68,0.26
		c-0.75,0.537-2.365-0.508-3.158,0.527C1832.384,1086.225,1834.328,1085.793,1835.052,1085.555L1835.052,1085.555L1835.052,1085.555
		z"/>
        <path fill="#82B624" d="M1837.244,1085.747c-0.243,0.481-1.248,0.493-1.43,0.276
		C1835.984,1085.235,1836.663,1085.495,1837.244,1085.747L1837.244,1085.747L1837.244,1085.747z"/>
        <path fill="#82B624" d="M1837.636,1086.986c-0.26,0.68-1.005,0.012-1.629,0.259l0.243-0.481
		C1836.732,1087.007,1837.182,1086.444,1837.636,1086.986L1837.636,1086.986L1837.636,1086.986z"/>
        <path fill="#82B624" d="M1840.046,1086.996c-0.741,0.437-0.905,0.021-1.629,0.259l0.044-0.498
		C1838.842,1086.991,1839.564,1086.753,1840.046,1086.996L1840.046,1086.996L1840.046,1086.996z"/>
        <path fill="#82B624" d="M1826.603,1090.337l-19.608-1.916l0.905-0.021l-2.585-1.431l0.225-0.281
		C1812.517,1088.402,1819.98,1089.155,1826.603,1090.337L1826.603,1090.337L1826.603,1090.337z"/>
        <path fill="#82B624" d="M1841.938,1087.161l-1.187-0.204C1840.977,1086.676,1841.701,1086.438,1841.938,1087.161L1841.938,1087.161
		L1841.938,1087.161z"/>
        <polygon fill="#82B624" points="1815.918,1087.394 1816.36,1086.931 1817.538,1087.235 	"/>
        <polygon fill="#82B624" points="1840.266,1087.918 1841.016,1087.382 1841.469,1087.923 	"/>
        <path fill="#82B624" d="M1846.793,1087.887c-0.989,2.122-3.088-0.27-4.518,0.006
		C1843.641,1087.21,1845.541,1089.584,1846.793,1087.887L1846.793,1087.887L1846.793,1087.887z"/>
        <path fill="#82B624" d="M1837.952,1089.121c-0.524,0.255-0.238-0.723-0.294-1.23
		C1838.438,1088.16,1837.879,1088.814,1837.952,1089.121L1837.952,1089.121L1837.952,1089.121z"/>
        <polygon fill="#82B624" points="1839.083,1088.819 1839.118,1088.42 1840.305,1088.624 	"/>
        <path fill="#82B624" d="M1849.197,1089.101l-1.884-0.265C1847.672,1088.165,1848.677,1088.152,1849.197,1089.101L1849.197,1089.101
		L1849.197,1089.101z"/>
        <polygon fill="#82B624" points="1841.464,1089.127 1842.188,1088.89 1843.392,1088.895 	"/>
        <polygon fill="#82B624" points="1807.697,1089.586 1807.74,1089.088 1808.944,1089.093 	"/>
        <polygon fill="#82B624" points="1812.795,1089.831 1812.739,1089.325 1813.917,1089.628 	"/>
        <path fill="#82B624" d="M1846.827,1089.797c-0.243,0.481-1.222,0.194-1.486-0.23
		C1845.839,1089.611,1846.562,1089.373,1846.827,1089.797L1846.827,1089.797L1846.827,1089.797z"/>
        <polygon fill="#82B624" points="1848.485,1090.344 1847.724,1089.876 1848.43,1089.837 	"/>
        <path fill="#82B624" d="M1818.312,1091.017l-2.365-0.508C1816.568,1089.158,1817.307,1091.029,1818.312,1091.017L1818.312,1091.017
		L1818.312,1091.017z"/>
        <path fill="#82B624" d="M1829.491,1090.59c-0.299-0.026-1.209,1.199-1.403-0.022
		C1828.531,1090.104,1829.094,1090.555,1829.491,1090.59L1829.491,1090.59L1829.491,1090.59z"/>
        <path fill="#82B624" d="M1823.765,1091.795l-0.905,0.021l0.26-0.68C1823.003,1091.327,1823.808,1091.297,1823.765,1091.795
		L1823.765,1091.795L1823.765,1091.795z"/>
        <path fill="#82B624" d="M1806.543,1091.292c-0.741,0.437-1.447,0.476-2.127,0.215
		C1805.057,1091.062,1805.838,1091.331,1806.543,1091.292L1806.543,1091.292L1806.543,1091.292z"/>
        <path fill="#82B624" d="M1849.451,1091.934l-5.778-0.506c1.435-1.481,3.833,0.938,5.722-0.001L1849.451,1091.934L1849.451,1091.934
		z"/>
        <path fill="#82B624" d="M1826.936,1092.273l-1.005,0.012l0.225-0.281l-0.944-0.685
		C1825.918,1091.281,1826.906,1091.467,1826.936,1092.273L1826.936,1092.273L1826.936,1092.273z"/>
        <path fill="#82B624" d="M1825.47,1092.948c-0.199-0.017-0.961-0.486-1.222,0.194l5.773,1.71c-2.408-0.01-5.743-0.904-7.44-2.157
		L1825.47,1092.948L1825.47,1092.948L1825.47,1092.948z"/>
        <path fill="#82B624" d="M1832.587,1095.377l-1.91,0.034l0.044-0.498C1831.209,1095.056,1832.131,1094.836,1832.587,1095.377
		L1832.587,1095.377L1832.587,1095.377z"/>
        <path fill="#82B624" d="M1843.642,1098.654l-5.28-0.462l0.044-0.498C1840.788,1098.002,1841.551,1098.471,1843.642,1098.654
		L1843.642,1098.654L1843.642,1098.654z"/>
        <path fill="#82B624" d="M1863.55,1100.596c-0.677,3.153,3.116,5.693-0.433,8.394c-2.911,1.151-3.87,4.078-6.764,5.03
		c-0.049,1.702-1.396,2.187-2.817,2.363l-5.799-1.411c-2.843,2.662-5.958,5-8.883,7.454l0.255,0.524l-1.43,0.276
		c1,1.192-1.469,1.879-1.955,2.84c-1.685-0.248-0.473,1.966-2.175,1.918c0.182,0.217,0.481,0.243,0.987,0.187
		c-0.723,0.238-1.434,1.481-1.954,0.532c-1.166,0.701-0.534,2.664-2.656,1.675l-0.044,0.498c-0.463-0.442-1.403-0.022-1.166,0.701
		c-0.243,0.481,0.463,0.442,0.437,0.741c0.243-0.481,1.248-0.493,1.646-0.458l-2.904,3.36l-0.22-0.923
		c-0.762-0.468-1.672,0.757-1.408,1.182c0.481,0.243,0.905-0.021,1.403,0.022l-1.651,1.662c-0.238-0.723-0.979-0.286-1.204-0.005
		l0.537,0.75l-2.434,0.289c1.498,1.235-0.733,2.646-1.656,2.867c-0.524,0.255-0.767,0.736-0.984,0.918l0.463,0.442l-0.299-0.026
		l-0.044,0.498c-1.204-0.005-2.634,0.271-3.561,1.696l1.187,0.204l-1.447,0.476l0.762,0.468c-0.498-0.044-0.741,0.437-0.685,0.944
		c-0.498-0.044-1.928,0.233-2.669,0.67c-0.017,0.199,0.264,0.425,0.238,0.723l-0.442,0.463c-0.238-0.723-0.961-0.486-1.468-0.43
		l1,1.192c-0.933,2.629-3.352-0.695-4.54,1.41c0.519,0.949,2.153-0.514,1.905,1.171c-0.923,0.22-1.171,1.905-2.413,1.194
		c-0.701-1.166-2.881,1.956-4.076-0.457c-0.706,0.039-2.214,1.212-0.928,1.425c-0.42-0.94-1.646,0.458-2.37,0.696l0.519,0.949
		l-2.132,1.42c1.459,0.529,1.889-0.939,2.838-1.458l0.005-1.204c0.476,1.447,1.43-0.276,1.954-0.532
		c1.966,0.473,4.081-0.747,5.965-0.482l-0.724,0.238l0.463,0.442c-1.01,1.217-3.071-0.469-4.081,0.747
		c0.281,0.225,0.463,0.442,0.437,0.741c-0.498-0.044-1.36-0.52-1.706-1.153l-1.634,1.463l0.879,0.278l-1.148,0.502
		c0.238,0.723,1.403,0.022,2.209-0.007l-0.017,0.199l1.685,0.248c-2.188,0.913-3.323,2.42-5.775,2.908l0.248-1.685
		c-1.187-0.204-1.469,1.879-2.639,1.476c-0.966,0.719-2.916,2.355-4.341,1.427c0.524-0.255,1.403,0.022,1.174-0.801
		c-0.745-0.667-1.43,0.276-2.352,0.497l-0.044,0.498c-1.264-1.616-2.197,1.012-3.137,1.432c0.961,0.486,1.872-0.74,3.149-0.427
		l-2.375,1.9c0.442-0.463-0.502-1.148-1.199-1.209c-1.005,0.012-1.746,0.45-2.183-0.291l-2.639,1.476
		c1,1.192,1.646-0.458,2.915-0.046l-0.641,0.446l0.238,0.723l-0.425,0.264l-0.255-0.524c-0.949,0.519-2.088,0.922-3.154,1.631
		l1.017,0.992c-2.148-0.69-4.259,1.635-6.256,2.665l-0.19-0.117c-0.933,2.629-3.761,1.679-4.975,4.082
		c-1.459-0.529-2.149,1.619-4.059,1.652c-3.129,3.641-8.366,2.681-11.304,6.439c0.199,0.017,0.255,0.524-0.044,0.498
		c-2.664-0.534-4.788,3.094-7.92,3.322c0.772-1.94,3.336-1.415,4.264-2.839c2.114-1.22,5.295-3.151,7.643-4.752
		c0.498,0.044,0.949-0.519,1.491-0.974c-0.22-0.923-1.486-0.23-1.928,0.233l0.486-0.961c8.393-5.289,16.034-13.454,24.227-18.76
		l1.227-1.398c-3.899,0.964-6.465,5.056-10.264,6.028c2.392-2.1,5.312-3.35,6.163-6.186l0.481,0.243l22.262-21.542l0.238,0.723
		l1.37-1.888l0.463,0.442c-0.259-1.629,1.391-0.983,2.119-2.425c4.3-5.546,10.033-10.265,14.116-15.629l0.498,0.044
		c-0.026,0.299-0.225,0.281-0.442,0.463c2.408,0.01,3.589-4.304,6.261-3.869c2.617-2.381,5.235-4.762,8.172-6.211l-0.944-0.685
		c0.204-1.187,1.43-0.276,1.872-0.74l-0.32-0.931c6.943-0.196,11.967-5.98,19.395-4.828
		C1859.964,1097.973,1861.865,1100.348,1863.55,1100.596L1863.55,1100.596L1863.55,1100.596z"/>
        <path fill="#82B624" d="M1802.423,1157.886c-0.199-0.017-0.966,0.719-1.005,0.012L1802.423,1157.886L1802.423,1157.886
		L1802.423,1157.886z"/>
        <path fill="#82B624" d="M1795.953,1164.146l0.281,0.225l-2.838,1.458l-0.437-0.741c-1.192,1-2.677,0.77-3.86,1.67
		c0.264,0.425,0.788,0.169,0.987,0.187c-2.17,0.714-3.38,1.913-5.55,2.626l1.685,0.248l-3.158,0.527
		c0.012,1.005-2.109,0.016-1.127,1.407c1.187,0.204,2.669-0.67,3.773-0.674c-3.799,0.973-7.659,2.642-11.264,4.837l0.736,0.767
		c-0.966,0.719-1.386-0.222-2.625,0.172c0.493,1.248-1.447,0.476-1.933,1.437c-0.949,0.519-1.95,1.636-3.401,1.007
		c3.881-0.765,6.041-4.792,10.022-5.548l6.963-5.012l-0.243,0.481c1.928-0.233,3.622-2.393,5.031-3.575l0.264,0.425l4.325-3.537
		c1.624,0.945,2.651-0.471,4.081-0.747c0.022-1.403,1.403,0.022,1.889-0.939C1800.503,1162.637,1797.206,1162.449,1795.953,1164.146
		L1795.953,1164.146L1795.953,1164.146z"/>
        <polygon fill="#82B624" points="1793.328,1164.318 1795.958,1162.942 1796.465,1162.886 	"/>
        <path fill="#82B624" d="M1789.053,1163.844c0.476,1.447-0.949,0.519-1.426,1.381l-0.264-0.425
		C1788.343,1165.087,1788.022,1164.155,1789.053,1163.844L1789.053,1163.844L1789.053,1163.844z"/>
        <polygon fill="#82B624" points="1794.832,1164.349 1794.75,1164.141 1795.255,1164.085 1795.229,1164.384 	"/>
        <polygon fill="#82B624" points="1787.839,1166.247 1787.177,1165.788 1787.784,1165.74 	"/>
        <path fill="#82B624" d="M1790.948,1167.423c-0.044,0.498-1.127,1.407-2.158,1.718
		C1788.796,1167.937,1790.043,1167.444,1790.948,1167.423L1790.948,1167.423L1790.948,1167.423z"/>
        <polygon fill="#82B624" points="1781.141,1169.375 1780.661,1169.132 1781.159,1169.176 	"/>
        <path fill="#82B624" d="M1788.592,1169.124c-0.459,0.662-1.209,1.199-1.915,1.238
		C1786.638,1169.655,1787.869,1169.362,1788.592,1169.124L1788.592,1169.124L1788.592,1169.124z"/>
        <path fill="#82B624" d="M1782.793,1173.435l-0.199-0.017c-0.463-0.442,0.741-0.437,0.91-1.225
		C1783.76,1172.716,1783.318,1173.18,1782.793,1173.435L1782.793,1173.435L1782.793,1173.435z"/>
        <path fill="#82B624" d="M1782.144,1173.98c-3.336,1.415-5.78,4.112-9.597,5.284
		C1776.073,1177.966,1778.271,1174.645,1782.144,1173.98L1782.144,1173.98L1782.144,1173.98z"/>
        <polygon fill="#82B624" points="1771.589,1179.883 1771.307,1179.657 1771.607,1179.684 	"/>
        <path fill="#82B624" d="M1766.078,1180.906l0.463,0.442c-0.667,0.745-2.408-0.01-2.92,1.25c-0.215-2.127,2.158-1.718,3.566-2.9
		L1766.078,1180.906L1766.078,1180.906z"/>
        <path fill="#82B624" d="M1766.312,1182.834l3.822-2.376C1770.094,1182.061,1767.459,1182.332,1766.312,1182.834L1766.312,1182.834
		L1766.312,1182.834z"/>
        <polygon fill="#82B624" points="1759.589,1181.644 1760.058,1180.882 1760.564,1180.826 	"/>
        <path fill="#82B624" d="M1760.324,1184.719c-2.127,0.215-3.601,3.299-5.533,2.427l-0.039-0.706l0.498,0.044l-0.225,0.281
		c0.481,0.243,1.702,0.049,1.473-0.775c0.762,0.468,1.889-0.939,2.413-1.194l-0.498-0.044c0.26-0.68,1.447-0.476,1.872-0.74
		l2.674-1.874C1763.401,1183.985,1760.308,1182.61,1760.324,1184.719L1760.324,1184.719L1760.324,1184.719z"/>
        <path fill="#82B624" d="M1765.853,1183.497L1765.853,1183.497l-0.463-0.442C1765.589,1183.072,1765.771,1183.289,1765.853,1183.497
		L1765.853,1183.497L1765.853,1183.497z"/>
        <path fill="#82B624" d="M1765.103,1184.033c0.264,0.425-0.425,0.264-0.923,0.22l0.667-0.745L1765.103,1184.033L1765.103,1184.033
		L1765.103,1184.033z"/>
        <path fill="#82B624" d="M1763.639,1184.708c-0.017,0.199-0.243,0.481-0.243,0.481l0.044-0.498L1763.639,1184.708L1763.639,1184.708
		L1763.639,1184.708z"/>
        <path fill="#82B624" d="M1762.689,1185.227l-0.243,0.481l-0.255-0.524C1762.192,1185.184,1762.715,1184.929,1762.689,1185.227
		L1762.689,1185.227L1762.689,1185.227z"/>
        <polygon fill="#82B624" points="1748.329,1187.585 1748.516,1186.597 1749.214,1186.658 	"/>
        <path fill="#82B624" d="M1754.831,1187.853l-0.044,0.498c-1.442-0.728-3.137,1.432-4.358,1.626l1.227-1.398
		c0.026-0.299-0.498-0.044-0.281-0.225l1.403,0.022l-0.762-0.468l0.199,0.017
		C1752.599,1189.263,1754.013,1186.878,1754.831,1187.853L1754.831,1187.853L1754.831,1187.853z"/>
        <polygon fill="#82B624" points="1750.508,1189.08 1750.651,1188.591 1750.958,1188.518 	"/>
        <polygon fill="#82B624" points="1747.817,1191.154 1750.005,1190.241 1747.873,1191.661 	"/>
        <path fill="#82B624" d="M1747.105,1192.396c-0.498-0.044-0.923,0.22-1.43,0.276l1.209-1.199
		C1747.067,1191.69,1747.123,1192.197,1747.105,1192.396L1747.105,1192.396L1747.105,1192.396z"/>
        <path fill="#82B624" d="M1745.203,1192.331l-0.498-0.044l0.243-0.481C1745.464,1191.651,1745.222,1192.131,1745.203,1192.331
		L1745.203,1192.331L1745.203,1192.331z"/>
        <path fill="#82B624" d="M1743.514,1193.287l-0.498-0.044l0.26-0.68C1743.475,1192.581,1743.531,1193.088,1743.514,1193.287
		L1743.514,1193.287L1743.514,1193.287z"/>
        <polygon fill="#82B624" points="1625.599,1102.263 1625.915,1102.09 1626.604,1102.251 	"/>
        <path fill="#82B624" d="M1608.878,1105.217c-0.442,0.463-2.365-0.508-3.309-1.193l-0.238-0.723
		C1606.445,1103.198,1607.886,1103.926,1608.878,1105.217L1608.878,1105.217L1608.878,1105.217z"/>
        <polygon fill="#82B624" points="1628.964,1103.963 1629.289,1103.691 1631.865,1105.221 1631.647,1105.403 	"/>
        <path fill="#82B624" d="M1771.829,1109.436c-0.044,0.498-0.923,0.22-1.222,0.194
		C1770.146,1109.188,1771.366,1108.994,1771.829,1109.436L1771.829,1109.436L1771.829,1109.436z"/>
        <path fill="#82B624" d="M1762.708,1110.444c-0.017,0.199-0.225,0.281-0.442,0.463l-0.281-0.225l0.26-0.68l1.667,0.447
		L1762.708,1110.444L1762.708,1110.444L1762.708,1110.444z"/>
        <path fill="#82B624" d="M1760.499,1110.452l-0.225,0.281l-0.463-0.442C1760.243,1109.928,1760.317,1110.235,1760.499,1110.452
		L1760.499,1110.452L1760.499,1110.452z"/>
        <polygon fill="#82B624" points="1765.115,1110.454 1764.136,1110.168 1764.834,1110.229 	"/>
        <polygon fill="#82B624" points="1757.891,1110.425 1757.909,1110.225 1759.094,1110.43 1759.078,1110.629 	"/>
        <path fill="#82B624" d="M1755.457,1110.713c0.039,0.706-1.166,0.701-1.971,0.731
		C1754.052,1110.691,1754.776,1110.453,1755.457,1110.713L1755.457,1110.713L1755.457,1110.713z"/>
        <path fill="#82B624" d="M1753.113,1111.111c-0.26,0.68-0.905,0.021-1.187-0.204
		C1752.425,1110.95,1752.832,1110.885,1753.113,1111.111L1753.113,1111.111L1753.113,1111.111z"/>
        <path fill="#82B624" d="M1740.703,1111.832l-0.706,0.039c-0.264-0.425,0.243-0.481,0.741-0.437L1740.703,1111.832
		L1740.703,1111.832z"/>
        <path fill="#82B624" d="M1748.552,1111.615l-0.017,0.199l-0.961-0.486C1748.071,1111.372,1748.326,1111.897,1748.552,1111.615
		L1748.552,1111.615L1748.552,1111.615z"/>
        <path fill="#82B624" d="M1739.391,1111.918l-2.669,0.67C1737.264,1112.133,1738.555,1111.142,1739.391,1111.918L1739.391,1111.918
		L1739.391,1111.918z"/>
        <path fill="#82B624" d="M1745.22,1111.826c0,0-0.026,0.299-0.225,0.281l-0.199-0.017l0.044-0.498
		C1744.938,1111.6,1745.238,1111.626,1745.22,1111.826L1745.22,1111.826L1745.22,1111.826z"/>
        <polygon fill="#82B624" points="1747.322,1111.909 1746.144,1111.605 1747.147,1111.593 	"/>
        <path fill="#82B624"
              d="M1734.894,1112.829l-0.706,0.039c0.017-0.199,0.26-0.68,0.741-0.437L1734.894,1112.829L1734.894,1112.829z"
        />
        <path fill="#82B624" d="M1734.407,1113.791c-0.276-1.43-1.884-0.265-3.153-0.677
		C1731.579,1112.841,1734.656,1112.106,1734.407,1113.791L1734.407,1113.791L1734.407,1113.791z"/>
        <path fill="#82B624" d="M1741.339,1112.59c-1.227,1.398-3.855,0.466-5.501,0.924
		C1736.766,1112.09,1739.667,1113.347,1741.339,1112.59L1741.339,1112.59L1741.339,1112.59z"/>
        <polygon fill="#82B624" points="1723.146,1114.01 1728.647,1113.086 1730.557,1113.052 	"/>
        <polygon fill="#82B624" points="1721.998,1114.512 1721.959,1113.806 1722.666,1113.767 	"/>
        <path fill="#82B624" d="M1731.077,1114.001c-0.225,0.281-1.69,0.956-2.426,0.189c-3.081,1.939-7.169,0.477-10.505,1.892
		C1721.998,1114.512,1726.516,1114.506,1731.077,1114.001L1731.077,1114.001L1731.077,1114.001z"/>
        <polygon fill="#82B624" points="1716.432,1115.029 1718.784,1114.532 1720.296,1114.463 	"/>
        <path fill="#82B624" d="M1707.578,1115.258c-0.044,0.498-1.447,0.476-1.204-0.005L1707.578,1115.258L1707.578,1115.258
		L1707.578,1115.258z"/>
        <path fill="#82B624" d="M1717.177,1115.696c-0.442,0.463-1.447,0.476-1.872,0.74l-0.039-0.706
		C1715.772,1115.674,1716.67,1115.752,1717.177,1115.696L1717.177,1115.696L1717.177,1115.696z"/>
        <path fill="#82B624" d="M1714.3,1116.448l-4.098,0.946C1710.926,1117.157,1712.659,1115.702,1714.3,1116.448L1714.3,1116.448
		L1714.3,1116.448z"/>
        <path fill="#82B624" d="M1731.984,1117.393c-0.035,0.398-0.243,0.481-0.468,0.762l-0.238-0.723L1731.984,1117.393
		L1731.984,1117.393L1731.984,1117.393z"/>
        <path fill="#82B624" d="M1725.024,1117.788c-0.498-0.044-0.949,0.519-1.629,0.259
		C1723.656,1117.367,1724.635,1117.654,1725.024,1117.788L1725.024,1117.788L1725.024,1117.788z"/>
        <path fill="#82B624" d="M1727.905,1118.14c-0.017,0.199-1.248,0.493-1.945,0.432
		C1726.5,1118.118,1727.224,1117.88,1727.905,1118.14L1727.905,1118.14L1727.905,1118.14z"/>
        <path fill="#82B624" d="M1729.416,1118.072c-0.017,0.199-0.425,0.264-0.923,0.22
		C1728.446,1117.686,1729.109,1118.145,1729.416,1118.072L1729.416,1118.072L1729.416,1118.072z"/>
        <path fill="#82B624" d="M1731.979,1118.597c-0.905,0.021-1.945,0.432-2.833,0.254
		C1729.896,1118.315,1731.074,1118.619,1731.979,1118.597L1731.979,1118.597L1731.979,1118.597z"/>
        <path fill="#82B624" d="M1715.251,1119.342c-0.442,0.463-1.646,0.458-2.37,0.696
		C1713.068,1119.051,1714.527,1119.58,1715.251,1119.342L1715.251,1119.342L1715.251,1119.342z"/>
        <path fill="#82B624" d="M1685.541,1120.457c-4.528,2.415-10.306,1.909-15.353,3.375
		C1674.509,1121.499,1680.468,1122.222,1685.541,1120.457L1685.541,1120.457L1685.541,1120.457z"/>
        <polygon fill="#82B624" points="1694.888,1121.476 1693.728,1120.972 1694.688,1121.458 	"/>
        <path fill="#82B624" d="M1667.339,1124.285c-0.468,0.762-1.248,0.493-1.646,0.458l1.209-1.199L1667.339,1124.285L1667.339,1124.285
		L1667.339,1124.285z"/>
        <path fill="#82B624"
              d="M1658.254,1126c1.408-1.182,4.523-1.21,6.45-1.443L1658.254,1126L1658.254,1126L1658.254,1126z"/>
        <path fill="#82B624" d="M1656.344,1126.034c0.039,0.706-0.949,0.519-1.447,0.476
		C1655.14,1126.029,1655.845,1125.99,1656.344,1126.034L1656.344,1126.034L1656.344,1126.034z"/>
        <polygon fill="#82B624" points="1631.159,1129.351 1631.401,1128.871 1632.38,1129.157 	"/>
        <polygon fill="#82B624" points="1632.782,1130.296 1632.818,1129.898 1633.823,1129.885 	"/>
        <polygon fill="#82B624" points="1626.853,1130.38 1626.797,1129.873 1627.785,1130.06 	"/>
        <path fill="#82B624" d="M1632.375,1130.361l-0.723,0.238l-0.255-0.524C1631.895,1130.118,1632.12,1129.837,1632.375,1130.361
		L1632.375,1130.361L1632.375,1130.361z"/>
        <path fill="#82B624" d="M1630.854,1130.529l-1.954,0.532C1629.508,1131.014,1629.994,1130.052,1630.854,1130.529L1630.854,1130.529
		L1630.854,1130.529z"/>
        <path fill="#82B624" d="M1627.03,1131.801l0.706-0.039c-0.442,0.463-1.192,1-2.17,0.714L1627.03,1131.801
		c-0.281-0.225-0.498-0.044-0.498-0.044c0.26-0.68,1.43-0.276,1.889-0.939L1627.03,1131.801L1627.03,1131.801z"/>
        <path fill="#82B624" d="M1624.167,1131.249c0.281,0.225,0.255,0.524,0.22,0.923l0.979,0.286c-1.452,1.68-2.421-1.015-3.401,1.007
		c-0.039-0.706-0.25-1.728,0.772-1.94l-3.656,0.483c1.192-1,2.894-0.951,4.137-0.24
		C1623.279,1131.071,1623.942,1131.53,1624.167,1131.249L1624.167,1131.249L1624.167,1131.249z"/>
        <path fill="#82B624" d="M1634.026,1131.007c0.238,0.723-0.442,0.463-0.767,0.736l-0.039-0.706L1634.026,1131.007L1634.026,1131.007
		L1634.026,1131.007z"/>
        <path fill="#82B624" d="M1496.739,1131.745l-1.91,0.034l0.044-0.498C1495.495,1131.034,1496.058,1131.485,1496.739,1131.745
		L1496.739,1131.745L1496.739,1131.745z"/>
        <path fill="#82B624" d="M1628.238,1132.91c0.767-0.736,2.838-1.458,4.523-1.21L1628.238,1132.91L1628.238,1132.91L1628.238,1132.91
		z"/>
        <polygon fill="#82B624" points="1616.755,1132.207 1617.479,1131.969 1618.176,1132.03 	"/>
        <path fill="#82B624" d="M1619.881,1133.183l-0.005,1.204l4.605-1.002c-1.872,0.74-4.341,1.427-6.511,2.141l1.707-1.156
		c-0.182-0.217-0.498-0.044-0.68-0.26c0,0,0.741-0.437,0.667-0.745l-4.822,1.184
		C1616.482,1134.19,1618.445,1131.25,1619.881,1133.183L1619.881,1133.183L1619.881,1133.183z"/>
        <path fill="#82B624" d="M1616.786,1133.012c-0.26,0.68-2.153,0.514-3.093,0.934
		C1614.365,1131.998,1616.1,1133.956,1616.786,1133.012L1616.786,1133.012L1616.786,1133.012z"/>
        <polygon fill="#82B624" points="1613.172,1132.997 1613.453,1133.223 1612.912,1133.677 1612.93,1133.478 	"/>
        <path fill="#82B624" d="M1622.545,1136.026c2.894-0.951,6.412-2.149,9.825-2.152L1622.545,1136.026L1622.545,1136.026
		L1622.545,1136.026z"/>
        <polygon fill="#82B624" points="1625.607,1136.595 1635.656,1134.162 1636.164,1134.105 	"/>
        <polygon fill="#82B624" points="1610.561,1134.174 1610.742,1134.391 1610.119,1134.637 1609.82,1134.611 	"/>
        <path fill="#82B624" d="M1606.479,1134.921l0.425-0.264L1606.479,1134.921z"/>
        <path fill="#82B624" d="M1602.139,1136.349l-0.199-0.017l1.183-0.9C1603.369,1136.055,1602.646,1136.292,1602.139,1136.349
		L1602.139,1136.349L1602.139,1136.349z"/>
        <path fill="#82B624" d="M1512.78,1136.561l-2.122-0.989C1511.563,1135.551,1512.542,1135.838,1512.78,1136.561L1512.78,1136.561
		L1512.78,1136.561z"/>
        <polygon fill="#82B624" points="1635.928,1136.795 1638.297,1136.099 1637.358,1136.519 	"/>
        <polygon fill="#82B624" points="1513.984,1136.566 1513.222,1136.098 1513.928,1136.059 	"/>
        <polygon fill="#82B624" points="1616.818,1137.231 1617.016,1137.249 1616.268,1137.785 1616.068,1137.768 	"/>
        <path fill="#82B624" d="M1640.203,1137.27c-0.741,0.437-1.192,1-2.17,0.714C1638.557,1137.728,1639.505,1137.209,1640.203,1137.27
		L1640.203,1137.27L1640.203,1137.27z"/>
        <polygon fill="#82B624" points="1621.266,1138.022 1621.591,1137.749 1621.79,1137.767 	"/>
        <path fill="#82B624" d="M1637.651,1137.749c-2.855,1.657-7.473,1.655-10.99,2.853l-0.044,0.498
		c-2.85,0.453-7.156,1.482-8.885,1.732C1624.01,1141.073,1630.946,1138.668,1637.651,1137.749L1637.651,1137.749L1637.651,1137.749z
		"/>
        <path fill="#82B624" d="M1604.784,1139.391l-0.706,0.039C1604.12,1138.931,1604.503,1139.165,1604.784,1139.391L1604.784,1139.391
		L1604.784,1139.391z"/>
        <polygon fill="#82B624" points="1613.683,1142.077 1620.113,1139.728 1620.884,1140.096 	"/>
        <path fill="#82B624" d="M1628.285,1141.547c-1.222,0.194-0.728,1.442-2.413,1.194
		C1626.375,1141.581,1627.337,1142.066,1628.285,1141.547L1628.285,1141.547L1628.285,1141.547z"/>
        <path fill="#82B624" d="M1619.875,1144.726l0.26-0.68l-0.979-0.286c1.945-0.432,3.838-0.267,5.8-0.898L1619.875,1144.726
		L1619.875,1144.726z"/>
        <polygon fill="#82B624" points="1537.466,1143.539 1536.505,1143.054 1537.211,1143.015 	"/>
        <polygon fill="#82B624" points="1582.483,1144.165 1582.781,1144.191 1582.699,1143.983 1582.5,1143.966 	"/>
        <path fill="#82B624" d="M1619.594,1144.501c-0.217,0.182-0.923,0.22-1.447,0.476
		C1618.49,1144.505,1618.915,1144.241,1619.594,1144.501L1619.594,1144.501L1619.594,1144.501z"/>
        <polygon fill="#82B624" points="1607.388,1146.344 1607.405,1146.145 1608.891,1146.375 	"/>
        <path fill="#82B624" d="M1603.12,1148.079c0.486-0.961,1.928-0.233,2.431-1.393l0.463,0.442L1603.12,1148.079L1603.12,1148.079
		L1603.12,1148.079z"/>
        <path fill="#82B624" d="M1533.089,1155.704c5.489-1.929,8.869-3.842,14.396-5.065
		C1543.5,1152.6,1538.209,1154.546,1533.089,1155.704L1533.089,1155.704L1533.089,1155.704z"/>
        <path fill="#82B624" d="M1508.911,1162.422c-0.442,0.463-1.447,0.476-1.872,0.74
		C1507.282,1162.681,1508.188,1162.66,1508.911,1162.422L1508.911,1162.422L1508.911,1162.422z"/>
        <path fill="#82B624" d="M1506.333,1163.201c-0.524,0.255-0.984,0.918-1.464,0.675
		C1504.896,1163.577,1505.853,1162.958,1506.333,1163.201L1506.333,1163.201L1506.333,1163.201z"/>
        <path fill="#82B624" d="M1548.227,1166.264c-0.944-0.685-0.923,0.22-1.603-0.04c-0.984,0.918-2.656,1.675-4.766,1.691
		c-0.498-0.044-1.178-0.304-0.918-0.984c2.651-0.471,4.766-1.691,7.659-2.642C1549.479,1164.566,1548.27,1165.765,1548.227,1166.264
		L1548.227,1166.264L1548.227,1166.264z"/>
        <polygon fill="#82B624" points="1520.003,1165.3 1519.985,1165.499 1519.462,1165.755 1519.28,1165.538 	"/>
        <path fill="#82B624" d="M1491.206,1168.603l-0.199-0.017l0.685-0.944C1491.665,1167.94,1491.902,1168.664,1491.206,1168.603
		L1491.206,1168.603L1491.206,1168.603z"/>
        <polygon fill="#82B624" points="1489.035,1169.316 1489.577,1168.862 1489.776,1168.879 	"/>
        <path fill="#82B624" d="M1488.546,1169.173c0.264,0.425-0.442,0.463-0.767,0.736
		C1487.831,1169.311,1488.047,1169.13,1488.546,1169.173L1488.546,1169.173L1488.546,1169.173z"/>
        <path fill="#82B624" d="M1486.232,1170.376c-0.017,0.199-0.923,0.22-0.68-0.26
		C1485.751,1170.133,1486.176,1169.869,1486.232,1170.376L1486.232,1170.376L1486.232,1170.376z"/>
        <path fill="#82B624" d="M1484.062,1171.09c-0.044,0.498-0.524,0.255-0.923,0.22
		C1483.083,1170.803,1483.763,1171.063,1484.062,1171.09L1484.062,1171.09L1484.062,1171.09z"/>
        <polygon fill="#82B624" points="1481.891,1171.803 1481.891,1171.803 1478.979,1172.954 	"/>
        <path fill="#82B624" d="M1529.832,1172.283c-0.199-0.017-0.442,0.463-0.723,0.238l0.044-0.498
		C1529.35,1172.04,1529.577,1171.759,1529.832,1172.283L1529.832,1172.283L1529.832,1172.283z"/>
        <polygon fill="#82B624" points="1527.419,1173.477 1527.181,1172.754 1527.886,1172.715 	"/>
        <path fill="#82B624" d="M1477.125,1173.494c0.463,0.442-0.524,0.255-0.949,0.519
		C1475.922,1173.489,1476.827,1173.468,1477.125,1173.494L1477.125,1173.494L1477.125,1173.494z"/>
        <path fill="#82B624" d="M1474.938,1174.407c-0.017,0.199-0.217,0.182-0.524,0.255l0.468-0.762
		C1475.181,1173.926,1475.136,1174.424,1474.938,1174.407L1474.938,1174.407L1474.938,1174.407z"/>
        <path fill="#82B624" d="M1473.716,1174.601c-0.044,0.498-1.464,0.675-1.187-0.204L1473.716,1174.601L1473.716,1174.601
		L1473.716,1174.601z"/>
        <polygon fill="#82B624" points="1471.546,1175.315 1470.576,1174.929 1471.381,1174.899 	"/>
        <polygon fill="#82B624" points="1472.044,1175.358 1471.763,1175.133 1472.568,1175.103 	"/>
        <path fill="#82B624" d="M1467.305,1176.751c-0.044,0.498-0.767,0.736-1.447,0.476
		C1466.073,1177.045,1466.771,1177.106,1467.305,1176.751L1467.305,1176.751L1467.305,1176.751z"/>
        <path fill="#82B624" d="M1463.235,1178.503c0.481,0.243-0.225,0.281-0.243,0.481l-0.255-0.524L1463.235,1178.503L1463.235,1178.503
		L1463.235,1178.503z"/>
        <polygon fill="#82B624" points="1459.619,1179.692 1459.562,1179.185 1460.841,1179.498 	"/>
        <path fill="#82B624" d="M1455.277,1181.119c0.255,0.524-0.225,0.281-0.468,0.762
		C1454.328,1181.638,1454.997,1180.894,1455.277,1181.119L1455.277,1181.119L1455.277,1181.119z"/>
        <path fill="#82B624" d="M1452.622,1182.794l-0.498-0.044l0.243-0.481C1452.639,1182.595,1452.622,1182.794,1452.622,1182.794
		L1452.622,1182.794L1452.622,1182.794z"/>
        <polygon fill="#82B624" points="1450.75,1183.534 1450.712,1182.828 1451.219,1182.772 	"/>
        <polygon fill="#82B624" points="1447.133,1184.723 1446.188,1184.038 1446.67,1184.281 	"/>
        <path fill="#82B624" d="M1444.222,1185.874l-0.706,0.039l0.26-0.68C1443.984,1185.15,1444.04,1185.657,1444.222,1185.874
		L1444.222,1185.874L1444.222,1185.874z"/>
        <path fill="#82B624" d="M1660.126,1189.505l-0.034-1.91C1660.375,1187.82,1660.386,1188.825,1660.126,1189.505L1660.126,1189.505
		L1660.126,1189.505z"/>
        <path fill="#82B624" d="M1429.665,1191.627l-0.498-0.044c0.026-0.299,0.243-0.481,0.524-0.255L1429.665,1191.627L1429.665,1191.627
		z"/>
        <path fill="#82B624" d="M1616.813,1202.68l-0.044,0.498l-0.719-0.966C1616.475,1201.948,1616.732,1202.472,1616.813,1202.68
		L1616.813,1202.68L1616.813,1202.68z"/>
        <path fill="#82B624" d="M1624.443,1207.262l-0.044,0.498c-0.281-0.225-1.204-0.005-0.736-0.767
		C1623.963,1207.019,1624.171,1206.937,1624.443,1207.262L1624.443,1207.262L1624.443,1207.262z"/>
        <path fill="#82B624" d="M1539.129,1209.435l-1.888-1.37C1537.912,1208.425,1538.917,1208.413,1539.129,1209.435L1539.129,1209.435
		L1539.129,1209.435z"/>
        <polygon fill="#82B624" points="1625.118,1208.727 1624.681,1207.986 1624.88,1208.003 	"/>
        <path fill="#82B624" d="M1625.427,1212.066l-0.692-1.265C1625.432,1210.862,1625.172,1211.542,1625.427,1212.066L1625.427,1212.066
		L1625.427,1212.066z"/>
        <polygon fill="#82B624" points="1546.581,1214.905 1546.78,1214.923 1552.045,1218.997 1552.027,1219.196 	"/>
        <path fill="#82B624" d="M1484.76,1217.025l-0.044,0.498c-0.281-0.225-1.178-0.304-0.437-0.741
		C1484.254,1217.081,1484.453,1217.099,1484.76,1217.025L1484.76,1217.025L1484.76,1217.025z"/>
        <polygon fill="#82B624" points="1466.265,1217.314 1465.078,1217.11 1466.066,1217.297 	"/>
        <path fill="#82B624" d="M1474.196,1217.306c-0.468,0.762-1.728,0.25-2.109,0.016
		C1472.113,1217.023,1473.433,1216.837,1474.196,1217.306L1474.196,1217.306L1474.196,1217.306z"/>
        <polygon fill="#82B624" points="1467.552,1217.527 1467.071,1217.285 1467.469,1217.319 	"/>
        <path fill="#82B624" d="M1470.883,1217.317l-1.43,0.276l0.026-0.299C1469.904,1217.031,1470.358,1217.572,1470.883,1217.317
		L1470.883,1217.317L1470.883,1217.317z"/>
        <path fill="#82B624" d="M1461.547,1217.303c-0.723,0.238-1.889,0.939-2.669,0.67
		C1459.14,1217.293,1460.781,1218.039,1461.547,1217.303L1461.547,1217.303L1461.547,1217.303z"/>
        <path fill="#82B624" d="M1663.511,1218.51l-0.299-0.026l-0.463-0.442C1662.974,1217.761,1663.229,1218.285,1663.511,1218.51
		L1663.511,1218.51L1663.511,1218.51z"/>
        <polygon fill="#82B624" points="1669.74,1218.453 1668.753,1218.266 1669.458,1218.227 	"/>
        <polygon fill="#82B624" points="1554.686,1220.935 1552.526,1219.24 1554.729,1220.437 	"/>
        <path fill="#82B624" d="M1699.639,1222.072l-0.667,0.745l0.182,0.217l0.524-0.255c2.667,1.639,7.453,3.162,8.625,6.978
		c0.458,1.646,1.614,3.353,3.112,4.589c-1.192,1,1.723,0.954,0.714,2.17l-2.148-0.69l-0.044,0.498
		c-0.918-0.984-2.347-0.707-3.335-0.894c-1.217-1.01-2.437-3.124-3.802-2.441c1.161,0.503,0.276,1.43,0.995,2.396
		c-0.281-0.225-0.498-0.044-0.78-0.269l-0.225,0.281c0.182,0.217,0.745,0.667,0.502,1.148c-0.706,0.039-1.425-0.928-1.884-0.265
		c-1.481-1.435-1.228-4.323-2.652-5.251c-0.182-0.217,0.217-0.182,0.243-0.481c-0.68-0.26-1.243-0.711-1.481-1.435l0.442-0.463
		l-0.481-0.243l-0.225,0.281c-1.905-1.171-5.04-4.356-2.868-7.378l-0.039-0.706
		C1697.026,1220.94,1697.308,1221.166,1699.639,1222.072L1699.639,1222.072L1699.639,1222.072z"/>
        <path fill="#82B624" d="M1466.49,1265.216l-1.342-0.72C1465.63,1264.74,1466.57,1264.32,1466.49,1265.216L1466.49,1265.216
		L1466.49,1265.216z"/>
        <polygon fill="#82B624" points="1514.93,1265.74 1514.956,1265.441 1516.117,1265.944 	"/>
        <path fill="#82B624" d="M1519.005,1266.197l-0.044,0.498l-0.706,0.039l-0.039-0.706
		C1518.525,1265.954,1518.789,1266.379,1519.005,1266.197L1519.005,1266.197L1519.005,1266.197z"/>
        <path fill="#82B624" d="M1473.771,1268.062c-0.723,0.238-2.391-0.209-3.127-0.976
		C1471.805,1267.589,1473.009,1267.594,1473.771,1268.062L1473.771,1268.062L1473.771,1268.062z"/>
        <path fill="#82B624" d="M1524.042,1267.14c-0.225,0.281,0.455,0.542,0.039,0.706l-0.706,0.039
		C1522.812,1267.434,1523.843,1267.122,1524.042,1267.14L1524.042,1267.14L1524.042,1267.14z"/>
        <path fill="#82B624" d="M1527.35,1268.333l-0.017,0.199l-0.662-0.459C1526.969,1268.098,1527.395,1267.834,1527.35,1268.333
		L1527.35,1268.333L1527.35,1268.333z"/>
        <path fill="#82B624" d="M1529.36,1268.308c0.238,0.723-1.204-0.005-1.403-0.022L1529.36,1268.308L1529.36,1268.308
		L1529.36,1268.308z"/>
        <polygon fill="#82B624" points="1532.206,1269.059 1530.015,1268.867 1531.907,1269.032 	"/>
        <path fill="#82B624" d="M1489.608,1274.065c-0.225,0.281-0.442,0.463-0.741,0.437l-0.199-0.017
		C1488.603,1274.077,1489.327,1273.839,1489.608,1274.065L1489.608,1274.065L1489.608,1274.065z"/>
        <polygon fill="#82B624" points="1480.893,1339.253 1480.43,1338.811 1480.937,1338.755 	"/>
        <path fill="#82B624" d="M1517.604,1352.202c-0.017,0.199-0.243,0.481-0.442,0.463l-0.199-0.017
		C1516.88,1352.44,1517.105,1352.159,1517.604,1352.202L1517.604,1352.202L1517.604,1352.202z"/>
        <path fill="#82B624" d="M1514.428,1352.928c-0.741,0.437-1.672,0.757-2.651,0.471
		C1512.5,1353.161,1513.524,1352.949,1514.428,1352.928L1514.428,1352.928L1514.428,1352.928z"/>
        <path fill="#FFFFFF" d="M1605.547,1375.054l0.013-49.487l-34.331,0.008l0.031,22.589l6.926,0.004l0.018,7.831
		c-1.629,0.259-4.245,0.331-5.558,0.417c-7.931,0.009-9.784-1.759-9.769-21.433c-0.011-19.375,2.103-20.595,11.238-20.599
		c5.722-0.001,13.856,1.112,25.241,5.22l5.463-25.722c-14.69-4.196-23.846-5.098-30.573-5.084
		c-29.207-0.046-42.399,13.054-42.412,46.48c0.044,31.624,11.285,46.561,39.188,46.593
		C1581.66,1381.898,1593.738,1379.241,1605.547,1375.054L1605.547,1375.054z M1693.218,1355.119
		c-0.914,0.121-1.928,0.233-2.933,0.245c-2.209,0.008-2.763-0.543-3.711-2.332l-5.885-10.754
		c7.371-5.077,11.997-13.205,12.003-24.748c-0.041-20.18-13.149-27.551-31.917-27.587l-38.949,0.005v90.645l28.809,0.011
		l-0.031-30.619l3.214-0.02l7.653,16.931c4.716,10.35,9.773,14.507,22.022,14.474c2.508,0.019,6.762-0.412,9.803-0.749
		L1693.218,1355.119L1693.218,1355.119z M1663.24,1320.274c0.031,6.528-1.646,8.489-5.566,8.547l-7.125-0.021l0.026-16.36
		l7.532-0.044C1661.712,1312.511,1663.266,1314.253,1663.24,1320.274L1663.24,1320.274z M1742.24,1276.693
		c0.021-7.125-4.733-10.151-11.161-10.111c-6.926-0.004-11.233,3.334-11.228,10.16c-0.004,6.926,4.235,10.108,10.962,10.094
		C1738.444,1286.801,1742.271,1283.221,1742.24,1276.693L1742.24,1276.693z M1768.541,1276.685
		c0.021-7.125-4.534-10.134-11.161-10.111c-6.826,0.005-11.233,3.334-11.228,10.16c-0.004,6.926,4.335,10.116,11.161,10.111
		C1764.646,1286.784,1768.572,1283.213,1768.541,1276.685L1768.541,1276.685z M1780.581,1345.597l0.047-55.608l-28.51,0.015
		l0.022,57.119c-0.021,7.125-0.875,8.857-8.209,8.919c-7.532,0.044-8.181-1.72-8.151-8.944l-0.022-57.119l-29.814,0.002
		l-0.047,55.608c-0.038,31.416,16.809,36.203,37.288,36.188C1768.88,1381.815,1780.605,1371.699,1780.581,1345.597
		L1780.581,1345.597z M1871.073,1380.617v-90.645l-26.799-0.036l0.012,27.405c-0.024,3.712,0.208,7.948,0.583,11.695l-1.503-0.031
		c-1.003-4.605-2.33-8.937-3.788-11.775l-12.46-27.39l-30.312-0.042v90.645l26.699,0.027l-0.017-34.232
		c-0.003-3.413-0.199-8.048-0.475-11.786l1.503,0.031c0.747,4.081,2.265,8.53,3.689,11.766l15.571,34.288L1871.073,1380.617
		L1871.073,1380.617z M1951.478,1380.625l-1.252-24.703l-32.521-0.035l0.035-8.429l29.008,0.028l0.043-24.59l-29.008-0.028
		l0.009-8.13l31.516,0.047l-0.048-24.698l-61.13-0.028v90.645L1951.478,1380.625L1951.478,1380.625z"/>
</g>
</svg>
