<?xml version="1.0" encoding="utf-8"?>
<!-- Generator: Adobe Illustrator 22.0.0, SVG Export Plug-In . SVG Version: 6.00 Build 0)  -->
<svg xmlns:xlink="http://www.w3.org/1999/xlink" version="1.1" id="Layer_1" xmlns="http://www.w3.org/2000/svg" x="0px"
     y="0px"
     viewBox="0 0 672.7 351.2" style="enable-background:new 0 0 672.7 351.2;" xml:space="preserve">
<g>
	<polygon fill="#FFFFFF" points="334,0.3 333.2,0 334,0 	"/>
    <path fill="#FFFFFF" d="M335.4,0c0.2,0.5-0.7,0.2-1.2,0.2C334.4,0.3,334.9-0.2,335.4,0L335.4,0L335.4,0z"/>
    <path fill="#FFFFFF" d="M338.3,0.8c1.2,0,2.9,0.2,4.1-0.2c0-0.5-0.7,0-1-0.2c1.2,0.2,3.6-0.5,4.3,0.7c0.5,0.2,1,0.2,1.2,0
		c0.5-0.7,1.4,0.7,1.7-0.5c-0.3-0.5-0.5-0.2-0.7-0.2c2.4-0.5,5,2.6,7.7,0.7V0.6c1.6,0.2,3.3,0,4.8,0.5l-3.6,0.2
		c0.5,0.9,1.4-0.2,2.4,0.7c1.2-0.7,2.6,0.5,3.6-1.2L362.3,2c1.9-0.2,4.3,0.7,5.5-0.5h-0.2c0.7,1.2,3.1-0.2,4.6,0.5l5.5,0.5
		c-0.2,0.2-0.2,0.9,0.5,0.9l1-0.2c-0.2-0.2-0.5-0.5-0.7-0.5c1-0.7,2.9,0.5,4.3,0.5c0.2,0.2-1.5,0.5-0.3,1.2l1.4-1.2l0.5,1.2
		c0.7,0,2.4-0.2,2.6-1.2c0.7,0-0.2,0.7,0,1c0.3,0.9,1.5-0.7,1.2,0.7c0.7,0,1.9-1,2.6,0c1.9-0.7,3.6,0.7,5.5,0
		c2.1,1.2,4.8,0.2,7.2,0.9c0,0.5-0.7,0.5-0.7,1l0.3,0.2c1.7-1.9,6.2-0.2,8.4,0.5c0.2-0.2,0-0.7,0.5-0.7c0.5,0.5,1,1.7,2.1,1.7
		l0.3-0.5c0-0.5-0.5-0.5-1-0.5h-0.2h-0.4c0.5-0.9,1.2,0,1.9,0c-0.3,0.2,0.3,0.7,0.7,1c0-0.5,0.5-0.8,0.2-1.2
		c2.4,0.9,5.5,0.7,7.2,1.9c0.7,0.2,1.4,0.7,2.4,0.5l-0.5-0.5c1.5,0,2.9,0.2,3.6,1.2c0.7-0.2,1.7-0.5,1.7,0.7
		c0.3-1.4,3.1-0.2,4.6-0.5c0.7,1.7,2.4,1.2,4.1,1.7c0.3-0.2,0-0.5,0-0.7l1.2,1.2c0.7-0.2,0.3-0.5,0-1c1.2-0.2,1.9,0.7,3.1,0.5
		c-0.9,0.5-1.9-0.7-2.6,0.2c-0.5,0.5,0.5,0.2,0.5,0.7c1.2-1.2,2.4,0.9,2.9-0.7c0.3,1,1,0.2,1.4,0.2c5,1.9,11.3,1.9,16.3,3.8L461,17
		c1.4,0.7,3.6,0,3.6,1.7c1.2-0.3,1.4-2.2,3.1-0.7l1.2-0.2l-0.5,0.5c0.7,0.2,1.2,0.2,1.4-0.5l-0.2,0.2l1.2,0.5l-0.5,0.5h1.9l-1.2,0.7
		c0.5,3.4,4.6,1.9,6,2.9v0.2c0.9,0.3,1.7,0,2.9,0.5c-0.2-1-1.9-1.2-2.9-1.7h0.2l-0.5-0.7l-0.7,0.7l-4.1-0.7c0.7-0.2,1.7,0.2,2.2-0.5
		l-2.2-0.5c1,0,2.4-1.4,3.1,0c1.4-1.2,2.6,1.4,3.8,0.5c0.7,1.4,1.9,0.3,3.1,0.5c-0.7,1.2,0.7,1.7,1.7,1.7l-3.4,0.2
		c0.2,0.7,2.1,0,2.4,1.2h1c-1.7,0.5,0,2.1-0.7,2.9c0.7,1.7,1.5,0.3,2.6,1c1.7,1,3.6,1.2,5.5,1.7l-0.5-0.7c2.4,0,4.6,2.9,6.5,1.2
		c1.9-0.5,2.4,2.4,4.6,0.7c4.3,2.4,10.5,1.5,14.6,3.9l1.2-0.7c0.3,0.3,0.3,0.7,0.7,0.7c-0.5,0.2-1.2,0.5-1.7,1.2l0.9,0.7
		c-0.2,0.2-0.7-0.2-0.9,0.5c6.4,1.4,12.7,2.4,18.9,3.1v0.7c-12.7-1.7-25.4-4.3-37.8-5.8c-0.7,0.9-1.7-0.7-2.2,0.7
		c1.4,0.7,3.8-0.2,5.5,0.7l0.7,0.5c0.3-1.7,2.2-0.3,3.1,0.2c2.9,0,7.2,0.5,10.3,1.4c0.2,0.3,0,0.7,0.5,0.7l0.2-0.5
		c1.7,0.7,3.1,1.4,4.8,1.2l0.2-0.7c3.6,0.5,6.5,2.1,10,2.1c-1.7,0.7-4.5-0.7-6.7-0.7c-10.8-1.2-21.3-3.4-32.3-4.8
		c-1.2-1.2-3.4-0.2-5-0.9c-5-1-10.8-1.7-15.3-2.9c-2.4,0.7-5.3-1.2-8.1-1.5c-1.2-0.7-2.9,1.9-3.1-0.2c-0.7-0.2-2.2-1-2.9,0l-68.5-12
		c-37.6-6.2-81.5-5.5-119.6,1.9c-42.2,9.8-79.1,31.9-114,59.4c-5,4.8-10.8,9.8-16.8,13.7c-1.9,1.7-3.1,4.3-5.5,5.8h-0.5
		c9.3-15.8,27-29.2,40.5-41.7c4.3-3.6,9.8-6,13.2-10.1h-0.2c4.3-1.4,8.1-6.7,12.7-8.6c0.2,0.2,0.2,0.5,0.5,0.5
		c0.3-0.2,0.5-0.2,0.5-0.5l-0.2-0.3c2.6-1.9,6.5-3.4,9.3-5.3c4.1-3.4,8.9-3.6,12.7-7c3.1-1,5.5-3.1,9.1-3.3c0.5-1.2,1.9-1.7,3.1-1.9
		v0.2c7.4-3.4,15.8-6.5,23.7-9.1l0.7,0.5c1.7-2.4,4.8-0.7,7-2.9c1.4,1.2,4.1-0.3,5.8-0.7c-0.9-0.7-1.9,0.2-2.6,0.5
		c0.5-0.7,2.9-1.4,3.8-0.7c1.2-1.7,3.9-1,5.3-1.9c0.2-0.5,0,0.5,0.2,0.7c1.7-1.9,6-1.4,8.2-1.7l4.1-1c-0.5-0.7-2.6,0.5-4.1,0.5
		l10.5-1.9l0.5,0.5c0.5-1,3.1-1.2,4.3-1.2L300.7,3c0.5,0.5,1.2,0.2,1.9,0.2l-1.2-0.7c1.7,0.2,3.6-0.7,5,0.2l0.5-0.5l-1-0.5h1.9v0.5
		h1.4V1.5c2.4-1,2.4,0.9,5-0.5l-0.4,0.7c0.7,0,1.9,0.5,2.4-0.2l-1.7-0.2c0.5-0.5,1.4-0.2,2.1-0.2c-0.2,0.7,0.5,1,1,1
		c0.7-0.2,1.2-0.5,1.9-0.7c-0.3-1-0.7,0-1.2-0.2c1.4-1.9,1.2,2.2,2.4-0.5c0.3,0.5,0.3,1.2,1,1.2l0.2-0.5l-0.2-0.2h1.2
		c0,0-0.2,0.2,0,0.2c0,0.2,0,0.2,0.2,0.2l0.5-0.5l-0.2-0.2l3.8-0.7v1L331,1l-1.4-0.7h2.9L332,1c1.7,0.7,3.1-0.5,5,0l-0.2-0.7h1.4
		L338.3,0.8L338.3,0.8L338.3,0.8z"/>
    <path fill="#FFFFFF" d="M347.1,0c0.3,0.5-1.4,0.5-1.4,0H347.1L347.1,0L347.1,0z"/>
    <polygon fill="#FFFFFF" points="355,0.8 353.6,0 355,0.5 	"/>
    <path fill="#FFFFFF" d="M365.8,1v0.2l-1-0.5C365.1,0.8,365.6,0.8,365.8,1L365.8,1L365.8,1z"/>
    <polygon fill="#FFFFFF" points="311.2,1.7 311.2,1.7 310.5,2.2 310.5,2 	"/>
    <polygon fill="#FFFFFF" points="406.5,6.5 406.5,6.3 407.5,6.5 407.3,6.8 	"/>
    <path fill="#FFFFFF" d="M449.9,14.2c0,0.2-0.5,0.5-0.7,0.5C449.4,14.4,449.7,14.2,449.9,14.2L449.9,14.2L449.9,14.2z"/>
    <polygon fill="#FFFFFF" points="469.8,20.7 469.8,20.4 470.8,20.4 470.8,20.7 	"/>
    <path fill="#FFFFFF" d="M484.4,22.1l-0.2,0.5l0.2-1.2C484.4,21.4,484.9,21.8,484.4,22.1L484.4,22.1L484.4,22.1z"/>
    <polygon fill="#FFFFFF" points="486.3,21.4 486.3,21.1 487.1,21.4 487.1,21.6 	"/>
    <path fill="#FFFFFF" d="M488.2,21.6c0,0.2-0.5,0-0.9,0C487.5,21.6,488,21.1,488.2,21.6L488.2,21.6L488.2,21.6z"/>
    <path fill="#FFFFFF" d="M489.2,22.1c-0.7,0.5,0,1,0.2,1.4c-0.7-0.2-0.9,0.5-0.7,1c-0.5-0.5-1.7-0.5-1.4,0c0.2-0.2,0.2-1,0-1.2
		c-0.5-0.5-1.2-0.2-1.7-0.2c0.7-0.7-0.7-0.3-0.5-1C486.6,23.1,487.8,22.3,489.2,22.1L489.2,22.1L489.2,22.1z"/>
    <polygon fill="#FFFFFF" points="491.6,22.8 491.1,22.1 491.6,22.6 	"/>
    <path fill="#FFFFFF" d="M494,24c-0.5,0.7-2.9-0.5-2.2,1.4c1.2,0.7,1.7-0.2,2.6-0.5l-0.2-0.5c1.5,0.2,1.2-1.4,2.4,0l-0.7,0.7
		c0.2,0,0,0.2,0,0.5c-0.2-0.7-1.4-0.3-1.9,0.2c1.7,1.7,2.4-1.2,4.1-0.7c0.5-1.7,1.7,0.5,2.2-0.5l-0.3,0.2c0.5,0.9,1.4-0.2,2.2-0.2
		c-1,0.5,0,1.4,0,1.9c-2.6,0.2-4.1-2.6-5.5-0.3c1.7,1.4,0.7-1,2.4-0.5l-1.3,1l6.2,1.7l0.2-0.5l12.2,2.9l1.4-1.2
		c-1.7,1.7,0.9,1.2,1.4,1.9c3.8-0.5,8.2,1.7,11.8,1.9c2.6,0.5,6.2,0.9,9.1,1.2c6.7,1.7,13.2,4.1,20.9,3.8c-1.7-0.5-4.6,1.2-6,0
		c-2.2,0-6-0.5-7.9-0.5c-1-1.7-3.4,0.2-5-0.9c0.2,0,0-0.7,0.2-0.7c1,0,1.9,0.5,2.6,0.2c-1.2-0.7-3.3-1.9-4.5-0.5
		c-2.2,1.4-4.3-1.4-6.3-0.2l-0.7-0.7c-0.2,0.2-0.2,0.7-0.7,0.7c-0.7-2.9-3.8-1.4-5.5-1.2l0.2-0.2c-1,0-2.2-0.9-2.6,0.2h-0.5
		c-0.2-0.5,0.5-0.5,0.5-1c-0.5-0.5-1,0-1.7-0.2l0.5,0.9c-0.7-0.5-0.7-0.9-1.9-0.2h-0.5c0.2-0.5,0.7-0.7,0.5-1.4
		c-0.3,0.2-1.4-0.2-1.4,0.7v0.2l-0.7-1c-0.3,1-0.7,0-1.5,0c-1.7-0.5-3.6,0.7-5-0.7c1-0.2,1.7,0.7,2.6,0.5c-0.2-1-2.6-1.2-3.6-1
		c-1,1.2-2.2-1-3.8-1l-0.7,1l-0.7-0.7l0.5-0.4l0.2,0.4c1.4-1.2,3.6,0.5,5,0c-3.3-1.9-7.9-0.7-10.8-0.4l-0.3-1l-0.5,0.2
		c-0.4-0.9-2.4-0.7-3.6,0c0.2-0.7-2.2-0.7-2.9-1.4l-1.2,0.3c1-1.4,2.9,0,4.3-0.5v0.5l3.8,0.5c-4.6-2.4-11.3-2.2-16.8-3.8
		c1.4-0.7,4.1,1.4,6-0.2l-1.7-0.5l1.9-0.2l-0.5-1.2C490.9,24,493,23.5,494,24L494,24L494,24z"/>
    <path fill="#FFFFFF" d="M487.1,23.8c-0.5,0-1.4,0.7-1.4-0.2L487.1,23.8L487.1,23.8L487.1,23.8z"/>
    <path fill="#FFFFFF" d="M503.8,25.9c1.7,0.7,3.6,0.2,4.6,1.2c2.4-2.4,2.4,1.7,5,0.7c1-1,1.4,0,2.6-0.7c0.5,0.5,0,0.9-0.2,0.9
		c0.5,0.7,2.2-0.9,1.9,1c-1-0.2-1.9-0.5-3.1-0.5l1,0.7h-1.9l0.7-0.2c-0.2-0.5-0.5-1-1.2-0.7c-0.5,0-1.7,1.2-2.6,0.5l0.9-0.5
		c-0.5-1.2-2.1-0.5-3.1-1.2v0.5l1.2,0.7c-1.7-0.5-5.8,0-7.2-2.4l1.4-0.9L503.8,25.9L503.8,25.9L503.8,25.9z"/>
    <polygon fill="#FFFFFF" points="506,25.7 505.5,25.2 506,25.2 	"/>
    <path fill="#FFFFFF" d="M487.3,26.9c0.5-0.2,1.2,0.3,1.4-0.5l4.8,0.9c-0.5,0.3-1.2,0.7-1.9,1v-1.2c-2.2,0.5-1.9-0.7-3.4,0.5
		c-1.4-0.9-4.8-0.3-4.5-2.2C485.1,25.7,487.3,25.7,487.3,26.9L487.3,26.9L487.3,26.9z"/>
    <polygon fill="#FFFFFF" points="513.2,26.7 512,26.4 513.2,26.4 	"/>
    <path fill="#FFFFFF" d="M526.8,30.5v0.2c-1,1-2.2-0.7-3.6,0c-0.9-1.2-3.1-0.7-4.8-1.4l1.4-0.2v-0.7C522.3,29,524.4,30.2,526.8,30.5
		L526.8,30.5L526.8,30.5z"/>
    <path fill="#FFFFFF" d="M524.2,29.3h-1c0.2,0,0.5-0.7,1-0.5V29.3L524.2,29.3z"/>
    <path fill="#FFFFFF" d="M494.7,29.3v0.5l-0.5-0.7C494.5,29,494.5,29.3,494.7,29.3L494.7,29.3L494.7,29.3z"/>
    <path fill="#FFFFFF" d="M528.2,29.5c-0.7,1.2-2.4-0.5-2.9-0.5L528.2,29.5L528.2,29.5L528.2,29.5z"/>
    <path fill="#FFFFFF" d="M500.5,29.3c0,0.5-0.5,0.7-0.7,0.5C499.5,29.5,500.2,29.3,500.5,29.3L500.5,29.3L500.5,29.3z"/>
    <path fill="#FFFFFF" d="M530,31.2l-2.4-0.3v-0.5C528.5,30.2,529.2,31,530,31.2L530,31.2L530,31.2z"/>
    <polygon fill="#FFFFFF" points="510,31.7 509.3,31.4 510,31.4 	"/>
    <path fill="#FFFFFF" d="M527.5,31.9h-1c0.2-0.5,0.5-0.5,1-0.5V31.9L527.5,31.9z"/>
    <path fill="#FFFFFF" d="M531.9,31.4c-0.3,0.2-1.4,0.5-1,0H531.9L531.9,31.4L531.9,31.4z"/>
    <polygon fill="#FFFFFF" points="538.8,31.7 539,31.4 540.5,32.2 	"/>
    <path fill="#FFFFFF" d="M546,34.1c-0.5,0.7-1.4-0.7-1.9,0.5l0.7,0.5c-0.7,0.2-2.2-2.9-2.9-0.5l-0.7-0.2h0.2c-2.2-1.7-6.2-2.1-9.3-1.7
		c1.7-1.9,4.3-0.5,6.5,0C541.2,32.6,543.6,33.4,546,34.1L546,34.1L546,34.1z"/>
    <polygon fill="#FFFFFF" points="535.4,33.4 534.7,33.1 535.4,33.1 	"/>
    <path fill="#FFFFFF" d="M546.5,33.1c-0.3,0.2,0,0.2,0,0.2l-0.5-0.2H546.5L546.5,33.1L546.5,33.1z"/>
    <path fill="#FFFFFF" d="M548.6,33.4c-0.3,0.2-0.5,0.5-0.3,0.9c0.3,0.7,0.7-0.5,0.7,0.2c-0.7,0.5-2.4-0.5-3.1,0.5
		C546,34.1,547.9,33.6,548.6,33.4L548.6,33.4L548.6,33.4z"/>
    <path fill="#FFFFFF"
          d="M550.8,33.6c-0.3,0.5-1.2,0.5-1.4,0.2C549.6,33.1,550.3,33.4,550.8,33.6L550.8,33.6L550.8,33.6z"/>
    <path fill="#FFFFFF"
          d="M551.3,34.8c-0.2,0.7-1,0-1.7,0.3l0.2-0.5C550.3,34.8,550.8,34.3,551.3,34.8L551.3,34.8L551.3,34.8z"/>
    <path fill="#FFFFFF"
          d="M553.7,34.8c-0.7,0.5-0.9,0-1.7,0.3v-0.5C552.4,34.8,553.2,34.5,553.7,34.8L553.7,34.8L553.7,34.8z"/>
    <path fill="#FFFFFF"
          d="M540.2,38.1l-19.6-1.9h1l-2.6-1.4l0.3-0.2C526.1,36.2,533.5,37,540.2,38.1L540.2,38.1L540.2,38.1z"/>
    <path fill="#FFFFFF" d="M555.6,35l-1.2-0.3C554.6,34.5,555.3,34.3,555.6,35L555.6,35L555.6,35z"/>
    <polygon fill="#FFFFFF" points="529.5,35.2 530,34.8 531.1,35 	"/>
    <polygon fill="#FFFFFF" points="553.9,35.7 554.6,35.2 555.1,35.7 	"/>
    <path fill="#FFFFFF" d="M560.4,35.7c-1,2.1-3.1-0.2-4.6,0C557.2,35,559.2,37.4,560.4,35.7L560.4,35.7L560.4,35.7z"/>
    <path fill="#FFFFFF" d="M551.5,37c-0.5,0.2-0.2-0.7-0.2-1.2C552,36,551.5,36.7,551.5,37L551.5,37L551.5,37z"/>
    <polygon fill="#FFFFFF" points="552.7,36.7 552.7,36.2 553.9,36.5 	"/>
    <path fill="#FFFFFF" d="M562.8,37l-1.9-0.3C561.3,36,562.3,36,562.8,37L562.8,37L562.8,37z"/>
    <polygon fill="#FFFFFF" points="555.1,37 555.8,36.7 557,36.7 	"/>
    <polygon fill="#FFFFFF" points="521.3,37.4 521.3,37 522.5,37 	"/>
    <polygon fill="#FFFFFF" points="526.3,37.7 526.3,37.2 527.5,37.4 	"/>
    <path fill="#FFFFFF"
          d="M560.4,37.7c-0.3,0.5-1.2,0.2-1.5-0.3C559.4,37.4,560.1,37.2,560.4,37.7L560.4,37.7L560.4,37.7z"/>
    <polygon fill="#FFFFFF" points="562,38.1 561.3,37.7 562,37.7 	"/>
    <path fill="#FFFFFF" d="M531.9,38.9l-2.4-0.5C530.2,37,530.9,38.9,531.9,38.9L531.9,38.9L531.9,38.9z"/>
    <path fill="#FFFFFF" d="M543.1,38.4c-0.3,0-1.2,1.2-1.4,0C542.2,37.9,542.6,38.4,543.1,38.4L543.1,38.4L543.1,38.4z"/>
    <path fill="#FFFFFF" d="M537.4,39.6h-0.9l0.2-0.7C536.6,39.1,537.4,39.1,537.4,39.6L537.4,39.6L537.4,39.6z"/>
    <path fill="#FFFFFF"
          d="M520.1,39.1c-0.7,0.5-1.5,0.5-2.2,0.2C518.7,38.9,519.4,39.1,520.1,39.1L520.1,39.1L520.1,39.1z"/>
    <path fill="#FFFFFF" d="M563,39.8l-5.7-0.5c1.4-1.4,3.8,1,5.7,0V39.8L563,39.8z"/>
    <path fill="#FFFFFF" d="M540.5,40.1h-1l0.2-0.3l-0.9-0.7C539.5,39.1,540.5,39.3,540.5,40.1L540.5,40.1L540.5,40.1z"/>
    <path fill="#FFFFFF" d="M539,40.8c-0.2,0-1-0.5-1.2,0.2l5.8,1.7c-2.4,0-5.8-0.9-7.4-2.2L539,40.8L539,40.8L539,40.8z"/>
    <path fill="#FFFFFF" d="M546.2,43.2h-1.9v-0.5C544.8,42.9,545.7,42.7,546.2,43.2L546.2,43.2L546.2,43.2z"/>
    <path fill="#FFFFFF" d="M557.2,46.5l-5.3-0.4v-0.5C554.4,45.8,555.1,46.3,557.2,46.5L557.2,46.5L557.2,46.5z"/>
    <path fill="#FFFFFF" d="M577.1,48.5c-0.7,3.1,3.1,5.7-0.5,8.4c-2.9,1.2-3.9,4.1-6.7,5c0,1.7-1.4,2.2-2.9,2.4l-5.8-1.4
		c-2.9,2.6-6,5-8.9,7.4l0.3,0.5l-1.4,0.2c1,1.2-1.5,1.9-1.9,2.9c-1.7-0.3-0.5,1.9-2.2,1.9c0.2,0.2,0.5,0.2,1,0.2
		c-0.7,0.3-1.4,1.4-1.9,0.5c-1.2,0.7-0.5,2.6-2.6,1.7v0.5c-0.5-0.5-1.4,0-1.2,0.7c-0.2,0.5,0.5,0.5,0.5,0.7c0.3-0.5,1.2-0.5,1.7-0.5
		l-2.9,3.3l-0.2-1c-0.7-0.5-1.7,0.7-1.4,1.2c0.5,0.2,0.9,0,1.4,0l-1.7,1.7c-0.2-0.7-0.9-0.2-1.2,0l0.5,0.7l-2.4,0.3
		c1.5,1.2-0.7,2.6-1.7,2.9c-0.5,0.2-0.7,0.7-1,0.9l0.5,0.5h-0.3v0.5c-1.2,0-2.6,0.2-3.6,1.7l1.2,0.2l-1.4,0.5l0.7,0.5
		c-0.5,0-0.7,0.5-0.7,1c-0.5,0-1.9,0.2-2.7,0.7c0,0.2,0.3,0.5,0.3,0.7l-0.5,0.5c-0.2-0.7-1-0.5-1.5-0.5l1,1.2
		c-1,2.6-3.3-0.7-4.5,1.4c0.5,1,2.2-0.5,1.9,1.2c-1,0.2-1.2,1.9-2.4,1.2c-0.7-1.2-2.8,1.9-4.1-0.5c-0.7,0-2.2,1.2-1,1.4
		c-0.5-1-1.7,0.5-2.4,0.7l0.5,0.9l-2.2,1.4c1.4,0.5,1.9-1,2.9-1.4v-1.2c0.5,1.4,1.4-0.3,1.9-0.5c1.9,0.5,4.1-0.7,6-0.5l-0.7,0.2
		l0.5,0.5c-1,1.2-3.1-0.5-4.1,0.7c0.3,0.2,0.5,0.5,0.5,0.7c-0.5,0-1.4-0.5-1.7-1.2l-1.7,1.4l0.9,0.2l-1.2,0.5c0.3,0.7,1.4,0,2.2,0
		v0.2l1.7,0.3c-2.2,0.9-3.4,2.4-5.8,2.9l0.2-1.7c-1.2-0.2-1.4,1.9-2.6,1.5c-0.9,0.7-2.9,2.4-4.3,1.4c0.5-0.3,1.4,0,1.2-0.8
		c-0.7-0.7-1.4,0.3-2.4,0.5v0.5c-1.2-1.7-2.2,1-3.1,1.4c0.9,0.5,1.9-0.7,3.1-0.5l-2.4,1.9c0.5-0.5-0.5-1.2-1.2-1.2
		c-1,0-1.7,0.5-2.1-0.3l-2.7,1.5c1,1.2,1.7-0.5,2.9,0l-0.7,0.5l0.2,0.7l-0.5,0.2l-0.2-0.5c-1,0.5-2.1,1-3.1,1.7l1,1
		c-2.2-0.7-4.3,1.7-6.2,2.6l-0.2-0.2c-1,2.6-3.8,1.7-5,4.1c-1.5-0.5-2.2,1.7-4.1,1.7c-3.1,3.6-8.4,2.6-11.3,6.5c0.2,0,0.2,0.5,0,0.5
		c-2.6-0.5-4.8,3.1-7.9,3.3c0.7-1.9,3.4-1.4,4.3-2.9c2.2-1.2,5.3-3.1,7.7-4.8c0.5,0,1-0.5,1.4-1c-0.2-1-1.4-0.2-1.9,0.3l0.5-1
		c8.4-5.3,16-13.4,24.2-18.7l1.2-1.4c-3.9,1-6.5,5-10.3,6c2.4-2.1,5.3-3.3,6.2-6.2l0.5,0.2l22.3-21.5l0.3,0.7l1.4-1.9l0.5,0.5
		c-0.2-1.7,1.4-0.9,2.2-2.4c4.3-5.5,10.1-10.3,14.1-15.6h0.5c0,0.3-0.2,0.3-0.5,0.5c2.4,0,3.6-4.3,6.2-3.8c2.6-2.4,5.3-4.8,8.2-6.2
		l-1-0.7c0.2-1.2,1.4-0.2,1.9-0.7l-0.3-1c7-0.2,12-6,19.4-4.8C573.5,45.8,575.5,48.2,577.1,48.5L577.1,48.5L577.1,48.5z"/>
    <path fill="#FFFFFF" d="M516,105.7c-0.2,0-1,0.7-1,0H516L516,105.7L516,105.7z"/>
    <path fill="#FFFFFF" d="M509.6,111.9l0.2,0.2l-2.9,1.4l-0.5-0.7c-1.2,1-2.6,0.7-3.8,1.7c0.3,0.4,0.7,0.2,1,0.2
		c-2.2,0.7-3.3,1.9-5.5,2.6l1.7,0.2l-3.1,0.5c0,1-2.1,0-1.2,1.4c1.2,0.3,2.6-0.7,3.8-0.7c-3.8,1-7.7,2.6-11.3,4.8l0.7,0.7
		c-0.9,0.7-1.4-0.3-2.6,0.2c0.5,1.2-1.5,0.5-1.9,1.4c-0.9,0.5-1.9,1.7-3.4,1c3.8-0.7,6-4.8,10.1-5.5l7-5l-0.2,0.5
		c1.9-0.3,3.6-2.4,5-3.6l0.3,0.5l4.3-3.6c1.7,0.9,2.6-0.5,4-0.7c0-1.4,1.4,0,1.9-0.9C514.1,110.5,510.8,110.3,509.6,111.9
		L509.6,111.9L509.6,111.9z"/>
    <polygon fill="#FFFFFF" points="506.9,112.2 509.6,110.7 510,110.7 	"/>
    <path fill="#FFFFFF"
          d="M502.6,111.7c0.5,1.4-1,0.5-1.4,1.4l-0.2-0.5C501.9,112.9,501.7,111.9,502.6,111.7L502.6,111.7L502.6,111.7z"
    />
    <polygon fill="#FFFFFF" points="508.4,112.2 508.4,111.9 508.8,111.9 508.8,112.2 	"/>
    <polygon fill="#FFFFFF" points="501.4,114.1 500.7,113.6 501.4,113.6 	"/>
    <path fill="#FFFFFF"
          d="M504.5,115.3c0,0.5-1.2,1.4-2.1,1.7C502.4,115.8,503.6,115.3,504.5,115.3L504.5,115.3L504.5,115.3z"/>
    <polygon fill="#FFFFFF" points="494.7,117.2 494.2,117 494.7,117 	"/>
    <path fill="#FFFFFF"
          d="M502.1,117c-0.5,0.7-1.2,1.2-1.9,1.2C500.2,117.4,501.4,117.2,502.1,117L502.1,117L502.1,117z"/>
    <path fill="#FFFFFF"
          d="M496.4,121.3h-0.2c-0.5-0.5,0.7-0.5,0.9-1.2C497.3,120.6,496.9,121,496.4,121.3L496.4,121.3L496.4,121.3z"/>
    <path fill="#FFFFFF"
          d="M495.7,121.8c-3.4,1.4-5.8,4.1-9.6,5.3C489.7,125.8,491.8,122.5,495.7,121.8L495.7,121.8L495.7,121.8z"/>
    <polygon fill="#FFFFFF" points="485.1,127.8 484.9,127.5 485.1,127.5 	"/>
    <path fill="#FFFFFF"
          d="M479.6,128.7l0.5,0.5c-0.7,0.7-2.4,0-2.9,1.2c-0.2-2.2,2.2-1.7,3.6-2.9L479.6,128.7L479.6,128.7z"/>
    <path fill="#FFFFFF" d="M479.9,130.6l3.8-2.4C483.7,129.9,481,130.1,479.9,130.6L479.9,130.6L479.9,130.6z"/>
    <polygon fill="#FFFFFF" points="473.1,129.4 473.6,128.7 474.1,128.7 	"/>
    <path fill="#FFFFFF" d="M473.9,132.5c-2.1,0.2-3.6,3.3-5.5,2.4v-0.7h0.5l-0.2,0.3c0.5,0.2,1.7,0,1.4-0.7c0.7,0.5,1.9-1,2.4-1.2H472
		c0.2-0.7,1.5-0.5,1.9-0.7l2.7-1.9C477,131.8,473.9,130.4,473.9,132.5L473.9,132.5L473.9,132.5z"/>
    <path fill="#FFFFFF"
          d="M479.4,131.3L479.4,131.3l-0.5-0.5C479.2,130.9,479.4,131.1,479.4,131.3L479.4,131.3L479.4,131.3z"/>
    <path fill="#FFFFFF" d="M478.7,131.8c0.2,0.5-0.5,0.2-1,0.2l0.7-0.7L478.7,131.8L478.7,131.8L478.7,131.8z"/>
    <path fill="#FFFFFF" d="M477.2,132.5c0,0.2-0.2,0.5-0.2,0.5v-0.5H477.2L477.2,132.5L477.2,132.5z"/>
    <path fill="#FFFFFF" d="M476.3,133l-0.2,0.5l-0.2-0.5C475.8,133,476.3,132.8,476.3,133L476.3,133L476.3,133z"/>
    <polygon fill="#FFFFFF" points="461.9,135.4 462.1,134.5 462.8,134.5 	"/>
    <path fill="#FFFFFF" d="M468.4,135.7v0.5c-1.4-0.7-3.1,1.5-4.3,1.7l1.2-1.4c0-0.3-0.5,0-0.2-0.3h1.4l-0.7-0.5h0.2
		C466.2,137.1,467.6,134.7,468.4,135.7L468.4,135.7L468.4,135.7z"/>
    <polygon fill="#FFFFFF" points="464.1,136.9 464.3,136.4 464.5,136.4 	"/>
    <polygon fill="#FFFFFF" points="461.4,139 463.6,138.1 461.4,139.5 	"/>
    <path fill="#FFFFFF"
          d="M460.7,140.2c-0.5,0-0.9,0.2-1.4,0.2l1.2-1.2C460.7,139.5,460.7,140,460.7,140.2L460.7,140.2L460.7,140.2z"/>
    <path fill="#FFFFFF" d="M458.8,140.2h-0.5l0.2-0.5C459,139.5,458.8,140,458.8,140.2L458.8,140.2L458.8,140.2z"/>
    <path fill="#FFFFFF" d="M457.1,141.2h-0.5l0.3-0.7C457.1,140.4,457.1,140.9,457.1,141.2L457.1,141.2L457.1,141.2z"/>
    <polygon fill="#FFFFFF" points="339.2,50.1 339.5,49.9 340.2,50.1 	"/>
    <path fill="#FFFFFF"
          d="M322.4,53c-0.5,0.5-2.4-0.5-3.3-1.2l-0.3-0.7C320.1,51.1,321.5,51.8,322.4,53L322.4,53L322.4,53z"/>
    <polygon fill="#FFFFFF" points="342.6,51.8 342.8,51.6 345.4,53 345.2,53.2 	"/>
    <path fill="#FFFFFF" d="M485.4,57.3c0,0.5-1,0.2-1.2,0.2C483.7,57.1,484.9,56.8,485.4,57.3L485.4,57.3L485.4,57.3z"/>
    <path fill="#FFFFFF" d="M476.3,58.3c0,0.2-0.2,0.2-0.5,0.5l-0.2-0.3l0.2-0.7l1.7,0.5H476.3L476.3,58.3L476.3,58.3z"/>
    <path fill="#FFFFFF" d="M474.1,58.3l-0.2,0.2l-0.5-0.5C473.9,57.8,473.9,58,474.1,58.3L474.1,58.3L474.1,58.3z"/>
    <polygon fill="#FFFFFF" points="478.7,58.3 477.7,58 478.4,58 	"/>
    <polygon fill="#FFFFFF" points="471.5,58.3 471.5,58 472.7,58.3 472.7,58.5 	"/>
    <path fill="#FFFFFF" d="M469.1,58.5c0,0.7-1.2,0.7-1.9,0.7C467.6,58.5,468.4,58.3,469.1,58.5L469.1,58.5L469.1,58.5z"/>
    <path fill="#FFFFFF" d="M466.7,59c-0.2,0.7-0.9,0-1.2-0.2C466,58.8,466.4,58.8,466.7,59L466.7,59L466.7,59z"/>
    <path fill="#FFFFFF" d="M454.2,59.7h-0.7c-0.2-0.5,0.2-0.5,0.7-0.5V59.7L454.2,59.7z"/>
    <path fill="#FFFFFF" d="M462.1,59.5v0.2l-1-0.5C461.7,59.2,461.9,59.7,462.1,59.5L462.1,59.5L462.1,59.5z"/>
    <path fill="#FFFFFF" d="M453,59.7l-2.6,0.7C450.9,60,452.1,59,453,59.7L453,59.7L453,59.7z"/>
    <path fill="#FFFFFF"
          d="M458.8,59.7c0,0,0,0.3-0.2,0.3h-0.2v-0.5C458.5,59.5,458.8,59.5,458.8,59.7L458.8,59.7L458.8,59.7z"/>
    <polygon fill="#FFFFFF" points="460.9,59.7 459.7,59.5 460.7,59.5 	"/>
    <path fill="#FFFFFF" d="M448.5,60.7h-0.7c0-0.2,0.3-0.7,0.7-0.5V60.7L448.5,60.7z"/>
    <path fill="#FFFFFF" d="M448,61.6c-0.3-1.4-1.9-0.2-3.1-0.7C445.1,60.7,448.2,60,448,61.6L448,61.6L448,61.6z"/>
    <path fill="#FFFFFF" d="M455,60.4c-1.2,1.4-3.8,0.5-5.5,1C450.4,60,453.3,61.1,455,60.4L455,60.4L455,60.4z"/>
    <polygon fill="#FFFFFF" points="436.7,61.9 442.2,60.9 444.2,60.9 	"/>
    <polygon fill="#FFFFFF" points="435.5,62.3 435.5,61.6 436.3,61.6 	"/>
    <path fill="#FFFFFF" d="M444.7,61.9c-0.2,0.2-1.7,1-2.4,0.2c-3.1,1.9-7.2,0.5-10.5,1.9C435.5,62.3,440.1,62.3,444.7,61.9L444.7,61.9
		L444.7,61.9z"/>
    <polygon fill="#FFFFFF" points="430,62.8 432.4,62.3 433.9,62.3 	"/>
    <path fill="#FFFFFF" d="M421.2,63.1c0,0.5-1.4,0.5-1.2,0H421.2L421.2,63.1L421.2,63.1z"/>
    <path fill="#FFFFFF"
          d="M430.7,63.5c-0.5,0.5-1.4,0.5-1.9,0.7v-0.7C429.3,63.5,430.3,63.5,430.7,63.5L430.7,63.5L430.7,63.5z"/>
    <path fill="#FFFFFF" d="M427.9,64.3l-4.1,1C424.5,65,426.2,63.5,427.9,64.3L427.9,64.3L427.9,64.3z"/>
    <path fill="#FFFFFF" d="M445.6,65.2c0,0.4-0.2,0.4-0.5,0.7l-0.2-0.7H445.6L445.6,65.2L445.6,65.2z"/>
    <path fill="#FFFFFF" d="M438.6,65.7c-0.5,0-1,0.5-1.7,0.3C437.2,65.2,438.2,65.5,438.6,65.7L438.6,65.7L438.6,65.7z"/>
    <path fill="#FFFFFF" d="M441.5,65.9c0,0.2-1.2,0.5-1.9,0.5C440.1,65.9,440.8,65.7,441.5,65.9L441.5,65.9L441.5,65.9z"/>
    <path fill="#FFFFFF" d="M443,65.9c0,0.2-0.5,0.2-0.9,0.2C442,65.5,442.7,65.9,443,65.9L443,65.9L443,65.9z"/>
    <path fill="#FFFFFF"
          d="M445.6,66.4c-0.9,0-1.9,0.5-2.9,0.3C443.5,66.2,444.7,66.4,445.6,66.4L445.6,66.4L445.6,66.4z"/>
    <path fill="#FFFFFF"
          d="M428.8,67.1c-0.5,0.5-1.7,0.5-2.4,0.7C426.7,66.9,428.1,67.4,428.8,67.1L428.8,67.1L428.8,67.1z"/>
    <path fill="#FFFFFF"
          d="M399.1,68.3c-4.5,2.4-10.3,1.9-15.3,3.4C388.1,69.3,394.1,70,399.1,68.3L399.1,68.3L399.1,68.3z"/>
    <polygon fill="#FFFFFF" points="408.5,69.3 407.3,68.8 408.2,69.3 	"/>
    <path fill="#FFFFFF" d="M380.9,72.2c-0.5,0.7-1.2,0.5-1.7,0.5l1.2-1.2L380.9,72.2L380.9,72.2L380.9,72.2z"/>
    <path fill="#FFFFFF" d="M371.8,73.8c1.4-1.2,4.5-1.2,6.5-1.4L371.8,73.8L371.8,73.8L371.8,73.8z"/>
    <path fill="#FFFFFF" d="M369.9,73.8c0,0.7-1,0.5-1.4,0.5C368.7,73.8,369.4,73.8,369.9,73.8L369.9,73.8L369.9,73.8z"/>
    <polygon fill="#FFFFFF" points="344.7,77.2 345,76.7 346,76.9 	"/>
    <polygon fill="#FFFFFF" points="346.4,78.2 346.4,77.7 347.4,77.7 	"/>
    <polygon fill="#FFFFFF" points="340.4,78.2 340.4,77.7 341.4,77.9 	"/>
    <path fill="#FFFFFF" d="M346,78.2l-0.8,0.2l-0.2-0.5C345.4,77.9,345.7,77.7,346,78.2L346,78.2L346,78.2z"/>
    <path fill="#FFFFFF" d="M344.5,78.4l-1.9,0.5C343,78.9,343.5,77.9,344.5,78.4L344.5,78.4L344.5,78.4z"/>
    <path fill="#FFFFFF" d="M340.7,79.6h0.7c-0.5,0.5-1.2,1-2.1,0.7L340.7,79.6c-0.2-0.2-0.5,0-0.5,0c0.2-0.7,1.4-0.2,1.9-1L340.7,79.6
		L340.7,79.6z"/>
    <path fill="#FFFFFF" d="M337.8,79.1c0.2,0.2,0.2,0.5,0.2,1l0.9,0.2c-1.4,1.7-2.4-1-3.4,1c0-0.7-0.2-1.7,0.7-1.9l-3.6,0.5
		c1.2-0.9,2.9-0.9,4.1-0.2C336.8,78.9,337.5,79.4,337.8,79.1L337.8,79.1L337.8,79.1z"/>
    <path fill="#FFFFFF" d="M347.6,78.9c0.2,0.7-0.5,0.5-0.7,0.7v-0.7H347.6L347.6,78.9L347.6,78.9z"/>
    <path fill="#FFFFFF" d="M210.3,79.6h-1.9v-0.5C209.1,78.9,209.6,79.4,210.3,79.6L210.3,79.6L210.3,79.6z"/>
    <path fill="#FFFFFF" d="M341.8,80.8c0.7-0.7,2.9-1.4,4.5-1.2L341.8,80.8L341.8,80.8L341.8,80.8z"/>
    <polygon fill="#FFFFFF" points="330.4,80.1 331.1,79.8 331.8,79.8 	"/>
    <path fill="#FFFFFF" d="M333.5,81v1.2l4.6-1c-1.9,0.7-4.3,1.4-6.5,2.1l1.7-1.2c-0.2-0.3-0.5,0-0.7-0.3c0,0,0.7-0.5,0.7-0.7l-4.8,1.2
		C330.1,82,332,79.1,333.5,81L333.5,81L333.5,81z"/>
    <path fill="#FFFFFF" d="M330.4,80.8c-0.2,0.7-2.2,0.5-3.1,1C328,79.8,329.6,81.7,330.4,80.8L330.4,80.8L330.4,80.8z"/>
    <polygon fill="#FFFFFF" points="326.7,80.8 327,81 326.5,81.5 326.5,81.3 	"/>
    <path fill="#FFFFFF" d="M336.1,83.9c2.9-1,6.5-2.2,9.8-2.2L336.1,83.9L336.1,83.9L336.1,83.9z"/>
    <polygon fill="#FFFFFF" points="339.2,84.4 349.3,82 349.8,82 	"/>
    <polygon fill="#FFFFFF" points="324.1,82 324.4,82.2 323.7,82.5 323.4,82.5 	"/>
    <path fill="#FFFFFF" d="M320.1,82.7l0.4-0.2L320.1,82.7z"/>
    <path fill="#FFFFFF" d="M315.8,84.1h-0.2l1.2-0.9C316.9,83.9,316.2,84.1,315.8,84.1L315.8,84.1L315.8,84.1z"/>
    <path fill="#FFFFFF" d="M226.4,84.4l-2.1-1C225.2,83.4,226.1,83.7,226.4,84.4L226.4,84.4L226.4,84.4z"/>
    <polygon fill="#FFFFFF" points="349.5,84.6 351.9,83.9 351,84.4 	"/>
    <polygon fill="#FFFFFF" points="227.6,84.4 226.8,83.9 227.6,83.9 	"/>
    <polygon fill="#FFFFFF" points="330.4,85.1 330.6,85.1 329.9,85.6 329.6,85.6 	"/>
    <path fill="#FFFFFF"
          d="M353.8,85.1c-0.7,0.5-1.2,1-2.2,0.8C352.2,85.6,353.1,85.1,353.8,85.1L353.8,85.1L353.8,85.1z"/>
    <polygon fill="#FFFFFF" points="334.9,85.8 335.1,85.6 335.4,85.6 	"/>
    <path fill="#FFFFFF" d="M351.2,85.6c-2.9,1.7-7.4,1.7-11,2.9V89c-2.9,0.5-7.2,1.4-8.9,1.7C337.5,88.9,344.5,86.5,351.2,85.6
		L351.2,85.6L351.2,85.6z"/>
    <path fill="#FFFFFF" d="M318.4,87.3h-0.7C317.7,86.8,318.1,87,318.4,87.3L318.4,87.3L318.4,87.3z"/>
    <polygon fill="#FFFFFF" points="327.2,89.9 333.7,87.5 334.4,88 	"/>
    <path fill="#FFFFFF"
          d="M341.8,89.4c-1.2,0.2-0.7,1.4-2.4,1.2C339.9,89.4,340.9,89.9,341.8,89.4L341.8,89.4L341.8,89.4z"/>
    <path fill="#FFFFFF" d="M333.5,92.5l0.2-0.7l-1-0.2c1.9-0.5,3.8-0.2,5.8-0.9L333.5,92.5L333.5,92.5z"/>
    <polygon fill="#FFFFFF" points="251,91.3 250.1,90.9 250.8,90.9 	"/>
    <polygon fill="#FFFFFF" points="296.1,92 296.3,92 296.3,91.8 296.1,91.8 	"/>
    <path fill="#FFFFFF" d="M333.2,92.3c-0.2,0.2-0.9,0.2-1.4,0.5C332,92.3,332.5,92,333.2,92.3L333.2,92.3L333.2,92.3z"/>
    <polygon fill="#FFFFFF" points="321,94.2 321,94 322.4,94.2 	"/>
    <path fill="#FFFFFF" d="M316.7,95.9c0.5-0.9,1.9-0.3,2.4-1.4l0.5,0.5L316.7,95.9L316.7,95.9L316.7,95.9z"/>
    <path fill="#FFFFFF"
          d="M246.7,103.5c5.5-1.9,8.9-3.8,14.4-5C257,100.4,251.8,102.4,246.7,103.5L246.7,103.5L246.7,103.5z"/>
    <path fill="#FFFFFF"
          d="M222.5,110.3c-0.5,0.5-1.4,0.5-1.9,0.7C220.8,110.5,221.8,110.5,222.5,110.3L222.5,110.3L222.5,110.3z"/>
    <path fill="#FFFFFF" d="M219.9,111c-0.5,0.2-1,0.9-1.4,0.7C218.5,111.4,219.4,110.7,219.9,111L219.9,111L219.9,111z"/>
    <path fill="#FFFFFF" d="M261.8,114.1c-1-0.7-1,0.2-1.7,0c-1,0.9-2.6,1.7-4.8,1.7c-0.5,0-1.2-0.3-1-1c2.6-0.5,4.8-1.7,7.7-2.6
		C263,112.4,261.8,113.6,261.8,114.1L261.8,114.1L261.8,114.1z"/>
    <polygon fill="#FFFFFF" points="233.6,113.1 233.6,113.4 233.1,113.6 232.8,113.4 	"/>
    <path fill="#FFFFFF" d="M204.8,116.5h-0.2l0.7-0.9C205.3,115.8,205.5,116.5,204.8,116.5L204.8,116.5L204.8,116.5z"/>
    <polygon fill="#FFFFFF" points="202.7,117.2 203.1,116.7 203.4,116.7 	"/>
    <path fill="#FFFFFF" d="M202.2,117c0.2,0.5-0.5,0.5-0.7,0.7C201.4,117.2,201.7,117,202.2,117L202.2,117L202.2,117z"/>
    <path fill="#FFFFFF"
          d="M199.8,118.2c0,0.2-1,0.2-0.7-0.2C199.3,117.9,199.8,117.7,199.8,118.2L199.8,118.2L199.8,118.2z"/>
    <path fill="#FFFFFF"
          d="M197.6,118.9c0,0.5-0.5,0.3-1,0.3C196.7,118.7,197.4,118.9,197.6,118.9L197.6,118.9L197.6,118.9z"/>
    <polygon fill="#FFFFFF" points="195.5,119.6 195.5,119.6 192.6,120.8 	"/>
    <path fill="#FFFFFF"
          d="M243.4,120.1c-0.2,0-0.5,0.5-0.7,0.2v-0.5C242.9,119.9,243.1,119.6,243.4,120.1L243.4,120.1L243.4,120.1z"/>
    <polygon fill="#FFFFFF" points="241,121.3 240.7,120.6 241.5,120.6 	"/>
    <path fill="#FFFFFF"
          d="M190.7,121.3c0.5,0.5-0.5,0.2-1,0.5C189.5,121.3,190.4,121.3,190.7,121.3L190.7,121.3L190.7,121.3z"/>
    <path fill="#FFFFFF"
          d="M188.5,122.3c0,0.2-0.2,0.2-0.5,0.2l0.5-0.7C188.7,121.8,188.7,122.3,188.5,122.3L188.5,122.3L188.5,122.3z"/>
    <path fill="#FFFFFF" d="M187.3,122.5c0,0.5-1.4,0.7-1.2-0.2L187.3,122.5L187.3,122.5L187.3,122.5z"/>
    <polygon fill="#FFFFFF" points="185.2,123.2 184.2,122.7 184.9,122.7 	"/>
    <polygon fill="#FFFFFF" points="185.6,123.2 185.4,123 186.1,123 	"/>
    <path fill="#FFFFFF"
          d="M180.9,124.6c0,0.5-0.7,0.7-1.4,0.5C179.6,124.9,180.4,124.9,180.9,124.6L180.9,124.6L180.9,124.6z"/>
    <path fill="#FFFFFF" d="M176.8,126.3c0.5,0.2-0.2,0.2-0.2,0.5l-0.2-0.5H176.8L176.8,126.3L176.8,126.3z"/>
    <polygon fill="#FFFFFF" points="173.2,127.5 173.2,127 174.4,127.3 	"/>
    <path fill="#FFFFFF"
          d="M168.9,128.9c0.2,0.5-0.2,0.2-0.5,0.7C167.9,129.4,168.6,128.7,168.9,128.9L168.9,128.9L168.9,128.9z"/>
    <path fill="#FFFFFF" d="M166.2,130.6h-0.5l0.3-0.5C166.2,130.4,166.2,130.6,166.2,130.6L166.2,130.6L166.2,130.6z"/>
    <polygon fill="#FFFFFF" points="164.3,131.3 164.3,130.6 164.8,130.6 	"/>
    <polygon fill="#FFFFFF" points="160.7,132.5 159.8,131.8 160.2,132.1 	"/>
    <path fill="#FFFFFF" d="M157.8,133.7h-0.7l0.2-0.7C157.6,133,157.6,133.5,157.8,133.7L157.8,133.7L157.8,133.7z"/>
    <path fill="#FFFFFF" d="M373.7,137.4v-1.9C374,135.7,374,136.6,373.7,137.4L373.7,137.4L373.7,137.4z"/>
    <path fill="#FFFFFF" d="M143.2,139.5h-0.5c0-0.3,0.3-0.5,0.5-0.3V139.5L143.2,139.5z"/>
    <path fill="#FFFFFF" d="M330.4,150.5v0.5l-0.7-1C330.1,149.8,330.4,150.3,330.4,150.5L330.4,150.5L330.4,150.5z"/>
    <path fill="#FFFFFF" d="M338,155v0.5c-0.2-0.2-1.2,0-0.7-0.7C337.5,154.8,337.8,154.8,338,155L338,155L338,155z"/>
    <path fill="#FFFFFF" d="M252.7,157.2l-1.9-1.4C251.5,156.2,252.5,156.2,252.7,157.2L252.7,157.2L252.7,157.2z"/>
    <polygon fill="#FFFFFF" points="338.7,156.5 338.3,155.8 338.5,155.8 	"/>
    <path fill="#FFFFFF" d="M339,159.9l-0.7-1.2C339,158.6,338.7,159.4,339,159.9L339,159.9L339,159.9z"/>
    <polygon fill="#FFFFFF" points="260.2,162.7 260.4,162.7 265.6,166.8 265.6,167.1 	"/>
    <path fill="#FFFFFF"
          d="M198.3,164.9v0.5c-0.2-0.3-1.2-0.3-0.5-0.7C197.8,164.9,198.1,164.9,198.3,164.9L198.3,164.9L198.3,164.9z"/>
    <polygon fill="#FFFFFF" points="179.9,165.1 178.7,164.9 179.6,165.1 	"/>
    <path fill="#FFFFFF"
          d="M187.8,165.1c-0.5,0.7-1.7,0.3-2.1,0C185.6,164.9,187.1,164.7,187.8,165.1L187.8,165.1L187.8,165.1z"/>
    <polygon fill="#FFFFFF" points="181.1,165.4 180.6,165.1 181.1,165.1 	"/>
    <path fill="#FFFFFF" d="M184.4,165.1l-1.4,0.3v-0.3C183.5,164.9,184,165.4,184.4,165.1L184.4,165.1L184.4,165.1z"/>
    <path fill="#FFFFFF"
          d="M175.1,165.1c-0.7,0.3-1.9,1-2.6,0.7C172.7,165.1,174.4,165.8,175.1,165.1L175.1,165.1L175.1,165.1z"/>
    <path fill="#FFFFFF" d="M377.1,166.3h-0.3l-0.5-0.5C376.6,165.6,376.8,166.1,377.1,166.3L377.1,166.3L377.1,166.3z"/>
    <polygon fill="#FFFFFF" points="383.3,166.3 382.3,166.1 383.1,166.1 	"/>
    <polygon fill="#FFFFFF" points="268.3,168.7 266.1,167.1 268.3,168.2 	"/>
    <path fill="#FFFFFF" d="M413.3,169.9l-0.7,0.7l0.2,0.2l0.5-0.2c2.6,1.7,7.4,3.1,8.6,7c0.5,1.7,1.7,3.3,3.1,4.5c-1.2,1,1.7,1,0.7,2.2
		l-2.2-0.7v0.5c-0.9-0.9-2.4-0.7-3.3-0.9c-1.2-1-2.4-3.1-3.8-2.4c1.2,0.5,0.2,1.4,1,2.4c-0.2-0.3-0.5,0-0.7-0.3l-0.2,0.3
		c0.2,0.2,0.7,0.7,0.5,1.2c-0.7,0-1.4-1-1.9-0.2c-1.5-1.4-1.2-4.3-2.6-5.3c-0.2-0.2,0.2-0.2,0.2-0.5c-0.7-0.2-1.2-0.7-1.4-1.4
		l0.5-0.5l-0.5-0.2l-0.3,0.2c-1.9-1.2-5-4.3-2.9-7.4v-0.7C410.6,168.7,410.9,169,413.3,169.9L413.3,169.9L413.3,169.9z"/>
    <path fill="#FFFFFF" d="M180.1,213.1l-1.4-0.7C179.2,212.6,180.1,212.1,180.1,213.1L180.1,213.1L180.1,213.1z"/>
    <polygon fill="#FFFFFF" points="228.5,213.5 228.5,213.3 229.7,213.8 	"/>
    <path fill="#FFFFFF" d="M232.6,214v0.5h-0.7v-0.7C232.1,213.8,232.4,214.3,232.6,214L232.6,214L232.6,214z"/>
    <path fill="#FFFFFF"
          d="M187.3,215.9c-0.7,0.2-2.4-0.2-3.1-1C185.4,215.5,186.6,215.5,187.3,215.9L187.3,215.9L187.3,215.9z"/>
    <path fill="#FFFFFF"
          d="M237.6,215c-0.2,0.3,0.5,0.5,0,0.7h-0.7C236.4,215.2,237.4,215,237.6,215L237.6,215L237.6,215z"/>
    <path fill="#FFFFFF" d="M241,216.2v0.2l-0.7-0.5C240.5,215.9,241,215.7,241,216.2L241,216.2L241,216.2z"/>
    <path fill="#FFFFFF" d="M242.9,216.2c0.3,0.7-1.2,0-1.4,0H242.9L242.9,216.2L242.9,216.2z"/>
    <polygon fill="#FFFFFF" points="245.8,216.9 243.6,216.6 245.5,216.9 	"/>
    <path fill="#FFFFFF"
          d="M203.1,221.9c-0.2,0.2-0.5,0.5-0.7,0.5h-0.2C202.2,221.9,202.9,221.7,203.1,221.9L203.1,221.9L203.1,221.9z"/>
    <path fill="#FFFFFF"
          d="M308.8,271.3c-0.7,0.2-1.4,0.7-1.9,0.7C307.4,271.5,307.8,271.1,308.8,271.3L308.8,271.3L308.8,271.3z"/>
    <path fill="#FFFFFF" d="M304,271.8c0,0.2-0.5,0.2-0.7,0.2C303.5,271.8,303.8,271.5,304,271.8L304,271.8L304,271.8z"/>
    <path fill="#FFFFFF"
          d="M305.7,276.6l-0.2,0.5l-0.2-0.5C305.4,276.6,305.7,276.6,305.7,276.6L305.7,276.6L305.7,276.6z"/>
    <polygon fill="#FFFFFF" points="300.4,278 300.2,277.5 300.9,277.5 	"/>
    <path fill="#FFFFFF" d="M297,278.7c-0.2,0.5-1,0.2-1.4,0.5C295.8,278.7,296.3,278.7,297,278.7L297,278.7L297,278.7z"/>
    <path fill="#FFFFFF"
          d="M292.7,279.6c-0.3,0.7-1.2,0.5-1.9,0.7C291.3,280.1,292,279.9,292.7,279.6L292.7,279.6L292.7,279.6z"/>
    <polygon fill="#FFFFFF" points="299.4,280.4 298.9,280.1 299.7,280.1 	"/>
    <path fill="#FFFFFF" d="M298.5,280.4c-0.5,0.7-1,0.2-1.7,0H298.5L298.5,280.4L298.5,280.4z"/>
    <path fill="#FFFFFF"
          d="M296.3,280.9c-0.5,1-2.6,1.2-3.9,1.9C293,281.3,295.4,281.8,296.3,280.9L296.3,280.9L296.3,280.9z"/>
    <path fill="#FFFFFF" d="M291.8,282.8h-0.5c-0.5-0.3,0.5-0.7,0.7-0.5L291.8,282.8L291.8,282.8z"/>
    <path fill="#FFFFFF"
          d="M290.3,282.8c0,0.2-0.5,0.5-0.7,0.7C289.4,283.5,289.6,282.8,290.3,282.8L290.3,282.8L290.3,282.8z"/>
    <polygon fill="#FFFFFF" points="194.5,287.1 194,286.6 194.5,286.6 	"/>
    <path fill="#FFFFFF"
          d="M231.2,300c0,0.2-0.2,0.5-0.5,0.5h-0.2C230.4,300.3,230.7,300,231.2,300L231.2,300L231.2,300z"/>
    <path fill="#FFFFFF" d="M228,300.8c-0.7,0.5-1.7,0.7-2.6,0.5C226.1,301,227.1,300.8,228,300.8L228,300.8L228,300.8z"/>
    <path fill="#FFFFFF" d="M301.9,87.6l-5.6,1.3C299.4,89.2,301.1,88.7,301.9,87.6L301.9,87.6z M282.8,105.8c-0.5,0.1-1.1,0.2-1.8,0.4
		C281.6,106,282.5,106.1,282.8,105.8L282.8,105.8z M229,114.6L229,114.6h-0.2C228.9,114.6,228.9,114.6,229,114.6L229,114.6z
		 M228.1,114.7c-0.3,0-0.5,0.1-0.8,0.2c0.4,0,0.9-0.1,1.3-0.2C228.4,114.7,228.3,114.7,228.1,114.7L228.1,114.7z M229.2,114.5
		c-0.1,0-0.1,0.1-0.2,0.1c0.4,0,0.8-0.1,1.2,0C229.8,114.4,229.5,114.4,229.2,114.5L229.2,114.5z M318.8,83.9V84
		c0.5-0.2,1.1-0.3,1.6-0.5L318.8,83.9L318.8,83.9z M325.3,89.9l-1.2,0.4v0.4L325.3,89.9L325.3,89.9z M320.4,83.5l6.8-1.6
		C324.4,82.5,322.3,83,320.4,83.5L320.4,83.5z M282.4,274.9L282.4,274.9c0.1,0,0.2,0,0.2,0H282.4L282.4,274.9z M257.7,107.1
		L257.7,107.1L257.7,107.1L257.7,107.1z M441.8,108.1c0.3,0.2,0.3-0.2,0.7-0.2c-0.7-4.6-0.7-9.8-1.9-14.6
		c-4.1-8.6-10.5-16.5-16.5-24.2l18.2-2.4c-5.7-0.5-12.5,1.2-19.2,2.4c-1-0.5-0.2-1.4-0.5-1.2h-0.5c-0.5-0.7-1.4-1.5-1.9-2.2
		c0.5-0.2,1.9,0.5,1.9-0.7c-0.5-0.2-1,0.2-1.4,0.2c-0.7,0.3-1.9,0-1.7-0.7l10.1-1.7l-3.3,0.5c-2.6,0.3-6,1.7-7.9,0.3
		c-1.2-0.5-3.1-2.6-4.6-0.7c1,3.8-4.8,2.4-7,3.8c2.2-0.3,4.8-1.2,6.5-0.7l-12.2,2.4c4.3,0.5,8.1-1.4,11.7-1.2l-1.9,2.2l-0.3-0.7
		l-2.2,2.2l-39,7.4l-2.9-4.1c13.2-3.1,26.4-4.8,39.5-7.2c-12.7,1.4-26.6,3.8-39.5,6.9c-4.1-5.7-8.9-10.8-14.1-15.6l0.5-0.2
		c-1.4-0.2-2.2-1-1.9-2.6c-1.2,2.4-2.9-1.2-4.1-1l2.6,2.2c-1.2,0.9-2.4-0.2-3.6-0.2c-9.1-7.2-18.4-14.4-29.9-16.3
		c0.5-1.9,1.2-3.6,0.7-6c-4.3-0.3-6,4.1-7.4,7.2c-1.2,0-3.3-0.5-3.8,1c0.5,1,0.2,2.6,1.7,2.6c-3.1,9.1-5.5,18.2-5.3,27.6
		c-2,4.1,3,12,0.5,15.2l0.4-0.1l0.5,0.7l-7,1.9v-0.7l-0.2,0.7l-6.2,1.9c-1.7,1-4.6,0.3-5.3,1.2l-0.7-0.7l10.3-3.1l-11,3.1
		c-1.9-1.2-5.3-1.4-6.5-2.9c-3.8-0.7-7.6-3.1-11.7-4.1L264,85l-0.5,0.2c-1.7-1.4-3.8-0.7-5.2-2.1c-4.8-1.7-10.1-3.1-15.1-4.1
		c-12.2-3.1-26.1-4.8-38.1-4.1c-1.4-2.4,3.1-4.5-1-5.7c-2.1-0.2-3.8,2.2-4.8,3.6c-1,15.3,2.9,29.7,7.6,43.6l-2.4,1.2l1.7-0.5
		c-0.2,0.7-1.7,0.9-2.4,1.4c-1.9-1.2-4.8,1-6.7,1.4c0.9,0.2,2.2-1,3.1-0.3c-1.2,0.3-2.9,1-3.8,0.3c-1,0.5-3.3,1.2-3.1,1.9
		c-5.5,0.5-10,3.3-15.1,4.8h1.2l-0.5,0.5c-0.7,1.2-2.1,1.4-2.9,0.5l-11,4.1v0.5c-0.5,0.7-1.7,0-1.4-0.2l-9.8,3.7l0.5-1
		c-0.5,0.5-1.4,0.7-1.2,1.4l-29.7,11.8l-2.6,0.5l0.2,0.2l-1,0.5c-4.1,0.7-6.5,3.4-9.8,4.1l0.2,0.3l-3.6,0.9
		c-35.7,15.4-71.7,31.4-105.4,52c-0.5,1.7,1.4,2.2,2.4,2.9L0,213.6c2.2-1,4.1,1.2,6.2,0.7l13.9-6.5c35.5-15.3,70.7-30.9,107.1-43.6
		c2.6,7.6,6.9,14.4,13.9,19.9c1.7,2.6,5,4.1,7.4,6.5c5.2,6.5,12,11.5,19.2,14.9l-0.5,0.5c1.9,1.4,3.6,0.5,5,2.9
		c4.3,0.5,7.4,3.8,11.5,5c1.2,0,2.4-0.3,2.9,0.7h-0.2l2.4,1l-0.7,0.7c1.2-0.9,2.4,0.7,3.8,0.5l0.5-1c0.3,0,0.3,0.2,0.5,0.5h-0.2
		l1.9,0.5l-2.2,0.5c0.8,0,1.2,0.2,1.7,1c-0.9,1-1.9-1.4-3.6-0.5c3.8,1.4,7.6,2.9,11.7,2.9c-0.2,0.5-0.9,0-0.7,0.5
		c0.5,0.5,1,0,1.2-0.5l0.2,1l0.5-0.7c0.7-0.5,1.9,0.3,1.9,1l-1.9,0.2c1,0.2,2.4,0,3.6,0c0.5,0.5,1.2,0.9,1.2,1.4
		c-44.3,7.9-86.5,21.6-125.5,42.2l-0.5-0.2c0,0.2,0,0.5-0.2,0.5c-7.4-1.7-8.1,8.4-14.4,9.3l1.9-0.2c-0.7,1.7-2.9,2.6-2.6,4.3
		c-1.9,0.2,1.2,2.9-1.4,3.1c1,0.2,1,1.4,1.4,2.4c-2.2,1.2,1.2,3.1,1.7,4.3h-1.9c9.8,7,21.1,10.8,33.1,12.9c14.9,2.1,30.9,5,46,5
		c27.5,1.2,53.4,0.3,78.6-5.5l1.4-1c3.3-0.2,7.2-1.7,10.3-1.7l-0.2,0.2l2.6-0.7l-0.2-0.5c6.5-1.4,13.2-2.1,19.2-4.8l0.3,0.7
		c2.4-1.4,5-1.7,7.7-2.4c1.4-2.2,4.3,0,5.7-1.9c6-1.7,12.2-4.1,18-5.8c-0.5-0.2-1.2,0-1.9-0.2c-1.4,1.9-4.1,0.5-6.2,1.7
		c-1.2,1.7-2.6,0-3.4,1.5l-8.8,1.9c11.3-4.3,24.2-6.7,35.9-11.2l-10.1,2.6c-1.2,0.7-3.1,1.4-4.3,0.9v-0.5c-1,0.7-2.4,0-2.1,1.4
		c-2.2-0.5-6.2,1.7-8.4,1c9.6-4.8,20.4-6.2,29.7-10.8c-2.1,0.5-4.3,1.7-6.7,1.5l0.7-0.5c-2.4,0.2-4.5,1.7-6.5,1.2
		c3.6-4.6,10.3-3.4,14.9-6.2c-0.7-0.7-2.6,1.2-3.6,0.2c-7.7,3.1-16.1,3.3-24,6.2l-0.5,1l-1.1-0.4c-5.2,0.5-11.6,3.6-17.6,3.8
		c8.9-3.3,18.9-4.3,27.8-7.9c-7.9,1.7-15.6,4.1-23.5,6c-16.5,4.3-34.3,7.7-50.6,9.1c-6,0-12.7,2.2-17.7,1l-0.2,0.7
		c-2.7-0.7-5.3,0-7.9,0.2c-2.4-1.2-5.8,0-7.9-0.7c-2.4,2.2-4.3-1.4-6.7,0.5l-19.6-1.7c-1.2-0.2-2.4,1.4-3.1,0
		c-23-3.6-48.2-4.3-68.3-17.5l0.5-0.5l0.2,0.2v-0.7c2.6-0.5,5.7-1.4,8.1-3.1c8.2-3.6,17.3-6.7,25.6-11c27.3-7.7,54.1-19.4,82.9-23
		l-0.5-0.5l2.6-0.4c-0.4,0-0.8-0.2-0.7-0.6l18.7-2.6l2.1,0.7v-0.7h0.3c0.2,0.2,0.9,0.5,0.2,0.7c0.9-0.7,1.7,1.4,2.1,0
		c0,0.5,1.7,0.5,1.9,0.7l-1.4-0.9h0.2c0,0.2,0.2,0,0.5,0c0.7,0,1.7,0,1.7,0.7h-0.7c1.4,3.1,6,0.7,8.6,2.4c0.7-0.9,2.2,1.4,2.4-0.5
		l2.1,1.2l0.5-1c0.2,0.2,1,0.2,0.5,0.5c1.9,1.7,3.1-1,5.3,0.5l-0.2,0.2c1.7,0.7,4.1-0.7,5.7,0.5l-2.6,0.7c2.4,0.7,6.5,0.2,9.1,1
		v-0.7c0.2-0.2,0.5,0,0.7,0.2c-0.2,0.2-0.2,0.5-0.2,0.5l1.4-0.7c2.6,1,6.2,0.7,9.1,0.7c-3.1-0.5-8.1-0.7-10.8-2.4
		c6,0.2,12.2,1,18,0.7c0,0.2-0.2,0.2-0.2,0.5c0.5,0,0.7-0.2,1-0.5c2.1,0.2,4.5-0.5,6.9,0c0.7-1.4,2.6,0,3.8,0.2
		c4.1-1,8.6-0.5,12.7-0.5c-3.8-2.2-7.7-3.1-12.2-3.1c-0.7-1.2,1-1.2,1.2-2.2c-0.5-0.5-1.2-1-1.9-1.4c-10.3-3.9-21.8-4.1-33-4.6
		c-45.8-6.5-92.3-16.3-123.4-53.4c4.8-0.5,10.5-0.7,15.6-1.2c3.1,0.7,6.5,0.7,9.1-0.2v0.2c0-0.2,0.9-0.9,1.4,0
		c5.7,0.5,12.7-1.2,18.4-0.5c3.6,0.7,7.2-1.2,9.3,0.5c-0.5,0-1-0.2-1.7-0.2c1.2,0.9,3.3,0.5,4.6,0.2l-2.1-0.5l2.4-0.7
		c8.1,0.5,19.6,1.2,27.5,1.2c0.2,0.5,0.7,0.5,0.7,1c5.3,0,10.8,2.1,16.1,1.4v1.2c6.5,0.5,12.7,1.2,18.4,3.8l-1.2-1.2
		c3.1,0.7,7,3.1,9.8,1.7l14.6,8.1l0.5-0.5c0.7,0.5,0.5,1.2,0.5,1.4c1.5-1,2.9,1.2,4.1,0.2c-1.9-0.9-2.6-2.8-4.8-3.6
		c0.5-1.4,1.4,0,2.2-0.7c-3.8-1-6.5-4.3-10.3-5.5l0.2-0.5c-1.7-0.5-3.4-1.9-4.5-2.9l0.2-0.5l-2.7-1.7l-0.7,0.5
		c-0.2-0.2-0.5-0.7-0.9-0.7c0-0.5,0.5-0.5,0.5-1c-1.5-0.7-3.1-1.4-4.1-3.1l0.7-0.2c-2.4-1.9-4.8-3.9-7.2-4.8l1,0.7
		c-2.4,0-1.7-1.2-3.8-2.2l0.5-0.4c-2.2-1.9-3.6-4.6-6.5-5.5l1.9,1.7c-2.2,1.4-1.7-1.9-2.9-2.2h0.5c-1.4-2.4-2.6-3.8-5.3-5
		c-3.6-5.7-11-11.2-14.4-17.7l8.4-3.4l-0.5-0.5c0.2,0,0.5-0.2,0.7-0.2c0.5,0.2,0,0.7,0.2,0.9l4.3-1.9l2.4-0.7
		c0.2-2.1,3.8-1.7,5.7-2.9l0.5,0.7c1.9-1.2,4.1-1.2,5.8-2.7l-0.5-0.2c4.3-3.1,12-4.5,17.9-6.7l-2.6,1.5l0.7,0.2
		c5.3-2.4,10.3-4.6,16.1-5.7c0.1,0.2,0,0.3-0.1,0.3c0.2,0,0.4-0.1,0.6-0.1c2.9,2.2,7.2,4.8,10.1,7.4c2.2,0.5,2.6,1.7,4.1,2.6
		c2.9,3.1,7.2,4.5,9.1,8.1c4.1,3.6,7.4,7.9,11.3,12.5c1,3.8,4.3,7.4,6.5,10.8c1.2,0.2,2.2,0.2,2.9-0.7c1.2-0.7,1.2,1.2,1.7,2.2
		c0-0.5,0.7-0.2,1,0c-0.2,0-0.2,0.2-0.7,0.2c0.5,0.5,0.9,0.5,1.4,0.7c-0.7,0.7,1.5,1.4,0,1.9c3.4,1.6,3.1,6.9,7.2,7.4l-1.9-3.1
		l0.8,0.1c-0.4-0.2-0.8-0.7-1.1-0.1c0.5-1.5-1.7-3.1-0.9-3.6l-0.7,0.5l-1-1.2l1.2-0.5l-0.7-0.7l-0.3,0.7c-0.5-1.9-2.1-3.8-2.6-5.5
		c0.2,0,0.5-0.2,0.5,0l-0.2-1.2h0.7c-0.5-0.5-1-1-1.2-1.7l-0.5,0.2c-0.7-0.9-1.4-1.7-1.2-2.9c0.7-1.7-2.9-3.6-0.9-5l-1.2-1.2
		c0.2-0.2,0.5-0.5,0.7-0.5c-2.2-5-4.8-10.5-6.9-15.6l0.5-0.7c-3.1-6-4.8-13.2-6.5-19.4l0.5,0.3l-0.5-0.5l17-4.8
		c-0.3-0.5-2.2-0.5-2.9,0.3l0.2,0.5c-1.9,0-3.1,0.7-4.8,0.5c-0.5,0.3-1.4,0.3-1,1l-8.2,2.2l-0.2-0.5l1.7-0.5c-1-0.5-1.7,1-2.4,0
		c5.5-2.6,10.8-3.4,17-4.8l-0.5-0.5l0.5-0.5c-5,1-10.1,2.2-14.6,3.8c-1,0.2-2.9,1-2.9-0.5c2.9-1,6.7-1.7,9.6-2.9l1.2-0.4v-0.1
		c2.4-1,4.1-3.1,6.7-3.3c0,0.5-0.5,0.5-0.5,0.7c1.2-1,3.1-0.7,3.8-1.7c-1.2-0.5-2.6-0.3-3.6-0.3l4.6-1.7c-3.6,0.2-6,2.6-9.1,4.1
		l-0.5-0.5c-1.2,0.7-2.6,0-4.1,0.7c-0.3,0-0.6-0.2-0.8-0.4c-1.5,0.4-4.7-0.3-5.4,1.6c-1-1-1.7-1.5-2.9-1.2c1.9-1.2,6.5-1.5,8.5-2.5
		V87h1.6c1.4-1.2,2.2,0,3.6-1c-0.7-2.6,3.1-1.2,4.1-2.4l-0.5-0.5l1.2-0.5c-2.6,1.2-5.7,1.9-8.6,2.6l-0.3-0.7
		c1.2-0.5,3.1-0.5,3.8-1.7c-1.2,0.2-4.8,0.9-7.2,2.1l0.2-1.3c-2.2,0.7-4.3,1.6-7.4,2.7l-0.5-1.5l3.3-0.9c-1.2-0.3-2.1,0.2-3.1,0.7
		c-0.7-2.1-0.9-4.1-1.7-6.2c0.7-10.3,0-20.4,3.3-30.2c1.9-0.7,3.1,1.9,5,1.4l-0.2,0.7l0.7,0.2c0-0.5-0.2-0.5-0.5-0.7
		c0.5-0.5,1-0.7,1.7-0.5c0.5,2.1,3.3,0.5,4.5,2.1c0.5,1.4-1.7,2.2-2.2,2.6c0,0.7,0.7,1,1.2,0.7c0.7,3.8,4.3,4.6,7.2,6.2
		c2.6,2.2,4.8,4.1,7.7,5.5c2.9,4.3,7.9,7.7,10.8,11.8l-0.2,0.2c2.1-0.7,2.1,2.6,3.6,2.9c-4.1,1.4-10.3,2.2-14.4,3.9
		c-2.2,0.5-0.5,0.5-1.9,1.7l12.9-2.9c0-1.7,2.6-1.2,4.1-1.7c1.4,3.4,4.6,3.6,5.3,6.7l-0.2,0.3c6.5,10.8,13.6,21.5,15.8,33.8
		l-0.9,0.9h0.9c0,0.5-0.2,0.7-0.2,1c1.4,4.1,0.2,7.9,1.7,12.2c-1.4,3.1,0.5,7.2,0.3,10.8c-1.4,1.4,0.9,1.7,0.5,3.1
		c-25.6,5-49.3,22-55.3,48.6c0,4.8,1,10.3,2.6,14.6c1.7,1,2.1,3.4,3.8,4.6c-0.7,3.1,4.3,5.8,2.1,7.2l0.9-0.5
		c10.8,13.2,29.5,15.6,44.8,10.5c0.7,1,1.9,0.7,2.9,0.3l-0.2-0.5l6.9-2.2c1.2-0.9,3.9,0.5,4.3-1.2c7-1.7,13.4-4.6,19.4-8.4
		c0.2-0.3,1-1.5,1.7-0.7c6.4-6.9,15.1-12,17.5-21.1c-3.4,1.7,1.2-3.1-1.9-2.6l0.5-1.2c-1.4,0-2.4-1.9-1.7-3.1l-0.7,0.5
		c-0.7-0.7,0.5-1.7,0-2.4c-0.9,0-2.1,0-2.1-1.2c-0.5,0.5-0.7,1-1.2,1.2c-2.9-2.1-0.7-5.7-2.9-8.4l-0.2,1.7c-1.9,0-2.4-1.7-4.1-1.9
		c-0.5-3.1-2.6-5.3-4.1-8.1h-0.5l-0.2,1.2c2.2,2.2,3.8,5.3,4.1,8.1h-0.7c0.2,2.9-1.9,5.3-3.6,7.4c-0.5,0-0.5-0.5-0.7-0.7
		c-2.4,0.7-1-3.1-2.4-3.4c-0.5,2.4-0.5,5-1.4,7.2c-3.1-1-2.4-4.6-5.3-5.5c0-0.2,0-0.2,0.2-0.5c-0.7,0.5-2.1,0.7-2.6-0.2
		c-1.2,1.2-3.4,0.2-5,0.9V191c-2.2,0.7-4.3,0-6.5,0l1-1.2c-1-1.7,1.2-1.9,1.7-3.6l-1.2-0.5c-0.2-1.4,3.1-1.7,1.2-2.6h0.7l-1-2.2
		c-1-1.4,1.4-1.4,1.9-2.1l-0.5-1c1.9-0.2,0-2.2,0.7-2.9c-0.2-0.5-0.7-1-1.2-0.7c-0.2-0.7-1.2-1.9,0-2.1c-0.5-1.9-2.2,1-2.7-1
		l0.3-0.5l0.2,0.2l1-1.9c-1-1-1.2-3.6-2.6-2.6l0.2,0.2l-0.7,0.2c-1.2-0.5-3.1,0-2.9-2.1h-0.5c-1.2-0.3-1.2,0.9-1.9,1.7
		c-2.4-0.3-6,0.7-6.7-2.4l1.4-0.3l-0.2-0.2c-1,0.7-3.1-0.9-3.1,0.9c-1.7,0-1.9,1.7-3.4,1.9l0.5,0.5l-1.5,1l-0.5-0.7l-0.5,0.5
		l-0.3-0.5c-1,1.4-2.9,1-4.1,1.7c-0.2-0.5-0.9-0.5-1.2,0c-4.1,0.3-8.4,1.9-10.5,5.5c-1-0.5-2.4,2.2-3.1,0
		c10.3-11.2,26.4-21.3,41.9-14.8c-0.7-0.5-1.2-1.4-2.2-1.9c2.9,0,5.5,2.4,7.9,4.6l0.5-0.7l5.3,3.1l-1.7-1.9l0.5-0.5
		c-3.1-3.3-6-5.7-9.5-8.6l0.7-0.2l-2.4-1l0.5,0.5c-2.2-0.5-5.5,0-6.9-1.2c1.7-1.4,1.4-4.1,1.2-6.2c2.1-4.6,0.7-10.3,2.6-14.6
		c0.5,0.2,1.2,1.4,1.7,0.7c1,2.9-0.2,7.7,3.9,8.1c0.7-1-0.2-2.2-0.7-2.9l1.7-13.4l0.7-0.5c1.7-10.1,7.9-18.2,12.5-27.3l-0.5-1.7
		c1.9-4.3,4.1-8.6,5.8-13.2c1.9-1.2,1.2-4.8,3.4-5l-0.5-0.5l1.2-1.2c0.2-0.5,0-0.7-0.5-1.2l0.5-0.5c5,4.8,12,10.3,14.6,17
		c-3.8-4.6-7.7-9.8-12.9-12.7l-0.5,1.4c1.9,2.2,4.8,4.1,5.5,6c-2.4-1-3.1-3.6-5.5-4.5l3.1,3.8l-3.8-2.9l-0.5,1
		c2.9,4.1,8.2,7.7,9.8,12.5c-3.3-2.1-4.5-5.7-7.9-7.2c-1-1.2-3.1-4.3-4.8-2.4c0.2,0.2,0.5,0.2,0.7,0.5l-0.5,0.2l3.8,4.1l-0.2,0.3
		l7.7,8.1l-0.9-0.2c4.8,4.8,7.9,10.5,10,16.8c4.3,11.5-1.9,23.9-4.1,35.4c1.7,1-0.2,3.4,1,4.3c1.2-0.5,1-1.6,1.4-2.4
		c7.4-11.5,12.2-23.3,13.7-36.9C441.3,113.1,443,110.3,441.8,108.1L441.8,108.1z M267.3,289h0.7C267.8,289.2,267.1,289.7,267.3,289
		L267.3,289z M261.3,279.6L251,282C254.4,281.1,258,280.6,261.3,279.6L261.3,279.6z M248.4,282.3h1.2l-3.4,0.2L248.4,282.3
		L248.4,282.3z M248.7,291.4l-3.6,0.7C245.5,291.6,247.5,291.4,248.7,291.4L248.7,291.4z M235.2,293.8l0.2,0.4l-3.1,0.5L235.2,293.8
		L235.2,293.8z M221.6,298.1c7.2-0.7,14.8-2.1,22-4.1c0,0.2,0.1,0.3,0.3,0.4c0.6-0.2,1.3-0.4,1.9-0.6c0.9-0.4,1.8-0.8,2.8-0.8
		c-0.9,0.3-1.9,0.5-2.8,0.8c-0.6,0.3-1.2,0.5-1.8,0.6c-0.1,0-0.1,0-0.2-0.1c-8.2,2.2-16.4,3.3-25,5.1l-0.5-0.5
		c-3.8,1.4-8.9,1.7-13.4,2.4l-0.5-0.5C210.1,300,216.1,298.6,221.6,298.1L221.6,298.1z M139.2,303.8l12.9,1.2c-4.1,0-9.1-1-13.2-0.7
		L139.2,303.8L139.2,303.8z M257,231.3l1.7,0.2h0.5v0.2l-2.1-0.2L257,231.3L257,231.3z M197.8,218.8c-0.9,0.7-1.7-0.3-2.4-0.5
		C195.7,218.1,197.1,218.1,197.8,218.8L197.8,218.8z M276.7,102.8c-5.5,1.2-11,4.5-17,5c3.8-1.9,6.2-1.2,9.6-3.4
		c0.2-0.5-0.5-0.7-0.5-0.5c-2.1-0.2-3.3,2.4-5.3,1.5l-5.7,1.7c0.1,0,0.2,0,0.2,0s0,0-0.1,0.1c0.2,0,0.4-0.1,0.5-0.1
		c-0.2,0.3-0.5,0.3-0.9,0.3c0.2,0,0.2,0,0.4-0.2c-0.1,0-0.1,0-0.2-0.1c-0.7,0-1.7,0.7-1.9,0c6-1.7,11.7-2.6,17.7-5.3L276.7,102.8
		L276.7,102.8z M259.7,109.1h-1l0.7-0.3L259.7,109.1L259.7,109.1z M257,105.5l0.5-0.3h0.2l-0.5,0.5L257,105.5L257,105.5z
		 M260.2,103.5l0.2,0.5C260.2,103.8,259.4,104,260.2,103.5L260.2,103.5z M273.1,101.4l-4.8,1C269.5,100.7,271.4,100.9,273.1,101.4
		L273.1,101.4z M268.8,100.9c-0.2,0-0.5,0.5-0.7,0.7h0.7c-0.5,0.2-0.5,0.2-0.9,0L268.8,100.9L268.8,100.9z M266.1,103.5l-1.9,0.5
		l1.9-0.7V103.5L266.1,103.5z M263.5,102.8v-0.2h0.7v0.2H263.5L263.5,102.8z M264.4,103.3l0.7-0.5h0.7L264.4,103.3L264.4,103.3z
		 M230.9,84.1h0.2v0.3h-0.2V84.1L230.9,84.1z M162.9,132.8c0,0.5-0.7,0.7-1,0.2C162.2,133,162.4,132.5,162.9,132.8L162.9,132.8z
		 M242.2,156.5v0.7c1.4,0,1.2,2.2,3.4,1.7c-0.7,1.7,1.9,1.4,2.9,2.4c-29.7-4.6-61.8-8.4-93.9-3.6c-1.9,1.2-4.6,0.7-6.7,1.2
		l-14.1,3.4l-0.2-0.5c18.2-7.2,37.1-14.4,55.6-21.4l-0.5-0.5h1.9c7.6-3.1,15.3-6.7,23.2-9.4c2.2,0,3.1,2.9,4.5,3.1
		c-0.2,0.5,0.5,0.9,1,1.4l0.2-0.7C227.1,141.9,234,151.5,242.2,156.5L242.2,156.5z M222.3,111.7l1.9-0.7l-0.5-0.5l-6.2,2.4
		c0,0.2,0.3,0.2,0.5,0.2c-0.7,0.2-1.9,0.2-1.9,1.2l-0.5-0.2c-0.2-0.3,1.7-0.5,1.2-1.4l-1.7,0.7c-6-11.7-9.6-23.7-10.1-36.9
		c1.2,1.7,3.6,1.4,5.3,2.6l0.5,1c4.8,1.7,9.6,1.4,14.8,2.2c-0.2,0.9,0.7,1.2,1.2,1.2c1-0.2,1.2,0.5,1.7,1c5.5,1.4,10.3,3.1,16.1,3.8
		c6.2,3.1,13.4,4.3,19.2,7.9l-0.2,0.3l0.9,0.5c-0.7,1-2.6,1.4-3.1,1.4c-0.2,1.7,1.9-0.2,3.1,0.2l-0.5,0.5l0.2,0.2
		c-1.4,0-3.4,1.2-5.3,1.4v1.9c1.2-1,2.6-1,3.8-1.4c-0.7,0.7-2.4,0.9-2.2,1.4c1.4,0.2,2.9-1.2,4.3-1.7l1.2,0.2
		c-1.7,0.1-3.4,2.4-5.5,1.8l-1.2,0.7l0.5-0.7l-1.9-0.2c0.7,0,1.2-1,0.5-1.5c-3.6,0-7.4,1.9-11.3,2.9c-2.6,0-6,0.7-8.6,1.9
		c-3.3,0.5-7.2,1.2-10.1,3.3c4.8-1.2,9.8-3.1,14.9-3.8c0,0,0.2,1.4,1.4,0.7l-1.9,1.2l1.2,0.5h-0.5l0.5,0.5h-0.2c0,0.3,0,0.4,0,0.5
		l0,0l0,0l0,0c-1.2,0-3.6,0-4,1.4l-0.7-0.2l0.7-0.9c-2.7,0.4-4.6,1.4-7.4,1.9c3.6-2.2,6.2-1,9.3-3.1c-1.4-1.2-4.3,0.5-6,0.5
		c0.7-0.5,1.9,0,1.9-0.9c-4.1-0.5-7.9,2.6-11.5,2.9c0-0.2-0.3-0.2-0.3-0.5C225.5,111.2,223.8,111.3,222.3,111.7L222.3,111.7z
		 M249.8,105c0-0.3-0.2-0.3-0.4-0.3c1.2,0,2.2-1,3.6-1c-1.7,1-3.1,2.4-5.5,2.2L249.8,105L249.8,105z M246.7,106.2l-0.2-0.2l0.7-0.5
		h0.2L246.7,106.2L246.7,106.2z M255.1,105.5c-1.2,1.2-4.3,1.4-6,1.9C251.3,106.9,253,105.5,255.1,105.5L255.1,105.5z M255.6,109.1
		c-0.5,0.7-2.6,2.9-3.8,1.2C252.7,109.3,254.4,110.5,255.6,109.1L255.6,109.1z M238.4,109.8l-0.7,0.9l-0.5-0.2L238.4,109.8
		L238.4,109.8z M236.2,110.7l-0.5,0.7h-0.2L236.2,110.7L236.2,110.7z M235.2,111.7c0.2,0.7-1.9,0-1.7,0.7
		C232.8,112.2,234.8,111.4,235.2,111.7L235.2,111.7z M231.6,109.8l0.7,0.2C232.1,110.3,230.7,110.5,231.6,109.8L231.6,109.8z
		 M228.5,117c1-1.9,2.9-2.2,4.3-2.9c0-0.3-0.2-0.3-0.5-0.3l0.5-0.5c-0.7,0.5-2.1,0.2-2.6,1.2c0,0-0.7,0-1.5,0.1
		c-1,0.4-1.9,1.3-2.9,0.8c-1.2,0.3-0.1-0.2,1.4-0.6c-0.5,0-1,0.1-1.4,0.1c0-0.1,1.1-0.2,2.2-0.3c0.3-0.1,0.5-0.1,0.8-0.1
		c0.1,0,0.2-0.1,0.3-0.1c0.3-0.1,0.6-0.2,0.8-0.4h-2.6c1.4-0.7,4.3-1,5.5-1.9v0.7c1.2,0,1.7,1,3.1,0c-0.5,1.4-2.2,1.2-3.1,2.2l1,0.2
		C232.1,115.8,230.4,116.7,228.5,117L228.5,117z M236,115l0.5-0.2h1L236,115L236,115z M239.1,113.4c-1.2-0.5-2.4,1-3.8,1.2
		c0.2-2.9,5-1.7,7.4-3.2c3.6-1.4,7.4-2.6,11.3-3.4C249.4,110.5,243.9,111.2,239.1,113.4L239.1,113.4z M239.8,114.1l3.3-1.2h0.2
		L239.8,114.1L239.8,114.1z M242.2,118.4c1.7-0.5,2.6-2.4,4.3-2.2C245.5,117.2,243.1,117.9,242.2,118.4L242.2,118.4z M247.2,111.2
		c0.7,1,1.7-0.5,2.4,0c-0.2,0-0.2,0.2-0.2,0.2c0.4,0.5,1.7,0.3,2.4,0l-2.4,1.2l-0.5-1l-1.7,0.7C247.5,111.7,247.5,111.7,247.2,111.2
		L247.2,111.2z M247.7,115.8c5-2.4,10.6-4.6,16-6L247.7,115.8L247.7,115.8z M263.5,108.1c4.8-1.7,9.8-3.6,14.6-4.5
		C273.1,105.7,268.3,106.7,263.5,108.1L263.5,108.1z M304.2,94.2l0.2,0.5l-0.5,0.2L304.2,94.2L304.2,94.2z M304.7,96.8l-2.2,0.7
		l1.9-0.7H304.7L304.7,96.8z M290.1,92.5h-1C289.4,92.5,289.6,92.3,290.1,92.5L290.1,92.5z M288.4,95.9l1.3-0.4
		c0.3-0.4,0.8-0.4,1.3-0.4l-1.3,0.4c0,0.1-0.1,0.1-0.1,0.1c2.9-0.2,6-1.2,7.9-2.9c-1.4-0.5-4.1,1.4-5,0.2c-1.4,1.4-4,1-4.8,2.4
		c-0.3-0.9-1.2,0-1.7-0.5c4.8-1.7,9.6-4.1,14.6-4.3l-3.1,1.2c1.2,0.2,3.8-0.5,5.3-1.4l0.5,0.7l-1.4,0.7l0.5,0.5l-1.7,0.2
		c-0.1,0.2,0,0.3,0,0.3c-0.6,0-1.2,0.1-2.4,0.4c0.2,0.7,1.4,0,2.4,0.2c-3.1,1-7.9,1.5-11,2.6C289.2,96.6,288.7,96.1,288.4,95.9
		L288.4,95.9z M292.7,94.2c0.7,0,0.9-0.5,1.7-0.2C293.9,94.2,293.4,94.2,292.7,94.2L292.7,94.2z M302.1,95.2c0.2,0.7-1,0.7-1.4,0.9
		l-0.3-0.2C300.9,95.6,301.4,94.9,302.1,95.2L302.1,95.2z M296.3,95.4l-0.5,0.2l0.2-0.2H296.3L296.3,95.4z M295.1,95.9l-0.5,0.2
		h-0.7L295.1,95.9L295.1,95.9z M292,97.3l-0.9,0.2c0-0.2,1.4-0.7,2.1-0.9l-1,0.9L292,97.3L292,97.3z M293.2,98.5
		c2.2-1,4.3-1.9,6.7-2.4l-0.5,0.5c1.4,0,3.6-0.7,5-0.3C300.6,97.1,297,99.2,293.2,98.5L293.2,98.5z M307.6,107.9l-0.5,1.2
		c-3.4-0.5-4.8-4.1-7.7-5.3v-0.2l-1.9-1.9l7.4-1.9c1.2,2.6,2.6,5.8,3.1,8.6L307.6,107.9L307.6,107.9z M324.1,89.2h0.2l-1.2,0.3
		L324.1,89.2L324.1,89.2z M321.5,88.7h0.2c-1,0.2,0,0.7-0.7,0.4L321.5,88.7L321.5,88.7z M314,92.5c1.5-0.9,3.1-1.2,4.6-1.9
		C317.7,92,315.5,91.6,314,92.5L314,92.5z M319.2,89.4l1-1.3c0.5-0.3,0.1,2,0.1,1.3C320,89.4,319.6,89.4,319.2,89.4l-0.4,0.5
		l-4.9,1.5C314.1,90.6,317.3,89.6,319.2,89.4L319.2,89.4z M313.1,91.8h0.5l-1,0.5L313.1,91.8L313.1,91.8z M317.9,84.9
		c0.2,0.5-0.5,0.2-0.5,0.5C317.4,85.1,317.7,84.9,317.9,84.9L317.9,84.9z M400.6,72.6c-1.7,0.7-3.1,0.5-5,0.9
		C396.7,72.9,398.9,73.1,400.6,72.6L400.6,72.6z M394.6,73.8h0.4l-20.1,3.8L394.6,73.8L394.6,73.8z M402.7,76.5l0.7,0.5
		c-0.3,0.3-0.3,0.5-0.3,0.7c-1.2-0.5-1.7,0.9-2.2,1.9c0,1.2-2.4,2.7-3.1,4.8c-5.5,10.1-11,20.6-11.5,32.6l-0.7,0.7
		c-2.6-13.9-7.9-27-15.6-38.6l35.9-6.5C405.6,73.8,404.2,75.8,402.7,76.5L402.7,76.5z M416.1,75.8c-1.2-1.2-3.4-1.9-3.4-4.3l5,4.8
		C417.3,76.5,416.6,75.3,416.1,75.8L416.1,75.8z M427.9,89.9l2.6,4.1C429.3,93.2,428.1,91.6,427.9,89.9L427.9,89.9z"/>
    <polygon fill="#FFFFFF" points="226.6,215.1 226.6,351.2 672.7,351.2 672.7,215.1 	"/>
    <g>
		<path fill="#82B624" d="M301.8,328.4h-36.3l-23.2-90.6h30.5l9.1,48.1c1,5.2,1.5,10.4,1.5,13.2h1.5c0-2.8,0.4-8,1.4-13.2l9.1-48.1
			h29.7L301.8,328.4z"/>
        <path fill="#82B624"
              d="M334,328.4v-90.6h61.2v24.7h-31.5v8.2h29v24.6h-29v8.4h32.5l1.2,24.7L334,328.4L334,328.4z"/>
        <path fill="#82B624" d="M481.5,328.4c-3,0.4-7.3,0.7-9.8,0.7c-12.2,0-17.3-4.1-22-14.5l-7.7-16.9h-3.2v30.7H410v-90.6h38.9
			c18.8,0,31.9,7.4,31.9,27.6c0,11.5-4.6,19.7-12,24.7l5.9,10.8c1,1.9,1.5,2.3,3.7,2.3c1,0,2.1-0.1,3-0.2L481.5,328.4L481.5,328.4z
			 M446.4,260.3h-7.5v16.4h7.2c4,0,5.6-2,5.6-8.5C451.6,262.1,450,260.3,446.4,260.3z"/>
        <path fill="#82B624" d="M531.6,328.4h-36.8v-90.6h36.5c24.2,0,41,12.4,41,43.5C572.3,311.5,557.9,328.4,531.6,328.4z M531.1,261.5
			h-6.9v43h6.8c9.9,0,10.4-3,10.4-22.6C541.4,263.3,538.9,261.5,531.1,261.5z"/>
        <path fill="#82B624" d="M628.9,328.4l-2.8-17.1h-19l-3.2,17.1h-29.3l22.9-90.6h40l21.6,90.6H628.9z M618.9,274.4
			c-0.9-5.2-1.1-11.1-1.1-14.2h-1.5c0,3.1-0.5,9-1.5,14.3l-2.6,14.6h9L618.9,274.4z"/>
	</g>
</g>
</svg>
