<?xml version="1.0" encoding="UTF-8" standalone="no"?>
<!-- Generator: Adobe Illustrator 17.0.0, SVG Export Plug-In . SVG Version: 6.00 Build 0)  -->

<svg
   xmlns:dc="http://purl.org/dc/elements/1.1/"
   xmlns:cc="http://creativecommons.org/ns#"
   xmlns:rdf="http://www.w3.org/1999/02/22-rdf-syntax-ns#"
   xmlns:svg="http://www.w3.org/2000/svg"
   xmlns:sodipodi="http://sodipodi.sourceforge.net/DTD/sodipodi-0.dtd"
   xmlns:inkscape="http://www.inkscape.org/namespaces/inkscape"
   xmlns="http://www.w3.org/2000/svg"
   version="1.1"
   id="Ebene_1"
   x="0px"
   y="0px"
   width="896.423px"
   height="351.142px"
   viewBox="0 0 896.423 351.142"
   enable-background="new 0 0 896.423 351.142"
   xml:space="preserve"
   sodipodi:docname="verts-green.svg"
   inkscape:version="0.92.5 (2060ec1f9f, 2020-04-08)"><metadata
   id="metadata467"><rdf:RDF><cc:Work
       rdf:about=""><dc:format>image/svg+xml</dc:format><dc:type
         rdf:resource="http://purl.org/dc/dcmitype/StillImage" /></cc:Work></rdf:RDF></metadata><defs
   id="defs465" /><sodipodi:namedview
   pagecolor="#ffffff"
   bordercolor="#666666"
   borderopacity="1"
   objecttolerance="10"
   gridtolerance="10"
   guidetolerance="10"
   inkscape:pageopacity="0"
   inkscape:pageshadow="2"
   inkscape:window-width="3840"
   inkscape:window-height="2032"
   id="namedview463"
   showgrid="false"
   inkscape:zoom="0.67209277"
   inkscape:cx="-7.0827991"
   inkscape:cy="175.571"
   inkscape:window-x="2560"
   inkscape:window-y="54"
   inkscape:window-maximized="1"
   inkscape:current-layer="g460" />
<g
   id="g460">
	<polygon
   fill="#82B624"
   points="333.961,0.285 333.272,0.125 333.978,0.086  "
   id="polygon2"
   style="fill:#84b414;fill-opacity:1" />
    <path
   fill="#82B624"
   d="M335.381,0.108c0.255,0.524-0.724,0.238-1.23,0.294C334.459,0.329,334.901-0.134,335.381,0.108   L335.381,0.108L335.381,0.108z"
   id="path4"
   style="fill:#84b414;fill-opacity:1" />
    <path
   fill="#82B624"
   d="M338.335,0.768c1.204,0.005,2.889,0.253,4.037-0.249c0.044-0.498-0.706,0.039-0.979-0.286   c1.187,0.204,3.556-0.492,4.357,0.682c0.481,0.243,0.979,0.286,1.204,0.005c0.468-0.762,1.442,0.728,1.646-0.458   c-0.264-0.425-0.489-0.143-0.689-0.161c2.352-0.497,4.988,2.645,7.671,0.671l0.044-0.498c1.685,0.248,3.314-0.011,4.773,0.518   l-3.639,0.284c0.42,0.94,1.43-0.276,2.347,0.707c1.166-0.701,2.672,0.435,3.617-1.189l-0.503,1.161   c1.928-0.233,4.357,0.682,5.566-0.517l-0.199-0.017c0.701,1.166,3.132-0.228,4.574,0.501l5.479,0.479   c-0.217,0.182-0.286,0.979,0.519,0.949l0.923-0.22c-0.281-0.225-0.463-0.442-0.762-0.468c0.966-0.719,2.872,0.452,4.275,0.474   c0.182,0.217-1.447,0.476-0.204,1.187l1.408-1.182l0.493,1.248c0.706-0.039,2.426-0.189,2.612-1.177   c0.706-0.039-0.26,0.68,0.012,1.005c0.22,0.923,1.473-0.775,1.243,0.711c0.706-0.039,1.889-0.939,2.608,0.027   c1.872-0.74,3.551,0.712,5.523-0.019c2.104,1.188,4.799,0.219,7.146,0.926c-0.044,0.498-0.741,0.437-0.685,0.944l0.281,0.225   c1.677-1.961,6.246-0.257,8.394,0.433c0.217-0.182-0.039-0.706,0.46-0.662c0.463,0.442,0.956,1.69,2.16,1.695l0.243-0.481   c0.044-0.498-0.455-0.542-0.961-0.486l-0.199-0.017l-0.199-0.017c0.486-0.961,1.204,0.005,1.91-0.034   c-0.325,0.273,0.138,0.715,0.61,1.057c0.044-0.498,0.468-0.762,0.204-1.187c2.429,0.915,5.462,0.679,7.159,1.931   c0.68,0.26,1.442,0.728,2.365,0.508l-0.463-0.442c1.503,0.031,2.889,0.253,3.608,1.219c0.723-0.238,1.646-0.458,1.641,0.746   c0.222-1.386,3.132-0.228,4.553-0.405c0.757,1.672,2.403,1.214,4.071,1.661c0.225-0.281,0.044-0.498-0.039-0.706l1.199,1.209   c0.724-0.238,0.243-0.481-0.012-1.005c1.222-0.194,1.94,0.772,3.17,0.478c-0.949,0.519-1.949-0.672-2.634,0.271   c-0.442,0.463,0.481,0.243,0.537,0.75c1.209-1.199,2.429,0.915,2.876-0.752c0.22,0.923,0.979,0.286,1.486,0.23   c5.049,1.948,11.278,1.89,16.328,3.838l-0.442,0.463c1.442,0.728,3.612,0.015,3.564,1.717c1.23-0.294,1.396-2.187,3.076-0.735   l1.222-0.194l-0.442,0.463c0.68,0.26,1.187,0.204,1.447-0.476l-0.217,0.182l1.161,0.503l-0.524,0.255l1.91-0.034l-1.166,0.701   c0.509,3.357,4.551,1.904,5.976,2.832l-0.017,0.199c0.979,0.286,1.702,0.049,2.872,0.452c-0.22-0.923-1.905-1.171-2.867-1.656   l0.199,0.017l-0.437-0.741l-0.667,0.745l-4.05-0.756c0.723-0.238,1.685,0.248,2.153-0.514l-2.165-0.491   c0.905-0.021,2.431-1.393,3.114-0.029c1.408-1.182,2.585,1.431,3.868,0.539c0.675,1.464,1.884,0.265,3.17,0.478   c-0.711,1.243,0.658,1.664,1.662,1.651l-3.331,0.21c0.238,0.723,2.109-0.016,2.403,1.214l1.005-0.012   c-1.646,0.458,0.016,2.109-0.751,2.845c0.757,1.672,1.486,0.23,2.629,0.933c1.723,0.954,3.607,1.219,5.474,1.684l-0.437-0.741   c2.408,0.01,4.573,2.809,6.423,1.164c1.945-0.432,2.398,2.418,4.556,0.7c4.309,2.385,10.516,1.422,14.617,3.889l1.166-0.701   c0.281,0.225,0.238,0.723,0.736,0.767c-0.425,0.264-1.248,0.493-1.608,1.164l0.944,0.685c-0.217,0.182-0.68-0.26-0.949,0.519   c6.397,1.463,12.638,2.411,18.905,3.059l0.039,0.706c-12.699-1.713-25.419-4.332-37.845-5.72c-0.685,0.944-1.641-0.746-2.17,0.714   c1.442,0.728,3.838-0.267,5.462,0.679l0.762,0.468c0.248-1.685,2.136-0.315,3.088,0.27c2.906,0.054,7.19,0.428,10.317,1.405   c0.281,0.225,0.039,0.706,0.437,0.741l0.243-0.481c1.641,0.746,3.083,1.474,4.812,1.224l0.26-0.68   c3.578,0.413,6.435,2.169,10.048,2.184c-1.672,0.757-4.556-0.7-6.666-0.684c-10.841-1.149-21.287-3.368-32.302-4.834   c-1.199-1.209-3.396-0.197-5.037-0.943c-5.037-0.943-10.798-1.647-15.31-2.845c-2.37,0.696-5.219-1.159-8.099-1.512   c-1.243-0.711-2.882,1.956-3.097-0.171c-0.68-0.26-2.122-0.989-2.915,0.046l-68.513-12.017c-37.603-6.201-81.429-5.518-119.52,1.89   c-42.12,9.867-79.075,31.829-114.01,59.389c-5.036,4.779-10.795,9.796-16.757,13.692c-1.85,1.645-3.091,4.347-5.521,5.741   l-0.498-0.044c9.317-15.848,27.053-29.254,40.491-41.73c4.333-3.636,9.857-5.964,13.13-10.094l-0.199-0.017   c4.341-1.427,8.116-6.718,12.7-8.626c0.281,0.225,0.264,0.425,0.463,0.442c0.217-0.182,0.524-0.255,0.442-0.463l-0.281-0.225   c2.583-1.982,6.417-3.354,9.298-5.31c4.108-3.355,8.851-3.642,12.652-6.924c3.093-0.934,5.494-3.133,9.124-3.317   c0.512-1.26,1.959-1.736,3.081-1.939l-0.017,0.199c7.422-3.366,15.822-6.446,23.681-9.071l0.762,0.468   c1.721-2.459,4.778-0.686,6.98-2.903c1.407,1.127,4.037-0.249,5.783-0.699c-0.944-0.685-1.928,0.233-2.651,0.471   c0.468-0.762,2.938-1.449,3.881-0.765c1.153-1.706,3.899-0.964,5.29-1.946c0.243-0.481-0.044,0.498,0.238,0.723   c1.677-1.961,6.043-1.379,8.179-1.694l4.098-0.946c-0.437-0.741-2.651,0.471-4.055,0.448l10.505-1.892l0.463,0.442   c0.486-0.961,3.119-1.233,4.323-1.228l-0.568,0.753c0.463,0.442,1.187,0.204,1.884,0.265l-1.243-0.711   c1.685,0.248,3.574-0.691,4.998,0.237l0.442-0.463l-0.961-0.486l1.91-0.034l-0.044,0.498l1.403,0.022l-0.039-0.706   c2.396-0.995,2.429,0.915,5.059-0.461l-0.442,0.463c0.706-0.039,1.966,0.473,2.434-0.289l-1.685-0.248   c0.442-0.463,1.43-0.276,2.127-0.215c-0.161,0.689,0.519,0.949,1.017,0.992c0.723-0.238,1.148-0.502,1.872-0.74   c-0.32-0.931-0.706,0.039-1.187-0.204c1.469-1.879,1.212,2.214,2.352-0.497c0.255,0.524,0.294,1.23,1,1.192l0.243-0.481   l-0.073-0.308l1.204,0.005c0,0-0.225,0.281-0.017,0.199c-0.017,0.199-0.017,0.199,0.281,0.225l0.442-0.463l-0.281-0.225   l3.881-0.765l0.012,1.005l3.838-0.267L329.668,0l2.906,0.054l-0.468,0.762c1.641,0.746,3.05-0.436,5.016,0.037l-0.229-0.823   l1.403,0.022L338.335,0.768L338.335,0.768L338.335,0.768z"
   id="path6"
   style="fill:#84b414;fill-opacity:1" />
    <path
   fill="#82B624"
   d="M347.133,0.032c0.255,0.524-1.447,0.476-1.403-0.022L347.133,0.032L347.133,0.032L347.133,0.032z"
   id="path8"
   style="fill:#84b414;fill-opacity:1" />
    <polygon
   fill="#82B624"
   points="355.094,0.829 353.652,0.101 355.12,0.53  "
   id="polygon10"
   style="fill:#84b414;fill-opacity:1" />
    <path
   fill="#82B624"
   d="M365.814,1.064l-0.017,0.199l-0.862-0.477C365.134,0.804,365.632,0.848,365.814,1.064L365.814,1.064   L365.814,1.064z"
   id="path12"
   style="fill:#84b414;fill-opacity:1" />
    <polygon
   fill="#82B624"
   points="311.241,1.811 311.241,1.811 310.5,2.248 310.518,2.049  "
   id="polygon14"
   style="fill:#84b414;fill-opacity:1" />
    <polygon
   fill="#82B624"
   points="406.592,6.539 406.609,6.34 407.597,6.527 407.371,6.808  "
   id="polygon16"
   style="fill:#84b414;fill-opacity:1" />
    <path
   fill="#82B624"
   d="M449.985,14.251c-0.017,0.199-0.442,0.463-0.75,0.537C449.461,14.506,449.686,14.224,449.985,14.251   L449.985,14.251L449.985,14.251z"
   id="path18"
   style="fill:#84b414;fill-opacity:1" />
    <polygon
   fill="#82B624"
   points="469.798,20.702 469.816,20.503 470.82,20.49 470.803,20.69  "
   id="polygon20"
   style="fill:#84b414;fill-opacity:1" />
    <path
   fill="#82B624"
   d="M484.433,22.083l-0.243,0.481l0.204-1.187C484.494,21.385,484.949,21.927,484.433,22.083L484.433,22.083   L484.433,22.083z"
   id="path22"
   style="fill:#84b414;fill-opacity:1" />
    <polygon
   fill="#82B624"
   points="486.396,21.451 486.422,21.153 487.102,21.413 487.085,21.612  "
   id="polygon24"
   style="fill:#84b414;fill-opacity:1" />
    <path
   fill="#82B624"
   d="M488.289,21.617c-0.017,0.199-0.498-0.044-0.905,0.021C487.583,21.656,488.025,21.192,488.289,21.617   L488.289,21.617L488.289,21.617z"
   id="path26"
   style="fill:#84b414;fill-opacity:1" />
    <path
   fill="#82B624"
   d="M489.25,22.103c-0.741,0.437,0.012,1.005,0.276,1.43c-0.68-0.26-0.949,0.519-0.685,0.944   c-0.463-0.442-1.667-0.447-1.403-0.022c0.217-0.182,0.187-0.987,0.005-1.204c-0.463-0.442-1.187-0.204-1.685-0.248   c0.667-0.745-0.68-0.26-0.42-0.94C486.655,23.08,487.82,22.379,489.25,22.103L489.25,22.103L489.25,22.103z"
   id="path28"
   style="fill:#84b414;fill-opacity:1" />
    <polygon
   fill="#82B624"
   points="491.697,22.819 491.152,22.169 491.615,22.611  "
   id="polygon30"
   style="fill:#84b414;fill-opacity:1" />
    <path
   fill="#82B624"
   d="M494.1,24.033c-0.468,0.762-2.872-0.452-2.132,1.42c1.143,0.702,1.728-0.25,2.651-0.471l-0.255-0.524   c1.486,0.23,1.227-1.398,2.408,0.01l-0.667,0.745c0.199,0.017-0.017,0.199-0.044,0.498c-0.238-0.723-1.486-0.23-1.928,0.233   c1.662,1.651,2.413-1.194,4.072-0.648c0.447-1.667,1.667,0.447,2.153-0.514l-0.225,0.281c0.519,0.949,1.43-0.276,2.127-0.215   c-0.949,0.519-0.022,1.403,0.034,1.91c-2.625,0.172-4.083-2.666-5.497-0.28c1.68,1.452,0.685-0.944,2.452-0.488l-1.166,0.701   l6.28,1.654l0.243-0.481l12.196,2.874l1.408-1.182c-1.651,1.662,0.9,1.183,1.437,1.933c3.855-0.466,8.181,1.72,11.776,1.934   c2.573,0.426,6.241,0.948,9.13,1.2c6.678,1.688,13.196,4.066,20.845,3.831c-1.667-0.447-4.523,1.21-6.021-0.025   c-2.209,0.007-5.977-0.523-7.887-0.489c-0.956-1.69-3.331,0.21-5.037-0.943c0.199,0.017-0.039-0.706,0.269-0.78   c1.005-0.012,1.966,0.473,2.59,0.227c-1.243-0.711-3.347-1.899-4.474-0.492c-2.132,1.42-4.287-1.479-6.302-0.25l-0.745-0.667   c-0.217,0.182-0.26,0.68-0.767,0.736c-0.752-2.877-3.889-1.444-5.518-1.185l0.225-0.281c-1.005,0.012-2.122-0.989-2.634,0.271   l-0.498-0.044c-0.255-0.524,0.442-0.463,0.486-0.961c-0.463-0.442-1.005,0.012-1.685-0.248l0.519,0.949   c-0.762-0.468-0.719-0.966-1.884-0.265l-0.498-0.044c0.243-0.481,0.667-0.745,0.529-1.459c-0.225,0.281-1.386-0.222-1.473,0.775   l-0.017,0.199l-0.719-0.966c-0.286,0.979-0.706,0.039-1.503-0.031c-1.667-0.447-3.574,0.691-5.054-0.743   c0.923-0.22,1.641,0.746,2.664,0.534c-0.22-0.923-2.603-1.232-3.634-0.92c-1.01,1.217-2.122-0.989-3.833-0.938l-0.685,0.944   l-0.736-0.767l0.442-0.463l0.264,0.425c1.408-1.182,3.569,0.513,5.016,0.037c-3.347-1.899-7.87-0.689-10.802-0.443l-0.212-1.022   l-0.524,0.255c-0.42-0.94-2.447-0.716-3.612-0.015c0.26-0.68-2.148-0.69-2.884-1.457l-1.23,0.294   c0.928-1.425,2.915-0.046,4.362-0.522l-0.044,0.498l3.868,0.539c-4.607-2.411-11.252-2.189-16.726-3.873   c1.464-0.675,4.088,1.462,5.947-0.283l-1.667-0.447l1.928-0.233l-0.493-1.248C490.886,24.053,493.039,23.538,494.1,24.033   L494.1,24.033L494.1,24.033z"
   id="path32"
   style="fill:#84b414;fill-opacity:1" />
    <path
   fill="#82B624"
   d="M487.092,23.821c-0.498-0.044-1.464,0.675-1.486-0.23L487.092,23.821L487.092,23.821L487.092,23.821z"
   id="path34"
   style="fill:#84b414;fill-opacity:1" />
    <path
   fill="#82B624"
   d="M503.867,25.991c1.641,0.746,3.595,0.214,4.513,1.198c2.418-2.398,2.36,1.712,5.054,0.743   c0.984-0.918,1.403,0.022,2.669-0.67c0.463,0.442,0.021,0.905-0.286,0.979c0.437,0.741,2.188-0.913,1.923,0.971   c-0.979-0.286-1.966-0.473-3.17-0.478l0.944,0.685l-1.91,0.034l0.723-0.238c-0.255-0.524-0.519-0.949-1.143-0.702   c-0.498-0.044-1.707,1.156-2.651,0.471l0.949-0.519c-0.493-1.248-2.165-0.491-3.109-1.175l-0.044,0.498l1.243,0.711   c-1.667-0.447-5.722,0.001-7.215-2.438l1.391-0.983L503.867,25.991L503.867,25.991L503.867,25.991z"
   id="path36"
   style="fill:#84b414;fill-opacity:1" />
    <polygon
   fill="#82B624"
   points="506.002,25.676 505.539,25.234 506.037,25.278  "
   id="polygon38"
   style="fill:#84b414;fill-opacity:1" />
    <path
   fill="#82B624"
   d="M487.32,26.953c0.425-0.264,1.187,0.204,1.447-0.476l4.838,0.925c-0.524,0.255-1.166,0.701-1.889,0.939   l0.005-1.204c-2.153,0.514-1.949-0.672-3.357,0.509c-1.425-0.928-4.799-0.219-4.525-2.203   C485.215,25.765,487.325,25.749,487.32,26.953L487.32,26.953L487.32,26.953z"
   id="path40"
   style="fill:#84b414;fill-opacity:1" />
    <polygon
   fill="#82B624"
   points="513.24,26.711 512.062,26.407 513.266,26.412  "
   id="polygon42"
   style="fill:#84b414;fill-opacity:1" />
    <path
   fill="#82B624"
   d="M526.86,30.513l-0.017,0.199c-0.992,1.017-2.148-0.69-3.612-0.015c-0.9-1.183-3.153-0.677-4.794-1.423   l1.421-0.177l-0.039-0.706C522.365,29.115,524.469,30.303,526.86,30.513L526.86,30.513L526.86,30.513z"
   id="path44"
   style="fill:#84b414;fill-opacity:1" />
    <path
   fill="#82B624"
   d="M524.258,29.281l-1.005,0.012c0.199,0.017,0.459-0.662,0.94-0.42L524.258,29.281L524.258,29.281z"
   id="path46"
   style="fill:#84b414;fill-opacity:1" />
    <path
   fill="#82B624"
   d="M494.743,29.309l-0.044,0.498l-0.437-0.741C494.561,29.092,494.544,29.291,494.743,29.309L494.743,29.309   L494.743,29.309z"
   id="path48"
   style="fill:#84b414;fill-opacity:1" />
    <path
   fill="#82B624"
   d="M528.251,29.53c-0.702,1.143-2.365-0.508-2.872-0.452L528.251,29.53L528.251,29.53L528.251,29.53z"
   id="path50"
   style="fill:#84b414;fill-opacity:1" />
    <path
   fill="#82B624"
   d="M500.465,29.308c-0.044,0.498-0.468,0.762-0.75,0.537C499.542,29.528,500.265,29.29,500.465,29.308   L500.465,29.308L500.465,29.308z"
   id="path52"
   style="fill:#84b414;fill-opacity:1" />
    <path
   fill="#82B624"
   d="M530.004,31.29l-2.391-0.209l0.044-0.498C528.489,30.254,529.225,31.021,530.004,31.29L530.004,31.29   L530.004,31.29z"
   id="path54"
   style="fill:#84b414;fill-opacity:1" />
    <polygon
   fill="#82B624"
   points="510.097,31.656 509.408,31.495 510.114,31.457  "
   id="polygon56"
   style="fill:#84b414;fill-opacity:1" />
    <path
   fill="#82B624"
   d="M527.635,31.986l-1.005,0.012c0.243-0.481,0.442-0.463,0.94-0.42L527.635,31.986L527.635,31.986z"
   id="path58"
   style="fill:#84b414;fill-opacity:1" />
    <path
   fill="#82B624"
   d="M531.897,31.455c-0.217,0.182-1.447,0.476-1.005,0.012L531.897,31.455L531.897,31.455L531.897,31.455z"
   id="path60"
   style="fill:#84b414;fill-opacity:1" />
    <polygon
   fill="#82B624"
   points="538.806,31.658 539.122,31.485 540.564,32.213  "
   id="polygon62"
   style="fill:#84b414;fill-opacity:1" />
    <path
   fill="#82B624"
   d="M546.021,34.096c-0.468,0.762-1.442-0.728-1.945,0.432l0.762,0.468c-0.723,0.238-2.156-2.899-2.872-0.452   l-0.78-0.269l0.199,0.017c-2.161-1.695-6.236-2.152-9.286-1.716c1.677-1.961,4.353-0.422,6.428-0.04   C541.227,32.673,543.673,33.389,546.021,34.096L546.021,34.096L546.021,34.096z"
   id="path64"
   style="fill:#84b414;fill-opacity:1" />
    <polygon
   fill="#82B624"
   points="535.543,33.38 534.764,33.111 535.461,33.172  "
   id="polygon66"
   style="fill:#84b414;fill-opacity:1" />
    <path
   fill="#82B624"
   d="M546.506,33.135c-0.225,0.281-0.017,0.199-0.017,0.199l-0.481-0.243L546.506,33.135L546.506,33.135   L546.506,33.135z"
   id="path68"
   style="fill:#84b414;fill-opacity:1" />
    <path
   fill="#82B624"
   d="M548.689,33.426c-0.225,0.281-0.442,0.463-0.286,0.979c0.238,0.723,0.741-0.437,0.68,0.26   c-0.75,0.537-2.365-0.508-3.158,0.527C546.021,34.096,547.966,33.664,548.689,33.426L548.689,33.426L548.689,33.426z"
   id="path70"
   style="fill:#84b414;fill-opacity:1" />
    <path
   fill="#82B624"
   d="M550.881,33.618c-0.243,0.481-1.248,0.493-1.43,0.276C549.621,33.106,550.301,33.366,550.881,33.618   L550.881,33.618L550.881,33.618z"
   id="path72"
   style="fill:#84b414;fill-opacity:1" />
    <path
   fill="#82B624"
   d="M551.274,34.857c-0.26,0.68-1.005,0.012-1.629,0.259l0.243-0.481   C550.369,34.878,550.82,34.315,551.274,34.857L551.274,34.857L551.274,34.857z"
   id="path74"
   style="fill:#84b414;fill-opacity:1" />
    <path
   fill="#82B624"
   d="M553.683,34.867c-0.741,0.437-0.905,0.021-1.629,0.259l0.044-0.498   C552.479,34.862,553.202,34.624,553.683,34.867L553.683,34.867L553.683,34.867z"
   id="path76"
   style="fill:#84b414;fill-opacity:1" />
    <path
   fill="#82B624"
   d="M540.24,38.208l-19.608-1.916l0.905-0.021l-2.585-1.431l0.225-0.281   C526.155,36.273,533.618,37.026,540.24,38.208L540.24,38.208L540.24,38.208z"
   id="path78"
   style="fill:#84b414;fill-opacity:1" />
    <path
   fill="#82B624"
   d="M555.576,35.033l-1.187-0.204C554.614,34.547,555.338,34.309,555.576,35.033L555.576,35.033L555.576,35.033   z"
   id="path80"
   style="fill:#84b414;fill-opacity:1" />
    <polygon
   fill="#82B624"
   points="529.457,35.257 529.998,34.802 531.176,35.106  "
   id="polygon82"
   style="fill:#84b414;fill-opacity:1" />
    <polygon
   fill="#82B624"
   points="553.903,35.79 554.653,35.253 555.107,35.795  "
   id="polygon84"
   style="fill:#84b414;fill-opacity:1" />
    <path
   fill="#82B624"
   d="M560.431,35.758c-0.989,2.122-3.088-0.27-4.518,0.006C557.278,35.081,559.178,37.456,560.431,35.758   L560.431,35.758L560.431,35.758z"
   id="path86"
   style="fill:#84b414;fill-opacity:1" />
    <path
   fill="#82B624"
   d="M551.589,36.993c-0.524,0.255-0.238-0.723-0.294-1.23C552.075,36.031,551.516,36.685,551.589,36.993   L551.589,36.993L551.589,36.993z"
   id="path88"
   style="fill:#84b414;fill-opacity:1" />
    <polygon
   fill="#82B624"
   points="552.72,36.69 552.755,36.291 553.942,36.496  "
   id="polygon90"
   style="fill:#84b414;fill-opacity:1" />
    <path
   fill="#82B624"
   d="M562.834,36.973l-1.884-0.265C561.31,36.036,562.315,36.024,562.834,36.973L562.834,36.973L562.834,36.973z   "
   id="path92"
   style="fill:#84b414;fill-opacity:1" />
    <polygon
   fill="#82B624"
   points="555.102,36.999 555.826,36.761 557.03,36.766  "
   id="polygon94"
   style="fill:#84b414;fill-opacity:1" />
    <polygon
   fill="#82B624"
   points="521.334,37.457 521.377,36.959 522.582,36.964  "
   id="polygon96"
   style="fill:#84b414;fill-opacity:1" />
    <polygon
   fill="#82B624"
   points="526.432,37.703 526.376,37.196 527.554,37.5  "
   id="polygon98"
   style="fill:#84b414;fill-opacity:1" />
    <path
   fill="#82B624"
   d="M560.464,37.669c-0.243,0.481-1.222,0.194-1.486-0.23C559.477,37.482,560.2,37.244,560.464,37.669   L560.464,37.669L560.464,37.669z"
   id="path100"
   style="fill:#84b414;fill-opacity:1" />
    <polygon
   fill="#82B624"
   points="562.123,38.215 561.361,37.747 562.067,37.708  "
   id="polygon102"
   style="fill:#84b414;fill-opacity:1" />
    <path
   fill="#82B624"
   d="M531.95,38.888l-2.365-0.508C530.205,37.029,530.945,38.901,531.95,38.888L531.95,38.888L531.95,38.888z"
   id="path104"
   style="fill:#84b414;fill-opacity:1" />
    <path
   fill="#82B624"
   d="M543.129,38.461c-0.299-0.026-1.209,1.199-1.403-0.022C542.168,37.975,542.731,38.426,543.129,38.461   L543.129,38.461L543.129,38.461z"
   id="path106"
   style="fill:#84b414;fill-opacity:1" />
    <path
   fill="#82B624"
   d="M537.403,39.666l-0.905,0.021l0.26-0.68C536.64,39.198,537.446,39.168,537.403,39.666L537.403,39.666   L537.403,39.666z"
   id="path108"
   style="fill:#84b414;fill-opacity:1" />
    <path
   fill="#82B624"
   d="M520.181,39.163c-0.741,0.437-1.447,0.476-2.127,0.215C518.695,38.933,519.475,39.202,520.181,39.163   L520.181,39.163L520.181,39.163z"
   id="path110"
   style="fill:#84b414;fill-opacity:1" />
    <path
   fill="#82B624"
   d="M563.088,39.805l-5.778-0.506c1.435-1.481,3.833,0.938,5.722-0.001L563.088,39.805L563.088,39.805z"
   id="path112"
   style="fill:#84b414;fill-opacity:1" />
    <path
   fill="#82B624"
   d="M540.573,40.144l-1.005,0.012l0.225-0.281l-0.944-0.685C539.555,39.152,540.543,39.339,540.573,40.144   L540.573,40.144L540.573,40.144z"
   id="path114"
   style="fill:#84b414;fill-opacity:1" />
    <path
   fill="#82B624"
   d="M539.109,40.819c-0.199-0.017-0.961-0.486-1.222,0.194l5.773,1.71c-2.408-0.01-5.743-0.904-7.44-2.157   L539.109,40.819L539.109,40.819L539.109,40.819z"
   id="path116"
   style="fill:#84b414;fill-opacity:1" />
    <path
   fill="#82B624"
   d="M546.224,43.249l-1.91,0.034l0.044-0.498C544.847,42.927,545.769,42.707,546.224,43.249L546.224,43.249   L546.224,43.249z"
   id="path118"
   style="fill:#84b414;fill-opacity:1" />
    <path
   fill="#82B624"
   d="M557.28,46.525L552,46.063l0.044-0.498C554.426,45.874,555.188,46.342,557.28,46.525L557.28,46.525   L557.28,46.525z"
   id="path120"
   style="fill:#84b414;fill-opacity:1" />
    <path
   fill="#82B624"
   d="M577.187,48.467c-0.677,3.153,3.116,5.693-0.433,8.394c-2.911,1.151-3.87,4.078-6.764,5.03   c-0.049,1.702-1.396,2.187-2.817,2.364l-5.799-1.411c-2.843,2.662-5.958,5-8.883,7.454l0.255,0.524l-1.43,0.276   c1,1.192-1.469,1.879-1.955,2.84c-1.685-0.248-0.473,1.966-2.175,1.918c0.182,0.217,0.481,0.243,0.987,0.187   c-0.724,0.238-1.435,1.481-1.954,0.532c-1.166,0.701-0.534,2.664-2.656,1.675l-0.044,0.498c-0.463-0.442-1.403-0.022-1.166,0.701   c-0.243,0.481,0.463,0.442,0.437,0.741c0.243-0.481,1.248-0.493,1.646-0.458l-2.904,3.36l-0.22-0.923   c-0.762-0.468-1.672,0.757-1.408,1.182c0.481,0.243,0.905-0.021,1.403,0.022l-1.651,1.662c-0.238-0.723-0.979-0.286-1.204-0.005   l0.437,0.741l-2.434,0.289c1.498,1.235-0.733,2.646-1.656,2.867c-0.524,0.255-0.767,0.736-0.984,0.918l0.463,0.442l-0.299-0.026   l-0.044,0.498c-1.204-0.005-2.634,0.271-3.561,1.696l1.187,0.204l-1.447,0.476l0.762,0.468c-0.498-0.044-0.741,0.437-0.685,0.944   c-0.498-0.044-1.928,0.233-2.669,0.67c-0.017,0.199,0.264,0.425,0.238,0.723l-0.442,0.463c-0.238-0.723-0.961-0.486-1.468-0.43   l1,1.192c-0.933,2.629-3.352-0.695-4.54,1.41c0.519,0.949,2.153-0.514,1.905,1.171c-0.923,0.22-1.171,1.905-2.413,1.194   c-0.701-1.166-2.881,1.956-4.076-0.457c-0.706,0.039-2.214,1.212-0.928,1.425c-0.42-0.94-1.646,0.458-2.37,0.696l0.519,0.949   l-2.132,1.42c1.459,0.529,1.889-0.939,2.838-1.458l0.005-1.204c0.476,1.447,1.43-0.276,1.954-0.532   c1.966,0.473,4.081-0.747,5.965-0.482l-0.724,0.238l0.463,0.442c-1.01,1.217-3.071-0.469-4.081,0.747   c0.281,0.225,0.463,0.442,0.437,0.741c-0.498-0.044-1.36-0.521-1.706-1.153l-1.634,1.463l0.879,0.278l-1.148,0.502   c0.238,0.723,1.403,0.022,2.209-0.007l-0.017,0.199l1.685,0.248c-2.188,0.913-3.324,2.42-5.775,2.908l0.248-1.685   c-1.187-0.204-1.469,1.879-2.639,1.476c-0.966,0.719-2.916,2.355-4.341,1.427c0.524-0.255,1.403,0.022,1.174-0.801   c-0.745-0.667-1.43,0.276-2.352,0.497l-0.044,0.498c-1.264-1.616-2.197,1.012-3.137,1.432c0.961,0.486,1.872-0.74,3.149-0.427   l-2.375,1.9c0.442-0.463-0.502-1.148-1.199-1.209c-1.005,0.012-1.646,0.458-2.183-0.291l-2.639,1.476   c1,1.192,1.646-0.458,2.915-0.046l-0.641,0.446l0.238,0.723l-0.425,0.264l-0.255-0.524c-0.949,0.519-2.088,0.922-3.154,1.631   l1.017,0.992c-2.148-0.69-4.259,1.635-6.256,2.665l-0.091-0.108c-0.933,2.629-3.761,1.679-4.975,4.082   c-1.459-0.529-2.149,1.619-4.059,1.652c-3.129,3.641-8.366,2.681-11.304,6.439c0.199,0.017,0.255,0.524-0.044,0.498   c-2.664-0.534-4.788,3.094-7.92,3.322c0.772-1.94,3.336-1.415,4.264-2.839c2.114-1.22,5.295-3.151,7.643-4.752   c0.498,0.044,0.949-0.519,1.491-0.974c-0.22-0.923-1.486-0.23-1.928,0.233l0.486-0.961c8.393-5.289,16.034-13.454,24.227-18.76   l1.227-1.398c-3.899,0.964-6.465,5.056-10.264,6.028c2.392-2.1,5.312-3.35,6.163-6.186l0.481,0.243l22.262-21.542l0.238,0.723   l1.37-1.888l0.463,0.442c-0.259-1.629,1.391-0.983,2.119-2.425c4.3-5.546,10.033-10.265,14.116-15.629l0.498,0.044   c-0.026,0.299-0.225,0.281-0.442,0.463c2.408,0.01,3.589-4.304,6.261-3.869c2.617-2.381,5.235-4.762,8.172-6.211l-0.944-0.685   c0.204-1.187,1.43-0.276,1.872-0.74l-0.32-0.931c6.943-0.196,11.967-5.98,19.395-4.828   C573.602,45.845,575.502,48.219,577.187,48.467L577.187,48.467L577.187,48.467z"
   id="path122"
   style="fill:#84b414;fill-opacity:1" />
    <path
   fill="#82B624"
   d="M516.061,105.758c-0.199-0.017-0.966,0.719-1.005,0.012L516.061,105.758L516.061,105.758L516.061,105.758z"
   id="path124"
   style="fill:#84b414;fill-opacity:1" />
    <path
   fill="#82B624"
   d="M509.591,112.018l0.281,0.225l-2.838,1.458l-0.437-0.741c-1.192,1-2.677,0.77-3.86,1.67   c0.264,0.425,0.788,0.169,0.987,0.187c-2.17,0.714-3.38,1.913-5.55,2.626l1.685,0.248l-3.158,0.527   c0.012,1.005-2.109,0.016-1.127,1.407c1.187,0.204,2.669-0.67,3.773-0.674c-3.799,0.973-7.659,2.642-11.264,4.837l0.736,0.767   c-0.966,0.719-1.386-0.222-2.625,0.172c0.493,1.248-1.447,0.476-1.933,1.437c-0.949,0.519-1.95,1.636-3.401,1.007   c3.881-0.765,6.041-4.792,10.022-5.548l6.963-5.012l-0.243,0.481c1.928-0.233,3.622-2.393,5.031-3.575l0.264,0.425l4.325-3.537   c1.624,0.945,2.651-0.471,4.081-0.747c0.022-1.403,1.403,0.022,1.889-0.939C514.14,110.508,510.843,110.32,509.591,112.018   L509.591,112.018L509.591,112.018z"
   id="path126"
   style="fill:#84b414;fill-opacity:1" />
    <polygon
   fill="#82B624"
   points="506.966,112.19 509.596,110.813 510.103,110.757  "
   id="polygon128"
   style="fill:#84b414;fill-opacity:1" />
    <path
   fill="#82B624"
   d="M502.691,111.715c0.476,1.447-0.949,0.519-1.426,1.381l-0.264-0.425   C501.98,112.958,501.66,112.026,502.691,111.715L502.691,111.715L502.691,111.715z"
   id="path130"
   style="fill:#84b414;fill-opacity:1" />
    <polygon
   fill="#82B624"
   points="508.469,112.221 508.387,112.013 508.893,111.957 508.867,112.255  "
   id="polygon132"
   style="fill:#84b414;fill-opacity:1" />
    <polygon
   fill="#82B624"
   points="501.477,114.118 500.814,113.659 501.421,113.612  "
   id="polygon134"
   style="fill:#84b414;fill-opacity:1" />
    <path
   fill="#82B624"
   d="M504.586,115.294c-0.044,0.498-1.227,1.398-2.158,1.718C502.433,115.808,503.681,115.315,504.586,115.294   L504.586,115.294L504.586,115.294z"
   id="path136"
   style="fill:#84b414;fill-opacity:1" />
    <polygon
   fill="#82B624"
   points="494.779,117.247 494.298,117.004 494.796,117.047  "
   id="polygon138"
   style="fill:#84b414;fill-opacity:1" />
    <path
   fill="#82B624"
   d="M502.229,116.995c-0.459,0.662-1.209,1.199-1.915,1.238C500.275,117.527,501.506,117.233,502.229,116.995   L502.229,116.995L502.229,116.995z"
   id="path140"
   style="fill:#84b414;fill-opacity:1" />
    <path
   fill="#82B624"
   d="M496.431,121.306l-0.199-0.017c-0.463-0.442,0.741-0.437,0.91-1.225   C497.397,120.588,496.955,121.051,496.431,121.306L496.431,121.306L496.431,121.306z"
   id="path142"
   style="fill:#84b414;fill-opacity:1" />
    <path
   fill="#82B624"
   d="M495.781,121.851c-3.336,1.415-5.78,4.112-9.597,5.284C489.711,125.838,491.908,122.516,495.781,121.851   L495.781,121.851L495.781,121.851z"
   id="path144"
   style="fill:#84b414;fill-opacity:1" />
    <polygon
   fill="#82B624"
   points="485.227,127.754 484.945,127.529 485.244,127.555  "
   id="polygon146"
   style="fill:#84b414;fill-opacity:1" />
    <path
   fill="#82B624"
   d="M479.716,128.778l0.463,0.442c-0.667,0.745-2.408-0.01-2.92,1.25c-0.215-2.127,2.158-1.718,3.566-2.9   L479.716,128.778L479.716,128.778z"
   id="path148"
   style="fill:#84b414;fill-opacity:1" />
    <path
   fill="#82B624"
   d="M479.949,130.705l3.822-2.376C483.731,129.932,481.097,130.203,479.949,130.705L479.949,130.705   L479.949,130.705z"
   id="path150"
   style="fill:#84b414;fill-opacity:1" />
    <polygon
   fill="#82B624"
   points="473.227,129.515 473.696,128.753 474.202,128.697  "
   id="polygon152"
   style="fill:#84b414;fill-opacity:1" />
    <path
   fill="#82B624"
   d="M473.962,132.591c-2.127,0.215-3.601,3.299-5.533,2.427l-0.039-0.706l0.498,0.044l-0.225,0.281   c0.481,0.243,1.702,0.049,1.473-0.775c0.762,0.468,1.889-0.939,2.413-1.194l-0.498-0.044c0.26-0.68,1.447-0.476,1.872-0.74   l2.674-1.874C477.038,131.856,473.946,130.481,473.962,132.591L473.962,132.591L473.962,132.591z"
   id="path154"
   style="fill:#84b414;fill-opacity:1" />
    <path
   fill="#82B624"
   d="M479.49,131.368L479.49,131.368l-0.463-0.442C479.226,130.943,479.408,131.16,479.49,131.368   L479.49,131.368L479.49,131.368z"
   id="path156"
   style="fill:#84b414;fill-opacity:1" />
    <path
   fill="#82B624"
   d="M478.74,131.904c0.264,0.425-0.425,0.264-0.923,0.22l0.667-0.745L478.74,131.904L478.74,131.904   L478.74,131.904z"
   id="path158"
   style="fill:#84b414;fill-opacity:1" />
    <path
   fill="#82B624"
   d="M477.276,132.579c-0.017,0.199-0.243,0.481-0.243,0.481l0.044-0.498L477.276,132.579L477.276,132.579   L477.276,132.579z"
   id="path160"
   style="fill:#84b414;fill-opacity:1" />
    <path
   fill="#82B624"
   d="M476.327,133.099l-0.243,0.481l-0.255-0.524C475.829,133.055,476.353,132.8,476.327,133.099   L476.327,133.099L476.327,133.099z"
   id="path162"
   style="fill:#84b414;fill-opacity:1" />
    <polygon
   fill="#82B624"
   points="461.967,135.456 462.154,134.469 462.851,134.53  "
   id="polygon164"
   style="fill:#84b414;fill-opacity:1" />
    <path
   fill="#82B624"
   d="M468.468,135.724l-0.044,0.498c-1.442-0.728-3.137,1.432-4.358,1.626l1.227-1.398   c0.026-0.299-0.498-0.044-0.281-0.225l1.403,0.022l-0.762-0.468l0.199,0.017C466.237,137.135,467.65,134.749,468.468,135.724   L468.468,135.724L468.468,135.724z"
   id="path166"
   style="fill:#84b414;fill-opacity:1" />
    <polygon
   fill="#82B624"
   points="464.145,136.952 464.288,136.462 464.596,136.389  "
   id="polygon168"
   style="fill:#84b414;fill-opacity:1" />
    <polygon
   fill="#82B624"
   points="461.454,139.025 463.642,138.112 461.41,139.523  "
   id="polygon170"
   style="fill:#84b414;fill-opacity:1" />
    <path
   fill="#82B624"
   d="M460.743,140.268c-0.498-0.044-0.923,0.22-1.43,0.276l1.209-1.199   C460.704,139.562,460.76,140.068,460.743,140.268L460.743,140.268L460.743,140.268z"
   id="path172"
   style="fill:#84b414;fill-opacity:1" />
    <path
   fill="#82B624"
   d="M458.841,140.202l-0.498-0.044l0.243-0.481C459.102,139.522,458.859,140.003,458.841,140.202   L458.841,140.202L458.841,140.202z"
   id="path174"
   style="fill:#84b414;fill-opacity:1" />
    <path
   fill="#82B624"
   d="M457.152,141.158l-0.498-0.044l0.26-0.68C457.113,140.452,457.169,140.959,457.152,141.158L457.152,141.158   L457.152,141.158z"
   id="path176"
   style="fill:#84b414;fill-opacity:1" />
    <polygon
   fill="#82B624"
   points="339.236,50.135 339.552,49.962 340.241,50.122  "
   id="polygon178"
   style="fill:#84b414;fill-opacity:1" />
    <path
   fill="#82B624"
   d="M322.515,53.089c-0.442,0.463-2.365-0.508-3.309-1.193l-0.238-0.723   C320.082,51.069,321.524,51.797,322.515,53.089L322.515,53.089L322.515,53.089z"
   id="path180"
   style="fill:#84b414;fill-opacity:1" />
    <polygon
   fill="#82B624"
   points="342.601,51.834 342.826,51.553 345.502,53.092 345.285,53.274  "
   id="polygon182"
   style="fill:#84b414;fill-opacity:1" />
    <path
   fill="#82B624"
   d="M485.467,57.307c-0.044,0.498-0.923,0.22-1.222,0.194C483.783,57.059,485.004,56.865,485.467,57.307   L485.467,57.307L485.467,57.307z"
   id="path184"
   style="fill:#84b414;fill-opacity:1" />
    <path
   fill="#82B624"
   d="M476.345,58.316c-0.017,0.199-0.225,0.281-0.442,0.463l-0.281-0.225l0.26-0.68l1.667,0.447L476.345,58.316   L476.345,58.316L476.345,58.316z"
   id="path186"
   style="fill:#84b414;fill-opacity:1" />
    <path
   fill="#82B624"
   d="M474.136,58.323l-0.225,0.281l-0.463-0.442C473.88,57.799,473.954,58.107,474.136,58.323L474.136,58.323   L474.136,58.323z"
   id="path188"
   style="fill:#84b414;fill-opacity:1" />
    <polygon
   fill="#82B624"
   points="478.753,58.326 477.774,58.039 478.472,58.1  "
   id="polygon190"
   style="fill:#84b414;fill-opacity:1" />
    <polygon
   fill="#82B624"
   points="471.528,58.296 471.546,58.097 472.732,58.301 472.715,58.5  "
   id="polygon192"
   style="fill:#84b414;fill-opacity:1" />
    <path
   fill="#82B624"
   d="M469.094,58.585c0.039,0.706-1.166,0.701-1.971,0.731C467.69,58.562,468.414,58.324,469.094,58.585   L469.094,58.585L469.094,58.585z"
   id="path194"
   style="fill:#84b414;fill-opacity:1" />
    <path
   fill="#82B624"
   d="M466.75,58.982c-0.26,0.68-0.905,0.021-1.187-0.204C466.062,58.821,466.469,58.757,466.75,58.982   L466.75,58.982L466.75,58.982z"
   id="path196"
   style="fill:#84b414;fill-opacity:1" />
    <path
   fill="#82B624"
   d="M454.24,59.694l-0.706,0.039c-0.264-0.425,0.243-0.481,0.741-0.437L454.24,59.694L454.24,59.694z"
   id="path198"
   style="fill:#84b414;fill-opacity:1" />
    <path
   fill="#82B624"
   d="M462.189,59.486l-0.017,0.199l-0.961-0.486C461.708,59.244,461.963,59.768,462.189,59.486L462.189,59.486   L462.189,59.486z"
   id="path200"
   style="fill:#84b414;fill-opacity:1" />
    <path
   fill="#82B624"
   d="M453.028,59.789l-2.669,0.67C450.901,60.005,452.192,59.013,453.028,59.789L453.028,59.789L453.028,59.789z   "
   id="path202"
   style="fill:#84b414;fill-opacity:1" />
    <path
   fill="#82B624"
   d="M458.858,59.697c0,0-0.026,0.299-0.225,0.281l-0.199-0.017l0.044-0.498   C458.576,59.471,458.875,59.498,458.858,59.697L458.858,59.697L458.858,59.697z"
   id="path204"
   style="fill:#84b414;fill-opacity:1" />
    <polygon
   fill="#82B624"
   points="460.959,59.78 459.781,59.476 460.785,59.464  "
   id="polygon206"
   style="fill:#84b414;fill-opacity:1" />
    <path
   fill="#82B624"
   d="M448.531,60.701l-0.706,0.039c0.017-0.199,0.26-0.68,0.741-0.437L448.531,60.701L448.531,60.701z"
   id="path208"
   style="fill:#84b414;fill-opacity:1" />
    <path
   fill="#82B624"
   d="M448.045,61.662c-0.276-1.43-1.884-0.265-3.153-0.677C445.217,60.712,448.293,59.977,448.045,61.662   L448.045,61.662L448.045,61.662z"
   id="path210"
   style="fill:#84b414;fill-opacity:1" />
    <path
   fill="#82B624"
   d="M454.976,60.461c-1.227,1.398-3.855,0.466-5.501,0.924C450.403,59.961,453.304,61.219,454.976,60.461   L454.976,60.461L454.976,60.461z"
   id="path212"
   style="fill:#84b414;fill-opacity:1" />
    <polygon
   fill="#82B624"
   points="436.783,61.881 442.285,60.957 444.195,60.924  "
   id="polygon214"
   style="fill:#84b414;fill-opacity:1" />
    <polygon
   fill="#82B624"
   points="435.635,62.383 435.597,61.677 436.303,61.638  "
   id="polygon216"
   style="fill:#84b414;fill-opacity:1" />
    <path
   fill="#82B624"
   d="M444.714,61.872c-0.225,0.281-1.69,0.956-2.426,0.189c-3.081,1.939-7.169,0.477-10.505,1.892   C435.635,62.383,440.153,62.377,444.714,61.872L444.714,61.872L444.714,61.872z"
   id="path218"
   style="fill:#84b414;fill-opacity:1" />
    <polygon
   fill="#82B624"
   points="430.069,62.9 432.421,62.403 433.933,62.335  "
   id="polygon220"
   style="fill:#84b414;fill-opacity:1" />
    <path
   fill="#82B624"
   d="M421.215,63.129c-0.044,0.498-1.447,0.476-1.204-0.005L421.215,63.129L421.215,63.129L421.215,63.129z"
   id="path222"
   style="fill:#84b414;fill-opacity:1" />
    <path
   fill="#82B624"
   d="M430.814,63.567c-0.442,0.463-1.447,0.476-1.872,0.74l-0.039-0.706   C429.41,63.545,430.307,63.623,430.814,63.567L430.814,63.567L430.814,63.567z"
   id="path224"
   style="fill:#84b414;fill-opacity:1" />
    <path
   fill="#82B624"
   d="M427.937,64.32l-4.098,0.946C424.563,65.028,426.296,63.574,427.937,64.32L427.937,64.32L427.937,64.32z"
   id="path226"
   style="fill:#84b414;fill-opacity:1" />
    <path
   fill="#82B624"
   d="M445.622,65.264c-0.035,0.398-0.243,0.481-0.468,0.762l-0.238-0.723L445.622,65.264L445.622,65.264   L445.622,65.264z"
   id="path228"
   style="fill:#84b414;fill-opacity:1" />
    <path
   fill="#82B624"
   d="M438.661,65.659c-0.498-0.044-0.949,0.519-1.629,0.259C437.293,65.238,438.272,65.525,438.661,65.659   L438.661,65.659L438.661,65.659z"
   id="path230"
   style="fill:#84b414;fill-opacity:1" />
    <path
   fill="#82B624"
   d="M441.542,66.012c-0.017,0.199-1.248,0.493-1.945,0.432C440.138,65.989,440.862,65.751,441.542,66.012   L441.542,66.012L441.542,66.012z"
   id="path232"
   style="fill:#84b414;fill-opacity:1" />
    <path
   fill="#82B624"
   d="M443.053,65.943c-0.017,0.199-0.425,0.264-0.923,0.22C442.083,65.557,442.746,66.017,443.053,65.943   L443.053,65.943L443.053,65.943z"
   id="path234"
   style="fill:#84b414;fill-opacity:1" />
    <path
   fill="#82B624"
   d="M445.617,66.469c-0.905,0.021-1.945,0.432-2.833,0.254C443.534,66.186,444.712,66.49,445.617,66.469   L445.617,66.469L445.617,66.469z"
   id="path236"
   style="fill:#84b414;fill-opacity:1" />
    <path
   fill="#82B624"
   d="M428.889,67.213c-0.442,0.463-1.646,0.458-2.37,0.696C426.706,66.922,428.165,67.451,428.889,67.213   L428.889,67.213L428.889,67.213z"
   id="path238"
   style="fill:#84b414;fill-opacity:1" />
    <path
   fill="#82B624"
   d="M399.178,68.328c-4.528,2.415-10.306,1.909-15.353,3.375C388.146,69.371,394.105,70.093,399.178,68.328   L399.178,68.328L399.178,68.328z"
   id="path240"
   style="fill:#84b414;fill-opacity:1" />
    <polygon
   fill="#82B624"
   points="408.525,69.347 407.365,68.844 408.326,69.329  "
   id="polygon242"
   style="fill:#84b414;fill-opacity:1" />
    <path
   fill="#82B624"
   d="M380.976,72.156c-0.468,0.762-1.248,0.493-1.646,0.458l1.209-1.199L380.976,72.156L380.976,72.156   L380.976,72.156z"
   id="path244"
   style="fill:#84b414;fill-opacity:1" />
    <path
   fill="#82B624"
   d="M371.891,73.871c1.408-1.182,4.523-1.21,6.45-1.443L371.891,73.871L371.891,73.871L371.891,73.871z"
   id="path246"
   style="fill:#84b414;fill-opacity:1" />
    <path
   fill="#82B624"
   d="M369.981,73.905c0.039,0.706-0.949,0.519-1.447,0.476C368.777,73.9,369.483,73.861,369.981,73.905   L369.981,73.905L369.981,73.905z"
   id="path248"
   style="fill:#84b414;fill-opacity:1" />
    <polygon
   fill="#82B624"
   points="344.796,77.222 345.039,76.742 346.018,77.028  "
   id="polygon250"
   style="fill:#84b414;fill-opacity:1" />
    <polygon
   fill="#82B624"
   points="346.42,78.168 346.455,77.769 347.46,77.757  "
   id="polygon252"
   style="fill:#84b414;fill-opacity:1" />
    <polygon
   fill="#82B624"
   points="340.49,78.251 340.434,77.744 341.422,77.931  "
   id="polygon254"
   style="fill:#84b414;fill-opacity:1" />
    <path
   fill="#82B624"
   d="M346.013,78.232l-0.723,0.238l-0.255-0.524C345.532,77.989,345.758,77.708,346.013,78.232L346.013,78.232   L346.013,78.232z"
   id="path256"
   style="fill:#84b414;fill-opacity:1" />
    <path
   fill="#82B624"
   d="M344.492,78.4l-1.954,0.532C343.145,78.885,343.631,77.924,344.492,78.4L344.492,78.4L344.492,78.4z"
   id="path258"
   style="fill:#84b414;fill-opacity:1" />
    <path
   fill="#82B624"
   d="M340.667,79.672l0.706-0.039c-0.442,0.463-1.192,1-2.17,0.714L340.667,79.672   c-0.281-0.225-0.498-0.044-0.498-0.044c0.26-0.68,1.43-0.276,1.889-0.939L340.667,79.672L340.667,79.672z"
   id="path260"
   style="fill:#84b414;fill-opacity:1" />
    <path
   fill="#82B624"
   d="M337.804,79.12c0.281,0.225,0.255,0.524,0.22,0.923l0.979,0.286c-1.452,1.68-2.421-1.015-3.401,1.007   c-0.039-0.706-0.25-1.728,0.772-1.94l-3.656,0.483c1.192-1,2.894-0.951,4.137-0.24C336.916,78.942,337.579,79.402,337.804,79.12   L337.804,79.12L337.804,79.12z"
   id="path262"
   style="fill:#84b414;fill-opacity:1" />
    <path
   fill="#82B624"
   d="M347.663,78.879c0.238,0.723-0.442,0.463-0.767,0.736l-0.039-0.706L347.663,78.879L347.663,78.879   L347.663,78.879z"
   id="path264"
   style="fill:#84b414;fill-opacity:1" />
    <path
   fill="#82B624"
   d="M210.376,79.616l-1.91,0.034l0.044-0.498C209.133,78.905,209.696,79.356,210.376,79.616L210.376,79.616   L210.376,79.616z"
   id="path266"
   style="fill:#84b414;fill-opacity:1" />
    <path
   fill="#82B624"
   d="M341.875,80.781c0.767-0.736,2.838-1.458,4.523-1.21L341.875,80.781L341.875,80.781L341.875,80.781z"
   id="path268"
   style="fill:#84b414;fill-opacity:1" />
    <polygon
   fill="#82B624"
   points="330.393,80.078 331.116,79.84 331.813,79.901  "
   id="polygon270"
   style="fill:#84b414;fill-opacity:1" />
    <path
   fill="#82B624"
   d="M333.519,81.054l-0.005,1.204l4.605-1.002c-1.872,0.74-4.341,1.427-6.511,2.141l1.707-1.156   c-0.182-0.217-0.498-0.044-0.68-0.26c0,0,0.741-0.437,0.667-0.745l-4.822,1.184C330.119,82.062,332.082,79.122,333.519,81.054   L333.519,81.054L333.519,81.054z"
   id="path272"
   style="fill:#84b414;fill-opacity:1" />
    <path
   fill="#82B624"
   d="M330.423,80.884c-0.26,0.68-2.153,0.514-3.093,0.934C328.002,79.869,329.738,81.828,330.423,80.884   L330.423,80.884L330.423,80.884z"
   id="path274"
   style="fill:#84b414;fill-opacity:1" />
    <polygon
   fill="#82B624"
   points="326.81,80.869 327.092,81.094 326.55,81.549 326.567,81.349  "
   id="polygon276"
   style="fill:#84b414;fill-opacity:1" />
    <path
   fill="#82B624"
   d="M336.182,83.897c2.894-0.951,6.412-2.149,9.825-2.152L336.182,83.897L336.182,83.897L336.182,83.897z"
   id="path278"
   style="fill:#84b414;fill-opacity:1" />
    <polygon
   fill="#82B624"
   points="339.244,84.466 349.294,82.033 349.801,81.977  "
   id="polygon280"
   style="fill:#84b414;fill-opacity:1" />
    <polygon
   fill="#82B624"
   points="324.198,82.045 324.379,82.262 323.656,82.5 323.457,82.483  "
   id="polygon282"
   style="fill:#84b414;fill-opacity:1" />
    <path
   fill="#82B624"
   d="M320.117,82.793l0.425-0.264L320.117,82.793z"
   id="path284"
   style="fill:#84b414;fill-opacity:1" />
    <path
   fill="#82B624"
   d="M315.776,84.22l-0.199-0.017l1.183-0.9C317.006,83.926,316.283,84.164,315.776,84.22L315.776,84.22   L315.776,84.22z"
   id="path286"
   style="fill:#84b414;fill-opacity:1" />
    <path
   fill="#82B624"
   d="M226.417,84.432l-2.122-0.989C225.201,83.423,226.18,83.709,226.417,84.432L226.417,84.432L226.417,84.432z   "
   id="path288"
   style="fill:#84b414;fill-opacity:1" />
    <polygon
   fill="#82B624"
   points="349.566,84.666 351.935,83.97 350.995,84.39  "
   id="polygon290"
   style="fill:#84b414;fill-opacity:1" />
    <polygon
   fill="#82B624"
   points="227.622,84.437 226.86,83.969 227.566,83.931  "
   id="polygon292"
   style="fill:#84b414;fill-opacity:1" />
    <polygon
   fill="#82B624"
   points="330.455,85.102 330.654,85.12 329.905,85.657 329.705,85.639  "
   id="polygon294"
   style="fill:#84b414;fill-opacity:1" />
    <path
   fill="#82B624"
   d="M353.841,85.141c-0.741,0.437-1.192,1-2.17,0.714C352.194,85.599,353.143,85.08,353.841,85.141   L353.841,85.141L353.841,85.141z"
   id="path296"
   style="fill:#84b414;fill-opacity:1" />
    <polygon
   fill="#82B624"
   points="334.903,85.893 335.228,85.62 335.427,85.638  "
   id="polygon298"
   style="fill:#84b414;fill-opacity:1" />
    <path
   fill="#82B624"
   d="M351.289,85.62c-2.855,1.657-7.473,1.655-10.991,2.853l-0.044,0.498c-2.85,0.453-7.156,1.482-8.885,1.732   C337.648,88.944,344.584,86.539,351.289,85.62L351.289,85.62L351.289,85.62z"
   id="path300"
   style="fill:#84b414;fill-opacity:1" />
    <path
   fill="#82B624"
   d="M318.421,87.262l-0.706,0.039C317.758,86.802,318.14,87.036,318.421,87.262L318.421,87.262L318.421,87.262z   "
   id="path302"
   style="fill:#84b414;fill-opacity:1" />
    <polygon
   fill="#82B624"
   points="327.321,89.948 333.75,87.599 334.521,87.968  "
   id="polygon304"
   style="fill:#84b414;fill-opacity:1" />
    <path
   fill="#82B624"
   d="M341.922,89.418c-1.222,0.194-0.728,1.442-2.413,1.194C340.012,89.452,340.974,89.938,341.922,89.418   L341.922,89.418L341.922,89.418z"
   id="path306"
   style="fill:#84b414;fill-opacity:1" />
    <path
   fill="#82B624"
   d="M333.513,92.598l0.26-0.68l-0.979-0.286c1.945-0.432,3.838-0.267,5.8-0.898L333.513,92.598L333.513,92.598z   "
   id="path308"
   style="fill:#84b414;fill-opacity:1" />
    <polygon
   fill="#82B624"
   points="251.103,91.411 250.142,90.925 250.848,90.886  "
   id="polygon310"
   style="fill:#84b414;fill-opacity:1" />
    <polygon
   fill="#82B624"
   points="296.12,92.036 296.419,92.063 296.337,91.855 296.137,91.837  "
   id="polygon312"
   style="fill:#84b414;fill-opacity:1" />
    <path
   fill="#82B624"
   d="M333.232,92.372c-0.217,0.182-0.923,0.22-1.447,0.476C332.127,92.376,332.552,92.112,333.232,92.372   L333.232,92.372L333.232,92.372z"
   id="path314"
   style="fill:#84b414;fill-opacity:1" />
    <polygon
   fill="#82B624"
   points="321.025,94.215 321.042,94.016 322.528,94.246  "
   id="polygon316"
   style="fill:#84b414;fill-opacity:1" />
    <path
   fill="#82B624"
   d="M316.757,95.95c0.486-0.961,1.928-0.233,2.431-1.393l0.463,0.442L316.757,95.95L316.757,95.95   L316.757,95.95z"
   id="path318"
   style="fill:#84b414;fill-opacity:1" />
    <path
   fill="#82B624"
   d="M246.726,103.575c5.489-1.929,8.869-3.842,14.396-5.065C257.137,100.471,251.847,102.417,246.726,103.575   L246.726,103.575L246.726,103.575z"
   id="path320"
   style="fill:#84b414;fill-opacity:1" />
    <path
   fill="#82B624"
   d="M222.549,110.294c-0.442,0.463-1.447,0.476-1.872,0.74C220.92,110.553,221.825,110.532,222.549,110.294   L222.549,110.294L222.549,110.294z"
   id="path322"
   style="fill:#84b414;fill-opacity:1" />
    <path
   fill="#82B624"
   d="M219.971,111.072c-0.524,0.255-0.984,0.918-1.464,0.675C218.533,111.448,219.49,110.829,219.971,111.072   L219.971,111.072L219.971,111.072z"
   id="path324"
   style="fill:#84b414;fill-opacity:1" />
    <path
   fill="#82B624"
   d="M261.864,114.135c-0.944-0.685-0.923,0.22-1.603-0.04c-0.984,0.918-2.656,1.675-4.766,1.691   c-0.498-0.044-1.178-0.304-0.918-0.984c2.651-0.471,4.766-1.691,7.659-2.642C263.116,112.438,261.907,113.637,261.864,114.135   L261.864,114.135L261.864,114.135z"
   id="path326"
   style="fill:#84b414;fill-opacity:1" />
    <polygon
   fill="#82B624"
   points="233.64,113.171 233.623,113.371 233.099,113.626 232.917,113.409  "
   id="polygon328"
   style="fill:#84b414;fill-opacity:1" />
    <path
   fill="#82B624"
   d="M204.843,116.474l-0.199-0.017l0.685-0.944C205.302,115.812,205.54,116.535,204.843,116.474   L204.843,116.474L204.843,116.474z"
   id="path330"
   style="fill:#84b414;fill-opacity:1" />
    <polygon
   fill="#82B624"
   points="202.672,117.188 203.214,116.733 203.413,116.751  "
   id="polygon332"
   style="fill:#84b414;fill-opacity:1" />
    <path
   fill="#82B624"
   d="M202.183,117.044c0.264,0.425-0.442,0.463-0.767,0.736C201.468,117.183,201.685,117.001,202.183,117.044   L202.183,117.044L202.183,117.044z"
   id="path334"
   style="fill:#84b414;fill-opacity:1" />
    <path
   fill="#82B624"
   d="M199.869,118.247c-0.017,0.199-0.923,0.22-0.68-0.26C199.389,118.005,199.813,117.741,199.869,118.247   L199.869,118.247L199.869,118.247z"
   id="path336"
   style="fill:#84b414;fill-opacity:1" />
    <path
   fill="#82B624"
   d="M197.699,118.961c-0.044,0.498-0.524,0.255-0.923,0.22C196.72,118.674,197.4,118.935,197.699,118.961   L197.699,118.961L197.699,118.961z"
   id="path338"
   style="fill:#84b414;fill-opacity:1" />
    <polygon
   fill="#82B624"
   points="195.528,119.674 195.528,119.674 192.617,120.825  "
   id="polygon340"
   style="fill:#84b414;fill-opacity:1" />
    <path
   fill="#82B624"
   d="M243.469,120.155c-0.199-0.017-0.442,0.463-0.723,0.238l0.044-0.498   C242.988,119.912,243.214,119.63,243.469,120.155L243.469,120.155L243.469,120.155z"
   id="path342"
   style="fill:#84b414;fill-opacity:1" />
    <polygon
   fill="#82B624"
   points="241.056,121.349 240.818,120.625 241.524,120.587  "
   id="polygon344"
   style="fill:#84b414;fill-opacity:1" />
    <path
   fill="#82B624"
   d="M190.763,121.366c0.463,0.442-0.524,0.255-0.949,0.519C189.559,121.361,190.464,121.339,190.763,121.366   L190.763,121.366L190.763,121.366z"
   id="path346"
   style="fill:#84b414;fill-opacity:1" />
    <path
   fill="#82B624"
   d="M188.575,122.278c-0.017,0.199-0.217,0.182-0.524,0.255l0.468-0.762   C188.818,121.798,188.774,122.296,188.575,122.278L188.575,122.278L188.575,122.278z"
   id="path348"
   style="fill:#84b414;fill-opacity:1" />
    <path
   fill="#82B624"
   d="M187.353,122.473c-0.044,0.498-1.464,0.675-1.187-0.204L187.353,122.473L187.353,122.473L187.353,122.473z"
   id="path350"
   style="fill:#84b414;fill-opacity:1" />
    <polygon
   fill="#82B624"
   points="185.183,123.186 184.213,122.8 185.019,122.77  "
   id="polygon352"
   style="fill:#84b414;fill-opacity:1" />
    <polygon
   fill="#82B624"
   points="185.681,123.23 185.4,123.004 186.205,122.974  "
   id="polygon354"
   style="fill:#84b414;fill-opacity:1" />
    <path
   fill="#82B624"
   d="M180.942,124.622c-0.044,0.498-0.767,0.736-1.447,0.476C179.711,124.916,180.409,124.977,180.942,124.622   L180.942,124.622L180.942,124.622z"
   id="path356"
   style="fill:#84b414;fill-opacity:1" />
    <path
   fill="#82B624"
   d="M176.774,126.365c0.481,0.243-0.225,0.281-0.243,0.481l-0.255-0.524L176.774,126.365L176.774,126.365   L176.774,126.365z"
   id="path358"
   style="fill:#84b414;fill-opacity:1" />
    <polygon
   fill="#82B624"
   points="173.256,127.563 173.2,127.056 174.478,127.369  "
   id="polygon360"
   style="fill:#84b414;fill-opacity:1" />
    <path
   fill="#82B624"
   d="M168.915,128.99c0.255,0.524-0.225,0.281-0.468,0.762C167.966,129.51,168.634,128.765,168.915,128.99   L168.915,128.99L168.915,128.99z"
   id="path362"
   style="fill:#84b414;fill-opacity:1" />
    <path
   fill="#82B624"
   d="M166.259,130.665l-0.498-0.044l0.243-0.481C166.277,130.466,166.259,130.665,166.259,130.665   L166.259,130.665L166.259,130.665z"
   id="path364"
   style="fill:#84b414;fill-opacity:1" />
    <polygon
   fill="#82B624"
   points="164.388,131.405 164.349,130.699 164.856,130.643  "
   id="polygon366"
   style="fill:#84b414;fill-opacity:1" />
    <polygon
   fill="#82B624"
   points="160.77,132.594 159.826,131.909 160.307,132.152  "
   id="polygon368"
   style="fill:#84b414;fill-opacity:1" />
    <path
   fill="#82B624"
   d="M157.859,133.745l-0.706,0.039l0.26-0.68C157.621,133.021,157.677,133.528,157.859,133.745L157.859,133.745   L157.859,133.745z"
   id="path370"
   style="fill:#84b414;fill-opacity:1" />
    <path
   fill="#82B624"
   d="M373.764,137.376l-0.034-1.91C374.012,135.691,374.024,136.696,373.764,137.376L373.764,137.376   L373.764,137.376z"
   id="path372"
   style="fill:#84b414;fill-opacity:1" />
    <path
   fill="#82B624"
   d="M143.302,139.498l-0.498-0.044c0.026-0.299,0.243-0.481,0.524-0.255L143.302,139.498L143.302,139.498z"
   id="path374"
   style="fill:#84b414;fill-opacity:1" />
    <path
   fill="#82B624"
   d="M330.451,150.551l-0.044,0.498l-0.719-0.966C330.113,149.819,330.369,150.343,330.451,150.551   L330.451,150.551L330.451,150.551z"
   id="path376"
   style="fill:#84b414;fill-opacity:1" />
    <path
   fill="#82B624"
   d="M338.08,155.134l-0.044,0.498c-0.281-0.225-1.204-0.005-0.736-0.767   C337.6,154.891,337.808,154.809,338.08,155.134L338.08,155.134L338.08,155.134z"
   id="path378"
   style="fill:#84b414;fill-opacity:1" />
    <path
   fill="#82B624"
   d="M252.766,157.306l-1.888-1.37C251.55,156.296,252.555,156.284,252.766,157.306L252.766,157.306   L252.766,157.306z"
   id="path380"
   style="fill:#84b414;fill-opacity:1" />
    <polygon
   fill="#82B624"
   points="338.755,156.598 338.318,155.857 338.517,155.874  "
   id="polygon382"
   style="fill:#84b414;fill-opacity:1" />
    <path
   fill="#82B624"
   d="M339.065,159.938l-0.692-1.265C339.07,158.734,338.81,159.413,339.065,159.938L339.065,159.938   L339.065,159.938z"
   id="path384"
   style="fill:#84b414;fill-opacity:1" />
    <polygon
   fill="#82B624"
   points="260.218,162.777 260.417,162.794 265.682,166.868 265.665,167.068  "
   id="polygon386"
   style="fill:#84b414;fill-opacity:1" />
    <path
   fill="#82B624"
   d="M198.398,164.897l-0.044,0.498c-0.281-0.225-1.178-0.304-0.437-0.741   C197.891,164.953,198.09,164.97,198.398,164.897L198.398,164.897L198.398,164.897z"
   id="path388"
   style="fill:#84b414;fill-opacity:1" />
    <polygon
   fill="#82B624"
   points="179.902,165.186 178.716,164.982 179.703,165.168  "
   id="polygon390"
   style="fill:#84b414;fill-opacity:1" />
    <path
   fill="#82B624"
   d="M187.833,165.177c-0.468,0.762-1.728,0.25-2.109,0.016C185.75,164.894,187.071,164.709,187.833,165.177   L187.833,165.177L187.833,165.177z"
   id="path392"
   style="fill:#84b414;fill-opacity:1" />
    <polygon
   fill="#82B624"
   points="181.189,165.399 180.708,165.156 181.106,165.191  "
   id="polygon394"
   style="fill:#84b414;fill-opacity:1" />
    <path
   fill="#82B624"
   d="M184.52,165.188l-1.43,0.276l0.026-0.299C183.541,164.902,183.995,165.443,184.52,165.188L184.52,165.188   L184.52,165.188z"
   id="path396"
   style="fill:#84b414;fill-opacity:1" />
    <path
   fill="#82B624"
   d="M175.185,165.175c-0.723,0.238-1.889,0.939-2.669,0.67C172.777,165.165,174.418,165.911,175.185,165.175   L175.185,165.175L175.185,165.175z"
   id="path398"
   style="fill:#84b414;fill-opacity:1" />
    <path
   fill="#82B624"
   d="M377.149,166.381l-0.299-0.026l-0.463-0.442C376.612,165.632,376.867,166.156,377.149,166.381   L377.149,166.381L377.149,166.381z"
   id="path400"
   style="fill:#84b414;fill-opacity:1" />
    <polygon
   fill="#82B624"
   points="383.377,166.324 382.39,166.137 383.096,166.099  "
   id="polygon402"
   style="fill:#84b414;fill-opacity:1" />
    <polygon
   fill="#82B624"
   points="268.323,168.806 266.163,167.111 268.367,168.308  "
   id="polygon404"
   style="fill:#84b414;fill-opacity:1" />
    <path
   fill="#82B624"
   d="M413.276,169.944l-0.667,0.745l0.182,0.217l0.524-0.255c2.667,1.639,7.453,3.162,8.625,6.978   c0.458,1.646,1.614,3.353,3.112,4.589c-1.192,1,1.723,0.954,0.714,2.17l-2.148-0.69l-0.044,0.498   c-0.918-0.984-2.347-0.707-3.335-0.894c-1.217-1.01-2.437-3.124-3.802-2.441c1.26,0.512,0.276,1.43,0.995,2.396   c-0.281-0.225-0.498-0.044-0.78-0.269l-0.225,0.281c0.281,0.225,0.745,0.667,0.502,1.148c-0.706,0.039-1.425-0.928-1.884-0.265   c-1.481-1.435-1.228-4.323-2.652-5.251c-0.182-0.217,0.217-0.182,0.243-0.481c-0.68-0.26-1.243-0.711-1.481-1.435l0.442-0.463   l-0.481-0.243l-0.225,0.281c-1.905-1.171-5.04-4.356-2.868-7.378l-0.039-0.706C410.664,168.812,410.946,169.037,413.276,169.944   L413.276,169.944L413.276,169.944z"
   id="path406"
   style="fill:#84b414;fill-opacity:1" />
    <path
   fill="#82B624"
   d="M180.128,213.088l-1.342-0.72C179.267,212.611,180.207,212.191,180.128,213.088L180.128,213.088   L180.128,213.088z"
   id="path408"
   style="fill:#84b414;fill-opacity:1" />
    <polygon
   fill="#82B624"
   points="228.567,213.611 228.593,213.313 229.754,213.816  "
   id="polygon410"
   style="fill:#84b414;fill-opacity:1" />
    <path
   fill="#82B624"
   d="M232.643,214.068l-0.044,0.498l-0.706,0.039l-0.039-0.706C232.162,213.826,232.426,214.25,232.643,214.068   L232.643,214.068L232.643,214.068z"
   id="path412"
   style="fill:#84b414;fill-opacity:1" />
    <path
   fill="#82B624"
   d="M187.408,215.933c-0.723,0.238-2.391-0.209-3.127-0.976C185.442,215.46,186.646,215.465,187.408,215.933   L187.408,215.933L187.408,215.933z"
   id="path414"
   style="fill:#84b414;fill-opacity:1" />
    <path
   fill="#82B624"
   d="M237.68,215.011c-0.225,0.281,0.455,0.542,0.039,0.706l-0.706,0.039   C236.449,215.305,237.48,214.994,237.68,215.011L237.68,215.011L237.68,215.011z"
   id="path416"
   style="fill:#84b414;fill-opacity:1" />
    <path
   fill="#82B624"
   d="M240.988,216.204l-0.017,0.199l-0.662-0.459C240.607,215.97,241.032,215.706,240.988,216.204   L240.988,216.204L240.988,216.204z"
   id="path418"
   style="fill:#84b414;fill-opacity:1" />
    <path
   fill="#82B624"
   d="M242.898,216.17c0.238,0.723-1.204-0.005-1.403-0.022L242.898,216.17L242.898,216.17L242.898,216.17z"
   id="path420"
   style="fill:#84b414;fill-opacity:1" />
    <polygon
   fill="#82B624"
   points="245.843,216.93 243.652,216.738 245.545,216.904  "
   id="polygon422"
   style="fill:#84b414;fill-opacity:1" />
    <path
   fill="#82B624"
   d="M203.245,221.936c-0.225,0.281-0.442,0.463-0.741,0.437l-0.199-0.017   C202.24,221.949,202.964,221.711,203.245,221.936L203.245,221.936L203.245,221.936z"
   id="path424"
   style="fill:#84b414;fill-opacity:1" />
    <path
   fill="#82B624"
   d="M308.842,271.327c-0.723,0.238-1.365,0.684-1.872,0.74C307.421,271.504,307.855,271.141,308.842,271.327   L308.842,271.327L308.842,271.327z"
   id="path426"
   style="fill:#84b414;fill-opacity:1" />
    <path
   fill="#82B624"
   d="M304.082,271.814c-0.017,0.199-0.425,0.264-0.724,0.238C303.583,271.771,303.8,271.589,304.082,271.814   L304.082,271.814L304.082,271.814z"
   id="path428"
   style="fill:#84b414;fill-opacity:1" />
    <path
   fill="#82B624"
   d="M305.773,276.58l-0.243,0.481l-0.255-0.524C305.474,276.554,305.773,276.58,305.773,276.58L305.773,276.58   L305.773,276.58z"
   id="path430"
   style="fill:#84b414;fill-opacity:1" />
    <polygon
   fill="#82B624"
   points="300.427,278.019 300.271,277.504 300.969,277.565  "
   id="polygon432"
   style="fill:#84b414;fill-opacity:1" />
    <path
   fill="#82B624"
   d="M297.052,278.728c-0.243,0.481-0.923,0.22-1.447,0.476C295.848,278.723,296.346,278.767,297.052,278.728   L297.052,278.728L297.052,278.728z"
   id="path434"
   style="fill:#84b414;fill-opacity:1" />
    <path
   fill="#82B624"
   d="M292.755,279.657c-0.269,0.78-1.248,0.493-1.971,0.731C291.308,280.133,292.023,279.995,292.755,279.657   L292.755,279.657L292.755,279.657z"
   id="path436"
   style="fill:#84b414;fill-opacity:1" />
    <polygon
   fill="#82B624"
   points="299.512,280.449 299.031,280.206 299.737,280.168  "
   id="polygon438"
   style="fill:#84b414;fill-opacity:1" />
    <path
   fill="#82B624"
   d="M298.507,280.461c-0.459,0.662-0.923,0.22-1.702-0.049L298.507,280.461L298.507,280.461L298.507,280.461z"
   id="path440"
   style="fill:#84b414;fill-opacity:1" />
    <path
   fill="#82B624"
   d="M296.362,280.876c-0.486,0.961-2.613,1.177-3.886,1.969C293.005,281.385,295.47,281.902,296.362,280.876   L296.362,280.876L296.362,280.876z"
   id="path442"
   style="fill:#84b414;fill-opacity:1" />
    <path
   fill="#82B624"
   d="M291.878,282.793l-0.498-0.044c-0.481-0.243,0.468-0.762,0.741-0.437L291.878,282.793L291.878,282.793z"
   id="path444"
   style="fill:#84b414;fill-opacity:1" />
    <path
   fill="#82B624"
   d="M290.367,282.861c-0.017,0.199-0.442,0.463-0.667,0.745C289.409,283.48,289.669,282.8,290.367,282.861   L290.367,282.861L290.367,282.861z"
   id="path446"
   style="fill:#84b414;fill-opacity:1" />
    <polygon
   fill="#82B624"
   points="194.53,287.125 194.067,286.683 194.574,286.627  "
   id="polygon448"
   style="fill:#84b414;fill-opacity:1" />
    <path
   fill="#82B624"
   d="M231.241,300.073c-0.017,0.199-0.243,0.481-0.442,0.463l-0.199-0.017   C230.518,300.311,230.743,300.03,231.241,300.073L231.241,300.073L231.241,300.073z"
   id="path450"
   style="fill:#84b414;fill-opacity:1" />
    <path
   fill="#82B624"
   d="M228.066,300.8c-0.741,0.437-1.672,0.757-2.651,0.471C226.138,301.032,227.161,300.821,228.066,300.8   L228.066,300.8L228.066,300.8z"
   id="path452"
   style="fill:#84b414;fill-opacity:1" />
    <path
   fill="#82B624"
   d="M301.926,87.626l-5.536,1.323C299.47,89.318,301.125,88.76,301.926,87.626L301.926,87.626z    M282.867,105.834c-0.516,0.156-1.122,0.203-1.837,0.341C281.645,106.028,282.542,106.107,282.867,105.834L282.867,105.834z    M229.091,114.681l-0.1-0.009l-0.1-0.009C228.892,114.663,228.992,114.672,229.091,114.681L229.091,114.681z M228.078,114.793   c-0.308,0.073-0.507,0.056-0.814,0.13c0.407-0.065,0.914-0.121,1.321-0.186C228.485,114.728,228.286,114.711,228.078,114.793   L228.078,114.793z M229.2,114.59c-0.1-0.009-0.108,0.091-0.208,0.082c0.407-0.065,0.806-0.03,1.204,0.005   C229.914,114.451,229.507,114.516,229.2,114.59L229.2,114.59z M318.908,83.992l-0.017,0.199c0.516-0.156,1.031-0.311,1.555-0.567   L318.908,83.992L318.908,83.992z M325.411,89.981l-1.239,0.394l-0.035,0.398L325.411,89.981L325.411,89.981z M320.446,83.625   l6.858-1.508C324.462,82.47,322.408,82.993,320.446,83.625L320.446,83.625z M282.526,274.948L282.526,274.948   c0.1,0.009,0.199,0.017,0.199,0.017L282.526,274.948L282.526,274.948z M257.757,107.15L257.757,107.15L257.757,107.15   L257.757,107.15z M441.775,108.092c0.281,0.225,0.217-0.182,0.723-0.238c-0.704-4.579-0.749-9.803-1.933-14.624   c-4.067-8.587-10.504-16.478-16.551-24.235l18.181-2.425c-5.778-0.506-12.454,1.219-19.185,2.437   c-0.961-0.486-0.276-1.43-0.502-1.148l-0.498-0.044c-0.437-0.741-1.481-1.435-1.918-2.175c0.516-0.156,1.966,0.473,1.872-0.74   c-0.481-0.243-0.923,0.22-1.43,0.276c-0.724,0.238-1.91,0.034-1.641-0.746l10.08-1.628l-3.357,0.509   c-2.634,0.271-5.97,1.686-7.948,0.208c-1.26-0.512-3.078-2.678-4.556-0.7c0.973,3.799-4.827,2.388-6.958,3.808   c2.127-0.215,4.822-1.184,6.489-0.737l-12.151,2.35c4.375,0.483,8.153-1.395,11.748-1.181l-1.894,2.143l-0.238-0.723l-2.202,2.217   l-38.996,7.43l-2.857-4.064c13.217-3.06,26.321-4.824,39.576-7.178c-12.67,1.401-26.632,3.793-39.559,6.979   c-4.112-5.78-8.891-10.816-14.095-15.588l0.524-0.255c-1.486-0.23-2.122-0.989-1.874-2.674c-1.214,2.403-2.91-1.158-4.132-0.964   l2.624,2.137c-1.183,0.9-2.391-0.209-3.595-0.214c-9.105-7.221-18.419-14.36-29.896-16.268c0.473-1.966,1.219-3.607,0.722-5.96   c-4.292-0.275-5.98,4.094-7.454,7.178c-1.204-0.005-3.37-0.496-3.799,0.973c0.519,0.949,0.272,2.634,1.675,2.656   c-3.102,9.064-5.506,18.189-5.221,27.55c-1.969,4.144,3.065,12.013,0.577,15.208l0.407-0.065l0.437,0.741l-6.992,1.898   l-0.039-0.706l-0.26,0.68l-6.186,1.868c-1.69,0.956-4.544,0.305-5.328,1.24l-0.736-0.767l10.311-3.113l-11.008,3.052   c-1.905-1.171-5.292-1.467-6.474-2.875c-3.85-0.738-7.661-3.079-11.792-4.043l-0.437-0.741l-0.524,0.255   c-1.68-1.452-3.85-0.738-5.231-2.164c-4.777-1.622-10.069-3.089-15.106-4.032c-12.278-3.082-26.082-4.791-38.085-4.135   c-1.402-2.331,3.108-4.546-1.006-5.709c-2.192-0.192-3.804,2.177-4.732,3.601c-0.935,15.277,2.817,29.759,7.626,43.631   l-2.413,1.194l1.746-0.45c-0.26,0.68-1.69,0.956-2.431,1.393c-1.905-1.171-4.804,0.985-6.65,1.426   c0.979,0.286,2.197-1.012,3.132-0.228c-1.23,0.294-2.894,0.951-3.838,0.267c-0.94,0.42-3.319,1.215-3.18,1.93   c-5.467,0.526-10.029,3.339-15.076,4.804l1.204,0.005l-0.442,0.463c-0.711,1.243-2.132,1.42-2.85,0.453l-10.995,4.057l-0.044,0.498   c-0.468,0.762-1.702-0.049-1.386-0.222l-9.873,3.854l0.486-0.961c-0.442,0.463-1.473,0.775-1.227,1.398l-29.737,11.753   l-2.651,0.471l0.281,0.225l-0.949,0.519c-4.081,0.747-6.516,3.345-9.791,4.062l0.273,0.325l-3.591,0.89   c-35.677,15.353-71.611,31.382-105.437,52.012c-0.447,1.667,1.42,2.132,2.355,2.916L0,213.589c2.197-1.012,4.106,1.263,6.259,0.748   l13.92-6.512c35.474-15.367,70.667-30.959,107.11-43.631c2.642,7.659,6.975,14.363,13.92,19.889   c1.675,2.656,4.966,4.048,7.464,6.475c5.255,6.483,11.944,11.485,19.181,14.828l-0.442,0.463c1.879,1.469,3.569,0.513,4.971,2.844   c4.275,0.474,7.392,3.859,11.506,5.022c1.204,0.005,2.335-0.298,2.854,0.651l-0.199-0.017l2.421,1.015l-0.767,0.736   c1.183-0.9,2.447,0.716,3.876,0.44l0.486-0.961c0.299,0.026,0.281,0.225,0.463,0.442l-0.199-0.017l1.966,0.473l-2.153,0.514   c0.806-0.03,1.187,0.204,1.723,0.954c-0.984,0.918-1.879-1.469-3.569-0.513c3.789,1.436,7.678,2.88,11.698,2.83   c-0.243,0.481-0.905,0.021-0.75,0.537c0.463,0.442,1.005-0.012,1.248-0.493l0.22,0.923l0.468-0.762   c0.741-0.437,1.884,0.265,1.923,0.971l-1.928,0.233c0.979,0.286,2.408,0.01,3.612,0.015c0.463,0.442,1.225,0.91,1.182,1.408   c-44.354,7.864-86.507,21.542-125.557,42.218l-0.481-0.243c-0.017,0.199-0.044,0.498-0.243,0.481   c-7.384-1.65-8.165,8.42-14.372,9.383l1.928-0.233c-0.746,1.641-2.843,2.662-2.584,4.291c-1.928,0.233,1.151,2.911-1.483,3.183   c0.987,0.187,0.983,1.391,1.402,2.331c-2.114,1.22,1.233,3.119,1.635,4.259l-1.91,0.034c9.829,6.983,21.041,10.775,33.099,12.934   c14.873,2.104,30.881,5.01,46.037,5.031c27.5,1.201,53.381,0.253,78.576-5.472l1.391-0.983c3.331-0.21,7.174-1.681,10.288-1.71   l-0.225,0.281l2.677-0.77l-0.255-0.524c6.45-1.443,13.238-2.154,19.187-4.746l0.238,0.723c2.431-1.393,5.064-1.665,7.642-2.443   c1.396-2.187,4.318-0.024,5.788-1.903c5.97-1.686,12.2-4.052,17.97-5.756c-0.481-0.243-1.204-0.005-1.884-0.265   c-1.469,1.879-4.055,0.448-6.269,1.66c-1.153,1.706-2.608-0.027-3.336,1.415l-8.803,1.94c11.221-4.339,24.178-6.718,35.914-11.213   l-10.068,2.633c-1.166,0.701-3.137,1.432-4.297,0.929l0.044-0.498c-0.966,0.719-2.408-0.01-2.132,1.42   c-2.165-0.491-6.269,1.66-8.417,0.97c9.553-4.786,20.422-6.244,29.659-10.856c-2.153,0.514-4.267,1.735-6.65,1.426l0.741-0.437   c-2.426,0.189-4.566,1.709-6.433,1.244c3.615-4.602,10.328-3.312,14.899-6.225c-0.736-0.767-2.612,1.177-3.639,0.284   c-7.703,3.141-16.05,3.314-23.935,6.238l-0.486,0.961l-1.161-0.503c-5.267,0.543-11.658,3.598-17.596,3.781   c8.925-3.335,18.953-4.365,27.795-7.908c-7.871,1.62-15.613,4.055-23.51,5.974c-16.536,4.275-34.296,7.64-50.588,9.126   c-5.921-0.016-12.64,2.207-17.751,0.957l-0.26,0.68c-2.646-0.733-5.224,0.045-7.948,0.208c-2.403-1.214-5.722,0.001-7.87-0.689   c-2.401,2.199-4.296-1.38-6.671,0.521l-19.625-1.717c-1.187-0.204-2.431,1.393-3.114,0.029   c-22.972-3.616-48.107-4.309-68.233-17.514l0.442-0.463l0.281,0.225l-0.039-0.706c2.651-0.471,5.744-1.405,8.102-3.106   c8.145-3.604,17.252-6.722,25.657-11.006c27.37-7.644,54.102-19.459,82.925-23.06l-0.463-0.442l2.642-0.371   c-0.398-0.035-0.78-0.269-0.654-0.559l18.705-2.68l2.148,0.69l-0.039-0.706l0.299,0.026c0.182,0.217,0.961,0.486,0.238,0.723   c0.966-0.719,1.68,1.452,2.109-0.016c-0.044,0.498,1.667,0.447,1.949,0.672l-1.425-0.928l0.199,0.017   c-0.017,0.199,0.199,0.017,0.498,0.044c0.706-0.039,1.702,0.049,1.641,0.746l-0.706,0.039c1.432,3.137,5.96,0.722,8.627,2.361   c0.685-0.944,2.187,1.396,2.352-0.497l2.104,1.188l0.486-0.961c0.281,0.225,0.979,0.286,0.463,0.442   c1.961,1.677,3.093-0.934,5.28,0.462l-0.225,0.281c1.641,0.746,4.081-0.747,5.778,0.506l-2.669,0.67   c2.347,0.707,6.501,0.268,9.148,1.001l-0.039-0.706c0.225-0.281,0.498,0.044,0.68,0.26c-0.225,0.281-0.243,0.481-0.243,0.481   l1.473-0.775c2.629,0.933,6.259,0.748,9.074,0.693c-3.071-0.469-8.169-0.715-10.728-2.444c6.003,0.224,12.162,0.964,18.01,0.672   c-0.017,0.199-0.225,0.281-0.243,0.481c0.498,0.044,0.724-0.238,0.949-0.519c2.192,0.192,4.561-0.504,6.926,0.004   c0.728-1.442,2.608,0.027,3.894,0.24c4.098-0.946,8.572-0.455,12.691-0.496c-3.828-2.142-7.661-3.079-12.178-3.073   c-0.692-1.265,0.91-1.225,1.197-2.204c-0.463-0.442-1.217-1.01-1.979-1.478c-10.307-3.813-21.824-4.118-33.025-4.596   c-45.806-6.517-92.23-16.3-123.41-53.459c4.761-0.487,10.5-0.688,15.568-1.248c3.153,0.677,6.467,0.666,9.053-0.212l-0.017,0.199   c0.017-0.199,0.984-0.918,1.403,0.022c5.778,0.506,12.653-1.202,18.413-0.497c3.551,0.712,7.13-1.183,9.299,0.412   c-0.498-0.044-0.987-0.187-1.685-0.248c1.225,0.91,3.37,0.496,4.6,0.202l-2.165-0.491l2.37-0.696   c8.195,0.416,19.669,1.219,27.5,1.201c0.255,0.524,0.762,0.468,0.719,0.966c5.323-0.036,10.754,2.145,16.039,1.403l-0.005,1.204   c6.484,0.467,12.743,1.215,18.437,3.821l-1.199-1.209c3.153,0.677,6.955,3.118,9.793,1.66l14.649,8.108l0.442-0.463   c0.762,0.468,0.502,1.148,0.476,1.447c1.491-0.974,2.91,1.158,4.093,0.258c-1.923-0.971-2.662-2.843-4.81-3.533   c0.529-1.459,1.403,0.022,2.17-0.714c-3.833-0.938-6.452-4.279-10.358-5.524l0.243-0.481c-1.667-0.447-3.347-1.899-4.564-2.909   l0.243-0.481l-2.667-1.639l-0.741,0.437c-0.281-0.225-0.437-0.741-0.944-0.685c0.044-0.498,0.442-0.463,0.486-0.961   c-1.442-0.728-3.083-1.474-4.048-3.064l0.723-0.238c-2.442-1.92-4.784-3.832-7.214-4.747l0.944,0.685   c-2.408-0.01-1.697-1.253-3.828-2.142l0.542-0.455c-2.143-1.894-3.619-4.533-6.447-5.483l1.862,1.669   c-2.132,1.42-1.636-1.95-2.923-2.163l0.498,0.044c-1.402-2.331-2.575-3.839-5.277-5.079c-3.614-5.737-10.966-11.198-14.41-17.723   l8.427-3.378l-0.463-0.442c0.199,0.017,0.524-0.255,0.723-0.238c0.481,0.243,0.039,0.706,0.22,0.923l4.285-1.934l2.37-0.696   c0.192-2.192,3.86-1.67,5.775-2.908l0.437,0.741c1.915-1.238,4.124-1.245,5.758-2.708l-0.481-0.243   c4.29-3.138,11.944-4.576,17.958-6.761l-2.639,1.476l0.78,0.269c5.225-2.354,10.333-4.517,16.06-5.722   c0.082,0.208-0.026,0.299-0.126,0.29c0.208-0.082,0.407-0.065,0.615-0.147c2.823,2.154,7.205,4.846,10.093,7.408   c2.165,0.491,2.667,1.639,4.083,2.666c2.844,3.06,7.231,4.548,9.126,8.126c4.104,3.571,7.442,7.879,11.251,12.528   c0.973,3.799,4.371,7.409,6.483,10.806c1.187,0.204,2.192,0.192,2.876-0.752c1.166-0.701,1.199,1.209,1.718,2.158   c0.044-0.498,0.723-0.238,1.005-0.012c-0.199-0.017-0.225,0.281-0.723,0.238c0.463,0.442,0.961,0.486,1.442,0.728   c-0.667,0.745,1.481,1.435,0.034,1.91c3.373,1.6,3.111,6.897,7.178,7.454l-1.939-3.081l0.888,0.178   c-0.381-0.234-0.745-0.667-1.096-0.096c0.529-1.459-1.631-3.154-0.99-3.6l-0.75,0.537l-1-1.192l1.148-0.502l-0.745-0.667   l-0.26,0.68c-0.432-1.945-2.177-3.804-2.626-5.55c0.199,0.017,0.524-0.255,0.498,0.044l-0.294-1.23l0.706-0.039   c-0.463-0.442-0.918-0.984-1.156-1.707l-0.524,0.255c-0.719-0.966-1.463-1.634-1.259-2.82c0.746-1.641-2.9-3.566-0.968-5.003   l-1.199-1.209c0.225-0.281,0.442-0.463,0.75-0.537c-2.172-5.008-4.798-10.558-6.97-15.567l0.459-0.662   c-3.09-5.992-4.771-13.166-6.431-19.434l0.481,0.243l-0.463-0.442l17.086-4.829c-0.255-0.524-2.165-0.491-2.933,0.245l0.264,0.425   c-1.91,0.034-3.076,0.735-4.761,0.487c-0.425,0.264-1.43,0.276-0.992,1.017l-8.123,2.2l-0.255-0.524l1.646-0.458   c-0.961-0.486-1.69,0.956-2.408-0.01c5.45-2.635,10.735-3.377,16.986-4.838l-0.463-0.442l0.442-0.463   c-5.003,0.968-10.033,2.234-14.59,3.843c-0.923,0.22-2.894,0.951-2.872-0.452c2.894-0.951,6.676-1.725,9.587-2.875l1.239-0.394   l0.009-0.1c2.396-0.995,4.082-3.056,6.716-3.327c-0.044,0.498-0.442,0.463-0.468,0.762c1.192-1,3.076-0.735,3.86-1.67   c-1.161-0.503-2.59-0.227-3.586-0.314l4.566-1.709c-3.53,0.193-5.949,2.591-9.085,4.023l-0.463-0.442   c-1.166,0.701-2.608-0.027-4.081,0.747c-0.299-0.026-0.589-0.152-0.87-0.377c-1.538,0.367-4.7-0.21-5.463,1.63   c-0.918-0.984-1.68-1.452-2.91-1.158c1.915-1.238,6.559-1.534,8.456-2.573l-0.04,1.603l1.603,0.04   c1.408-1.182,2.209-0.007,3.6-0.99c-0.77-2.677,3.119-1.233,4.021-2.359l-0.463-0.442l1.148-0.502   c-2.613,1.177-5.688,1.912-8.664,2.655l-0.238-0.723c1.248-0.493,3.149-0.427,3.86-1.67c-1.222,0.194-4.804,0.985-7.217,2.179   l0.213-1.286c-2.17,0.714-4.358,1.626-7.369,2.768l-0.476-1.447l3.392-0.908c-1.178-0.304-2.127,0.215-3.076,0.735   c-0.714-2.17-0.946-4.098-1.669-6.169c0.698-10.278-0.024-20.38,3.347-30.223c1.872-0.74,3.139,1.981,4.993,1.441l-0.169,0.788   l0.68,0.26c0.044-0.498-0.264-0.425-0.537-0.75c0.542-0.455,0.966-0.719,1.746-0.45c0.514,2.153,3.37,0.496,4.534,2.103   c0.476,1.447-1.695,2.161-2.137,2.624c0.039,0.706,0.719,0.966,1.243,0.711c0.665,3.873,4.316,4.594,7.183,6.25   c2.624,2.137,4.767,4.031,7.651,5.488c2.831,4.363,7.966,7.623,10.814,11.787l-0.225,0.281c2.17-0.714,2.182,2.6,3.568,2.822   c-4.042,1.453-10.323,2.108-14.391,3.86c-2.153,0.514-0.442,0.463-1.95,1.636l12.901-2.887c0.049-1.702,2.613-1.177,4.059-1.652   c1.415,3.336,4.503,3.606,5.238,6.682l-0.225,0.281c6.483,10.806,13.672,21.574,15.814,33.807l-0.984,0.918l0.905-0.021   c-0.044,0.498-0.269,0.78-0.286,0.979c1.453,4.042,0.208,7.948,1.644,12.19c-1.474,3.083,0.477,7.169,0.263,10.764   c-1.434,1.481,0.956,1.69,0.427,3.149c-25.632,4.985-49.313,22.086-55.352,48.661c-0.02,4.817,1.004,10.327,2.639,14.585   c1.624,0.945,2.112,3.397,3.818,4.55c-0.768,3.045,4.311,5.798,2.179,7.217l0.949-0.519c10.791,13.191,29.459,15.527,44.851,10.549   c0.719,0.966,1.94,0.772,2.889,0.253l-0.255-0.524l6.919-2.205c1.183-0.9,3.868,0.539,4.315-1.128   c6.975-1.699,13.447-4.545,19.409-8.44c0.225-0.281,0.928-1.425,1.672-0.757c6.432-6.966,15.097-11.93,17.502-21.055   c-3.362,1.713,1.175-3.109-1.874-2.674l0.503-1.161c-1.403-0.022-2.442-1.92-1.731-3.163l-0.741,0.437   c-0.745-0.667,0.447-1.667,0.01-2.408c-0.905,0.021-2.109,0.016-2.104-1.188c-0.442,0.463-0.685,0.944-1.209,1.199   c-2.923-2.163-0.699-5.783-2.88-8.383l-0.248,1.685c-1.91,0.034-2.36-1.712-4.045-1.96c-0.427-3.149-2.652-5.251-4.102-8.189   l-0.498-0.044l-0.204,1.187c2.117,2.193,3.857,5.256,4.102,8.189l-0.706,0.039c0.254,2.833-1.865,5.257-3.66,7.409   c-0.498-0.044-0.463-0.442-0.745-0.667c-2.37,0.696-1.034-3.102-2.42-3.324c-0.508,2.365-0.436,4.981-1.433,7.202   c-3.127-0.976-2.415-4.528-5.243-5.478c0.017-0.199,0.017-0.199,0.243-0.481c-0.741,0.437-2.17,0.714-2.59-0.227   c-1.209,1.199-3.331,0.21-5.003,0.968l0.026-0.299c-2.17,0.714-4.318,0.024-6.528,0.031l1.01-1.217   c-0.956-1.69,1.171-1.905,1.717-3.564l-1.161-0.503c-0.276-1.43,3.154-1.631,1.232-2.603l0.706-0.039l-0.913-2.188   c-0.983-1.391,1.434-1.481,1.894-2.143l-0.42-0.94c1.928-0.233-0.008-2.209,0.651-2.854c-0.255-0.524-0.719-0.966-1.143-0.702   c-0.238-0.723-1.238-1.915-0.016-2.109c-0.432-1.945-2.188,0.913-2.629-0.933l0.243-0.481l0.281,0.225l0.971-1.923   c-0.918-0.984-1.189-3.617-2.58-2.635l0.281,0.225l-0.724,0.238c-1.169-0.403-3.114,0.029-2.923-2.163l-0.498-0.044   c-1.178-0.304-1.183,0.9-1.95,1.636c-2.391-0.209-5.982,0.681-6.717-2.395l1.43-0.276l-0.281-0.225   c-0.966,0.719-3.127-0.976-3.093,0.934c-1.702-0.049-1.959,1.736-3.38,1.913l0.463,0.442l-1.491,0.974l-0.437-0.741l-0.442,0.463   l-0.255-0.524c-0.928,1.425-2.894,0.951-4.059,1.652c-0.264-0.425-0.961-0.486-1.204-0.005c-4.037,0.249-8.395,1.875-10.52,5.504   c-0.961-0.486-2.401,2.199-3.114,0.029c10.319-11.243,26.355-21.284,41.95-14.8c-0.762-0.468-1.182-1.408-2.143-1.894   c2.915-0.046,5.513,2.39,7.937,4.509l0.468-0.762l5.252,3.069l-1.645-1.85l0.451-0.563c-3.117-3.385-5.922-5.738-9.581-8.668   l0.723-0.238l-2.429-0.915l0.455,0.542c-2.165-0.491-5.523,0.019-6.921-1.208c1.634-1.463,1.462-4.088,1.147-6.224   c2.103-4.534,0.698-10.278,2.585-14.63c0.481,0.243,1.182,1.408,1.641,0.746c0.951,2.894-0.273,7.706,3.803,8.163   c0.685-0.944-0.215-2.127-0.752-2.876l1.675-13.405l0.741-0.437c1.686-10.091,7.915-18.179,12.428-27.321l-0.458-1.646   c1.886-4.352,4.063-8.579,5.768-13.147c1.915-1.238,1.224-4.812,3.351-5.027l-0.454-0.542l1.209-1.199   c0.243-0.481-0.039-0.706-0.502-1.148l0.442-0.463c5.005,4.754,11.949,10.281,14.571,17.035c-3.818-4.55-7.675-9.806-12.944-12.676   l-0.529,1.459c1.918,2.175,4.767,4.031,5.498,6.002c-2.421-1.015-3.099-3.584-5.52-4.599l3.082,3.783l-3.867-2.848l-0.486,0.961   c2.857,4.064,8.165,7.641,9.848,12.506c-3.33-2.098-4.519-5.716-7.901-7.216c-1-1.192-3.138-4.29-4.807-2.428   c0.281,0.225,0.481,0.243,0.762,0.468l-0.425,0.264l3.862,4.052l-0.225,0.281l7.623,8.095l-0.979-0.286   c4.797,4.836,7.912,10.53,10.079,16.742c4.312,11.52-1.892,23.926-4.099,35.377c1.723,0.954-0.197,3.396,0.929,4.297   c1.248-0.493,0.945-1.624,1.413-2.386c7.43-11.496,12.171-23.228,13.672-36.949C441.33,113.173,442.987,110.306,441.775,108.092   L441.775,108.092z M267.337,289.078l0.706-0.039C267.917,289.329,267.177,289.766,267.337,289.078L267.337,289.078z    M261.43,279.727l-10.25,2.416C254.481,281.127,258.038,280.635,261.43,279.727L261.43,279.727z M248.447,282.406l1.204,0.005   l-3.331,0.21L248.447,282.406L248.447,282.406z M248.659,291.459l-3.574,0.691C245.626,291.695,247.454,291.454,248.659,291.459   L248.659,291.459z M235.303,293.804l0.264,0.425l-3.149,0.427L235.303,293.804L235.303,293.804z M221.674,298.132   c7.195-0.776,14.841-2.115,22.041-4.095c-0.017,0.199,0.173,0.316,0.364,0.433c0.615-0.147,1.239-0.393,1.954-0.532   c0.841-0.428,1.781-0.848,2.777-0.761c-0.931,0.32-1.854,0.54-2.777,0.761c-0.624,0.247-1.148,0.502-1.763,0.649   c-0.1-0.009-0.1-0.009-0.191-0.117c-8.222,2.192-16.349,3.288-24.943,5.146l-0.463-0.442c-3.843,1.471-8.876,1.633-13.455,2.336   l-0.463-0.442C210.164,300.036,216.108,298.649,221.674,298.132L221.674,298.132z M139.161,303.863l12.942,1.233   c-4.02,0.05-9.048-0.992-13.185-0.752L139.161,303.863L139.161,303.863z M257.137,231.269l1.685,0.248l0.498,0.044l-0.017,0.199   l-2.183-0.291L257.137,231.269L257.137,231.269z M197.893,218.858c-0.966,0.719-1.685-0.248-2.365-0.508   C195.745,218.168,197.157,218.091,197.893,218.858L197.893,218.858z M276.701,102.885c-5.528,1.223-11.039,4.555-17.004,5.037   c3.787-1.977,6.225-1.162,9.631-3.373c0.243-0.481-0.537-0.75-0.463-0.442c-2.183-0.291-3.324,2.42-5.246,1.448l-5.762,1.604   c0.1,0.009,0.199,0.017,0.199,0.017s0,0-0.009,0.1c0.199,0.017,0.407-0.065,0.507-0.056c-0.225,0.281-0.524,0.255-0.923,0.22   c0.199,0.017,0.199,0.017,0.416-0.164c-0.1-0.009-0.1-0.009-0.199-0.017c-0.697-0.061-1.664,0.658-1.91,0.034   c5.97-1.686,11.77-2.584,17.727-5.275L276.701,102.885L276.701,102.885z M259.692,109.126l-1.005,0.012l0.723-0.238   L259.692,109.126L259.692,109.126z M257.099,105.487l0.524-0.255l0.199,0.017l-0.442,0.463L257.099,105.487L257.099,105.487z    M260.18,103.548l0.255,0.524C260.253,103.855,259.53,104.093,260.18,103.548L260.18,103.548z M273.11,101.467l-4.804,0.985   C269.559,100.755,271.452,100.92,273.11,101.467L273.11,101.467z M268.836,100.992c-0.199-0.017-0.442,0.463-0.667,0.745   l0.706-0.039c-0.425,0.264-0.425,0.264-0.905,0.021L268.836,100.992L268.836,100.992z M266.201,103.573l-1.945,0.432l1.872-0.74   L266.201,103.573L266.201,103.573z M263.555,102.839l0.017-0.199l0.706-0.039l-0.017,0.199L263.555,102.839L263.555,102.839z    M264.516,103.325l0.741-0.437l0.706-0.039L264.516,103.325L264.516,103.325z M230.961,84.127l0.199,0.017l-0.026,0.299   l-0.199-0.017L230.961,84.127L230.961,84.127z M162.962,132.786c-0.044,0.498-0.767,0.736-1.022,0.212   C162.238,133.024,162.481,132.543,162.962,132.786L162.962,132.786z M242.189,156.582l0.039,0.706   c1.403,0.022,1.22,2.114,3.365,1.7c-0.746,1.641,1.879,1.469,2.905,2.362c-29.712-4.607-61.801-8.418-93.844-3.593   c-1.915,1.238-4.579,0.704-6.732,1.218l-14.148,3.38l-0.255-0.524c18.2-7.241,37.098-14.422,55.571-21.338l-0.463-0.442l1.91-0.034   c7.603-3.149,15.341-6.688,23.2-9.313c2.209-0.007,3.16,2.886,4.546,3.108c-0.243,0.481,0.519,0.949,0.983,1.391l0.26-0.68   C227.21,141.92,234.096,151.557,242.189,156.582L242.189,156.582z M222.327,111.68l1.863-0.64l-0.463-0.442l-6.23,2.366   c-0.017,0.199,0.281,0.225,0.481,0.243c-0.723,0.238-1.928,0.233-1.915,1.238l-0.481-0.243c-0.281-0.225,1.646-0.458,1.227-1.398   l-1.672,0.757c-5.997-11.767-9.569-23.724-10.021-36.914c1.255,1.716,3.59,1.418,5.287,2.671l0.519,0.949   c4.777,1.622,9.511,1.434,14.864,2.204c-0.286,0.979,0.701,1.166,1.199,1.209c0.923-0.22,1.161,0.503,1.723,0.954   c5.492,1.484,10.268,3.107,16.029,3.812c6.249,3.157,13.378,4.282,19.184,7.902l-0.225,0.281l0.961,0.486   c-0.685,0.944-2.639,1.476-3.137,1.432c-0.248,1.685,1.928-0.233,3.088,0.27l-0.442,0.463l0.281,0.225   c-1.403-0.022-3.319,1.215-5.246,1.448l0.034,1.91c1.192-1,2.695-0.969,3.843-1.471c-0.767,0.736-2.387,0.895-2.132,1.42   c1.486,0.23,2.911-1.151,4.267-1.735l1.187,0.204c-1.72,0.151-3.423,2.411-5.48,1.829l-1.166,0.701l0.459-0.662l-1.984-0.274   c0.706-0.039,1.192-1,0.529-1.459c-3.612-0.015-7.399,1.963-11.298,2.926c-2.608-0.027-5.982,0.681-8.603,1.958   c-3.357,0.509-7.23,1.174-10.029,3.339c4.822-1.184,9.812-3.157,14.889-3.817c0,0,0.276,1.43,1.442,0.728l-1.915,1.238l1.161,0.503   l-0.498-0.044l0.463,0.442l-0.199-0.017c-0.026,0.299-0.035,0.398-0.044,0.498l0,0l0,0l0,0c-1.204-0.005-3.513-0.006-4.042,1.453   l-0.78-0.269l0.785-0.935c-2.651,0.471-4.54,1.41-7.399,1.963c3.605-2.194,6.208-0.963,9.306-3.101   c-1.398-1.227-4.254,0.431-5.965,0.482c0.741-0.437,1.91-0.034,1.889-0.939c-4.076-0.457-7.859,2.625-11.497,2.909   c0.017-0.199-0.281-0.225-0.255-0.524C225.576,111.261,223.865,111.312,222.327,111.68L222.327,111.68z M249.909,105.058   c0.026-0.299-0.182-0.217-0.481-0.243c1.204,0.005,2.188-0.913,3.6-0.99c-1.69,0.956-3.124,2.437-5.506,2.128L249.909,105.058   L249.909,105.058z M246.799,106.192l-0.281-0.225l0.741-0.437l0.199,0.017L246.799,106.192L246.799,106.192z M255.189,105.52   c-1.209,1.199-4.341,1.427-5.987,1.885C251.355,106.891,252.98,105.528,255.189,105.52L255.189,105.52z M255.681,109.077   c-0.468,0.762-2.661,2.879-3.817,1.172C252.748,109.322,254.446,110.575,255.681,109.077L255.681,109.077z M238.446,109.878   l-0.685,0.944l-0.481-0.243L238.446,109.878L238.446,109.878z M236.258,110.79l-0.468,0.762l-0.199-0.017L236.258,110.79   L236.258,110.79z M235.274,111.708c0.238,0.723-1.91,0.034-1.672,0.757C232.922,112.205,234.793,111.465,235.274,111.708   L235.274,111.708z M231.727,109.792l0.68,0.26C232.182,110.333,230.761,110.51,231.727,109.792L231.727,109.792z M228.583,117.045   c0.971-1.923,2.899-2.156,4.264-2.839c0.026-0.299-0.182-0.217-0.481-0.243l0.442-0.463c-0.741,0.437-2.127,0.215-2.613,1.177   c0,0-0.706,0.039-1.412,0.077c-0.94,0.42-1.924,1.337-2.885,0.852c-1.23,0.294-0.082-0.208,1.456-0.575   c-0.507,0.056-1.005,0.012-1.421,0.177c0.009-0.1,1.122-0.203,2.235-0.306c0.308-0.073,0.507-0.056,0.814-0.13   c0.1,0.009,0.208-0.082,0.308-0.073c0.308-0.073,0.524-0.255,0.841-0.428l-2.608-0.027c1.464-0.675,4.297-0.929,5.489-1.929   l0.039,0.706c1.204,0.005,1.723,0.954,3.114-0.029c-0.529,1.459-2.214,1.212-3.098,2.138l0.979,0.286   C232.201,115.856,230.511,116.812,228.583,117.045L228.583,117.045z M235.983,115.083l0.425-0.264l1.005-0.012L235.983,115.083   L235.983,115.083z M239.137,113.451c-1.161-0.503-2.396,0.995-3.817,1.172c0.253-2.889,5.064-1.665,7.404-3.167   c3.635-1.388,7.46-2.66,11.233-3.334C249.43,110.537,243.946,111.262,239.137,113.451L239.137,113.451z M239.881,114.119   l3.319-1.215l0.199,0.017L239.881,114.119L239.881,114.119z M242.214,118.439c1.646-0.458,2.617-2.381,4.302-2.133   C245.632,117.232,243.163,117.919,242.214,118.439L242.214,118.439z M247.259,111.251c0.719,0.966,1.646-0.458,2.408,0.01   c-0.199-0.017-0.217,0.182-0.217,0.182c0.455,0.542,1.685,0.248,2.408,0.01l-2.413,1.194l-0.519-0.949l-1.672,0.757   C247.515,111.775,247.515,111.775,247.259,111.251L247.259,111.251z M247.764,115.812c5.026-2.371,10.541-4.599,16.086-6.021   L247.764,115.812L247.764,115.812z M263.591,108.163c4.766-1.691,9.847-3.555,14.651-4.54   C273.134,105.785,268.339,106.671,263.591,108.163L263.591,108.163z M304.258,94.254l0.255,0.524l-0.524,0.255L304.258,94.254   L304.258,94.254z M304.728,96.905l-2.17,0.714l1.872-0.74L304.728,96.905L304.728,96.905z M290.155,92.518l-1.005,0.012   C289.449,92.557,289.666,92.375,290.155,92.518L290.155,92.518z M288.456,95.883l1.239-0.394c0.243-0.481,0.832-0.329,1.239-0.394   l-1.239,0.394c-0.009,0.1-0.108,0.091-0.117,0.191c2.833-0.254,6.026-1.179,7.876-2.824c-1.468-0.43-4.042,1.453-5.042,0.262   c-1.434,1.481-3.998,0.955-4.727,2.397c-0.22-0.923-1.204-0.005-1.667-0.447c4.766-1.691,9.592-4.08,14.634-4.341l-3.111,1.133   c1.187,0.204,3.855-0.466,5.246-1.448l0.437,0.741l-1.464,0.675l0.455,0.542l-1.52,0.168c-0.017,0.199-0.026,0.299,0.073,0.308   c-0.598-0.052-1.213,0.095-2.443,0.389c0.238,0.723,1.403,0.022,2.391,0.209c-3.093,0.934-7.854,1.421-11.073,2.645   C289.191,96.65,288.737,96.108,288.456,95.883L288.456,95.883z M292.814,94.257c0.706-0.039,0.949-0.519,1.629-0.259   C294.018,94.262,293.52,94.218,292.814,94.257L292.814,94.257z M302.169,95.176c0.238,0.723-0.966,0.719-1.391,0.983l-0.281-0.225   C300.922,95.669,301.381,95.006,302.169,95.176L302.169,95.176z M296.421,95.476l-0.524,0.255l0.225-0.281L296.421,95.476   L296.421,95.476z M295.174,95.969l-0.425,0.264l-0.706,0.039L295.174,95.969L295.174,95.969z M292.037,97.401l-0.923,0.22   c0.017-0.199,1.365-0.684,2.188-0.913l-0.984,0.918L292.037,97.401L292.037,97.401z M293.236,98.61   c2.197-1.012,4.285-1.934,6.737-2.422l-0.442,0.463c1.403,0.022,3.574-0.691,5.042-0.262   C300.691,97.154,297.095,99.249,293.236,98.61L293.236,98.61z M307.681,107.904l-0.503,1.161c-3.37-0.496-4.767-4.031-7.668-5.288   l0.017-0.199l-1.944-1.877l7.399-1.963c1.177,2.613,2.609,5.749,3.062,8.6L307.681,107.904L307.681,107.904z M324.177,89.171   l0.199,0.017l-1.23,0.294L324.177,89.171L324.177,89.171z M321.504,88.736l0.199,0.017c-0.923,0.22,0.039,0.706-0.741,0.437   L321.504,88.736L321.504,88.736z M314.139,92.609c1.491-0.974,3.111-1.133,4.584-1.908   C317.695,92.117,315.53,91.626,314.139,92.609L314.139,92.609z M319.234,89.441l1.019-1.316c0.524-0.255,0.025,2.01,0.086,1.312   C320.04,89.411,319.732,89.485,319.234,89.441l-0.342,0.472l-4.947,1.474C314.205,90.708,317.306,89.674,319.234,89.441   L319.234,89.441z M313.104,91.816l0.498,0.044l-0.949,0.519L313.104,91.816L313.104,91.816z M317.924,84.91   c0.255,0.524-0.524,0.255-0.442,0.463C317.4,85.165,317.725,84.892,317.924,84.91L317.924,84.91z M400.606,72.669   c-1.672,0.757-3.158,0.527-5.003,0.968C396.768,72.936,398.959,73.127,400.606,72.669L400.606,72.669z M394.679,73.857l0.398,0.035   l-20.113,3.862L394.679,73.857L394.679,73.857z M402.782,76.473l0.762,0.468c-0.225,0.281-0.243,0.481-0.26,0.68   c-1.161-0.503-1.69,0.956-2.175,1.918c-0.005,1.204-2.336,2.606-3.126,4.746c-5.498,10.059-11.039,20.616-11.487,32.623   l-0.667,0.745c-2.6-13.879-7.878-26.989-15.595-38.606l35.903-6.496C405.616,73.911,404.247,75.798,402.782,76.473L402.782,76.473z    M416.189,75.839c-1.199-1.209-3.347-1.899-3.337-4.307l4.996,4.854C417.332,76.542,416.639,75.277,416.189,75.839L416.189,75.839z    M427.906,89.914l2.657,4.047C429.321,93.25,428.157,91.643,427.906,89.914L427.906,89.914z"
   id="path454"
   style="fill:#84b414;fill-opacity:1" />
    <polygon
   fill="#82B624"
   points="226.725,215.157 226.679,351.07 896.422,351.142 896.377,215.121  "
   id="polygon456"
   style="fill:#84b414;fill-opacity:1" />
    <path
   fill="#FFFFFF"
   d="M307.062,328.389l-1.841-24.855l-25.495-0.022l0.03-65.748l-29.714,0.01v90.645L307.062,328.389   L307.062,328.389z M381.538,328.481l-1.252-24.703l-32.521-0.035l0.035-8.429l29.008,0.028l0.043-24.59l-29.008-0.028l0.009-8.13   l31.516,0.047l-0.048-24.698l-61.13-0.028v90.645L381.538,328.481L381.538,328.481z M458.121,298.742   c0.038-15.355-8.252-22.706-19.989-26.242l-15.171-4.439c-2.936-0.859-3.482-1.509-3.424-3.311c0.036-2.707,0.985-3.226,3.692-3.19   c5.323-0.036,9.897,0.464,26.398,4.618l6.199-24.955c-15.539-3.668-23.193-4.539-29.612-4.598   c-20.479,0.015-35.454,10.55-35.434,29.825c0.035,15.663,8.361,22.615,20.071,26.45l14.439,4.777   c3.317,1.093,3.971,1.652,3.961,4.061c0.037,3.015-1.21,3.508-4.416,3.428c-5.016-0.037-7.407-0.246-28.407-6.902l-6.896,24.894   c17.349,5.935,23.616,6.583,32.253,6.536C441.766,329.634,458.162,318.923,458.121,298.742L458.121,298.742z M569.953,237.857   l-29.714,0.01l-9.126,48.088c-0.96,5.236-1.314,10.425-1.358,13.232l-1.503-0.031c0.045-2.807-0.498-8.074-1.457-13.177   l-9.144-48.08l-30.52,0.04l23.195,90.566l36.341-0.033L569.953,237.857L569.953,237.857z M642.635,328.437l-1.252-24.703   l-32.521-0.035l0.035-8.429l29.008,0.028l0.043-24.59l-29.008-0.028l0.009-8.13l31.516,0.047l-0.048-24.698l-61.13-0.028v90.645   L642.635,328.437L642.635,328.437z M727.173,303.008c-0.914,0.121-1.928,0.233-2.933,0.245c-2.209,0.008-2.763-0.543-3.711-2.332   l-5.885-10.754c7.371-5.077,11.997-13.205,12.003-24.748c-0.041-20.18-13.149-27.551-31.917-27.587l-38.949,0.005v90.645   l28.809,0.011l-0.031-30.619l3.214-0.02l7.653,16.931c4.716,10.35,9.773,14.507,22.022,14.474c2.508,0.019,6.762-0.412,9.803-0.749   L727.173,303.008L727.173,303.008z M697.304,268.072c0.031,6.528-1.646,8.489-5.566,8.547l-7.125-0.021l0.026-16.36l7.532-0.044   C695.675,260.3,697.329,262.051,697.304,268.072L697.304,268.072z M801.583,262.539l-0.048-24.698l-66.653-0.009l0.048,24.698   l18.27-0.008l-0.039,65.847l29.814-0.002l0.039-65.847L801.583,262.539L801.583,262.539z M876.408,298.799   c0.038-15.355-8.253-22.706-19.989-26.242l-15.171-4.439c-2.936-0.859-3.482-1.509-3.424-3.311c0.036-2.707,0.985-3.226,3.692-3.19   c5.323-0.036,9.897,0.464,26.407,4.519l6.199-24.955c-15.539-3.668-23.193-4.539-29.612-4.598   c-20.479,0.015-35.454,10.55-35.434,29.825c0.035,15.663,8.361,22.615,20.071,26.45l14.439,4.777   c3.317,1.093,3.971,1.652,3.961,4.061c0.037,3.015-1.21,3.508-4.416,3.428c-5.016-0.037-7.407-0.246-28.407-6.902l-6.896,24.894   c17.349,5.935,23.616,6.583,32.253,6.536C860.053,329.691,876.358,318.871,876.408,298.799L876.408,298.799z"
   id="path458" />
</g>
</svg>
