<?xml version="1.0" encoding="UTF-8" standalone="no"?>
<svg
   xmlns:dc="http://purl.org/dc/elements/1.1/"
   xmlns:cc="http://creativecommons.org/ns#"
   xmlns:rdf="http://www.w3.org/1999/02/22-rdf-syntax-ns#"
   xmlns:svg="http://www.w3.org/2000/svg"
   xmlns="http://www.w3.org/2000/svg"
   id="Ebene_1"
   data-name="Ebene 1"
   viewBox="0 0 1200 320"
   height="320"
   width="1200"
   version="1.1">
  <metadata
     id="metadata167">
    <rdf:RDF>
      <cc:Work
         rdf:about="">
        <dc:format>image/svg+xml</dc:format>
        <dc:type
           rdf:resource="http://purl.org/dc/dcmitype/StillImage" />
        <dc:title>alternative_kantonzug_weiss_bold</dc:title>
      </cc:Work>
    </rdf:RDF>
  </metadata>
  <defs
     id="defs165" />
  <title
     id="title2">alternative_kantonzug_weiss_bold</title>
  <g
     transform="rotate(-5,150.09381,127.62592)"
     id="g1680">
    <g
       id="g8">
      <path
         id="path4"
         style="fill:#ffffff;fill-opacity:1;stroke:none"
         transform="translate(-170.84,-75.66)"
         d="m 396.21,132 c 3.67,-42 -31,-53 -65.82,-56 -18.35,-1.61 -49.71,1.6 -62.88,16.3 24.56,-1.16 42.65,11 40.3,37.88 -2.58,29.53 -23.7,36.95 -49.29,34.71 -28.23,-2.47 -45.35,-25.79 -43,-52.66 A 77.07,77.07 0 0 1 218.1,98 139.73,139.73 0 0 0 186.32,266.66 C 203.11,148.25 388.26,223 396.21,132" />
      <path
         id="path6"
         style="fill:#ffffff;fill-opacity:1;stroke:none"
         transform="translate(-170.84,-75.66)"
         d="m 265.32,278.84 c -2.59,29.65 9.51,45.63 38.47,48.17 48,4.2 78.37,-34.39 82.33,-79.56 l 4,-45.89 -77.76,27.35 c -21.28,7.37 -44.15,16.76 -47.05,49.93" />
    </g>
    <g
       id="g160">
      <g
         id="g14">
        <path
           id="path10"
           style="fill:#ffffff;fill-opacity:1;stroke:none"
           transform="translate(-170.84,-75.66)"
           d="m 515.3,182.7 a 12.31,12.31 0 0 0 -1,-3.31 5.59,5.59 0 0 0 -1.95,-2.22 7.3,7.3 0 0 0 -3.38,-1 l -7,-0.62 a 7.51,7.51 0 0 0 -3.14,0.31 5.25,5.25 0 0 0 -2.13,1.38 7.8,7.8 0 0 0 -1.38,2.14 17.17,17.17 0 0 0 -0.94,2.68 l -16,53.89 -0.05,0.14 7.71,0.68 5.06,-16.94 20.6,1.8 1.61,17.52 7.79,0.69 -5.26,-52.84 c -0.15,-1.58 -0.33,-3 -0.54,-4.3 z m -4.11,31.3 -17.89,-1.56 8,-27.35 c 0.38,-1.16 0.64,-1.54 0.8,-1.66 0.16,-0.12 0.54,-0.23 1.5,-0.14 l 2.43,0.21 a 3,3 0 0 1 1.71,0.52 3,3 0 0 1 0.58,1.85 z" />
        <path
           id="path12"
           style="fill:#ffffff;fill-opacity:1;stroke:none"
           transform="translate(-170.84,-75.66)"
           d="m 522,240.65 -9.32,-0.81 -1.68,-17.52 -19.36,-1.7 -5.06,16.94 -9.23,-0.81 0.3,-1 16,-53.89 a 19.28,19.28 0 0 1 1,-2.78 8.66,8.66 0 0 1 1.52,-2.34 6.14,6.14 0 0 1 2.43,-1.58 8.19,8.19 0 0 1 3.46,-0.34 l 7,0.61 a 8,8 0 0 1 3.72,1.13 6.21,6.21 0 0 1 2.21,2.52 13.15,13.15 0 0 1 1.06,3.52 v 0 c 0.21,1.28 0.39,2.74 0.55,4.34 z m -7.94,-2.2 6.27,0.55 -5.19,-51.93 c -0.15,-1.57 -0.33,-3 -0.53,-4.25 v 0 a 11.23,11.23 0 0 0 -0.93,-3.1 4.75,4.75 0 0 0 -1.68,-1.92 6.63,6.63 0 0 0 -3,-0.89 l -7,-0.62 a 6.64,6.64 0 0 0 -2.81,0.26 4.55,4.55 0 0 0 -1.84,1.19 7.05,7.05 0 0 0 -1.25,1.93 18.08,18.08 0 0 0 -0.9,2.58 l -15.77,53.17 6.19,0.54 4.95,-16.96 21.83,1.91 z m -2,-23.63 -19.71,-1.73 8.3,-28.23 c 0.48,-1.46 0.81,-1.85 1.08,-2 a 2.91,2.91 0 0 1 2,-0.29 l 2.42,0.21 a 3.64,3.64 0 0 1 2.15,0.71 3.43,3.43 0 0 1 0.82,2.34 z m -17.76,-3.06 16.09,1.41 -2.75,-27.24 c -0.1,-1.13 -0.33,-1.36 -0.33,-1.36 a 2.31,2.31 0 0 0 -1.28,-0.33 l -2.42,-0.21 a 2.68,2.68 0 0 0 -1,0 8.88,8.88 0 0 0 -0.5,1.26 z" />
      </g>
      <g
         id="g20">
        <polygon
           id="polygon16"
           style="fill:#ffffff;fill-opacity:1;stroke:none"
           points="409.04,169.31 409.7,161.78 376.76,158.89 381.54,104.29 374.01,103.63 368.58,165.76 " />
        <path
           id="path18"
           style="fill:#ffffff;fill-opacity:1;stroke:none"
           transform="translate(-170.84,-75.66)"
           d="m 580.56,245.78 -42,-3.67 5.57,-63.63 9,0.79 -4.78,54.6 32.94,2.89 z m -40.34,-5 39,3.4 0.53,-6 -32.93,-2.88 4.77,-54.6 -6,-0.53 z" />
      </g>
      <g
         id="g26">
        <polygon
           id="polygon22"
           style="fill:#ffffff;fill-opacity:1;stroke:none"
           points="458.54,118.62 459.2,111.09 418.21,107.5 417.55,115.03 434.28,116.49 429.5,171.09 437.03,171.75 441.81,117.15 " />
        <path
           id="path24"
           style="fill:#ffffff;fill-opacity:1;stroke:none"
           transform="translate(-170.84,-75.66)"
           d="m 608.55,248.23 -9,-0.79 4.77,-54.6 -16.72,-1.47 0.79,-9 42.47,3.72 -0.79,9 -16.72,-1.46 z m -7.4,-2.15 6,0.52 4.85,-54.6 16.73,1.47 0.53,-6 -39.53,-3.47 -0.53,6 16.73,1.46 z" />
      </g>
      <g
         id="g32">
        <polygon
           id="polygon28"
           style="fill:#ffffff;fill-opacity:1;stroke:none"
           points="482.58,140.29 484.28,120.87 515.65,123.61 516.31,116.08 477.41,112.68 471.97,174.81 512,178.31 512.66,170.78 480.16,167.94 481.92,147.82 503.41,149.7 504.07,142.17 " />
        <path
           id="path30"
           style="fill:#ffffff;fill-opacity:1;stroke:none"
           transform="translate(-170.84,-75.66)"
           d="m 683.52,254.79 -41.52,-3.64 5.57,-63.62 40.4,3.53 -0.79,9 -31.38,-2.75 -1.56,17.93 21.49,1.88 -0.79,9 -21.49,-1.88 -1.63,18.62 32.5,2.84 z m -39.9,-5 38.53,3.37 0.53,-6 -32.5,-2.85 1.89,-21.61 21.5,1.88 0.52,-6 -21.49,-1.88 1.83,-20.92 31.37,2.74 0.53,-6 -37.41,-3.28 z" />
      </g>
      <g
         id="g38">
        <path
           id="path34"
           style="fill:#ffffff;fill-opacity:1;stroke:none"
           transform="translate(-170.84,-75.66)"
           d="m 739.59,230.42 a 13.14,13.14 0 0 0 6.46,-4.51 15.57,15.57 0 0 0 3,-8.36 l 0.47,-5.46 a 16.2,16.2 0 0 0 -0.59,-6.26 14.13,14.13 0 0 0 -2.7,-5 13.39,13.39 0 0 0 -4.42,-3.34 16.94,16.94 0 0 0 -5.77,-1.51 l -26.21,-2.3 -5.43,62.13 7.53,0.66 2.37,-27.12 17.61,1.54 6.21,27.79 v 0.09 l 7.89,0.69 z m -22.86,-28.5 18.66,1.63 a 7.55,7.55 0 0 1 5.19,2.3 7.18,7.18 0 0 1 1.44,5.58 l -0.47,5.46 a 7.21,7.21 0 0 1 -2.4,5.25 7.49,7.49 0 0 1 -5.5,1.36 L 715,221.87 Z" />
        <path
           id="path36"
           style="fill:#ffffff;fill-opacity:1;stroke:none"
           transform="translate(-170.84,-75.66)"
           d="m 747,260.34 -9.46,-0.82 -6.23,-27.88 -16.31,-1.43 -2.37,27.13 -9,-0.79 5.57,-63.63 27,2.36 a 17.71,17.71 0 0 1 6,1.58 14.28,14.28 0 0 1 4.67,3.53 14.67,14.67 0 0 1 2.84,5.22 16.9,16.9 0 0 1 0.63,6.55 l -0.48,5.46 a 16.1,16.1 0 0 1 -3.18,8.75 13.81,13.81 0 0 1 -6.17,4.54 z m -8.23,-2.22 6.32,0.55 -6.4,-28.76 0.66,-0.21 a 12.34,12.34 0 0 0 6.09,-4.25 14.76,14.76 0 0 0 2.87,-8 l 0.48,-5.47 a 15.45,15.45 0 0 0 -0.57,-6 13.06,13.06 0 0 0 -2.55,-4.69 12.54,12.54 0 0 0 -4.18,-3.15 16.12,16.12 0 0 0 -5.5,-1.45 l -25.47,-2.22 -5.3,60.63 6,0.53 2.38,-27.13 18.9,1.66 z m -5.21,-33.87 -19.4,-1.7 1.87,-21.44 19.41,1.7 a 8.2,8.2 0 0 1 5.68,2.54 7.91,7.91 0 0 1 1.63,6.15 l -0.48,5.46 a 7.84,7.84 0 0 1 -2.67,5.76 8.23,8.23 0 0 1 -6.02,1.53 z m -17.78,-3.07 17.91,1.57 a 6.8,6.8 0 0 0 5,-1.2 6.5,6.5 0 0 0 2.11,-4.72 l 0.48,-5.46 a 6.5,6.5 0 0 0 -1.26,-5 6.78,6.78 0 0 0 -4.69,-2 l -17.92,-1.57 z" />
      </g>
      <g
         id="g44">
        <polygon
           id="polygon40"
           style="fill:#ffffff;fill-opacity:1;stroke:none"
           points="616.91,124.96 616.89,124.88 606.45,123.97 601.02,186.1 608.55,186.76 612.9,136.96 630.48,188.6 630.5,188.68 640.96,189.59 646.4,127.47 638.87,126.81 634.5,176.78 " />
        <path
           id="path42"
           style="fill:#ffffff;fill-opacity:1;stroke:none"
           transform="translate(-170.84,-75.66)"
           d="m 812.48,266.07 -11.69,-1 -0.16,-0.46 -16.45,-48.36 -4.12,47 -9,-0.79 5.57,-63.62 11.67,1 0.15,0.47 16.47,48.51 4.08,-47.16 9,0.78 z m -10.59,-2.43 9.23,0.81 5.3,-60.64 -6,-0.53 -4.31,49.23 -1.46,0.17 -17.45,-51.43 -9.2,-0.81 -5.3,60.64 6,0.53 4.3,-49.06 1.46,-0.17 z" />
      </g>
      <g
         id="g50">
        <path
           id="path46"
           style="fill:#ffffff;fill-opacity:1;stroke:none"
           transform="translate(-170.84,-75.66)"
           d="m 845.7,250.84 20.59,1.81 1.61,17.52 7.8,0.68 -5.28,-52.85 c -0.15,-1.57 -0.33,-3 -0.54,-4.29 a 12.31,12.31 0 0 0 -1,-3.31 5.52,5.52 0 0 0 -1.95,-2.22 7.3,7.3 0 0 0 -3.38,-1 l -7,-0.61 a 7.31,7.31 0 0 0 -3.13,0.3 5.39,5.39 0 0 0 -2.14,1.38 7.8,7.8 0 0 0 -1.38,2.14 18.4,18.4 0 0 0 -0.94,2.69 L 833,267 v 0.15 l 7.7,0.67 z m 2.18,-7.39 8,-27.35 a 3.87,3.87 0 0 1 0.8,-1.66 c 0.15,-0.11 0.54,-0.22 1.5,-0.14 l 2.43,0.21 a 3.12,3.12 0 0 1 1.71,0.52 3,3 0 0 1 0.58,1.85 l 2.88,28.12 z" />
        <path
           id="path48"
           style="fill:#ffffff;fill-opacity:1;stroke:none"
           transform="translate(-170.84,-75.66)"
           d="m 876.53,271.67 -9.32,-0.81 -1.61,-17.52 -19.36,-1.7 -5.06,16.94 -9.24,-0.81 0.31,-1 16,-53.88 a 18.4,18.4 0 0 1 1,-2.77 8.57,8.57 0 0 1 1.52,-2.35 6.09,6.09 0 0 1 2.43,-1.57 8,8 0 0 1 3.46,-0.35 l 7,0.61 a 8.25,8.25 0 0 1 3.72,1.13 6.23,6.23 0 0 1 2.21,2.53 12.62,12.62 0 0 1 1.06,3.51 c 0.21,1.28 0.39,2.74 0.55,4.34 z m -7.94,-2.2 6.27,0.55 -5.18,-51.93 c -0.16,-1.57 -0.34,-3 -0.54,-4.25 a 11.34,11.34 0 0 0 -0.93,-3.1 4.67,4.67 0 0 0 -1.68,-1.92 6.63,6.63 0 0 0 -3,-0.89 l -7,-0.62 a 6.65,6.65 0 0 0 -2.82,0.27 4.5,4.5 0 0 0 -1.83,1.18 7.22,7.22 0 0 0 -1.26,1.94 17.94,17.94 0 0 0 -0.9,2.57 l -15.76,53.17 6.18,0.54 5.01,-16.98 21.85,2 z m -2,-23.63 -19.71,-1.72 8.3,-28.23 c 0.48,-1.47 0.81,-1.86 1.08,-2 a 3,3 0 0 1 2,-0.29 l 2.43,0.22 a 3.64,3.64 0 0 1 2.14,0.7 3.51,3.51 0 0 1 0.83,2.35 z m -17.75,-3.06 16.08,1.41 -2.73,-27.19 c -0.1,-1.14 -0.33,-1.37 -0.33,-1.37 a 2.31,2.31 0 0 0 -1.28,-0.33 l -2.42,-0.21 a 2.58,2.58 0 0 0 -1,0 7.81,7.81 0 0 0 -0.51,1.26 z" />
      </g>
      <g
         id="g56">
        <polygon
           id="polygon52"
           style="fill:#ffffff;fill-opacity:1;stroke:none"
           points="738.57,143.12 733.79,197.72 741.32,198.38 746.1,143.77 762.83,145.24 763.49,137.71 722.5,134.12 721.84,141.65 " />
        <path
           id="path54"
           style="fill:#ffffff;fill-opacity:1;stroke:none"
           transform="translate(-170.84,-75.66)"
           d="m 912.84,274.85 -9,-0.79 4.77,-54.6 -16.74,-1.46 0.79,-9 42.47,3.72 -0.79,9 -16.72,-1.46 z m -7.4,-2.15 6,0.53 4.77,-54.61 16.79,1.47 0.53,-6 -39.53,-3.49 -0.53,6 16.73,1.47 z" />
      </g>
      <g
         id="g62">
        <polygon
           id="polygon58"
           style="fill:#ffffff;fill-opacity:1;stroke:none"
           points="777.44,193.95 776.78,201.48 809.62,204.35 810.27,196.82 797.62,195.71 801.74,148.64 814.39,149.75 815.05,142.22 782.22,139.35 781.56,146.88 794.21,147.98 790.09,195.06 " />
        <path
           id="path60"
           style="fill:#ffffff;fill-opacity:1;stroke:none"
           transform="translate(-170.84,-75.66)"
           d="m 981.13,280.83 -34.33,-3 0.79,-9 12.66,1.11 4,-45.58 -12.65,-1.11 0.79,-9 34.33,3 -0.79,9 -12.65,-1.1 -4,45.57 12.65,1.11 z m -32.7,-4.37 31.34,2.74 0.53,-6 -12.66,-1.11 4.25,-48.57 12.66,1.11 0.53,-6 -31.35,-2.74 -0.52,6 12.65,1.1 -4.25,48.57 -12.61,-1.14 z" />
      </g>
      <g
         id="g68">
        <path
           id="path64"
           style="fill:#ffffff;fill-opacity:1;stroke:none"
           transform="translate(-170.84,-75.66)"
           d="m 1025.41,274.37 c -0.31,1.15 -0.6,1.53 -0.79,1.64 a 3.05,3.05 0 0 1 -1.6,0.14 l -3.73,-0.33 a 3.05,3.05 0 0 1 -1.71,-0.51 3,3 0 0 1 -0.58,-1.85 l -4.86,-53.18 v -0.1 l -7.8,-0.68 4.93,52.8 c 0.15,1.58 0.33,3 0.54,4.29 a 12.07,12.07 0 0 0 1,3.31 5.46,5.46 0 0 0 2,2.22 7.3,7.3 0 0 0 3.38,1 l 8.75,0.77 a 7.33,7.33 0 0 0 3.14,-0.31 5.63,5.63 0 0 0 2.17,-1.37 6.58,6.58 0 0 0 1.4,-2.19 c 0.33,-0.84 0.63,-1.73 0.89,-2.64 l 15.11,-54 v -0.15 l -7.71,-0.67 z" />
        <path
           id="path66"
           style="fill:#ffffff;fill-opacity:1;stroke:none"
           transform="translate(-170.84,-75.66)"
           d="m 1024.81,284.65 -8.75,-0.77 a 8,8 0 0 1 -3.73,-1.13 6.21,6.21 0 0 1 -2.21,-2.52 12.9,12.9 0 0 1 -1.06,-3.52 c -0.21,-1.28 -0.39,-2.74 -0.55,-4.34 l -5,-53.7 9.32,0.82 4.93,53.9 c 0.1,1.13 0.33,1.36 0.33,1.36 a 2.43,2.43 0 0 0 1.28,0.33 l 3.72,0.32 a 2.68,2.68 0 0 0 1.16,0 3.18,3.18 0 0 0 0.44,-1.19 v 0 l 14.67,-52.35 9.22,0.8 -0.28,1 -15.11,54 a 25.54,25.54 0 0 1 -0.92,2.72 7.28,7.28 0 0 1 -1.55,2.44 6.54,6.54 0 0 1 -2.45,1.55 8.2,8.2 0 0 1 -3.46,0.28 z m -19.65,-64.33 4.85,51.91 c 0.15,1.56 0.33,3 0.53,4.24 a 11.34,11.34 0 0 0 0.93,3.1 4.77,4.77 0 0 0 1.68,1.93 6.88,6.88 0 0 0 3,0.89 l 8.75,0.76 a 6.62,6.62 0 0 0 2.81,-0.26 5,5 0 0 0 1.9,-1.19 5.85,5.85 0 0 0 1.23,-1.95 24.79,24.79 0 0 0 0.86,-2.56 l 14.95,-53.19 -6.18,-0.54 -14.34,51.16 c -0.31,1.17 -0.66,1.81 -1.13,2.09 a 3.61,3.61 0 0 1 -2,0.24 l -3.72,-0.33 a 3.64,3.64 0 0 1 -2.15,-0.71 3.41,3.41 0 0 1 -0.82,-2.34 l -4.82,-52.65 z" />
      </g>
      <g
         id="g74">
        <polygon
           id="polygon70"
           style="fill:#ffffff;fill-opacity:1;stroke:none"
           points="921.28,186.26 921.94,178.73 900.44,176.85 902.14,157.43 933.52,160.17 934.18,152.64 895.27,149.24 889.84,211.37 929.87,214.87 930.52,207.34 898.02,204.5 899.78,184.38 " />
        <path
           id="path72"
           style="fill:#ffffff;fill-opacity:1;stroke:none"
           transform="translate(-170.84,-75.66)"
           d="m 1101.38,291.35 -41.52,-3.64 5.57,-63.62 40.39,3.53 -0.79,9 -31.37,-2.75 -1.57,17.93 21.5,1.88 -0.79,9 -21.5,-1.88 -1.63,18.62 32.5,2.84 z m -39.9,-5 38.54,3.37 0.53,-6 -32.5,-2.85 1.89,-21.61 21.49,1.88 0.53,-6 -21.49,-1.88 1.83,-20.92 31.37,2.74 0.53,-6 -37.41,-3.28 z" />
      </g>
      <g
         id="g80">
        <path
           id="path76"
           style="fill:#ffffff;fill-opacity:1;stroke:none"
           transform="translate(-170.84,-75.66)"
           d="m 512.62,278.82 a 13.29,13.29 0 0 0 -4.43,-3.34 16.67,16.67 0 0 0 -5.76,-1.52 l -26.38,-2.31 -5.44,62.13 26.39,2.31 a 16.83,16.83 0 0 0 5.93,-0.49 13.3,13.3 0 0 0 4.94,-2.52 14,14 0 0 0 3.52,-4.41 16.25,16.25 0 0 0 1.67,-6.06 L 515.91,290 a 16,16 0 0 0 -0.6,-6.25 13.87,13.87 0 0 0 -2.69,-4.93 z m -15,49.74 -18.85,-1.65 4.12,-47.07 18.85,1.65 a 7.47,7.47 0 0 1 5.17,2.29 7.19,7.19 0 0 1 1.44,5.58 L 505.53,322 a 7.23,7.23 0 0 1 -2.38,5.25 7.49,7.49 0 0 1 -5.5,1.31 z" />
        <path
           id="path78"
           style="fill:#ffffff;fill-opacity:1;stroke:none"
           transform="translate(-170.84,-75.66)"
           d="m 496.93,336.84 -27.13,-2.38 5.57,-63.62 27.13,2.37 a 17.61,17.61 0 0 1 6,1.59 14.08,14.08 0 0 1 4.68,3.53 v 0 a 14.78,14.78 0 0 1 2.84,5.21 17.09,17.09 0 0 1 0.63,6.55 l -2.85,32.59 a 17,17 0 0 1 -1.76,6.34 14.8,14.8 0 0 1 -3.7,4.64 14,14 0 0 1 -5.22,2.66 17.65,17.65 0 0 1 -6.19,0.52 z m -25.51,-3.74 25.64,2.24 a 15.89,15.89 0 0 0 5.68,-0.47 12.62,12.62 0 0 0 4.66,-2.37 13.3,13.3 0 0 0 3.32,-4.18 15.38,15.38 0 0 0 1.59,-5.77 L 515.16,290 a 15.49,15.49 0 0 0 -0.56,-6 13.39,13.39 0 0 0 -2.55,-4.69 v 0 a 12.54,12.54 0 0 0 -4.18,-3.15 16.11,16.11 0 0 0 -5.5,-1.44 l -25.64,-2.25 z m 26.17,-3.79 -19.59,-1.72 4.24,-48.59 19.6,1.71 a 8.22,8.22 0 0 1 5.67,2.55 7.91,7.91 0 0 1 1.62,6.14 l -2.85,32.6 a 7.88,7.88 0 0 1 -2.67,5.76 8.18,8.18 0 0 1 -6.02,1.55 z m -18,-3.08 18.11,1.58 a 6.7,6.7 0 0 0 5,-1.2 6.46,6.46 0 0 0 2.1,-4.72 l 2.85,-32.59 a 6.5,6.5 0 0 0 -1.25,-5 6.75,6.75 0 0 0 -4.67,-2 l -18.11,-1.59 z" />
      </g>
      <g
         id="g86">
        <polygon
           id="polygon82"
           style="fill:#ffffff;fill-opacity:1;stroke:none"
           points="359.89,255.79 359.23,263.32 392.06,266.19 392.72,258.67 380.07,257.56 384.19,210.49 396.84,211.59 397.5,204.06 364.67,201.19 364.01,208.72 376.66,209.83 372.54,256.9 " />
        <path
           id="path84"
           style="fill:#ffffff;fill-opacity:1;stroke:none"
           transform="translate(-170.84,-75.66)"
           d="m 563.58,342.67 -34.33,-3 0.79,-9 12.66,1.11 4,-45.58 -12.7,-1.14 0.79,-9 34.33,3 -0.79,9 -12.62,-1.06 -4,45.58 12.65,1.11 z m -32.7,-4.37 31.34,2.7 0.53,-6 -12.66,-1.11 4.25,-48.56 12.66,1.1 0.52,-6 -31.34,-2.74 -0.53,6 12.66,1.11 -4.25,48.56 -12.65,-1.1 z" />
      </g>
      <g
         id="g92">
        <polygon
           id="polygon88"
           style="fill:#ffffff;fill-opacity:1;stroke:none"
           points="420.62,233.25 422.32,213.82 453.7,216.57 454.36,209.04 415.45,205.63 410.02,267.76 450.05,271.27 450.7,263.74 418.2,260.89 419.96,240.78 441.46,242.66 442.12,235.13 " />
        <path
           id="path90"
           style="fill:#ffffff;fill-opacity:1;stroke:none"
           transform="translate(-170.84,-75.66)"
           d="M 621.56,347.74 580,344.11 585.57,280.48 626,284 l -0.79,9 -31.37,-2.74 -1.57,17.93 21.49,1.88 -0.78,9 -21.5,-1.88 -1.63,18.62 32.5,2.85 z m -39.9,-5 38.54,3.37 0.53,-6 -32.5,-2.84 1.89,-21.61 21.49,1.88 0.53,-6 -21.49,-1.88 1.83,-20.92 31.37,2.75 0.53,-6 -37.38,-3.38 z" />
      </g>
      <g
         id="g98">
        <path
           id="path94"
           style="fill:#ffffff;fill-opacity:1;stroke:none"
           transform="translate(-170.84,-75.66)"
           d="m 716.89,295.72 c -1.95,-2.16 -4.94,-3.43 -8.88,-3.77 l -11.36,-1 a 16.52,16.52 0 0 0 -5.85,0.5 14,14 0 0 0 -5,2.47 13.12,13.12 0 0 0 -3.56,4.37 16.35,16.35 0 0 0 -1.68,6.14 L 677.74,337 a 15.84,15.84 0 0 0 0.59,6.3 13.69,13.69 0 0 0 2.75,4.91 13.48,13.48 0 0 0 4.46,3.34 16.51,16.51 0 0 0 5.68,1.51 l 11.44,1 a 16.67,16.67 0 0 0 5.94,-0.49 13.17,13.17 0 0 0 4.93,-2.51 13.8,13.8 0 0 0 3.51,-4.4 16,16 0 0 0 1.68,-6 l 1.67,-19.05 -19.58,-1.72 -0.66,7.53 12.05,1.06 -1,11.49 c -0.21,2.43 -1,4.21 -2.39,5.28 a 7.59,7.59 0 0 1 -5.51,1.32 l -11.48,-1 a 7.42,7.42 0 0 1 -5.06,-2.29 7.09,7.09 0 0 1 -1.48,-5.58 l 2.85,-32.59 a 7.13,7.13 0 0 1 2.43,-5.24 7.41,7.41 0 0 1 5.38,-1.37 l 11.57,1 a 6.67,6.67 0 0 1 4.41,1.7 11.22,11.22 0 0 1 2.18,4.73 l 1.35,5 7.09,-1.87 h 0.12 l -1.29,-4.69 a 21.82,21.82 0 0 0 -4.48,-8.65 z" />
        <path
           id="path96"
           style="fill:#ffffff;fill-opacity:1;stroke:none"
           transform="translate(-170.84,-75.66)"
           d="m 702.59,354.83 -11.44,-1 a 17.46,17.46 0 0 1 -5.93,-1.58 14.23,14.23 0 0 1 -7.6,-8.7 A 16.79,16.79 0 0 1 677,337 l 2.85,-32.58 a 17.09,17.09 0 0 1 1.77,-6.43 13.87,13.87 0 0 1 3.75,-4.61 15,15 0 0 1 5.24,-2.6 17.57,17.57 0 0 1 6.12,-0.53 l 11.35,1 c 4.14,0.36 7.29,1.71 9.37,4 v 0 a 22.42,22.42 0 0 1 4.64,8.95 l 1.5,5.43 -8.67,2.27 -1.55,-5.75 a 10.49,10.49 0 0 0 -2,-4.42 6,6 0 0 0 -3.93,-1.46 l -11.56,-1 a 6.72,6.72 0 0 0 -4.86,1.22 6.39,6.39 0 0 0 -2.14,4.72 L 686,337.74 a 6.43,6.43 0 0 0 1.3,5 6.7,6.7 0 0 0 4.57,2 l 11.48,1 a 6.89,6.89 0 0 0 5,-1.17 c 1.2,-0.94 1.91,-2.54 2.11,-4.76 l 0.93,-10.74 -12,-1.06 0.79,-9 21.07,1.84 -1.73,19.81 a 16.84,16.84 0 0 1 -1.76,6.32 14.65,14.65 0 0 1 -3.7,4.63 14.12,14.12 0 0 1 -5.22,2.66 17.63,17.63 0 0 1 -6.25,0.56 z m -6,-63.13 a 15.73,15.73 0 0 0 -5.59,0.48 13.18,13.18 0 0 0 -4.71,2.34 12.26,12.26 0 0 0 -3.35,4.11 15.53,15.53 0 0 0 -1.6,5.87 l -2.85,32.58 a 15.14,15.14 0 0 0 0.56,6 12.71,12.71 0 0 0 6.81,7.81 16,16 0 0 0 5.42,1.44 l 11.44,1 a 16.36,16.36 0 0 0 5.68,-0.47 12.62,12.62 0 0 0 4.66,-2.37 13.22,13.22 0 0 0 3.32,-4.16 15.32,15.32 0 0 0 1.59,-5.76 l 1.6,-18.31 -18.08,-1.58 -0.53,6 12,1 -1.02,12.32 c -0.23,2.65 -1.13,4.61 -2.68,5.81 a 8.31,8.31 0 0 1 -6,1.48 l -11.48,-1 a 8.1,8.1 0 0 1 -5.55,-2.54 7.78,7.78 0 0 1 -1.68,-6.15 l 2.82,-32.6 a 7.81,7.81 0 0 1 2.72,-5.76 8.12,8.12 0 0 1 5.91,-1.53 l 11.56,1 a 7.38,7.38 0 0 1 4.9,1.94 12.07,12.07 0 0 1 2.36,5.05 l 1.18,4.3 5.76,-1.51 -1.09,-4 a 21.12,21.12 0 0 0 -4.31,-8.34 v 0 c -1.82,-2 -4.64,-3.21 -8.39,-3.54 z" />
      </g>
      <g
         id="g104">
        <path
           id="path100"
           style="fill:#ffffff;fill-opacity:1;stroke:none"
           transform="translate(-170.84,-75.66)"
           d="m 777.88,327.07 a 15.48,15.48 0 0 0 3,-8.36 l 0.48,-5.46 a 16,16 0 0 0 -0.6,-6.26 14,14 0 0 0 -2.69,-4.95 13.33,13.33 0 0 0 -4.43,-3.34 16.88,16.88 0 0 0 -5.76,-1.51 l -26.21,-2.3 -5.42,62.11 7.53,0.66 2.38,-27.13 17.61,1.54 6.21,27.8 v 0.09 l 7.89,0.69 -6.47,-29.09 a 13.14,13.14 0 0 0 6.48,-4.49 z m -29.32,-24 18.66,1.63 a 7.51,7.51 0 0 1 5.19,2.3 7.2,7.2 0 0 1 1.44,5.58 l -0.48,5.46 a 7.17,7.17 0 0 1 -2.37,5.26 7.51,7.51 0 0 1 -5.51,1.36 L 746.82,323 Z" />
        <path
           id="path102"
           style="fill:#ffffff;fill-opacity:1;stroke:none"
           transform="translate(-170.84,-75.66)"
           d="m 778.84,361.5 -9.45,-0.83 -6.24,-27.88 -16.31,-1.42 -2.37,27.12 -9,-0.79 5.53,-63.62 27,2.36 a 17.71,17.71 0 0 1 6,1.58 14.28,14.28 0 0 1 4.67,3.53 14.74,14.74 0 0 1 2.84,5.22 17.06,17.06 0 0 1 0.63,6.54 l -0.48,5.47 a 16.26,16.26 0 0 1 -3.18,8.75 v 0 a 13.89,13.89 0 0 1 -6.17,4.54 z m -8.23,-2.22 6.33,0.55 -6.4,-28.76 0.65,-0.21 a 12.41,12.41 0 0 0 6.1,-4.25 v 0 a 14.76,14.76 0 0 0 2.87,-8 l 0.47,-5.46 a 15.45,15.45 0 0 0 -0.56,-6 13.21,13.21 0 0 0 -2.55,-4.69 12.54,12.54 0 0 0 -4.18,-3.15 16.12,16.12 0 0 0 -5.5,-1.45 l -25.47,-2.23 -5.3,60.64 6,0.53 2.38,-27.13 18.9,1.66 z m -5.2,-33.88 -19.41,-1.69 1.88,-21.44 19.4,1.7 a 8.2,8.2 0 0 1 5.69,2.54 7.91,7.91 0 0 1 1.63,6.15 l -0.48,5.46 a 7.88,7.88 0 0 1 -2.67,5.76 8.18,8.18 0 0 1 -6.04,1.52 z m -17.78,-3.06 17.91,1.57 a 6.76,6.76 0 0 0 5,-1.2 6.47,6.47 0 0 0 2.12,-4.72 l 0.47,-5.46 a 6.5,6.5 0 0 0 -1.25,-5 6.79,6.79 0 0 0 -4.7,-2.05 l -17.91,-1.57 z" />
      </g>
      <g
         id="g110">
        <path
           id="path106"
           style="fill:#ffffff;fill-opacity:1;stroke:none"
           transform="translate(-170.84,-75.66)"
           d="m 829.08,294.93 a 3,3 0 0 0 1.69,1.06 16.89,16.89 0 0 0 3.12,0.49 17.32,17.32 0 0 0 3.16,0.06 3,3 0 0 0 1.84,-0.75 3.28,3.28 0 0 0 0.88,-1.74 23,23 0 0 0 0.37,-2.73 20,20 0 0 0 0.08,-2.9 3.81,3.81 0 0 0 -0.6,-1.94 3,3 0 0 0 -1.67,-1.15 14.2,14.2 0 0 0 -3,-0.53 13.68,13.68 0 0 0 -3.08,0 3.1,3.1 0 0 0 -1.85,0.84 3.87,3.87 0 0 0 -0.92,1.82 17.87,17.87 0 0 0 -0.43,2.86 21.88,21.88 0 0 0 -0.11,2.76 3.26,3.26 0 0 0 0.52,1.85 z" />
        <path
           id="path108"
           style="fill:#ffffff;fill-opacity:1;stroke:none"
           transform="translate(-170.84,-75.66)"
           d="m 833.82,297.23 a 17.62,17.62 0 0 1 -3.26,-0.52 3.67,3.67 0 0 1 -2.08,-1.34 v 0 a 4.06,4.06 0 0 1 -0.71,-2.28 23.31,23.31 0 0 1 0.11,-2.85 19.23,19.23 0 0 1 0.45,-3 4.58,4.58 0 0 1 1.11,-2.16 3.84,3.84 0 0 1 2.28,-1.06 14.61,14.61 0 0 1 3.26,0 15.06,15.06 0 0 1 3.2,0.56 3.84,3.84 0 0 1 2.06,1.44 4.68,4.68 0 0 1 0.73,2.32 20,20 0 0 1 -0.08,3 26.31,26.31 0 0 1 -0.38,2.82 4.09,4.09 0 0 1 -1.09,2.13 3.79,3.79 0 0 1 -2.29,1 19,19 0 0 1 -3.31,-0.06 z m -4.13,-2.74 a 2.27,2.27 0 0 0 1.28,0.78 17.25,17.25 0 0 0 3,0.47 17.71,17.71 0 0 0 3,0.06 2.34,2.34 0 0 0 1.4,-0.55 2.57,2.57 0 0 0 0.67,-1.35 26,26 0 0 0 0.36,-2.65 19.61,19.61 0 0 0 0.07,-2.78 3.13,3.13 0 0 0 -0.47,-1.57 2.33,2.33 0 0 0 -1.28,-0.86 17.27,17.27 0 0 0 -5.79,-0.51 2.38,2.38 0 0 0 -1.41,0.63 3.1,3.1 0 0 0 -0.74,1.46 19.35,19.35 0 0 0 -0.4,2.76 22.35,22.35 0 0 0 -0.11,2.66 2.59,2.59 0 0 0 0.42,1.45 z" />
      </g>
      <g
         id="g116">
        <path
           id="path112"
           style="fill:#ffffff;fill-opacity:1;stroke:none"
           transform="translate(-170.84,-75.66)"
           d="m 807,283.62 a 3.88,3.88 0 0 0 -0.93,1.82 18.24,18.24 0 0 0 -0.43,2.86 23.88,23.88 0 0 0 -0.11,2.76 3.34,3.34 0 0 0 0.57,1.86 3,3 0 0 0 1.7,1.08 17.8,17.8 0 0 0 3.12,0.5 18.1,18.1 0 0 0 3.16,0 3,3 0 0 0 1.84,-0.75 3.29,3.29 0 0 0 0.89,-1.74 25.27,25.27 0 0 0 0.37,-2.73 19.78,19.78 0 0 0 0.07,-2.9 3.81,3.81 0 0 0 -0.6,-1.94 3,3 0 0 0 -1.67,-1.15 14.21,14.21 0 0 0 -3,-0.53 13.77,13.77 0 0 0 -3.09,0 3.1,3.1 0 0 0 -1.89,0.86 z" />
        <path
           id="path114"
           style="fill:#ffffff;fill-opacity:1;stroke:none"
           transform="translate(-170.84,-75.66)"
           d="m 810.86,295.22 a 17.6,17.6 0 0 1 -3.27,-0.52 3.7,3.7 0 0 1 -2.08,-1.34 4,4 0 0 1 -0.71,-2.28 25.19,25.19 0 0 1 0.11,-2.84 21.16,21.16 0 0 1 0.45,-3 4.59,4.59 0 0 1 1.12,-2.16 3.78,3.78 0 0 1 2.28,-1.06 14.51,14.51 0 0 1 3.25,0 15.73,15.73 0 0 1 3.2,0.56 3.84,3.84 0 0 1 2.06,1.44 4.58,4.58 0 0 1 0.73,2.32 20,20 0 0 1 -0.08,3 22.47,22.47 0 0 1 -0.38,2.83 4.1,4.1 0 0 1 -1.09,2.12 3.76,3.76 0 0 1 -2.29,1 18.86,18.86 0 0 1 -3.3,-0.07 z m 1,-11.69 a 14,14 0 0 0 -2.91,0 2.38,2.38 0 0 0 -1.42,0.63 v 0 a 3.23,3.23 0 0 0 -0.74,1.47 19.4,19.4 0 0 0 -0.4,2.75 22.35,22.35 0 0 0 -0.11,2.66 2.59,2.59 0 0 0 0.42,1.45 2.34,2.34 0 0 0 1.28,0.78 16.46,16.46 0 0 0 3,0.47 17.7,17.7 0 0 0 3,0.06 2.34,2.34 0 0 0 1.39,-0.55 2.57,2.57 0 0 0 0.67,-1.35 21.35,21.35 0 0 0 0.36,-2.65 19.8,19.8 0 0 0 0.08,-2.78 3.24,3.24 0 0 0 -0.48,-1.57 2.3,2.3 0 0 0 -1.28,-0.86 14,14 0 0 0 -2.84,-0.51 z" />
      </g>
      <g
         id="g122">
        <path
           id="path118"
           style="fill:#ffffff;fill-opacity:1;stroke:none"
           transform="translate(-170.84,-75.66)"
           d="m 830.19,350.36 c -0.22,2.43 -1,4.21 -2.4,5.28 a 7.58,7.58 0 0 1 -5.5,1.32 l -11.48,-1 a 7.4,7.4 0 0 1 -5.1,-2.29 7.17,7.17 0 0 1 -1.45,-5.58 l 4.14,-47.36 -7.52,-0.66 -4.15,47.36 a 16,16 0 0 0 0.6,6.3 13.43,13.43 0 0 0 7.21,8.25 16.18,16.18 0 0 0 5.67,1.51 l 11.44,1 a 17.06,17.06 0 0 0 6,-0.48 13.11,13.11 0 0 0 8.4,-6.89 16.84,16.84 0 0 0 1.64,-6.11 l 4.14,-47.35 -7.53,-0.66 z" />
        <path
           id="path120"
           style="fill:#ffffff;fill-opacity:1;stroke:none"
           transform="translate(-170.84,-75.66)"
           d="m 821.59,365.24 -11.44,-1 a 17.51,17.51 0 0 1 -5.94,-1.58 14.34,14.34 0 0 1 -4.7,-3.52 14.49,14.49 0 0 1 -2.9,-5.18 16.79,16.79 0 0 1 -0.63,-6.6 l 4.21,-48.1 9,0.79 -4.19,48.1 a 6.46,6.46 0 0 0 1.26,5 6.59,6.59 0 0 0 4.6,2 l 11.48,1 a 6.88,6.88 0 0 0 5,-1.17 c 1.21,-0.94 1.91,-2.54 2.11,-4.76 l 4.21,-48.11 9,0.79 -4.21,48.11 a 17.47,17.47 0 0 1 -1.71,6.38 14.24,14.24 0 0 1 -3.66,4.61 14,14 0 0 1 -5.22,2.66 17.75,17.75 0 0 1 -6.27,0.58 z m -20,-64.36 -4.08,46.61 a 15.14,15.14 0 0 0 0.56,6 12.69,12.69 0 0 0 6.82,7.81 15.91,15.91 0 0 0 5.42,1.44 l 11.44,1 a 16.48,16.48 0 0 0 5.76,-0.46 12.79,12.79 0 0 0 4.66,-2.38 13,13 0 0 0 3.27,-4.13 A 16,16 0 0 0 837,351 l 4.08,-46.61 -6,-0.53 -4.08,46.61 c -0.23,2.65 -1.13,4.61 -2.68,5.82 a 8.33,8.33 0 0 1 -6,1.47 l -11.48,-1 a 8.13,8.13 0 0 1 -5.6,-2.55 7.94,7.94 0 0 1 -1.63,-6.14 l 4.08,-46.61 z" />
      </g>
      <g
         id="g128">
        <polygon
           id="polygon124"
           style="fill:#ffffff;fill-opacity:1;stroke:none"
           points="689.72,229.63 684.28,291.76 691.81,292.42 696.17,242.62 713.74,294.26 713.77,294.34 724.23,295.25 729.66,233.12 722.13,232.47 717.76,282.44 700.18,230.62 700.15,230.54 " />
        <path
           id="path126"
           style="fill:#ffffff;fill-opacity:1;stroke:none"
           transform="translate(-170.84,-75.66)"
           d="m 895.74,371.73 -11.69,-1 -0.16,-0.46 -16.45,-48.36 -4.11,47 -9,-0.79 5.56,-63.62 11.67,1 0.16,0.47 16.46,48.51 4.13,-47.17 9,0.79 z m -10.59,-2.43 9.23,0.8 5.3,-60.63 -6,-0.53 -4.31,49.23 -1.45,0.17 -17.46,-51.43 -9.19,-0.81 -5.31,60.64 6,0.53 4.29,-49.06 1.45,-0.17 z" />
      </g>
      <g
         id="g134">
        <polygon
           id="polygon130"
           style="fill:#ffffff;fill-opacity:1;stroke:none"
           points="754.34,262.44 756.04,243.02 787.42,245.76 788.08,238.23 749.17,234.83 743.74,296.96 783.77,300.46 784.43,292.94 751.92,290.09 753.68,269.97 775.18,271.85 775.84,264.32 " />
        <path
           id="path132"
           style="fill:#ffffff;fill-opacity:1;stroke:none"
           transform="translate(-170.84,-75.66)"
           d="m 955.28,376.94 -41.52,-3.63 5.57,-63.63 40.39,3.53 -0.79,9 -31.37,-2.75 -1.56,17.96 21.5,1.88 -0.79,9 -21.5,-1.88 -1.63,18.62 32.5,2.85 z m -39.9,-5 38.54,3.37 0.53,-6 -32.45,-2.87 1.89,-21.62 21.49,1.88 0.53,-6 -21.49,-1.88 1.83,-20.92 31.37,2.74 0.53,-6 -37.41,-3.27 z" />
      </g>
      <g
         id="g140">
        <polygon
           id="polygon136"
           style="fill:#ffffff;fill-opacity:1;stroke:none"
           points="807.25,239.91 801.81,302.04 809.34,302.7 813.7,252.9 831.27,304.55 831.3,304.62 841.75,305.54 847.19,243.41 839.66,242.75 835.29,292.72 817.71,240.9 817.68,240.82 " />
        <path
           id="path138"
           style="fill:#ffffff;fill-opacity:1;stroke:none"
           transform="translate(-170.84,-75.66)"
           d="m 1013.27,382 -11.69,-1 -0.16,-0.46 -16.42,-48.37 -4.11,47 -9,-0.79 5.56,-63.63 11.67,1 0.16,0.47 16.46,48.51 4.13,-47.16 9,0.79 z m -10.59,-2.43 9.23,0.81 5.3,-60.64 -6,-0.53 -4.31,49.23 -1.45,0.17 -17.45,-51.42 -9.19,-0.8 -5.35,60.61 6,0.53 4.29,-49.05 1.45,-0.18 z" />
      </g>
      <g
         id="g146">
        <polygon
           id="polygon142"
           style="fill:#ffffff;fill-opacity:1;stroke:none"
           points="905.15,248.48 904.49,256.01 933.69,258.56 899.54,304.81 899.52,304.84 899.02,310.55 939.4,314.08 940.06,306.55 909.74,303.9 943.88,257.65 943.9,257.62 944.4,251.91 " />
        <path
           id="path144"
           style="fill:#ffffff;fill-opacity:1;stroke:none"
           transform="translate(-170.84,-75.66)"
           d="m 1110.92,390.55 -41.87,-3.66 0.58,-6.66 0.13,-0.17 33.37,-45.21 -28.61,-2.5 0.79,-9 40.74,3.56 -0.58,6.67 -0.13,0.17 -0.62,-0.42 0.6,0.44 -33.32,45.16 29.74,2.6 z m -40.25,-5 38.89,3.4 0.52,-6 -30.91,-2.7 34.83,-47.25 0.42,-4.75 -37.76,-3.3 -0.53,6 29.78,2.6 -34.83,47.19 z" />
      </g>
      <g
         id="g152">
        <path
           id="path148"
           style="fill:#ffffff;fill-opacity:1;stroke:none"
           transform="translate(-170.84,-75.66)"
           d="m 1161.46,379.34 a 7.19,7.19 0 0 1 -2.39,5.29 7.7,7.7 0 0 1 -5.51,1.32 l -11.48,-1 a 7.33,7.33 0 0 1 -5.1,-2.29 7.16,7.16 0 0 1 -1.44,-5.58 l 4.14,-47.36 -7.53,-0.66 -4.15,47.35 a 15.84,15.84 0 0 0 0.59,6.3 13.48,13.48 0 0 0 7.21,8.26 16.68,16.68 0 0 0 5.67,1.51 l 11.45,1 a 17.22,17.22 0 0 0 6,-0.49 13.3,13.3 0 0 0 4.94,-2.52 13.49,13.49 0 0 0 3.46,-4.37 16.4,16.4 0 0 0 1.68,-6.1 l 4.14,-47.36 -7.53,-0.66 z" />
        <path
           id="path150"
           style="fill:#ffffff;fill-opacity:1;stroke:none"
           transform="translate(-170.84,-75.66)"
           d="m 1152.86,394.22 -11.44,-1 a 17,17 0 0 1 -5.93,-1.58 14.24,14.24 0 0 1 -4.71,-3.52 14.39,14.39 0 0 1 -2.89,-5.18 16.72,16.72 0 0 1 -0.63,-6.59 l 4.21,-48.11 9,0.79 -4.21,48.11 a 6.48,6.48 0 0 0 1.26,5 6.63,6.63 0 0 0 4.61,2 l 11.48,1 a 6.86,6.86 0 0 0 5,-1.17 c 1.21,-0.93 1.92,-2.54 2.11,-4.76 l 4.21,-48.1 9,0.79 -4.21,48.1 a 17.28,17.28 0 0 1 -1.72,6.38 14.24,14.24 0 0 1 -3.66,4.61 13.85,13.85 0 0 1 -5.21,2.66 17.57,17.57 0 0 1 -6.27,0.57 z m -20,-64.35 -4.08,46.61 a 15.44,15.44 0 0 0 0.56,6 13,13 0 0 0 2.6,4.65 12.79,12.79 0 0 0 4.22,3.16 16,16 0 0 0 5.42,1.44 l 11.44,1 a 16.48,16.48 0 0 0 5.76,-0.46 12.34,12.34 0 0 0 4.66,-2.38 12.77,12.77 0 0 0 3.28,-4.13 16,16 0 0 0 1.55,-5.83 l 4.08,-46.61 -6,-0.53 -4.07,46.61 c -0.24,2.66 -1.14,4.61 -2.68,5.82 a 8.36,8.36 0 0 1 -6,1.47 l -11.47,-1 a 8.1,8.1 0 0 1 -5.6,-2.54 7.87,7.87 0 0 1 -1.63,-6.14 l 4.08,-46.62 z" />
      </g>
      <g
         id="g158">
        <path
           id="path154"
           style="fill:#ffffff;fill-opacity:1;stroke:none"
           transform="translate(-170.84,-75.66)"
           d="m 1200.36,344.45 a 7.41,7.41 0 0 1 5.38,-1.37 l 11.56,1 a 6.6,6.6 0 0 1 4.41,1.71 11.11,11.11 0 0 1 2.19,4.72 l 1.31,4.92 v 0.12 l 7.09,-1.87 h 0.12 l -1.29,-4.69 a 21.71,21.71 0 0 0 -4.47,-8.64 c -2,-2.17 -4.94,-3.44 -8.89,-3.78 l -11.35,-1 a 17,17 0 0 0 -5.85,0.5 14,14 0 0 0 -5,2.48 13.08,13.08 0 0 0 -3.56,4.36 16.4,16.4 0 0 0 -1.68,6.14 l -2.85,32.59 a 15.84,15.84 0 0 0 0.59,6.3 13.48,13.48 0 0 0 7.21,8.26 16.45,16.45 0 0 0 5.67,1.5 l 11.45,1 a 17.06,17.06 0 0 0 5.93,-0.49 13.3,13.3 0 0 0 4.94,-2.52 13.87,13.87 0 0 0 3.51,-4.39 16,16 0 0 0 1.68,-6.05 l 1.66,-19.05 -19.57,-1.71 -0.55,7.51 12,1.06 -1,11.49 a 7.21,7.21 0 0 1 -2.39,5.29 7.65,7.65 0 0 1 -5.51,1.31 l -11.48,-1 a 7.42,7.42 0 0 1 -5.06,-2.29 7.09,7.09 0 0 1 -1.48,-5.58 l 2.85,-32.59 a 7.06,7.06 0 0 1 2.43,-5.24 z" />
        <path
           id="path156"
           style="fill:#ffffff;fill-opacity:1;stroke:none"
           transform="translate(-170.84,-75.66)"
           d="m 1212.4,399.43 -11.44,-1 a 17,17 0 0 1 -5.93,-1.58 14.24,14.24 0 0 1 -4.71,-3.52 14.39,14.39 0 0 1 -2.89,-5.18 16.76,16.76 0 0 1 -0.63,-6.59 l 2.85,-32.59 a 17.09,17.09 0 0 1 1.76,-6.43 14.08,14.08 0 0 1 3.76,-4.6 14.91,14.91 0 0 1 5.24,-2.61 17.32,17.32 0 0 1 6.12,-0.52 l 11.35,1 c 4.13,0.36 7.29,1.72 9.37,4 a 22.42,22.42 0 0 1 4.64,8.95 l 1.5,5.43 -8.68,2.28 -1.54,-5.76 a 10.38,10.38 0 0 0 -2,-4.41 5.89,5.89 0 0 0 -3.92,-1.47 l -11.57,-1 a 6.65,6.65 0 0 0 -4.85,1.21 v 0 a 6.43,6.43 0 0 0 -2.15,4.72 l -2.85,32.59 a 6.37,6.37 0 0 0 1.3,5 6.67,6.67 0 0 0 4.57,2 l 11.48,1 a 6.86,6.86 0 0 0 5,-1.17 c 1.21,-0.93 1.92,-2.54 2.11,-4.76 l 0.94,-10.74 -12,-1.05 0.79,-9 21.07,1.85 -1.74,19.8 a 16.65,16.65 0 0 1 -1.75,6.32 14.54,14.54 0 0 1 -3.71,4.63 14,14 0 0 1 -5.21,2.66 17.65,17.65 0 0 1 -6.28,0.54 z m -6,-63.13 a 15.73,15.73 0 0 0 -5.59,0.48 13.18,13.18 0 0 0 -4.71,2.34 12.36,12.36 0 0 0 -3.35,4.11 15.77,15.77 0 0 0 -1.61,5.87 l -2.85,32.59 a 15.44,15.44 0 0 0 0.56,6 12.76,12.76 0 0 0 6.82,7.81 16,16 0 0 0 5.42,1.44 l 11.44,1 a 16,16 0 0 0 5.67,-0.47 12.32,12.32 0 0 0 4.66,-2.37 13.11,13.11 0 0 0 3.33,-4.16 15.32,15.32 0 0 0 1.59,-5.76 l 1.6,-18.31 -18.08,-1.58 -0.53,6 12,1.06 -1.07,12.23 c -0.24,2.66 -1.14,4.61 -2.68,5.82 a 8.36,8.36 0 0 1 -6,1.47 l -11.47,-1 a 8.18,8.18 0 0 1 -5.56,-2.53 7.82,7.82 0 0 1 -1.67,-6.16 l 2.85,-32.58 a 7.81,7.81 0 0 1 2.72,-5.77 8.15,8.15 0 0 1 5.9,-1.53 l 11.57,1 a 7.36,7.36 0 0 1 4.9,2 11.83,11.83 0 0 1 2.35,5 l 1.16,4.31 5.76,-1.52 -1.1,-4 a 21,21 0 0 0 -4.3,-8.34 c -1.82,-2 -4.65,-3.21 -8.39,-3.54 z" />
      </g>
    </g>
  </g>
</svg>
