<?xml version="1.0" encoding="UTF-8" standalone="no"?>
<svg
    xmlns:dc="http://purl.org/dc/elements/1.1/"
    xmlns:cc="http://creativecommons.org/ns#"
    xmlns:rdf="http://www.w3.org/1999/02/22-rdf-syntax-ns#"
    xmlns:svg="http://www.w3.org/2000/svg"
    xmlns="http://www.w3.org/2000/svg"
    version="1.1"
    id="svg933"
    width="1478.4293"
    height="336.44452"
    viewBox="0 0 1478.4293 336.44452">
    <metadata
        id="metadata939">
        <rdf:RDF>
            <cc:Work
                rdf:about="">
                <dc:format>image/svg+xml</dc:format>
                <dc:type
                    rdf:resource="http://purl.org/dc/dcmitype/StillImage"/>
                <dc:title></dc:title>
            </cc:Work>
        </rdf:RDF>
    </metadata>
    <defs
        id="defs937">
        <clipPath
            clipPathUnits="userSpaceOnUse"
            id="clipPath949">
            <path
                d="M 0,451.613 H 1668.368 V 0 H 0 Z"
                id="path947"/>
        </clipPath>
    </defs>
    <g
        id="g941"
        transform="matrix(1.3333333,0,0,-1.3333333,-221.37479,450.92359)">
        <g
            id="g943">
            <g
                id="g945"
                clip-path="url(#clipPath949)">
                <g
                    id="g951"
                    transform="translate(384.9111,288.1377)">
                    <path
                        d="m 0,0 c 0,42.139 -35.541,50.055 -70.452,50.055 -18.418,0 -49.382,-5.927 -61.224,-21.726 24.365,3.302 43.451,-7.249 43.451,-34.224 0,-29.64 -20.392,-38.868 -46.081,-38.868 -28.329,0 -47.419,21.736 -47.419,48.71 0,5.115 0.469,9.915 1.328,14.425 -23.83,-25.048 -38.483,-58.979 -38.483,-96.275 0,-27.403 7.895,-52.919 21.517,-74.52 C -190.958,-32.974 0,-91.276 0,0"
                        style="fill:#84b414;fill-opacity:1;fill-rule:nonzero;stroke:none"
                        id="path953"/>
                </g>
                <g
                    id="g955"
                    transform="translate(267.3105,130.4873)">
                    <path
                        d="m 0,0 c 0,-29.756 13.456,-44.628 42.524,-44.628 48.169,0 75.077,41.087 75.077,86.434 V 87.87 L 42.524,53.845 C 21.966,44.648 0,33.296 0,0"
                        style="fill:#84b414;fill-opacity:1;fill-rule:nonzero;stroke:none"
                        id="path957"/>
                </g>
                <g
                    id="g959"
                    transform="translate(512.1851,251.0259)">
                    <path
                        d="m 0,0 c -2.133,1.985 -5.22,2.992 -9.176,2.992 h -11.397 c -2.034,0 -3.981,-0.34 -5.786,-1.009 -1.806,-0.67 -3.4,-1.645 -4.74,-2.897 -1.342,-1.254 -2.406,-2.82 -3.162,-4.654 -0.757,-1.833 -1.14,-3.942 -1.14,-6.268 v -32.712 c 0,-2.328 0.383,-4.423 1.14,-6.226 0.758,-1.807 1.821,-3.372 3.161,-4.653 1.341,-1.283 2.936,-2.273 4.741,-2.941 1.801,-0.669 3.748,-1.008 5.786,-1.008 h 11.484 c 2.095,0 4.07,0.338 5.872,1.005 1.806,0.668 3.386,1.656 4.698,2.934 1.31,1.277 2.359,2.853 3.117,4.686 0.757,1.83 1.141,3.904 1.141,6.165 v 19.128 h -19.652 v -7.558 h 12.094 v -11.532 c 0,-2.446 -0.648,-4.289 -1.925,-5.477 -1.28,-1.19 -3.087,-1.793 -5.37,-1.793 h -11.522 c -2.17,0 -3.933,0.618 -5.239,1.837 -1.306,1.215 -1.968,3.043 -1.968,5.433 v 32.712 c 0,2.388 0.662,4.216 1.968,5.433 1.308,1.218 3.07,1.837 5.239,1.837 h 11.609 c 2.052,0 3.58,-0.443 4.542,-1.316 0.969,-0.881 1.839,-2.401 2.586,-4.518 l 1.783,-4.902 7.022,2.521 -1.698,4.556 C 3.873,-4.743 2.121,-1.976 0,0"
                        style="fill:#84b414;fill-opacity:1;fill-rule:nonzero;stroke:none"
                        id="path961"/>
                </g>
                <g
                    id="g963"
                    transform="translate(544.3794,246.4595)">
                    <path
                        d="m 0,0 h 18.729 c 2.282,0 4.088,-0.618 5.369,-1.836 1.278,-1.218 1.926,-3.046 1.926,-5.434 v -5.481 c 0,-2.389 -0.648,-4.217 -1.926,-5.434 -1.279,-1.218 -3.085,-1.836 -5.369,-1.836 H 0 Z m 31.3,-21.345 c 1.514,2.33 2.282,5.221 2.282,8.594 v 5.481 c 0,2.266 -0.384,4.346 -1.141,6.181 -0.757,1.835 -1.806,3.415 -3.116,4.696 -1.313,1.282 -2.893,2.272 -4.699,2.943 -1.807,0.669 -3.782,1.008 -5.872,1.008 H -7.558 V -54.81 H 0 v 27.231 h 17.677 l 8.614,-27.144 0.027,-0.087 h 7.918 l -8.977,28.415 c 2.514,1.053 4.546,2.751 6.041,5.05"
                        style="fill:#84b414;fill-opacity:1;fill-rule:nonzero;stroke:none"
                        id="path965"/>
                </g>
                <g
                    id="g967"
                    transform="translate(629.9395,206.4775)">
                    <path
                        d="m 0,0 c 0,-2.495 -0.655,-4.35 -1.964,-5.568 -1.311,-1.218 -3.128,-1.827 -5.455,-1.827 h -11.522 c -2.271,0 -4.059,0.623 -5.369,1.871 -1.31,1.246 -1.964,3.088 -1.964,5.524 v 47.415 h -7.308 V 0 c 0,-2.321 0.376,-4.38 1.131,-6.177 0.753,-1.799 1.797,-3.336 3.132,-4.611 1.334,-1.276 2.9,-2.249 4.698,-2.915 1.797,-0.667 3.711,-1 5.742,-1 h 11.484 c 2.145,0 4.118,0.333 5.916,1 1.797,0.666 3.35,1.639 4.654,2.915 1.305,1.275 2.32,2.812 3.045,4.611 C 6.945,-4.38 7.308,-2.321 7.308,0 V 47.415 H 0 Z"
                        style="fill:#84b414;fill-opacity:1;fill-rule:nonzero;stroke:none"
                        id="path969"/>
                </g>
                <g
                    id="g971"
                    transform="translate(600.9248,261.6787)">
                    <path
                        d="m 0,0 c 0.376,-0.435 0.942,-0.726 1.697,-0.87 0.753,-0.145 1.797,-0.217 3.132,-0.217 1.333,0 2.377,0.072 3.131,0.217 0.754,0.144 1.319,0.435 1.697,0.87 0.377,0.435 0.609,1.014 0.696,1.74 0.087,0.725 0.13,1.638 0.13,2.74 0,1.16 -0.058,2.117 -0.173,2.872 C 10.193,8.105 9.947,8.714 9.57,9.179 9.192,9.642 8.626,9.962 7.874,10.136 7.119,10.31 6.104,10.396 4.829,10.396 3.552,10.396 2.537,10.31 1.784,10.136 1.029,9.962 0.463,9.642 0.087,9.179 -0.291,8.714 -0.537,8.105 -0.652,7.352 -0.77,6.597 -0.827,5.64 -0.827,4.48 -0.827,3.378 -0.783,2.465 -0.696,1.74 -0.609,1.014 -0.378,0.435 0,0"
                        style="fill:#84b414;fill-opacity:1;fill-rule:nonzero;stroke:none"
                        id="path973"/>
                </g>
                <g
                    id="g975"
                    transform="translate(623.98,261.6787)">
                    <path
                        d="m 0,0 c 0.376,-0.435 0.942,-0.726 1.696,-0.87 0.754,-0.145 1.798,-0.217 3.133,-0.217 1.333,0 2.377,0.072 3.131,0.217 0.753,0.144 1.319,0.435 1.697,0.87 0.376,0.435 0.609,1.014 0.696,1.74 0.087,0.725 0.13,1.638 0.13,2.74 0,1.16 -0.058,2.117 -0.173,2.872 C 10.192,8.105 9.946,8.714 9.57,9.179 9.192,9.642 8.626,9.962 7.874,10.136 7.119,10.31 6.104,10.396 4.829,10.396 3.552,10.396 2.537,10.31 1.783,10.136 1.029,9.962 0.463,9.642 0.087,9.179 -0.291,8.714 -0.537,8.105 -0.653,7.352 -0.77,6.597 -0.827,5.64 -0.827,4.48 -0.827,3.378 -0.783,2.465 -0.696,1.74 -0.609,1.014 -0.378,0.435 0,0"
                        style="fill:#84b414;fill-opacity:1;fill-rule:nonzero;stroke:none"
                        id="path977"/>
                </g>
                <g
                    id="g979"
                    transform="translate(688.6777,203.853)">
                    <path
                        d="m 0,0 -22.033,50.09 -0.032,0.075 h -10.473 v -62.369 h 7.558 v 49.992 l 22.005,-49.917 0.033,-0.075 h 10.5 V 50.165 H 0 Z"
                        style="fill:#84b414;fill-opacity:1;fill-rule:nonzero;stroke:none"
                        id="path981"/>
                </g>
                <g
                    id="g983"
                    transform="translate(723.3784,219.4023)">
                    <path
                        d="M 0,0 H 21.576 V 7.558 H 0 v 19.499 h 31.495 v 7.558 H -7.558 v -62.368 h 40.183 v 7.558 H 0 Z"
                        style="fill:#84b414;fill-opacity:1;fill-rule:nonzero;stroke:none"
                        id="path985"/>
                </g>
                <g
                    id="g987"
                    transform="translate(484.3418,148.459)">
                    <path
                        d="m 0,0 h 18.729 c 2.283,0 4.089,-0.617 5.369,-1.836 1.278,-1.218 1.926,-3.046 1.926,-5.434 v -5.481 c 0,-2.389 -0.648,-4.217 -1.926,-5.434 -1.279,-1.218 -3.085,-1.836 -5.369,-1.836 H 0 Z m 31.3,-21.345 c 1.514,2.331 2.282,5.222 2.282,8.594 v 5.481 c 0,2.266 -0.384,4.346 -1.141,6.182 C 31.684,0.746 30.635,2.326 29.325,3.608 28.013,4.89 26.432,5.88 24.626,6.55 22.818,7.219 20.843,7.559 18.754,7.559 H -7.558 V -54.81 H 0 v 27.232 h 17.677 l 8.614,-27.145 0.027,-0.087 h 7.918 l -8.977,28.416 c 2.514,1.052 4.546,2.751 6.041,5.049"
                        style="fill:#84b414;fill-opacity:1;fill-rule:nonzero;stroke:none"
                        id="path989"/>
                </g>
                <g
                    id="g991"
                    transform="translate(536.2905,148.459)">
                    <path
                        d="M 0,0 H 12.702 V -47.252 H 0 v -7.558 h 32.962 v 7.558 H 20.26 V 0 H 32.962 V 7.559 H 0 Z"
                        style="fill:#84b414;fill-opacity:1;fill-rule:nonzero;stroke:none"
                        id="path993"/>
                </g>
                <g
                    id="g995"
                    transform="translate(598.3711,146.6133)">
                    <path
                        d="m 0,0 c 1.307,1.225 3.068,1.846 5.235,1.846 h 10.902 c 2.051,0 3.578,-0.443 4.54,-1.316 0.969,-0.883 1.838,-2.403 2.583,-4.518 l 1.744,-4.784 0.043,-0.117 7.037,2.519 -1.607,4.555 C 29.258,1.667 27.52,4.436 25.31,6.414 23.089,8.398 19.958,9.404 16.004,9.404 H 5.303 C 3.27,9.404 1.324,9.064 -0.482,8.396 -2.288,7.726 -3.883,6.751 -5.222,5.499 -6.564,4.245 -7.628,2.679 -8.385,0.845 c -0.756,-1.833 -1.14,-3.942 -1.14,-6.269 v -2.61 c 0,-3.484 0.457,-6.339 1.358,-8.487 0.904,-2.16 2.237,-3.847 3.96,-5.014 1.718,-1.166 3.886,-1.963 6.445,-2.369 2.542,-0.406 5.506,-0.611 8.807,-0.611 3.224,0 5.748,-0.145 7.505,-0.433 1.744,-0.287 3.045,-0.705 3.867,-1.242 0.807,-0.532 1.286,-1.22 1.424,-2.048 0.143,-0.866 0.216,-1.884 0.216,-3.025 v -6.873 c 0,-2.389 -0.648,-4.218 -1.926,-5.433 -1.277,-1.219 -3.084,-1.837 -5.368,-1.837 H 4.717 c -1.034,0 -1.918,0.1 -2.628,0.3 -0.707,0.197 -1.337,0.539 -1.871,1.017 -0.539,0.479 -1.015,1.097 -1.414,1.837 -0.402,0.742 -0.81,1.645 -1.213,2.679 l -1.761,4.903 -6.838,-2.478 -0.117,-0.042 1.607,-4.554 c 1.22,-3.486 2.959,-6.256 5.167,-8.23 2.217,-1.984 5.348,-2.99 9.306,-2.99 h 11.832 c 2.094,0 4.07,0.339 5.873,1.006 1.805,0.667 3.385,1.654 4.698,2.935 1.309,1.277 2.358,2.853 3.117,4.685 0.756,1.831 1.14,3.906 1.14,6.167 v 6.856 c 0,2.78 -0.415,5.119 -1.233,6.95 -0.82,1.836 -2.097,3.328 -3.796,4.436 -1.692,1.104 -3.865,1.883 -6.459,2.319 -2.586,0.433 -5.66,0.653 -9.135,0.653 -2.942,0 -5.315,0.103 -7.052,0.305 -1.713,0.2 -3.013,0.632 -3.864,1.285 -0.845,0.65 -1.402,1.553 -1.655,2.682 -0.257,1.151 -0.388,2.701 -0.388,4.605 v 2.622 c 0,2.399 0.662,4.235 1.967,5.458"
                        style="fill:#84b414;fill-opacity:1;fill-rule:nonzero;stroke:none"
                        id="path997"/>
                </g>
                <g
                    id="g999"
                    transform="translate(658.0205,146.623)">
                    <path
                        d="m 0,0 c 1.303,1.218 3.06,1.836 5.221,1.836 h 11.571 c 2.046,0 3.569,-0.442 4.527,-1.315 0.966,-0.882 1.832,-2.402 2.577,-4.519 l 1.783,-4.901 6.903,2.478 0.119,0.042 -1.698,4.558 C 29.667,1.66 27.915,4.428 25.795,6.403 23.662,8.388 20.574,9.395 16.619,9.395 H 5.221 C 3.189,9.395 1.245,9.055 -0.557,8.386 -2.358,7.717 -3.942,6.741 -5.268,5.488 -6.593,4.234 -7.645,2.669 -8.393,0.834 -9.141,-1 -9.52,-3.108 -9.52,-5.434 v -32.712 c 0,-2.326 0.379,-4.42 1.127,-6.224 0.748,-1.807 1.8,-3.372 3.124,-4.653 1.326,-1.284 2.911,-2.274 4.712,-2.942 1.797,-0.669 3.741,-1.009 5.778,-1.009 h 11.31 c 3.957,0 7.088,1.006 9.306,2.991 2.209,1.975 3.948,4.744 5.167,8.228 l 1.608,4.555 -6.904,2.477 -0.116,0.043 -1.784,-4.904 c -0.744,-2.116 -1.61,-3.636 -2.576,-4.516 -0.958,-0.874 -2.481,-1.316 -4.526,-1.316 H 5.221 c -2.162,0 -3.918,0.618 -5.221,1.838 -1.302,1.214 -1.961,3.042 -1.961,5.432 v 32.712 c 0,2.389 0.659,4.217 1.961,5.434"
                        style="fill:#84b414;fill-opacity:1;fill-rule:nonzero;stroke:none"
                        id="path1001"/>
                </g>
                <g
                    id="g1003"
                    transform="translate(742.2944,130.6133)">
                    <path
                        d="m 0,0 h -26.372 v 25.404 h -7.558 v -62.368 h 7.558 V -7.558 H 0 V -36.964 H 7.558 V 25.404 H 0 Z"
                        style="fill:#84b414;fill-opacity:1;fill-rule:nonzero;stroke:none"
                        id="path1005"/>
                </g>
                <path
                    d="m 769.289,118.705 h 35.138 v 8.603 h -35.138 z"
                    style="fill:#84b414;fill-opacity:1;fill-rule:nonzero;stroke:none"
                    id="path1007"/>
                <g
                    id="g1009"
                    transform="translate(831.665,148.459)">
                    <path
                        d="m 0,0 h 18.729 c 2.283,0 4.089,-0.617 5.37,-1.836 1.277,-1.218 1.924,-3.046 1.924,-5.434 v -5.481 c 0,-2.389 -0.647,-4.217 -1.924,-5.434 -1.28,-1.218 -3.086,-1.836 -5.37,-1.836 H 0 Z m 31.3,-21.345 c 1.514,2.331 2.282,5.222 2.282,8.594 v 5.481 c 0,2.266 -0.384,4.346 -1.141,6.182 -0.757,1.834 -1.805,3.414 -3.117,4.696 -1.31,1.282 -2.891,2.271 -4.698,2.942 -1.808,0.669 -3.783,1.009 -5.872,1.009 H -7.559 V -54.81 H 0 v 27.232 h 17.677 l 8.614,-27.145 0.027,-0.087 h 7.918 l -8.978,28.416 c 2.514,1.052 4.546,2.75 6.042,5.049"
                        style="fill:#84b414;fill-opacity:1;fill-rule:nonzero;stroke:none"
                        id="path1011"/>
                </g>
                <g
                    id="g1013"
                    transform="translate(898.2832,148.459)">
                    <path
                        d="m 0,0 h 11.522 c 2.283,0 4.089,-0.617 5.37,-1.836 1.277,-1.218 1.924,-3.046 1.924,-5.434 v -32.711 c 0,-2.39 -0.647,-4.218 -1.924,-5.434 -1.281,-1.219 -3.086,-1.837 -5.37,-1.837 H 0 c -2.169,0 -3.932,0.618 -5.239,1.838 -1.306,1.215 -1.968,3.043 -1.968,5.433 V -7.27 c 0,2.388 0.662,4.216 1.968,5.433 C -3.932,-0.618 -2.169,0 0,0 M 22.117,3.608 C 20.807,4.89 19.226,5.879 17.419,6.55 15.611,7.219 13.636,7.559 11.547,7.559 H 0.063 c -2.033,0 -3.979,-0.34 -5.786,-1.009 -1.805,-0.67 -3.401,-1.645 -4.739,-2.897 -1.343,-1.255 -2.406,-2.82 -3.162,-4.654 -0.758,-1.833 -1.142,-3.942 -1.142,-6.269 v -32.711 c 0,-2.328 0.384,-4.422 1.142,-6.225 0.756,-1.807 1.819,-3.372 3.16,-4.653 1.34,-1.284 2.936,-2.273 4.741,-2.942 1.801,-0.669 3.747,-1.009 5.786,-1.009 h 11.484 c 2.094,0 4.07,0.34 5.872,1.009 1.807,0.67 3.388,1.659 4.698,2.942 1.311,1.281 2.36,2.861 3.117,4.696 0.757,1.836 1.141,3.916 1.141,6.182 V -7.27 c 0,2.266 -0.384,4.346 -1.141,6.182 -0.757,1.834 -1.805,3.414 -3.117,4.696"
                        style="fill:#84b414;fill-opacity:1;fill-rule:nonzero;stroke:none"
                        id="path1015"/>
                </g>
                <g
                    id="g1017"
                    transform="translate(938.9355,148.459)">
                    <path
                        d="M 0,0 H 16.791 V -54.81 H 24.35 V 0 H 41.141 V 7.559 H 0 Z"
                        style="fill:#84b414;fill-opacity:1;fill-rule:nonzero;stroke:none"
                        id="path1019"/>
                </g>
                <g
                    id="g1021"
                    transform="translate(1037.0313,151.8115)">
                    <path
                        d="M 0,0 0.079,0.098 -5.673,4.786 -5.771,4.865 -33.118,-28.888 V 4.206 h -7.559 v -62.368 h 7.559 v 17.219 l 8.917,10.889 20.784,-28.666 0.075,-0.102 5.931,4.426 0.099,0.074 -22.028,30.472 z"
                        style="fill:#84b414;fill-opacity:1;fill-rule:nonzero;stroke:none"
                        id="path1023"/>
                </g>
                <g
                    id="g1025"
                    transform="translate(1064.6035,148.459)">
                    <path
                        d="m 0,0 h 18.729 c 2.283,0 4.089,-0.617 5.37,-1.836 1.277,-1.218 1.924,-3.046 1.924,-5.434 v -5.481 c 0,-2.389 -0.647,-4.217 -1.924,-5.434 -1.28,-1.218 -3.086,-1.836 -5.37,-1.836 H 0 Z m 31.3,-21.345 c 1.514,2.331 2.282,5.222 2.282,8.594 v 5.481 c 0,2.266 -0.384,4.346 -1.141,6.182 -0.757,1.834 -1.805,3.414 -3.117,4.696 -1.31,1.282 -2.891,2.271 -4.698,2.942 -1.808,0.669 -3.783,1.009 -5.872,1.009 H -7.559 V -54.81 H 0 v 27.232 h 17.677 l 8.614,-27.145 0.027,-0.087 h 7.918 l -8.978,28.416 c 2.514,1.052 4.546,2.75 6.042,5.049"
                        style="fill:#84b414;fill-opacity:1;fill-rule:nonzero;stroke:none"
                        id="path1027"/>
                </g>
                <g
                    id="g1029"
                    transform="translate(1125.1279,121.4023)">
                    <path
                        d="M 0,0 H 21.576 V 7.558 H 0 v 19.499 h 31.494 v 7.558 H -7.559 v -62.368 h 40.184 v 7.558 H 0 Z"
                        style="fill:#84b414;fill-opacity:1;fill-rule:nonzero;stroke:none"
                        id="path1031"/>
                </g>
                <g
                    id="g1033"
                    transform="translate(1208.6396,108.4775)">
                    <path
                        d="m 0,0 c 0,-2.446 -0.647,-4.289 -1.924,-5.477 -1.281,-1.19 -3.088,-1.794 -5.37,-1.794 h -11.522 c -2.227,0 -4.003,0.619 -5.283,1.837 -1.277,1.214 -1.924,3.042 -1.924,5.434 v 47.54 h -7.559 V 0 c 0,-2.327 0.384,-4.422 1.142,-6.225 0.755,-1.806 1.819,-3.372 3.16,-4.653 1.34,-1.283 2.935,-2.272 4.741,-2.941 1.801,-0.669 3.747,-1.009 5.785,-1.009 H -7.27 c 2.152,0 4.158,0.34 5.959,1.009 1.807,0.67 3.388,1.659 4.699,2.941 1.31,1.281 2.344,2.848 3.074,4.654 0.727,1.805 1.097,3.9 1.097,6.224 V 47.54 H 0 Z"
                        style="fill:#84b414;fill-opacity:1;fill-rule:nonzero;stroke:none"
                        id="path1035"/>
                </g>
                <g
                    id="g1037"
                    transform="translate(1244.4141,101.207)">
                    <path
                        d="m 0,0 29.985,49.052 0.019,0.03 v 5.729 h -39.4 v -7.559 h 29.308 l -29.985,-49.051 -0.019,-0.03 V -7.558 H 30.439 V 0 Z"
                        style="fill:#84b414;fill-opacity:1;fill-rule:nonzero;stroke:none"
                        id="path1039"/>
                </g>
            </g>
        </g>
    </g>
</svg>
