<?xml version="1.0" encoding="UTF-8" standalone="no"?>
<svg
   xmlns:dc="http://purl.org/dc/elements/1.1/"
   xmlns:cc="http://creativecommons.org/ns#"
   xmlns:rdf="http://www.w3.org/1999/02/22-rdf-syntax-ns#"
   xmlns:svg="http://www.w3.org/2000/svg"
   xmlns="http://www.w3.org/2000/svg"
   xml:space="preserve"
   enable-background="new 0 0 686.125 351.112"
   viewBox="0 0 681.01691 350.87442"
   height="350.87442"
   width="681.01691"
   y="0px"
   x="0px"
   id="Ebene_1"
   version="1.1"><metadata
   id="metadata443"><rdf:RDF><cc:Work
       rdf:about=""><dc:format>image/svg+xml</dc:format><dc:type
         rdf:resource="http://purl.org/dc/dcmitype/StillImage" /><dc:title></dc:title></cc:Work></rdf:RDF></metadata><defs
   id="defs441" />

<g
   transform="matrix(0.13333333,0,0,-0.13333333,-905.70395,651.18767)"
   id="g1291"><g
     transform="matrix(0.74494441,-0.06530385,0.06517419,0.7464265,9434.6408,1897.3204)"
     id="g1949"><path
       d="m -539.23009,3950.813 -7.57,1.83 7.35,0.64 z"
       style="fill:#ffffff;fill-opacity:1;fill-rule:nonzero;stroke:none"
       id="path1293" /><path
       d="m -525.23009,3954.533 c 2.75,-4.63 -6.88,-3.1 -11.69,-3.52 2.42,0.21 6.67,5.57 11.69,3.52 v 0"
       style="fill:#ffffff;fill-opacity:1;fill-rule:nonzero;stroke:none"
       id="path1295" /><path
       d="m -495.90009,3949.823 c 11.94,1.04 28.86,0.13 40.36,5.93 -0.42,4.84 -7.25,-0.63 -9.81,1.52 12.15,-1.31 35.37,8.08 43.51,-3.36 5.24,-2.04 10.02,-1.63 12.15,1.06 4.21,7.54 14.84,-6.03 16.3,6.22 -2.93,4.61 -5,1.94 -7.36,1.74 23.33,7.02 52.25,-21.84 77.06,-0.44 l -0.42,4.76 c 16.59,-0.95 33.32,2.92 47.97,-0.6 l -35.58,-5.6 c 5.46,-9.05 14.11,3.72 24.46,-5.07 11.34,8.2 26.79,-2.49 34.77,15.13 l -3.74,-12.42 c 19.18,4.06 43.7,-3.31 54.54,9.61 l -2.44,-0.21 c 8.33,-11.25 30.81,5.06 45.79,-0.83 l 55.31,0.01 c -2.14,-2.5 -1.52,-9.61 5.649997,-8.99 l 9.36,3.11 c -2.69,2.26 -5.25,4.42 -7.54,4.22 8.89,7.92 28.91,-2.35 43.42,-1.08 2.42,-2.08 -14.09,-6.05 -1.48,-12.17 l 13.34,13.21 5.68,-11.55 c 7.08,0.62 23.86,4.43 25.2899997,14.25 7.3,0.64 -1.6499997,-7.29 0.84,-9.62 3.38,-9.18 13.81,8.62 12.74,-6.06 7.0200003,0.61 18.0700003,11.3 26.1700003,2.29 18.32,8.78 36.27,-3.97 54.86,4.8 22.410003,-10.04 47.700003,1.87 72.440003,-3.14 0.42,-4.83 -6.88,-5.47 -6.46,-10.35 l 2.69,-2.05 c 15.21,20.57 61.81,7.69 83.94,2.7 2.29,2.33 -0.6,6.87 4.13,7.29 5.24,-4.34 10.94,-16 22.88,-14.95 l 2.08,5.19 c -0.43,4.97 -5.26,4.55 -10.04,4.13 l -2.36,-0.2 -2.49,-0.22 c 4.04,9.69 11.94,1.04 19.22,1.68 -2.28,-2.67 3.16,-7.05 8.23,-9.3 -0.44,4.98 3.94,7.89 1.26,12.27 24.64,-7.31 55.3,-2.31 73.08,-12.72 7.28,-1.77 14.86,-6.1 24.23,-2.76 l -5.2,4.42 c 14.58,1.28 29.07,0.14 36.98,-8.68 6.97,2.95 16.17,5.94 17.19,-5.72 1.3,14.37 30.82,4.93 45.02,8.46 8.74,-15.9 25.07,-9.67 42.02,-12.99 2.34,2.58 -0.41,4.76 -0.62,7.12 l 12.84,-10.9 c 7.08,2.99 2.26,5.05 -0.84,9.57 11.91,3.42 19.84,-5.53 31.53,-2.03 -8.95,-5.64 -19.62,5.45 -26.05,-4.76 -4.42,-5.27 5.14,-1.92 5.56,-6.77 10.92,13.06 24.73,-7.37 27.93,9.7 3.44,-9.28 9.95,-1.5 14.53,-1.1 51.94,-14.8 113.87,-9.39 165.62,-23.88 l -4.21,-5.24 c 14.78,-5.91 35.8,3.13 37.27,-13.76 11.69,3.65 12.32,22.97 30.3,10.16 l 11.85,3.34 -4.33,-5.38 c 7.34,-1.54 11.99,-1.13 13.65,6.2 l -2.09,-2.49 12.37,-3.8 -4.39,-5.36 19.06,1.67 -11.15,-8.18 c 7.62,-33.2 47.03,-15.03 62.16,-23.27 l 0.22,-2.47 c 9.69,-1.82 16.57,1.45 28.92,-2.29 -3.17,9.32 -20.09,10.2 -29.97,14.25 l 2.31,0.2 -5.47,6.68 -6.46,-7.72 -41.25,3.55 c 6.94,2.89 16.91,-1.02 21.12,6.65 l -21.96,2.96 c 9.48,0.82 22.83,16.47 31.17,2.72 13.27,13.01 27.43,-12.15 38.52,-1.51 8.4,-13.61 19.3,-0.82 31.57,-2.04 -6.24,-12.62 8.4,-15.98 18.06,-15.14 l -33.27,-5.4 c 2.89,-6.95 21.35,1.87 24.87,-9.88 l 9.66,0.84 c -16.19,-6.2 1.87,-21.35 -4.83,-29.11 8.8,-16.24 14.76,-1.23 27.21,-7.32 17.75999,-8.21 36.88999,-8.96 56.33999,-11.87 l -5.43,6.56 c 23.8,2.08 48.11,-24.45 65.44,-6.16 18.76,6.49 26.1,-21.97 46.03,-3.01 45.16,-20.3 106.3,-5.46 149.02,-25.7 l 11.13,8.29 c 2.83,-2.28 3.24,-7.03 7.92,-6.62 -4.47,-2.78 -11.57,-5.93 -15.49,-13.41 l 9.87,-6.31 c -2,-2.46 -7.22,1.76 -8.82,-5.79 65.48,-8.59 128.34,-12.64 191.09,-14.36 l 0.64,-7.26 c -127.92,5.62 -256.83,20.94 -381.94,24.31 -6.47,-10.06 -17.42,5.85 -20.98,-8.97 14.93,-5.87 37.83,5.69 55.47,-2.32 l 7.55,-4.36 c 1.02,17.3 21.31,4.59 31.37,0.42 28.54,2.5 71.93,1.58 103.81,-5.26 2.6,-2.3 0.63,-7.16 5.44,-6.73 l 1.9,4.84 c 17.2,-5.7 32.23,-11.52 48.76,-7.62 l 1.81,7.37 c 36.23,-1.48 66.37,-15.75 101.97,-12.63 -16.04,-8.79 -45.9,3.01 -67.22,1.15 -108.56,2.49 -215.29,15.05 -326.44,19.66 -13.12,10.88 -33.63,-0.58 -50.86,5.05 -51.03999,5.24 -109.01999,7.37 -155.41999,15.3 -23.11,-9.16 -53.4,7.41 -82.38,7.55 -12.64,5.92 -26.97,-21.76 -31.2,-0.62 -7.41,1.75 -22.32,7.82 -28.6,-2.5 l -693.150003,59.75 c -380.159997,29.23 -816.189997,-16.28 -1189.310007,-123.41 -411.38,-134.63 -760.02,-386.39 -1084.34,-691.31 -46.04,-52.15 -98.8,-107.11 -155.21,-150.64 -17.48,-18.4 -27.29,-45.8 -49.92,-62.16 l -4.68,-0.41 c 79.29,165.76 243.99,314.74 366.86,450.69 39.94,39.57 92.64,68.12 122.49,111.61 l -2.3,-0.2 c 41.67,17.96 75.29,73.87 118.94,96.89 2.64,-2.16 2.84,-4.43 5.18,-4.23 2.31,2.49 4.62,2.69 4.41,5.07 l -2.53,2.3 c 24.47,21.54 61.5,39.27 88.38,60.64 37.83,37.09 85.13,43.55 120.47,80.35 30.15,12.37 52.17,35.82 87.76,41.08 3.75,12.66 17.7,18.56 29.5,21.97 l 0.2,-2.36 c 70.88,40.12 151.89,78.42 228.19,111.48 l 7.52,-4.19 c 14.81,25.51 47.25,11.36 66.78,34.58 15.46,-10.39 40.37,6.05 56.68,12.36 -10.04,6.07 -19.01,-4.07 -25.93,-7.16 4.38,7.68 27.55,16.94 37.7,10.59 10.43,17.62 37.54,12.85 50.82,23.66 1.9,4.86 0.4,-4.61 2.92,-6.86 15.01,20.5 58.56,19.45 79.75,23.64 l 39.78001,13.18 c -5.29,6.68 -25.91001,-7.1 -40.20001,-8.35 l 103.39001,28.24 5.09,-4.44 c 3.97,10.05 30.12,14.83 42.02,15.87 l -2.09,-2.68 c 5.01,-4.37 12.11,-1.22 19.23,-0.6 l -12.52,6.08 c 16.73,-0.93 35.19,10.22 50.39,2.01 l 4.42,5.09 -10.06,3.95 19.08,1.67 0.42,-4.8 14.09,1.24 -0.63,7.15 c 23.22,11.75 24.89,-7.34 49.81,9.19 l -4.26,-5.21 c 7.12,0.63 19.65,-2.97 23.7,4.54 l -17,0.88 c 4.37,5.27 14.04,3.72 21.14,4.35 -1.48,-7.46 5.69,-9.21 10.69,-8.77 6.84,2.97 11.29,5.82 18.42,8.82 -3.53,9.36 -7.34,-0.64 -12.21,1.42 12.61,20.33 13.88,-20.51 23.31,6.84 2.95,-4.54 3.59,-11.81 10.71,-11.18 l 1.87,4.99 -2.51,2.27 11.9,1.04 c 0,0 -2.06,-2.67 0.22,-2.47 0.2,-2.35 0.2,-2.35 2.66,-2.14 l 4.41,5.25 -2.65,2.16 37.58,10.56 0.84,-9.59 37.94,5.71 -14.91,5.97 28.55,2.5 -4.03,-7.63 c 17.21,-5.75 30.47,7.45 50.05,4.38 l -2.94,7.02 14.26,1.24 0.63,-7.21 v 0"
       style="fill:#ffffff;fill-opacity:1;fill-rule:nonzero;stroke:none"
       id="path1297" /><path
       d="m -408.25009,3964.763 c 2.98,-4.61 -14,-6.09 -14.43,-1.26 l 14.43,1.26 v 0"
       style="fill:#ffffff;fill-opacity:1;fill-rule:nonzero;stroke:none"
       id="path1299" /><path
       d="m -328.89009,3964.433 -14.93,5.97 14.73,-3.58 z"
       style="fill:#ffffff;fill-opacity:1;fill-rule:nonzero;stroke:none"
       id="path1301" /><path
       d="m -221.28009,3971.453 0.22,-2.47 -10.04,4 c 2.43,0.21 7.22,0.64 9.82,-1.53 v 0"
       style="fill:#ffffff;fill-opacity:1;fill-rule:nonzero;stroke:none"
       id="path1303" /><path
       d="m -764.86009,3916.573 v 0 l -6.66,-5.28 -0.2,2.31 6.86,2.97"
       style="fill:#ffffff;fill-opacity:1;fill-rule:nonzero;stroke:none"
       id="path1305" /><path
       d="m 189.37991,3951.933 -0.22,2.5 9.76,-1.66 -2.06,-2.59 -7.48,1.75"
       style="fill:#ffffff;fill-opacity:1;fill-rule:nonzero;stroke:none"
       id="path1307" /><path
       d="m 628.01991,3913.443 c 0.22,-2.42 -4.38,-5.32 -6.68,-5.52 2.09,2.68 4.38,5.32 6.68,5.52 v 0"
       style="fill:#ffffff;fill-opacity:1;fill-rule:nonzero;stroke:none"
       id="path1309" /><path
       d="m 831.68991,3866.163 -0.22,2.5 9.66,0.84 0.22,-2.49 -9.66,-0.85"
       style="fill:#ffffff;fill-opacity:1;fill-rule:nonzero;stroke:none"
       id="path1311" /><path
       d="m 978.71991,3864.663 -2.03,-4.82 1.41,11.98 c 0,0 5.22,-4.23 0.62,-7.16 v 0"
       style="fill:#ffffff;fill-opacity:1;fill-rule:nonzero;stroke:none"
       id="path1313" /><path
       d="m 997.03991,3873.483 -0.2,2.35 7.45999,-1.72 0.2,-2.27 -7.45999,1.64"
       style="fill:#ffffff;fill-opacity:1;fill-rule:nonzero;stroke:none"
       id="path1315" /><path
       d="m 1016.3199,3872.873 c 0.21,-2.37 -4.64,-0.4 -9.28,-0.81 2.27,0.2 6.54,5.24 9.28,0.81 v 0"
       style="fill:#ffffff;fill-opacity:1;fill-rule:nonzero;stroke:none"
       id="path1317" /><path
       d="m 1026.3799,3868.843 c -6.72,-5.24 0.85,-9.74 3.55,-14.04 -7.33,1.75 -9,-5.64 -6.28,-10.18 -5.23,4.32 -17.06,3.29 -14.1,-1.23 2.07,2.5 1.43,9.75 -1.05,11.93 -5.23,4.36 -12.10999,1.09 -17.09999,0.65 6.47,8.01 -7.24,2.03 -5.46,9.33 15.01999,-8.49 26.36999,-0.05 40.43999,3.54 v 0"
       style="fill:#ffffff;fill-opacity:1;fill-rule:nonzero;stroke:none"
       id="path1319" /><path
       d="m 1050.8599,3863.843 -5.43,6.66 5.21,-4.19 z"
       style="fill:#ffffff;fill-opacity:1;fill-rule:nonzero;stroke:none"
       id="path1321" /><path
       d="m 1075.9099,3853.973 c -4.23,-7.54 -29.24,2.3 -20.32,-16.05 12.35,-6.16 16.52,3.56 25.83,6.9 l -2.79,4.61 c 14.71,-1.1 10.69,15.11 23.65,2.07 l -6.27,-7.93 c 2.3,0.2 0.18,-2.1 0.4,-4.61 -2.86,6.92 -14.59,1.25 -18.84,-4 18.28,-15.31 22.75,13.98 39.83,10.48 3.3,17.3 17.11,-3.14 21.29,6.86 l -2.36,-2.68 c 5.5,-9.04 13.88,3.68 21.26,4.33 -9.18,-5.79 1.24,-14.24 1.68,-19.26 -26.1,-4.4 -42.93,22.82 -55.32,-2.28 17.99,-12.8 6.48,10.3 23.58,6.92 l -11.22,-8.39 63.63,-11.1 1.88,5.01 124.28,-17.82 13.2,13.04 c -15.26,-18.44 10.46,-10.97 15.89,-18.01 37.88,8.17 82.7,-9.5 118.81,-8.83 26.47,-2.37 62.65,-4.05 91.54,-3.98 68.47,-10.85 135,-29.11 211.12,-20.09 -17.17,3.48 -44.43,-15.98 -59.65,-5.22 -21.53,-1.88 -60.19,-0.28 -79.27,-1.95 -11.08,15.77 -33.34,-5.41 -50.91,4.87 2.24,0.2 -0.64,7.36 1.59,7.55 9.7,0.85 19.73,-2.95 26.44,-0.07 -12.55,6.07 -34.95,16.16 -45.49,0.83 -20.42,-16.13 -44.23,10.54 -62.64,-3.12 l -7.54,6.48 c -2.22,-2.32 -1.78,-7.3 -6.56,-7.72 -9.6,28.06 -39.57,11.06 -55.82,7.17 l 2.12,2.65 c -9.63,-0.84 -22.42,7.57 -25.95,-4.73 l -4.85,-0.42 c -2.75,4.54 4.43,5.17 4.01,9.98 -5.27,4.39 -9.66,-0.85 -16.98,0.87 l 5.64,-9.03 c -7.74,4.17 -8.15,8.81 -19.29,0.63 l -4.94,-0.43 c 1.95,5.02 6.46,7.77 3.68,14.87 -2.36,-2.7 -14.36,0.93 -13.53,-8.53 l 0.2,-2.34 -8.02,9 c -1.84,-9.86 -7.46,-0.65 -14.58,-1.27 -16.94,3.16 -35.15,-10.42 -50.66,2.8 9.38,3.25 17.38,-5.71 26.61,-2.72 -3.15,9.42 -27.21,9.61 -36.67,6.49 -8.56,-12.63 -22.36,7.68 -38.93,6.22 l -6.39,-10.18 -7.83,6.82 4.38,4.9 2.8,-4.27 c 13.34,13.05 36.18,-2.06 50.03,4.38 -34.99,15.86 -79.18,0.11 -107.62,-4.9 l -3.36,9.53 -4.53,-2.85 c -5.3,9.03 -24.54,4.89 -35.63,-3.12 1.66,7.19 -22.2,5.1 -29.96,11.86 l -11.75,-3.55 c 8.26,15.27 28.64,2.5 42.53,8.57 l 0.42,-4.82 38.52,-1.54 c -47.51,19.99 -114.03,11.61 -170.23999,23.63 13.51,8.35 41.71999,-10.73 59.29999,7.65 l -17.08,3.21 18.83,4.11 -5.86,11.55 c 3.49,-11.76 24.43,-5.07 34.68,-9.03 v 0"
       style="fill:#ffffff;fill-opacity:1;fill-rule:nonzero;stroke:none"
       id="path1323" /><path
       d="m 1006.3799,3850.283 c -4.81,-0.42 -13.74999,-8.37 -14.57999,1.18 l 14.57999,-1.18 v 0"
       style="fill:#ffffff;fill-opacity:1;fill-rule:nonzero;stroke:none"
       id="path1325" /><path
       d="m 1175.2999,3843.513 c 17.36,-5.89 35.97,0.79 46.44,-7.99 21.6,25.93 25.16,-14.74 50.68,-2.74 8.72,10.46 14.44,1.26 25.72,9.42 5.26,-4.39 0.82,-9.42 -1.65,-9.64 5.45,-6.97 20.73,11.31 20.04,-8.12 -9.84,1.57 -19.61,3.17 -31.54,2.13 l 10.24,-6.14 -19.12,-1.68 6.93,2.76 c -2.7,4.65 -5.64,9.38 -12.5,6.25 -4.95,-0.43 -15.88,-13.34 -25.78,-7.17 l 8.87,5.69 c -5.56,11.54 -21.81,2.95 -31.89,9.24 l 0.42,-4.82 12.55,-6.08 c -17.2,3.35 -57.31,-5.01 -73.61,17.65 l 13.38,10.69 0.82,-9.45 v 0"
       style="fill:#ffffff;fill-opacity:1;fill-rule:nonzero;stroke:none"
       id="path1327" /><path
       d="m 1196.6199,3847.733 -5.21,4.19 4.81,0.42 z"
       style="fill:#ffffff;fill-opacity:1;fill-rule:nonzero;stroke:none"
       id="path1329" /><path
       d="m 1011.6199,3819.663 c 4.46,2.51 12.02,-1.48 13.7,5.87 l 48.64,-5.2 c -4.75,-3.01 -11.2,-8.22 -18.3,-11.37 l -1.04,11.93 c -21.14,-6.7 -19.74,5.48 -33.07,-7.74 -14.92,8.19 -47.80999,-1.59 -47.13999,17.67 14.66,-1.25 36.17999,0.63 37.20999,-11.16 v 0"
       style="fill:#ffffff;fill-opacity:1;fill-rule:nonzero;stroke:none"
       id="path1331" /><path
       d="m 1269.0899,3844.303 -12.22,1.49 12,1.05 z"
       style="fill:#ffffff;fill-opacity:1;fill-rule:nonzero;stroke:none"
       id="path1333" /><path
       d="m 1408.3799,3818.103 0.18,-2.1 c -8.71,-10.5 -22.1,5.1 -35.72,-3.13 -10.42,10.97 -31.53,4.28 -48.94,10.06 l 13.85,3.37 -0.64,7.29 c 24.91,-5.17 47.26,-15.2 71.27,-15.49 v 0"
       style="fill:#ffffff;fill-opacity:1;fill-rule:nonzero;stroke:none"
       id="path1335" /><path
       d="m 1381.1799,3827.943 -9.59,-0.84 c 2.34,0.21 4.2,7.41 9.19,5.39 l 0.4,-4.55"
       style="fill:#ffffff;fill-opacity:1;fill-rule:nonzero;stroke:none"
       id="path1337" /><path
       d="m 1087.5999,3802.263 0.43,-4.95 -5.43,6.66 c 2.37,0.21 2.56,-1.92 5,-1.71 v 0"
       style="fill:#ffffff;fill-opacity:1;fill-rule:nonzero;stroke:none"
       id="path1339" /><path
       d="m 1421.6599,3829.033 c -5.88,-12.4 -24.09,2.5 -28.9,2.08 l 28.9,-2.08 v 0"
       style="fill:#ffffff;fill-opacity:1;fill-rule:nonzero;stroke:none"
       id="path1341" /><path
       d="m 1144.7499,3807.263 c 0.43,-4.95 -4.04,-7.66 -6.69,-5.57 -2.59,2.3 4.59,5.38 6.69,5.57 v 0"
       style="fill:#ffffff;fill-opacity:1;fill-rule:nonzero;stroke:none"
       id="path1343" /><path
       d="m 1440.2699,3813.553 -24.26,0.43 -0.41,4.75 c 9.18,3.2 16.99,-3.3 24.67,-5.18 v 0"
       style="fill:#ffffff;fill-opacity:1;fill-rule:nonzero;stroke:none"
       id="path1345" /><path
       d="m 1242.2699,3791.713 -7.31,1.58 7.12,0.63 z"
       style="fill:#ffffff;fill-opacity:1;fill-rule:nonzero;stroke:none"
       id="path1347" /><path
       d="m 1416.8399,3804.563 -9.63,-0.84 c 2.01,4.82 4.31,5.02 9.22,5.45 l 0.41,-4.61"
       style="fill:#ffffff;fill-opacity:1;fill-rule:nonzero;stroke:none"
       id="path1349" /><path
       d="m 1459.4399,3812.933 c -2.44,-2.43 -13.96,-5.86 -9.75,-0.85 l 9.75,0.85 v 0"
       style="fill:#ffffff;fill-opacity:1;fill-rule:nonzero;stroke:none"
       id="path1351" /><path
       d="m 1528.7499,3816.783 2.22,2.41 15.06,-5.92 z"
       style="fill:#ffffff;fill-opacity:1;fill-rule:nonzero;stroke:none"
       id="path1353" /><path
       d="m 1602.4099,3799.013 c -4.16,-7.54 -15,5.89 -18.57,-6.41 l 7.61,-4.25 c -7,-2.73 -23.99,26.79 -29,2.38 l -7.5,1.8 2.34,0.21 c -23.06,14.85 -63.86,15.93 -94.47,8.6 14.92,20.71 42.57,8.37 64.29,5.63 26.38,2.31 50.88,-2.89 75.3,-7.96 v 0"
       style="fill:#ffffff;fill-opacity:1;fill-rule:nonzero;stroke:none"
       id="path1355" /><path
       d="m 1496.8099,3796.973 -7.24,1.87 7.02,0.61 z"
       style="fill:#ffffff;fill-opacity:1;fill-rule:nonzero;stroke:none"
       id="path1357" /><path
       d="m 1606.4499,3809.063 c -2.3,-2.69 0.21,-2.47 0.21,-2.47 l -5.09,2.04 4.88,0.43 v 0"
       style="fill:#ffffff;fill-opacity:1;fill-rule:nonzero;stroke:none"
       id="path1359" /><path
       d="m 1628.2199,3808.473 c -2.34,-2.56 -4.48,-5.07 -1.72,-9.68 3.19,-7.1 6.77,5.44 7.4,-1.81 -6.76,-5.51 -24.17,2.67 -30.65,-7.6 -0.84,9.63 17.85,16.11 24.97,19.09 v 0"
       style="fill:#ffffff;fill-opacity:1;fill-rule:nonzero;stroke:none"
       id="path1361" /><path
       d="m 1649.9099,3808.013 c -2.22,-5.04 -11.64,-5.87 -14.2,-3.57 1.72,7.33 9.05,5.48 14.2,3.57 v 0"
       style="fill:#ffffff;fill-opacity:1;fill-rule:nonzero;stroke:none"
       id="path1363" /><path
       d="m 1655.5999,3796.493 c -1.67,-7.42 -9.59,-0.84 -16.49,-3.97 l 1.81,5.07 c 5.09,-1.94 9.61,3.31 14.68,-1.1 v 0"
       style="fill:#ffffff;fill-opacity:1;fill-rule:nonzero;stroke:none"
       id="path1365" /><path
       d="m 1679.4999,3798.583 c -6.75,-5.24 -9.46,-0.83 -16.33,-3.96 l -0.42,4.88 c 4.58,-1.98 11.52,1.01 16.75,-0.92 v 0"
       style="fill:#ffffff;fill-opacity:1;fill-rule:nonzero;stroke:none"
       id="path1367" /><path
       d="m 1548.6699,3753.463 -197.34,1.96 9.48,0.83 -27.48,12.04 2.43,2.6 c 70.37,-10.68 145.11,-11.55 212.91,-17.43 v 0"
       style="fill:#ffffff;fill-opacity:1;fill-rule:nonzero;stroke:none"
       id="path1369" /><path
       d="m 1698.7599,3797.743 -12.15,1.46 c 2.1,2.57 9.14,5.65 12.15,-1.46 v 0"
       style="fill:#ffffff;fill-opacity:1;fill-rule:nonzero;stroke:none"
       id="path1371" /><path
       d="m 1438.7699,3772.873 4.61,5.05 12.08,-1.47 z"
       style="fill:#ffffff;fill-opacity:1;fill-rule:nonzero;stroke:none"
       id="path1373" /><path
       d="m 1682.6399,3789.193 6.68,5.6 5.38,-4.55 z"
       style="fill:#ffffff;fill-opacity:1;fill-rule:nonzero;stroke:none"
       id="path1375" /><path
       d="m 1747.3099,3794.853 c -7.82,-22.21 -31.39,-0.36 -45.49,-3.98 13.69,8.33 34.74,-13.67 45.49,3.98 v 0"
       style="fill:#ffffff;fill-opacity:1;fill-rule:nonzero;stroke:none"
       id="path1377" /><path
       d="m 1659.9699,3775.013 c -4.58,-2.72 -3.12,7.14 -3.53,11.88 7.56,-1.69 3.29,-9.17 3.53,-11.88 v 0"
       style="fill:#ffffff;fill-opacity:1;fill-rule:nonzero;stroke:none"
       id="path1379" /><path
       d="m 1671.6999,3778.773 -0.41,4.64 11.97,-1.34 z"
       style="fill:#ffffff;fill-opacity:1;fill-rule:nonzero;stroke:none"
       id="path1381" /><path
       d="m 1772.1599,3784.833 -19.28,1.04 c 3.79,7.44 13.55,8.29 19.28,-1.04 v 0"
       style="fill:#ffffff;fill-opacity:1;fill-rule:nonzero;stroke:none"
       id="path1383" /><path
       d="m 1695.7599,3778.143 6.88,3.34 11.94,1.04 z"
       style="fill:#ffffff;fill-opacity:1;fill-rule:nonzero;stroke:none"
       id="path1385" /><path
       d="m 1359.4799,3744.213 -0.39,4.48 11.96,1.04 z"
       style="fill:#ffffff;fill-opacity:1;fill-rule:nonzero;stroke:none"
       id="path1387" /><path
       d="m 1409.8299,3746.093 -0.41,4.68 12.22,-1.12 z"
       style="fill:#ffffff;fill-opacity:1;fill-rule:nonzero;stroke:none"
       id="path1389" /><path
       d="m 1748.9799,3775.763 c -2.3,-4.98 -12,-3.33 -14.73,1.24 4.82,0.43 11.61,3.2 14.73,-1.24 v 0"
       style="fill:#ffffff;fill-opacity:1;fill-rule:nonzero;stroke:none"
       id="path1391" /><path
       d="m 1765.9399,3772.463 -7.81,4.1 7.39,0.65 z"
       style="fill:#ffffff;fill-opacity:1;fill-rule:nonzero;stroke:none"
       id="path1393" /><path
       d="m 1465.9299,3738.843 -24.42,2.75 c 5.94,14.83 14.66,-3.6 24.42,-2.75 v 0"
       style="fill:#ffffff;fill-opacity:1;fill-rule:nonzero;stroke:none"
       id="path1395" /><path
       d="m 1577.6299,3753.503 c -2.58,-0.23 -10.78,-13.04 -14.37,-1.26 4.38,5.37 9.62,0.84 14.37,1.26 v 0"
       style="fill:#ffffff;fill-opacity:1;fill-rule:nonzero;stroke:none"
       id="path1397" /><path
       d="m 1521.2599,3736.483 -9.39,-0.83 1.58,7.35 c 0.21,-2.38 7.39,-1.75 7.81,-6.52 v 0"
       style="fill:#ffffff;fill-opacity:1;fill-rule:nonzero;stroke:none"
       id="path1399" /><path
       d="m 1349.2599,3726.243 c -6.97,-5.42 -14.05,-6.05 -21.39,-4.16 6.71,5.27 14.01,3.52 21.39,4.16 v 0"
       style="fill:#ffffff;fill-opacity:1;fill-rule:nonzero;stroke:none"
       id="path1401" /><path
       d="m 1776.9399,3756.733 -57.68,-0.41 c 13.18,15.71 39.07,-6.24 57.28,5.02 l 0.4,-4.61"
       style="fill:#ffffff;fill-opacity:1;fill-rule:nonzero;stroke:none"
       id="path1403" /><path
       d="m 1552.9199,3734.573 -9.76,-0.86 2.11,2.75 -10.02,6.06 c 7.08,0.61 17.04,-0.8 17.67,-7.95 v 0"
       style="fill:#ffffff;fill-opacity:1;fill-rule:nonzero;stroke:none"
       id="path1405" /><path
       d="m 1539.1099,3726.053 c -2.4,-0.21 -9.94,3.98 -11.83,-3.36 l 58.84,-11.59 c -23.86,-2.09 -58.21,4.4 -75.77,14.96 l 28.76,-0.01 v 0"
       style="fill:#ffffff;fill-opacity:1;fill-rule:nonzero;stroke:none"
       id="path1407" /><path
       d="m 1612.7199,3708.443 -18.91,-1.65 -0.44,4.95 c 4.95,-1.89 14.1,1.23 19.35,-3.3 v 0"
       style="fill:#ffffff;fill-opacity:1;fill-rule:nonzero;stroke:none"
       id="path1409" /><path
       d="m 1725.5099,3684.903 -52.73,-0.13 -0.43,4.98 c 23.87,-0.37 31.54,-4.45 53.16,-4.85 v 0"
       style="fill:#ffffff;fill-opacity:1;fill-rule:nonzero;stroke:none"
       id="path1411" /><path
       d="m 1925.2199,3682.843 c -4.41,-31.56 36.08,-54.42 2.68,-83.75 -27.76,-14.48 -34.82,-43.93 -62.64,-56.13 1.45,-16.68 -12.5,-22.75 -26.4,-26.25 l -58.79,9.13 c -26.17,-28.83 -55.07,-55.33 -81.84,-81.58 l 3.14,-4.65 -14.24,-3.56 c 10.7,-10.99 -12.8,-20.32 -16.54,-30.28 -16.96,1.05 -3.11,-19.53 -19.85,-21 2.5,-2.03 4.97,-1.81 9.75,-1.4 -7.01,-3.38 -12.98,-15.54 -18.76,-6.56 -11.35,-8.37 -2.51,-26.72 -24.69,-19.17 l 0.4,-4.57 c -5.14,4.16 -14.3,-1.25 -11.43,-8.28 -1.82,-4.97 5.16,-4.36 5.38,-6.8 2.15,5.01 11.71,5.84 16.32,6.24 l -25.63,-35.78 -3.24,9.35 c -7.62,4.01 -16.17,-8.76 -13.21,-13.35 5.08,-1.84 9.42,0.82 14.27,1.25 l -15.36,-18.12 c -2.97,7.05 -9.63,1.55 -11.89,-1.04 l 5.49,-6.59 -23.76,-4.77 c 15.51,-10.63 -4.63,-26.81 -14.07,-30.13 -4.52,-2.58 -6.8,-7.7 -8.72,-10.05 l 5.24,-4.43 -2.71,-0.23 0.44,-5.02 c -11.9,-1.04 -25.97,-4.56 -34.13,-19.82 l 12.25,-1.05 -13.94,-6.11 7.66,-4.14 c -4.94,-0.43 -6.83,-5.44 -6.4,-10.26 -4.61,-0.4 -19.05,-4.06 -25.82,-9.43 0.2,-2.31 2.99,-4.45 3.2,-6.96 l -4.36,-5.16 c -2.97,7.04 -10.04,3.9 -14.89,3.48 l 10.6,-11.07 c -7.25,-27.17 -33.84,4.25 -44.03,-18.33 5.59,-9.18 21.08,6.63 20.24,-10.29 -9.4,-3.11 -10.27,-20.09 -23.04,-13.83 -8.11,11.11 -26.61,-21.83 -40.77,1.08 -7.19,-0.63 -20.52,-13.82 -8.45,-15.08 -5.39,9.22 -16.18,-6.37 -23.16,-9.41 l 5.64,-9 -20.3,-16.29 c 14.8,-3.63 18.42,11.27 27.42,16.91 l -1.04,11.83 c 6.05,-13.74 14.14,3.87 18.76,6.6 19.68,-3.23 39.98,10.67 59.28,9.83 l -7.12,-2.95 5.25,-4.18 c -8.53,-12.98 -31.18,1.91 -39.99,-10.98 2.87,-1.97 5.06,-4.31 5.26,-6.61 -4.65,-0.41 -14.46,3.58 -17.58,10.38 l -15.3,-15.61 9.47,-1.67 -11.34,-5.88 c 3.13,-6.86 14.38,1.26 21.56,1.89 l 0.19,-2.17 17,-1.11 c -20.76,-11.34 -31.5,-26.8 -54.94,-33.67 l 0.89,17.09 c -12.13,1.26 -12.56,-20.29 -24.96,-16.8 -8.82,-7.71 -26.53,-26.3 -41.72,-18.13 4.52,2.92 14.37,1.25 11.21,8.53 -7.72,6.26 -14.04,-3.93 -23.26,-7.06 l 0.4,-4.61 c -13.54,15.42 -20.63,-11.68 -29.68,-17.14 9.88,-3.99 18.22,8.76 30.54,7.34 l -22.13,-21.16 c 4.2,5.15 -5.85,11.44 -12.96,10.82 -9.65,-0.84 -16.51,-5.98 -21.6,0.71 l -25.28,-16.77 c 10.57,-11.03 16.3,6.21 28.65,2.51 l -6.5,-5.42 2.72,-6.87 -4.47,-2.77 -2.86,4.56 c -9.21,-5.62 -20.48,-11.46 -29.72,-19.44 l 10.71,-8.79 c -22.23,5.43 -41.5,-20.34 -59.91,-31.58 l -2.64,2.09 c -7.27,-27 -36.5,-20.06 -46.34,-45.07 -14.9,3.65 -20.08,-18.32 -39.2,-20 -28.01,-38.58 -81.40999,-33.69 -106.64999,-74.36 2.46,0.22 2.88,-4.59 0.42,-4.81 -26.62,2.52 -45.05,-35.09 -75.86,-40.11 5.66,19.76 32.31,17.17 40.42,32.23 20.48,13.81 50.03,35.59 72.26,54.41 4.84,0.42 9.13,5.65 13.52,10.88 -3.28,9.41 -14.56,1.02 -18.75,-4.17 l 3.77,9.9 c 79.11999,59.99 148.16999,147.91 224.71999,207.51 l 10.95,15.4 c -37.53,-12.91 -60.41,-55.97 -97.47,-68.74 21.99,23.44 49.62,37.92 56.47,67.34 l 4.8,-1.77 203.29,234.06 3.26,-6.86 12.42,20.42 5.23,-4.39 c -3.82,16.44 13.45,10.71 19.45,25.65 38.13,58.76 91.17,111.46 127.08,167.57 l 4.78,0.42 c 0.22,-2.54 -2.12,-2.74 -4.35,-5.3 23.82,2.09 32.03,46.11 58.82,43.61 24.08,26.15 48.36,52.32 75.78,69.23 l -10.12,6.32 c 1.3,12.07 14.09,3.7 18.45,8.86 l -3.54,9.29 c 69.25,8.41 114.25,70.27 189.39,64.69 15.09,20.51 36.29,-1.71 53.05,-2.74 v 0"
       style="fill:#ffffff;fill-opacity:1;fill-rule:nonzero;stroke:none"
       id="path1413" /><path
       d="m 1366.6199,3059.393 c -2.47,-0.22 -8.95,-8.16 -9.59,-0.84 l 9.59,0.84 v 0"
       style="fill:#ffffff;fill-opacity:1;fill-rule:nonzero;stroke:none"
       id="path1415" /><path
       d="m 1307.5899,2991.563 2.56,-2.24 -27.43,-16.75 -5.28,6.85 c -11.27,-10.62 -25.7,-9.56 -36.78,-20.39 2.94,-4.26 7.51,-1.5 9.85,-1.3 -21.15,-9.02 -31.63,-21.96 -52.73,-31.05 l 16.9,-0.77 -30.74,-7.75 c 0.84,-9.62 -21.29,-1.86 -10.48,-15.26 11.94,-1.48 25.57,9.41 37.4,10.45 -37.18,-12.96 -73.97,-32.84 -107.91,-57.53 l 7.79,-6.63 c -8.85,-7.81 -14.33,1.34 -25.85,-4.45 5.64,-11.73 -14.05,-6.08 -17.98,-16.12 -8.97,-5.64 -17.76,-18.43 -32.62,-12.55 37.6,10.63 55.66,52.85 95.41,63.81 l 64.89,56.29 -1.83,-5.21 c 18.73,4.16 33.55,26.81 46.84,40.23 l 2.95,-4.45 39.83,39.38 c 17.3,-8.02 25.68,7.09 39.69,10.95 -1.26,14.3 14.3,1.25 18.44,10.97 11.25,-18.21 -22.61,-18.82 -32.92,-36.48 v 0"
       style="fill:#ffffff;fill-opacity:1;fill-rule:nonzero;stroke:none"
       id="path1417" /><path
       d="m 1281.4699,2986.813 25.07,16.74 4.65,0.41 z"
       style="fill:#ffffff;fill-opacity:1;fill-rule:nonzero;stroke:none"
       id="path1419" /><path
       d="m 1238.1499,2987.803 c 6.09,-13.78 -9.2,-5.59 -13.12,-15.46 l -2.77,4.44 c 9.81,-1.33 6.48,7.88 15.89,11.02 v 0"
       style="fill:#ffffff;fill-opacity:1;fill-rule:nonzero;stroke:none"
       id="path1421" /><path
       d="m 1295.8799,2988.073 -0.21,2.44 4.64,0.41 0.21,-2.45 -4.64,-0.4"
       style="fill:#ffffff;fill-opacity:1;fill-rule:nonzero;stroke:none"
       id="path1423" /><path
       d="m 1228.1099,2962.953 -7.13,4.22 6.71,0.59 z"
       style="fill:#ffffff;fill-opacity:1;fill-rule:nonzero;stroke:none"
       id="path1425" /><path
       d="m 1260.3399,2953.883 c 0.44,-4.98 -10.5,-15.4 -19.87,-18.75 -1.04,11.9 10.45,17.93 19.87,18.75 v 0"
       style="fill:#ffffff;fill-opacity:1;fill-rule:nonzero;stroke:none"
       id="path1427" /><path
       d="m 1164.2399,2926.313 -5,1.71 4.81,0.43 z"
       style="fill:#ffffff;fill-opacity:1;fill-rule:nonzero;stroke:none"
       id="path1429" /><path
       d="m 1237.9899,2934.913 c -4.26,-7.34 -10.94,-12.97 -17.85,-13.58 -0.63,7.26 10.67,10.8 17.85,13.58 v 0"
       style="fill:#ffffff;fill-opacity:1;fill-rule:nonzero;stroke:none"
       id="path1431" /><path
       d="m 1184.4799,2886.993 -2.44,-0.21 c -4.97,4.42 6.76,5.44 8.39,12.69 2.91,-4.39 -1.41,-9.72 -5.95,-12.48 v 0"
       style="fill:#ffffff;fill-opacity:1;fill-rule:nonzero;stroke:none"
       id="path1433" /><path
       d="m 1177.9199,2881.573 c -32.25,-17.13 -53.8,-45.62 -90.92,-60.89 34.55,15.04 53.17,50.45 90.92,60.89 v 0"
       style="fill:#ffffff;fill-opacity:1;fill-rule:nonzero;stroke:none"
       id="path1435" /><path
       d="m 1078.0299,2812.723 -2.62,2.23 2.41,0.21 z"
       style="fill:#ffffff;fill-opacity:1;fill-rule:nonzero;stroke:none"
       id="path1437" /><path
       d="m 1023.8099,2798.483 5.23,-4.32 c -6.47,-8.02 -23.9,-2.09 -27.62,-14.58 -4.17999,21.22 20.08,18.7 33.28,31.81 l -10.89,-12.91"
       style="fill:#ffffff;fill-opacity:1;fill-rule:nonzero;stroke:none"
       id="path1439" /><path
       d="m 1027.8299,2779.433 36.18,27.21 c 1.47,-16.74 -24.73,-21.36 -36.18,-27.21 v 0"
       style="fill:#ffffff;fill-opacity:1;fill-rule:nonzero;stroke:none"
       id="path1441" /><path
       d="m 959.97991,2785.523 4.11,7.74 4.84,0.42 z"
       style="fill:#ffffff;fill-opacity:1;fill-rule:nonzero;stroke:none"
       id="path1443" /><path
       d="m 969.80991,2755.163 c -20.98,-4.16 -32.86,-36.48 -52.6,-28.71 l -0.64,7.38 4.76,0.42 -2.18,-2.85 c 4.99,-1.75 16.56,1.45 13.64,8.5 7.52,-3.99 18.15,11.29 22.95,14.03 l -5,-0.44 c 1.74,7.33 14.04,6.08 18.44,8.79 l 24.75,21.36 c 6.43999,-18.63 -26,-6.99 -24.12,-28.48 v 0"
       style="fill:#ffffff;fill-opacity:1;fill-rule:nonzero;stroke:none"
       id="path1445" /><path
       d="m 1023.8099,2771.913 v 0 l -5.26,4.32 c 2.54,0.22 5.04,-1.81 5.26,-4.32 v 0"
       style="fill:#ffffff;fill-opacity:1;fill-rule:nonzero;stroke:none"
       id="path1447" /><path
       d="m 1016.9399,2766.463 c 2.84,-4.33 -4.47,-2.72 -9.28,-3.14 l 6.46,7.74 2.82,-4.6 v 0"
       style="fill:#ffffff;fill-opacity:1;fill-rule:nonzero;stroke:none"
       id="path1449" /><path
       d="m 1003.2999,2758.093 c 0.2,-2.3 -1.89,-4.94 -1.89,-4.94 l -0.42,4.74 2.31,0.2 v 0"
       style="fill:#ffffff;fill-opacity:1;fill-rule:nonzero;stroke:none"
       id="path1451" /><path
       d="m 994.21991,2752.523 -2.02,-4.96 -2.79,4.54 c 0,0 4.6,2.86 4.81,0.42 v 0"
       style="fill:#ffffff;fill-opacity:1;fill-rule:nonzero;stroke:none"
       id="path1453" /><path
       d="m 853.00991,2716.053 1.54,9.7 7.22,0.63 z"
       style="fill:#ffffff;fill-opacity:1;fill-rule:nonzero;stroke:none"
       id="path1455" /><path
       d="m 917.82991,2719.403 0.41,-4.75 c -15.02,5.79 -29.86,-17.23 -41.61,-20.37 l 10.71,15.07 c -0.23,2.58 -4.82,-0.42 -2.58,2.37 l 14.28,1.25 -7.53,4.12 2.31,0.21 c 3.78,-14.02 15.88,11.09 24.01,2.1 v 0"
       style="fill:#ffffff;fill-opacity:1;fill-rule:nonzero;stroke:none"
       id="path1457" /><path
       d="m 875.81991,2703.563 1.77,4.94 2.65,0.23 z"
       style="fill:#ffffff;fill-opacity:1;fill-rule:nonzero;stroke:none"
       id="path1459" /><path
       d="m 851.36991,2679.703 20.86,11.66 -20.45,-16.34 z"
       style="fill:#ffffff;fill-opacity:1;fill-rule:nonzero;stroke:none"
       id="path1461" /><path
       d="m 845.20991,2667.353 c -4.64,-0.41 -9.19,-3.13 -13.98,-3.55 l 10.85,12.97 c 2.52,-2.38 2.94,-7.19 3.13,-9.42 v 0"
       style="fill:#ffffff;fill-opacity:1;fill-rule:nonzero;stroke:none"
       id="path1463" /><path
       d="m 826.19991,2665.683 -4.82,-0.42 2.06,4.96 c 4.5,2.72 2.56,-2.3 2.76,-4.54 v 0"
       style="fill:#ffffff;fill-opacity:1;fill-rule:nonzero;stroke:none"
       id="path1465" /><path
       d="m 810.25991,2654.723 -4.91,-0.43 2.02,7.42 c 2.27,0.2 2.69,-4.68 2.89,-6.99 v 0"
       style="fill:#ffffff;fill-opacity:1;fill-rule:nonzero;stroke:none"
       id="path1467" /><path
       d="m -443.33009,3458.953 2.19,2.52 7.42,-1.67 z"
       style="fill:#ffffff;fill-opacity:1;fill-rule:nonzero;stroke:none"
       id="path1469" /><path
       d="m -607.96009,3415.593 c -4.43,-5.1 -24.12,2.77 -34.37,9.08 l -3.16,7.04 c 12.15,1.06 26.98,-4.95 37.53,-16.12 v 0"
       style="fill:#ffffff;fill-opacity:1;fill-rule:nonzero;stroke:none"
       id="path1471" /><path
       d="m -408.51009,3445.133 2.29,2.56 27.4,-12.05 -2.32,-2.5 -27.37,11.99"
       style="fill:#ffffff;fill-opacity:1;fill-rule:nonzero;stroke:none"
       id="path1473" /><path
       d="m 1018.9399,3514.683 c 0.41,-4.74 -9.32,-3.14 -11.76,-3.35 -5.21,4.4 6.62,7.79 11.76,3.35 v 0"
       style="fill:#ffffff;fill-opacity:1;fill-rule:nonzero;stroke:none"
       id="path1475" /><path
       d="m 929.06991,3497.223 c 0.2,-2.34 -2.24,-2.55 -4.39,-5.26 l -2.52,2.3 1.68,7.32 17.06,-3.32 -11.83,-1.04 v 0"
       style="fill:#ffffff;fill-opacity:1;fill-rule:nonzero;stroke:none"
       id="path1477" /><path
       d="m 907.53991,3495.343 -2.27,-2.56 -5.02,4.35 c 4.4,2.77 4.61,0.4 7.29,-1.79 v 0"
       style="fill:#ffffff;fill-opacity:1;fill-rule:nonzero;stroke:none"
       id="path1479" /><path
       d="m 952.82991,3499.303 -9.7,1.58 7.08,0.62 z"
       style="fill:#ffffff;fill-opacity:1;fill-rule:nonzero;stroke:none"
       id="path1481" /><path
       d="m 881.25991,3493.043 -0.21,2.41 12.09,-1.37 0.21,-2.34 -12.09,1.3"
       style="fill:#ffffff;fill-opacity:1;fill-rule:nonzero;stroke:none"
       id="path1483" /><path
       d="m 857.73991,3488.623 c 0.64,-7.31 -11.24,-8.35 -18.63,-9 4.19,7.74 11.27,10.72 18.63,9 v 0"
       style="fill:#ffffff;fill-opacity:1;fill-rule:nonzero;stroke:none"
       id="path1485" /><path
       d="m 834.10991,3481.683 c -1.68,-7.32 -9.42,-0.83 -12.15,1.29 4.83,0.42 9.64,0.84 12.15,-1.29 v 0"
       style="fill:#ffffff;fill-opacity:1;fill-rule:nonzero;stroke:none"
       id="path1487" /><path
       d="m 710.76991,3463.713 -7.29,-0.64 c -2.68,4.45 2.07,4.86 6.88,5.29 l 0.41,-4.65"
       style="fill:#ffffff;fill-opacity:1;fill-rule:nonzero;stroke:none"
       id="path1489" /><path
       d="m 789.16991,3473.063 0.21,-2.47 -9.89,3.81 c 4.84,0.43 7.52,-4.02 9.68,-1.34 v 0"
       style="fill:#ffffff;fill-opacity:1;fill-rule:nonzero;stroke:none"
       id="path1491" /><path
       d="m 698.71991,3462.663 -25.56,-9.44 c 4.41,5.03 15.63,15.74 25.56,9.44 v 0"
       style="fill:#ffffff;fill-opacity:1;fill-rule:nonzero;stroke:none"
       id="path1493" /><path
       d="m 756.02991,3467.673 c 0,0 0.23,-2.54 -2.11,-2.74 l -2.48,-0.22 -0.44,5.01 c 2.48,0.22 4.82,0.43 5.03,-2.05 v 0"
       style="fill:#ffffff;fill-opacity:1;fill-rule:nonzero;stroke:none"
       id="path1495" /><path
       d="m 777.59991,3469.563 -12.16,1.43 9.39,0.82 z"
       style="fill:#ffffff;fill-opacity:1;fill-rule:nonzero;stroke:none"
       id="path1497" /><path
       d="m 654.11991,3449.093 -7.14,-0.63 c -0.21,2.45 1.93,7.28 6.72,5.44 l 0.42,-4.81"
       style="fill:#ffffff;fill-opacity:1;fill-rule:nonzero;stroke:none"
       id="path1499" /><path
       d="m 650.35991,3439.203 c -3.8,14.08 -19.31,0.7 -31.65,4.47 2.07,2.5 32.5,12.27 31.65,-4.47 v 0"
       style="fill:#ffffff;fill-opacity:1;fill-rule:nonzero;stroke:none"
       id="path1501" /><path
       d="m 718.53991,3457.193 c -10.7,-15.49 -37.82,-8.1 -54.19,-14.38 8.4,15.02 38.12,5.66 54.19,14.38 v 0"
       style="fill:#ffffff;fill-opacity:1;fill-rule:nonzero;stroke:none"
       id="path1503" /><path
       d="m 538.37991,3426.873 54.01,14.49 19.2,1.68 z"
       style="fill:#ffffff;fill-opacity:1;fill-rule:nonzero;stroke:none"
       id="path1505" /><path
       d="m 526.82991,3421.153 -0.63,7.18 7.32,0.65 z"
       style="fill:#ffffff;fill-opacity:1;fill-rule:nonzero;stroke:none"
       id="path1507" /><path
       d="m 617.25991,3433.773 c -2.19,-2.51 -16.13,-11.07 -23.82,-4.4 -29.35,-21.9 -71.18,-11.05 -103.36,-28.38 36.75,20.16 82.18,24.14 127.18,32.78 v 0"
       style="fill:#ffffff;fill-opacity:1;fill-rule:nonzero;stroke:none"
       id="path1509" /><path
       d="m 472.22991,3411.423 23.48,7.01 14.34,1.25 z"
       style="fill:#ffffff;fill-opacity:1;fill-rule:nonzero;stroke:none"
       id="path1511" /><path
       d="m 384.14991,3401.423 c 0.42,-4.81 -13.68,-6.04 -11.76,-1.03 l 11.76,1.03 v 0"
       style="fill:#ffffff;fill-opacity:1;fill-rule:nonzero;stroke:none"
       id="path1513" /><path
       d="m 480.14991,3404.983 c -4.34,-5.23 -13.85,-6.07 -18.41,-8.75 l -0.62,7.08 c 4.76,0.42 14.27,1.25 19.03,1.67 v 0"
       style="fill:#ffffff;fill-opacity:1;fill-rule:nonzero;stroke:none"
       id="path1515" /><path
       d="m 452.09991,3395.383 -39.61,-13.2 c 6.82,3.06 22.43,18.84 39.61,13.2 v 0"
       style="fill:#ffffff;fill-opacity:1;fill-rule:nonzero;stroke:none"
       id="path1517" /><path
       d="m 629.58991,3401.183 c 0.38,-4.44 -1.89,-4.64 -4.21,-7.54 l -2.9,6.92 7.11,0.62 v 0"
       style="fill:#ffffff;fill-opacity:1;fill-rule:nonzero;stroke:none"
       id="path1519" /><path
       d="m 560.68991,3390.673 c -4.64,-0.4 -9.12,-5.85 -16.3,-4.12 1.68,7.32 11.49,5.65 16.3,4.12 v 0"
       style="fill:#ffffff;fill-opacity:1;fill-rule:nonzero;stroke:none"
       id="path1521" /><path
       d="m 589.63991,3390.513 c 0.2,-2.34 -11.66,-5.73 -18.66,-6.35 4.42,5.1 11.29,8.4 18.66,6.35 v 0"
       style="fill:#ffffff;fill-opacity:1;fill-rule:nonzero;stroke:none"
       id="path1523" /><path
       d="m 603.83991,3391.753 c 0.2,-2.34 -4.44,-2.74 -9.17,-3.16 -0.61,6.95 6.88,2.96 9.17,3.16 v 0"
       style="fill:#ffffff;fill-opacity:1;fill-rule:nonzero;stroke:none"
       id="path1525" /><path
       d="m 630.61991,3389.383 c -9.41,-0.82 -18.73,-6.49 -28.44,-5.02 6.86,5.49 19.03,4.2 28.44,5.02 v 0"
       style="fill:#ffffff;fill-opacity:1;fill-rule:nonzero;stroke:none"
       id="path1527" /><path
       d="m 464.23991,3367.653 c -4.4,-5.34 -16.33,-6.38 -23.25,-9.48 1.53,9.9 16.36,6.22 23.25,9.48 v 0"
       style="fill:#ffffff;fill-opacity:1;fill-rule:nonzero;stroke:none"
       id="path1529" /><path
       d="m 169.32991,3329.863 c -43.16,-28.06 -101.040003,-28.2 -149.880003,-46.96 40.99,27.7 101.220003,25.67 149.880003,46.96 v 0"
       style="fill:#ffffff;fill-opacity:1;fill-rule:nonzero;stroke:none"
       id="path1531" /><path
       d="m 263.08991,3328.333 -12.15,3.62 9.85,-3.82 z"
       style="fill:#ffffff;fill-opacity:1;fill-rule:nonzero;stroke:none"
       id="path1533" /><path
       d="m -8.8000933,3275.753 c -4.1999997,-7.64 -11.5199997,-5.92 -16.2699997,-6.34 l 10.82,13.04 5.4499997,-6.7 v 0"
       style="fill:#ffffff;fill-opacity:1;fill-rule:nonzero;stroke:none"
       id="path1535" /><path
       d="m -97.990093,3251.043 c 13.21,13.15 44.08,15.85 63.21,19.88 l -63.21,-19.88 v 0"
       style="fill:#ffffff;fill-opacity:1;fill-rule:nonzero;stroke:none"
       id="path1537" /><path
       d="m -117.09009,3249.373 c 0.62,-7.12 -9.15,-5.72 -13.94,-6.14 1.89,5.09 9.13,5.72 13.94,6.14 v 0"
       style="fill:#ffffff;fill-opacity:1;fill-rule:nonzero;stroke:none"
       id="path1539" /><path
       d="m -364.82009,3193.883 1.9,5.02 10.01,-1.38 z"
       style="fill:#ffffff;fill-opacity:1;fill-rule:nonzero;stroke:none"
       id="path1541" /><path
       d="m -347.44009,3185.773 -0.43,4.88 9.84,0.86 z"
       style="fill:#ffffff;fill-opacity:1;fill-rule:nonzero;stroke:none"
       id="path1543" /><path
       d="m -406.91009,3180.573 -0.43,4.88 9.63,-1.41 z"
       style="fill:#ffffff;fill-opacity:1;fill-rule:nonzero;stroke:none"
       id="path1545" /><path
       d="m -351.85009,3185.393 -7.38,-2.76 -2.67,4.54 c 4.78,0.42 6.89,2.86 10.05,-1.78 v 0"
       style="fill:#ffffff;fill-opacity:1;fill-rule:nonzero;stroke:none"
       id="path1547" /><path
       d="m -366.29009,3182.013 -18.61,-6.69 c 4.76,0.42 8.7,10.6 18.61,6.69 v 0"
       style="fill:#ffffff;fill-opacity:1;fill-rule:nonzero;stroke:none"
       id="path1549" /><path
       d="m -403.36009,3166.543 7.13,0.62 c -4.26,-5.19 -10.95,-10.66 -20.78,-9.02 l 13.65,8.4 c -2.52,2.24 -4.66,-0.41 -4.66,-0.41 1.73,7.32 13.93,3.68 18.25,11.33 l -13.59,-10.92"
       style="fill:#ffffff;fill-opacity:1;fill-rule:nonzero;stroke:none"
       id="path1551" /><path
       d="m -432.26009,3168.863 c 2.55,-2.17 2.76,-4.61 3.18,-9.39 l 9.6,-1.55 c -12.79,-17.82 -24.74,7.5 -32.62,-12.52 -0.62,7.12 -3.79,16.54 5.59,19.82 l -35.54,-7.92 c 11.32,10.51 27.86,11.96 40.61,5.91 -0.63,7.11 6.88,3.06 9.18,5.65 v 0"
       style="fill:#ffffff;fill-opacity:1;fill-rule:nonzero;stroke:none"
       id="path1553" /><path
       d="m -334.67009,3179.723 c 3.04,-6.91 -4.45,-5.1 -6.51,-7.74 l -0.63,7.11 7.14,0.63 v 0"
       style="fill:#ffffff;fill-opacity:1;fill-rule:nonzero;stroke:none"
       id="path1555" /><path
       d="m -1701.8301,3052.943 -18.98,-1.66 -0.42,4.81 c 6.93,2.93 12.01,-1.34 19.4,-3.15 v 0"
       style="fill:#ffffff;fill-opacity:1;fill-rule:nonzero;stroke:none"
       id="path1557" /><path
       d="m -390.41009,3155.683 c 6.55,7.75 27.45,16.85 44.21,15.86 l -44.21,-15.86 v 0"
       style="fill:#ffffff;fill-opacity:1;fill-rule:nonzero;stroke:none"
       id="path1559" /><path
       d="m -505.53009,3152.783 6.94,3.07 7.23,0.63 z"
       style="fill:#ffffff;fill-opacity:1;fill-rule:nonzero;stroke:none"
       id="path1561" /><path
       d="m -473.69009,3146.043 1.07,-12.17 44.59,13.63 c -18.47,-8.65 -41.87,-18.04 -62.64,-26.99 l 15.52,13.14 c -2.49,2.48 -4.79,-0.42 -7.3,2.06 0,0 6.66,5.26 6.46,7.6 l -46.68,-15.97 c 16.31,6.28 33.06,36.5 48.98,18.7 v 0"
       style="fill:#ffffff;fill-opacity:1;fill-rule:nonzero;stroke:none"
       id="path1563" /><path
       d="m -504.91009,3145.663 c -1.86,-7.4 -21.25,-6.74 -30.16,-12.2 5.48,19.68 23.86,2.09 30.16,12.2 v 0"
       style="fill:#ffffff;fill-opacity:1;fill-rule:nonzero;stroke:none"
       id="path1565" /><path
       d="m -540.87009,3142.523 2.9,-2.1 -4.39,-5.27 -0.2,2.33 1.69,5.04"
       style="fill:#ffffff;fill-opacity:1;fill-rule:nonzero;stroke:none"
       id="path1567" /><path
       d="m -444.83009,3119.673 c 27.63,12.12 62.42,27.15 96.1,30.09 l -96.1,-30.09 v 0"
       style="fill:#ffffff;fill-opacity:1;fill-rule:nonzero;stroke:none"
       id="path1569" /><path
       d="m -413.46009,3117.533 98.06,32.79 4.93,0.44 z"
       style="fill:#ffffff;fill-opacity:1;fill-rule:nonzero;stroke:none"
       id="path1571" /><path
       d="m -566.02009,3128.403 2.56,-2.48 -6.76,-2.74 -2.44,-0.21 6.64,5.43"
       style="fill:#ffffff;fill-opacity:1;fill-rule:nonzero;stroke:none"
       id="path1573" /><path
       d="m -605.77009,3117.583 4.45,2.88 -4.45,-2.88"
       style="fill:#ffffff;fill-opacity:1;fill-rule:nonzero;stroke:none"
       id="path1575" /><path
       d="m -647.47009,3099.623 -2.49,-0.22 10.91,10.41 c 3.01,-6.87 -3.74,-9.78 -8.42,-10.19 v 0"
       style="fill:#ffffff;fill-opacity:1;fill-rule:nonzero;stroke:none"
       id="path1577" /><path
       d="m -1537.7901,3019.163 -22.23,7.79 c 9.64,0.85 19.29,-0.67 22.23,-7.79 v 0"
       style="fill:#ffffff;fill-opacity:1;fill-rule:nonzero;stroke:none"
       id="path1579" /><path
       d="m -310.60009,3124.173 23.18,9.27 -9.18,-5.69 z"
       style="fill:#ffffff;fill-opacity:1;fill-rule:nonzero;stroke:none"
       id="path1581" /><path
       d="m -1525.8601,3020.213 -7.52,4.22 7.1,0.62 z"
       style="fill:#ffffff;fill-opacity:1;fill-rule:nonzero;stroke:none"
       id="path1583" /><path
       d="m -501.17009,3102.923 2.31,0.2 -6.7,-5.47 -2.32,-0.2 6.71,5.47"
       style="fill:#ffffff;fill-opacity:1;fill-rule:nonzero;stroke:none"
       id="path1585" /><path
       d="m -267.29009,3123.383 c -6.73,-5.47 -11.13,-10.81 -20.8,-9.4 4.58,3.1 13.65,8.78 20.8,9.4 v 0"
       style="fill:#ffffff;fill-opacity:1;fill-rule:nonzero;stroke:none"
       id="path1587" /><path
       d="m -455.26009,3099.363 2.16,2.88 2.42,0.22 z"
       style="fill:#ffffff;fill-opacity:1;fill-rule:nonzero;stroke:none"
       id="path1589" /><path
       d="m -293.08009,3116.243 c -27.22,-19.39 -72.62,-23.36 -107.21,-38.47 l 0.4,-4.65 c -28.2,-7.39 -70.43,-20.64 -86.78,-24.63 60.46,22.33 127.49,52.27 193.59,67.75 v 0"
       style="fill:#ffffff;fill-opacity:1;fill-rule:nonzero;stroke:none"
       id="path1591" /><path
       d="m -618.61009,3070.763 -7.05,-0.62 c -0.41,4.68 4.41,2.71 7.05,0.62 v 0"
       style="fill:#ffffff;fill-opacity:1;fill-rule:nonzero;stroke:none"
       id="path1593" /><path
       d="m -527.96009,3052.213 62.25,29.39 7.63,-3.87 z"
       style="fill:#ffffff;fill-opacity:1;fill-rule:nonzero;stroke:none"
       id="path1595" /><path
       d="m -382.89009,3069.693 c -11.72,-3.21 -5.83,-14.93 -22.74,-14.11 3.71,12.44 13.7,8.54 22.74,14.11 v 0"
       style="fill:#ffffff;fill-opacity:1;fill-rule:nonzero;stroke:none"
       id="path1597" /><path
       d="m -463.67009,3031.543 1.7,7.25 -9.85,1.54 c 18.86,6.43 38.05,5.65 56.74,14.42 l -48.59,-23.21"
       style="fill:#ffffff;fill-opacity:1;fill-rule:nonzero;stroke:none"
       id="path1599" /><path
       d="m -1285.8001,2971.433 -9.91,3.98 7.16,0.63 z"
       style="fill:#ffffff;fill-opacity:1;fill-rule:nonzero;stroke:none"
       id="path1601" /><path
       d="m -836.48009,3003.773 2.39,0.21 -0.19,2.24 -2.4,-0.21 0.2,-2.24"
       style="fill:#ffffff;fill-opacity:1;fill-rule:nonzero;stroke:none"
       id="path1603" /><path
       d="m -466.38009,3033.423 c -2.07,-2.3 -9.26,-2.92 -13.69,-5.91 1.96,4.89 6.39,8 13.69,5.91 v 0"
       style="fill:#ffffff;fill-opacity:1;fill-rule:nonzero;stroke:none"
       id="path1605" /><path
       d="m -586.29009,3003.913 -0.21,2.34 14.44,-1.1 z"
       style="fill:#ffffff;fill-opacity:1;fill-rule:nonzero;stroke:none"
       id="path1607" /><path
       d="m -627.99009,2983.353 c 4.02,9.88 19.02,4.19 22.83,16.41 l 5.24,-4.42 -28.07,-11.99 v 0"
       style="fill:#ffffff;fill-opacity:1;fill-rule:nonzero;stroke:none"
       id="path1609" /><path
       d="m -1318.3001,2846.043 c 53.33,23.86 85.21,45.85 138.97,62.61 -38.74,-22.62 -89.73,-46.38 -138.97,-62.61 v 0"
       style="fill:#ffffff;fill-opacity:1;fill-rule:nonzero;stroke:none"
       id="path1611" /><path
       d="m -1553.3501,2758.023 c -4.42,-5.06 -13.88,-5.89 -18.43,-8.89 1.76,5.08 11.54,5.93 18.43,8.89 v 0"
       style="fill:#ffffff;fill-opacity:1;fill-rule:nonzero;stroke:none"
       id="path1613" /><path
       d="m -1578.9001,2748.513 c -4.8,-2.67 -8.66,-10.25 -13.78,-8.37 -0.23,2.61 8.56,10.51 13.78,8.37 v 0"
       style="fill:#ffffff;fill-opacity:1;fill-rule:nonzero;stroke:none"
       id="path1615" /><path
       d="m -1158.6401,2754.133 c -10.11,6.36 -9.27,-3.13 -16.49,-1.44 -8.85,-10.3 -24.77,-19.07 -46.48,-20.97 -4.83,-0.43 -11.97,1.51 -10.32,8.83 25.97,7.12 46.28,20.89 74.13,32.85 9.74,-1.47 -1.26,-14.46 -0.84,-19.27 v 0"
       style="fill:#ffffff;fill-opacity:1;fill-rule:nonzero;stroke:none"
       id="path1617" /><path
       d="m -1440.9501,2739.103 0.22,-2.41 -4.64,-2.79 -2.72,2.15 7.14,3.05"
       style="fill:#ffffff;fill-opacity:1;fill-rule:nonzero;stroke:none"
       id="path1619" /><path
       d="m -1724.5901,2680.783 -2.47,-0.22 6.48,10.07 c 0.22,-2.55 3.18,-9.22 -4.01,-9.85 v 0"
       style="fill:#ffffff;fill-opacity:1;fill-rule:nonzero;stroke:none"
       id="path1621" /><path
       d="m -1745.3801,2671.753 4.47,5.07 2.22,0.2 z"
       style="fill:#ffffff;fill-opacity:1;fill-rule:nonzero;stroke:none"
       id="path1623" /><path
       d="m -1750.3801,2673.473 c 2.81,-4.47 -4.47,-5.11 -6.6,-7.55 -0.42,4.78 1.72,7.12 6.6,7.55 v 0"
       style="fill:#ffffff;fill-opacity:1;fill-rule:nonzero;stroke:none"
       id="path1625" /><path
       d="m -1773.1301,2659.453 c 0.2,-2.3 -9.41,-3.14 -7.49,1.84 2.51,0.22 7.05,3.18 7.49,-1.84 v 0"
       style="fill:#ffffff;fill-opacity:1;fill-rule:nonzero;stroke:none"
       id="path1627" /><path
       d="m -1794.0201,2650.453 c 0.42,-4.74 -4.59,-2.93 -9.34,-3.34 -0.41,4.78 7.04,3.14 9.34,3.34 v 0"
       style="fill:#ffffff;fill-opacity:1;fill-rule:nonzero;stroke:none"
       id="path1629" /><path
       d="m -1814.8201,2641.463 v 0 l -27.68,-14.44 z"
       style="fill:#ffffff;fill-opacity:1;fill-rule:nonzero;stroke:none"
       id="path1631" /><path
       d="m -1337.1601,2678.333 c -2.27,-0.2 -4.4,-5.03 -6.92,-2.79 l -0.39,4.55 c 2.3,0.2 4.61,2.92 7.31,-1.76 v 0"
       style="fill:#ffffff;fill-opacity:1;fill-rule:nonzero;stroke:none"
       id="path1633" /><path
       d="m -1360.0201,2664.383 -2.89,7.06 7.1,0.62 z"
       style="fill:#ffffff;fill-opacity:1;fill-rule:nonzero;stroke:none"
       id="path1635" /><path
       d="m -1861.1201,2620.543 c 5.01,-4.41 -4.68,-2.73 -9.31,-5.67 -2.69,4.62 7,5.47 9.31,5.67 v 0"
       style="fill:#ffffff;fill-opacity:1;fill-rule:nonzero;stroke:none"
       id="path1637" /><path
       d="m -1881.8801,2608.923 c 0.19,-2.17 -2.19,-2.38 -4.66,-2.59 l 4.23,7.5 c 2.34,0.21 2.77,-4.71 0.43,-4.91 v 0"
       style="fill:#ffffff;fill-opacity:1;fill-rule:nonzero;stroke:none"
       id="path1639" /><path
       d="m -1893.6201,2605.713 c 0.42,-4.85 -13.63,-8.37 -12.14,1.12 l 12.14,-1.12 v 0"
       style="fill:#ffffff;fill-opacity:1;fill-rule:nonzero;stroke:none"
       id="path1641" /><path
       d="m -1914.3901,2596.723 -10.02,3.94 7.21,0.63 z"
       style="fill:#ffffff;fill-opacity:1;fill-rule:nonzero;stroke:none"
       id="path1643" /><path
       d="m -1909.5401,2597.143 -2.81,2.04 7.2,0.63 z"
       style="fill:#ffffff;fill-opacity:1;fill-rule:nonzero;stroke:none"
       id="path1645" /><path
       d="m -1956.0501,2578.693 c 0.42,-4.81 -6.75,-8 -14.02,-6.07 2.13,2.37 9.42,3.01 14.02,6.07 v 0"
       style="fill:#ffffff;fill-opacity:1;fill-rule:nonzero;stroke:none"
       id="path1647" /><path
       d="m -1995.2201,2558.363 c 5.03,-2.05 -2.24,-2.69 -2.03,-5.13 l -2.82,4.7 4.85,0.43 v 0"
       style="fill:#ffffff;fill-opacity:1;fill-rule:nonzero;stroke:none"
       id="path1649" /><path
       d="m -2030.0201,2543.263 -0.41,4.68 12.24,-1.5 z"
       style="fill:#ffffff;fill-opacity:1;fill-rule:nonzero;stroke:none"
       id="path1651" /><path
       d="m -2071.6101,2525.213 c 2.56,-4.7 -2.26,-2.52 -4.29,-7.62 -4.88,1.9 1.62,9.84 4.29,7.62 v 0"
       style="fill:#ffffff;fill-opacity:1;fill-rule:nonzero;stroke:none"
       id="path1653" /><path
       d="m -2096.6001,2506.083 -4.81,-0.42 2.17,5.04 c 2.43,-2.18 2.64,-4.62 2.64,-4.62 v 0"
       style="fill:#ffffff;fill-opacity:1;fill-rule:nonzero;stroke:none"
       id="path1655" /><path
       d="m -2114.9201,2497.303 -0.62,7.12 4.78,0.42 z"
       style="fill:#ffffff;fill-opacity:1;fill-rule:nonzero;stroke:none"
       id="path1657" /><path
       d="m -2149.6901,2482.243 -10.2,6.28 4.93,-1.89 z"
       style="fill:#ffffff;fill-opacity:1;fill-rule:nonzero;stroke:none"
       id="path1659" /><path
       d="m -2177.3001,2467.803 -7.14,-0.62 1.71,7.39 c 2.5,0.22 2.91,-4.53 5.43,-6.77 v 0"
       style="fill:#ffffff;fill-opacity:1;fill-rule:nonzero;stroke:none"
       id="path1661" /><path
       d="m -23.700093,2619.953 -1.68,19.25 c 2.64,-2.09 3.48,-11.72 1.68,-19.25 v 0"
       style="fill:#ffffff;fill-opacity:1;fill-rule:nonzero;stroke:none"
       id="path1663" /><path
       d="m -2317.8601,2397.723 -4.75,-0.42 c -0.22,2.58 2.14,4.9 4.52,2.99 l 0.23,-2.57"
       style="fill:#ffffff;fill-opacity:1;fill-rule:nonzero;stroke:none"
       id="path1665" /><path
       d="m -444.14009,2451.123 0.42,-4.75 -7.98,8.94 c 4.44,2.71 7.36,-1.89 7.56,-4.19 v 0"
       style="fill:#ffffff;fill-opacity:1;fill-rule:nonzero;stroke:none"
       id="path1667" /><path
       d="m -363.74009,2412.593 0.43,-4.88 c -2.53,1.97 -11.95,-1.04 -7.78,6.56 2.31,0.2 4.81,0.42 7.35,-1.68 v 0"
       style="fill:#ffffff;fill-opacity:1;fill-rule:nonzero;stroke:none"
       id="path1669" /><path
       d="m -1211.7001,2316.653 -20.25,12.47 c 7.68,-3.83 16.95,-3.02 20.25,-12.47 v 0"
       style="fill:#ffffff;fill-opacity:1;fill-rule:nonzero;stroke:none"
       id="path1671" /><path
       d="m -355.43009,2398.633 -5.35,6.71 2.49,0.22 z"
       style="fill:#ffffff;fill-opacity:1;fill-rule:nonzero;stroke:none"
       id="path1673" /><path
       d="m -350.15009,2365.473 -8.15,11.52 c 7.09,0.62 5.37,-6.91 8.15,-11.52 v 0"
       style="fill:#ffffff;fill-opacity:1;fill-rule:nonzero;stroke:none"
       id="path1675" /><path
       d="m -1132.7501,2268.313 2.32,0.2 55.84,-36.16 0.23,-2.58 -58.39,38.54"
       style="fill:#ffffff;fill-opacity:1;fill-rule:nonzero;stroke:none"
       id="path1677" /><path
       d="m -1746.8501,2192.723 0.42,-4.81 c -2.68,2.4 -12.11,1.58 -5.48,6.84 0.22,-2.45 2.6,-2.24 5.06,-2.03 v 0"
       style="fill:#ffffff;fill-opacity:1;fill-rule:nonzero;stroke:none"
       id="path1679" /><path
       d="m -1930.3701,2174.453 -12.16,1.16 9.66,-1.38 z"
       style="fill:#ffffff;fill-opacity:1;fill-rule:nonzero;stroke:none"
       id="path1681" /><path
       d="m -1851.6301,2181.343 c -4.21,-7.51 -16.55,-4.08 -21.37,-1.87 -0.19,2.2 13.75,5.88 21.37,1.87 v 0"
       style="fill:#ffffff;fill-opacity:1;fill-rule:nonzero;stroke:none"
       id="path1683" /><path
       d="m -1918.1201,2172.893 -5.04,2.19 4.81,0.42 z"
       style="fill:#ffffff;fill-opacity:1;fill-rule:nonzero;stroke:none"
       id="path1685" /><path
       d="m -1884.9501,2178.433 -14.04,-3.86 -0.23,2.61 c 4.42,2.6 9.71,-1.78 14.27,1.25 v 0"
       style="fill:#ffffff;fill-opacity:1;fill-rule:nonzero;stroke:none"
       id="path1687" /><path
       d="m -1978.0901,2170.283 c -6.91,-3.24 -18.3,-11.41 -25.67,-9.39 1.72,7.29 19.15,1.68 25.67,9.39 v 0"
       style="fill:#ffffff;fill-opacity:1;fill-rule:nonzero;stroke:none"
       id="path1689" /><path
       d="m 35.179907,2334.393 -2.56,-0.22 -5.32,4.42 c 2.26,2.52 5.13,-2.22 7.88,-4.2 v 0"
       style="fill:#ffffff;fill-opacity:1;fill-rule:nonzero;stroke:none"
       id="path1691" /><path
       d="m 97.079907,2339.813 -9.74,1.37 7.27,0.63 z"
       style="fill:#ffffff;fill-opacity:1;fill-rule:nonzero;stroke:none"
       id="path1693" /><path
       d="m -1046.4101,2215.583 -23.14,14.61 22.72,-9.76 z"
       style="fill:#ffffff;fill-opacity:1;fill-rule:nonzero;stroke:none"
       id="path1695" /><path
       d="m 398.55991,2329.983 -6.48,-7.64 2.45,-2.14 4.65,2.76 c 27.78,-14.37 76.77,-24.6 92.04,-61.89 6.31,-16.29 19.46,-31.7 34.98,-42.61 -10.96,-10.72 17.61,-8.22 9.17,-20.88 l -22.38,5.42 0.43,-4.89 c -10.13,8.58 -24.45,5.18 -34.13,6.48 -12.74,8.65 -26.55,29.27 -40.36,20.62 12.51,-3.66 3.57,-14.07 11.7,-23.12 -2.53,2.4 -4.77,-0.42 -7.51,1.96 l -2.1,-2.8 c 2.51,-1.94 7.93,-6.42 5.87,-11.41 -7.01,-0.62 -14.91,8.46 -19.11,0.78 -15.82,12.97 -15.88,41.96 -30.99,50.3 -2.46,2 2.2,2.41 1.98,4.89 -7.42,1.74 -12.57,6.07 -15.54,13.05 l 4.39,5.24 -5.02,2.01 -2.28,-2.65 c -20.07,10.23 -54.02,38.65 -35.13,71.31 l -0.65,7.39 c 26.78,-2.54 29.32,-4.88 54.02,-12.18 v 0"
       style="fill:#ffffff;fill-opacity:1;fill-rule:nonzero;stroke:none"
       id="path1697" /><path
       d="m -1886.3701,1697.103 -14.82,6.08 c 5,-1.95 13.99,3.48 14.82,-6.08 v 0"
       style="fill:#ffffff;fill-opacity:1;fill-rule:nonzero;stroke:none"
       id="path1699" /><path
       d="m -1403.7101,1734.613 -0.21,2.37 12.58,-3.82 z"
       style="fill:#ffffff;fill-opacity:1;fill-rule:nonzero;stroke:none"
       id="path1701" /><path
       d="m -1362.6701,1733.353 0.4,-4.61 -7.1,-0.62 -0.6,6.91 c 2.44,0.22 5.16,-4.32 7.3,-1.68 v 0"
       style="fill:#ffffff;fill-opacity:1;fill-rule:nonzero;stroke:none"
       id="path1703" /><path
       d="m -1812.1801,1674.833 c -6.87,-3.06 -23.98,0.22 -31.84,6.92 12.28,-3.99 24.35,-2.93 31.84,-6.92 v 0"
       style="fill:#ffffff;fill-opacity:1;fill-rule:nonzero;stroke:none"
       id="path1705" /><path
       d="m -1311.8301,1728.313 c -2.04,-2.85 5.28,-4.6 0.64,-7.33 l -7.09,-0.62 c -5.24,4.26 4.18,7.75 6.45,7.95 v 0"
       style="fill:#ffffff;fill-opacity:1;fill-rule:nonzero;stroke:none"
       id="path1707" /><path
       d="m -1277.3201,1719.173 0.2,-2.31 -7.49,4.13 c 2.49,0.22 6.87,2.92 7.29,-1.82 v 0"
       style="fill:#ffffff;fill-opacity:1;fill-rule:nonzero;stroke:none"
       id="path1709" /><path
       d="m -1258.2301,1720.843 c 3.15,-6.9 -12.06,-1.06 -14.25,-1.25 l 14.25,1.25 v 0"
       style="fill:#ffffff;fill-opacity:1;fill-rule:nonzero;stroke:none"
       id="path1711" /><path
       d="m -1228.9901,1716.223 -21.64,0.43 19.36,-0.63 z"
       style="fill:#ffffff;fill-opacity:1;fill-rule:nonzero;stroke:none"
       id="path1713" /><path
       d="m -1649.2201,1628.843 c -2.27,-2.59 -4.47,-5.11 -6.88,-5.32 l -2.4,-0.21 c -0.41,4.68 6.61,7.55 9.28,5.53 v 0"
       style="fill:#ffffff;fill-opacity:1;fill-rule:nonzero;stroke:none"
       id="path1715" /><path
       d="m -553.81009,1229.373 c -6.93,-3 -13.48,-8.29 -18.26,-8.71 4.37,5.1 8.64,9.98 18.26,8.71 v 0"
       style="fill:#ffffff;fill-opacity:1;fill-rule:nonzero;stroke:none"
       id="path1717" /><path
       d="m -601.12009,1220.313 c 0.19,-2.17 -4.4,-2.57 -6.97,-2.8 2.38,2.4 4.39,5.1 6.97,2.8 v 0"
       style="fill:#ffffff;fill-opacity:1;fill-rule:nonzero;stroke:none"
       id="path1719" /><path
       d="m -580.16009,1173.993 -1.96,-5.03 -2.84,4.61 c 2.42,0.21 4.8,0.42 4.8,0.42 v 0"
       style="fill:#ffffff;fill-opacity:1;fill-rule:nonzero;stroke:none"
       id="path1721" /><path
       d="m -631.48009,1155.223 -2.71,4.47 7.1,0.63 z"
       style="fill:#ffffff;fill-opacity:1;fill-rule:nonzero;stroke:none"
       id="path1723" /><path
       d="m -664.32009,1145.113 c -1.96,-4.96 -9.26,-3.27 -13.8,-5.99 1.89,4.94 6.72,5.37 13.8,5.99 v 0"
       style="fill:#ffffff;fill-opacity:1;fill-rule:nonzero;stroke:none"
       id="path1725" /><path
       d="m -706.23009,1131.873 c -2.07,-7.62 -11.53,-5.85 -18.61,-9.07 4.59,3 11.48,5.79 18.61,9.07 v 0"
       style="fill:#ffffff;fill-opacity:1;fill-rule:nonzero;stroke:none"
       id="path1727" /><path
       d="m -638.84009,1130.323 -5.22,2.14 7.36,0.65 z"
       style="fill:#ffffff;fill-opacity:1;fill-rule:nonzero;stroke:none"
       id="path1729" /><path
       d="m -648.54009,1129.483 c -3.9,-7.38 -9.34,-3.07 -16.68,-1.46 l 16.68,1.46 v 0"
       style="fill:#ffffff;fill-opacity:1;fill-rule:nonzero;stroke:none"
       id="path1731" /><path
       d="m -669.52009,1122.933 c -3.99,-10.05 -25.17,-14.23 -36.69,-22.54 3.57,14.79 28.06,12.08 36.69,22.54 v 0"
       style="fill:#ffffff;fill-opacity:1;fill-rule:nonzero;stroke:none"
       id="path1733" /><path
       d="m -713.09009,1099.783 -4.85,-0.42 c -5.03,2.09 4.22,7.68 6.68,5.3 l -1.83,-4.88"
       style="fill:#ffffff;fill-opacity:1;fill-rule:nonzero;stroke:none"
       id="path1735" /><path
       d="m -727.58009,1098.523 c 0.21,-2.38 -4.25,-5.09 -6.47,-7.61 -2.31,-0.2 -0.61,6.99 6.47,7.61 v 0"
       style="fill:#ffffff;fill-opacity:1;fill-rule:nonzero;stroke:none"
       id="path1737" /><path
       d="m -1678.4501,972.29303 -5.25,4.26 4.85,0.42 z"
       style="fill:#ffffff;fill-opacity:1;fill-rule:nonzero;stroke:none"
       id="path1739" /><path
       d="m -1301.9801,875.23303 c 0.21,-2.37 -2.02,-4.95 -4.39,-5.16 l -2.46,-0.21 c -0.21,2.37 2.04,4.95 6.85,5.37 v 0"
       style="fill:#ffffff;fill-opacity:1;fill-rule:nonzero;stroke:none"
       id="path1741" /><path
       d="m -1332.5201,865.19303 c -6.6,-5.5 -16.08,-8.51 -25.86,-7.18 7.08,3 16.64,6.37 25.86,7.18 v 0"
       style="fill:#ffffff;fill-opacity:1;fill-rule:nonzero;stroke:none"
       id="path1743" /><path
       d="m -782.38009,3052.913 -54.41,-18.01 c 30.78,-0.32 47.03,6.57 54.41,18.01 z m -174.22,-198.04 c -5.34,-1.63 -10.9,-2.76 -17.79,-5.11 5.28,2.21 14.86,2.23 17.79,5.11 z m -528.53001,-134.43 c -0.35,-0.09 -0.74,-0.13 -1.07,-0.26 -0.27,-0.09 -0.51,-0.25 -0.76,-0.31 0.63,0.23 1.29,0.29 1.83,0.57 z m -9.18,-2.1 c -2.6,-0.7 -5.24,-1.48 -7.6,-2.3 4.34,0.72 8.78,1.79 13.04,3.22 -1.75,-0.29 -3.56,-0.55 -5.44,-0.92 z m 10.78,3.13 c -0.59,-0.29 -1.04,-0.81 -1.6,-1.03 4.09,0.7 8.08,1.26 11.85,1.15 -3.59,1.42 -7.01,1.05 -10.25,-0.12 z m 866.65001,383.15 -0.09,-1.51 c 5.08,2.28 10.22,4.38 15.38,6.53 z m 69.66,-54.09 -11.58,-4.63 0.32,-3.7 z m -54.37,59.11 66.72,21.48 c -27.84,-7.38 -48.18,-14.19 -66.72,-21.48 z m -211.57,-1939.17 0.77,-0.2 c 0.5,0.04 1.05,0.36 1.56,0.41 z m -392.12001,1649.43 h 0.07 z m 1833.94001,150.92 c 2.75,-2.12 2.35,2.39 7.08,2.8 -11.24,44.72 -15.83,97.22 -31.94,144.07 -47.94,82.29 -119.46,155.34 -185.79,226.52 l 179.41,39.74 c -57.64,-0.16 -123.09,-22.86 -188.85,-40.57 -10.02,4.05 -3.71,14.12 -5.73,11.45 l -4.9,-0.43 c -5.3,6.99 -15.54,13.26 -21.01,20.2 4.66,2.35 19.54,-3.35 18.5,8.55 -4.87,1.93 -9.4,-3.28 -14.06,-3.69 -6.88,-3.13 -19.06,-1.67 -17.37,5.86 l 98.84,25.28 -32.94,-7.5 c -26.13,-4.81 -58.18,-22.02 -78.63,-9.4 -12.56,3.75 -33.36,23.65 -46.04,3.11 12.94,-37.29 -45.68,-28.01 -65.95,-44.2 21.31,4.4 46.86,15.99 63.81,12.83 l -119.48,-34.33 c 43.51,-1.25 79.74,21.29 115.87,22.13 l -17.1,-23.22 -3.21,6.96 -19.61,-23.51 -382.45,-108.05 -32.26,38.3 c 128.619997,42.4 258.33,70.62 387.69,105.98 -125.38,-25.28 -261.660003,-61.48 -387.89,-103.68 -45.56,53.6 -97.87,99.64 -154.41,142.82 l 4.62,2.83 c -14.65,1.11 -22.37,7.74 -21.36,24.5 -9.98,-24.85 -29.69,9.49 -41.64,6.12 l 28.29,-19.41 c -11,-10.36 -23.94,0.39 -36.04,-0.66 -96.92,63.62 -196.12,127.28 -312.48,136.26 2.95,19.52 8.59,36.85 1.94,60.28 -43.23,-1.26 -56.15,-45.76 -67.84,-78.04 -11.72,-1.02 -33.75,1.73 -37.24,-12.99 5.58,-9.14 4.61,-25.93 18.84,-24.68 -22.87,-93.37 -39.03,-186.25 -28.34,-279.17 -16.03,-42.66 40.75,-116.86 18.63,-150.97 l 3.95,1.33 5.46,-6.73 -67.61,-24.93 -0.62,7.01 -1.69,-7.22 -60.33,-24.44 c -15.85,-11.12 -45.18,-6.68 -51.52,-16.59 l -7.77,6.56 99.93,39.82 -107.18,-40.45 c -20.14,10.05 -53.79001,9.57 -67.01001,23.02 -38.7,3.73 -78.87,24.29 -120.55,30.34 l -5.23,6.61 -4.66,-2.59 c -17.96,12.74 -38.64,3.55 -54.16,16.78 -49.36,12.35 -103.11,22.16 -153.98,27.24 -124.53,20.46 -264.39,25.16 -383.14,7.57 -16.39,22.44 26.97,47.95 -14.67,56.26 -21.6,0.47 -36.24,-24.89 -44.42,-39.91 3.68,-153.48 54.46,-293.54 114.15,-427.64 l -22.78,-14.08 16.54,6.16 c -1.89,-7.14 -16.12,-10.94 -22.89,-16.35 -20.04,10.44 -46.8,-13.73 -65.43,-20.27 9.63,-1.55 20.72,11.51 30.76,5.21 -11.71,-3.55 -27.64,-11.98 -37.84,-5.83 -9.13,-5.38 -32.28,-14.81 -29.52,-21.78 -54.39,-9.71 -97.2,-42.04 -146.13,-60.88 l 11.91,1.05 -4.39,-5.24 c -6.06,-12.55 -20.14,-16.1 -28.25,-7.18 l -106.18,-50.21 0.42,-4.74 c -4.04,-7.53 -16.65,-1.46 -14.41,1.06 l -94.67,-46.67 4,10.05 c -4.43,-5.17 -13.68,-8.58 -10.81,-15.43 l -285.56,-142.96 -25.76,-7.1 2.52,-2.03 -9.08,-5.58 c -39.99,-10.8 -61.66,-39.07 -94.33,-49.03 l 2.53,-2.51 -34.95,-12.42 c -342.276,-184.13 -686.432,-375.18 -1004.889,-610.02 -3.328,-17.03 16.218,-20.23 26.363,-26.52 l -34.461,-46.25 c 20.598,11.5 41.68,-8.51 62.715,-1.82 l 132.793,76.51 c 339.961,183.81 677.279,369.58 1028.929,527.85 32.91,-73.8 81.74,-137.26 155.92,-186 18.89,-24.92 53.46,-36.2 79.6,-57.79 57.94,-60.17 129.19,-104.48 203.82,-131.49 l -4.45,-5.17 c 20.2,-12.65 36.3,-1.68 52.49,-24.3 43.48,-0.98 77.37,-31.55 119.19,-40.13 11.88,1.04 23.49,4.59 29.18,-4.41 l -2.37,-0.21 24.59,-7.75 -6.58,-7.68 c 11.25,10.48 24.78,-5.01 38.69,-1.47 l 3.83,9.97 c 2.57,0.23 2.78,-2.08 5.35,-4.31 l -2.36,-0.21 19.56,-3.14 -21.3,-6.64 c 7.51,0.65 12.34,-1.31 17.7,-8.09 -8.51,-10.44 -20.37,12.63 -36.05,1.5 39.27,-10.91 78.6,-21.75 119.29,-18.19 -1.98,-5.09 -9.39,-0.82 -6.77,-5.51 5.21,-4.33 9.61,0.84 11.59,5.93 l 3.24,-9.41 4.06,7.66 c 6.66,5.3 19.37,-0.83 20.02,-8.15 l -18.96,-3.91 c 9.7,-1.55 23.96,2.09 35.68,3.12 5.23,-4.26 12.82,-8.38 13.23,-13.06 -434.76,-117.48 -842.74,-290.4 -1213.73,-529.63 l -4.97,1.82 c 0.19,-2.24 0.4,-4.61 -2.07,-4.83 -75.37,10.21 -73.81,-90.74997 -135.048,-105.59997 l 18.808,3.97 c -5.62,-17.37 -26.238,-28.73 -22.418,-45.14 -19.019,-4.12 14.498,-27.69 -11.664,-32.57 9.817,-1.33 10.856,-13.2 16.481,-22.47 -20.465,-13.75 14.691,-29.86 20.451,-41.45 l -19.065,-1.67 c 103.925,-60.85 219.445,-89.27 340.605,-100.19 149.97,-8.4 312.33,-23.02 462.74,-9.86 275.43,11.73 532.34,43.98 777.99,123.33 l 13.41,10.87 c 33.13,5.29 70.12,22.8 101.32,25.53 l -2.28,-2.59 25.7,9.56 -2.9,4.66 c 63.22,19.88 129.57,32.86 186.75,64.29 l 3.24,-7.02 c 22.63,16.39 48.60001,21.33 74.18001,30.67 12.32,22.79997 42.92,3.76 55.59,24.18997 58.01,21.89 118.12,51.12 173.99,72.95 -4.85,1.96 -11.86,-1.04 -19.41,0.69 -12.61,-20.43 -39.99,-8.48 -60.6,-21.97 -10.44,-18.06 -26.28,-2.3 -32.17,-17.43 l -86.44,-26.76 c 108.45,52.59 235.27,87.73 348.13,143.3 l -97.99,-35.07 c -11.3,-8.02 -29.73,-16.95 -42.05,-13.18 l -0.41,4.68 c -8.9,-7.81 -23.83,-2.08 -20.16,-16.17 -22.14,2.91 -60.73,-21.99 -82.9,-16.89 91.45,56.3 197.62,79.86 286.43,133.6 -20.77,-6.6 -41.22,-20.89 -65.36,-20.4 l 6.68,5.36 c -23.62,-4.45 -43.72,-20.62 -63.42,-17.57 31.87,48.56 99.89,42.49 142.64,75.05 -7.8,6.56 -25.18,-14.22 -35.64,-5.51 -73.68,-37.59 -157.04,-47.27 -233.22,-82.77 l -3.92,-10.11 -11.6,3.5 c -51.81,-9.8 -112.71,-45.73 -171.75,-53.15 85.58,41.1 184.98,59.56 270.19,102.95 -77.45,-23.37 -151.74,-54.19 -228.74,-80.12 -161.04001,-57.33 -334.79001,-106.35 -495.91001,-134.79 -59.39,-5.18997 -124.47,-32.53997 -175.75,-25.07997 l -1.62,-7.24 c -27.04,4.74 -52.46,-4.59 -78.62,-9.27 -24.76,9.86 -57.33,-5.01 -79.36,0.37 -22.09,-23.66 -44.16,10.41 -66.44,-10.73 l -197.21,-0.45 c -12.1,1.33 -22.54,-16.25 -31.08,-2.72 -232.04,15.56 -483.47,1.01 -695.31,114.71997 l 4.33,5.16 2.65,-2.16 -0.63,7.19 c 25.8,6.9 55.98,19.24 78.32,38.2 78.13,42.7 166.07,81.68 245.81,131.89 265.64,100.37 522.49,240.74 805.65,301.65 l -5.19,4.26 25.57,6.2 c -4.21,-0.03 -8.5,1.51 -7.15,4.91 l 183.9,42.59 22.02,-5.25 -0.62,7.12 2.65,0.23 c 2.38,-2.11 9.63,-3.94 2.8,-6.93 8.77,7.94 17.78,-12.72 21.34,1.87 0.42,-4.81 17.3,-3.34 19.83,-5.37 l -15.07,8.18 2.22,0.19 c 0.2,-2.37 2.42,0.22 4.88,0.43 7.15,0.63 16.73,1.46 17.35,-5.72 l -7.11,-0.63 c 16.97,-29.66 60.11,-1.91 87.95,-16.28 6.24,10.05 22.8,-12.35 23.45,6.77 l 22.44,-9.93 3.95,9.91 c 2.66,-2.15 9.78,-1.53 5.14,-4.26 20.6,-15.07 30.38,12.29 53.02,-0.21 l -2.11,-2.58 c 17.18,-5.66 39.76,10.72 57.6,0.26 l -25.56,-9.48 c 24.46,-5.1 64.7,3.21 91.56,-1.82 l -0.65,7.32 c 2.2,2.65 4.68,0.41 7.25,-1.76 -2.15,-2.58 -1.93,-5.16 -1.93,-5.16 l 13.68,8.58 c 27.17001,-7.39 62.77001,-1.89 91.41001,0.62 -31.42,2.24 -81.78001,0.22 -109.46001,14.67 59.91001,2.85 122.46001,1.16 179.55001,8.54 0.21,-2.37 -2.03,-2.57 -1.81,-5.01 4.79,0.42 6.83,3.06 9.15,5.65 21.56,-0.5 44.65,8.69 69.1,6.05 5.89,14.86 26.35,2.3 38.5,0.98 39.54,13.02 85.44,12.12 126,15.66 -40.18,18.08 -79.09,24.16 -124.47,20.19 -8.4,11.5 8.48,12.98 10.03,22.6 -5.18,4.33 -12.76,8.59 -20.51,12.63 -105.91,29.46 -220.61,21.75 -333.02001,16.76 -461.66,24.57 -933.28,81.74 -1275.81,424.85 47.13,9 104.38,16.34 154.04,25.5 31.57,-4.38 65.16,-1.44 90.46,10.13 l 0.19,-2.2 c -0.19,2.2 8.6,10.25 14.37,1.25 57.67,0.23 125.49,22.87 183.36,20.73 36.34,-4.13 70.49,18.18 93.48,3.5 -4.83,-0.43 -9.87,1.35 -17,0.72 12.79,-8.23 33.75,-1.89 45.58,1.78 l -21.81,2.77 23.35,9.25 c 81.53,2.52 196.73,5.32 275.36,12.2 2.61,-4.59 7.55,-4.15 7.98,-9.1 52.53,4.59 109.41,-11.95 161.18,-0.21 l 1.05,-12 c 64.86,1.03 127.59,-0.86 187.1,-22.06 l -12.99,10.89 c 31.6,-4.41 72.02,-25.09 99.22,-8.4 l 152.71001,-68.23 4.42,5.13 c 7.58,-4.08 5.9,-11.37 6.11,-13.84 13.61,10.82 29.73,-9.32 40.76,1.41 -20.04,7.68 -28.61,26.09 -50.79,31.49 3.58,14.55 14.17,1.24 20.92,8.93 -39.13,6.21 -68.23,37.44 -107.58001,45.99 l 1.94,5.02 c -17.02,3.19 -35.17,15.91 -47.78,24.75 l 1.92,4.81 -27.85,14.2 -6.71,-5.13 c -2.55,2.06 -5.24,6.68 -10.06,6.26 -0.43,4.91 4.39,5.33 3.96,10.18 -15.07,5.82 -32.2,11.6 -43.33,27.42 l 7.13,2.75 c -25.56,17.2 -51.22,34.32 -75.97,41.49 l 10.14,-6.27 c -23.68,-2.07 -17.68,10.6 -40.24,18.36 l 4.59,4.91 c -23.17,17.37 -39.95,42.2 -69.24,49.34 l 20.44,-15.09 c -20.18,-16.24 -18.36,17.8 -30.49,19.06 l 4.8,0.42 c -16.31,22.48 -29.49,35.81 -56.91,45.7 -40.82,53.81 -119.33,102.48 -158.64,163.87 l 80.76,40.81 -5.24,4.42 c 2.38,0.21 4.62,2.69 6.92,2.9 4.84,-1.87 0.63,-7.12 3.18,-9.22 l 41.27,22.77 23.37,9.25 c 0.3,21.54 36.7,20.08 54.69,33.68 l 5.42,-6.9 c 18.01,13.77 39.58,15.66 55.07,31.59 l -5.04,1.89 c 40.23,34.7 115.34,55.58 172.94,82.55 l -24.94,-16.94 7.53,-1.6 c 50.39,28.46 98.6,54.33 154.94001,71.11 0.65,-1.55 0.24,-2.68 -0.65,-3.44 1.86,0.57 3.74,0.94 5.58,1.75 30.44,-19.16 75.79,-41.62 106.61,-65.33 21.99,-2.89 27.78,-14.41 42.86,-22.82 31.42,-28.44 75.6,-38.85 97.79,-73.04 43.86,-32.3 80.9,-72.44 123.04,-114.52 12.92,-37.19 49.57,-70.12 73.85,-101.8 12.17,-1.33 21.95,-0.48 28.19,9.84 11.16,8.08 12.8,-10.7 18.49,-19.97 -0.39,4.54 7.05,2.87 9.56,0.84 -2.32,-0.21 -2.11,-2.58 -6.86,-2.99 5.17,-4.4 9.81,-4 14.82,-6.02 -6.49,-7.81 15.71,-12.97 1.69,-19.32 34.97,-13.33 37.07,-66.31 78.27,-67.55 l -21.76,29.33 8.55,-0.55 c -4.41,1.86 -8.2,5.9 -11.23,0.31 3.71,15.01 -19.25,29.53 -12.56,35.11 l -6.69,-5.58 -10.65,11.03 11.47,6.12 -7.75,6.43 -1.91,-7.27 c -6.47,18.7 -24.66,36.09 -30.99,52.69 2.37,0.2 4.65,2.59 4.84,0.42 l -3.5,11.51 7.28,0.64 c -5.22,4.39 -10.49,8.78 -13.42,15.76 l -4.61,-2.79 c -7.89,8.8 -15.87,15.48 -14.58,27.41 5.86,17.46 -31.65,33.3 -13.65,49.36 l -12.97,10.95 c 1.91,2.63 4.39,5.31 6.66,5.51 -25.88,48.07 -57.03,100.82 -82.79,149.18 l 3.98,7.31 c -35.99,56.9 -59.22,127.24 -81.34,187.81 l 5,-2.09 -5.21,4.49 165.52,62.64 c -2.93,4.59 -21.97,2.93 -28.66,-5.1 l 2.73,-4.41 c -19.07,-1.67 -30.33,-9.96 -47.28,-8.91 -4.41,-2.91 -14.03,-3.76 -8.62,-10.53 l -79.32,-28.59 -2.76,4.61 16.38,6.21 c -10.12,4.04 -15.96,-11.02 -23.91,-2.09 52.37,31.15 104.46,42.95 165.21,62.55 l -5.08,4.23 4.24,5.43 c -49.25,-14.05 -98.4,-30.51 -142.13,-51 -9.49,-3.19 -27.83,-12.17 -29.1,2.3 27.83,12.14 65.49,22.54 92.93,36.79 l 11.59,4.74 -0.12,1.32 c 23.23,11.7 37.78,34.39 63.92,39.06 0.41,-4.67 -4.26,-5.08 -4.05,-7.59 11.1,10.8 30.39,9.9 36.69,20.04 -12.35,3.91 -26.43,0.39 -36.08,-0.45 l 43.89,20.54 c -35.49,-5.43 -57.23,-31.41 -87.13,-48.41 l -5.23,4.09 c -11.34,-8.2 -26.2,-2.29 -39.84,-10.69 -2.8,-0.25 -6.39,1.18 -8.61,3.28 -14.73,-5.32 -47.2,-1.54 -52.52,-20.59 -10.37,8.7 -17.79,13.07 -29.68,9.36 18.06,13.64 63.61,21.11 82.13,32.6 l 1.36,-15.56 15.96,1.4 c 13.21,13.21 21.53,1.88 34.97,12.72 -9.52,25.71 30.09,14.86 38.46,27.41 l -5.07,4.41 11.39,5.85 c -25.31,-14.24 -55.5,-24.19 -83.54,-33.72 l -3.13,6.8 c 11.66,5.77 30.76,7.44 36.8,19.99 -11.7,-3.31 -46.84,-13.56 -69.72,-27.65 l 0.98,13 c -20.9,-9.18 -41.62,-19.63 -71.25,-33.73 l -6.09,14.05 32.5,12.37 c -12.16,1.5 -21.21,-4.21 -30.4,-9.59 -8.94,20.73 -13,39.57 -22.02,60.3 -1.84,103.4 -17.76,203.03 7.01,303.84 18.46,8.65 32.66,-16.51 51.3,-9.99 l -1.47,-7.54 7.24,-1.52 c -0.41,4.64 -2.85,4.42 -5.56,6.68 4.52,5.11 8.98,7.86 16.52,6.16 6.69,-20.97 33.7,-1.76 47.07,-17.43 6.09,-13.92 -14.81,-22.98 -19.21,-28.26 0.62,-7.15 8.17,-8.94 12.69,-6.09 10.36,-37.62 46.78,-41.67 77.02,-55.7 28.12,-19.26 51.17,-36.2 81.25,-48.15 32.35,-40.51 85.58,-69.47 117.61,-107.75 l -2.13,-2.51 c 20.73,9.19 23.66,-24.33 38.25,-25.41 -39.3,-17.92 -100.85,-30.48 -139.76,-50.96 -21.32,-6.51 -4.41,-5.03 -17.58,-18.37 l 126.23,40.04 c -1.47,16.81 25.12,14.28 39,20.35 17.25,-32.24 48.47,-31.86 58.39,-62.18 l -2.14,-2.78 c 73.84,-101.67 154.749997,-202.76 186.879997,-322.74 l -8.63,-10.25 9.45,0.83 c 0.42,-4.81 -1.69,-7.56 -1.49,-9.83 17.94,-39.35 9.23,-78.56 27.3099997,-120.15 -11.6099997,-32.44 11.15,-71.37 11.95,-107.3 -13.1899997,-15.57 10.7800003,-16 7.3400003,-30.64 -250.949997,-72.37 -472.279997,-262.56 -508.889997,-532.75 4.18,-47.79 18.53,-101.93 39,-143.24 17.45,-8.18 24.28,-31.55 42.33,-42.27 -4.62,-31.35 47.94,-53.59 27.64,-69.65 l 8.98,5.57 c 119,-121.77 307.229997,-129.41 455.619997,-65.75 7.99,-9.07 19.67,-5.72 28.900003,0.01 l -2.9,4.59 67.24,27.6 c 11.28,10.22 38.86,-1.65 42.08,15.44 67.76,23 129.69,57.25 186.02,100.5 2.08,2.71 8.21,15.4 16.14,8.79 58.19,74.76 139.84,132.39 155.71,225.17 -31.98,-19.6 9.43,32.25 -21.49,24.69 l 3.93,12.3 c -14.37,-1.26 -25.72,17.01 -19.61,29.57 l -6.73,-5.44 c -7.7,6.5 3.38,16.97 -2.1,24 -9.31,-0.81 -21.38,-1.87 -22.4,9.86 -4.41,-5.17 -6.27,-10.18 -10.91,-12.77 -30.53,18.91 -12.1,56.56 -35.96,81.01 l -0.83,-17.08 c -19.05,-1.67 -25.37,14.78 -42.29,15.52 -7.49,30.94 -30.73,50.43 -47.66,77.6 l -4.84,-0.42 -1.26,-12.14 c 23.46,-19.56 42.89,-49.12 47.67,-77.62 l -7.08,-0.62 c 4.75,-28.31 -14.51,-54.01 -29.53,-76.91 -4.68,-0.41 -5.09,4.34 -7.56,6.38 -23.22,-9.07 -12.51,30.39 -26.76,31.4 -2.74,-24.25 -0.45,-50.45 -8.17,-72.85 -32.02,6.76 -28.1,43.31 -57.39,50.45 -0.21,2.37 -0.21,2.37 1.92,4.74 -6.68,-5.16 -20.75,-8.92 -26.33,0.02 -10.77,-12.76 -33.32,-5.24 -49.28,-13.74 l -0.22,2.51 c -20.89,-9.17 -43.06,-3.77 -64.62,-5.65 l 8.58,12.77 c -11.07,15.7 10.27,20.06 13.6,37.02 l -12.3,3.8 c -3.62,14 29.55,19.4 9.59,27.24 l 7.3,0.64 -11.47,20.83 c -10.86,13.46 13.14,15.56 17.17,22.98 l -5.48,9.08 c 18.7,4.13 -1.89,21.6 4.5,29.39 -2.78,4.51 -7.85,8.95 -12.47,6.26 -3.09,6.66 -13.72,17.68 -1.87,21.35 -6.43,18.84 -20.72,-11.37 -27.41,7.48 l 2.14,4.76 2.68,-2.26 7.81,19.84 c -10.32,8.83 -15.07,34.82 -28.47,23.88 l 2.55,-2.03 -7.000003,-2.9 c -12.28,3.47 -30.92,-2.71 -30.51,18.81 l -4.63,-0.4 c -12.33,1.55 -11.28,-10.38 -17.71,-18.49 -24.11,0.48 -59.13,-12.08 -68.88,18.22 l 14.0099997,3.82 -2.5499997,2 c -9.03,-8.07 -31.85,6.61 -30.21,-12.14 -16.72,-1.46 -17.69,-18.52 -31.75,-22.35 l 5.24,-4.08 -13.63,-10.86 -5.35,6.84 -4.09,-5.2 -3.09,4.57 c -8.229997,-15.1 -27.819997,-12.16 -39.129997,-20.29 -2.72,4.34 -9.82,3.72 -11.81,-1.04 -40.5,-6.14 -81.93,-26.43 -100.21,-63.99 -10.04,3.7 -22.17,-23.77 -31.15,-2.73 92.94,120.88 244.109997,235.29 404.78,184.47 -7.5,4.16 -13.14,13.36 -23.2,17.27 28.83,2.52 57.09,-19.16 82.72,-38.47 l 4.12,7.54 55.25,-26.42 -18.23,17.29 4.05,5.54 c -33.61,30.61 -64.44,51.97 -102.63,77.52 l 6.95,3 -24.72,7.47 5.08,-4.54 c -21.990003,3.06 -54.840003,-4.8 -70.170003,6.02 15.31,15.69 10.74,41.65 6.46,63 17.43,47.36 -1.97,103.38 13.46,147.97 5.05,-1.94 13.09,-13.2 17.18,-5.67 12.34,-27.88 4.41,-76.59 45.480003,-77.78 6.23,10.24 -4.25,21.28 -9.5,27.79 l 4.84,135.4 6.77,5.24 c 7.76,101.77 62.79,188.35 100.28,283.17 l -6.23,16.12 c 15.43,44.76 33.08,89.37 45.82,136.25 17.97,13.63 7.74,48.91 29.11,52.93 l -5.25,4.56 10.85,13.04 c 1.97,5.02 -0.62,7.12 -5.86,11.44 l 4.4,5.24 c 54.25,-43.42 128.17,-92.31 160.4,-156.81 -42.13,42.08 -84.86,91.18 -140.05,115.14 l -3.52,-14.55 c 21.28,-19.86 51.48,-36.48 60.23,-54.94 -24.89,7.55 -34.15,33.15 -58.97,40.5 l 34.3,-35.42 -40.64,25.34 -3.82,-9.9 c 32.27,-38.16 87.88,-69.23 108.7,-115.7 -35.21,18.44 -50.27,53.19 -84.99,64.73 -10.66,11.13 -34.77,40.37 -49.83,19.72 2.66,-1.95 5.03,-1.74 7.49,-4.12 l -4.41,-2.68 41.53,-37.25 -2.09,-2.78 83.43,-74.49 -9.58,1.55 c 51.72,-43.6 87.84,-97.86 114.67,-158.49 52.93,-110.57 2.02,-240.1 -9.54,-356.48 17.62,-8.1 0.64,-33.83 13.25,-42.09 11.67,5.74 8.12,17.25 12.3,24.92 64.04,121.25 101.36,242.35 103.92,379.64 -9.01,18.4 5.2,48.4 -8.61,69.09 z m -1579.95,-1954.31 7.1,0.62 c -1.91,-2.49 -8.81,-7.81 -7.1,-0.62 z m -67.84001,87.99 -100.45,-32.97 c 32.57,12.55 67.83,20.42 100.45,32.97 z m -126.62,-37.85 12.15,1.06 -33.33,-5.1 z m 10.47,-90.27997 -35.2,-10.19 c 4.37,5.1 23.23,9.14 35.2,10.19 z m -131.47,-35.69 2.68,-4.27 -30.6,-7.46 z m -132.35,-54.81 c 70.83,13.5 145.96,34.29 215.91,59.87 0.16,-1.76 1.76,-3.13 3.56,-3.79 6.3,2.33 12.51,4.79 18.7,7.24 8.38,4.7 17.13,9.56 27.11,10.43 -9.03,-4 -18.1,-6.91 -27.11,-10.43 -5.69,-3.16 -11.32,-6.32 -17.08,-7.84 -0.55,-0.05 -1.02,0.38 -1.62,0.6 -79.65,-29.44 -160.01,-47.06 -244.43,-72.61 l -5.32,4.25 c -37.01,-17.52 -86.87,-24.48 -131.55,-35.49 l -5.29,4.11 c 54.18,14.65 112.54,34.1 167.12,43.66 z m -816.15,-128.92 129.97,-0.86 c -40.49,-3.54 -91.33,1.71 -131.8,-4.36 z m 1111.19,825.92997 16.8,-0.92 4.77,0.42 0.21,-2.44 -21.57,0.57 z m -600.64,72.25 c -8.73,-7.93 -16.92,1.12 -24.09,3.02 2.11,2.44 16.42,3.69 24.09,-3.02 z m 684.25,1224.04 c -53.79,-16.63 -105.92,-54.9 -164.94,-64.88 36.37,22.52 60.95,17.43 92.56,41.74 1.88,5.05 -5.65,6.89 -5.44,4.41 -21.6,0.61 -31.19,-26.81 -51.15,-19.06 l -55.79,-21.48 c 0.72,0 1.55,0.38 2.27,0.2 -0.23,-0.33 -0.23,-0.33 -0.48,-0.55 1.88,-0.18 3.65,0.83 5.28,0.97 -1.92,-2.69 -4.58,-2.93 -9.07,-3.32 1.9,0.17 2.34,0.41 3.79,2.35 -0.62,0.08 -1.16,-0.24 -1.86,0.35 -7.1,-0.28 -16.2,-8.08 -19.03,-1.67 58.16,21.69 114.69,36.33 172.05,67.96 z m -163.89,-76.87 -9.61,-0.85 7.09,3.15 z m -29.33,33.46 4.57,2.96 2.16,0.19 -4.36,-5.06 z m 29.34,22.01 2.75,-4.62 c -2.54,2.28 -9.46,-0.82 -2.75,4.62 z m 126.85,32.61 -46.77,-13.69 c 10.37,17.88 29.64,17.24 46.77,13.69 z m -43.52,1.25 c -2.12,-0.19 -4.08,-5.42 -6.49,-7.95 l 7.14,0.62 c -4.33,-2.7 -4.33,-2.7 -9.26,-0.8 z m -23.91,-28.67 -18.61,-6.48 18.41,8.79 z m -26.81,4.73 -0.21,2.4 7.17,0.63 0.21,-2.41 z m 9.87,-3.89 6.96,5.36 7.12,0.62 z m -350.72,161.88 2.44,0.21 0.22,-2.54 -2.44,-0.21 z m -635.39,-543.86 c 0.41,-4.75 -6.53,-7.81 -9.52,-3.29 2.58,0.22 4.44,5.17 9.52,3.29 z m 810.66,-167.34 0.61,-7.02 c 14.26,1.25 13.77,-20.5 34.9,-13.93 -5.79,-17.21 20.31,-12.57 30.57,-21.37 -299.95,19.67 -622.97,29.8 -938.44,-46.05 -18.09,-13.6 -45,-11.1 -65.99,-17.79 l -137.89,-45.77 -2.72,4.54 c 175.13,87.65 357.29,175.58 534.99,261.15 l -5.16,4.12 19.3,1.69 c 73.39,37.71 146.81,80.4 223.25,113.39 21.51,1.88 33.65,-25.81 47.91,-27.03 -1.9,-4.81 5.59,-9 11.02,-13.31 l 1.51,7.1 c 83.25,-67.24 160.52,-156.87 246.14,-199.72 z m -237.1,429.41 18.41,8.38 -5.24,4.46 -60.04,-29.16 c 0.22,-2.48 2.71,-2.26 5.03,-2.06 -6.94,-3.03 -18.87,-4.08 -18.04,-13.56 l -4.91,1.89 c -2.61,2.3 16.22,6.27 10.8,15.29 l -16.22,-8.53 c -69.86,111.73 -116.17,228.1 -132.41,358.86 13.52,-15.83 37,-11.11 54.77,-21.71 l 5.82,-9.16 c 49.04,-12.45 96.44,-5.97 149.64,-8.7 -1.63,-9.64 8.16,-11.07 12.99,-10.64 9.36,3.1 12.28,-3.78 17.54,-8.2 56.11,-9.61 105.44,-22.13 163.3,-24.28 64.83,-25.54 137.28,-31.02 197.73,-61.8 l -2.14,-2.71 9.88,-3.99 c -6.26,-10.21 -24.93,-16.66 -29.71,-17.08 -0.89,-16.78 19.03,4.09 31.17,0.37 l -4.19,-5.22 2.53,-2.13 c -14.26,-1.25 -32.33,-14.85 -51.29,-18.84 l 1.68,-19.25 c 11.31,10.69 25.54,11.94 37.02,17.79 -6.51,-7.74 -22.99,-11.5 -20.24,-16.32 14.58,-1.15 27.54,14.43 41.42,20.7 l 11.85,-0.53 c -16.6,-2.72 -31.76,-26.93 -53.06,-22.58 l -11.15,-8.04 4.16,7.43 -19.59,0.71 c 7.3,0.64 11.22,10.69 3.53,14.87 -35.83,-3.14 -72.22,-25.52 -109.67,-38.5 -26.16,-2.29 -58.9,-12.22 -84.19,-26.55 -32.84,-7.76 -70.53,-18.17 -97.34,-42.06 46.71,16.1 95.24,39.54 144.67,50.8 0,0 3.59,-13.79 14.9,-5.63 l -18.04,-13.77 12.35,-3.73 -4.76,-0.42 5.16,-4.09 -2.31,-0.2 c 0.27,-3.08 0.24,-4.25 -0.02,-5.02 l 0.46,0.04 c -0.19,-0.02 -0.33,-0.24 -0.44,-0.25 l -0.02,0.21 c -11.97,-1.05 -35.37,-3.23 -38.74,-17.91 l -7.65,1.82 6.61,10.08 c -26.15,-6.8 -44.12,-18.21 -72.42,-25.6 33.95,24.76 61.15,15.12 90.13,39.24 -15.15,10.76 -42.36,-8.25 -59.11,-9.72 6.71,5.13 19.02,1.67 18.21,10.96 -40.81,1.45 -76.19,-33.07 -111.96,-38.7 -0.21,2.48 -2.77,2.26 -2.98,4.6 -2.29,-14.58 -18.89,-16.92 -33.88,-21.86 z m 268.36,90.46 c -0.22,2.57 -2.33,2.39 -4.68,2.18 11.78,1.03 20.73,11.38 34.79,12.61 -15.68,-10.93 -29.08,-26.55 -52.96,-26.32 z m -29.97,-14.48 -2.5,2.11 6.75,5.2 2.47,0.22 z m 83.16,14.21 c -10.92,-12.8 -41.72,-17.75 -58.03,-24.2 21.15,6.87 36.43,22.31 58.03,24.2 z m 7.9,-35.34 c -4.15,-7.5 -23.87,-30.84 -37.22,-15.24 8.7,10.63 26.49,-0.04 37.22,15.24 z m -171.22,-22.12 -6.5,-10.09 -5.01,1.88 z m -20.68,-11.33 -4.21,-7.51 -2.34,-0.2 z m -8.61,-10.52 c 2.9,-6.86 -19.24,-1.69 -16.11,-8.52 -7.56,1.66 11.05,10.7 16.11,8.52 z m -37.52,16.01 7.32,-1.72 c -2.09,-2.67 -16.3,-6.27 -7.32,1.72 z m -24.88,-74.35 c 7.79,20.05 26.8,24.07 40.4,32.43 -0.22,2.51 -2.51,2.31 -4.86,2.11 l 4.23,5.08 c -6.54,-5.29 -21.16,-4.24 -25.19,-14.46 0,0 -6.54,-0.92 -14.43,-2.12 -9.08,-5.31 -17.75,-14.74 -27.8,-10.9 -11.62,-4.09 -1.51,2.32 13.6,7.47 -4.95,-0.77 -9.78,-1.47 -14.02,-2.69 -0.11,1.18 10.86,3.3 21.62,4.99 2.67,0.78 5.35,1.36 8.11,1.84 0.88,0.49 1.74,0.97 2.67,1.29 2.62,1.33 5.31,2.72 7.6,4.9 l -26.31,-2.3 c 13.59,8.43 42.18,13.36 53.11,23.84 l 0.61,-6.98 c 11.95,1.05 17.57,-8.09 31.2,2.73 -3.57,-14.79 -20.52,-13.95 -29.31,-24.25 l 9.83,-1.5 c -16.14,-6.43 -32.2,-17.3 -51.06,-21.48 z m 72.42,25.71 4.41,2.74 9.65,0.84 z m 29.36,19.33 c -12.19,3.86 -23.13,-11.58 -36.86,-15.48 -0.23,28.98 48.53,21.42 71.14,37.85 34.52,17.33 71.74,32.61 109.27,43.27 -43.16,-28.03 -97.54,-39.96 -143.55,-65.64 z m 8.07,-6.53 32.3,14.98 2.27,0.2 z m 27.49,-40.83 c 16.3,6.24 24.11,26.08 40.98,25.3 -8.61,-10.28 -31.78,-19.68 -40.98,-25.3 z m 43.76,75.96 c 8.09,-9 16.47,6.29 24.04,2.1 -2.35,-0.2 -2.15,-2.47 -2.15,-2.47 4.88,-4.53 16.82,-1.16 23.73,2.07 l -22.67,-14.24 -5.63,9.14 -16.28,-8.53 c 1.86,7.26 1.86,7.26 -1.04,11.93 z m 8.78,-45.03 c 48.07,28.35 101.26,54.65 154.66,73.71 z m 150.83,90.41 c 46.45,20.7 94.88,44.13 141.61,57.96 -48.2,-25.77 -94.96,-39.6 -141.61,-57.96 z m 393.79001,173.84 2.76,-4.64 -4.63,-2.9 z m 6.96,-25.93 -20.8,-8.96 18.48,8.76 z m -149.26,30.39 -9.51,-0.83 c 2.37,0.2 4.49,2.51 9.51,0.83 z m -13.68,-35.01 12.48,5.08 c 2.16,4.63 7.53,4.42 12.27,4.9 l -12.27,-4.9 c -0.28,-0.6 -0.78,-0.75 -0.92,-1.54 28.25,4.86 58.66,17.01 76.18,35.35 -14.64,3.43 -39.31,-17.75 -50.01,-6.66 -12.79,-15.64 -39.4,-13.11 -45.37,-27.98 -3.37,9.2 -12.17,-1.07 -17.22,3.1 46.25,21.09 91.95,49 141.93,55.66 l -30.17,-14.49 c 12.35,-1.18 37.93,8.03 51.34,18.9 l 5.37,-6.77 -13.59,-8.36 5.07,-4.54 -16.37,-3.55 c -0.46,-1.96 -0.18,-2.89 0.52,-3.44 -5.51,-0.28 -11.7,-1.71 -23.74,-5.84 2.82,-7.06 14.25,1.25 24.06,-0.35 -30.36,-12.36 -77.44,-21.36 -107.58,-35.78 -4.24,-5.42 -9.48,-0.83 -11.98,1.21 z m 41.48,20.53 c 6.95,0.61 9.02,5.68 16.34,3.79 -4.56,-2.76 -9.39,-3.18 -16.34,-3.79 z m 93.8,-1.46 c 2.93,-6.98 -9.03,-8.03 -13.43,-10.67 l -2.69,2.02 c 4.58,2.93 8.8,10.3 16.12,8.65 z m -57.1,-7.31 -4.62,-2.8 2.23,2.59 z m -11.56,-5.93 -4.46,-2.65 -7.23,-0.63 z m -29.78,-16.95 -9.2,-3.23 c -0.21,2.4 13.43,8.31 20.57,11.26 l -8.77,-10.23 z m 13.03,-10.99 c 20.72,11.51 41.22,22.77 64.84,29.89 l -4.39,-5.44 c 14.27,1.25 34.99,10.37 49.88,6.89 -37.51,-10.49 -71.58,-35.16 -110.33,-31.34 z m 151.54,-80.56 -3.78,-12.42 c -33.97,1.87 -51.48,36.44 -81.06,46.01 l -0.2,2.34 -20.9,17.37 72.47,25.53 c 14.22,-25.22 31.4,-55.07 38.44,-82.94 z m 148.17,200.74 2.33,0.21 -11.55,-3.61 z m -26.57,2.19 2.37,0.2 c -9.47,-3.01 0.62,-7.05 -6.73,-5.09 z m -70.8,-44.38 c 13.65,10.69 30.02,14.44 43.8,22.78 -8.17,-14.82 -30.15,-12.09 -43.8,-22.78 z m 48.66,35.13 9.04,14.11 c 4.63,2.97 2.45,-19.97 1.84,-12.96 -2.72,0.18 -6.62,-0.3 -10.88,-1.15 l -3.18,-4.86 -47.53,-19.32 c 1.35,8.04 31.59,20.59 50.71,24.18 z m -58.81,-28.92 4.96,0.44 -9.14,-5.79 z m 41.65,73.39 c 2.9,-4.53 -4.63,-2.59 -4.4,-5.17 -0.23,2.58 2.28,4.98 4.4,5.17 z m 813.02,193.78 c -16.04,-8.61 -30.63,-7.53 -49.45,-13.79 11.43,8.11 33.21,7.52 49.45,13.79 z m -58.52,-17.11 4.46,0.39 -196.990003,-55.76 z m 83.17,-19.16 7.72,-4.11 c -2.33,-2.8 -2.15,-4.89 -1.92,-7.47 -12.3,3.64 -15.7,-10.9 -19.89,-21 1.04,-11.9 -21.33,-28.48 -26.51,-50.45 -46.33,-105.05 -92.000003,-214.89 -86.340003,-334.65 l -6.49,-7.54 c -38.31,136.04 -102.29,262.48 -188.729997,370.53 l 352.28,95.75 c -3.57,-12.3 -16.12,-32.66 -30.12,-41.06 z m 133.23,18.83 c -12.93,10.96 -35.3,16.17 -37.39,40.07 l 54.47,-43.6 c -4.66,-2.56 -13,8.74 -17.08,3.53 z m 129.18,-130.65 29.73,-38.24 c -12.42,6.22 -25.75,21.79 -29.73,38.24"
       style="fill:#ffffff;fill-opacity:1;fill-rule:nonzero;stroke:none"
       id="path1745" /><path
       d="m -1421.0001,1717.143 118.59,-1355.44997 4545.97,397.72 -118.59,1355.44997 -4545.97,-397.72"
       style="fill:#ffffff;fill-opacity:1;fill-rule:nonzero;stroke:none"
       id="path1747" /><path
       d="m -405.58009,724.17303 -43.09,492.51997 -342.3,-29.95 19.72,-225.31997 68.95,6.03 6.79,-77.57 c -15.8,-3.87 -41.55,-7.36 -55.09,-8.54 -78.8,-6.9 -98.78,8.72 -115.91,204.49997 -16.91,193.31 2.94,207.46 94.06,215.43 56.64,4.95 138.87,0.98 255.71,-29.74 l 31.77,260.85 c -150.19,29.04 -242.06,29.69 -308.55,23.88 -290.58001,-25.43 -410.91001,-167.47 -381.83001,-499.92 27.58,-315.20997 152.66,-454.39997 430.93001,-430.04997 107.13,9.37 224.3,45.68 338.84,97.88 z m 851.72,274.27 c -8.51,-1.98 -19.49,-4.18 -29.34,-5.04 -22.16,-1.94 -27.52,2.55 -38.98,20.15997 l -68.48,101.95 c 69.46,56.95 107.91,142.2 97.89,256.71 -17.56,200.7 -154.54,263.16 -341.690003,246.79 l -387.859997,-33.94 78.96,-902.53997 286.889997,25.1 -26.71,305.35997 32.01,2.8 91.100003,-161.99997 c 55.84,-99.34 109.87,-135.56 231.77,-124.89 24.63,2.15 67.4,9.62 96.63,15.9 z m -328.35,321.15997 c 5.7,-65.26 -8.58,-86.36 -47.980003,-89.81 l -71.4100003,-6.24 -14.2199997,162.53 75.1,6.57 c 35.71,3.12 53.230003,-12.72 58.510003,-73.05 z m 744.84,503.14 c -6.25,71.42 -55.62,96.87 -119.65,91.27 -68.95,-6.03 -109.14,-43.05 -103.22,-110.77 6.04,-68.95 50.7,-97.3 118.42,-91.38 75.11,6.57 110.16,45.62 104.45,110.88 z m 262.25999,22.95 c -6.24,71.41 -54.39,96.98 -119.65,91.27 -67.71999,-5.93 -109.13999,-43.05 -103.20999,-110.77 6.03,-68.96 51.93,-97.2 119.64999,-91.27 72.65,6.35 108.92,45.51 103.21,110.77 z m 179.55,-676.62 -48.48,554.08 -284.42999,-24.88 49.76999,-568.86 c 6.25,-71.41 -0.86,-89.41 -73.50999,-95.76 -75.1,-6.57 -82.77,10.13 -89.02,81.54 l -49.77,568.86 -296.74,-25.96 48.48,-554.08 c 27.36,-312.74997 199.02,-346.11997 403.41,-328.23997 254.87999,22.3 363.01999,133.5 340.28999,393.29997 z m 927.86,-269.94997 -78.96,902.53997 -267.2,-23.37 23.92,-273.35 c 3.23,-36.94 9.36,-78.59 16.39,-116.43 l -14.78,-1.3 c -13.83,44.7 -31.15,86.61 -48.4,113.64 l -148.28,262.46 -301.66,-26.39 78.96,-902.53997 265.96,23.27 -29.84,341.06997 c -3.02,34.48 -9.47,79.82 -15.16,116.54 l 14.77,1.29 c 10.95,-39.98 29.6,-83.02 47.18,-113.74 l 184.98,-327.48997 z m 797.64,69.79 -33.86,245.17997 -323.83,-28.33 -7.33,83.73 289.36,25.31 -21.44,245.03 -289.36,-25.31 -7.11,81.26 313.98,27.47 -21.54,246.26 -609.49,-53.32 78.96,-902.53997 631.66,55.26"
       style="fill:#84b414;fill-opacity:1;fill-rule:nonzero;stroke:none"
       id="path1751" /></g></g></svg>