<?xml version="1.0" encoding="UTF-8" standalone="no"?>
<svg
   xmlns:dc="http://purl.org/dc/elements/1.1/"
   xmlns:cc="http://creativecommons.org/ns#"
   xmlns:rdf="http://www.w3.org/1999/02/22-rdf-syntax-ns#"
   xmlns:svg="http://www.w3.org/2000/svg"
   xmlns="http://www.w3.org/2000/svg"
   viewBox="0 0 1265.224 728.36847"
   height="728.36847"
   width="1265.224"
   xml:space="preserve"
   id="svg2"
   version="1.1"><metadata
     id="metadata8"><rdf:RDF><cc:Work
         rdf:about=""><dc:format>image/svg+xml</dc:format><dc:type
           rdf:resource="http://purl.org/dc/dcmitype/StillImage" /><dc:title></dc:title></cc:Work></rdf:RDF></metadata><defs
     id="defs6" /><g
     transform="matrix(1.3333333,0,0,-1.3333333,0,729.33252)"
     id="g10"><g
       transform="scale(0.1)"
       id="g12"><path
         id="path14"
         style="fill:#84b414;fill-opacity:1;fill-rule:nonzero;stroke:none"
         d="m 4098.28,5469.14 9.06,-3.05 0.04,3.05 z" /><path
         id="path16"
         style="fill:#84b414;fill-opacity:1;fill-rule:nonzero;stroke:none"
         d="m 4124.92,5469.14 c 2.85,-5.98 -8.79,-3.05 -14.72,-3.05 3,0 8.78,6.1 14.72,3.05" /><path
         id="path18"
         style="fill:#84b414;fill-opacity:1;fill-rule:nonzero;stroke:none"
         d="m 4160.31,5460.23 c 14.77,0 35.39,-2.93 50.12,2.93 0,5.98 -8.98,0 -11.88,2.93 14.73,-2.93 44.18,6.1 52.93,-8.79 6.22,-3.04 12.11,-3.04 15,0 5.98,8.79 17.54,-8.98 20.63,5.86 -3.09,5.98 -5.9,2.93 -8.83,2.93 29.34,6.1 61.68,-32.34 94.38,-8.79 v 5.86 c 20.23,-2.93 41.13,0 58.71,-5.86 l -44.22,-3.04 c 5.74,-11.68 17.69,3.04 29.41,-8.83 14.81,8.83 32.58,-5.94 44.26,14.8 l -5.94,-14.8 c 23.95,2.89 53.17,-8.75 67.85,5.9 h -3 c 8.98,-14.65 38.28,2.93 55.97,-5.9 l 67.78,-5.94 c -2.89,-2.81 -2.89,-11.6 5.97,-11.6 l 11.8,2.81 c -3.05,3.05 -5.98,5.98 -8.79,5.98 11.72,8.75 35.16,-5.98 53.09,-5.98 2.73,-2.81 -17.93,-5.9 -3.13,-14.76 l 17.78,14.76 5.7,-14.76 c 8.75,0 29.69,2.89 32.5,14.76 9.02,0 -2.81,-8.79 0,-11.91 3.16,-11.6 17.85,9.1 14.96,-8.75 8.67,0 23.36,11.87 32.3,0 23.4,8.79 44.03,-8.75 67.74,0 26.37,-14.73 58.63,-2.85 88.4,-11.64 0,-5.94 -9.03,-5.94 -9.03,-11.99 l 3.09,-2.78 c 20.82,23.56 76.52,2.78 103.09,-5.7 3.08,2.62 0,8.48 5.85,8.48 5.98,-5.86 11.68,-20.75 26.41,-20.75 l 3.13,6.14 c 0,6.13 -5.94,6.13 -11.84,6.13 h -6.02 c 5.98,11.45 14.73,0 23.75,0 -3.08,-3.05 3.09,-8.98 9.07,-12.27 0,6.14 5.66,9.22 2.85,14.89 29.41,-11.6 67.5,-8.75 88.16,-23.4 8.75,-2.97 17.58,-9.06 29.42,-6.02 l -5.9,6.02 c 17.97,0 35.62,-2.97 44.33,-14.61 8.87,2.85 20.47,5.55 20.47,-8.87 3.13,17.5 38.28,2.74 56.06,5.55 8.98,-20.43 29.69,-14.53 50.08,-20.39 3.16,2.89 0,5.86 0,8.75 l 14.57,-14.73 c 8.98,2.93 3.32,5.94 0,11.84 14.96,2.89 23.71,-8.91 38.39,-5.9 -11.56,-5.94 -23.43,8.79 -32.42,-3.01 -5.97,-5.98 6.1,-2.93 6.1,-8.9 14.76,14.84 29.49,-11.68 35.27,8.9 3.2,-11.76 11.99,-2.93 17.66,-2.93 62.07,-23.71 138.51,-23.67 200.31,-46.99 l -5.67,-5.98 c 17.47,-8.83 44.18,0 44.18,-20.86 14.69,3.25 17.54,26.84 38.17,9.22 l 14.88,2.81 -5.86,-6.13 c 8.83,-2.65 14.57,-2.65 17.38,6.13 l -2.81,-2.81 14.73,-5.97 -5.94,-6.1 h 23.52 l -14.53,-8.83 c 5.78,-41.48 55.97,-23.43 73.63,-35.15 l 0.04,-3.09 c 11.64,-3.24 20.43,0.04 35.15,-5.9 -2.85,11.8 -23.51,14.65 -35.19,20.71 h 2.85 l -5.98,8.75 -8.75,-8.75 -50.15,8.75 c 8.82,2.81 20.62,-3.05 26.6,5.89 l -26.56,5.98 c 11.68,0 29.72,17.74 38.47,0 17.62,14.53 32.27,-17.85 46.99,-5.98 8.87,-17.57 23.56,-3.08 38.48,-5.89 -9.02,-14.81 8.56,-20.47 20.47,-20.47 l -41.33,-3.05 c 2.81,-8.87 26.37,-0.04 29.42,-14.8 h 11.95 c -20.51,-5.86 0,-26.33 -9.06,-35.12 9.06,-20.86 17.97,-3.09 32.57,-11.92 20.86,-11.95 44.22,-14.92 67.74,-20.54 l -5.94,8.59 c 29.38,0 56.29,-35.12 79.49,-14.57 23.68,5.94 29.61,-29.69 56.06,-8.59 53.16,-29.73 129.65,-18.09 179.8,-47.46 l 14.53,8.94 c 3.21,-3.08 3.21,-8.94 8.99,-8.94 -5.78,-2.93 -14.81,-6.02 -20.43,-14.77 l 11.44,-8.79 c -2.73,-2.81 -8.67,2.93 -11.44,-6.13 79.3,-17.54 155.9,-29.26 232.58,-38.09 v -8.94 c -156.14,20.58 -312.39,53.16 -465.32,70.7 -8.98,-11.64 -20.7,9.02 -26.64,-8.75 17.66,-8.79 46.96,2.93 67.7,-8.79 l 8.79,-6.13 c 3.08,21.05 26.6,3.32 38.47,-2.85 35.24,0 88.29,-5.78 126.61,-17.58 2.93,-3.09 0,-8.83 5.93,-8.83 l 2.86,5.74 c 20.46,-8.82 38.24,-17.57 58.9,-14.57 l 3.01,8.83 c 44.26,-5.7 79.65,-26.4 123.59,-26.4 -20.58,-9.03 -55.9,8.63 -82.22,8.63 -132.74,14.69 -262.15,41.48 -397.82,59.06 -14.88,14.73 -41.25,2.89 -61.75,11.64 -61.96,11.88 -132.78,20.7 -188.79,35.39 -29.26,-8.75 -64.61,14.81 -100.08,18.09 -14.84,8.59 -35.39,-23.79 -38.28,2.58 -8.91,2.93 -26.53,11.95 -35.31,0 l -842.74,147.5 c -462.58,76.52 -1001.64,67.53 -1470.19,-23.72 -518.4,-120.85 -972.46,-391.91 -1402.46,-730.66 -62,-58.98 -132.5,-120.66 -206.29,-167.93 -23.4,-20.66 -38.36,-53.16 -67.82,-70.78 h -5.78 c 114.89,194.53 332.62,359.41 497.74,512.77 53.16,44.22 120.78,73.52 162.03,123.64 h -2.85 c 52.97,17.5 100.15,82.42 156.09,105.93 3.01,-2.93 3.01,-5.74 5.9,-5.74 3.08,2.81 5.94,2.81 5.94,5.74 l -2.86,3.09 c 32.27,23.75 79.54,41.48 114.77,64.8 50.31,41.37 108.95,44.22 156.21,85.51 38.24,11.96 67.74,38.32 111.88,40.94 5.97,15.12 23.71,20.82 38.51,23.75 v -2.93 c 91.13,41.56 194.45,79.8 291.49,112.15 l 8.75,-5.98 c 20.89,29.69 59.1,8.87 85.5,35.24 17.86,-14.42 50.12,3.04 70.79,9.06 -11.65,8.51 -23.76,-2.97 -32.54,-5.98 6.17,8.91 35.54,17.78 47.34,8.91 14.65,20.47 47.34,11.72 64.77,23.55 2.85,5.75 0,-5.7 2.85,-8.75 20.58,23.52 73.82,17.58 100.23,20.43 l 50.16,11.88 c -5.78,8.75 -32.54,-5.9 -50.16,-5.9 l 129.69,23.51 5.74,-5.97 c 5.94,11.87 38.48,14.92 53.16,14.92 l -2.85,-3.05 c 5.71,-5.93 14.73,-2.81 23.52,-2.81 l -14.69,8.79 c 20.39,-2.93 44.22,8.75 61.95,-2.93 l 5.94,5.74 -11.87,5.94 h 23.55 v -5.94 h 17.38 v 8.83 c 29.69,11.91 29.69,-11.64 62,5.94 l -5.75,-5.94 c 8.75,0 23.72,-5.74 29.5,3.01 l -20.75,2.93 c 5.94,5.97 17.62,3.04 26.37,3.04 -2.62,-8.98 5.98,-11.87 12.15,-11.87 8.71,2.89 14.45,5.9 23.52,8.83 -3.32,11.83 -9.03,0 -14.81,3.04 17.66,23.56 14.81,-26.6 29.3,5.86 3.12,-5.86 3.12,-14.84 11.91,-14.84 l 2.81,5.94 -2.81,3.04 h 14.69 c 0,0 -2.81,-3.04 0,-3.04 0,-2.93 0,-2.93 3.05,-2.93 l 5.93,5.97 -3,2.93 47.18,8.91 v -11.84 l 47.11,2.93 -17.65,8.91 h 35.27 l -5.78,-8.91 c 20.47,-8.9 38.12,5.86 61.8,0 l -2.86,8.91 h 17.58 z" /><path
         id="path20"
         style="fill:#84b414;fill-opacity:1;fill-rule:nonzero;stroke:none"
         d="m 4269.3,5469.14 c 3.16,-5.98 -17.82,-5.98 -17.82,0 z" /><path
         id="path22"
         style="fill:#84b414;fill-opacity:1;fill-rule:nonzero;stroke:none"
         d="m 4366.48,5460.23 v 2.93 l -17.65,5.98 z" /><path
         id="path24"
         style="fill:#84b414;fill-opacity:1;fill-rule:nonzero;stroke:none"
         d="m 4499.06,5457.3 v -3.04 l -11.83,5.97 c 2.97,0 8.9,0 11.83,-2.93" /><path
         id="path26"
         style="fill:#84b414;fill-opacity:1;fill-rule:nonzero;stroke:none"
         d="m 3818.55,5445.43 v -2.85 l 8.72,5.74 z" /><path
         id="path28"
         style="fill:#84b414;fill-opacity:1;fill-rule:nonzero;stroke:none"
         d="m 5000.04,5389.38 8.98,-2.97 2.82,2.97 -11.8,3.08 z" /><path
         id="path30"
         style="fill:#84b414;fill-opacity:1;fill-rule:nonzero;stroke:none"
         d="m 5533.28,5295.2 c 0,-2.97 -5.94,-6.02 -8.79,-6.02 2.85,3.05 5.98,6.02 8.79,6.02" /><path
         id="path32"
         style="fill:#84b414;fill-opacity:1;fill-rule:nonzero;stroke:none"
         d="m 5777.73,5218.55 v -3.08 h 11.92 v 3.05 z" /><path
         id="path34"
         style="fill:#84b414;fill-opacity:1;fill-rule:nonzero;stroke:none"
         d="m 5957.7,5197.85 -3.01,-5.66 3.01,14.49 c 0,0 5.93,-5.7 0,-8.83" /><path
         id="path36"
         style="fill:#84b414;fill-opacity:1;fill-rule:nonzero;stroke:none"
         d="m 5981.09,5206.72 8.95,-2.81 v 2.77 l -8.95,2.93 z" /><path
         id="path38"
         style="fill:#84b414;fill-opacity:1;fill-rule:nonzero;stroke:none"
         d="m 6004.65,5203.91 c 0,-2.93 -5.74,0 -11.49,0 2.82,0 8.6,5.7 11.49,0" /><path
         id="path40"
         style="fill:#84b414;fill-opacity:1;fill-rule:nonzero;stroke:none"
         d="m 6016.52,5197.85 c -8.79,-5.66 0,-11.99 2.86,-17.54 -8.79,2.89 -11.65,-5.97 -8.79,-11.83 -5.98,5.86 -20.55,5.86 -17.43,0 2.82,2.85 2.82,11.79 0,14.76 -5.93,5.9 -14.72,2.62 -20.86,2.62 8.79,9.14 -8.67,3.28 -5.7,11.99 17.5,-11.99 32.31,-2.85 49.92,0" /><path
         id="path42"
         style="fill:#84b414;fill-opacity:1;fill-rule:nonzero;stroke:none"
         d="m 6045.98,5189.14 v 3.05 l -5.94,5.66 z" /><path
         id="path44"
         style="fill:#84b414;fill-opacity:1;fill-rule:nonzero;stroke:none"
         d="m 6075.59,5174.34 c -5.98,-8.75 -35.55,5.97 -26.61,-17.46 14.5,-8.91 20.63,2.57 32.39,5.66 l -2.93,5.94 c 17.93,-2.89 14.72,17.38 29.22,0 l -8.56,-9.03 c 2.85,0 0,-2.57 0,-5.7 -2.77,8.79 -17.73,3.13 -23.51,-2.85 20.74,-20.74 29.37,14.69 49.92,8.55 5.9,20.82 20.62,-5.7 26.83,6.14 l -3.2,-3.05 c 5.78,-11.68 17.42,3.05 26.52,3.01 -11.87,-6.1 0,-17.54 0,-23.75 -32.46,-2.58 -50.15,32.54 -68,3.12 20.66,-17.58 9.02,11.96 29.61,5.94 l -14.65,-9.06 76.76,-20.43 2.85,5.97 150.31,-35.15 17.58,14.53 c -20.67,-20.94 11.64,-14.53 17.54,-23.75 47.3,5.94 100.31,-20.51 144.61,-23.56 32.18,-5.74 76.32,-11.68 111.71,-14.68 82.7,-20.63 162.27,-50.12 256.49,-47.23 -20.67,6.09 -56.17,-14.8 -73.63,0 -26.57,0 -73.79,6.09 -97.35,6.09 -11.87,20.51 -41.4,-3.04 -61.83,11.45 2.77,0 0,9.06 2.77,9.06 11.95,0 23.83,-5.74 32.38,-2.93 -14.72,8.79 -41.09,23.56 -55.66,5.9 -26.72,-17.58 -53.05,17.66 -77.07,2.89 l -8.52,8.75 c -2.97,-2.62 -2.97,-8.75 -8.86,-8.75 -8.75,35.39 -47.31,17.77 -67.62,14.77 l 2.89,3 c -11.88,0 -26.68,11.68 -32.31,-3 h -5.97 c -2.89,5.86 5.97,5.86 5.97,11.79 -6.01,5.94 -11.95,0 -20.7,2.89 l 5.94,-11.68 c -9.06,5.94 -9.06,11.68 -23.56,2.86 h -6.13 c 2.93,5.93 8.75,8.82 6.09,17.81 -3.16,-3.05 -17.46,2.69 -17.46,-8.99 v -2.89 l -8.86,11.88 c -3.32,-11.88 -9.22,0 -18.01,0 -20.39,5.7 -44.18,-8.99 -61.76,8.9 11.84,2.93 20.67,-8.9 32.31,-6.21 -2.86,11.88 -32.31,14.69 -44.22,11.88 -11.84,-14.57 -26.57,11.8 -47.03,11.8 l -8.91,-11.8 -8.87,9.22 5.9,5.51 2.97,-5.51 c 17.73,14.53 44.1,-6.41 61.76,0 -41.17,23.16 -97,8.59 -132.39,5.51 l -3.08,12.07 -5.86,-3.05 c -5.51,11.64 -29.53,8.63 -43.99,0.04 2.82,8.59 -26.64,8.59 -35.42,17.73 l -14.77,-3.12 c 11.76,17.85 35.35,0 53.01,5.93 v -5.93 l 47.03,-6.02 c -56.06,29.57 -138.44,26.45 -206.02,47.19 17.42,8.79 49.96,-17.62 73.48,3.05 l -20.59,5.74 23.52,3.01 -5.94,14.8 c 3.01,-14.8 29.34,-8.87 41.49,-14.8" /><path
         id="path46"
         style="fill:#84b414;fill-opacity:1;fill-rule:nonzero;stroke:none"
         d="m 5990.04,5177.27 c -5.94,0 -17.74,-8.79 -17.77,3 z" /><path
         id="path48"
         style="fill:#84b414;fill-opacity:1;fill-rule:nonzero;stroke:none"
         d="m 6196.25,5150.9 c 20.63,-9.1 44.14,-2.89 56.02,-14.81 29.25,29.46 29.25,-20.74 61.79,-8.79 11.8,11.92 17.82,0 32.5,8.79 6.02,-5.93 0,-11.6 -3.04,-11.6 5.93,-9.14 26.64,11.6 23.71,-12.11 -11.92,2.97 -23.71,5.98 -38.44,5.98 l 11.87,-8.59 h -23.59 l 8.79,2.61 c -2.81,5.98 -5.9,12.11 -14.65,8.99 -6.09,0 -20.86,-14.65 -32.34,-6.02 l 11.48,6.02 c -5.58,14.72 -26.4,5.93 -38.08,14.72 v -5.93 l 14.72,-8.79 c -20.7,5.93 -70.74,0 -88.28,29.53 l 17.54,11.64 z" /><path
         id="path50"
         style="fill:#84b414;fill-opacity:1;fill-rule:nonzero;stroke:none"
         d="m 6216.88,5159.45 5.93,-5.7 v 5.7 z" /><path
         id="path52"
         style="fill:#84b414;fill-opacity:1;fill-rule:nonzero;stroke:none"
         d="m 5993.16,5139.22 c 5.75,2.58 14.57,-3.09 17.43,5.7 l 59.02,-11.56 c -6.13,-3.2 -14.61,-8.87 -23.63,-11.99 v 14.72 c -26.6,-5.93 -23.6,8.83 -41.33,-5.93 -17.42,11.64 -58.75,3.2 -55.86,26.72 17.81,-3.13 44.37,-3.09 44.37,-17.66" /><path
         id="path54"
         style="fill:#84b414;fill-opacity:1;fill-rule:nonzero;stroke:none"
         d="m 6296.41,5144.92 14.8,-3.12 v 3.16 z" /><path
         id="path56"
         style="fill:#84b414;fill-opacity:1;fill-rule:nonzero;stroke:none"
         d="m 6479.06,5094.77 v -2.58 c -11.79,-11.92 -26.52,8.59 -44.1,0 -11.6,14.57 -38.16,8.59 -58.91,17.58 l 17.35,2.61 v 8.99 c 29.96,-8.99 56.29,-23.67 85.66,-26.6" /><path
         id="path58"
         style="fill:#84b414;fill-opacity:1;fill-rule:nonzero;stroke:none"
         d="m 6446.8,5109.77 h -11.84 c 2.85,0 5.94,8.59 11.84,5.58 z" /><path
         id="path60"
         style="fill:#84b414;fill-opacity:1;fill-rule:nonzero;stroke:none"
         d="m 6084.38,5109.77 v -6.14 l -5.94,8.75 c 2.93,0 2.93,-2.61 5.94,-2.61" /><path
         id="path62"
         style="fill:#84b414;fill-opacity:1;fill-rule:nonzero;stroke:none"
         d="m 6496.48,5106.72 c -8.51,-14.53 -29.25,5.66 -35.19,5.66 z" /><path
         id="path64"
         style="fill:#84b414;fill-opacity:1;fill-rule:nonzero;stroke:none"
         d="m 6154.92,5109.77 c 0,-6.14 -5.78,-8.99 -8.79,-6.14 -2.93,3.13 6.21,6.1 8.79,6.14" /><path
         id="path66"
         style="fill:#84b414;fill-opacity:1;fill-rule:nonzero;stroke:none"
         d="m 6517.62,5085.78 -29.65,3.13 v 5.86 c 11.56,2.93 20.43,-5.86 29.65,-8.99" /><path
         id="path68"
         style="fill:#84b414;fill-opacity:1;fill-rule:nonzero;stroke:none"
         d="m 6263.95,5082.97 8.78,-2.7 v 2.7 z" /><path
         id="path70"
         style="fill:#84b414;fill-opacity:1;fill-rule:nonzero;stroke:none"
         d="m 6487.97,5077.27 h -11.92 c 3.01,5.7 5.83,5.7 11.92,5.7 z" /><path
         id="path72"
         style="fill:#84b414;fill-opacity:1;fill-rule:nonzero;stroke:none"
         d="m 6541.05,5082.97 c -3.28,-2.7 -17.73,-5.7 -12.03,0 z" /><path
         id="path74"
         style="fill:#84b414;fill-opacity:1;fill-rule:nonzero;stroke:none"
         d="m 6626.37,5080.23 20.78,-6.13 -17.81,8.87 z" /><path
         id="path76"
         style="fill:#84b414;fill-opacity:1;fill-rule:nonzero;stroke:none"
         d="m 6714.69,5050.59 c -5.9,-8.79 -17.74,8.82 -23.44,-5.86 l 8.87,-6.02 c -8.87,-2.58 -26.53,35.39 -35.24,6.02 l -9.02,3 h 2.89 c -26.64,20.67 -76.52,26.37 -114.8,20.67 20.5,23.79 53.04,5.7 79.37,0 32.54,0 61.99,-8.99 91.37,-17.81" /><path
         id="path78"
         style="fill:#84b414;fill-opacity:1;fill-rule:nonzero;stroke:none"
         d="m 6576.45,5062.46 8.67,-3.05 v 3.05 z" /><path
         id="path80"
         style="fill:#84b414;fill-opacity:1;fill-rule:nonzero;stroke:none"
         d="m 6720.7,5062.46 c -3.08,-3.05 0,-3.05 0,-3.05 l -6.01,3.05 z" /><path
         id="path82"
         style="fill:#84b414;fill-opacity:1;fill-rule:nonzero;stroke:none"
         d="m 6747.34,5059.41 c -3.16,-2.89 -6.05,-5.74 -3.16,-11.68 3.16,-9.02 8.87,5.94 8.87,-3 -8.87,-6.02 -29.34,5.86 -38.36,-6.02 0,11.88 23.59,17.81 32.65,20.7" /><path
         id="path84"
         style="fill:#84b414;fill-opacity:1;fill-rule:nonzero;stroke:none"
         d="m 6773.87,5056.52 c -3.28,-5.93 -14.92,-5.93 -17.82,-2.85 2.93,8.79 11.68,5.74 17.82,2.85" /><path
         id="path86"
         style="fill:#84b414;fill-opacity:1;fill-rule:nonzero;stroke:none"
         d="m 6779.57,5041.8 c -2.81,-8.91 -11.84,0 -20.62,-3.09 l 2.77,6.02 c 6.01,-2.93 12.15,3 17.85,-2.93" /><path
         id="path88"
         style="fill:#84b414;fill-opacity:1;fill-rule:nonzero;stroke:none"
         d="m 6809.1,5041.8 c -8.83,-5.71 -11.68,0 -20.43,-3.09 v 6.02 c 5.39,-2.93 14.22,0 20.43,-2.93" /><path
         id="path90"
         style="fill:#84b414;fill-opacity:1;fill-rule:nonzero;stroke:none"
         d="m 6643.98,5000.55 -241.56,23.55 h 11.72 l -32.38,17.7 3.28,2.93 c 85.04,-20.63 176.52,-29.69 258.94,-44.18" /><path
         id="path92"
         style="fill:#84b414;fill-opacity:1;fill-rule:nonzero;stroke:none"
         d="m 6832.62,5038.71 -14.73,3.09 c 2.81,2.93 11.8,5.93 14.73,-3.09" /><path
         id="path94"
         style="fill:#84b414;fill-opacity:1;fill-rule:nonzero;stroke:none"
         d="m 6511.45,5036.13 20.82,2.58 -14.65,3.09 z" /><path
         id="path96"
         style="fill:#84b414;fill-opacity:1;fill-rule:nonzero;stroke:none"
         d="m 6811.91,5029.96 h 14.93 l -6.1,6.13 z" /><path
         id="path98"
         style="fill:#84b414;fill-opacity:1;fill-rule:nonzero;stroke:none"
         d="m 6891.76,5029.96 c -11.96,-26.37 -38.48,2.93 -56.14,0 17.66,8.75 41.1,-20.47 56.14,0" /><path
         id="path100"
         style="fill:#84b414;fill-opacity:1;fill-rule:nonzero;stroke:none"
         d="m 6782.66,5015.04 c -5.9,-2.85 -3.05,9.06 -3.09,14.92 9.1,-2.89 3.09,-11.6 3.09,-14.92" /><path
         id="path102"
         style="fill:#84b414;fill-opacity:1;fill-rule:nonzero;stroke:none"
         d="m 6797.42,5018.36 14.53,2.81 -14.53,2.93 z" /><path
         id="path104"
         style="fill:#84b414;fill-opacity:1;fill-rule:nonzero;stroke:none"
         d="m 6921.13,5015.04 -23.51,3.32 c 5.43,8.71 17.5,8.71 23.51,-3.32" /><path
         id="path106"
         style="fill:#84b414;fill-opacity:1;fill-rule:nonzero;stroke:none"
         d="m 6835.62,5018.36 -8.78,-3.32 23.51,3.32 z" /><path
         id="path108"
         style="fill:#84b414;fill-opacity:1;fill-rule:nonzero;stroke:none"
         d="m 6411.21,5015.04 v -5.55 l 14.77,5.55 z" /><path
         id="path110"
         style="fill:#84b414;fill-opacity:1;fill-rule:nonzero;stroke:none"
         d="m 6473.09,5006.41 14.88,3.08 -14.88,2.7 z" /><path
         id="path112"
         style="fill:#84b414;fill-opacity:1;fill-rule:nonzero;stroke:none"
         d="m 6891.76,5006.41 c -3.36,-5.86 -15.04,-2.82 -17.89,3.08 5.93,0 14.53,2.7 17.89,-3.08" /><path
         id="path114"
         style="fill:#84b414;fill-opacity:1;fill-rule:nonzero;stroke:none"
         d="m 6903.05,5006.41 9.14,-5.86 v 5.86 z" /><path
         id="path116"
         style="fill:#84b414;fill-opacity:1;fill-rule:nonzero;stroke:none"
         d="m 6541.05,4991.52 -29.6,5.98 c 8.86,17.5 17.57,-5.98 29.6,-5.98" /><path
         id="path118"
         style="fill:#84b414;fill-opacity:1;fill-rule:nonzero;stroke:none"
         d="m 6679.45,4997.5 c -3.16,0 -14.61,-14.8 -17.73,0 5.94,6.09 11.87,0 17.73,0" /><path
         id="path120"
         style="fill:#84b414;fill-opacity:1;fill-rule:nonzero;stroke:none"
         d="m 6608.59,4982.7 h -11.6 l 2.74,8.82 c 0,-2.93 8.86,-2.93 8.86,-8.82" /><path
         id="path122"
         style="fill:#84b414;fill-opacity:1;fill-rule:nonzero;stroke:none"
         d="m 6396.8,4988.59 c -9.14,-5.89 -17.89,-5.89 -26.64,-2.81 8.75,5.74 17.5,2.81 26.64,2.81" /><path
         id="path124"
         style="fill:#84b414;fill-opacity:1;fill-rule:nonzero;stroke:none"
         d="m 6923.98,4980.08 -70.7,5.7 c 17.81,17.81 47.19,-11.83 70.7,0 z" /><path
         id="path126"
         style="fill:#84b414;fill-opacity:1;fill-rule:nonzero;stroke:none"
         d="m 6647.15,4976.95 h -12.03 l 2.89,3.13 -11.64,8.51 c 8.75,0 20.78,-2.81 20.78,-11.64" /><path
         id="path128"
         style="fill:#84b414;fill-opacity:1;fill-rule:nonzero;stroke:none"
         d="m 6629.34,4968.01 c -2.97,0 -11.76,5.94 -14.85,-2.85 l 70.82,-20.51 c -29.45,0 -70.82,11.64 -91.21,26.44 z" /><path
         id="path130"
         style="fill:#84b414;fill-opacity:1;fill-rule:nonzero;stroke:none"
         d="m 6717.62,4938.55 h -23.36 v 6.1 c 5.86,-2.85 17.42,0 23.36,-6.1" /><path
         id="path132"
         style="fill:#84b414;fill-opacity:1;fill-rule:nonzero;stroke:none"
         d="m 6853.28,4897.62 -64.61,5.47 v 6.17 c 29.22,-3.01 38.17,-8.83 64.61,-11.64" /><path
         id="path134"
         style="fill:#84b414;fill-opacity:1;fill-rule:nonzero;stroke:none"
         d="m 7097.7,4873.67 c -8.79,-38.2 38.35,-70.51 -5.67,-102.85 -35.58,-14.8 -47.38,-50.12 -82.77,-62.07 0,-20.59 -17.74,-26.52 -35.16,-29.34 l -71.05,17.5 c -35.16,-32.5 -73.36,-61.87 -108.99,-91.17 l 3.36,-6.05 -17.85,-2.81 c 11.95,-14.61 -17.85,-23.52 -23.48,-35.32 -20.7,3.09 -5.93,-23.59 -26.6,-23.59 2.85,-2.77 5.9,-2.77 11.8,-2.77 -8.95,-3.4 -17.58,-17.66 -23.67,-6.02 -14.81,-9.06 -5.94,-32.5 -32.31,-20.86 v -5.62 c -5.86,5.62 -17.65,0 -14.88,-8.91 -2.77,-5.94 5.86,-5.94 5.86,-8.95 3.16,5.94 14.96,5.9 20.66,5.9 l -35.23,-41.05 -2.97,11.79 c -8.91,5.71 -20.74,-9.02 -17.62,-14.96 6.02,-2.81 11.64,0 17.62,0 l -20.74,-20.54 c -2.89,8.94 -11.64,2.93 -14.69,0 l 6.02,-8.68 -29.61,-3.28 c 17.85,-14.68 -8.56,-32.34 -20.47,-35.39 -5.82,-2.69 -9.18,-8.71 -11.76,-11.4 l 5.94,-5.98 h -3.36 v -6.17 c -14.69,0 -32.31,-2.81 -43.91,-20.63 l 14.88,-2.61 -17.73,-5.98 8.95,-5.9 c -6.1,0 -8.95,-5.94 -8.95,-11.87 -5.7,0 -23.79,-2.93 -32.66,-8.79 0,-2.85 3.21,-5.78 3.21,-8.87 l -5.9,-5.86 c -2.89,8.95 -11.92,5.86 -17.89,5.86 l 11.83,-14.69 c -11.83,-32.5 -41.01,8.83 -55.89,-17.73 5.82,-11.84 26.48,5.86 23.67,-14.77 -11.88,-2.81 -14.73,-23.51 -29.73,-14.49 -8.75,14.49 -34.92,-23.91 -49.84,5.7 -8.87,0 -26.6,-14.72 -11.96,-17.57 -5.62,11.87 -20.5,-6.1 -29.37,-9.07 l 5.94,-11.6 -26.61,-17.77 c 17.74,-6.06 23.76,11.79 35.4,17.77 v 14.57 c 5.93,-17.46 17.73,3.24 23.71,6.1 23.75,-6.06 50.07,8.78 73.67,5.66 l -9.06,-2.81 5.97,-5.71 c -11.83,-14.96 -37.97,5.71 -50.15,-9.18 3.32,-2.69 5.74,-5.78 5.74,-8.63 -5.74,0 -17.35,5.94 -20.43,14.57 l -20.39,-17.46 11.4,-3.05 -14.53,-6.01 c 3.13,-8.75 17.74,0 26.6,0 v -2.66 l 20.75,-3.2 c -26.68,-11.64 -41.49,-29.45 -70.94,-35.35 l 2.93,20.86 c -14.73,2.85 -17.58,-23.52 -32.38,-17.93 -11.64,-8.48 -35.32,-29.38 -53.05,-17.74 5.86,3.09 17.73,0 14.65,9.26 -8.79,8.48 -17.62,-3.32 -29.26,-6.17 v -5.67 c -14.92,20.32 -26.52,-12.11 -38.2,-17.85 11.68,-5.93 23.28,8.79 38.2,5.74 L 6199.38,4090 c 5.7,5.86 -5.94,14.65 -14.73,14.65 -11.92,0 -20.86,-5.55 -26.37,3.16 L 6125.51,4090 c 11.76,-14.65 20.62,5.86 35.35,0 l -8.52,-5.94 2.58,-8.71 -5.78,-2.93 -3.01,5.9 c -11.87,-5.9 -26.33,-11.84 -38.47,-20.62 l 12.18,-11.92 c -26.68,9.02 -53.04,-20.47 -76.79,-32.26 l -3.01,2.85 c -11.8,-32.31 -46.88,-20.67 -61.6,-50.24 -17.85,6.06 -26.56,-20.31 -50.16,-20.31 -38.48,-44.26 -103.36,-32.54 -138.63,-79.65 3.05,0 3.05,-5.97 0,-5.97 -32.35,5.97 -58.95,-38.13 -97.23,-40.98 9.06,23.59 41.41,17.58 52.97,35.12 26.56,14.72 65.08,38.28 94.34,58.9 6.01,0.04 11.79,5.98 17.73,11.92 -3.01,11.87 -17.73,2.81 -23.4,-3.09 l 5.67,11.72 c 103.36,65 197.38,165.31 297.54,230.12 l 15.07,17.69 c -47.38,-11.8 -80,-62.11 -126.79,-73.79 29.45,26.37 64.84,41.14 76.4,76.45 l 5.71,-2.66 274.1,264.92 3.28,-8.75 17.38,23.71 5.94,-5.97 c -2.93,20.54 17.62,11.68 26.6,29.33 53.01,67.93 123.63,126.8 173.63,191.68 h 5.9 c 0,-3.12 -2.89,-3.12 -5.9,-6.01 29.42,0 44.18,53.04 76.72,47.11 32.31,29.45 64.85,58.9 100.28,76.68 l -11.72,8.82 c 2.89,14.65 17.65,3.05 23.55,8.91 l -3.36,11.76 c 85.74,2.89 147.5,73.83 238.95,58.94 20.7,23.52 44.29,-6.01 64.69,-9.06" /><path
         id="path136"
         style="fill:#84b414;fill-opacity:1;fill-rule:nonzero;stroke:none"
         d="m 6346.56,4169.8 c -3.04,0 -11.83,-9.06 -11.83,0 z" /><path
         id="path138"
         style="fill:#84b414;fill-opacity:1;fill-rule:nonzero;stroke:none"
         d="m 6266.99,4093.01 2.89,-3.01 -35.39,-17.58 -5.74,8.99 c -14.92,-11.84 -32.5,-8.99 -47.23,-21.06 3.13,-5.55 9.03,-2.65 11.92,-2.65 -26.88,-8.79 -41.1,-23.52 -67.93,-32.39 l 20.62,-2.77 -38.47,-6.17 c 0,-11.88 -26.29,0 -14.5,-17.58 14.5,-3.09 32.35,8.79 46.96,8.79 -46.96,-11.88 -94.14,-32.31 -138.36,-58.91 l 8.83,-8.94 c -11.68,-8.64 -17.43,3.16 -32.15,-2.7 5.66,-14.96 -17.85,-5.94 -23.75,-17.81 -11.6,-5.94 -23.75,-20.67 -41.33,-11.92 47.23,9.03 73.87,58.79 123.75,67.97 l 85.51,62.03 -2.82,-6.21 c 23.4,3.09 43.99,29.26 61.72,44.26 l 3.13,-5.78 53.01,43.98 c 20.35,-11.67 32.22,5.94 49.8,9.18 0,17.66 17.66,0 23.75,11.45 11.84,-23.52 -29.69,-20.63 -44.22,-41.17" /><path
         id="path140"
         style="fill:#84b414;fill-opacity:1;fill-rule:nonzero;stroke:none"
         d="m 6234.49,4090 32.5,17.81 h 5.74 z" /><path
         id="path142"
         style="fill:#84b414;fill-opacity:1;fill-rule:nonzero;stroke:none"
         d="m 6181.52,4095.86 c 5.98,-17.54 -11.87,-5.86 -17.73,-17.54 l -2.93,5.74 c 11.87,-2.69 8.79,8.95 20.66,11.8" /><path
         id="path144"
         style="fill:#84b414;fill-opacity:1;fill-rule:nonzero;stroke:none"
         d="m 6252.27,4090 h 5.7422 v 3.0117 h -5.7422 z" /><path
         id="path146"
         style="fill:#84b414;fill-opacity:1;fill-rule:nonzero;stroke:none"
         d="m 6158.28,4072.42 8.28,-5.94 v 5.94 z" /><path
         id="path148"
         style="fill:#84b414;fill-opacity:1;fill-rule:nonzero;stroke:none"
         d="m 6205.08,4051.91 c 0,-6.13 -14.53,-17.73 -26.37,-20.82 0,14.69 14.73,20.82 26.37,20.82" /><path
         id="path150"
         style="fill:#84b414;fill-opacity:1;fill-rule:nonzero;stroke:none"
         d="m 6078.44,4031.09 5.94,-2.65 v 2.65 z" /><path
         id="path152"
         style="fill:#84b414;fill-opacity:1;fill-rule:nonzero;stroke:none"
         d="m 6175.66,4031.09 c -6.01,-8.55 -14.8,-14.72 -23.32,-14.72 0,8.94 14.22,12.07 23.32,14.72" /><path
         id="path154"
         style="fill:#84b414;fill-opacity:1;fill-rule:nonzero;stroke:none"
         d="m 6104.96,3978.12 h -3.01 c -5.62,5.94 8.87,5.94 11.64,14.65 3.09,-5.7 -2.77,-11.75 -8.63,-14.65" /><path
         id="path156"
         style="fill:#84b414;fill-opacity:1;fill-rule:nonzero;stroke:none"
         d="m 6096.33,3972.19 c -41.33,-17.54 -70.78,-50.12 -117.89,-64.85 43.94,14.73 70.54,56.1 117.89,64.85" /><path
         id="path158"
         style="fill:#84b414;fill-opacity:1;fill-rule:nonzero;stroke:none"
         d="m 5963.63,3901.56 2.97,-3.01 v 3.01 z" /><path
         id="path160"
         style="fill:#84b414;fill-opacity:1;fill-rule:nonzero;stroke:none"
         d="m 5898.63,3886.91 5.98,-5.86 c -8.79,-9.14 -29.53,0 -35.43,-14.88 -2.81,26.41 26.64,20.74 44.18,35.39 z" /><path
         id="path162"
         style="fill:#84b414;fill-opacity:1;fill-rule:nonzero;stroke:none"
         d="m 5901.52,3863.12 47.27,29.5 c 0,-20.71 -32.62,-23.52 -47.27,-29.5" /><path
         id="path164"
         style="fill:#84b414;fill-opacity:1;fill-rule:nonzero;stroke:none"
         d="m 5819.06,3877.89 5.86,9.02 h 5.98 z" /><path
         id="path166"
         style="fill:#84b414;fill-opacity:1;fill-rule:nonzero;stroke:none"
         d="m 5827.85,3839.61 c -26.13,-2.81 -44.14,-41.13 -67.5,-29.53 v 9.14 h 5.86 l -2.97,-3.28 c 5.94,-2.66 20.43,0 17.62,8.94 8.79,-5.66 23.44,11.92 29.65,14.77 h -6.21 c 2.93,8.79 17.85,5.94 23.55,8.75 l 32.62,23.51 c 5.86,-23.51 -32.62,-5.78 -32.62,-32.3" /><path
         id="path168"
         style="fill:#84b414;fill-opacity:1;fill-rule:nonzero;stroke:none"
         d="m 5895.82,3854.34 -6.02,5.89 c 3.17,-0.03 6.02,-2.77 6.02,-5.89" /><path
         id="path170"
         style="fill:#84b414;fill-opacity:1;fill-rule:nonzero;stroke:none"
         d="m 5886.8,3848.4 c 3,-5.59 -5.78,-2.81 -11.72,-2.81 l 8.75,8.79 z" /><path
         id="path172"
         style="fill:#84b414;fill-opacity:1;fill-rule:nonzero;stroke:none"
         d="m 5869.18,3839.61 c 0,-2.81 -2.81,-5.82 -2.81,-5.82 v 5.82 z" /><path
         id="path174"
         style="fill:#84b414;fill-opacity:1;fill-rule:nonzero;stroke:none"
         d="m 5857.46,3833.79 -3.01,-5.86 -2.93,5.82 c 0,0 5.94,3.05 5.94,0.04" /><path
         id="path176"
         style="fill:#84b414;fill-opacity:1;fill-rule:nonzero;stroke:none"
         d="m 5680.59,3804.22 2.93,11.72 h 8.9 z" /><path
         id="path178"
         style="fill:#84b414;fill-opacity:1;fill-rule:nonzero;stroke:none"
         d="m 5760.35,3801.37 v -5.86 c -17.77,8.71 -38.44,-17.89 -53.16,-20.47 l 14.72,17.3 c 0,3.21 -5.93,0 -2.93,3.17 l 17.66,0.04 -8.79,5.86 h 2.85 c 3.13,-17.58 20.63,11.87 29.65,-0.04" /><path
         id="path180"
         style="fill:#84b414;fill-opacity:1;fill-rule:nonzero;stroke:none"
         d="m 5709.88,3792.34 -2.69,-5.86 5.97,5.86 z" /><path
         id="path182"
         style="fill:#84b414;fill-opacity:1;fill-rule:nonzero;stroke:none"
         d="m 5674.69,3759.88 26.79,12.03 -26.79,-17.81 z" /><path
         id="path184"
         style="fill:#84b414;fill-opacity:1;fill-rule:nonzero;stroke:none"
         d="m 5665.82,3745.39 c -5.74,0 -11.6,-2.81 -17.54,-2.81 l 14.69,14.69 c 2.85,-3.17 2.85,-9.11 2.85,-11.88" /><path
         id="path186"
         style="fill:#84b414;fill-opacity:1;fill-rule:nonzero;stroke:none"
         d="m 5642.34,3745.39 h -5.93 l 3.04,5.86 c 5.78,2.85 2.89,-3.09 2.89,-5.86" /><path
         id="path188"
         style="fill:#84b414;fill-opacity:1;fill-rule:nonzero;stroke:none"
         d="m 5621.64,3733.67 h -6.05 l 3.24,8.87 c 2.81,0.04 2.81,-6.02 2.81,-8.87" /><path
         id="path190"
         style="fill:#84b414;fill-opacity:1;fill-rule:nonzero;stroke:none"
         d="m 4172.11,4853.28 h 11.87 l -8.9,2.85 z" /><path
         id="path192"
         style="fill:#84b414;fill-opacity:1;fill-rule:nonzero;stroke:none"
         d="m 3965.78,4817.77 c -5.98,-5.74 -29.26,5.98 -41.13,14.85 l -3.13,8.94 c 15,0 32.54,-8.98 44.26,-23.79" /><path
         id="path194"
         style="fill:#84b414;fill-opacity:1;fill-rule:nonzero;stroke:none"
         d="m 4213.28,4832.62 3.09,2.89 32.26,-17.74 -3.08,-2.77 z" /><path
         id="path196"
         style="fill:#84b414;fill-opacity:1;fill-rule:nonzero;stroke:none"
         d="m 5969.45,4764.8 c 0,-5.85 -11.75,-2.85 -14.76,-2.85 -5.9,5.94 8.94,8.87 14.76,2.85" /><path
         id="path198"
         style="fill:#84b414;fill-opacity:1;fill-rule:nonzero;stroke:none"
         d="m 5857.46,4753.05 c 0,-2.89 -3.01,-2.89 -5.94,-5.98 l -2.85,3.09 2.85,8.79 20.55,-5.9 z" /><path
         id="path200"
         style="fill:#84b414;fill-opacity:1;fill-rule:nonzero;stroke:none"
         d="m 5830.9,4753.05 -3.05,-2.89 -5.7,5.86 c 5.7,2.93 5.7,0 8.75,-2.97" /><path
         id="path202"
         style="fill:#84b414;fill-opacity:1;fill-rule:nonzero;stroke:none"
         d="m 5875.08,4756.02 11.72,-2.97 -2.97,2.97 z" /><path
         id="path204"
         style="fill:#84b414;fill-opacity:1;fill-rule:nonzero;stroke:none"
         d="m 5798.48,4753.05 14.64,-2.89 v 2.89 l -14.64,2.97 z" /><path
         id="path206"
         style="fill:#84b414;fill-opacity:1;fill-rule:nonzero;stroke:none"
         d="m 5769.18,4750.16 c 0,-9.03 -14.69,-9.03 -23.79,-9.03 5.94,9.03 14.96,11.92 23.79,9.03" /><path
         id="path208"
         style="fill:#84b414;fill-opacity:1;fill-rule:nonzero;stroke:none"
         d="m 5739.49,4744.18 c -2.85,-8.79 -11.64,0 -14.76,2.89 5.97,0 11.91,0 14.76,-2.89" /><path
         id="path210"
         style="fill:#84b414;fill-opacity:1;fill-rule:nonzero;stroke:none"
         d="m 5586.45,4735.39 h -8.99 c -2.81,5.74 3.05,5.74 8.99,5.74 z" /><path
         id="path212"
         style="fill:#84b414;fill-opacity:1;fill-rule:nonzero;stroke:none"
         d="m 5683.52,4738.44 v -3.05 l -11.72,5.74 c 5.97,0 8.79,-5.74 11.72,-2.69" /><path
         id="path214"
         style="fill:#84b414;fill-opacity:1;fill-rule:nonzero;stroke:none"
         d="m 5571.56,4735.39 -32.3,-8.83 c 5.94,5.71 20.82,17.62 32.3,8.83" /><path
         id="path216"
         style="fill:#84b414;fill-opacity:1;fill-rule:nonzero;stroke:none"
         d="m 5642.34,4735.39 c 0,0 0,-3.12 -2.89,-3.12 h -3.04 l -0.04,6.17 c 3.08,0 5.97,0 5.97,-3.05" /><path
         id="path218"
         style="fill:#84b414;fill-opacity:1;fill-rule:nonzero;stroke:none"
         d="m 5654.22,4738.44 14.76,-3.05 -3.16,3.09 z" /><path
         id="path220"
         style="fill:#84b414;fill-opacity:1;fill-rule:nonzero;stroke:none"
         d="m 5515.51,4723.55 h -8.83 c 0,3.01 3.12,8.72 8.83,5.94 z" /><path
         id="path222"
         style="fill:#84b414;fill-opacity:1;fill-rule:nonzero;stroke:none"
         d="m 5509.8,4711.84 c -3.12,17.65 -23.55,2.93 -38.28,8.86 2.82,2.85 41.14,11.57 38.28,-8.86" /><path
         id="path224"
         style="fill:#84b414;fill-opacity:1;fill-rule:nonzero;stroke:none"
         d="m 5595.27,4726.56 c -14.76,-17.81 -47.18,-5.86 -67.93,-11.79 11.92,17.5 47.31,2.85 67.93,11.79" /><path
         id="path226"
         style="fill:#84b414;fill-opacity:1;fill-rule:nonzero;stroke:none"
         d="m 5371.33,4708.75 67.73,11.95 h 23.67 z" /><path
         id="path228"
         style="fill:#84b414;fill-opacity:1;fill-rule:nonzero;stroke:none"
         d="m 5356.56,4711.84 v -8.87 l 9.03,8.87 z" /><path
         id="path230"
         style="fill:#84b414;fill-opacity:1;fill-rule:nonzero;stroke:none"
         d="m 5468.67,4708.75 c -2.93,-2.85 -20.94,-11.84 -29.61,-2.85 -38.32,-23.67 -88.4,-5.9 -129.68,-23.67 47.18,20.74 103.28,20.74 159.29,26.52" /><path
         id="path232"
         style="fill:#84b414;fill-opacity:1;fill-rule:nonzero;stroke:none"
         d="m 5288.63,4696.91 29.53,6.06 h 17.7 z" /><path
         id="path234"
         style="fill:#84b414;fill-opacity:1;fill-rule:nonzero;stroke:none"
         d="m 5179.65,4694.1 c 0,-5.94 -17.38,-5.94 -14.49,0 z" /><path
         id="path236"
         style="fill:#84b414;fill-opacity:1;fill-rule:nonzero;stroke:none"
         d="m 5297.66,4688.16 c -5.9,-5.93 -17.62,-5.93 -23.52,-8.75 v 8.75 c 5.9,0 17.62,0 23.52,0" /><path
         id="path238"
         style="fill:#84b414;fill-opacity:1;fill-rule:nonzero;stroke:none"
         d="m 5262.27,4679.41 -49.97,-11.91 c 8.68,3.01 29.5,20.66 49.97,11.91" /><path
         id="path240"
         style="fill:#84b414;fill-opacity:1;fill-rule:nonzero;stroke:none"
         d="m 5480.31,4667.5 c 0,-5.47 -2.81,-5.51 -5.97,-8.79 l -2.82,8.79 z" /><path
         id="path242"
         style="fill:#84b414;fill-opacity:1;fill-rule:nonzero;stroke:none"
         d="m 5394.77,4661.99 c -5.71,0 -11.8,-6.17 -20.39,-3.28 2.85,8.79 14.68,5.7 20.39,3.28" /><path
         id="path244"
         style="fill:#84b414;fill-opacity:1;fill-rule:nonzero;stroke:none"
         d="m 5430.23,4658.71 c 0,-2.89 -14.92,-5.78 -23.55,-5.78 5.98,5.78 14.73,9.06 23.55,5.78" /><path
         id="path246"
         style="fill:#84b414;fill-opacity:1;fill-rule:nonzero;stroke:none"
         d="m 5447.73,4658.71 c 0,-2.89 -5.7,-2.89 -11.56,-2.89 0,8.59 8.75,2.89 11.56,2.89" /><path
         id="path248"
         style="fill:#84b414;fill-opacity:1;fill-rule:nonzero;stroke:none"
         d="m 5480.31,4652.93 c -11.64,0 -23.63,-5.94 -35.39,-3.09 8.99,5.98 23.75,3.09 35.39,3.09" /><path
         id="path250"
         style="fill:#84b414;fill-opacity:1;fill-rule:nonzero;stroke:none"
         d="m 5274.14,4644.14 c -5.94,-6.05 -20.66,-6.05 -29.49,-9.1 2.93,11.95 20.7,5.86 29.49,9.1" /><path
         id="path252"
         style="fill:#84b414;fill-opacity:1;fill-rule:nonzero;stroke:none"
         d="m 4908.83,4629.45 c -55.9,-29.76 -126.8,-23.71 -188.67,-41.44 53.2,29.53 126.75,20.58 188.67,41.44" /><path
         id="path254"
         style="fill:#84b414;fill-opacity:1;fill-rule:nonzero;stroke:none"
         d="m 5020.66,4617.54 h 2.86 l -14.5,5.74 z" /><path
         id="path256"
         style="fill:#84b414;fill-opacity:1;fill-rule:nonzero;stroke:none"
         d="m 4684.8,4582.27 c -5.97,-8.91 -14.76,-6.02 -20.62,-6.02 l 14.65,14.8 z" /><path
         id="path258"
         style="fill:#84b414;fill-opacity:1;fill-rule:nonzero;stroke:none"
         d="m 4572.89,4561.56 c 17.58,14.69 55.7,14.69 79.57,17.58 z" /><path
         id="path260"
         style="fill:#84b414;fill-opacity:1;fill-rule:nonzero;stroke:none"
         d="m 4549.34,4561.56 c 0,-8.79 -11.84,-6.01 -17.78,-6.05 2.89,6.05 11.8,6.05 17.78,6.05" /><path
         id="path262"
         style="fill:#84b414;fill-opacity:1;fill-rule:nonzero;stroke:none"
         d="m 4239.88,4520.12 15,3.2 -12.15,2.73 z" /><path
         id="path264"
         style="fill:#84b414;fill-opacity:1;fill-rule:nonzero;stroke:none"
         d="m 4260.31,4514.34 v -6.02 l 12.15,6.02 z" /><path
         id="path266"
         style="fill:#84b414;fill-opacity:1;fill-rule:nonzero;stroke:none"
         d="m 4186.88,4508.32 11.67,3.28 -11.64,2.74 z" /><path
         id="path268"
         style="fill:#84b414;fill-opacity:1;fill-rule:nonzero;stroke:none"
         d="m 4254.88,4508.32 -9.33,-2.58 -2.78,5.86 c 5.86,0 8.71,2.78 12.11,-3.28" /><path
         id="path270"
         style="fill:#84b414;fill-opacity:1;fill-rule:nonzero;stroke:none"
         d="m 4236.8,4505.74 -23.52,-6.21 c 5.9,0 11.8,12.07 23.52,6.21" /><path
         id="path272"
         style="fill:#84b414;fill-opacity:1;fill-rule:nonzero;stroke:none"
         d="m 4189.73,4490.74 h 8.82 c -5.78,-5.9 -14.57,-11.87 -26.44,-8.83 l 17.62,8.83 c -2.85,3.01 -5.75,0 -5.75,0 2.9,8.79 17.47,3.01 23.6,11.96 z" /><path
         id="path274"
         style="fill:#84b414;fill-opacity:1;fill-rule:nonzero;stroke:none"
         d="m 4154.61,4496.68 c 2.85,-2.89 2.85,-5.9 2.89,-11.84 l 11.56,-2.93 c -17.58,-20.43 -29.49,11.88 -41.29,-11.83 0,8.79 -2.85,20.66 8.99,23.71 l -44.42,-5.94 c 15,11.68 35.43,11.68 50.39,2.89 0,8.79 8.75,3.05 11.88,5.94" /><path
         id="path276"
         style="fill:#84b414;fill-opacity:1;fill-rule:nonzero;stroke:none"
         d="m 4275.31,4499.53 c 2.97,-8.79 -6.01,-5.74 -8.83,-8.79 v 8.79 z" /><path
         id="path278"
         style="fill:#84b414;fill-opacity:1;fill-rule:nonzero;stroke:none"
         d="m 2586.88,4490.74 h -23.44 v 5.94 c 8.83,2.85 14.57,-2.89 23.44,-5.94" /><path
         id="path280"
         style="fill:#84b414;fill-opacity:1;fill-rule:nonzero;stroke:none"
         d="m 4204.45,4476.05 c 8.83,8.79 35.43,17.7 55.86,14.69 z" /><path
         id="path282"
         style="fill:#84b414;fill-opacity:1;fill-rule:nonzero;stroke:none"
         d="m 4071.95,4487.85 -8.83,-3.01 17.74,3.01 z" /><path
         id="path284"
         style="fill:#84b414;fill-opacity:1;fill-rule:nonzero;stroke:none"
         d="m 4101.41,4473.16 v -15 l 56.09,11.92 c -23.59,-8.6 -53.24,-17.62 -79.65,-26.33 l 20.43,14.41 c -2.77,3.32 -5.94,0 -8.71,3.32 0,0 8.71,5.71 8.71,8.6 l -58.9,-14.53 c 20.66,5.93 44.41,41.13 62.03,17.61" /><path
         id="path286"
         style="fill:#84b414;fill-opacity:1;fill-rule:nonzero;stroke:none"
         d="m 4063.12,4476.05 c -3.08,-8.86 -26.75,-5.97 -38.28,-11.71 8.83,23.51 29.46,0 38.28,11.71" /><path
         id="path288"
         style="fill:#84b414;fill-opacity:1;fill-rule:nonzero;stroke:none"
         d="m 4016.09,4470.08 v -2.89 l 5.94,5.97 -3.32,2.89 z" /><path
         id="path290"
         style="fill:#84b414;fill-opacity:1;fill-rule:nonzero;stroke:none"
         d="m 4133.91,4437.77 c 35.15,11.88 79.37,26.61 120.97,26.57 z" /><path
         id="path292"
         style="fill:#84b414;fill-opacity:1;fill-rule:nonzero;stroke:none"
         d="m 4172.11,4431.8 123.67,29.68 h 6.06 z" /><path
         id="path294"
         style="fill:#84b414;fill-opacity:1;fill-rule:nonzero;stroke:none"
         d="m 3977.66,4455.51 h 3.04 l 8.56,2.65 -2.85,3.32 z" /><path
         id="path296"
         style="fill:#84b414;fill-opacity:1;fill-rule:nonzero;stroke:none"
         d="m 3936.52,4452.46 5.78,3.09 z" /><path
         id="path298"
         style="fill:#84b414;fill-opacity:1;fill-rule:nonzero;stroke:none"
         d="m 3883.52,4434.92 h -3.09 l 14.49,11.6 c 2.97,-8.75 -5.62,-11.6 -11.4,-11.6" /><path
         id="path300"
         style="fill:#84b414;fill-opacity:1;fill-rule:nonzero;stroke:none"
         d="m 2784.22,4431.8 -26.41,11.91 c 11.92,0.04 23.56,-2.89 26.41,-11.91" /><path
         id="path302"
         style="fill:#84b414;fill-opacity:1;fill-rule:nonzero;stroke:none"
         d="m 4298.83,4428.91 29.41,8.86 -11.87,-5.97 z" /><path
         id="path304"
         style="fill:#84b414;fill-opacity:1;fill-rule:nonzero;stroke:none"
         d="m 2790.2,4437.77 8.75,-5.97 v 5.97 z" /><path
         id="path306"
         style="fill:#84b414;fill-opacity:1;fill-rule:nonzero;stroke:none"
         d="m 4063.12,4423.32 -8.82,-5.98 2.85,-0.04 8.83,6.02 z" /><path
         id="path308"
         style="fill:#84b414;fill-opacity:1;fill-rule:nonzero;stroke:none"
         d="m 4351.8,4423.32 c -8.83,-6.02 -14.77,-12.07 -26.49,-9.3 5.94,3.32 17.66,9.3 26.49,9.3" /><path
         id="path310"
         style="fill:#84b414;fill-opacity:1;fill-rule:nonzero;stroke:none"
         d="m 4121.91,4417.3 -2.93,-3.28 5.94,3.28 z" /><path
         id="path312"
         style="fill:#84b414;fill-opacity:1;fill-rule:nonzero;stroke:none"
         d="m 4319.45,4417.34 c -35.43,-20.86 -91.48,-20.86 -135.47,-35.66 v -5.74 c -35.35,-6.02 -88.47,-17.74 -108.94,-20.86 76.44,20.86 161.76,50.35 244.41,62.26" /><path
         id="path314"
         style="fill:#84b414;fill-opacity:1;fill-rule:nonzero;stroke:none"
         d="m 3915.78,4396.48 h -8.71 c 0,5.79 5.7,2.86 8.71,0" /><path
         id="path316"
         style="fill:#84b414;fill-opacity:1;fill-rule:nonzero;stroke:none"
         d="m 4024.84,4364.06 79.42,29.34 8.94,-5.59 z" /><path
         id="path318"
         style="fill:#84b414;fill-opacity:1;fill-rule:nonzero;stroke:none"
         d="m 4204.45,4369.92 c -14.72,-2.69 -8.75,-17.65 -29.37,-14.84 5.9,14.84 17.69,8.98 29.37,14.84" /><path
         id="path320"
         style="fill:#84b414;fill-opacity:1;fill-rule:nonzero;stroke:none"
         d="m 4101.41,4331.84 2.85,8.71 -11.92,2.93 c 23.79,5.86 47.23,2.85 71.06,11.6 z" /><path
         id="path322"
         style="fill:#84b414;fill-opacity:1;fill-rule:nonzero;stroke:none"
         d="m 3076.09,4352.27 11.72,-5.94 -2.89,5.94 z" /><path
         id="path324"
         style="fill:#84b414;fill-opacity:1;fill-rule:nonzero;stroke:none"
         d="m 3641.72,4337.78 h 2.9297 v 2.7695 h -2.9297 z" /><path
         id="path326"
         style="fill:#84b414;fill-opacity:1;fill-rule:nonzero;stroke:none"
         d="m 4098.28,4334.45 c -2.77,-2.61 -11.64,-2.61 -17.42,-5.78 2.93,5.78 8.71,9.1 17.42,5.78" /><path
         id="path328"
         style="fill:#84b414;fill-opacity:1;fill-rule:nonzero;stroke:none"
         d="m 3948.2,4311.13 h 17.58 l -17.58,2.89 z" /><path
         id="path330"
         style="fill:#84b414;fill-opacity:1;fill-rule:nonzero;stroke:none"
         d="m 3894.92,4290.43 c 5.98,11.68 23.75,3.09 29.73,17.66 l 5.94,-5.98 z" /><path
         id="path332"
         style="fill:#84b414;fill-opacity:1;fill-rule:nonzero;stroke:none"
         d="m 3034.57,4196.21 c 67.85,23.52 109.3,46.99 176.91,61.8 -49.88,-23.56 -114.88,-47.23 -176.91,-61.8" /><path
         id="path334"
         style="fill:#84b414;fill-opacity:1;fill-rule:nonzero;stroke:none"
         d="m 2737.19,4113.55 c -5.98,-5.7 -17.66,-5.7 -23.56,-8.9 2.7,6.01 14.77,6.01 23.56,8.9" /><path
         id="path336"
         style="fill:#84b414;fill-opacity:1;fill-rule:nonzero;stroke:none"
         d="m 2704.84,4104.65 c -6.17,-2.77 -11.72,-11.64 -17.77,-8.79 0,3.24 11.6,11.95 17.77,8.79" /><path
         id="path338"
         style="fill:#84b414;fill-opacity:1;fill-rule:nonzero;stroke:none"
         d="m 3220.27,4066.48 c -11.68,8.87 -11.68,-2.85 -20.35,0 -11.95,-11.68 -32.38,-20.7 -59.18,-20.7 -5.94,0 -14.49,3.13 -11.68,11.92 32.58,5.93 58.91,20.62 94.3,32.3 11.8,-2.85 -3.09,-17.58 -3.09,-23.52" /><path
         id="path340"
         style="fill:#84b414;fill-opacity:1;fill-rule:nonzero;stroke:none"
         d="m 2863.75,4075.35 3.13,-2.93 5.97,2.93 v 2.97 z" /><path
         id="path342"
         style="fill:#84b414;fill-opacity:1;fill-rule:nonzero;stroke:none"
         d="m 2519.1,4037.3 -3.05,-0.03 9.03,11.64 c 0,-3.13 2.89,-11.64 -5.98,-11.61" /><path
         id="path344"
         style="fill:#84b414;fill-opacity:1;fill-rule:nonzero;stroke:none"
         d="m 2498.71,4034.18 -6.05,-5.7 8.79,5.7 z" /><path
         id="path346"
         style="fill:#84b414;fill-opacity:1;fill-rule:nonzero;stroke:none"
         d="m 2486.72,4031.09 c 2.97,-5.78 -6.02,-5.78 -8.87,-8.55 0,5.9 2.85,8.55 8.87,8.55" /><path
         id="path348"
         style="fill:#84b414;fill-opacity:1;fill-rule:nonzero;stroke:none"
         d="m 2457.34,4016.37 c 0,-2.85 -11.83,-2.85 -8.94,3.04 3.08,0 8.94,3.13 8.94,-3.04" /><path
         id="path350"
         style="fill:#84b414;fill-opacity:1;fill-rule:nonzero;stroke:none"
         d="m 2430.82,4007.58 c 0,-5.86 -5.94,-3.09 -11.8,-3.09 0,5.9 8.95,3.09 11.8,3.09" /><path
         id="path352"
         style="fill:#84b414;fill-opacity:1;fill-rule:nonzero;stroke:none"
         d="m 2404.38,3998.79 -35.47,-14.73 z" /><path
         id="path354"
         style="fill:#84b414;fill-opacity:1;fill-rule:nonzero;stroke:none"
         d="m 2993.48,3992.77 c -2.82,0 -5.94,-5.7 -8.79,-2.69 v 5.62 c 2.85,0 5.97,3.09 8.79,-2.93" /><path
         id="path356"
         style="fill:#84b414;fill-opacity:1;fill-rule:nonzero;stroke:none"
         d="m 2961.17,3987.07 2.78,-8.95 6.01,8.95 z" /><path
         id="path358"
         style="fill:#84b414;fill-opacity:1;fill-rule:nonzero;stroke:none"
         d="m 2345.39,3978.12 c 5.66,-5.93 -6.01,-2.85 -11.99,-5.93 -2.81,5.93 9.14,5.93 11.99,5.93" /><path
         id="path360"
         style="fill:#84b414;fill-opacity:1;fill-rule:nonzero;stroke:none"
         d="m 2318.71,3966.09 c 0,-2.65 -2.93,-2.65 -5.98,-2.65 l 5.98,8.75 c 2.89,0 2.89,-6.1 0,-6.1" /><path
         id="path362"
         style="fill:#84b414;fill-opacity:1;fill-rule:nonzero;stroke:none"
         d="m 2303.98,3963.44 c 0,-5.98 -17.57,-8.79 -14.72,2.65 z" /><path
         id="path364"
         style="fill:#84b414;fill-opacity:1;fill-rule:nonzero;stroke:none"
         d="m 2265.74,3960.55 11.84,-5.9 -2.93,5.9 z" /><path
         id="path366"
         style="fill:#84b414;fill-opacity:1;fill-rule:nonzero;stroke:none"
         d="m 2280.35,3957.46 3.24,-2.81 5.67,2.81 z" /><path
         id="path368"
         style="fill:#84b414;fill-opacity:1;fill-rule:nonzero;stroke:none"
         d="m 2224.61,3937.03 c 0,-5.94 -9.1,-9.06 -17.81,-5.94 2.85,2.7 11.87,2.7 17.81,5.94" /><path
         id="path370"
         style="fill:#84b414;fill-opacity:1;fill-rule:nonzero;stroke:none"
         d="m 2174.45,3916.33 c 5.94,-3.05 -3.04,-3.05 -3.04,-6.1 l -2.93,6.1 z" /><path
         id="path372"
         style="fill:#84b414;fill-opacity:1;fill-rule:nonzero;stroke:none"
         d="m 2130.2,3901.56 14.84,2.62 -14.84,3.16 z" /><path
         id="path374"
         style="fill:#84b414;fill-opacity:1;fill-rule:nonzero;stroke:none"
         d="m 2077.3,3883.91 c 2.66,-6.02 -3,-2.86 -6.05,-8.87 -5.78,2.85 3.05,11.87 6.05,8.87" /><path
         id="path376"
         style="fill:#84b414;fill-opacity:1;fill-rule:nonzero;stroke:none"
         d="m 2044.65,3863.12 h -5.94 l 3.2,5.98 c 2.74,-2.93 2.74,-5.98 2.74,-5.98" /><path
         id="path378"
         style="fill:#84b414;fill-opacity:1;fill-rule:nonzero;stroke:none"
         d="m 2021.29,3863.12 v -8.74 l 5.9,8.74 z" /><path
         id="path380"
         style="fill:#84b414;fill-opacity:1;fill-rule:nonzero;stroke:none"
         d="m 1977.07,3839.61 -5.98,5.98 -5.86,2.85 z" /><path
         id="path382"
         style="fill:#84b414;fill-opacity:1;fill-rule:nonzero;stroke:none"
         d="m 1941.68,3824.88 h -8.79 l 2.89,8.87 c 3.05,0.04 3.05,-5.82 5.9,-8.87" /><path
         id="path384"
         style="fill:#84b414;fill-opacity:1;fill-rule:nonzero;stroke:none"
         d="m 4596.25,3780.47 v 23.75 c 3.05,-2.85 3.01,-14.73 0,-23.75" /><path
         id="path386"
         style="fill:#84b414;fill-opacity:1;fill-rule:nonzero;stroke:none"
         d="m 1761.99,3754.1 h -5.86 c 0,3.2 3.13,5.78 5.86,3.2 z" /><path
         id="path388"
         style="fill:#84b414;fill-opacity:1;fill-rule:nonzero;stroke:none"
         d="m 4063.12,3618.71 v -5.86 l -8.82,11.8 c 5.74,2.85 8.82,-3.09 8.82,-5.94" /><path
         id="path390"
         style="fill:#84b414;fill-opacity:1;fill-rule:nonzero;stroke:none"
         d="m 4157.46,3562.89 v -6.01 c -2.89,2.69 -14.73,0 -8.83,8.86 2.85,0 5.94,0 8.83,-2.85" /><path
         id="path392"
         style="fill:#84b414;fill-opacity:1;fill-rule:nonzero;stroke:none"
         d="m 3108.4,3536.25 -23.48,17.42 c 9.03,-5.51 20.43,-5.51 23.48,-17.42" /><path
         id="path394"
         style="fill:#84b414;fill-opacity:1;fill-rule:nonzero;stroke:none"
         d="m 4160.31,3553.67 5.86,-8.75 -2.77,8.79 z" /><path
         id="path396"
         style="fill:#84b414;fill-opacity:1;fill-rule:nonzero;stroke:none"
         d="m 4169.06,3503.71 -8.75,14.96 c 8.75,0 5.86,-9.02 8.75,-14.96" /><path
         id="path398"
         style="fill:#84b414;fill-opacity:1;fill-rule:nonzero;stroke:none"
         d="m 3199.92,3468.55 h 2.89 l 64.53,-50.27 v -3.2 z" /><path
         id="path400"
         style="fill:#84b414;fill-opacity:1;fill-rule:nonzero;stroke:none"
         d="m 2439.53,3441.8 v -5.94 c -3.05,3.2 -14.65,3.2 -5.98,8.94 0,-3 2.93,-3 5.98,-3" /><path
         id="path402"
         style="fill:#84b414;fill-opacity:1;fill-rule:nonzero;stroke:none"
         d="m 2209.65,3439.06 h 3.12 l -14.76,2.74 z" /><path
         id="path404"
         style="fill:#84b414;fill-opacity:1;fill-rule:nonzero;stroke:none"
         d="m 2309.96,3439.06 c -5.98,-8.75 -20.7,-3.2 -26.41,0 0,2.74 17.5,5.74 26.41,0" /><path
         id="path406"
         style="fill:#84b414;fill-opacity:1;fill-rule:nonzero;stroke:none"
         d="m 2221.64,3439.06 5.94,-3.2 v 3.2 z" /><path
         id="path408"
         style="fill:#84b414;fill-opacity:1;fill-rule:nonzero;stroke:none"
         d="m 2268.83,3439.06 -17.62,-3.24 v 3.24 c 5.7,2.74 11.68,-3.24 17.62,0" /><path
         id="path410"
         style="fill:#84b414;fill-opacity:1;fill-rule:nonzero;stroke:none"
         d="m 2153.83,3439.06 c -8.79,-3.2 -23.63,-11.99 -32.42,-8.75 2.89,8.75 23.63,0 32.42,8.75" /><path
         id="path412"
         style="fill:#84b414;fill-opacity:1;fill-rule:nonzero;stroke:none"
         d="m 4637.81,3424.34 h -3.16 l -6.06,5.97 c 3.05,2.85 6.06,-3.24 9.22,-5.97" /><path
         id="path414"
         style="fill:#84b414;fill-opacity:1;fill-rule:nonzero;stroke:none"
         d="m 4702.42,3427.07 11.8,-2.73 -2.81,2.73 z" /><path
         id="path416"
         style="fill:#84b414;fill-opacity:1;fill-rule:nonzero;stroke:none"
         d="m 3300.04,3394.73 -26.76,20.35 26.76,-14.38 z" /><path
         id="path418"
         style="fill:#84b414;fill-opacity:1;fill-rule:nonzero;stroke:none"
         d="m 5082.46,3380 -8.75,-8.67 2.77,-2.89 6.02,2.89 c 32.46,-20.59 91.41,-38.36 106.09,-85.71 6.02,-20.62 20.47,-40.89 38.29,-55.93 -14.58,-11.96 20.7,-11.96 9.02,-26.57 l -26.84,9.03 v -6.02 c -11.48,11.6 -29.41,8.95 -41.13,11.6 -14.69,11.96 -29.38,38.72 -47.23,29.57 14.92,-5.82 2.85,-17.61 11.84,-29.57 -2.81,3.21 -5.86,0 -8.99,3.21 l -2.85,-3.21 c 2.85,-2.65 9.03,-8.71 5.98,-14.61 -8.67,0 -17.38,11.96 -23.36,3.01 -17.97,17.58 -14.96,53.09 -32.54,64.92 -2.81,2.74 2.93,2.74 2.93,5.79 -8.91,2.93 -14.73,8.78 -17.62,17.65 l 5.94,5.94 -5.98,3.01 -3.04,-3.01 c -23.52,14.69 -62.03,53.16 -35.39,91.13 v 9.14 c 32.54,-5.97 35.39,-9.14 64.84,-20.7" /><path
         id="path420"
         style="fill:#84b414;fill-opacity:1;fill-rule:nonzero;stroke:none"
         d="m 2215.51,2849.57 -17.5,9.02 c 5.9,-2.93 17.5,2.78 17.5,-9.02" /><path
         id="path422"
         style="fill:#84b414;fill-opacity:1;fill-rule:nonzero;stroke:none"
         d="m 2810.78,2843.79 15,-3.09 -15,6.02 z" /><path
         id="path424"
         style="fill:#84b414;fill-opacity:1;fill-rule:nonzero;stroke:none"
         d="m 2860.94,2837.85 v -5.7 h -8.75 v 8.55 c 3.01,0 5.82,-5.86 8.75,-2.85" /><path
         id="path426"
         style="fill:#84b414;fill-opacity:1;fill-rule:nonzero;stroke:none"
         d="m 2303.98,2814.34 c -8.75,-3.01 -29.33,2.85 -38.24,11.87 14.61,-6.17 29.49,-6.17 38.24,-11.87" /><path
         id="path428"
         style="fill:#84b414;fill-opacity:1;fill-rule:nonzero;stroke:none"
         d="m 2922.66,2826.21 c -2.78,-3.24 6.01,-6.17 0,-9.02 h -8.71 c -5.98,5.78 5.93,9.02 8.71,9.02" /><path
         id="path430"
         style="fill:#84b414;fill-opacity:1;fill-rule:nonzero;stroke:none"
         d="m 2963.98,2811.33 v -2.85 l -8.75,5.86 c 3.09,0 8.75,2.85 8.75,-3.01" /><path
         id="path432"
         style="fill:#84b414;fill-opacity:1;fill-rule:nonzero;stroke:none"
         d="m 2987.54,2811.33 c 3.12,-8.79 -14.88,0 -17.58,0 z" /><path
         id="path434"
         style="fill:#84b414;fill-opacity:1;fill-rule:nonzero;stroke:none"
         d="m 3020.04,2802.54 h 2.81 l -26.44,2.85 z" /><path
         id="path436"
         style="fill:#84b414;fill-opacity:1;fill-rule:nonzero;stroke:none"
         d="m 2498.71,2740.55 c -3.09,-2.93 -6.05,-5.78 -9.02,-5.78 h -2.97 c 0,5.78 8.94,8.51 11.99,5.78" /><path
         id="path438"
         style="fill:#84b414;fill-opacity:1;fill-rule:nonzero;stroke:none"
         d="m 3797.81,2133.75 c -8.79,-2.93 -17.38,-8.71 -23.32,-8.71 5.9,5.78 11.68,11.29 23.32,8.71" /><path
         id="path440"
         style="fill:#84b414;fill-opacity:1;fill-rule:nonzero;stroke:none"
         d="m 3738.87,2127.73 c 0,-2.69 -5.67,-2.69 -8.83,-2.69 3.16,2.69 5.94,5.78 8.83,2.69" /><path
         id="path442"
         style="fill:#84b414;fill-opacity:1;fill-rule:nonzero;stroke:none"
         d="m 3759.61,2068.75 -2.93,-5.94 -3.01,5.9 c 3.01,0 5.94,0.04 5.94,0.04" /><path
         id="path444"
         style="fill:#84b414;fill-opacity:1;fill-rule:nonzero;stroke:none"
         d="m 3691.88,2057.03 2.85,-5.78 5.89,5.78 z" /><path
         id="path446"
         style="fill:#84b414;fill-opacity:1;fill-rule:nonzero;stroke:none"
         d="m 3653.4,2042.38 c -2.93,-5.86 -11.68,-3 -17.54,-5.86 2.85,5.86 8.79,5.86 17.54,5.86" /><path
         id="path448"
         style="fill:#84b414;fill-opacity:1;fill-rule:nonzero;stroke:none"
         d="m 3600.62,2030.66 c -3.32,-9.14 -14.72,-5.93 -23.74,-9.14 5.93,3.21 14.68,5.86 23.74,9.14" /><path
         id="path450"
         style="fill:#84b414;fill-opacity:1;fill-rule:nonzero;stroke:none"
         d="m 3676.88,2024.73 6.17,-3.21 2.89,3.21 z" /><path
         id="path452"
         style="fill:#84b414;fill-opacity:1;fill-rule:nonzero;stroke:none"
         d="m 3671.05,2021.52 c -5.54,-8.59 -11.75,-2.73 -20.58,0 z" /><path
         id="path454"
         style="fill:#84b414;fill-opacity:1;fill-rule:nonzero;stroke:none"
         d="m 3644.65,2015.74 c -5.98,-11.87 -32.35,-14.72 -47.35,-23.67 5.94,17.77 35.67,11.8 47.35,23.67" /><path
         id="path456"
         style="fill:#84b414;fill-opacity:1;fill-rule:nonzero;stroke:none"
         d="m 3588.79,1992.07 h -5.98 c -5.93,3.09 5.98,8.95 8.75,5.78 z" /><path
         id="path458"
         style="fill:#84b414;fill-opacity:1;fill-rule:nonzero;stroke:none"
         d="m 3570.9,1992.07 c 0.04,-2.93 -5.74,-5.78 -8.71,-8.59 -2.85,-0.04 0,8.59 8.71,8.59" /><path
         id="path460"
         style="fill:#84b414;fill-opacity:1;fill-rule:nonzero;stroke:none"
         d="m 2386.52,1945.12 6.02,-5.74 v 5.74 z" /><path
         id="path462"
         style="fill:#84b414;fill-opacity:1;fill-rule:nonzero;stroke:none"
         d="m 2843.32,1780.12 c 0,-2.93 -3.01,-5.86 -5.94,-5.86 h -3.04 c 0,2.93 3.04,5.86 8.98,5.86" /><path
         id="path464"
         style="fill:#84b414;fill-opacity:1;fill-rule:nonzero;stroke:none"
         d="m 2804.84,1771.09 c -8.71,-6.05 -20.62,-8.71 -32.46,-6.05 8.99,2.93 21.06,6.05 32.46,6.05" /><path
         id="path466"
         style="fill:#84b414;fill-opacity:1;fill-rule:nonzero;stroke:none"
         d="M 7396.41,2841.88 H 5175.39 c 36.64,37.89 67.19,79.17 80.9,131.44 -41.29,-20.59 15,38.52 -23.67,32.58 l 6.09,14.61 c -17.73,0.04 -29.65,23.63 -20.82,38.36 l -8.83,-5.94 c -8.75,8.79 5.94,20.39 0,29.61 -11.48,0 -26.4,0 -26.4,14.49 -5.94,-5.86 -8.75,-11.83 -14.73,-14.49 -35.35,26.44 -8.75,70.58 -35.35,103.08 l -2.85,-20.82 c -23.52,0 -29.5,20.82 -50.16,23.56 -5.86,38.71 -32.23,65.04 -50.08,100.16 h -5.97 l -2.86,-14.73 c 26.68,-26.49 47.31,-64.77 50.08,-100.2 h -8.71 c 2.77,-35.19 -23.55,-64.61 -44.41,-91.05 -5.78,0 -5.78,5.86 -8.6,8.63 -29.41,-8.63 -12.07,38.56 -29.41,41.33 -5.98,-29.41 -5.98,-61.76 -17.81,-88.36 -38.52,11.72 -29.77,56.06 -64.89,67.93 -0.03,2.93 -0.03,2.93 2.86,5.63 -8.75,-5.63 -26.41,-8.72 -32.27,2.85 -14.57,-14.5 -41.37,-2.85 -61.84,-11.57 v 3.09 c -26.56,-8.98 -53.16,0 -79.76,0 l 11.87,14.73 c -11.87,20.43 14.73,23.47 20.63,43.9 l -14.65,5.98 c -2.93,17.54 38.28,20.59 14.65,32.34 h 9.02 l -11.83,26.76 c -11.84,17.62 17.77,17.66 23.51,26.29 l -5.74,11.72 c 23.36,3.05 0,26.64 8.67,35.51 -2.93,5.82 -8.67,11.79 -14.61,9.02 -3.08,8.48 -14.92,23.13 0,26.33 -5.86,23.79 -26.6,-11.68 -32.77,12.11 l 3.12,5.62 3.05,-3.08 11.68,23.47 c -11.68,11.96 -14.73,44.3 -32.3,32.31 l 2.89,-2.74 -8.91,-2.81 c -14.65,5.55 -38.16,0 -35.35,26.33 h -5.71 c -14.92,3.2 -14.92,-11.52 -23.67,-20.78 -29.49,3.2 -73.75,-8.44 -82.42,29.72 l 17.58,3.17 -2.93,2.73 c -11.91,-8.9 -38.32,11.49 -38.28,-11.64 -20.67,0 -23.67,-20.78 -41.33,-23.98 l 5.98,-5.55 -17.85,-11.83 -5.82,8.94 -5.55,-5.94 -3.32,5.94 c -11.68,-17.62 -35.35,-11.91 -50.12,-20.66 -2.85,5.58 -11.6,5.58 -14.57,0 -50.27,-3.21 -103.2,-23.6 -129.61,-67.66 -11.91,5.59 -29.73,-26.76 -38.48,0 126.84,138.13 324.3,262.07 515.67,182.58 -8.75,5.9 -14.65,17.81 -26.56,23.63 35.58,0 67.89,-29.57 97.22,-55.98 l 5.86,8.79 64.85,-38.28 -20.51,23.13 5.54,6.36 c -37.85,41.1 -73.35,70.59 -117.38,105.98 l 8.83,2.93 -29.49,11.8 5.74,-6.14 c -26.6,6.14 -67.7,0 -85.31,14.93 20.43,17.57 17.61,49.88 14.65,76.48 26.44,56.13 8.67,126.88 32.34,179.81 5.98,-2.89 14.65,-17.54 20.47,-8.75 12.11,-35.51 -2.81,-94.34 47.38,-100.2 8.71,11.88 -2.93,26.52 -8.67,35.08 l 20.43,165.35 8.87,5.7 c 20.43,123.83 97.11,223.99 153.2,336.14 l -5.9,20.43 c 23.71,53.16 50.08,105.93 70.74,161.99 23.44,14.76 14.73,59.1 41.33,61.72 l -5.94,6.17 14.69,14.8 c 2.93,5.94 -0.04,8.79 -5.98,14.65 l 5.94,5.94 c 61.84,-59.02 147.15,-126.84 179.73,-209.3 -47.11,56.06 -94.22,120.78 -159.26,156.06 l -5.86,-17.42 c 23.95,-26.61 59.14,-50.24 67.89,-73.79 -29.69,11.91 -38.28,44.25 -67.89,55.93 l 38.2,-47.07 -47.07,35.39 -5.7,-11.68 c 35.43,-50.23 100.2,-94.25 120.74,-153.39 -41.17,26.36 -55.9,70.54 -97.18,88.39 -11.84,14.77 -38.29,53.21 -58.95,29.5 3.05,-2.66 6.02,-2.66 8.75,-5.86 l -5.66,-2.78 46.87,-50.11 -2.89,-3.17 94.26,-100.19 -11.56,2.93 c 58.67,-58.99 97.11,-129.3 123.47,-206.45 53.01,-141.13 -23.28,-294.37 -49.88,-435.7 20.7,-11.8 -2.85,-41.49 11.72,-52.97 14.88,5.78 11.8,20.23 17.73,29.22 91.41,141.64 150.12,286.01 167.97,453.9 -9.06,23.52 11.56,58.75 -3.12,85.59 3.12,-2.89 3.12,2.66 8.98,2.66 -8.98,56.01 -8.98,120.82 -23.71,179.92 -49.88,105.94 -129.69,203.12 -203.32,297.42 l 224.06,29.45 c -70.66,5.98 -153.24,-14.84 -235.7,-29.45 -11.84,6.02 -3.05,17.7 -5.78,14.61 l -6.06,0.04 c -5.74,9.1 -17.61,17.89 -23.59,26.95 5.98,2.39 23.59,-6.17 23.59,8.52 -5.74,2.89 -11.87,-3.01 -17.61,-3.01 -8.75,-3.09 -23.56,0 -20.67,9.02 l 123.79,20.39 -41.13,-5.66 c -32.54,-3.09 -73.63,-20.74 -97.35,-3.09 -15,5.94 -38.32,32.54 -56.09,8.75 11.88,-47.07 -58.94,-29.41 -85.51,-47.07 26.57,3.09 59.14,14.57 79.53,8.87 l -150.03,-29.26 c 53.16,-6.17 99.96,17.54 144.29,14.69 l -23.4,-26.6 -3.2,8.87 -26.52,-26.68 -480.12,-91.41 -35.43,50.39 c 162.15,38.17 324.06,58.83 486.33,88.28 -156.33,-17.54 -327.15,-47.3 -486.33,-85.43 -50.04,70.55 -109.18,132.54 -173.83,191.49 l 5.94,2.97 c -17.81,2.93 -26.56,11.87 -23.52,32.3 -14.88,-29.37 -35.35,14.8 -50.35,11.99 l 32.58,-26.83 c -14.61,-11.53 -29.3,3.04 -44.26,3.04 -111.87,88.32 -226.6,176.96 -368.16,200.43 5.7,23.6 14.45,44.22 8.83,73.64 -53.09,3.08 -73.71,-50.04 -91.49,-88.32 -14.45,0 -41.13,5.74 -46.99,-11.92 5.86,-11.83 2.85,-32.26 20.43,-32.26 -38.05,-111.92 -67.77,-223.99 -64.65,-338.95 -24.22,-50.55 37.38,-147.54 6.64,-186.95 l 5,1.21 5.98,-8.83 -85.51,-23.32 v 8.67 l -2.85,-8.67 -76.52,-23.48 c -20.63,-11.91 -56.1,-3.32 -64.93,-14.8 l -8.79,8.87 126.68,38.08 -135.62,-38.08 c -23.63,14.49 -64.88,17.5 -79.65,35.39 -46.99,8.71 -94.02,38.2 -144.41,50.07 l -5.71,8.68 -5.97,-2.66 c -20.67,17.5 -46.96,8.48 -64.57,26.37 -59.14,20.39 -123.91,38.16 -185.71,49.84 -150.35,38.44 -321.17,59.18 -468.55,50.35 -17.66,29.26 38.16,55.86 -11.95,70.51 -26.41,2.89 -47.04,-26.6 -58.68,-44.14 -11.95,-188.44 35.24,-365.47 93.99,-536.13 l -29.42,-14.81 20.94,5.78 c -3.08,-8.51 -20.94,-11.68 -29.8,-17.57 -23.44,14.92 -58.79,-11.8 -82.31,-17.82 11.6,-2.93 26.6,11.88 38.24,3.09 -14.72,-3.09 -35.15,-11.72 -46.99,-3.09 -11.75,-5.62 -41.13,-14.68 -38.51,-23.51 -67.66,-6.06 -123.56,-41.1 -185.51,-58.91 h 14.69 l -5.94,-5.94 c -8.75,-14.76 -26.41,-17.57 -35.39,-5.78 L 2030,3851.41 v -5.82 c -5.74,-8.79 -20.55,0 -17.5,2.81 l -120.98,-46.99 5.98,11.87 c -6.02,-5.86 -17.7,-9.06 -14.92,-17.73 l -365.12,-144.53 -32.34,-5.94 2.85,-2.78 -11.68,-5.85 c -50.16,-8.95 -79.73,-41.25 -120.82,-49.97 l 2.81,-3.32 -44.14,-11.48 C 875.121,3382.77 433.012,3185.62 17.7305,2932.07 c -5.8907,-20.51 17.6992,-26.52 29.4609,-35.31 L 0,2843.79 c 26.4805,11.87 50.1602,-14.88 76.6406,-8.95 l 170.8594,79.5 c 436.172,188.75 869.34,380.15 1317.07,536.36 32.42,-93.94 85.43,-176.91 171.09,-244.57 20.47,-32.54 61.61,-50.08 91.29,-79.33 64.53,-79.92 147.07,-141.84 235.63,-182.93 l -6.02,-5.86 c 23.4,-17.66 44.3,-5.94 61.68,-35.39 53.17,-5.86 91.41,-46.96 141.72,-61.92 14.69,0 29.3,3.09 35.27,-8.55 h -2.93 l 29.3,-12.11 -8.87,-8.71 c 14.89,11.64 29.81,-8.79 47.23,-5.94 l 5.78,11.8 c 3.17,0 3.17,-2.85 6.06,-5.86 h -2.89 l 23.63,-5.94 -26.8,-5.86 c 9.26,0 14.96,-2.93 20.82,-11.8 -11.56,-11.87 -23.63,17.66 -44.02,5.71 46.91,-17.58 93.98,-35.08 144.18,-35.08 -2.97,-6.02 -11.56,0 -8.87,-6.06 5.9,-5.82 11.84,0.04 14.85,6.06 l 2.96,-11.88 5.79,8.95 c 8.71,5.78 23.63,-3.09 23.63,-12.15 l -23.63,-2.73 c 11.71,-2.93 29.57,0 44.02,0 5.98,-5.78 14.8,-11.64 14.8,-17.43 -545.15,-97.3 -1063.51,-265.42 -1543.63,-518.74 l -5.9,2.77 c 0,-2.77 0,-5.7 -3.04,-5.7 -91.22,20.58 -100.161,-103.25 -176.759,-114.89 l 23.469,2.85 c -8.75,-20.66 -35.23,-32.38 -32.301,-52.89 -23.75,-3 14.801,-35.5 -17.769,-38.67 11.871,-2.69 11.871,-17.3 17.769,-29.3 -26.558,-14.64 14.801,-38.12 20.621,-52.96 h -23.55 c 120.82,-85.67 259.26,-132.89 406.52,-159.22 182.85,-26.37 380.16,-61.68 565.82,-61.68 338.68,-15.16 656.88,-3.21 966.29,67.69 l 17.62,11.88 c 5.51,0.39 11.17,1.09 16.87,1.91 v -294.96 l 4604.11,0.04 z m -2134.14,1522.18 32.3,-50.04 c -14.53,8.95 -29.22,29.46 -32.3,50.04 m -185.79,226.99 62.07,-59.25 c -5.97,-2.62 -15,12.11 -20.54,6.17 -14.69,14.8 -41.53,23.59 -41.53,53.08 M 2516.05,1767.97 c 67.97,12.15 141.53,29.73 209.42,35.58 21.95,2.23 44.3,5 66.83,8.25 v -6.76 c -32.61,-5.94 -65.58,-12.03 -99.18,-19.06 l -6.05,5.78 c -47.23,-17.5 -109.06,-20.67 -164.96,-29.38 z m -807.03,-41.06 2.82,6.18 159.14,-14.97 c -50,0 -111.72,11.88 -161.96,8.79 m 1054.73,960.55 26.45,-8.79 v 8.79 h 2.1 v -722.5 c -34.49,-4.22 -68.78,-8.08 -102.42,-11.05 -73.32,0 -155.97,-26.53 -218,-11.88 l -2.78,-8.71 c -32.62,8.71 -64.72,0 -97.26,-2.89 -29.3,14.69 -70.79,0 -97.19,8.95 -29.61,-26.65 -53.01,17.46 -82.54,-6.06 l -241.64,20.59 c -14.69,2.93 -29.38,-17.46 -38.4,0 -282.58,43.94 -592.15,53.08 -839.49,215.07 l 5.86,5.86 3.04,-2.93 -0.03,8.87 c 32.38,5.7 70.66,17.58 100.03,38.4 100.32,43.94 212.23,82.27 315.28,135.23 336.17,94.5 665.9,238.91 1019.29,283.21 l -5.89,5.78 31.99,4.84 c -5.16,0.39 -10.24,2.74 -8.24,6.76 z m -359.37,97.5 c 2.85,2.77 20.5,2.77 29.17,-6.25 -11.56,-8.79 -20.62,3.17 -29.17,6.25 M 2003.63,3836.8 c 0,-5.86 -8.83,-8.87 -11.99,-3.01 3.16,0 5.98,5.82 11.99,3.01 m 624.57,26.36 c 26.53,-0.04 38.44,-35.27 55.78,-38.28 -2.85,-5.66 5.9,-11.6 12.07,-17.46 l 2.62,8.52 c 94.77,-91.29 179.85,-209.38 280.12,-271.06 v -8.63 c 17.62,0 14.69,-26.6 41.29,-20.82 -8.95,-20.47 23.51,-17.58 35.15,-29.45 -365.35,56.25 -760,103.28 -1154.61,44.18 -23.59,-14.73 -56.28,-8.79 -82.73,-14.73 l -173.83,-41.29 -2.81,5.86 c 223.91,88.59 456.48,176.8 683.36,262.54 l -5.9,5.62 h 23.83 c 93.94,38.32 188.48,82.78 285.66,115 m 215.12,568.64 h -3.01 v 3.16 h 3.01 z m 429.73,-204.96 c -20.63,-1.57 -41.8,-29.61 -67.43,-22 l -14.49,-8.63 5.9,8.63 -23.94,2.97 c 9.02,0 14.92,11.92 5.93,17.85 -44.22,0 -91.21,-23.51 -138.47,-35.43 -32.31,0.04 -73.48,-8.63 -106.02,-23.47 -41.05,-6.02 -88.32,-14.69 -123.75,-41.1 58.95,14.73 120.94,38.25 182.7,46.72 0,0 2.93,-17.26 17.65,-8.47 l -23.59,-14.96 14.73,-5.9 h -5.86 l 5.86,-5.55 h -2.86 c 0,-3.83 -0.15,-5.23 -0.54,-6.17 h 0.54 c -0.19,0 -0.39,-0.24 -0.54,-0.24 v 0.24 c -14.77,0 -43.67,-0.16 -49.38,-17.78 l -9.18,3.05 9.18,11.64 c -32.77,-5.51 -56.01,-17.58 -91.48,-23.59 44.26,26.68 76.52,11.95 114.65,38.4 -17.43,14.84 -52.78,-5.55 -73.48,-5.55 8.79,5.55 23.48,0 23.48,11.45 -49.81,6.17 -96.88,-32.35 -141.29,-35.4 0,3.05 -3.17,3.05 -3.17,5.94 -4.37,-17.61 -24.92,-18.71 -43.82,-23.12 l 23.43,8.28 -5.93,6.01 -76.68,-29.25 c 0,-3.09 3.08,-3.09 5.93,-3.09 -8.83,-2.97 -23.55,-2.97 -23.55,-14.69 l -5.82,2.85 c -2.93,3.09 20.54,5.94 14.88,17.58 l -20.78,-8.71 c -73.59,144.38 -117.89,291.88 -123.75,453.83 14.88,-20.86 44.14,-17.58 64.77,-32.5 l 6.13,-11.84 c 58.75,-20.5 117.54,-17.61 182.42,-26.68 -3.05,-11.64 8.79,-14.45 14.77,-14.45 11.79,2.81 14.64,-5.94 20.58,-11.91 67.74,-17.78 126.8,-38.4 197.46,-47.23 76.68,-38.24 164.85,-52.73 235.59,-96.91 l -2.89,-3.09 11.68,-5.94 c -8.79,-11.83 -32.35,-17.73 -38.24,-17.77 -2.86,-20.43 23.74,3.01 38.24,-2.85 l -5.71,-5.94 2.86,-2.89 c -17.58,0 -41.18,-14.77 -64.85,-17.58 v -23.79 c 15,11.92 32.58,11.92 47.27,17.85 -8.83,-8.78 -29.38,-11.64 -26.57,-17.85 17.78,-2.97 35.32,14.77 53.01,20.94 z m -409.3,-151.49 c -8.55,-5.78 -26.37,-2.93 -32.38,-15 0,0 -8.13,-0.43 -17.93,-1.05 -11.68,-5.55 -23.32,-16.18 -35.24,-10.39 -14.65,-3.75 -1.56,3 17.46,7.69 -6.13,-0.39 -12.11,-0.74 -17.46,-1.8 0,1.49 13.68,2.9 27.03,3.83 3.36,0.67 6.72,1.1 10.16,1.37 1.09,0.51 2.23,1.02 3.4,1.29 3.36,1.37 6.8,2.77 9.84,5.19 h -32.5 c 17.58,8.87 53.13,11.84 67.62,23.52 v -8.63 c 14.77,0.04 20.66,-11.76 38.52,0.04 -5.94,-17.78 -26.65,-14.93 -38.52,-26.61 l 11.87,-2.89 c -20.42,-6.13 -41.28,-17.73 -64.84,-20.82 11.72,23.71 35.43,26.61 52.97,35.39 0,3.09 -2.81,3.09 -5.7,3.09 z m 29.73,-15 c 2.85,35.51 61.75,21.02 91.21,38.71 44.14,17.54 91.4,32.27 138.51,41.33 -55.9,-29.73 -123.75,-38.51 -182.89,-65.04 -14.53,6.06 -29.57,-11.72 -46.83,-15 m 14.49,-2.65 h 11.91 l -17.61,-2.9 z m 41.52,8.78 41.17,14.89 2.82,0.04 z m 38.17,-49.1 c 15.5,8.67 26.6,25.08 44.06,22.74 -9.38,-9.38 -30.12,-17.03 -44.06,-22.74 -2.82,-1.56 -5.71,-2.97 -8.87,-3.86 2.34,1.17 5.47,2.46 8.87,3.86 m 52.89,84.5 c 8.94,-11.88 20.86,5.93 29.68,0 -2.93,0 -2.93,-2.78 -2.93,-2.78 5.51,-6.09 20.51,-3.24 29.3,0 l -29.3,-15.04 -5.89,11.8 -20.86,-8.71 c 3.04,8.71 3.04,8.71 0,14.73 m 203.28,17.61 -197.35,-73.71 c 61.92,29.57 129.89,56.1 197.35,73.71 m -61.72,8.75 9.02,3.09 2.85,-3.09 z m -109.3,50.16 c 0,3.2 -2.58,3.2 -5.51,3.2 14.54,0 26.65,11.72 43.99,11.72 -20.39,-11.72 -38.48,-29.41 -67.7,-26.56 z m 65.12,-6.02 c -14.73,-14.53 -53.01,-17.26 -73.67,-23.43 26.64,6.17 47.03,23.43 73.67,23.43 m -41.33,-58.83 c 11.8,12.11 32.46,-2.89 47.23,14.69 -5.9,-8.75 -32.54,-35.23 -47.23,-14.69 m -62.03,50.36 -2.85,2.85 8.83,5.62 h 3.04 z m -111.91,-56.1 -5.94,2.85 15,8.83 z m -23.48,-8.71 h -2.85 l 8.83,8.71 z m -26.33,-11.95 c -9.1,2.85 14.69,11.95 20.63,8.71 2.85,-8.71 -23.75,0 -20.63,-8.71 m -23.63,32.34 8.83,-2.89 c -2.85,-3.05 -20.67,-5.94 -8.83,2.89 m 318.32,56.02 h 2.66 l -5.86,-5.71 -2.7,2.58 z m 32.38,20.7 2.89,-5.94 c -2.89,3.05 -11.68,0 -2.89,5.94 m 49.88,11.6 -0.03,-2.97 h -8.83 v 2.97 z m 11.92,-2.97 h 8.79 l -17.89,-5.82 z m 11.56,-8.63 -23.48,-5.94 23.48,8.75 z m 28.6,29.57 c -1.61,-1.99 -3.29,-4.49 -5.04,-6.09 l 8.78,0.04 c -5.54,-2.85 -5.54,-2.85 -11.4,0 l 7.66,6.05 c 1.32,1.64 2.57,2.97 3.78,2.97 z m 56.95,-3.24 -58.75,-11.72 c 14.61,20.78 38.12,17.93 58.75,11.72 m 44.14,-17.7 c -67.66,-14.61 -135.63,-55.89 -208.99,-61.79 46.96,23.71 76.53,14.8 117.86,41.21 2.85,6.01 -6.18,9.06 -6.22,6.01 -26.36,3.05 -41.05,-29.53 -64.68,-17.89 l -70.67,-20.31 c 0.9,-0.12 1.96,0.27 2.82,0 -0.32,-0.39 -0.32,-0.39 -0.67,-0.62 2.31,-0.43 4.57,0.62 6.6,0.62 -2.65,-3.12 -5.93,-3.12 -11.48,-3.12 2.34,0 2.93,0.27 4.88,2.5 -0.74,0.15 -1.4,-0.2 -2.22,0.62 -8.72,0.39 -20.71,-8.16 -23.48,0 73.55,20.31 144.37,32.19 218.05,64.81 z m 17.65,-8.63 c -61.79,-26.41 -120.58,-38.36 -179.68,-55.82 59.14,20.35 120.97,43.87 179.68,55.82 m 147.5,135.63 h -11.71 c 2.93,0 5.78,2.61 11.71,0 m 161.92,17.5 -17.54,-8.79 5.74,-6.1 -20.43,-2.61 c -0.78,-2.35 -0.54,-3.52 0.24,-4.26 -6.76,0.23 -14.5,-0.82 -29.69,-4.61 2.69,-8.95 17.58,0 29.45,-3.01 -38.51,-11.87 -97.19,-17.85 -135.66,-32.3 -5.74,-6.18 -11.68,0 -14.53,2.77 l 15.86,4.88 c 3.12,5.43 9.68,4.61 15.54,4.69 l -15.54,-4.69 c -0.43,-0.7 -1.06,-0.82 -1.33,-1.79 35.15,2.93 73.71,14.57 97.15,35.15 -17.58,5.78 -50.08,-17.54 -62,-2.81 -17.34,-17.77 -49.68,-11.84 -58.59,-29.41 -3.12,11.64 -15,0 -20.74,5.66 58.91,20.86 117.89,50.16 179.84,52.97 l -38.51,-14.53 c 15,-2.78 47.3,5.78 64.92,17.65 z m -108.99,-35.32 c -5.85,-2.89 -11.83,-2.89 -20.43,-2.89 8.6,0 11.68,5.98 20.43,2.89 m -14.68,-32.54 -11.88,-11.6 -2.93,2.97 -11.6,-2.97 c 0,2.97 17.34,8.75 26.41,11.6 m 23.51,8.95 -5.78,-2.77 h -8.9 z m 11.84,6.02 h 2.93 l -5.94,-2.93 z m 73.67,2.85 c 2.85,-8.87 -11.91,-8.87 -17.62,-11.64 l -3.04,2.77 c 5.89,3.09 11.87,11.68 20.66,8.87 m 29.49,5.86 -5.97,-3.05 3.08,9.02 z m -0.04,-20.59 c -47.03,-8.83 -91.44,-35.39 -138.47,-26.56 26.6,11.87 52.93,23.47 82.61,29.65 l -5.97,-6.21 c 17.61,0.03 43.98,8.98 61.83,3.12 m 2.89,-5.94 -26.44,-8.75 23.59,8.75 z m 41.29,-141.13 -5.66,5.55 -5.98,-14.81 c -41.4,5.94 -59.14,50.16 -94.37,65.08 v 2.89 l -23.71,23.48 91.52,23.55 c 14.69,-32.42 32.54,-70.86 38.2,-105.74 m 1069.42,424.06 -247.31,-47.22 241.8,47.22 z m 68.01,14.69 c -20.55,-8.83 -38.33,-5.98 -62.04,-11.6 14.89,8.71 41.49,5.62 62.04,11.6 m -374.18,-79.57 441.79,79.57 c -5.66,-14.69 -23.24,-38.32 -41.29,-47.11 l 9.03,-5.82 c -3.17,-3.2 -3.17,-5.78 -3.17,-8.98 -14.65,5.78 -20.39,-11.64 -26.6,-23.56 0,-14.73 -29.18,-32.62 -37.89,-58.98 -68.01,-123.71 -135.74,-253.4 -141.64,-400.71 l -8.75,-8.51 c -32.38,170.74 -97.19,332.5 -191.48,474.1 M 3942.3,3005.9 c 0,-53.36 9.69,-113.87 26.84,-164.02 H 2792.3 v -7.27 c -424.29,88.2 -826.4,240.94 -1118.59,589.73 58.71,5.97 129.65,8.82 191.45,14.72 38.2,-8.75 79.68,-8.75 111.91,2.74 v -2.74 c 0,2.74 11.64,11.64 17.73,0 70.67,-5.9 156.18,14.57 226.84,5.74 44.1,-8.94 88.32,14.73 114.88,-5.74 -5.93,0 -11.91,2.74 -20.74,2.74 14.81,-11.49 41.17,-5.94 56.06,-2.74 l -26.45,5.74 29.61,8.83 c 100.16,-5.66 241.56,-14.57 338.63,-14.57 2.7,-5.9 8.79,-5.9 8.83,-11.99 64.81,0 132.74,-26.37 197.42,-17.54 v -14.8 c 79.57,-5.71 156.21,-14.73 226.84,-47.07 l -14.77,14.72 c 38.25,-8.79 85.55,-38.47 120.67,-20.93 l 179.76,-99.97 5.98,5.82 c 8.83,-5.82 5.98,-14.57 5.98,-17.61 17.81,11.79 35.43,-14.61 50.07,-2.62 -23.71,11.52 -32.22,35 -58.82,44.02 5.93,17.43 17.5,-0.04 26.6,8.68 -47.31,11.79 -79.61,53.2 -126.88,67.89 l 2.89,5.93 c -20.47,5.71 -41.36,23.25 -55.86,35.43 l 2.86,5.71 -32.58,20.35 -8.79,-5.55 c -2.89,2.81 -5.71,8.75 -11.64,8.75 0,6.06 5.93,6.06 5.93,12.03 -17.85,8.75 -38.2,17.66 -50.15,38.24 l 9.06,2.62 c -29.49,23.79 -59.1,47.5 -88.63,58.95 l 11.76,-8.75 c -29.26,0 -20.55,14.88 -47.35,26.79 l 6.17,5.51 c -26.56,23.79 -44.45,56.02 -79.57,67.89 l 23.44,-20.66 c -26.44,-17.74 -20.58,23.75 -35.31,26.6 h 5.94 c -17.58,29.3 -32.31,47.03 -64.85,62.07 -44.22,70.31 -135.19,138.36 -176.75,217.73 l 103.32,41.37 -5.94,5.98 c 2.93,0 5.94,2.81 8.79,2.81 5.7,-2.81 0,-8.79 2.89,-11.64 l 52.97,23.48 29.64,8.82 c 2.7,26.37 47.11,20.67 70.59,35.4 l 5.9,-9.03 c 23.55,14.92 50.19,14.92 70.86,32.81 l -5.98,2.82 c 53.01,38.2 147.27,55.74 220.74,82.61 l -32.38,-18.08 9.06,-2.77 c 64.77,29.45 126.61,55.97 197.43,70.5 0.62,-1.95 0,-3.32 -1.18,-4.14 2.35,0.51 4.69,0.78 7.03,1.56 35.24,-26.75 88.4,-59.14 123.6,-91.48 26.64,-5.9 32.5,-20.62 50.08,-32.54 35.43,-38.2 88.43,-55.7 111.95,-99.96 50.27,-44.26 91.33,-97.42 138.44,-153.48 11.87,-46.95 53.24,-91.21 79.57,-132.61 14.76,-2.93 26.83,-2.93 35.58,9.02 14.54,8.71 14.54,-14.49 20.51,-26.45 0,5.63 8.95,2.78 11.8,0 -2.85,0 -2.85,-2.92 -8.71,-2.92 5.86,-5.94 11.6,-5.94 17.5,-8.95 -8.79,-8.87 17.85,-17.58 0,-23.87 41.4,-20.08 38.32,-85.19 88.67,-91.13 l -23.52,38.28 10.39,-1.6 c -5.19,2.73 -9.41,8.09 -13.71,1.56 6.14,18.01 -20.43,38.24 -11.64,44.38 l -8.79,-6.14 -11.83,14.65 14.69,6.29 -8.79,8.71 -3.13,-8.71 c -5.94,23.6 -26.33,46.88 -32.34,67.85 2.93,0 6.01,2.7 6.01,0 l -3.08,14.5 h 8.98 c -5.9,5.93 -11.91,11.87 -14.76,20.74 l -5.94,-2.93 c -8.71,11.64 -17.77,20.66 -14.92,35.15 9.06,20.75 -35.2,44.18 -11.41,61.92 l -14.73,14.8 c 2.62,3.05 5.94,6.06 8.75,6.06 -26.56,61.64 -59.06,129.61 -85.43,191.6 l 5.67,8.55 c -38.01,73.56 -58.91,162.23 -79.53,238.79 l 5.9,-3.08 -5.9,6.05 209.49,58.99 c -3.09,5.93 -26.6,5.93 -35.66,-3.17 l 2.89,-5.7 c -23.56,0 -38.25,-8.95 -58.91,-5.86 -5.7,-3.09 -17.58,-3.09 -11.68,-11.95 l -100.23,-26.53 -2.9,5.94 20.75,5.86 c -11.96,6.02 -20.75,-11.8 -29.53,0 67.5,32.54 132.57,41.41 209.1,58.91 l -5.75,5.74 5.75,6.17 c -61.84,-11.91 -123.79,-26.8 -179.57,-47.23 -11.96,-2.89 -35.39,-11.91 -35.39,5.94 35.39,11.88 82.61,20.59 117.77,35.12 l 14.73,4.57 v 1.6 c 29.68,11.84 49.96,38.09 82.46,41.02 0,-5.79 -5.75,-5.79 -5.75,-8.87 14.73,12.03 38.25,8.87 47.08,20.62 -14.69,6.1 -32.35,3.32 -44.26,3.32 l 55.97,20.43 c -44.06,-2.85 -73.47,-32.34 -111.91,-49.96 l -5.98,5.59 c -14.76,-8.83 -32.34,0 -49.96,-8.83 -3.44,0 -7.69,2.11 -10.19,4.92 -18.6,-4.92 -57.97,3.21 -66.53,-19.57 -11.79,11.76 -20.39,17.89 -35.35,14.65 23.56,14.77 80.16,19.02 104.1,31.13 v -19.22 h 19.69 c 17.62,14.77 26.56,0 44.22,11.84 -8.91,32.5 38.44,15 50.04,29.45 l -5.74,5.98 14.57,5.94 c -32.5,-14.73 -70.55,-23.71 -105.94,-32.35 l -3.09,8.64 c 14.89,5.82 38.44,5.82 47.19,20.54 -14.69,-2.81 -58.83,-11.56 -88.36,-26.4 l 2.58,15.82 c -26.56,-8.99 -53.09,-19.57 -90.9,-33.67 l -5.94,17.85 41.14,11.68 c -14.73,3.16 -26.45,-2.89 -38.28,-8.48 -8.72,26.37 -11.68,49.88 -20.51,76.21 8.83,126.88 0,250.63 41.17,371.49 23.52,8.59 38.24,-23.75 61.76,-17.74 l -2.62,-9.1 8.71,-2.62 c 0,5.71 -3.01,5.71 -6.09,8.75 6.09,5.78 11.83,8.67 20.9,5.78 5.97,-26.36 41.09,-5.74 55.82,-26.36 5.93,-17.74 -20.63,-26.61 -26.57,-32.58 0,-8.83 9.03,-11.84 14.89,-8.83 8.67,-47.19 52.85,-56.05 88.39,-76.48 32.39,-26.61 58.79,-49.85 94.38,-67.7 35.27,-53.09 97.38,-94.26 132.5,-144.61 l -2.89,-2.85 c 26.41,9.06 26.41,-32.34 44.18,-35.2 -50.08,-17.77 -126.84,-26.52 -176.68,-47.46 -26.84,-5.7 -5.98,-5.7 -23.52,-20.62 l 158.91,35.51 c 0,20.78 32.3,14.8 49.96,20.74 17.7,-41.33 55.98,-44.22 64.88,-82.42 l -2.93,-3.17 c 79.57,-132.46 167.86,-264.96 194.34,-415.39 l -11.64,-11.64 h 11.64 c 0,-5.94 -2.85,-9.06 -2.89,-11.87 17.77,-50.12 2.89,-97.23 20.59,-150.12 -17.7,-38.52 6.01,-88.63 3.16,-132.74 -17.81,-17.65 11.48,-20.74 5.7,-38.32 -315.19,-61.75 -606.72,-271.01 -680.51,-598.08 m -32.61,1420.08 c 3.08,-5.86 -5.94,-2.66 -5.94,-5.86 0,3.2 3.32,5.86 5.94,5.86 m -58.87,-85.43 h 6.13 l -11.83,-6.1 z m 10.43,4.92 c 2.5,9.73 40.9,21.83 64.73,24.18 l 12.57,16.33 c 5.98,3.12 0.86,-24.73 0.86,-16.06 -3.32,0.51 -8.12,0.35 -13.43,-0.27 l -4.46,-5.59 z m 57.42,9.61 c -11.6,-17.31 -38.2,-11.6 -56.09,-23.24 17.89,11.64 38.32,14.49 56.09,23.24 m 29.53,18.01 5.86,5.54 h 2.93 c -11.91,-2.69 0,-8.71 -8.79,-5.54 m 38.21,0 h 2.85 l -14.53,-3.17 z m -64.89,64.68 -0.27,-1.83 c 6.48,2.26 13.01,4.26 19.57,6.36 z m 103.32,23.71 c -34.88,-6.09 -60.54,-12.22 -84.02,-19.18 z m -23.75,-97.42 -14.68,-4.41 v -4.57 z m -544.84,-200.15 c 6.72,2.11 18.44,1.13 22.34,4.33 -6.71,-1.4 -13.63,-2.22 -22.34,-4.33 m -637.46,-102.62 c -0.74,-0.27 -1.37,-0.86 -2.07,-1.06 5.08,0.39 10.04,0.67 14.65,0.12 -4.26,2.11 -8.48,2.03 -12.58,0.94 m -2.07,-1.06 c -0.47,-0.11 -0.94,-0.11 -1.33,-0.23 -0.35,-0.08 -0.66,-0.23 -0.98,-0.27 0.79,0.19 1.61,0.19 2.31,0.5 m -4.73,-1.05 c -2.15,-0.2 -4.41,-0.31 -6.76,-0.55 -3.24,-0.58 -6.56,-1.25 -9.57,-2.03 5.43,0.43 10.98,1.25 16.33,2.58 m 901.25,333.01 -68.59,-16.25 c 37.69,-3.67 58.36,3.01 68.59,16.25" /><path
         id="path468"
         style="fill:#84b414;fill-opacity:1;fill-rule:nonzero;stroke:none"
         d="M 2792.3,1367.85 V 7.23047 h 6696.84 l 0.04,1360.61953 z" /><path
         id="path470"
         style="fill:#ffffff;fill-opacity:1;fill-rule:nonzero;stroke:none"
         d="m 3710.23,1764.18 v 494.41 l -343.59,-0.04 v -226.17 h 69.22 v -77.85 c -16.09,-2.5 -42.03,-3.71 -55.63,-3.71 -79.1,0 -97.65,17.3 -97.65,213.83 0,194.02 21.01,206.4 112.5,206.4 56.83,0 138.4,-11.13 252.11,-51.91 l 54.41,257.07 c -147.11,42.03 -238.55,50.7 -305.31,50.7 -291.68,0 -423.95,-131.01 -423.95,-464.72 0,-316.45 112.46,-465.98 391.8,-465.98 107.54,0 227.46,25.94 346.09,67.97 m 876.33,198.98 c -8.67,-1.21 -19.8,-2.46 -29.68,-2.46 -22.23,0 -27.19,4.92 -37.08,23.48 l -59.33,107.54 c 74.18,50.66 119.88,132.26 119.88,247.19 0,201.48 -131.01,275.62 -318.87,275.62 h -389.33 v -905.98 h 287.97 v 306.53 h 32.15 l 76.64,-169.34 c 46.95,-103.83 97.61,-144.61 220,-144.61 24.72,0 67.97,3.71 97.65,7.42 z m -299.14,348.56 c 0,-65.51 -16.05,-85.27 -55.62,-85.27 h -71.68 v 163.16 h 75.39 c 35.86,-0.04 51.91,-17.34 51.91,-77.89 m 789.81,436.29 c 0,71.72 -47,101.37 -111.25,101.37 -69.22,0 -112.46,-33.36 -112.46,-101.37 0,-69.18 42.03,-101.33 110,-101.33 75.39,0 113.71,35.82 113.71,101.33 m 263.28,0.04 c -0.04,71.68 -45.74,101.33 -111.25,101.33 -67.97,0 -112.5,-33.36 -112.46,-101.33 -0.04,-69.22 43.24,-101.37 111.21,-101.37 72.93,0 112.5,35.86 112.5,101.37 m 119.88,-689.73 v 556.21 h -285.51 v -571.01 c 0,-71.68 -8.67,-88.99 -81.6,-88.99 -75.39,0 -81.56,17.31 -81.56,88.99 v 571.01 h -297.89 v -556.17 c 0,-313.95 168.08,-362.15 373.28,-362.15 255.86,0 373.28,101.33 373.28,362.11 m 904.73,-349.77 v 905.98 h -268.21 v -274.37 c 0,-37.07 2.47,-79.11 6.18,-117.43 h -14.85 c -9.88,45.71 -23.47,88.99 -38.32,117.43 l -124.8,274.37 h -302.85 v -905.98 h 266.99 v 342.39 c 0,34.61 -2.46,80.31 -4.96,117.42 h 14.84 c 7.42,-40.82 22.23,-85.31 37.07,-117.42 l 155.74,-342.39 z m 804.61,0 -12.39,247.19 H 6832.3 v 84.06 h 290.47 v 245.98 H 6832.3 v 81.56 h 315.16 l 0.04,247.19 h -611.84 v -905.98 z" /><path
         id="path472"
         style="fill:#ffffff;fill-opacity:1;fill-rule:nonzero;stroke:none"
         d="m 3589.1,234.531 -18.51,248.438 H 3315.94 V 1140.51 H 3019.3 V 234.531 Z m 744.06,0 -12.34,247.188 -325.08,0.043 v 84.019 h 290.47 v 245.981 h -290.47 v 81.558 h 315.2 l -0.04,247.19 -611.8,0.04 V 234.531 Z m 766.29,296.641 c 0,153.277 -82.81,227.418 -200.23,262.027 l -151.99,44.5 c -29.69,8.672 -34.61,14.84 -34.61,33.391 0,27.191 9.88,32.109 37.07,32.109 53.12,0 98.86,-4.918 264.49,-45.699 l 61.8,249.65 c -155.75,37.07 -232.35,45.74 -296.64,45.74 -205.16,0 -354.73,-105.08 -354.73,-297.89 0,-156.949 84.06,-226.168 200.23,-264.488 l 144.61,-48.211 c 33.36,-11.129 39.57,-16.051 39.57,-40.781 0,-29.68 -12.38,-34.61 -44.49,-34.61 -50.7,0 -74.18,2.469 -284.3,69.219 l -69.21,-248.43 c 173.04,-59.34 236.09,-65.508 322.61,-65.508 202.7,0 365.82,107.539 365.82,308.981 m 1118.56,609.378 -296.64,-0.04 -91.45,-480.78 c -9.88,-51.921 -13.59,-103.832 -13.59,-132.269 h -14.85 c 0,28.437 -4.92,80.348 -14.8,132.269 l -91.48,480.82 -305.28,-0.04 232.35,-905.979 h 363.39 z m 726.79,-906.019 -12.38,247.231 h -325.08 v 84.019 h 290.47 v 245.981 h -290.47 v 81.558 h 315.2 v 247.23 l -611.84,-0.04 V 234.531 Z m 845.4,254.61 c -8.64,-1.211 -19.77,-2.461 -29.65,-2.461 -22.27,0 -27.23,4.961 -37.11,23.48 l -59.34,107.539 c 74.18,50.66 119.92,132.262 119.92,247.18 0,201.491 -131.01,275.631 -318.9,275.671 l -389.34,-0.04 V 234.531 h 288.01 v 306.52 h 32.11 l 76.64,-169.332 c 46.99,-103.828 97.66,-144.61 220,-144.61 24.73,0 68.01,3.711 97.66,7.422 z m -299.11,348.558 c 0,-65.508 -16.09,-85.277 -55.62,-85.277 h -71.68 V 915.59 h 75.39 c 35.82,0 51.91,-17.309 51.91,-77.891 m 1043.17,55.621 v 247.23 l -666.21,-0.04 V 893.32 h 182.93 V 234.531 h 297.89 V 893.32 Z m 747.77,-362.148 c 0,153.277 -82.81,227.418 -200.23,262.027 l -152.03,44.5 c -29.65,8.672 -34.61,14.84 -34.61,33.391 0,27.191 9.88,32.109 37.07,32.109 53.16,0 98.9,-4.918 264.53,-45.699 l 61.79,249.65 c -155.74,37.07 -232.38,45.74 -296.64,45.74 -205.19,0 -354.76,-105.08 -354.72,-297.89 0,-156.949 84.02,-226.168 200.19,-264.488 l 144.61,-48.211 c 33.4,-11.129 39.57,-16.051 39.57,-40.781 0,-29.68 -12.34,-34.61 -44.49,-34.61 -50.7,0 -74.18,2.469 -284.3,69.219 l -69.22,-248.43 c 173.05,-59.34 236.1,-65.508 322.62,-65.508 202.7,0 365.86,107.539 365.86,308.981" /></g></g></svg>