<?xml version="1.0" encoding="UTF-8" standalone="no"?>
<svg
   xmlns:dc="http://purl.org/dc/elements/1.1/"
   xmlns:cc="http://creativecommons.org/ns#"
   xmlns:rdf="http://www.w3.org/1999/02/22-rdf-syntax-ns#"
   xmlns:svg="http://www.w3.org/2000/svg"
   xmlns="http://www.w3.org/2000/svg"
   xml:space="preserve"
   style="enable-background:new 0 0 708.585 351.103;"
   viewBox="0 0 708.585 351.103"
   height="351.103px"
   width="708.585px"
   y="0px"
   x="0px"
   id="Layer_1"
   version="1.0"><metadata
   id="metadata920"><rdf:RDF><cc:Work
       rdf:about=""><dc:format>image/svg+xml</dc:format><dc:type
         rdf:resource="http://purl.org/dc/dcmitype/StillImage" /><dc:title></dc:title></cc:Work></rdf:RDF></metadata><defs
   id="defs918" />
<g
   id="g913">
	<polygon
   style="fill:#84b414;fill-opacity:1"
   id="polygon479"
   points="334.005,0.318 333.267,0.07 334.005,0.07 334.005,0.318  "
   fill="#81B524" />
    <path
   style="fill:#84b414;fill-opacity:1"
   id="path481"
   d="M335.432,0.07c0.234,0.485-0.712,0.248-1.195,0.248C334.48,0.318,334.95-0.179,335.432,0.07L335.432,0.07   L335.432,0.07z"
   fill="#81B524" />
    <path
   style="fill:#84b414;fill-opacity:1"
   id="path483"
   d="M338.313,0.794c1.2,0,2.877,0.238,4.072-0.24c0-0.485-0.728,0-0.964-0.237   c1.199,0.237,3.594-0.497,4.305,0.715c0.504,0.249,0.984,0.249,1.221,0c0.484-0.715,1.425,0.73,1.677-0.478   c-0.252-0.485-0.481-0.237-0.718-0.237c2.385-0.497,5.016,2.63,7.673,0.715l0-0.478c1.645,0.24,3.345,0,4.773,0.478l-3.593,0.249   c0.465,0.949,1.438-0.249,2.393,0.718c1.201-0.718,2.647,0.481,3.597-1.204l-0.482,1.204c1.946-0.237,4.324,0.711,5.517-0.481   l-0.245,0c0.732,1.193,3.113-0.236,4.554,0.482l5.51,0.481c-0.235,0.23-0.234,0.944,0.485,0.944l0.96-0.228   c-0.248-0.248-0.484-0.487-0.714-0.487c0.955-0.711,2.859,0.487,4.316,0.487c0.223,0.228-1.456,0.48-0.254,1.199l1.445-1.199   l0.464,1.199c0.711,0,2.415-0.233,2.644-1.199c0.733,0-0.228,0.713,0,0.966c0.257,0.944,1.451-0.738,1.216,0.715   c0.705,0,1.899-0.968,2.627,0c1.902-0.715,3.58,0.711,5.507,0c2.145,1.196,4.768,0.229,7.189,0.944   c0,0.485-0.733,0.485-0.733,0.975l0.25,0.228c1.694-1.917,6.225-0.228,8.385,0.463c0.249-0.213,0-0.691,0.475-0.691   c0.485,0.478,0.95,1.689,2.149,1.689l0.253-0.5c0-0.498-0.484-0.499-0.964-0.499l-0.236,0l-0.251,0c0.487-0.93,1.199,0,1.929,0   c-0.249,0.247,0.254,0.73,0.739,0.998c0-0.5,0.461-0.752,0.232-1.211c2.391,0.943,5.489,0.711,7.169,1.904   c0.71,0.24,1.427,0.737,2.391,0.486l-0.48-0.486c1.464,0,2.897,0.24,3.608,1.187c0.72-0.233,1.663-0.451,1.663,0.72   c0.255-1.42,3.113-0.223,4.56-0.451c0.731,1.661,2.412,1.183,4.072,1.661c0.256-0.237,0.001-0.478,0-0.715l1.184,1.198   c0.731-0.237,0.269-0.483,0-0.961c1.217-0.237,1.928,0.725,3.123,0.478c-0.941,0.483-1.906-0.714-2.637,0.247   c-0.486,0.486,0.495,0.237,0.495,0.723c1.202-1.206,2.399,0.949,2.867-0.723c0.262,0.954,0.978,0.237,1.438,0.237   c5.045,1.927,11.262,1.927,16.291,3.822l-0.465,0.485c1.421,0.718,3.594,0,3.594,1.696c1.195-0.262,1.428-2.181,3.106-0.749   l1.21-0.23l-0.478,0.499c0.718,0.218,1.185,0.218,1.414-0.498l-0.23,0.23l1.199,0.486l-0.484,0.495l1.913,0l-1.182,0.718   c0.47,3.373,4.554,1.907,5.989,2.86l0,0.248c0.95,0.266,1.664,0,2.862,0.48c-0.235-0.956-1.912-1.191-2.862-1.681l0.232,0   l-0.487-0.713l-0.711,0.713L472,20.926c0.717-0.228,1.676,0.248,2.163-0.478L472,19.962c0.952,0,2.418-1.443,3.129,0   c1.435-1.181,2.627,1.449,3.824,0.486c0.718,1.429,1.915,0.25,3.127,0.478c-0.732,1.203,0.697,1.666,1.667,1.666l-3.361,0.248   c0.227,0.718,2.143,0,2.391,1.201l0.97,0c-1.667,0.476,0,2.143-0.735,2.858c0.735,1.694,1.46,0.251,2.647,0.966   c1.698,0.973,3.597,1.215,5.509,1.674l-0.484-0.701c2.389,0,4.581,2.855,6.465,1.184c1.925-0.483,2.409,2.415,4.559,0.701   c4.323,2.416,10.542,1.47,14.621,3.859l1.181-0.728c0.262,0.252,0.261,0.728,0.731,0.728c-0.469,0.238-1.204,0.49-1.66,1.201   l0.928,0.715c-0.221,0.228-0.704-0.238-0.928,0.5c6.447,1.426,12.674,2.378,18.91,3.096l0,0.728   c-12.694-1.674-25.403-4.325-37.837-5.75c-0.732,0.946-1.684-0.735-2.167,0.711c1.435,0.715,3.817-0.238,5.505,0.714l0.715,0.5   c0.251-1.715,2.162-0.272,3.128,0.231c2.865,0,7.179,0.47,10.296,1.429c0.239,0.252,0,0.718,0.483,0.718l0.231-0.466   c1.664,0.718,3.11,1.429,4.791,1.184l0.245-0.718c3.596,0.463,6.476,2.147,10.048,2.147c-1.674,0.735-4.546-0.701-6.686-0.701   c-10.792-1.194-21.316-3.375-32.348-4.804c-1.211-1.198-3.355-0.235-5.022-0.946c-5.04-0.966-10.796-1.684-15.35-2.878   c-2.382,0.711-5.255-1.204-8.141-1.47c-1.208-0.701-2.876,1.933-3.113-0.211c-0.723-0.238-2.154-0.973-2.871,0l-68.531-11.994   c-37.616-6.225-81.45-5.492-119.554,1.929c-42.155,9.826-79.079,31.868-114.046,59.417c-5.041,4.794-10.776,9.809-16.774,13.654   c-1.903,1.681-3.119,4.325-5.516,5.757l-0.47,0c9.344-15.822,27.049-29.228,40.474-41.7c4.325-3.594,9.822-5.979,13.176-10.051   l-0.232,0c4.308-1.426,8.144-6.703,12.693-8.615c0.245,0.238,0.245,0.466,0.479,0.467c0.252-0.228,0.484-0.228,0.484-0.467   l-0.231-0.251c2.624-1.933,6.468-3.376,9.333-5.271c4.091-3.365,8.86-3.596,12.7-6.955c3.112-0.969,5.509-3.114,9.101-3.327   c0.485-1.228,1.926-1.695,3.13-1.932l-0.001,0.237c7.411-3.379,15.815-6.488,23.704-9.117l0.713,0.483   c1.698-2.412,4.806-0.72,6.955-2.863c1.448,1.17,4.074-0.25,5.753-0.737c-0.947-0.693-1.929,0.24-2.645,0.486   c0.503-0.726,2.892-1.448,3.848-0.726c1.194-1.664,3.852-0.953,5.269-1.914c0.232-0.468,0.001,0.463,0.232,0.709   c1.674-1.912,6.003-1.427,8.15-1.661l4.079-0.966c-0.47-0.711-2.644,0.482-4.078,0.481l10.546-1.912l0.468,0.486   c0.483-0.966,3.13-1.215,4.324-1.215L300.7,3.197c0.461,0.48,1.196,0.228,1.91,0.228l-1.194-0.715   c1.659,0.238,3.595-0.711,5.037,0.238l0.485-0.468l-0.968-0.481l1.915,0l0,0.481l1.414,0l0-0.718   c2.416-0.968,2.416,0.948,5.042-0.481l-0.469,0.481c0.714,0,1.931,0.468,2.399-0.245l-1.686-0.236   c0.481-0.487,1.431-0.249,2.144-0.249c-0.212,0.73,0.487,0.966,0.988,0.966c0.707-0.237,1.175-0.482,1.912-0.718   c-0.27-0.963-0.736,0-1.204-0.248c1.433-1.916,1.204,2.164,2.382-0.478c0.255,0.478,0.255,1.208,0.969,1.208l0.23-0.481   l-0.23-0.249l1.195,0c0,0-0.228,0.249,0,0.249c0,0.236,0,0.236,0.246,0.236l0.485-0.485l-0.245-0.238l3.837-0.725l0,0.963   l3.829-0.238l-1.434-0.725l2.867,0l-0.468,0.725c1.663,0.723,3.099-0.476,5.023,0l-0.231-0.725l1.431,0L338.313,0.794   L338.313,0.794L338.313,0.794z"
   fill="#81B524" />
    <path
   style="fill:#84b414;fill-opacity:1"
   id="path485"
   d="M347.175,0.07c0.257,0.485-1.448,0.485-1.449,0L347.175,0.07L347.175,0.07L347.175,0.07z"
   fill="#81B524" />
    <polygon
   style="fill:#84b414;fill-opacity:1"
   id="polygon487"
   points="355.078,0.794 353.642,0.07 355.078,0.555 355.078,0.794  "
   fill="#81B524" />
    <path
   style="fill:#84b414;fill-opacity:1"
   id="path489"
   d="M365.859,1.033l0,0.248l-0.965-0.487C365.138,0.794,365.619,0.794,365.859,1.033L365.859,1.033L365.859,1.033z   "
   fill="#81B524" />
    <polygon
   style="fill:#84b414;fill-opacity:1"
   id="polygon491"
   points="311.229,1.762 311.229,1.762 310.52,2.23 310.52,1.999 311.229,1.762  "
   fill="#81B524" />
    <polygon
   style="fill:#84b414;fill-opacity:1"
   id="polygon493"
   points="406.598,6.556 406.598,6.306 407.556,6.556 407.328,6.796 406.598,6.556  "
   fill="#81B524" />
    <path
   style="fill:#84b414;fill-opacity:1"
   id="path495"
   d="M449.961,14.214c0,0.243-0.484,0.492-0.715,0.492C449.478,14.457,449.729,14.214,449.961,14.214   L449.961,14.214L449.961,14.214z"
   fill="#81B524" />
    <polygon
   style="fill:#84b414;fill-opacity:1"
   id="polygon497"
   points="469.837,20.699 469.838,20.449 470.807,20.448 470.807,20.699 469.837,20.699  "
   fill="#81B524" />
    <path
   style="fill:#84b414;fill-opacity:1"
   id="path499"
   d="M484.471,22.129l-0.244,0.463l0.245-1.181C484.472,21.411,484.955,21.878,484.471,22.129L484.471,22.129   L484.471,22.129z"
   fill="#81B524" />
    <polygon
   style="fill:#84b414;fill-opacity:1"
   id="polygon501"
   points="486.374,21.411 486.374,21.175 487.102,21.411 487.102,21.639 486.374,21.411  "
   fill="#81B524" />
    <path
   style="fill:#84b414;fill-opacity:1"
   id="path503"
   d="M488.29,21.639c-0.001,0.238-0.467,0-0.933,0C487.585,21.639,488.054,21.175,488.29,21.639L488.29,21.639   L488.29,21.639z"
   fill="#81B524" />
    <path
   style="fill:#84b414;fill-opacity:1"
   id="path505"
   d="M489.256,22.129c-0.714,0.463,0,0.977,0.231,1.429c-0.715-0.238-0.946,0.483-0.714,0.959   c-0.483-0.476-1.671-0.476-1.415,0c0.228-0.231,0.227-0.959-0.001-1.198c-0.483-0.48-1.197-0.214-1.698-0.214   c0.715-0.742-0.704-0.265-0.463-0.977C486.618,23.106,487.823,22.364,489.256,22.129L489.256,22.129L489.256,22.129z"
   fill="#81B524" />
    <polygon
   style="fill:#84b414;fill-opacity:1"
   id="polygon507"
   points="491.651,22.84 491.168,22.129 491.65,22.592 491.651,22.84  "
   fill="#81B524" />
    <path
   style="fill:#84b414;fill-opacity:1"
   id="path509"
   d="M494.06,24.042c-0.487,0.714-2.893-0.483-2.164,1.422c1.178,0.721,1.677-0.211,2.633-0.463l-0.238-0.483   c1.456,0.238,1.198-1.412,2.375,0l-0.695,0.735c0.232,0,0.001,0.211,0,0.463c-0.225-0.714-1.443-0.252-1.912,0.235   c1.688,1.684,2.388-1.194,4.059-0.698c0.48-1.694,1.677,0.463,2.181-0.497l-0.258,0.245c0.469,0.949,1.416-0.245,2.156-0.245   c-0.965,0.497-0.001,1.429,0,1.933c-2.638,0.211-4.078-2.647-5.531-0.255c1.682,1.432,0.735-0.97,2.409-0.483l-1.191,0.738   l6.242,1.66l0.231-0.483l12.225,2.858l1.429-1.184c-1.681,1.704,0.946,1.184,1.426,1.933c3.845-0.483,8.156,1.667,11.759,1.915   c2.616,0.466,6.206,0.949,9.084,1.195c6.726,1.677,13.195,4.076,20.857,3.841c-1.68-0.497-4.565,1.204-5.988,0   c-2.16,0-5.999-0.497-7.914-0.497c-0.966-1.667-3.368,0.248-5.029-0.929c0.225,0,0-0.738,0.225-0.738   c0.973,0,1.939,0.466,2.633,0.238c-1.198-0.715-3.342-1.916-4.525-0.48c-2.174,1.429-4.314-1.436-6.267-0.235l-0.695-0.711   c-0.241,0.211-0.241,0.711-0.721,0.711c-0.711-2.879-3.845-1.446-5.498-1.201l0.234-0.245c-0.967,0-2.168-0.949-2.626,0.245   l-0.487,0c-0.234-0.477,0.487-0.477,0.487-0.96c-0.487-0.483-0.97,0-1.684-0.235l0.483,0.949c-0.735-0.483-0.735-0.949-1.916-0.231   l-0.496,0c0.238-0.483,0.711-0.718,0.496-1.449c-0.259,0.248-1.422-0.218-1.422,0.732l0.001,0.235l-0.722-0.967   c-0.269,0.967-0.749,0-1.464,0c-1.66-0.463-3.592,0.732-5.021-0.721c0.963-0.241,1.681,0.721,2.626,0.503   c-0.231-0.966-2.627-1.194-3.596-0.966c-0.963,1.184-2.161-0.96-3.824-0.96l-0.724,0.96l-0.721-0.749l0.479-0.449l0.242,0.449   c1.443-1.184,3.586,0.521,5.022,0c-3.347-1.885-7.887-0.701-10.764-0.449l-0.252-0.98l-0.476,0.245   c-0.449-0.946-2.402-0.701-3.576,0c0.228-0.701-2.168-0.701-2.882-1.443l-1.202,0.252c0.956-1.449,2.876,0,4.312-0.483l0,0.483   l3.824,0.49c-4.559-2.405-11.258-2.15-16.753-3.838c1.419-0.714,4.063,1.432,5.974-0.245l-1.673-0.469l1.913-0.245l-0.483-1.201   C490.929,24.042,493.074,23.558,494.06,24.042L494.06,24.042L494.06,24.042z"
   fill="#81B524" />
    <path
   style="fill:#84b414;fill-opacity:1"
   id="path511"
   d="M487.101,23.803c-0.483,0-1.443,0.715-1.442-0.245L487.101,23.803L487.101,23.803L487.101,23.803z"
   fill="#81B524" />
    <path
   style="fill:#84b414;fill-opacity:1"
   id="path513"
   d="M503.871,25.95c1.677,0.738,3.589,0.235,4.556,1.201c2.378-2.395,2.378,1.688,5.025,0.715   c0.96-0.966,1.45,0,2.644-0.715c0.487,0.483,0,0.946-0.248,0.946c0.483,0.742,2.164-0.946,1.926,0.984   c-0.967-0.242-1.926-0.487-3.123-0.487l0.966,0.701l-1.919,0l0.714-0.214c-0.228-0.487-0.479-0.984-1.191-0.732   c-0.497,0-1.697,1.191-2.63,0.49l0.932-0.49c-0.452-1.198-2.147-0.483-3.096-1.198l0,0.483l1.197,0.715   c-1.684-0.483-5.753,0-7.179-2.399l1.426-0.949L503.871,25.95L503.871,25.95L503.871,25.95z"
   fill="#81B524" />
    <polygon
   style="fill:#84b414;fill-opacity:1"
   id="polygon515"
   points="506.032,25.715 505.548,25.253 506.031,25.253 506.032,25.715  "
   fill="#81B524" />
    <path
   style="fill:#84b414;fill-opacity:1"
   id="path517"
   d="M487.357,26.9c0.466-0.211,1.185,0.252,1.416-0.466l4.801,0.943c-0.5,0.258-1.188,0.721-1.923,0.973l0-1.198   c-2.164,0.483-1.919-0.718-3.362,0.483c-1.415-0.946-4.777-0.259-4.542-2.171C485.197,25.715,487.357,25.715,487.357,26.9   L487.357,26.9L487.357,26.9z"
   fill="#81B524" />
    <polygon
   style="fill:#84b414;fill-opacity:1"
   id="polygon519"
   points="513.22,26.689 512.016,26.433 513.221,26.433 513.22,26.689  "
   fill="#81B524" />
    <path
   style="fill:#84b414;fill-opacity:1"
   id="path521"
   d="M526.868,30.513l0.001,0.211c-0.96,0.97-2.158-0.701-3.587,0c-0.942-1.184-3.104-0.701-4.788-1.429   l1.409-0.214l0-0.732C522.34,29.081,524.48,30.275,526.868,30.513L526.868,30.513L526.868,30.513z"
   fill="#81B524" />
    <path
   style="fill:#84b414;fill-opacity:1"
   id="path523"
   d="M524.244,29.295l-0.963,0c0.235,0,0.483-0.701,0.963-0.456L524.244,29.295L524.244,29.295z"
   fill="#81B524" />
    <path
   style="fill:#84b414;fill-opacity:1"
   id="path525"
   d="M494.774,29.295l0,0.497l-0.483-0.711C494.529,29.081,494.529,29.295,494.774,29.295L494.774,29.295   L494.774,29.295z"
   fill="#81B524" />
    <path
   style="fill:#84b414;fill-opacity:1"
   id="path527"
   d="M528.287,29.54c-0.695,1.184-2.379-0.459-2.862-0.459L528.287,29.54L528.287,29.54L528.287,29.54z"
   fill="#81B524" />
    <path
   style="fill:#84b414;fill-opacity:1"
   id="path529"
   d="M500.511,29.295c0,0.497-0.469,0.728-0.715,0.497C499.558,29.54,500.3,29.295,500.511,29.295L500.511,29.295   L500.511,29.295z"
   fill="#81B524" />
    <path
   style="fill:#84b414;fill-opacity:1"
   id="path531"
   d="M530.005,31.244l-2.413-0.255l0-0.476C528.535,30.275,529.257,30.989,530.005,31.244L530.005,31.244   L530.005,31.244z"
   fill="#81B524" />
    <polygon
   style="fill:#84b414;fill-opacity:1"
   id="polygon533"
   points="510.09,31.694 509.376,31.473 510.091,31.473 510.09,31.694  "
   fill="#81B524" />
    <path
   style="fill:#84b414;fill-opacity:1"
   id="path535"
   d="M527.593,31.935l-0.967,0c0.242-0.463,0.473-0.463,0.967-0.463L527.593,31.935L527.593,31.935z"
   fill="#81B524" />
    <path
   style="fill:#84b414;fill-opacity:1"
   id="path537"
   d="M531.911,31.473c-0.265,0.221-1.443,0.463-0.98,0L531.911,31.473L531.911,31.473L531.911,31.473z"
   fill="#81B524" />
    <polygon
   style="fill:#84b414;fill-opacity:1"
   id="polygon539"
   points="538.848,31.694 539.09,31.473 540.54,32.194 538.848,31.694  "
   fill="#81B524" />
    <path
   style="fill:#84b414;fill-opacity:1"
   id="path541"
   d="M546.031,34.106c-0.48,0.715-1.443-0.718-1.906,0.477l0.721,0.49c-0.721,0.211-2.156-2.878-2.868-0.49   l-0.731-0.245l0.235,0c-2.168-1.681-6.223-2.143-9.336-1.681c1.667-1.933,4.314-0.463,6.455,0   C541.247,32.656,543.642,33.388,546.031,34.106L546.031,34.106L546.031,34.106z"
   fill="#81B524" />
    <polygon
   style="fill:#84b414;fill-opacity:1"
   id="polygon543"
   points="535.493,33.388 534.789,33.14 535.493,33.14 535.493,33.388  "
   fill="#81B524" />
    <path
   style="fill:#84b414;fill-opacity:1"
   id="path545"
   d="M546.521,33.14c-0.253,0.248-0.001,0.248-0.001,0.248l-0.489-0.248L546.521,33.14L546.521,33.14L546.521,33.14   z"
   fill="#81B524" />
    <path
   style="fill:#84b414;fill-opacity:1"
   id="path547"
   d="M548.685,33.388c-0.255,0.235-0.49,0.466-0.256,0.949c0.256,0.735,0.722-0.483,0.722,0.245   c-0.722,0.49-2.385-0.477-3.121,0.49C546.031,34.106,547.949,33.623,548.685,33.388L548.685,33.388L548.685,33.388z"
   fill="#81B524" />
    <path
   style="fill:#84b414;fill-opacity:1"
   id="path549"
   d="M550.841,33.623c-0.265,0.483-1.211,0.483-1.446,0.231C549.631,33.14,550.345,33.388,550.841,33.623   L550.841,33.623L550.841,33.623z"
   fill="#81B524" />
    <path
   style="fill:#84b414;fill-opacity:1"
   id="path551"
   d="M551.308,34.82c-0.231,0.725-0.963,0-1.677,0.252l0.224-0.49C550.345,34.821,550.842,34.337,551.308,34.82   L551.308,34.82L551.308,34.82z"
   fill="#81B524" />
    <path
   style="fill:#84b414;fill-opacity:1"
   id="path553"
   d="M553.707,34.821c-0.718,0.463-0.95,0-1.66,0.252l0-0.49C552.485,34.821,553.204,34.583,553.707,34.821   L553.707,34.821L553.707,34.821z"
   fill="#81B524" />
    <path
   style="fill:#84b414;fill-opacity:1"
   id="path555"
   d="M540.28,38.175l-19.642-1.916l0.953,0l-2.634-1.439l0.265-0.238C526.14,36.26,533.577,36.998,540.28,38.175   L540.28,38.175L540.28,38.175z"
   fill="#81B524" />
    <path
   style="fill:#84b414;fill-opacity:1"
   id="path557"
   d="M555.619,35.072l-1.198-0.252C554.652,34.582,555.38,34.337,555.619,35.072L555.619,35.072L555.619,35.072z"
   fill="#81B524" />
    <polygon
   style="fill:#84b414;fill-opacity:1"
   id="polygon559"
   points="529.501,35.283 530.006,34.821 531.196,35.072 529.501,35.283  "
   fill="#81B524" />
    <polygon
   style="fill:#84b414;fill-opacity:1"
   id="polygon561"
   points="553.938,35.783 554.652,35.283 555.149,35.783 553.938,35.783  "
   fill="#81B524" />
    <path
   style="fill:#84b414;fill-opacity:1"
   id="path563"
   d="M560.43,35.783c-0.974,2.144-3.131-0.238-4.566,0C557.299,35.072,559.205,37.447,560.43,35.783L560.43,35.783   L560.43,35.783z"
   fill="#81B524" />
    <path
   style="fill:#84b414;fill-opacity:1"
   id="path565"
   d="M551.556,36.998c-0.479,0.231-0.248-0.738-0.248-1.215C552.046,36.018,551.557,36.726,551.556,36.998   L551.556,36.998L551.556,36.998z"
   fill="#81B524" />
    <polygon
   style="fill:#84b414;fill-opacity:1"
   id="polygon567"
   points="552.757,36.726 552.757,36.26 553.937,36.498 552.757,36.726  "
   fill="#81B524" />
    <path
   style="fill:#84b414;fill-opacity:1"
   id="path569"
   d="M562.819,36.998l-1.912-0.272C561.348,36.018,562.328,36.018,562.819,36.998L562.819,36.998L562.819,36.998z"
   fill="#81B524" />
    <polygon
   style="fill:#84b414;fill-opacity:1"
   id="polygon571"
   points="555.149,36.998 555.864,36.726 557.061,36.726 555.149,36.998  "
   fill="#81B524" />
    <polygon
   style="fill:#84b414;fill-opacity:1"
   id="polygon573"
   points="521.353,37.447 521.353,36.998 522.553,36.998 521.353,37.447  "
   fill="#81B524" />
    <polygon
   style="fill:#84b414;fill-opacity:1"
   id="polygon575"
   points="526.385,37.699 526.385,37.229 527.592,37.447 526.385,37.699  "
   fill="#81B524" />
    <path
   style="fill:#84b414;fill-opacity:1"
   id="path577"
   d="M560.429,37.699c-0.272,0.476-1.224,0.228-1.456-0.252C559.457,37.447,560.157,37.229,560.429,37.699   L560.429,37.699L560.429,37.699z"
   fill="#81B524" />
    <polygon
   style="fill:#84b414;fill-opacity:1"
   id="polygon579"
   points="562.09,38.175 561.348,37.699 562.09,37.699 562.09,38.175  "
   fill="#81B524" />
    <path
   style="fill:#84b414;fill-opacity:1"
   id="path581"
   d="M531.91,38.91l-2.409-0.486C530.223,36.998,530.931,38.91,531.91,38.91L531.91,38.91L531.91,38.91z"
   fill="#81B524" />
    <path
   style="fill:#84b414;fill-opacity:1"
   id="path583"
   d="M543.166,38.424c-0.258,0-1.188,1.205-1.442,0C542.206,37.927,542.69,38.424,543.166,38.424L543.166,38.424   L543.166,38.424z"
   fill="#81B524" />
    <path
   style="fill:#84b414;fill-opacity:1"
   id="path585"
   d="M537.402,39.628l-0.943,0l0.221-0.718C536.681,39.148,537.401,39.148,537.402,39.628L537.402,39.628   L537.402,39.628z"
   fill="#81B524" />
    <path
   style="fill:#84b414;fill-opacity:1"
   id="path587"
   d="M520.179,39.148c-0.742,0.48-1.453,0.48-2.167,0.228C518.726,38.91,519.437,39.148,520.179,39.148   L520.179,39.148L520.179,39.148z"
   fill="#81B524" />
    <path
   style="fill:#84b414;fill-opacity:1"
   id="path589"
   d="M563.05,39.839l-5.751-0.463c1.45-1.449,3.838,0.963,5.75,0L563.05,39.839L563.05,39.839z"
   fill="#81B524" />
    <path
   style="fill:#84b414;fill-opacity:1"
   id="path591"
   d="M540.539,40.094l-0.98,0l0.234-0.255l-0.945-0.69C539.559,39.148,540.54,39.376,540.539,40.094L540.539,40.094   L540.539,40.094z"
   fill="#81B524" />
    <path
   style="fill:#84b414;fill-opacity:1"
   id="path593"
   d="M539.09,40.823c-0.242,0-0.957-0.483-1.208,0.231l5.76,1.667c-2.395,0-5.76-0.946-7.417-2.15L539.09,40.823   L539.09,40.823L539.09,40.823z"
   fill="#81B524" />
    <path
   style="fill:#84b414;fill-opacity:1"
   id="path595"
   d="M546.269,43.218l-1.898,0l0-0.497C544.846,42.952,545.785,42.721,546.269,43.218L546.269,43.218   L546.269,43.218z"
   fill="#81B524" />
    <path
   style="fill:#84b414;fill-opacity:1"
   id="path597"
   d="M557.3,46.546l-5.253-0.446l0-0.5C554.421,45.845,555.149,46.317,557.3,46.546L557.3,46.546L557.3,46.546z"
   fill="#81B524" />
    <path
   style="fill:#84b414;fill-opacity:1"
   id="path599"
   d="M577.177,48.491c-0.715,3.106,3.12,5.736-0.463,8.367c-2.892,1.201-3.852,4.073-6.729,5.046   c0,1.674-1.444,2.157-2.859,2.385l-5.777-1.422c-2.858,2.644-5.967,5.032-8.863,7.414l0.271,0.491l-1.449,0.231   c0.969,1.188-1.453,1.913-1.913,2.872c-1.68-0.252-0.48,1.918-2.161,1.919c0.231,0.224,0.48,0.224,0.959,0.224   c-0.728,0.276-1.428,1.435-1.925,0.49c-1.205,0.735-0.484,2.64-2.628,1.694l0.001,0.459c-0.477-0.459-1.436,0-1.212,0.725   c-0.225,0.479,0.476,0.479,0.477,0.724c0.259-0.48,1.218-0.48,1.68-0.479l-2.865,3.341l-0.241-0.96   c-0.724-0.466-1.687,0.732-1.432,1.215c0.49,0.228,0.946,0,1.432,0l-1.687,1.671c-0.235-0.728-0.947-0.238-1.195,0l0.49,0.704   l-2.409,0.268c1.453,1.194-0.694,2.631-1.664,2.879c-0.473,0.218-0.745,0.708-0.955,0.925l0.482,0.487l-0.272-0.001l0,0.504   c-1.195,0-2.627,0.228-3.573,1.677l1.211,0.211l-1.442,0.487l0.728,0.479c-0.497,0-0.728,0.482-0.728,0.966   c-0.463,0-1.933,0.238-2.654,0.714c0,0.232,0.259,0.469,0.259,0.721l-0.48,0.476c-0.234-0.727-0.966-0.476-1.453-0.476l0.959,1.195   c-0.959,2.643-3.334-0.718-4.545,1.442c0.476,0.963,2.157-0.477,1.926,1.201c-0.964,0.228-1.198,1.912-2.416,1.177   c-0.711-1.177-2.841,1.943-4.052-0.463c-0.722,0-2.165,1.198-0.973,1.429c-0.457-0.965-1.667,0.494-2.389,0.736l0.483,0.946   l-2.164,1.446c1.443,0.491,1.933-0.962,2.879-1.446l0-1.187c0.482,1.421,1.442-0.262,1.925-0.494   c1.932,0.493,4.076-0.715,5.991-0.463l-0.735,0.232l0.487,0.462c-0.963,1.219-3.089-0.462-4.079,0.745   c0.269,0.221,0.467,0.473,0.466,0.704c-0.466,0-1.408-0.483-1.66-1.187l-1.661,1.422l0.929,0.249l-1.18,0.487   c0.251,0.711,1.443,0,2.163,0l0,0.218l1.685,0.259c-2.168,0.949-3.372,2.395-5.768,2.875l0.239-1.695   c-1.197-0.231-1.429,1.912-2.634,1.456c-0.946,0.691-2.872,2.389-4.314,1.443c0.477-0.251,1.442,0.001,1.191-0.752   c-0.714-0.691-1.433,0.269-2.379,0.501l0.001,0.463c-1.216-1.654-2.158,0.984-3.107,1.449c0.95,0.484,1.891-0.714,3.106-0.465   l-2.388,1.915c0.462-0.477-0.484-1.191-1.198-1.191c-0.969,0-1.697,0.452-2.146-0.259l-2.664,1.45c0.956,1.191,1.677-0.477,2.875,0   l-0.695,0.483l0.211,0.708l-0.469,0.237l-0.245-0.479c-0.966,0.48-2.14,0.963-3.13,1.678l0.99,0.969   c-2.167-0.735-4.31,1.665-6.243,2.624l-0.245-0.231c-0.96,2.626-3.811,1.68-5.008,4.086c-1.454-0.494-2.161,1.65-4.08,1.651   c-3.126,3.599-8.404,2.647-11.272,6.478c0.247,0,0.247,0.482,0,0.483c-2.63-0.483-4.794,3.103-7.907,3.335   c0.737-1.919,3.368-1.429,4.308-2.858c2.161-1.197,5.294-3.109,7.673-4.79c0.486,0,0.96-0.483,1.443-0.966   c-0.246-0.966-1.443-0.229-1.905,0.252l0.463-0.953c8.404-5.287,16.049-13.443,24.194-18.714l1.225-1.439   c-3.851,0.959-6.506,5.049-10.309,5.998c2.395-2.143,5.274-3.345,6.212-6.216l0.463,0.218l22.292-21.545l0.265,0.712l1.415-1.926   l0.483,0.483c-0.237-1.671,1.433-0.95,2.161-2.386c4.311-5.521,10.055-10.309,14.12-15.586l0.48,0c0,0.255-0.235,0.254-0.479,0.49   c2.392,0,3.593-4.314,6.24-3.832c2.627-2.395,5.274-4.791,8.153-6.236l-0.953-0.718c0.235-1.191,1.436-0.246,1.916-0.722   l-0.273-0.956c6.972-0.234,11.994-6.005,19.432-4.794C573.598,45.845,575.517,48.243,577.177,48.491L577.177,48.491L577.177,48.491   z"
   fill="#81B524" />
    <path
   style="fill:#84b414;fill-opacity:1"
   id="path601"
   d="M516.096,105.731c-0.249,0-0.964,0.735-0.964,0L516.096,105.731L516.096,105.731L516.096,105.731z"
   fill="#81B524" />
    <path
   style="fill:#84b414;fill-opacity:1"
   id="path603"
   d="M509.625,111.974l0.235,0.245l-2.879,1.43l-0.466-0.728c-1.214,0.96-2.644,0.728-3.842,1.711   c0.256,0.45,0.736,0.215,0.97,0.215c-2.186,0.714-3.342,1.912-5.524,2.634l1.677,0.224l-3.13,0.504c0,0.966-2.137,0-1.177,1.429   c1.178,0.252,2.63-0.714,3.818-0.715c-3.818,0.967-7.656,2.627-11.252,4.791l0.718,0.728c-0.95,0.701-1.416-0.258-2.613,0.218   c0.459,1.218-1.454,0.483-1.933,1.449c-0.943,0.484-1.93,1.681-3.359,0.966c3.838-0.731,6.005-4.78,10.062-5.525l6.954-5.042   l-0.228,0.503c1.902-0.251,3.576-2.378,5.017-3.599l0.255,0.469l4.311-3.576c1.654,0.95,2.62-0.482,4.049-0.745   c0-1.435,1.435,0,1.933-0.932C514.183,110.539,510.805,110.304,509.625,111.974L509.625,111.974L509.625,111.974z"
   fill="#81B524" />
    <polygon
   style="fill:#84b414;fill-opacity:1"
   id="polygon605"
   points="506.981,112.219 509.625,110.77 510.09,110.77 506.981,112.219  "
   fill="#81B524" />
    <path
   style="fill:#84b414;fill-opacity:1"
   id="path607"
   d="M502.673,111.743c0.487,1.426-0.964,0.477-1.442,1.426l-0.237-0.466   C501.96,112.92,501.709,111.974,502.673,111.743L502.673,111.743L502.673,111.743z"
   fill="#81B524" />
    <polygon
   style="fill:#84b414;fill-opacity:1"
   id="polygon609"
   points="508.427,112.219 508.427,111.974 508.893,111.974 508.892,112.22 508.427,112.219  "
   fill="#81B524" />
    <polygon
   style="fill:#84b414;fill-opacity:1"
   id="polygon611"
   points="501.457,114.131 500.783,113.649 501.457,113.648 501.457,114.131  "
   fill="#81B524" />
    <path
   style="fill:#84b414;fill-opacity:1"
   id="path613"
   d="M504.588,115.316c0,0.5-1.18,1.443-2.143,1.695C502.445,115.816,503.643,115.315,504.588,115.316   L504.588,115.316L504.588,115.316z"
   fill="#81B524" />
    <polygon
   style="fill:#84b414;fill-opacity:1"
   id="polygon615"
   points="494.775,117.225 494.291,117.011 494.774,117.01 494.775,117.225  "
   fill="#81B524" />
    <path
   style="fill:#84b414;fill-opacity:1"
   id="path617"
   d="M502.196,117.011c-0.487,0.694-1.202,1.197-1.897,1.197C500.3,117.479,501.457,117.225,502.196,117.011   L502.196,117.011L502.196,117.011z"
   fill="#81B524" />
    <path
   style="fill:#84b414;fill-opacity:1"
   id="path619"
   d="M496.448,121.318l-0.245,0c-0.456-0.484,0.722-0.483,0.946-1.191   C497.401,120.589,496.924,121.083,496.448,121.318L496.448,121.318L496.448,121.318z"
   fill="#81B524" />
    <path
   style="fill:#84b414;fill-opacity:1"
   id="path621"
   d="M495.747,121.801c-3.361,1.425-5.757,4.076-9.588,5.273C489.732,125.877,491.896,122.512,495.747,121.801   L495.747,121.801L495.747,121.801z"
   fill="#81B524" />
    <polygon
   style="fill:#84b414;fill-opacity:1"
   id="polygon623"
   points="485.196,127.789 484.955,127.544 485.197,127.544 485.196,127.789  "
   fill="#81B524" />
    <path
   style="fill:#84b414;fill-opacity:1"
   id="path625"
   d="M479.671,128.735l0.483,0.476c-0.714,0.743-2.399,0-2.878,1.212c-0.232-2.15,2.164-1.688,3.593-2.879   L479.671,128.735L479.671,128.735z"
   fill="#81B524" />
    <path
   style="fill:#84b414;fill-opacity:1"
   id="path627"
   d="M479.906,130.668l3.84-2.395C483.747,129.953,481.097,130.185,479.906,130.668L479.906,130.668   L479.906,130.668z"
   fill="#81B524" />
    <polygon
   style="fill:#84b414;fill-opacity:1"
   id="polygon629"
   points="473.199,129.47 473.676,128.735 474.162,128.735 473.199,129.47  "
   fill="#81B524" />
    <path
   style="fill:#84b414;fill-opacity:1"
   id="path631"
   d="M473.914,132.58c-2.126,0.232-3.591,3.348-5.49,2.402l0-0.741l0.478,0l-0.242,0.265   c0.482,0.218,1.662,0,1.433-0.728c0.714,0.463,1.907-0.966,2.41-1.198l-0.503,0c0.237-0.715,1.452-0.483,1.915-0.715l2.651-1.912   C477.044,131.865,473.914,130.423,473.914,132.58L473.914,132.58L473.914,132.58z"
   fill="#81B524" />
    <path
   style="fill:#84b414;fill-opacity:1"
   id="path633"
   d="M479.439,131.382L479.439,131.382l-0.486-0.476C479.208,130.906,479.439,131.13,479.439,131.382   L479.439,131.382L479.439,131.382z"
   fill="#81B524" />
    <path
   style="fill:#84b414;fill-opacity:1"
   id="path635"
   d="M478.708,131.865c0.244,0.456-0.47,0.232-0.953,0.232l0.711-0.715L478.708,131.865L478.708,131.865   L478.708,131.865z"
   fill="#81B524" />
    <path
   style="fill:#84b414;fill-opacity:1"
   id="path637"
   d="M477.276,132.58c0,0.231-0.231,0.476-0.231,0.476l0-0.476L477.276,132.58L477.276,132.58L477.276,132.58z"
   fill="#81B524" />
    <path
   style="fill:#84b414;fill-opacity:1"
   id="path639"
   d="M476.323,133.056l-0.244,0.477l-0.238-0.477C475.84,133.056,476.323,132.811,476.323,133.056L476.323,133.056   L476.323,133.056z"
   fill="#81B524" />
    <polygon
   style="fill:#84b414;fill-opacity:1"
   id="polygon641"
   points="461.937,135.458 462.175,134.505 462.9,134.505 461.937,135.458  "
   fill="#81B524" />
    <path
   style="fill:#84b414;fill-opacity:1"
   id="path643"
   d="M468.424,135.689l0,0.477c-1.447-0.708-3.126,1.456-4.323,1.667l1.197-1.408c0.001-0.259-0.483,0-0.236-0.259   l1.433,0l-0.714-0.476l0.232-0.001C466.268,137.119,467.692,134.723,468.424,135.689L468.424,135.689L468.424,135.689z"
   fill="#81B524" />
    <polygon
   style="fill:#84b414;fill-opacity:1"
   id="polygon645"
   points="464.101,136.901 464.32,136.424 464.586,136.425 464.101,136.901  "
   fill="#81B524" />
    <polygon
   style="fill:#84b414;fill-opacity:1"
   id="polygon647"
   points="461.457,139.065 463.637,138.085 461.457,139.535 461.457,139.065  "
   fill="#81B524" />
    <path
   style="fill:#84b414;fill-opacity:1"
   id="path649"
   d="M460.736,140.242c-0.466,0-0.942,0.232-1.424,0.232l1.194-1.198   C460.736,139.535,460.736,140.018,460.736,140.242L460.736,140.242L460.736,140.242z"
   fill="#81B524" />
    <path
   style="fill:#84b414;fill-opacity:1"
   id="path651"
   d="M458.828,140.242l-0.483,0l0.248-0.476C459.064,139.534,458.828,140.017,458.828,140.242L458.828,140.242   L458.828,140.242z"
   fill="#81B524" />
    <path
   style="fill:#84b414;fill-opacity:1"
   id="path653"
   d="M457.145,141.195l-0.494,0l0.266-0.722C457.145,140.473,457.144,140.963,457.145,141.195L457.145,141.195   L457.145,141.195z"
   fill="#81B524" />
    <polygon
   style="fill:#84b414;fill-opacity:1"
   id="polygon655"
   points="339.273,50.152 339.512,49.92 340.237,50.152 339.273,50.152  "
   fill="#81B524" />
    <path
   style="fill:#84b414;fill-opacity:1"
   id="path657"
   d="M322.493,53.037c-0.485,0.47-2.379-0.486-3.345-1.204l-0.253-0.729   C320.115,51.104,321.541,51.832,322.493,53.037L322.493,53.037L322.493,53.037z"
   fill="#81B524" />
    <polygon
   style="fill:#84b414;fill-opacity:1"
   id="polygon659"
   points="342.62,51.833 342.87,51.598 345.495,53.037 345.242,53.266 342.62,51.833  "
   fill="#81B524" />
    <path
   style="fill:#84b414;fill-opacity:1"
   id="path661"
   d="M485.428,57.345c0,0.476-0.956,0.232-1.201,0.231C483.747,57.093,484.955,56.858,485.428,57.345   L485.428,57.345L485.428,57.345z"
   fill="#81B524" />
    <path
   style="fill:#84b414;fill-opacity:1"
   id="path663"
   d="M476.323,58.301c-0.001,0.235-0.245,0.235-0.483,0.486l-0.231-0.251l0.231-0.715l1.671,0.479L476.323,58.301   L476.323,58.301L476.323,58.301z"
   fill="#81B524" />
    <path
   style="fill:#84b414;fill-opacity:1"
   id="path665"
   d="M474.163,58.301l-0.248,0.235l-0.463-0.477C473.913,57.821,473.914,58.059,474.163,58.301L474.163,58.301   L474.163,58.301z"
   fill="#81B524" />
    <polygon
   style="fill:#84b414;fill-opacity:1"
   id="polygon667"
   points="478.708,58.301 477.755,58.059 478.466,58.059 478.708,58.301  "
   fill="#81B524" />
    <polygon
   style="fill:#84b414;fill-opacity:1"
   id="polygon669"
   points="471.524,58.301 471.524,58.059 472.716,58.301 472.717,58.536 471.524,58.301  "
   fill="#81B524" />
    <path
   style="fill:#84b414;fill-opacity:1"
   id="path671"
   d="M469.142,58.536c0,0.734-1.192,0.734-1.934,0.734C467.693,58.536,468.424,58.301,469.142,58.536   L469.142,58.536L469.142,58.536z"
   fill="#81B524" />
    <path
   style="fill:#84b414;fill-opacity:1"
   id="path673"
   d="M466.728,59.022c-0.231,0.715-0.946,0.001-1.199-0.234C466.013,58.787,466.496,58.788,466.728,59.022   L466.728,59.022L466.728,59.022z"
   fill="#81B524" />
    <path
   style="fill:#84b414;fill-opacity:1"
   id="path675"
   d="M454.284,59.737l-0.732,0c-0.228-0.467,0.249-0.466,0.732-0.467L454.284,59.737L454.284,59.737z"
   fill="#81B524" />
    <path
   style="fill:#84b414;fill-opacity:1"
   id="path677"
   d="M462.175,59.489l0,0.248l-0.953-0.466C461.71,59.27,461.937,59.737,462.175,59.489L462.175,59.489   L462.175,59.489z"
   fill="#81B524" />
    <path
   style="fill:#84b414;fill-opacity:1"
   id="path679"
   d="M453.074,59.736l-2.629,0.718C450.929,59.991,452.14,59.022,453.074,59.736L453.074,59.736L453.074,59.736z"
   fill="#81B524" />
    <path
   style="fill:#84b414;fill-opacity:1"
   id="path681"
   d="M458.828,59.737c0,0,0,0.255-0.235,0.254l-0.249,0l0-0.503C458.593,59.488,458.828,59.488,458.828,59.737   L458.828,59.737L458.828,59.737z"
   fill="#81B524" />
    <polygon
   style="fill:#84b414;fill-opacity:1"
   id="polygon683"
   points="460.993,59.737 459.793,59.488 460.736,59.488 460.993,59.737  "
   fill="#81B524" />
    <path
   style="fill:#84b414;fill-opacity:1"
   id="path685"
   d="M448.513,60.7l-0.717,0.001c0-0.246,0.256-0.708,0.717-0.483L448.513,60.7L448.513,60.7z"
   fill="#81B524" />
    <path
   style="fill:#84b414;fill-opacity:1"
   id="path687"
   d="M448.052,61.652c-0.256-1.436-1.918-0.238-3.114-0.721C445.167,60.7,448.284,59.992,448.052,61.652   L448.052,61.652L448.052,61.652z"
   fill="#81B524" />
    <path
   style="fill:#84b414;fill-opacity:1"
   id="path689"
   d="M455.001,60.454c-1.201,1.45-3.838,0.477-5.524,0.96C450.446,59.991,453.324,61.183,455.001,60.454   L455.001,60.454L455.001,60.454z"
   fill="#81B524" />
    <polygon
   style="fill:#84b414;fill-opacity:1"
   id="polygon691"
   points="436.79,61.904 442.297,60.932 444.224,60.932 436.79,61.904  "
   fill="#81B524" />
    <polygon
   style="fill:#84b414;fill-opacity:1"
   id="polygon693"
   points="435.589,62.373 435.589,61.653 436.324,61.652 435.589,62.373  "
   fill="#81B524" />
    <path
   style="fill:#84b414;fill-opacity:1"
   id="path695"
   d="M444.707,61.904c-0.24,0.231-1.703,0.962-2.411,0.231c-3.115,1.926-7.187,0.48-10.544,1.926   C435.589,62.373,440.149,62.373,444.707,61.904L444.707,61.904L444.707,61.904z"
   fill="#81B524" />
    <polygon
   style="fill:#84b414;fill-opacity:1"
   id="polygon697"
   points="430.065,62.867 432.465,62.373 433.904,62.374 430.065,62.867  "
   fill="#81B524" />
    <path
   style="fill:#84b414;fill-opacity:1"
   id="path699"
   d="M421.203,63.095c0,0.483-1.415,0.482-1.181,0L421.203,63.095L421.203,63.095L421.203,63.095z"
   fill="#81B524" />
    <path
   style="fill:#84b414;fill-opacity:1"
   id="path701"
   d="M430.798,63.577c-0.478,0.484-1.432,0.484-1.91,0.711l0-0.711C429.365,63.578,430.32,63.578,430.798,63.577   L430.798,63.577L430.798,63.577z"
   fill="#81B524" />
    <path
   style="fill:#84b414;fill-opacity:1"
   id="path703"
   d="M427.92,64.289l-4.061,0.97C424.565,65.014,426.257,63.578,427.92,64.289L427.92,64.289L427.92,64.289z"
   fill="#81B524" />
    <path
   style="fill:#84b414;fill-opacity:1"
   id="path705"
   d="M445.652,65.258c0,0.446-0.228,0.446-0.485,0.714l-0.228-0.715L445.652,65.258L445.652,65.258L445.652,65.258z   "
   fill="#81B524" />
    <path
   style="fill:#84b414;fill-opacity:1"
   id="path707"
   d="M438.696,65.705c-0.466-0.001-0.96,0.503-1.66,0.268C437.268,65.259,438.231,65.511,438.696,65.705   L438.696,65.705L438.696,65.705z"
   fill="#81B524" />
    <path
   style="fill:#84b414;fill-opacity:1"
   id="path709"
   d="M441.579,65.973c-0.001,0.235-1.212,0.469-1.914,0.47C440.149,65.974,440.863,65.705,441.579,65.973   L441.579,65.973L441.579,65.973z"
   fill="#81B524" />
    <path
   style="fill:#84b414;fill-opacity:1"
   id="path711"
   d="M443.004,65.973c0,0.235-0.466,0.234-0.941,0.235C442.063,65.511,442.775,65.973,443.004,65.973   L443.004,65.973L443.004,65.973z"
   fill="#81B524" />
    <path
   style="fill:#84b414;fill-opacity:1"
   id="path713"
   d="M445.652,66.443c-0.945,0-1.922,0.483-2.877,0.252C443.507,66.208,444.707,66.443,445.652,66.443   L445.652,66.443L445.652,66.443z"
   fill="#81B524" />
    <path
   style="fill:#84b414;fill-opacity:1"
   id="path715"
   d="M428.887,67.158c-0.485,0.494-1.682,0.493-2.399,0.742C426.727,66.926,428.173,67.422,428.887,67.158   L428.887,67.158L428.887,67.158z"
   fill="#81B524" />
    <path
   style="fill:#84b414;fill-opacity:1"
   id="path717"
   d="M399.179,68.352c-4.544,2.419-10.311,1.929-15.34,3.372C388.164,69.322,394.147,70.049,399.179,68.352   L399.179,68.352L399.179,68.352z"
   fill="#81B524" />
    <polygon
   style="fill:#84b414;fill-opacity:1"
   id="polygon719"
   points="408.507,69.322 407.328,68.855 408.275,69.321 408.507,69.322  "
   fill="#81B524" />
    <path
   style="fill:#84b414;fill-opacity:1"
   id="path721"
   d="M380.962,72.19c-0.485,0.724-1.199,0.489-1.676,0.49l1.192-1.205L380.962,72.19L380.962,72.19L380.962,72.19z"
   fill="#81B524" />
    <path
   style="fill:#84b414;fill-opacity:1"
   id="path723"
   d="M371.862,73.874c1.431-1.195,4.529-1.195,6.47-1.429L371.862,73.874L371.862,73.874L371.862,73.874z"
   fill="#81B524" />
    <path
   style="fill:#84b414;fill-opacity:1"
   id="path725"
   d="M369.945,73.874c0.001,0.715-0.96,0.49-1.442,0.49C368.735,73.874,369.462,73.874,369.945,73.874   L369.945,73.874L369.945,73.874z"
   fill="#81B524" />
    <polygon
   style="fill:#84b414;fill-opacity:1"
   id="polygon727"
   points="344.782,77.243 345.015,76.759 346.001,76.984 344.782,77.243  "
   fill="#81B524" />
    <polygon
   style="fill:#84b414;fill-opacity:1"
   id="polygon729"
   points="346.443,78.202 346.443,77.712 347.432,77.712 346.443,78.202  "
   fill="#81B524" />
    <polygon
   style="fill:#84b414;fill-opacity:1"
   id="polygon731"
   points="340.473,78.202 340.473,77.712 341.421,77.936 340.473,78.202  "
   fill="#81B524" />
    <path
   style="fill:#84b414;fill-opacity:1"
   id="path733"
   d="M346,78.202l-0.758,0.211l-0.226-0.476C345.495,77.936,345.726,77.712,346,78.202L346,78.202L346,78.202z"
   fill="#81B524" />
    <path
   style="fill:#84b414;fill-opacity:1"
   id="path735"
   d="M344.533,78.412l-1.912,0.504C343.098,78.916,343.579,77.937,344.533,78.412L344.533,78.412L344.533,78.412z"
   fill="#81B524" />
    <path
   style="fill:#84b414;fill-opacity:1"
   id="path737"
   d="M340.705,79.63l0.716,0c-0.47,0.48-1.184,0.967-2.149,0.717L340.705,79.63c-0.231-0.245-0.468,0-0.468,0   c0.236-0.714,1.421-0.245,1.917-0.97L340.705,79.63L340.705,79.63z"
   fill="#81B524" />
    <path
   style="fill:#84b414;fill-opacity:1"
   id="path739"
   d="M337.846,79.147c0.235,0.238,0.236,0.483,0.235,0.963l0.943,0.238c-1.428,1.664-2.399-0.963-3.359,0.963   c0-0.715-0.232-1.681,0.731-1.926l-3.61,0.479c1.22-0.948,2.881-0.949,4.097-0.235C336.882,78.917,337.595,79.386,337.846,79.147   L337.846,79.147L337.846,79.147z"
   fill="#81B524" />
    <path
   style="fill:#84b414;fill-opacity:1"
   id="path741"
   d="M347.663,78.916c0.244,0.715-0.488,0.469-0.716,0.714l0-0.714L347.663,78.916L347.663,78.916L347.663,78.916z"
   fill="#81B524" />
    <path
   style="fill:#84b414;fill-opacity:1"
   id="path743"
   d="M210.362,79.63l-1.905,0l0-0.483C209.173,78.916,209.642,79.386,210.362,79.63L210.362,79.63L210.362,79.63z"
   fill="#81B524" />
    <path
   style="fill:#84b414;fill-opacity:1"
   id="path745"
   d="M341.9,80.825c0.72-0.715,2.882-1.439,4.542-1.195L341.9,80.825L341.9,80.825L341.9,80.825z"
   fill="#81B524" />
    <polygon
   style="fill:#84b414;fill-opacity:1"
   id="polygon747"
   points="330.407,80.111 331.125,79.865 331.852,79.866 330.407,80.111  "
   fill="#81B524" />
    <path
   style="fill:#84b414;fill-opacity:1"
   id="path749"
   d="M333.52,81.06l0.001,1.222l4.561-0.969c-1.915,0.701-4.328,1.432-6.474,2.143l1.66-1.174   c-0.226-0.269-0.481,0-0.709-0.269c0,0,0.709-0.466,0.71-0.701l-4.789,1.184C330.157,82.012,332.09,79.148,333.52,81.06   L333.52,81.06L333.52,81.06z"
   fill="#81B524" />
    <path
   style="fill:#84b414;fill-opacity:1"
   id="path751"
   d="M330.407,80.826c-0.251,0.721-2.176,0.486-3.112,0.952C328.014,79.865,329.691,81.778,330.407,80.826   L330.407,80.826L330.407,80.826z"
   fill="#81B524" />
    <polygon
   style="fill:#84b414;fill-opacity:1"
   id="polygon753"
   points="326.797,80.825 327.067,81.059 326.584,81.546 326.584,81.312 326.797,80.825  "
   fill="#81B524" />
    <path
   style="fill:#84b414;fill-opacity:1"
   id="path755"
   d="M336.166,83.938c2.858-0.967,6.454-2.161,9.835-2.16L336.166,83.938L336.166,83.938L336.166,83.938z"
   fill="#81B524" />
    <polygon
   style="fill:#84b414;fill-opacity:1"
   id="polygon757"
   points="339.272,84.425 349.326,82.013 349.821,82.012 339.272,84.425  "
   fill="#81B524" />
    <polygon
   style="fill:#84b414;fill-opacity:1"
   id="polygon759"
   points="324.168,82.012 324.402,82.282 323.704,82.496 323.459,82.495 324.168,82.012  "
   fill="#81B524" />
    <polygon
   style="fill:#84b414;fill-opacity:1"
   id="polygon761"
   points="320.115,82.744 320.582,82.496 320.115,82.744  "
   fill="#81B524" />
    <path
   style="fill:#84b414;fill-opacity:1"
   id="path763"
   d="M315.803,84.169l-0.25,0l1.178-0.942C316.971,83.938,316.273,84.169,315.803,84.169L315.803,84.169   L315.803,84.169z"
   fill="#81B524" />
    <path
   style="fill:#84b414;fill-opacity:1"
   id="path765"
   d="M226.409,84.425l-2.147-0.97C225.231,83.455,226.178,83.69,226.409,84.425L226.409,84.425L226.409,84.425z"
   fill="#81B524" />
    <polygon
   style="fill:#84b414;fill-opacity:1"
   id="polygon767"
   points="349.576,84.66 351.967,83.938 351.002,84.425 349.576,84.66  "
   fill="#81B524" />
    <polygon
   style="fill:#84b414;fill-opacity:1"
   id="polygon769"
   points="227.608,84.425 226.894,83.939 227.607,83.939 227.608,84.425  "
   fill="#81B524" />
    <polygon
   style="fill:#84b414;fill-opacity:1"
   id="polygon771"
   points="330.408,85.116 330.638,85.116 329.924,85.603 329.69,85.602 330.408,85.116  "
   fill="#81B524" />
    <path
   style="fill:#84b414;fill-opacity:1"
   id="path773"
   d="M353.884,85.116c-0.718,0.486-1.203,0.98-2.154,0.755C352.213,85.602,353.166,85.115,353.884,85.116   L353.884,85.116L353.884,85.116z"
   fill="#81B524" />
    <polygon
   style="fill:#84b414;fill-opacity:1"
   id="polygon775"
   points="334.949,85.871 335.189,85.602 335.432,85.602 334.949,85.871  "
   fill="#81B524" />
    <path
   style="fill:#84b414;fill-opacity:1"
   id="path777"
   d="M351.252,85.602c-2.881,1.694-7.438,1.694-11.015,2.898l0,0.467c-2.874,0.49-7.197,1.442-8.861,1.697   C337.595,88.967,344.533,86.568,351.252,85.602L351.252,85.602L351.252,85.602z"
   fill="#81B524" />
    <path
   style="fill:#84b414;fill-opacity:1"
   id="path779"
   d="M318.427,87.296l-0.708,0C317.719,86.827,318.182,87.065,318.427,87.296L318.427,87.296L318.427,87.296z"
   fill="#81B524" />
    <polygon
   style="fill:#84b414;fill-opacity:1"
   id="polygon781"
   points="327.296,89.934 333.753,87.549 334.48,88.001 327.296,89.934  "
   fill="#81B524" />
    <path
   style="fill:#84b414;fill-opacity:1"
   id="path783"
   d="M341.901,89.457c-1.197,0.218-0.712,1.436-2.389,1.207C339.991,89.458,340.951,89.933,341.901,89.457   L341.901,89.457L341.901,89.457z"
   fill="#81B524" />
    <path
   style="fill:#84b414;fill-opacity:1"
   id="path785"
   d="M333.52,92.553l0.234-0.707l-0.968-0.239c1.934-0.476,3.839-0.231,5.777-0.942L333.52,92.553L333.52,92.553z"
   fill="#81B524" />
    <polygon
   style="fill:#84b414;fill-opacity:1"
   id="polygon787"
   points="251.096,91.376 250.144,90.893 250.863,90.893 251.096,91.376  "
   fill="#81B524" />
    <polygon
   style="fill:#84b414;fill-opacity:1"
   id="polygon789"
   points="296.139,92.071 296.379,92.071 296.379,91.846 296.14,91.846 296.139,92.071  "
   fill="#81B524" />
    <path
   style="fill:#84b414;fill-opacity:1"
   id="path791"
   d="M333.267,92.343c-0.226,0.211-0.947,0.21-1.415,0.469C332.09,92.342,332.558,92.071,333.267,92.343   L333.267,92.343L333.267,92.343z"
   fill="#81B524" />
    <polygon
   style="fill:#84b414;fill-opacity:1"
   id="polygon793"
   points="321.064,94.237 321.063,94.002 322.493,94.238 321.064,94.237  "
   fill="#81B524" />
    <path
   style="fill:#84b414;fill-opacity:1"
   id="path795"
   d="M316.731,95.922c0.487-0.949,1.931-0.252,2.417-1.436l0.483,0.486L316.731,95.922L316.731,95.922   L316.731,95.922z"
   fill="#81B524" />
    <path
   style="fill:#84b414;fill-opacity:1"
   id="path797"
   d="M246.767,103.584c5.521-1.912,8.887-3.825,14.389-5.026C257.1,100.474,251.812,102.397,246.767,103.584   L246.767,103.584L246.767,103.584z"
   fill="#81B524" />
    <path
   style="fill:#84b414;fill-opacity:1"
   id="path799"
   d="M222.583,110.304c-0.484,0.466-1.433,0.466-1.914,0.725C220.889,110.538,221.871,110.539,222.583,110.304   L222.583,110.304L222.583,110.304z"
   fill="#81B524" />
    <path
   style="fill:#84b414;fill-opacity:1"
   id="path801"
   d="M219.955,111.029c-0.501,0.224-0.952,0.946-1.446,0.714C218.509,111.481,219.453,110.77,219.955,111.029   L219.955,111.029L219.955,111.029z"
   fill="#81B524" />
    <path
   style="fill:#84b414;fill-opacity:1"
   id="path803"
   d="M261.87,114.132c-0.951-0.722-0.951,0.231-1.655,0c-0.971,0.949-2.634,1.684-4.813,1.684   c-0.485,0.001-1.178-0.255-0.951-0.97c2.649-0.483,4.792-1.678,7.671-2.626C263.079,112.451,261.87,113.649,261.87,114.132   L261.87,114.132L261.87,114.132z"
   fill="#81B524" />
    <polygon
   style="fill:#84b414;fill-opacity:1"
   id="polygon805"
   points="233.616,113.169 233.616,113.411 233.13,113.648 232.877,113.41 233.616,113.169  "
   fill="#81B524" />
    <path
   style="fill:#84b414;fill-opacity:1"
   id="path807"
   d="M204.851,116.506l-0.248,0l0.733-0.947C205.337,115.816,205.573,116.506,204.851,116.506L204.851,116.506   L204.851,116.506z"
   fill="#81B524" />
    <polygon
   style="fill:#84b414;fill-opacity:1"
   id="polygon809"
   points="202.701,117.225 203.192,116.759 203.413,116.758 202.701,117.225  "
   fill="#81B524" />
    <path
   style="fill:#84b414;fill-opacity:1"
   id="path811"
   d="M202.218,117.01c0.242,0.47-0.49,0.47-0.723,0.695C201.496,117.225,201.728,117.01,202.218,117.01   L202.218,117.01L202.218,117.01z"
   fill="#81B524" />
    <path
   style="fill:#84b414;fill-opacity:1"
   id="path813"
   d="M199.829,118.208c0,0.231-0.965,0.231-0.73-0.249C199.351,117.96,199.829,117.704,199.829,118.208   L199.829,118.208L199.829,118.208z"
   fill="#81B524" />
    <path
   style="fill:#84b414;fill-opacity:1"
   id="path815"
   d="M197.671,118.923c0,0.476-0.484,0.252-0.96,0.251C196.711,118.694,197.439,118.923,197.671,118.923   L197.671,118.923L197.671,118.923z"
   fill="#81B524" />
    <polygon
   style="fill:#84b414;fill-opacity:1"
   id="polygon817"
   points="195.521,119.637 195.521,119.637 192.637,120.834 195.521,119.637  "
   fill="#81B524" />
    <path
   style="fill:#84b414;fill-opacity:1"
   id="path819"
   d="M243.425,120.127c-0.228,0-0.481,0.463-0.713,0.218l0-0.457C242.943,119.888,243.197,119.637,243.425,120.127   L243.425,120.127L243.425,120.127z"
   fill="#81B524" />
    <polygon
   style="fill:#84b414;fill-opacity:1"
   id="polygon821"
   points="241.026,121.318 240.8,120.589 241.513,120.589 241.026,121.318  "
   fill="#81B524" />
    <path
   style="fill:#84b414;fill-opacity:1"
   id="path823"
   d="M190.725,121.317c0.461,0.483-0.49,0.231-0.977,0.484C189.52,121.317,190.493,121.317,190.725,121.317   L190.725,121.317L190.725,121.317z"
   fill="#81B524" />
    <path
   style="fill:#84b414;fill-opacity:1"
   id="path825"
   d="M188.555,122.294c0,0.218-0.238,0.218-0.487,0.217l0.487-0.71C188.79,121.801,188.79,122.295,188.555,122.294   L188.555,122.294L188.555,122.294z"
   fill="#81B524" />
    <path
   style="fill:#84b414;fill-opacity:1"
   id="path827"
   d="M187.358,122.512c0,0.487-1.431,0.715-1.2-0.217L187.358,122.512L187.358,122.512L187.358,122.512z"
   fill="#81B524" />
    <polygon
   style="fill:#84b414;fill-opacity:1"
   id="polygon829"
   points="185.21,123.226 184.247,122.746 184.971,122.746 185.21,123.226  "
   fill="#81B524" />
    <polygon
   style="fill:#84b414;fill-opacity:1"
   id="polygon831"
   points="185.697,123.227 185.435,122.999 186.159,122.999 185.697,123.227  "
   fill="#81B524" />
    <path
   style="fill:#84b414;fill-opacity:1"
   id="path833"
   d="M180.903,124.659c0,0.483-0.741,0.738-1.45,0.482C179.687,124.924,180.418,124.924,180.903,124.659   L180.903,124.659L180.903,124.659z"
   fill="#81B524" />
    <path
   style="fill:#84b414;fill-opacity:1"
   id="path835"
   d="M176.824,126.343c0.483,0.248-0.247,0.248-0.247,0.493l-0.24-0.493L176.824,126.343L176.824,126.343   L176.824,126.343z"
   fill="#81B524" />
    <polygon
   style="fill:#84b414;fill-opacity:1"
   id="polygon837"
   points="173.226,127.544 173.225,127.074 174.432,127.33 173.226,127.544  "
   fill="#81B524" />
    <path
   style="fill:#84b414;fill-opacity:1"
   id="path839"
   d="M168.925,128.98c0.214,0.491-0.247,0.231-0.494,0.722C167.963,129.47,168.678,128.735,168.925,128.98   L168.925,128.98L168.925,128.98z"
   fill="#81B524" />
    <path
   style="fill:#84b414;fill-opacity:1"
   id="path841"
   d="M166.27,130.668l-0.484,0l0.26-0.483C166.269,130.423,166.27,130.668,166.27,130.668L166.27,130.668   L166.27,130.668z"
   fill="#81B524" />
    <polygon
   style="fill:#84b414;fill-opacity:1"
   id="polygon843"
   points="164.367,131.383 164.368,130.668 164.847,130.668 164.367,131.383  "
   fill="#81B524" />
    <polygon
   style="fill:#84b414;fill-opacity:1"
   id="polygon845"
   points="160.773,132.58 159.812,131.865 160.286,132.097 160.773,132.58  "
   fill="#81B524" />
    <path
   style="fill:#84b414;fill-opacity:1"
   id="path847"
   d="M157.896,133.778l-0.716,0l0.235-0.721C157.665,133.056,157.664,133.533,157.896,133.778L157.896,133.778   L157.896,133.778z"
   fill="#81B524" />
    <path
   style="fill:#84b414;fill-opacity:1"
   id="path849"
   d="M373.762,137.39l0-1.932C374.008,135.689,374.007,136.656,373.762,137.39L373.762,137.39L373.762,137.39z"
   fill="#81B524" />
    <path
   style="fill:#84b414;fill-opacity:1"
   id="path851"
   d="M143.283,139.534l-0.477,0c0.001-0.259,0.256-0.469,0.476-0.258L143.283,139.534L143.283,139.534z"
   fill="#81B524" />
    <path
   style="fill:#84b414;fill-opacity:1"
   id="path853"
   d="M330.407,150.545l0,0.477l-0.717-0.96C330.157,149.83,330.407,150.314,330.407,150.545L330.407,150.545   L330.407,150.545z"
   fill="#81B524" />
    <path
   style="fill:#84b414;fill-opacity:1"
   id="path855"
   d="M338.082,155.084l-0.001,0.49c-0.235-0.218-1.199,0-0.718-0.721   C337.595,154.853,337.847,154.853,338.082,155.084L338.082,155.084L338.082,155.084z"
   fill="#81B524" />
    <path
   style="fill:#84b414;fill-opacity:1"
   id="path857"
   d="M252.771,157.251l-1.909-1.419C251.594,156.281,252.525,156.281,252.771,157.251L252.771,157.251   L252.771,157.251z"
   fill="#81B524" />
    <polygon
   style="fill:#84b414;fill-opacity:1"
   id="polygon859"
   points="338.787,156.547 338.312,155.832 338.563,155.832 338.787,156.547  "
   fill="#81B524" />
    <path
   style="fill:#84b414;fill-opacity:1"
   id="path861"
   d="M339.024,159.896l-0.712-1.219C339.024,158.678,338.787,159.413,339.024,159.896L339.024,159.896   L339.024,159.896z"
   fill="#81B524" />
    <polygon
   style="fill:#84b414;fill-opacity:1"
   id="polygon863"
   points="260.215,162.755 260.448,162.755 265.696,166.844 265.696,167.103 260.215,162.755  "
   fill="#81B524" />
    <path
   style="fill:#84b414;fill-opacity:1"
   id="path865"
   d="M198.38,164.933l0,0.483c-0.246-0.262-1.192-0.263-0.486-0.729   C197.894,164.932,198.134,164.932,198.38,164.933L198.38,164.933L198.38,164.933z"
   fill="#81B524" />
    <polygon
   style="fill:#84b414;fill-opacity:1"
   id="polygon867"
   points="179.939,165.153 178.738,164.932 179.687,165.153 179.939,165.153  "
   fill="#81B524" />
    <path
   style="fill:#84b414;fill-opacity:1"
   id="path869"
   d="M187.842,165.153c-0.485,0.711-1.684,0.262-2.145,0C185.697,164.932,187.118,164.687,187.842,165.153   L187.842,165.153L187.842,165.153z"
   fill="#81B524" />
    <polygon
   style="fill:#84b414;fill-opacity:1"
   id="polygon871"
   points="181.145,165.415 180.662,165.153 181.145,165.153 181.145,165.415  "
   fill="#81B524" />
    <path
   style="fill:#84b414;fill-opacity:1"
   id="path873"
   d="M184.498,165.153l-1.432,0.262l0-0.262C183.528,164.932,184.017,165.415,184.498,165.153L184.498,165.153   L184.498,165.153z"
   fill="#81B524" />
    <path
   style="fill:#84b414;fill-opacity:1"
   id="path875"
   d="M175.148,165.153c-0.717,0.263-1.922,0.977-2.639,0.712C172.744,165.153,174.432,165.864,175.148,165.153   L175.148,165.153L175.148,165.153z"
   fill="#81B524" />
    <path
   style="fill:#84b414;fill-opacity:1"
   id="path877"
   d="M377.14,166.351l-0.258,0l-0.491-0.487C376.638,165.633,376.883,166.13,377.14,166.351L377.14,166.351   L377.14,166.351z"
   fill="#81B524" />
    <polygon
   style="fill:#84b414;fill-opacity:1"
   id="polygon879"
   points="383.353,166.35 382.395,166.129 383.124,166.13 383.353,166.35  "
   fill="#81B524" />
    <polygon
   style="fill:#84b414;fill-opacity:1"
   id="polygon881"
   points="268.356,168.76 266.179,167.103 268.357,168.273 268.356,168.76  "
   fill="#81B524" />
    <path
   style="fill:#84b414;fill-opacity:1"
   id="path883"
   d="M413.302,169.957l-0.713,0.704l0.226,0.235l0.486-0.235c2.642,1.674,7.434,3.12,8.631,6.968   c0.487,1.678,1.662,3.328,3.113,4.55c-1.186,0.972,1.683,0.972,0.731,2.16l-2.182-0.735l0,0.491   c-0.934-0.943-2.391-0.729-3.344-0.943c-1.194-0.973-2.39-3.147-3.841-2.406c1.214,0.474,0.233,1.433,0.965,2.405   c-0.232-0.261-0.48,0-0.732-0.261l-0.233,0.261c0.232,0.215,0.733,0.709,0.484,1.188c-0.704,0.001-1.412-0.973-1.897-0.244   c-1.463-1.43-1.216-4.318-2.649-5.281c-0.228-0.221,0.24-0.221,0.24-0.47c-0.724-0.238-1.199-0.714-1.434-1.435l0.484-0.484   l-0.484-0.244l-0.25,0.244c-1.91-1.194-5.044-4.321-2.878-7.41l0-0.742C410.671,168.76,410.905,169.015,413.302,169.957   L413.302,169.957L413.302,169.957z"
   fill="#81B524" />
    <path
   style="fill:#84b414;fill-opacity:1"
   id="path885"
   d="M180.161,213.09l-1.423-0.735C179.219,212.593,180.162,212.13,180.161,213.09L180.161,213.09L180.161,213.09z"
   fill="#81B524" />
    <polygon
   style="fill:#84b414;fill-opacity:1"
   id="polygon887"
   points="228.57,213.56 228.57,213.322 229.79,213.812 228.57,213.56  "
   fill="#81B524" />
    <path
   style="fill:#84b414;fill-opacity:1"
   id="path889"
   d="M232.648,214.043l0.001,0.463l-0.714,0l0-0.694C232.18,213.812,232.412,214.288,232.648,214.043   L232.648,214.043L232.648,214.043z"
   fill="#81B524" />
    <path
   style="fill:#84b414;fill-opacity:1"
   id="path891"
   d="M187.358,215.955c-0.711,0.245-2.387-0.231-3.112-0.967C185.436,215.493,186.646,215.492,187.358,215.955   L187.358,215.955L187.358,215.955z"
   fill="#81B524" />
    <path
   style="fill:#84b414;fill-opacity:1"
   id="path893"
   d="M237.668,214.988c-0.228,0.266,0.486,0.504,0,0.736l-0.712,0C236.472,215.254,237.441,214.988,237.668,214.988   L237.668,214.988L237.668,214.988z"
   fill="#81B524" />
    <path
   style="fill:#84b414;fill-opacity:1"
   id="path895"
   d="M241.027,216.2l0,0.232l-0.71-0.477C240.567,215.955,241.026,215.724,241.027,216.2L241.027,216.2   L241.027,216.2z"
   fill="#81B524" />
    <path
   style="fill:#84b414;fill-opacity:1"
   id="path897"
   d="M242.944,216.2c0.254,0.715-1.212,0-1.431,0L242.944,216.2L242.944,216.2L242.944,216.2z"
   fill="#81B524" />
    <polygon
   style="fill:#84b414;fill-opacity:1"
   id="polygon899"
   points="245.816,216.915 243.664,216.683 245.588,216.915 245.816,216.915  "
   fill="#81B524" />
    <path
   style="fill:#84b414;fill-opacity:1"
   id="path901"
   d="M203.191,221.957c-0.248,0.238-0.49,0.47-0.732,0.47h-0.241C202.218,221.957,202.943,221.732,203.191,221.957   L203.191,221.957L203.191,221.957z"
   fill="#81B524" />
    <polygon
   style="fill:#84b414;fill-opacity:1"
   id="polygon903"
   points="194.558,287.107 194.071,286.637 194.558,286.638 194.558,287.107  "
   fill="#81B524" />
    <path
   style="fill:#84b414;fill-opacity:1"
   id="path905"
   d="M231.216,300.058c-0.001,0.238-0.245,0.475-0.483,0.476l-0.247-0.001   C230.486,300.295,230.733,300.058,231.216,300.058L231.216,300.058L231.216,300.058z"
   fill="#81B524" />
    <path
   style="fill:#84b414;fill-opacity:1"
   id="path907"
   d="M228.085,300.792c-0.705,0.49-1.675,0.708-2.638,0.49C226.177,301.044,227.16,300.792,228.085,300.792   L228.085,300.792L228.085,300.792z"
   fill="#81B524" />
    <path
   style="fill:#84b414;fill-opacity:1"
   id="path909"
   d="M708.585,215.15l-289.162,0c3.605-3.482,6.721-7.208,8.011-12.124c-3.356,1.674,1.22-3.131-1.926-2.647   l0.499-1.191c-1.443,0-2.414-1.919-1.696-3.117l-0.718,0.483c-0.709-0.715,0.485-1.66,0-2.409c-0.935,0-2.145,0-2.146-1.177   c-0.484,0.477-0.713,0.959-1.197,1.177c-2.878-2.15-0.714-5.739-2.877-8.384l-0.232,1.695c-1.912-0.001-2.398-1.694-4.078-1.916   c-0.476-3.147-2.622-5.292-4.072-8.146l-0.486,0l-0.231,1.198c2.167,2.153,3.845,5.267,4.072,8.148l-0.711,0   c0.226,2.862-1.916,5.254-3.612,7.404c-0.47,0-0.469-0.477-0.698-0.701c-2.392,0.701-0.981-3.136-2.392-3.361   c-0.484,2.392-0.485,5.022-1.449,7.186c-3.131-0.952-2.421-4.559-5.277-5.526c0-0.238,0-0.238,0.233-0.455   c-0.71,0.456-2.145,0.708-2.623-0.231c-1.184,1.177-3.365,0.232-5.029,0.939l0-0.252c-2.16,0.732-4.322,0-6.487,0l0.966-1.197   c-0.966-1.661,1.198-1.909,1.677-3.569l-1.192-0.486c-0.239-1.426,3.113-1.674,1.193-2.63l0.733,0l-0.961-2.175   c-0.965-1.436,1.445-1.436,1.911-2.14l-0.467-0.952c1.899-0.248,0-2.168,0.704-2.889c-0.238-0.473-0.704-0.96-1.188-0.732   c-0.25-0.69-1.213-1.881,0.001-2.143c-0.476-1.933-2.164,0.952-2.666-0.984l0.256-0.455l0.246,0.248l0.951-1.908   c-0.951-0.97-1.198-3.6-2.628-2.627l0.236,0.224l-0.723,0.228c-1.193-0.453-3.104,0-2.875-2.14l-0.465-0.001   c-1.215-0.262-1.214,0.936-1.925,1.688c-2.398-0.258-5.996,0.688-6.703-2.415l1.429-0.258l-0.237-0.221   c-0.969,0.725-3.114-0.935-3.114,0.946c-1.679,0-1.925,1.691-3.359,1.95l0.486,0.452l-1.452,0.963l-0.473-0.728l-0.452,0.483   l-0.269-0.483c-0.951,1.433-2.877,0.97-4.075,1.68c-0.233-0.456-0.946-0.456-1.186,0.001c-4.088,0.259-8.392,1.919-10.541,5.501   c-0.968-0.456-2.416,2.175-3.127,0c10.313-11.232,26.369-21.312,41.932-14.849c-0.711-0.48-1.193-1.445-2.161-1.922   c2.894-0.001,5.52,2.405,7.905,4.552l0.477-0.715l5.274,3.113l-1.665-1.881l0.451-0.517c-3.082-3.341-5.967-5.739-9.548-8.617   l0.719-0.238l-2.397-0.96l0.466,0.496c-2.164-0.496-5.505,0-6.938-1.211c1.663-1.43,1.433-4.056,1.193-6.22   c2.149-4.566,0.705-10.316,2.631-14.623c0.486,0.238,1.189,1.429,1.662,0.715c0.986,2.885-0.228,7.669,3.854,8.145   c0.709-0.966-0.239-2.157-0.705-2.851l1.662-13.446l0.72-0.463c1.66-10.071,7.897-18.216,12.458-27.334l-0.48-1.661   c1.928-4.324,4.074-8.615,5.752-13.174c1.909-1.201,1.197-4.805,3.361-5.019l-0.483-0.5l1.195-1.204   c0.24-0.483,0-0.715-0.484-1.191l0.484-0.484c5.026,4.798,11.964,10.313,14.612,17.019c-3.829-4.559-7.659-9.823-12.948-12.691   l-0.477,1.419c1.948,2.164,4.81,4.083,5.521,5.998c-2.414-0.969-3.112-3.599-5.522-4.549l3.108,3.827l-3.828-2.879l-0.467,0.953   c2.882,4.083,8.151,7.663,9.82,12.473c-3.347-2.144-4.544-5.737-7.902-7.189c-0.965-1.202-3.112-4.325-4.792-2.399   c0.248,0.217,0.487,0.217,0.711,0.476l-0.464,0.228l3.814,4.073l-0.233,0.259l7.662,8.149l-0.941-0.239   c4.772,4.794,7.898,10.514,10.043,16.788c4.309,11.476-1.892,23.936-4.058,35.43c1.685,0.959-0.231,3.375,0.953,4.307   c1.213-0.47,0.959-1.647,1.443-2.375c7.436-11.521,12.21-23.259,13.661-36.914c-0.737-1.912,0.94-4.776-0.256-6.958   c0.255,0.235,0.255-0.218,0.73-0.217c-0.73-4.553-0.73-9.823-1.925-14.63c-4.06-8.616-10.548-16.516-16.535-24.185l18.219-2.395   c-5.743-0.486-12.461,1.204-19.167,2.396c-0.962-0.49-0.247-1.439-0.471-1.191l-0.491,0c-0.468-0.743-1.434-1.456-1.918-2.196   c0.485-0.194,1.917,0.504,1.917-0.691c-0.468-0.235-0.965,0.245-1.433,0.245c-0.713,0.252-1.913,0-1.678-0.735l10.066-1.657   l-3.347,0.46c-2.645,0.251-5.988,1.687-7.915,0.251c-1.219-0.483-3.117-2.647-4.559-0.711c0.964,3.829-4.794,2.392-6.955,3.828   c2.161-0.253,4.808-1.185,6.469-0.722l-12.201,2.379c4.323,0.504,8.128-1.426,11.735-1.195l-1.906,2.164l-0.258-0.721l-2.159,2.171   l-39.041,7.431l-2.88-4.097c13.183-3.103,26.35-4.784,39.545-7.179c-12.711,1.426-26.602,3.845-39.545,6.948   c-4.071-5.737-8.88-10.779-14.137-15.573l0.485-0.242c-1.45-0.238-2.16-0.966-1.913-2.627c-1.212,2.388-2.876-1.204-4.096-0.973   l2.649,2.181c-1.186,0.935-2.381-0.249-3.596-0.249c-9.1-7.182-18.428-14.389-29.942-16.298c0.464-1.919,1.177-3.596,0.72-5.988   c-4.318-0.251-5.993,4.069-7.439,7.183c-1.175,0-3.347-0.466-3.823,0.969c0.476,0.959,0.233,2.623,1.663,2.623   c-3.093,9.102-5.512,18.214-5.257,27.564c-1.969,4.11,3.042,11.997,0.541,15.202l0.404-0.098l0.485,0.718l-6.953,1.894l0-0.704   l-0.232,0.704l-6.222,1.909c-1.676,0.97-4.56,0.272-5.278,1.204l-0.716-0.721l10.301-3.096l-11.029,3.097   c-1.92-1.178-5.276-1.423-6.475-2.878c-3.823-0.709-7.646-3.107-11.746-4.073l-0.462-0.704l-0.487,0.217   c-1.679-1.426-3.819-0.691-5.25-2.144c-4.81-1.66-10.078-3.106-15.102-4.056c-12.226-3.123-26.119-4.811-38.102-4.093   c-1.437-2.378,3.105-4.542-0.971-5.732c-2.148-0.235-3.826,2.164-4.772,3.589c-0.972,15.322,2.866,29.717,7.643,43.596   l-2.392,1.204l1.701-0.469c-0.251,0.695-1.701,0.949-2.423,1.429c-1.905-1.215-4.782,0.96-6.695,1.449   c0.947,0.238,2.164-0.966,3.111-0.251c-1.197,0.252-2.858,0.953-3.821,0.251c-0.956,0.456-3.344,1.195-3.13,1.913   c-5.504,0.493-10.049,3.341-15.089,4.791l1.197-0.001l-0.484,0.484c-0.712,1.198-2.147,1.428-2.877,0.469l-11.015,4.076   l0.001,0.476c-0.468,0.715-1.671,0-1.426-0.231l-9.838,3.824l0.487-0.966c-0.487,0.476-1.438,0.736-1.211,1.443l-29.693,11.753   l-2.629,0.483l0.233,0.224l-0.952,0.477c-4.078,0.728-6.484,3.355-9.824,4.062l0.229,0.272l-3.59,0.933   c-35.702,15.36-71.652,31.393-105.423,52.012c-0.48,1.667,1.439,2.157,2.395,2.872L0,213.56c2.152-0.966,4.078,1.211,6.232,0.728   l13.896-6.464c35.468-15.348,70.691-30.915,107.103-43.616c2.635,7.639,6.946,14.386,13.911,19.888   c1.666,2.647,5.01,4.072,7.426,6.451c5.248,6.499,11.959,11.534,19.159,14.875l-0.489,0.476c1.902,1.436,3.602,0.484,5.017,2.878   c4.323,0.477,7.433,3.817,11.525,5.037c1.193,0,2.38-0.253,2.867,0.694l-0.238,0l2.382,0.986l-0.721,0.708   c1.211-0.946,2.424,0.715,3.841,0.484l0.467-0.96c0.259,0,0.259,0.231,0.495,0.476l-0.237,0l1.921,0.483l-2.18,0.476   c0.754,0.001,1.219,0.238,1.693,0.96c-0.939,0.966-1.919-1.437-3.577-0.464c3.816,1.429,7.639,2.852,11.725,2.852   c-0.243,0.49-0.943,0-0.723,0.49c0.481,0.477,0.965,0,1.206-0.49l0.242,0.966l0.47-0.728c0.711-0.47,1.923,0.252,1.923,0.986   l-1.923,0.224c0.953,0.239,2.406,0.001,3.582,0c0.485,0.47,1.204,0.947,1.204,1.416c-44.333,7.914-86.483,21.585-125.526,42.183   l-0.48-0.225c0,0.225,0,0.463-0.248,0.463c-7.419-1.674-8.144,8.397-14.374,9.343l1.909-0.231   c-0.711,1.681-2.865,2.633-2.627,4.301c-1.932,0.245,1.202,2.885-1.446,3.143c0.967,0.218,0.967,1.409,1.446,2.382   c-2.159,1.191,1.203,3.103,1.676,4.307l-1.913,0c9.822,6.968,21.082,10.806,33.058,12.95c14.867,2.144,30.913,5.015,46.011,5.015   c27.541,1.232,53.415,0.258,78.578-5.505l1.431-0.966c0.329-0.023,0.665-0.066,1.003-0.11l0,50.68l481.889-0.001L708.585,215.15   L708.585,215.15z M427.92,89.934l2.628,4.069C429.366,93.275,428.173,91.607,427.92,89.934L427.92,89.934z M412.814,71.475   l5.046,4.818c-0.487,0.214-1.218-0.984-1.671-0.501C414.997,74.588,412.814,73.874,412.814,71.475L412.814,71.475z    M204.603,301.044c5.525-0.987,11.508-2.416,17.029-2.893c1.664-0.169,3.359-0.383,5.064-0.623l0,0.569   c-2.532,0.461-5.09,0.937-7.694,1.483l-0.494-0.47c-3.84,1.423-8.867,1.682-13.414,2.389L204.603,301.044L204.603,301.044z    M138.977,304.385l0.228-0.504l12.94,1.218C148.08,305.099,143.061,304.133,138.977,304.385L138.977,304.385z M224.746,226.271   l1.95,0.648l0.001,58.153c-2.681,0.325-5.342,0.621-7.959,0.851c-5.961,0-12.682,2.157-17.727,0.967l-0.224,0.707   c-2.652-0.708-5.266,0-7.913,0.238c-2.38-1.198-5.755-0.001-7.902-0.728c-2.408,2.164-4.309-1.422-6.713,0.49l-19.649-1.674   c-1.195-0.238-2.387,1.422-3.12,0c-22.981-3.573-48.155-4.314-68.268-17.488l0.476-0.476l0.245,0.238l0-0.722   c2.63-0.463,5.745-1.429,8.135-3.123c8.155-3.573,17.256-6.69,25.638-10.996c27.337-7.684,54.148-19.429,82.887-23.029l-0.479-0.47   l2.6-0.395c-0.42-0.034-0.834-0.224-0.67-0.551L224.746,226.271L224.746,226.271z M195.521,218.344   c0.23-0.225,1.667-0.225,2.373,0.51C196.954,219.568,196.217,218.595,195.521,218.344L195.521,218.344z M162.933,132.811   c0,0.477-0.718,0.721-0.977,0.245C162.215,133.056,162.444,132.579,162.933,132.811L162.933,132.811z M213.721,130.667   c2.159,0,3.127,2.865,4.537,3.11c-0.231,0.463,0.478,0.945,0.982,1.422l0.213-0.694c7.706,7.424,14.623,17.026,22.779,22.041   l0,0.705c1.431,0,1.193,2.162,3.355,1.692c-0.727,1.664,1.914,1.429,2.86,2.395c-29.71-4.574-61.801-8.398-93.889-3.591   c-1.921,1.196-4.58,0.713-6.728,1.196l-14.135,3.358l-0.231-0.476c18.209-7.205,37.122-14.377,55.57-21.353l-0.478-0.455l1.937,0   C198.133,136.9,205.82,133.288,213.721,130.667L213.721,130.667z M231.215,84.425l-0.245,0l0-0.255l0.245,0L231.215,84.425   L231.215,84.425z M266.161,101.093c-1.676,0.126-3.399,2.406-5.483,1.787l-1.181,0.704l0.48-0.704l-1.946-0.242   c0.733,0,1.211-0.967,0.481-1.45c-3.596,0-7.417,1.912-11.26,2.879c-2.627,0-5.975,0.704-8.619,1.912   c-3.339,0.487-7.183,1.194-10.063,3.341c4.794-1.197,9.832-3.109,14.855-3.8c0,0,0.238,1.405,1.435,0.691l-1.917,1.215l1.198,0.479   l-0.478,0l0.478,0.452l-0.232,0c0,0.31-0.013,0.425-0.046,0.501l0.046-0.001c-0.019,0-0.034,0.021-0.046,0.021l0-0.02   c-1.201-0.001-3.552,0.014-4.014,1.446l-0.747-0.248l0.747-0.946c-2.664,0.45-4.555,1.429-7.439,1.919   c3.598-2.171,6.223-0.972,9.322-3.123c-1.417-1.204-4.293,0.453-5.973,0.453c0.712-0.453,1.908-0.001,1.909-0.932   c-4.053-0.501-7.878,2.629-11.491,2.878c0.001-0.249-0.256-0.248-0.257-0.483c-0.355,1.433-2.029,1.521-3.566,1.881l1.907-0.673   l-0.483-0.491l-6.234,2.382c-0.001,0.249,0.249,0.249,0.483,0.249c-0.719,0.241-1.915,0.242-1.915,1.194l-0.474-0.231   c-0.24-0.252,1.671-0.483,1.21-1.429l-1.691,0.708c-5.985-11.739-9.585-23.736-10.063-36.903c1.209,1.695,3.589,1.429,5.267,2.64   l0.5,0.963c4.777,1.668,9.556,1.435,14.831,2.171c-0.246,0.946,0.716,1.174,1.201,1.173c0.959-0.227,1.19,0.484,1.676,0.97   c5.507,1.446,10.311,3.124,16.056,3.842c6.237,3.109,13.405,4.287,19.159,7.88l-0.237,0.251l0.949,0.484   c-0.713,0.963-2.629,1.442-3.109,1.443c-0.235,1.664,1.931-0.242,3.108,0.235l-0.463,0.483l0.234,0.234   c-1.431,0-3.35,1.198-5.274,1.43l0,1.932c1.22-0.966,2.649-0.967,3.843-1.45c-0.716,0.714-2.39,0.945-2.159,1.449   c1.442,0.242,2.87-1.197,4.308-1.701L266.161,101.093L266.161,101.093z M232.877,113.41c-0.698,0.47-2.145,0.238-2.635,1.221   c0,0-0.66,0.035-1.456,0.086c-0.951,0.449-1.897,1.313-2.864,0.843c-1.193,0.307-0.129-0.244,1.42-0.626   c-0.5,0.035-0.986,0.061-1.42,0.147c0-0.119,1.111-0.235,2.198-0.31c0.272-0.055,0.544-0.089,0.823-0.113   c0.092-0.041,0.182-0.081,0.277-0.105c0.272-0.109,0.553-0.225,0.8-0.422l-2.64,0c1.427-0.721,4.317-0.963,5.498-1.912l0,0.701   c1.2,0,1.68,0.96,3.132,0c-0.485,1.443-2.165,1.212-3.131,2.16l0.966,0.235c-1.664,0.5-3.359,1.443-5.274,1.695   c0.951-1.929,2.88-2.164,4.307-2.879c0-0.252-0.23-0.252-0.466-0.253L232.877,113.41L232.877,113.41z M235.295,114.632   c0.23-2.888,5.022-1.711,7.417-3.151c3.59-1.426,7.432-2.623,11.263-3.358c-4.544,2.416-10.064,3.131-14.872,5.288   C237.921,112.92,236.697,114.363,235.295,114.632L235.295,114.632z M236.472,114.846l0.969,0l-1.431,0.234L236.472,114.846   L236.472,114.846z M239.849,114.132l3.348-1.211l0.228,0L239.849,114.132L239.849,114.132z M242.952,118.125   c1.262-0.706,2.165-2.04,3.583-1.85C245.773,117.039,244.089,117.661,242.952,118.125c-0.227,0.128-0.463,0.241-0.719,0.315   C242.422,118.345,242.675,118.239,242.952,118.125L242.952,118.125z M247.253,111.253c0.728,0.967,1.696-0.483,2.414,0   c-0.237,0-0.237,0.227-0.237,0.227c0.448,0.494,1.665,0.262,2.382,0.001l-2.382,1.221l-0.482-0.959l-1.696,0.708   C247.501,111.743,247.501,111.743,247.253,111.253L247.253,111.253z M263.786,109.82l-16.05,5.996   C252.771,113.411,258.299,111.254,263.786,109.82L263.786,109.82z M258.766,109.11l0.733-0.252l0.231,0.252L258.766,109.11   L258.766,109.11z M249.877,105.03c0-0.258-0.21-0.258-0.447-0.258c1.183,0,2.164-0.953,3.576-0.953   c-1.656,0.952-3.128,2.392-5.504,2.161L249.877,105.03L249.877,105.03z M255.174,105.52c-1.199,1.18-4.311,1.405-5.992,1.905   C251.349,106.925,253.007,105.521,255.174,105.52L255.174,105.52z M251.812,110.305c0.959-0.984,2.639,0.234,3.842-1.195   C255.174,109.821,253.006,111.974,251.812,110.305L251.812,110.305z M246.767,106.211l-0.232-0.232l0.718-0.459l0.249,0   L246.767,106.211L246.767,106.211z M237.668,110.77l-0.483-0.231l1.218-0.718L237.668,110.77L237.668,110.77z M235.759,111.481   l-0.235,0l0.72-0.711L235.759,111.481L235.759,111.481z M233.616,112.451c-0.739-0.231,1.194-0.97,1.679-0.707   C235.525,112.451,233.363,111.743,233.616,112.451L233.616,112.451z M231.697,109.821l0.714,0.235   C232.18,110.304,230.733,110.538,231.697,109.821L231.697,109.821z M257.581,105.265l0.216,0l-0.478,0.466l-0.219-0.211   L257.581,105.265L257.581,105.265z M260.215,103.584l0.233,0.483C260.214,103.819,259.498,104.067,260.215,103.584L260.215,103.584   z M264.269,102.638l0,0.242l-0.72,0l0-0.242L264.269,102.638L264.269,102.638z M265.238,102.88l0.715,0l-1.455,0.473   L265.238,102.88L265.238,102.88z M266.179,103.584l-1.91,0.483l1.91-0.715L266.179,103.584L266.179,103.584z M268.506,101.179   c-0.131,0.162-0.267,0.366-0.412,0.493l0.717,0c-0.455,0.231-0.455,0.231-0.93,0L268.506,101.179   c0.107-0.134,0.209-0.242,0.305-0.241L268.506,101.179L268.506,101.179z M273.136,101.44l-4.78,0.956   C269.546,100.706,271.459,100.937,273.136,101.44L273.136,101.44z M276.727,102.88c-5.504,1.188-11.031,4.546-16.998,5.026   c3.819-1.926,6.224-1.205,9.585-3.351c0.232-0.487-0.503-0.736-0.502-0.487c-2.147-0.249-3.342,2.399-5.263,1.453l-5.745,1.654   c0.072,0.006,0.159-0.024,0.228,0c-0.026,0.031-0.026,0.031-0.053,0.051c0.186,0.034,0.371-0.051,0.534-0.051   c-0.215,0.251-0.482,0.252-0.933,0.252c0.191,0,0.237-0.02,0.398-0.201c-0.061-0.013-0.118,0.014-0.182-0.051   c-0.709-0.033-1.684,0.664-1.91,0c5.983-1.654,11.742-2.62,17.732-5.271L276.727,102.88L276.727,102.88z M278.161,103.584   c-5.025,2.148-9.805,3.117-14.612,4.54C268.357,106.466,273.385,104.554,278.161,103.584L278.161,103.584z M290.156,92.553   l-0.955,0C289.44,92.554,289.672,92.342,290.156,92.553L290.156,92.553z M303.323,91.131l-1.427,0.714l0.466,0.496l-1.662,0.211   c-0.063,0.191-0.042,0.286,0.022,0.347c-0.551-0.02-1.18,0.068-2.416,0.375c0.22,0.728,1.431,0,2.394,0.245   c-3.131,0.966-7.901,1.453-11.029,2.627c-0.47,0.504-0.951,0-1.182-0.225l1.288-0.397c0.256-0.442,0.788-0.375,1.264-0.381   l-1.264,0.381c-0.034,0.057-0.085,0.068-0.105,0.146c2.856-0.239,5.991-1.184,7.897-2.859c-1.43-0.469-4.072,1.426-5.041,0.228   c-1.41,1.447-4.039,0.963-4.764,2.392c-0.256-0.946-1.222,0.001-1.687-0.459c4.79-1.698,9.586-4.08,14.623-4.308l-3.132,1.181   c1.22,0.225,3.849-0.469,5.279-1.435L303.323,91.131L303.323,91.131z M294.46,94.003c-0.478,0.235-0.963,0.235-1.661,0.235   C293.497,94.238,293.747,93.752,294.46,94.003L294.46,94.003z M293.264,96.649l-0.963,0.943l-0.24-0.241l-0.944,0.241   C291.118,97.351,292.528,96.881,293.264,96.649L293.264,96.649z M295.177,95.921l-0.468,0.225l-0.726,0L295.177,95.921   L295.177,95.921z M296.139,95.431l0.24,0.001l-0.485,0.238L296.139,95.431L296.139,95.431z M302.131,95.201   c0.231,0.721-0.97,0.721-1.431,0.946l-0.25-0.225C300.931,95.67,301.417,94.973,302.131,95.201L302.131,95.201z M304.528,94.724   l-0.487,0.249l0.252-0.735L304.528,94.724L304.528,94.724z M304.528,96.398c-3.827,0.718-7.437,2.879-11.263,2.161   c2.163-0.966,4.304-1.909,6.72-2.413L299.5,96.65C300.932,96.65,303.075,95.922,304.528,96.398L304.528,96.398z M304.761,96.881   l-2.151,0.711l1.917-0.712L304.761,96.881L304.761,96.881z M308.118,108.358l-0.459-0.453l-0.485,1.205   c-3.369-0.483-4.812-4.08-7.674-5.291l-0.001-0.235l-1.931-1.913l7.443-1.912C306.207,102.396,307.659,105.52,308.118,108.358   L308.118,108.358z M395.082,73.874l-20.11,3.838l19.662-3.838L395.082,73.874L395.082,73.874z M400.614,72.679   c-1.673,0.718-3.117,0.483-5.046,0.943C396.776,72.915,398.941,73.162,400.614,72.679L400.614,72.679z M370.183,79.148   l35.928-6.468c-0.463,1.194-1.889,3.113-3.358,3.828l0.733,0.477c-0.256,0.259-0.257,0.469-0.256,0.727   c-1.193-0.469-1.659,0.949-2.164,1.919c0,1.195-2.373,2.651-3.081,4.795c-5.531,10.061-11.038,20.605-11.518,32.585l-0.712,0.695   C383.124,103.819,377.852,90.665,370.183,79.148L370.183,79.148z M320.582,200.379c0,4.797,0.958,10.316,2.638,14.61   c0.078,0.046,0.143,0.109,0.218,0.161l-92.196,0.001c-36.031-7.039-70.422-19.295-95.137-48.799   c4.773-0.486,10.541-0.718,15.568-1.198c3.107,0.712,6.479,0.711,9.1-0.221l0.001,0.221c-0.001-0.221,0.945-0.946,1.442,0.001   c5.746,0.48,12.7-1.185,18.446-0.467c3.585,0.728,7.181-1.197,9.343,0.467c-0.484,0-0.971-0.222-1.687-0.221   c1.202,0.931,3.347,0.483,4.556,0.221l-2.148-0.467l2.407-0.717c8.144,0.459,19.645,1.184,27.538,1.184   c0.22,0.48,0.716,0.479,0.717,0.976c5.272,0.001,10.794,2.144,16.055,1.426l0,1.205c6.469,0.463,12.703,1.198,18.446,3.828   l-1.199-1.198c3.109,0.715,6.956,3.127,9.811,1.702l14.619,8.128l0.484-0.473c0.721,0.473,0.489,1.184,0.489,1.433   c1.449-0.96,2.879,1.186,4.072,0.214c-1.928-0.94-2.623-2.847-4.785-3.58c0.483-1.418,1.422,0,2.162-0.707   c-3.844-0.96-6.471-4.324-10.316-5.519l0.237-0.483c-1.667-0.466-3.365-1.891-4.544-2.882l0.233-0.462l-2.651-1.657l-0.713,0.453   c-0.236-0.227-0.464-0.711-0.948-0.711c0-0.493,0.484-0.493,0.483-0.98c-1.451-0.711-3.106-1.436-4.078-3.109l0.735-0.212   c-2.397-1.936-4.804-3.865-7.207-4.795l0.954,0.713c-2.377,0-1.669-1.21-3.849-2.18l0.5-0.449   c-2.157-1.932-3.611-4.552-6.468-5.519l1.906,1.681c-2.153,1.442-1.674-1.933-2.872-2.165l0.482,0   c-1.429-2.382-2.626-3.824-5.271-5.05c-3.598-5.715-10.995-11.248-14.375-17.706l8.4-3.362l-0.483-0.486   c0.239,0,0.484-0.228,0.715-0.229c0.467,0.229,0.001,0.715,0.237,0.946l4.309-1.909l2.409-0.718   c0.218-2.143,3.831-1.68,5.742-2.879l0.48,0.735c1.914-1.215,4.079-1.214,5.761-2.667l-0.486-0.231   c4.311-3.107,11.975-4.533,17.948-6.717l-2.632,1.47l0.737,0.225c5.267-2.396,10.296-4.553,16.054-5.734   c0.051,0.16,0.001,0.269-0.095,0.337c0.19-0.041,0.381-0.061,0.571-0.126c2.865,2.174,7.188,4.808,10.051,7.437   c2.165,0.48,2.642,1.678,4.072,2.647c2.881,3.107,7.192,4.529,9.104,8.128c4.088,3.6,7.428,7.922,11.259,12.481   c0.963,3.817,4.328,7.417,6.47,10.786c1.201,0.238,2.183,0.238,2.894-0.736c1.182-0.708,1.182,1.178,1.669,2.151   c0-0.456,0.726-0.225,0.96,0.001c-0.234,0-0.234,0.238-0.709,0.237c0.476,0.483,0.942,0.484,1.424,0.729   c-0.715,0.721,1.451,1.429,0,1.939c3.367,1.633,3.114,6.929,7.207,7.412l-1.912-3.112l0.848,0.129   c-0.424-0.224-0.766-0.659-1.117-0.129c0.5-1.463-1.66-3.11-0.945-3.606l-0.715,0.497l-0.965-1.191l1.197-0.511l-0.717-0.708   l-0.253,0.708c-0.482-1.918-2.142-3.81-2.629-5.518c0.238,0,0.487-0.218,0.487-0.001l-0.248-1.177l0.73,0   c-0.482-0.483-0.968-0.966-1.2-1.687l-0.484,0.238c-0.709-0.945-1.446-1.68-1.213-2.858c0.735-1.688-2.863-3.593-0.931-5.036   l-1.196-1.204c0.212-0.245,0.483-0.491,0.71-0.491c-2.158-5.014-4.803-10.541-6.947-15.583l0.461-0.693   c-3.089-5.982-4.791-13.192-6.467-19.419l0.48,0.252l-0.48-0.493l17.035-4.798c-0.252-0.483-2.162-0.483-2.899,0.258l0.233,0.463   c-1.914,0-3.108,0.728-4.788,0.477c-0.464,0.252-1.43,0.251-0.95,0.973l-8.151,2.157l-0.235-0.483l1.686-0.476   c-0.973-0.491-1.686,0.96-2.4,0c5.489-2.647,10.781-3.368,17.003-4.791l-0.469-0.466l0.47-0.503   c-5.029,0.969-10.067,2.181-14.603,3.841c-0.973,0.235-2.878,0.97-2.878-0.483c2.878-0.967,6.72-1.675,9.577-2.855l1.196-0.371   l0.001-0.132c2.415-0.963,4.062-3.096,6.707-3.334c0,0.469-0.469,0.469-0.469,0.721c1.199-0.979,3.113-0.721,3.829-1.677   c-1.196-0.497-2.63-0.269-3.597-0.27l4.55-1.664c-3.583,0.232-5.975,2.63-9.102,4.063l-0.484-0.453   c-1.201,0.718-2.63,0-4.063,0.718c-0.28,0.001-0.626-0.173-0.828-0.402c-1.515,0.402-4.716-0.258-5.412,1.593   c-0.957-0.957-1.658-1.457-2.874-1.191c1.917-1.201,6.521-1.549,8.465-2.532l0,1.562l1.603,0c1.43-1.201,2.16,0,3.595-0.962   c-0.725-2.644,3.127-1.218,4.069-2.395l-0.467-0.484l1.186-0.483c-2.644,1.198-5.74,1.926-8.616,2.631l-0.252-0.705   c1.211-0.473,3.128-0.473,3.839-1.671c-1.194,0.228-4.784,0.943-7.186,2.147l0.21-1.287c-2.162,0.732-4.317,1.593-7.391,2.739   l-0.485-1.453l3.346-0.949c-1.199-0.255-2.151,0.234-3.113,0.69c-0.71-2.143-0.95-4.055-1.667-6.199   c0.717-10.317-0.001-20.381,3.345-30.207c1.914-0.701,3.111,1.929,5.024,1.442l-0.213,0.738l0.708,0.215   c0-0.466-0.245-0.465-0.496-0.714c0.496-0.47,0.963-0.705,1.7-0.47c0.483,2.147,3.341,0.469,4.536,2.147   c0.485,1.44-1.675,2.16-2.16,2.648c-0.001,0.718,0.736,0.962,1.211,0.717c0.704,3.838,4.298,4.56,7.188,6.22   c2.633,2.164,4.782,4.052,7.673,5.505c2.871,4.318,7.92,7.666,10.778,11.759l-0.235,0.231c2.145-0.735,2.145,2.63,3.59,2.865   c-4.071,1.443-10.313,2.157-14.368,3.858c-2.181,0.463-0.483,0.463-1.912,1.678l12.924-2.89c0-1.687,2.627-1.204,4.063-1.687   c1.437,3.362,4.551,3.597,5.276,6.703l-0.238,0.258c6.47,10.773,13.649,21.548,15.804,33.78l-0.949,0.946l0.95,0   c0,0.483-0.235,0.738-0.235,0.966c1.444,4.076,0.235,7.908,1.674,12.208c-1.439,3.13,0.488,7.206,0.254,10.792   c-1.449,1.436,0.934,1.688,0.465,3.116C350.291,156.764,326.584,173.782,320.582,200.379L320.582,200.379z M317.932,84.898   c0.25,0.477-0.483,0.218-0.483,0.477C317.449,85.115,317.719,84.898,317.932,84.898L317.932,84.898z M313.143,91.846l0.498-0.001   l-0.961,0.497L313.143,91.846L313.143,91.846z M313.991,91.444c0.205-0.789,3.326-1.776,5.262-1.967l1.024-1.327   c0.487-0.256,0.07,2.011,0.07,1.307c-0.269-0.042-0.662-0.028-1.094,0.02l-0.359,0.456L313.991,91.444L313.991,91.444z    M318.662,90.665c-0.943,1.405-3.109,0.942-4.561,1.888C315.553,91.607,317.218,91.376,318.662,90.665L318.662,90.665z    M321.064,89.198l0.476-0.448l0.238,0C320.808,88.967,321.778,89.457,321.064,89.198L321.064,89.198z M324.169,89.199l0.233,0   l-1.182,0.258L324.169,89.199L324.169,89.199z M318.895,83.939l-0.023,0.149c0.526-0.183,1.057-0.346,1.59-0.516L318.895,83.939   L318.895,83.939z M327.295,82.013c-2.838,0.493-4.923,0.994-6.833,1.558L327.295,82.013L327.295,82.013z M325.362,89.934   l-1.194,0.36l0,0.371L325.362,89.934L325.362,89.934z M281.058,106.211c0.545-0.174,1.501-0.092,1.817-0.354   C282.329,105.973,281.766,106.037,281.058,106.211L281.058,106.211z M229.22,114.554c-0.061,0.024-0.111,0.072-0.168,0.089   c0.414-0.034,0.817-0.055,1.191-0.011C229.897,114.458,229.554,114.466,229.22,114.554L229.22,114.554z M229.051,114.642   c-0.036,0.006-0.075,0.007-0.109,0.017c-0.027,0.007-0.053,0.02-0.078,0.024C228.929,114.666,228.995,114.666,229.051,114.642   L229.051,114.642z M228.669,114.727c-0.177,0.014-0.358,0.024-0.549,0.044c-0.266,0.047-0.536,0.102-0.778,0.163   C227.781,114.901,228.232,114.833,228.669,114.727L228.669,114.727z M301.958,87.647l-5.578,1.32   C299.443,89.267,301.122,88.722,301.958,87.647L301.958,87.647z"
   fill="#81B524" />
    <path
   id="path911"
   d="M279.06,328.426l0-90.599l-29.664,0l0,90.599L279.06,328.426L279.06,328.426z M395.861,237.827l-29.664,0.001   l-9.146,48.08c-0.989,5.192-1.36,10.383-1.36,13.225l-1.484,0.001c0.001-2.843-0.494-8.035-1.483-13.226l-9.146-48.08l-30.529,0   l23.237,90.599l36.338-0.001L395.861,237.827L395.861,237.827z M468.536,328.425l-1.235-24.72l-32.508,0l0.001-8.405l29.045,0   l0.001-24.597l-29.047-0.001l0-8.157l31.518,0l0.001-24.72l-61.182,0l0,90.599L468.536,328.425L468.536,328.425z M553.077,302.964   c-0.865,0.124-1.977,0.248-2.966,0.247c-2.224,0-2.719-0.495-3.708-2.348l-5.932-10.754c7.416-5.067,11.989-13.224,11.989-24.719   c0-20.148-13.102-27.563-31.889-27.563l-38.934,0l0.001,90.599l28.799,0l0-30.653l3.214,0l7.663,16.933   c4.696,10.383,9.764,14.461,22,14.461c2.472,0,6.798-0.371,9.765-0.742L553.077,302.964L553.077,302.964z M523.166,268.109   c0,6.55-1.607,8.528-5.561,8.528l-7.169,0l0-16.315l7.54,0C521.56,260.322,523.166,262.052,523.166,268.109L523.166,268.109z    M644.169,281.334c0.001-31.146-16.809-43.507-41.035-43.507l-36.462,0l0,90.599l36.833,0   C629.832,328.425,644.169,311.492,644.169,281.334L644.169,281.334z M613.269,281.828c0,19.653-0.494,22.619-10.382,22.619   l-6.799-0.001l0.001-43.013l6.921,0C610.797,261.434,613.269,263.288,613.269,281.828L613.269,281.828z M686.192,328.425l0-90.599   l-29.664,0.001l0,90.599L686.192,328.425L686.192,328.425z"
   fill="#FFFFFF" />
</g>
</svg>