<?xml version="1.0" encoding="UTF-8" standalone="no"?>
<svg
   xmlns:dc="http://purl.org/dc/elements/1.1/"
   xmlns:cc="http://creativecommons.org/ns#"
   xmlns:rdf="http://www.w3.org/1999/02/22-rdf-syntax-ns#"
   xmlns:svg="http://www.w3.org/2000/svg"
   xmlns="http://www.w3.org/2000/svg"
   viewBox="0 0 1706.6667 1066.6667"
   height="1066.6667"
   width="1706.6667"
   xml:space="preserve"
   id="svg2"
   version="1.1"><metadata
     id="metadata8"><rdf:RDF><cc:Work
         rdf:about=""><dc:format>image/svg+xml</dc:format><dc:type
           rdf:resource="http://purl.org/dc/dcmitype/StillImage" /><dc:title></dc:title></cc:Work></rdf:RDF></metadata><defs
     id="defs6" /><g
     transform="matrix(1.3333333,0,0,-1.3333333,0,1066.6667)"
     id="g10"><g
       transform="scale(0.1)"
       id="g12"><path
         id="path14"
         style="fill:#84b414;fill-opacity:1;fill-rule:nonzero;stroke:none"
         d="m 4672.38,7046.99 -9.31,2.25 9.04,0.8 z" /><path
         id="path16"
         style="fill:#84b414;fill-opacity:1;fill-rule:nonzero;stroke:none"
         d="m 4689.59,7051.56 c 3.38,-5.69 -8.46,-3.8 -14.38,-4.32 2.98,0.26 8.2,6.85 14.38,4.32 v 0" /><path
         id="path18"
         style="fill:#84b414;fill-opacity:1;fill-rule:nonzero;stroke:none"
         d="m 4725.66,7045.77 c 14.69,1.29 35.49,0.17 49.63,7.3 -0.52,5.95 -8.92,-0.78 -12.07,1.87 14.95,-1.62 43.5,9.94 53.51,-4.14 6.44,-2.5 12.32,-1.99 14.95,1.31 5.17,9.27 18.24,-7.41 20.04,7.65 -3.61,5.67 -6.16,2.38 -9.05,2.13 28.68,8.64 64.26,-26.85 94.76,-0.53 l -0.52,5.85 c 20.41,-1.17 40.97,3.59 58.99,-0.73 l -43.75,-6.9 c 6.71,-11.13 17.35,4.58 30.08,-6.23 13.94,10.08 32.94,-3.06 42.76,18.61 l -4.6,-15.27 c 23.58,4.99 53.73,-4.08 67.07,11.81 l -3,-0.26 c 10.24,-13.83 37.88,6.23 56.3,-1.02 l 68.02,0.01 c -2.63,-3.07 -1.86,-11.82 6.95,-11.05 l 11.51,3.82 c -3.31,2.78 -6.46,5.45 -9.27,5.2 10.93,9.73 35.55,-2.9 53.39,-1.34 2.98,-2.55 -17.32,-7.44 -1.81,-14.96 l 16.4,16.24 6.98,-14.19 c 8.71,0.76 29.34,5.44 31.1,17.52 8.98,0.78 -2.03,-8.97 1.03,-11.84 4.16,-11.29 16.99,10.6 15.67,-7.45 8.63,0.76 22.22,13.9 32.18,2.82 22.53,10.79 44.61,-4.87 67.46,5.9 27.56,-12.35 58.66,2.3 89.09,-3.86 0.52,-5.94 -8.47,-6.72 -7.94,-12.73 l 3.31,-2.52 c 18.7,25.3 76.01,9.46 103.22,3.32 2.81,2.87 -0.74,8.46 5.07,8.96 6.45,-5.33 13.46,-19.67 28.14,-18.38 l 2.56,6.39 c -0.53,6.11 -6.47,5.59 -12.35,5.08 l -2.89,-0.26 -3.07,-0.27 c 4.97,11.92 14.67,1.29 23.63,2.07 -2.8,-3.29 3.89,-8.67 10.12,-11.44 -0.54,6.13 4.84,9.7 1.56,15.09 30.29,-8.99 67.99,-2.83 89.86,-15.64 8.95,-2.17 18.27,-7.5 29.8,-3.4 l -6.39,5.45 c 17.92,1.56 35.74,0.17 45.47,-10.68 8.57,3.62 19.88,7.3 21.13,-7.04 1.61,17.68 37.9,6.07 55.38,10.42 10.73,-19.56 30.82,-11.91 51.67,-15.98 2.87,3.17 -0.52,5.85 -0.77,8.75 l 15.79,-13.4 c 8.71,3.68 2.77,6.21 -1.03,11.77 14.65,4.2 24.39,-6.81 38.77,-2.51 -11,-6.92 -24.12,6.71 -32.03,-5.84 -5.44,-6.48 6.32,-2.37 6.84,-8.33 13.42,16.06 30.4,-9.06 34.34,11.93 4.23,-11.41 12.24,-1.85 17.86,-1.36 63.88,-18.2 140.04,-11.54 203.67,-29.36 l -5.17,-6.44 c 18.17,-7.27 44.02,3.85 45.84,-16.93 14.36,4.49 15.15,28.25 37.25,12.5 l 14.57,4.11 -5.32,-6.62 c 9.03,-1.9 14.74,-1.4 16.78,7.62 l -2.56,-3.06 15.21,-4.67 -5.41,-6.59 23.45,2.05 -13.72,-10.06 c 9.37,-40.82 57.84,-18.48 76.45,-28.61 l 0.26,-3.04 c 11.92,-2.24 20.39,1.78 35.57,-2.81 -3.9,11.46 -24.7,12.54 -36.85,17.52 l 2.83,0.25 -6.73,8.21 -7.94,-9.5 -50.72,4.37 c 8.53,3.56 20.79,-1.25 25.97,8.17 l -27.01,3.64 c 11.66,1.02 28.08,20.27 38.33,3.35 16.33,16.01 33.73,-14.94 47.37,-1.86 10.33,-16.73 23.74,-1.01 38.82,-2.5 -7.67,-15.52 10.33,-19.66 22.21,-18.62 l -40.91,-6.64 c 3.56,-8.55 26.26,2.3 30.59,-12.15 l 11.87,1.04 c -19.91,-7.63 2.3,-26.26 -5.93,-35.81 10.81,-19.96 18.15,-1.51 33.46,-8.99 21.84,-10.1 45.36,-11.03 69.28,-14.61 l -6.68,8.07 c 29.27,2.56 59.17,-30.06 80.47,-7.58 23.07,7.99 32.1,-27.01 56.6,-3.69 55.55,-24.97 130.73,-6.71 183.26,-31.6 l 13.69,10.18 c 3.48,-2.8 3.99,-8.64 9.74,-8.13 -5.5,-3.42 -14.23,-7.3 -19.05,-16.49 l 12.14,-7.76 c -2.46,-3.03 -8.88,2.16 -10.84,-7.13 80.51,-10.55 157.81,-15.55 234.98,-17.66 l 0.78,-8.92 c -157.3,6.9 -315.83,25.75 -469.68,29.89 -7.95,-12.37 -21.42,7.2 -25.79,-11.03 18.36,-7.22 46.51,7.01 68.21,-2.86 l 9.29,-5.36 c 1.24,21.28 26.2,5.66 38.57,0.52 35.1,3.07 88.46,1.94 127.66,-6.47 3.19,-2.83 0.77,-8.79 6.69,-8.28 l 2.34,5.96 c 21.15,-7.01 39.63,-14.17 59.95,-9.37 l 2.23,9.06 c 44.56,-1.81 81.63,-19.36 125.39,-15.53 -19.72,-10.8 -56.44,3.71 -82.66,1.42 -133.49,3.06 -264.75,18.5 -401.43,24.18 -16.12,13.37 -41.35,-0.72 -62.54,6.21 -62.76,6.43 -134.06,9.06 -191.13,18.81 -28.42,-11.27 -65.67,9.12 -101.3,9.28 -15.55,7.29 -33.17,-26.76 -38.36,-0.75 -9.12,2.14 -27.45,9.61 -35.18,-3.08 l -852.39,73.48 C 4896.5,6918.76 4360.3,6862.8 3901.46,6731.05 3395.58,6565.49 2966.85,6255.9 2568.01,5880.93 c -56.61,-64.13 -121.49,-131.72 -190.86,-185.25 -21.5,-22.63 -33.56,-56.32 -61.39,-76.44 l -5.75,-0.5 c 97.5,203.83 300.04,387.04 451.13,554.23 49.12,48.65 113.93,83.77 150.64,137.25 l -2.84,-0.25 c 51.24,22.09 92.59,90.84 146.27,119.15 3.25,-2.66 3.49,-5.45 6.37,-5.2 2.84,3.06 5.67,3.31 5.42,6.23 l -3.11,2.83 c 30.09,26.49 75.63,48.28 108.69,74.57 46.52,45.61 104.68,53.55 148.14,98.81 37.08,15.21 64.15,44.04 107.92,50.52 4.62,15.56 21.77,22.82 36.27,27.01 l 0.26,-2.9 c 87.16,49.33 186.78,96.44 280.6,137.09 l 9.25,-5.15 c 18.21,31.37 58.1,13.96 82.13,42.52 19.01,-12.78 49.64,7.44 69.69,15.19 -12.35,7.47 -23.37,-5 -31.88,-8.79 5.39,9.44 33.88,20.83 46.36,13.02 12.83,21.66 46.16,15.8 62.49,29.1 2.34,5.98 0.5,-5.67 3.6,-8.45 18.46,25.22 72.01,23.93 98.07,29.08 l 48.92,16.21 c -6.52,8.21 -31.87,-8.73 -49.44,-10.27 l 127.14,34.72 6.25,-5.45 c 4.89,12.35 37.05,18.23 51.68,19.51 l -2.57,-3.29 c 6.16,-5.38 14.9,-1.51 23.65,-0.74 l -15.4,7.47 c 20.58,-1.14 43.28,12.57 61.97,2.48 l 5.43,6.25 -12.37,4.86 23.47,2.06 0.51,-5.9 17.32,1.51 -0.76,8.8 c 28.55,14.45 30.6,-9.02 61.25,11.3 l -5.23,-6.4 c 8.75,0.77 24.15,-3.66 29.14,5.58 l -20.91,1.08 c 5.38,6.48 17.26,4.58 26,5.34 -1.83,-9.16 6.99,-11.31 13.14,-10.77 8.41,3.65 13.88,7.16 22.65,10.84 -4.34,11.51 -9.02,-0.79 -15.02,1.75 15.52,25.01 17.08,-25.22 28.67,8.41 3.63,-5.58 4.42,-14.52 13.17,-13.75 l 2.3,6.14 -3.08,2.79 14.63,1.28 c 0,0 -2.53,-3.28 0.27,-3.04 0.25,-2.89 0.25,-2.89 3.27,-2.63 l 5.42,6.46 -3.26,2.65 46.22,12.99 1.04,-11.79 46.65,7.02 -18.34,7.34 35.12,3.07 -4.96,-9.38 c 21.16,-7.07 37.46,9.16 61.54,5.39 l -3.61,8.63 17.53,1.53 0.78,-8.88 v 0" /><path
         id="path20"
         style="fill:#84b414;fill-opacity:1;fill-rule:nonzero;stroke:none"
         d="m 4833.44,7064.15 c 3.67,-5.67 -17.22,-7.49 -17.74,-1.55 l 17.74,1.55 v 0" /><path
         id="path22"
         style="fill:#84b414;fill-opacity:1;fill-rule:nonzero;stroke:none"
         d="m 4931.04,7063.74 -18.37,7.34 18.11,-4.4 z" /><path
         id="path24"
         style="fill:#84b414;fill-opacity:1;fill-rule:nonzero;stroke:none"
         d="m 5063.37,7072.38 0.26,-3.05 -12.34,4.93 c 2.98,0.26 8.88,0.78 12.08,-1.88 v 0" /><path
         id="path26"
         style="fill:#84b414;fill-opacity:1;fill-rule:nonzero;stroke:none"
         d="m 4394.91,7004.89 v 0 l -8.19,-6.5 -0.25,2.84 8.44,3.66" /><path
         id="path28"
         style="fill:#84b414;fill-opacity:1;fill-rule:nonzero;stroke:none"
         d="m 5568.36,7048.37 -0.27,3.07 12,-2.04 -2.53,-3.19 -9.2,2.16" /><path
         id="path30"
         style="fill:#84b414;fill-opacity:1;fill-rule:nonzero;stroke:none"
         d="m 6107.78,7001.04 c 0.26,-2.98 -5.39,-6.54 -8.22,-6.79 2.57,3.29 5.39,6.54 8.22,6.79 v 0" /><path
         id="path32"
         style="fill:#84b414;fill-opacity:1;fill-rule:nonzero;stroke:none"
         d="m 6358.24,6942.9 -0.27,3.06 11.88,1.04 0.26,-3.06 -11.87,-1.04" /><path
         id="path34"
         style="fill:#84b414;fill-opacity:1;fill-rule:nonzero;stroke:none"
         d="m 6539.04,6941.06 -2.5,-5.94 1.73,14.73 c 0,0 6.42,-5.19 0.77,-8.79 v 0" /><path
         id="path36"
         style="fill:#84b414;fill-opacity:1;fill-rule:nonzero;stroke:none"
         d="m 6561.57,6951.89 -0.25,2.9 9.17,-2.12 0.25,-2.79 -9.17,2.01" /><path
         id="path38"
         style="fill:#84b414;fill-opacity:1;fill-rule:nonzero;stroke:none"
         d="m 6585.28,6951.15 c 0.26,-2.92 -5.71,-0.5 -11.42,-1 2.8,0.25 8.05,6.44 11.42,1 v 0" /><path
         id="path40"
         style="fill:#84b414;fill-opacity:1;fill-rule:nonzero;stroke:none"
         d="m 6597.64,6946.19 c -8.25,-6.44 1.05,-11.97 4.37,-17.26 -9.01,2.15 -11.07,-6.94 -7.72,-12.52 -6.43,5.31 -20.98,4.04 -17.34,-1.52 2.54,3.08 1.76,12 -1.29,14.67 -6.43,5.36 -14.9,1.34 -21.02,0.81 7.95,9.85 -8.91,2.5 -6.72,11.47 18.47,-10.44 32.43,-0.07 49.72,4.35 v 0" /><path
         id="path42"
         style="fill:#84b414;fill-opacity:1;fill-rule:nonzero;stroke:none"
         d="m 6627.75,6940.04 -6.68,8.2 6.42,-5.16 z" /><path
         id="path44"
         style="fill:#84b414;fill-opacity:1;fill-rule:nonzero;stroke:none"
         d="m 6658.55,6927.91 c -5.19,-9.27 -35.95,2.82 -24.98,-19.74 15.19,-7.58 20.32,4.38 31.76,8.49 l -3.43,5.66 c 18.09,-1.35 13.15,18.58 29.09,2.55 l -7.72,-9.75 c 2.84,0.25 0.23,-2.59 0.5,-5.67 -3.52,8.51 -17.94,1.54 -23.17,-4.92 22.47,-18.83 27.98,17.19 48.98,12.89 4.06,21.27 21.04,-3.87 26.18,8.43 l -2.9,-3.29 c 6.76,-11.12 17.07,4.53 26.14,5.32 -11.29,-7.12 1.53,-17.51 2.07,-23.68 -32.1,-5.41 -52.79,28.06 -68.03,-2.8 22.13,-15.74 7.97,12.67 28.99,8.5 l -13.79,-10.32 78.24,-13.65 2.32,6.17 152.82,-21.91 16.24,16.03 c -18.76,-22.68 12.86,-13.49 19.54,-22.15 46.58,10.04 101.7,-11.68 146.1,-10.86 32.55,-2.91 77.05,-4.97 112.57,-4.89 84.2,-13.34 166.01,-35.8 259.63,-24.71 -21.12,4.29 -54.65,-19.65 -73.36,-6.42 -26.47,-2.31 -74.02,-0.34 -97.48,-2.39 -13.63,19.39 -41,-6.65 -62.61,5.99 2.76,0.24 -0.79,9.04 1.97,9.28 11.92,1.05 24.25,-3.63 32.51,-0.09 -15.44,7.47 -42.98,19.88 -55.95,1.02 -25.1,-19.83 -54.39,12.97 -77.03,-3.84 l -9.27,7.97 c -2.73,-2.84 -2.19,-8.97 -8.07,-9.48 -11.8,34.5 -48.65,13.59 -68.64,8.82 l 2.61,3.25 c -11.84,-1.03 -27.57,9.31 -31.91,-5.82 l -5.97,-0.52 c -3.38,5.59 5.45,6.36 4.94,12.28 -6.48,5.4 -11.89,-1.04 -20.89,1.07 l 6.94,-11.11 c -9.52,5.13 -10.02,10.84 -23.72,0.78 l -6.08,-0.53 c 2.4,6.17 7.94,9.55 4.53,18.29 -2.9,-3.32 -17.66,1.14 -16.64,-10.49 l 0.25,-2.88 -9.87,11.07 c -2.26,-12.13 -9.17,-0.8 -17.92,-1.57 -20.84,3.89 -43.24,-12.81 -62.3,3.45 11.54,3.99 21.37,-7.03 32.72,-3.35 -3.87,11.59 -33.46,11.82 -45.1,7.98 -10.52,-15.53 -27.49,9.44 -47.87,7.66 l -7.85,-12.53 -9.64,8.4 5.39,6.01 3.45,-5.24 c 16.4,16.05 44.49,-2.53 61.52,5.38 -43.03,19.5 -97.37,0.13 -132.34,-6.03 l -4.14,11.73 -5.57,-3.51 c -6.52,11.11 -30.18,6.01 -43.81,-3.83 2.04,8.83 -27.3,6.26 -36.85,14.58 l -14.44,-4.37 c 10.16,18.78 35.22,3.08 52.29,10.54 l 0.52,-5.92 47.37,-1.9 c -58.43,24.58 -140.23,14.27 -209.35,29.06 16.61,10.27 51.3,-13.2 72.93,9.4 l -21.01,3.96 23.16,5.05 -7.2,14.2 c 4.28,-14.46 30.03,-6.24 42.63,-11.1 v 0" /><path
         id="path46"
         style="fill:#84b414;fill-opacity:1;fill-rule:nonzero;stroke:none"
         d="m 6573.06,6923.37 c -5.92,-0.52 -16.91,-10.3 -17.94,1.45 l 17.94,-1.45 v 0" /><path
         id="path48"
         style="fill:#84b414;fill-opacity:1;fill-rule:nonzero;stroke:none"
         d="m 6780.79,6915.04 c 21.34,-7.24 44.22,0.97 57.1,-9.83 26.56,31.9 30.94,-18.12 62.33,-3.37 10.72,12.87 17.75,1.56 31.62,11.59 6.47,-5.4 1.01,-11.59 -2.03,-11.85 6.71,-8.57 25.49,13.91 24.64,-9.99 -12.09,1.93 -24.11,3.9 -38.78,2.62 l 12.59,-7.56 -23.51,-2.05 8.52,3.39 c -3.32,5.72 -6.93,11.53 -15.37,7.69 -6.09,-0.54 -19.52,-16.41 -31.7,-8.82 l 10.9,7 c -6.83,14.19 -26.82,3.62 -39.21,11.35 l 0.51,-5.92 15.44,-7.47 c -21.15,4.12 -70.48,-6.16 -90.52,21.7 l 16.45,13.15 1.02,-11.63 v 0" /><path
         id="path50"
         style="fill:#84b414;fill-opacity:1;fill-rule:nonzero;stroke:none"
         d="m 6807,6920.23 -6.41,5.16 5.92,0.51 z" /><path
         id="path52"
         style="fill:#84b414;fill-opacity:1;fill-rule:nonzero;stroke:none"
         d="m 6579.5,6885.71 c 5.48,3.09 14.78,-1.81 16.84,7.23 l 59.82,-6.4 c -5.84,-3.7 -13.77,-10.11 -22.5,-13.98 l -1.29,14.67 c -25.99,-8.24 -24.27,6.74 -40.66,-9.52 -18.35,10.07 -58.8,-1.95 -57.97,21.72 18.02,-1.53 44.49,0.79 45.76,-13.72 v 0" /><path
         id="path54"
         style="fill:#84b414;fill-opacity:1;fill-rule:nonzero;stroke:none"
         d="m 6896.12,6916.02 -15.03,1.83 14.76,1.29 z" /><path
         id="path56"
         style="fill:#84b414;fill-opacity:1;fill-rule:nonzero;stroke:none"
         d="m 7067.4,6883.79 0.23,-2.58 c -10.71,-12.91 -27.18,6.27 -43.93,-3.84 -12.82,13.49 -38.77,5.26 -60.18,12.37 l 17.02,4.13 -0.78,8.97 c 30.63,-6.35 58.13,-18.69 87.64,-19.05 v 0" /><path
         id="path58"
         style="fill:#84b414;fill-opacity:1;fill-rule:nonzero;stroke:none"
         d="m 7033.96,6895.9 -11.79,-1.03 c 2.87,0.25 5.16,9.11 11.3,6.62 l 0.49,-5.59" /><path
         id="path60"
         style="fill:#84b414;fill-opacity:1;fill-rule:nonzero;stroke:none"
         d="m 6672.93,6864.32 0.54,-6.09 -6.68,8.19 c 2.91,0.26 3.14,-2.37 6.14,-2.1 v 0" /><path
         id="path62"
         style="fill:#84b414;fill-opacity:1;fill-rule:nonzero;stroke:none"
         d="m 7083.74,6897.24 c -7.23,-15.25 -29.63,3.07 -35.55,2.55 l 35.55,-2.55 v 0" /><path
         id="path64"
         style="fill:#84b414;fill-opacity:1;fill-rule:nonzero;stroke:none"
         d="m 6743.21,6870.47 c 0.53,-6.09 -4.97,-9.43 -8.22,-6.86 -3.19,2.83 5.64,6.63 8.22,6.86 v 0" /><path
         id="path66"
         style="fill:#84b414;fill-opacity:1;fill-rule:nonzero;stroke:none"
         d="m 7106.62,6878.2 -29.83,0.53 -0.51,5.84 c 11.29,3.93 20.89,-4.05 30.34,-6.37 v 0" /><path
         id="path68"
         style="fill:#84b414;fill-opacity:1;fill-rule:nonzero;stroke:none"
         d="m 6863.13,6851.35 -8.98,1.94 8.75,0.77 z" /><path
         id="path70"
         style="fill:#84b414;fill-opacity:1;fill-rule:nonzero;stroke:none"
         d="m 7077.81,6867.15 -11.84,-1.04 c 2.46,5.93 5.3,6.18 11.34,6.7 l 0.5,-5.66" /><path
         id="path72"
         style="fill:#84b414;fill-opacity:1;fill-rule:nonzero;stroke:none"
         d="m 7130.2,6877.44 c -3.01,-2.99 -17.17,-7.21 -12,-1.05 l 12,1.05 v 0" /><path
         id="path74"
         style="fill:#84b414;fill-opacity:1;fill-rule:nonzero;stroke:none"
         d="m 7215.43,6882.17 2.72,2.97 18.53,-7.28 z" /><path
         id="path76"
         style="fill:#84b414;fill-opacity:1;fill-rule:nonzero;stroke:none"
         d="m 7306.01,6860.32 c -5.12,-9.27 -18.45,7.24 -22.84,-7.88 l 9.36,-5.23 c -8.61,-3.36 -29.5,32.95 -35.66,2.92 l -9.22,2.23 2.87,0.25 c -28.35,18.26 -78.53,19.59 -116.17,10.58 18.35,25.46 52.36,10.29 79.07,6.92 32.43,2.84 62.55,-3.56 92.59,-9.79 v 0" /><path
         id="path78"
         style="fill:#84b414;fill-opacity:1;fill-rule:nonzero;stroke:none"
         d="m 7176.15,6857.82 -8.9,2.28 8.63,0.76 z" /><path
         id="path80"
         style="fill:#84b414;fill-opacity:1;fill-rule:nonzero;stroke:none"
         d="m 7310.97,6872.68 c -2.82,-3.31 0.27,-3.04 0.27,-3.04 l -6.27,2.51 6,0.53 v 0" /><path
         id="path82"
         style="fill:#84b414;fill-opacity:1;fill-rule:nonzero;stroke:none"
         d="m 7337.75,6871.95 c -2.88,-3.15 -5.5,-6.23 -2.11,-11.89 3.91,-8.74 8.32,6.68 9.1,-2.24 -8.32,-6.77 -29.73,3.28 -37.7,-9.34 -1.03,11.84 21.95,19.81 30.71,23.47 v 0" /><path
         id="path84"
         style="fill:#84b414;fill-opacity:1;fill-rule:nonzero;stroke:none"
         d="m 7364.42,6871.39 c -2.73,-6.2 -14.32,-7.21 -17.46,-4.38 2.11,9 11.13,6.72 17.46,4.38 v 0" /><path
         id="path86"
         style="fill:#84b414;fill-opacity:1;fill-rule:nonzero;stroke:none"
         d="m 7371.42,6857.22 c -2.06,-9.13 -11.8,-1.03 -20.28,-4.88 l 2.22,6.24 c 6.26,-2.39 11.83,4.06 18.06,-1.36 v 0" /><path
         id="path88"
         style="fill:#84b414;fill-opacity:1;fill-rule:nonzero;stroke:none"
         d="m 7400.81,6859.79 c -8.31,-6.44 -11.64,-1.02 -20.08,-4.86 l -0.52,6 c 5.63,-2.45 14.17,1.24 20.6,-1.14 v 0" /><path
         id="path90"
         style="fill:#84b414;fill-opacity:1;fill-rule:nonzero;stroke:none"
         d="m 7239.93,6804.3 -242.69,2.42 11.67,1.02 -33.8,14.81 2.99,3.2 c 86.54,-13.14 178.45,-14.21 261.83,-21.45 v 0" /><path
         id="path92"
         style="fill:#84b414;fill-opacity:1;fill-rule:nonzero;stroke:none"
         d="m 7424.5,6858.75 -14.94,1.81 c 2.58,3.16 11.24,6.95 14.94,-1.81 v 0" /><path
         id="path94"
         style="fill:#84b414;fill-opacity:1;fill-rule:nonzero;stroke:none"
         d="m 7104.78,6828.18 5.67,6.21 14.86,-1.81 z" /><path
         id="path96"
         style="fill:#84b414;fill-opacity:1;fill-rule:nonzero;stroke:none"
         d="m 7404.67,6848.24 8.22,6.9 6.62,-5.6 z" /><path
         id="path98"
         style="fill:#84b414;fill-opacity:1;fill-rule:nonzero;stroke:none"
         d="m 7484.2,6855.2 c -9.62,-27.3 -38.6,-0.44 -55.94,-4.89 16.83,10.25 42.72,-16.8 55.94,4.89 v 0" /><path
         id="path100"
         style="fill:#84b414;fill-opacity:1;fill-rule:nonzero;stroke:none"
         d="m 7376.8,6830.81 c -5.63,-3.35 -3.84,8.78 -4.35,14.61 9.3,-2.08 4.05,-11.28 4.35,-14.61 v 0" /><path
         id="path102"
         style="fill:#84b414;fill-opacity:1;fill-rule:nonzero;stroke:none"
         d="m 7391.22,6835.43 -0.5,5.71 14.72,-1.65 z" /><path
         id="path104"
         style="fill:#84b414;fill-opacity:1;fill-rule:nonzero;stroke:none"
         d="m 7514.76,6842.88 -23.71,1.28 c 4.65,9.15 16.66,10.2 23.71,-1.28 v 0" /><path
         id="path106"
         style="fill:#84b414;fill-opacity:1;fill-rule:nonzero;stroke:none"
         d="m 7420.81,6834.66 8.46,4.1 14.68,1.28 z" /><path
         id="path108"
         style="fill:#84b414;fill-opacity:1;fill-rule:nonzero;stroke:none"
         d="m 7007.27,6792.94 -0.48,5.5 14.71,1.28 z" /><path
         id="path110"
         style="fill:#84b414;fill-opacity:1;fill-rule:nonzero;stroke:none"
         d="m 7069.19,6795.24 -0.51,5.76 15.03,-1.38 z" /><path
         id="path112"
         style="fill:#84b414;fill-opacity:1;fill-rule:nonzero;stroke:none"
         d="m 7486.25,6831.73 c -2.82,-6.13 -14.76,-4.1 -18.11,1.53 5.92,0.52 14.27,3.93 18.11,-1.53 v 0" /><path
         id="path114"
         style="fill:#84b414;fill-opacity:1;fill-rule:nonzero;stroke:none"
         d="m 7507.1,6827.68 -9.6,5.04 9.09,0.79 z" /><path
         id="path116"
         style="fill:#84b414;fill-opacity:1;fill-rule:nonzero;stroke:none"
         d="m 7138.17,6786.33 -30.03,3.38 c 7.31,18.23 18.03,-4.43 30.03,-3.38 v 0" /><path
         id="path118"
         style="fill:#84b414;fill-opacity:1;fill-rule:nonzero;stroke:none"
         d="m 7275.54,6804.35 c -3.17,-0.28 -13.26,-16.03 -17.68,-1.54 5.39,6.6 11.84,1.03 17.68,1.54 v 0" /><path
         id="path120"
         style="fill:#84b414;fill-opacity:1;fill-rule:nonzero;stroke:none"
         d="m 7206.22,6783.42 -11.55,-1.01 1.94,9.03 c 0.26,-2.92 9.09,-2.14 9.61,-8.02 v 0" /><path
         id="path122"
         style="fill:#84b414;fill-opacity:1;fill-rule:nonzero;stroke:none"
         d="m 6994.71,6770.84 c -8.57,-6.68 -17.28,-7.44 -26.3,-5.12 8.25,6.48 17.21,4.32 26.3,5.12 v 0" /><path
         id="path124"
         style="fill:#84b414;fill-opacity:1;fill-rule:nonzero;stroke:none"
         d="m 7520.64,6808.33 -70.94,-0.5 c 16.21,19.31 48.05,-7.68 70.44,6.16 l 0.5,-5.66" /><path
         id="path126"
         style="fill:#84b414;fill-opacity:1;fill-rule:nonzero;stroke:none"
         d="m 7245.15,6781.07 -12.01,-1.05 2.61,3.38 -12.33,7.45 c 8.71,0.76 20.96,-0.98 21.73,-9.78 v 0" /><path
         id="path128"
         style="fill:#84b414;fill-opacity:1;fill-rule:nonzero;stroke:none"
         d="m 7228.17,6770.6 c -2.96,-0.26 -12.23,4.89 -14.55,-4.13 l 72.36,-14.25 c -29.35,-2.57 -71.58,5.41 -93.17,18.39 l 35.36,-0.01 v 0" /><path
         id="path130"
         style="fill:#84b414;fill-opacity:1;fill-rule:nonzero;stroke:none"
         d="m 7318.69,6748.95 -23.26,-2.04 -0.53,6.09 c 6.08,-2.33 17.34,1.52 23.79,-4.05 v 0" /><path
         id="path132"
         style="fill:#84b414;fill-opacity:1;fill-rule:nonzero;stroke:none"
         d="m 7457.39,6720 -64.84,-0.16 -0.53,6.12 c 29.35,-0.45 38.78,-5.47 65.37,-5.96 v 0" /><path
         id="path134"
         style="fill:#84b414;fill-opacity:1;fill-rule:nonzero;stroke:none"
         d="m 7702.98,6717.47 c -5.43,-38.82 44.37,-66.93 3.3,-102.99 -34.15,-17.82 -42.82,-54.03 -77.04,-69.03 1.79,-20.51 -15.36,-27.97 -32.46,-32.28 l -72.3,11.23 c -32.18,-35.45 -67.71,-68.05 -100.63,-100.33 l 3.86,-5.71 -17.51,-4.38 c 13.15,-13.51 -15.75,-24.99 -20.35,-37.23 -20.86,1.28 -3.82,-24.03 -24.41,-25.83 3.08,-2.5 6.12,-2.23 12,-1.72 -8.63,-4.15 -15.97,-19.12 -23.07,-8.07 -13.97,-10.29 -3.09,-32.86 -30.36,-23.57 l 0.49,-5.62 c -6.33,5.11 -17.59,-1.54 -14.06,-10.18 -2.24,-6.12 6.35,-5.37 6.61,-8.37 2.65,6.16 14.41,7.19 20.07,7.68 l -31.51,-44 -3.99,11.49 c -9.38,4.94 -19.89,-10.77 -16.24,-16.42 6.24,-2.26 11.58,1.02 17.54,1.54 l -18.88,-22.27 c -3.66,8.67 -11.84,1.9 -14.63,-1.28 l 6.76,-8.11 -29.22,-5.87 c 19.07,-13.07 -5.69,-32.96 -17.3,-37.04 -5.56,-3.18 -8.37,-9.48 -10.72,-12.37 l 6.44,-5.44 -3.34,-0.29 0.54,-6.17 c -14.63,-1.28 -31.93,-5.61 -41.96,-24.38 l 15.06,-1.29 -17.15,-7.5 9.43,-5.1 c -6.08,-0.53 -8.4,-6.7 -7.88,-12.62 -5.67,-0.49 -23.42,-4.99 -31.75,-11.59 0.25,-2.84 3.67,-5.48 3.94,-8.56 l -5.36,-6.35 c -3.66,8.66 -12.35,4.8 -18.31,4.28 l 13.03,-13.61 c -8.92,-33.41 -41.62,5.23 -54.14,-22.54 6.87,-11.29 25.91,8.15 24.88,-12.65 -11.55,-3.83 -12.62,-24.71 -28.33,-17.01 -9.97,13.66 -32.73,-26.85 -50.14,1.32 -8.84,-0.77 -25.23,-16.99 -10.39,-18.55 -6.62,11.35 -19.89,-7.83 -28.48,-11.56 l 6.94,-11.07 -24.96,-20.03 c 18.2,-4.46 22.64,13.86 33.71,20.8 l -1.27,14.54 c 7.44,-16.9 17.39,4.76 23.06,8.11 24.21,-3.97 49.17,13.12 72.91,12.09 l -8.76,-3.62 6.46,-5.15 c -10.49,-15.95 -38.35,2.36 -49.18,-13.5 3.53,-2.42 6.22,-5.29 6.47,-8.12 -5.72,-0.5 -17.78,4.4 -21.62,12.76 l -18.81,-19.2 11.64,-2.05 -13.94,-7.23 c 3.85,-8.44 17.67,1.55 26.51,2.32 l 0.23,-2.67 20.91,-1.36 c -25.53,-13.95 -38.74,-32.95 -67.56,-41.4 l 1.09,21.01 c -14.91,1.56 -15.45,-24.95 -30.7,-20.66 -10.84,-9.47 -32.62,-32.34 -51.3,-22.29 5.56,3.59 17.67,1.54 13.78,10.48 -9.49,7.7 -17.26,-4.82 -28.6,-8.67 l 0.5,-5.67 c -16.66,18.95 -25.38,-14.36 -36.5,-21.08 12.14,-4.91 22.4,10.77 37.55,9.03 l -27.21,-26.03 c 5.16,6.34 -7.19,14.07 -15.94,13.31 -11.86,-1.04 -20.3,-7.36 -26.56,0.87 l -31.08,-20.61 c 12.98,-13.57 20.03,7.63 35.22,3.08 l -7.99,-6.66 3.34,-8.45 -5.49,-3.42 -3.52,5.62 c -11.32,-6.92 -25.18,-14.09 -36.55,-23.91 l 13.17,-10.82 c -27.34,6.69 -51.03,-25 -73.67,-38.82 l -3.25,2.57 c -8.94,-33.21 -44.89,-24.68 -56.98,-55.43 -18.32,4.49 -24.7,-22.53 -48.21,-24.59 -34.44,-47.45 -100.11,-41.44 -131.15,-91.44 3.03,0.26 3.54,-5.66 0.52,-5.92 -32.74,3.1 -55.4,-43.15 -93.29,-49.32 6.96,24.29 39.73,21.11 49.7,39.62 25.19,16.99 61.53,43.78 88.86,66.92 5.96,0.52 11.24,6.94 16.64,13.38 -4.04,11.57 -17.92,1.25 -23.07,-5.13 l 4.65,12.17 c 97.28,73.78 182.2,181.89 276.34,255.18 l 13.46,18.94 c -46.16,-15.88 -74.28,-68.82 -119.87,-84.53 27.05,28.83 61.03,46.63 69.45,82.81 l 5.9,-2.17 249.99,287.82 4.01,-8.43 15.28,25.11 6.43,-5.4 c -4.7,20.21 16.54,13.17 23.92,31.54 46.89,72.26 112.12,137.07 156.27,206.07 l 5.88,0.52 c 0.27,-3.13 -2.61,-3.38 -5.35,-6.52 29.3,2.57 39.39,56.7 72.33,53.62 29.61,32.16 59.48,64.34 93.19,85.14 l -12.44,7.78 c 1.6,14.84 17.32,4.54 22.69,10.89 l -4.36,11.42 c 85.16,10.35 140.5,86.42 232.91,79.55 18.54,25.23 44.62,-2.1 65.23,-3.36 v 0" /><path
         id="path136"
         style="fill:#84b414;fill-opacity:1;fill-rule:nonzero;stroke:none"
         d="m 7016.06,5950.79 c -3.05,-0.27 -11.01,-10.03 -11.8,-1.03 l 11.8,1.03 v 0" /><path
         id="path138"
         style="fill:#84b414;fill-opacity:1;fill-rule:nonzero;stroke:none"
         d="m 6943.47,5867.37 3.14,-2.75 -33.73,-20.59 -6.49,8.42 c -13.86,-13.06 -31.61,-11.75 -45.23,-25.08 3.61,-5.23 9.24,-1.84 12.11,-1.59 -26.01,-11.09 -38.9,-27.01 -64.85,-38.18 l 20.79,-0.96 -37.81,-9.52 c 1.04,-11.84 -26.17,-2.29 -12.89,-18.77 14.7,-1.82 31.46,11.57 46,12.85 -45.73,-15.93 -90.97,-40.39 -132.7,-70.75 l 9.57,-8.15 c -10.88,-9.6 -17.61,1.65 -31.77,-5.47 6.93,-14.43 -17.28,-7.47 -22.13,-19.83 -11.02,-6.93 -21.83,-22.66 -40.1,-15.43 46.23,13.07 68.45,64.99 117.33,78.47 l 79.79,69.23 -2.25,-6.42 c 23.03,5.13 41.26,32.97 57.6,49.48 l 3.63,-5.48 48.98,48.43 c 21.27,-9.86 31.58,8.73 48.8,13.47 -1.54,17.59 17.59,1.54 22.68,13.49 13.84,-22.39 -27.8,-23.14 -40.47,-44.87 v 0" /><path
         id="path140"
         style="fill:#84b414;fill-opacity:1;fill-rule:nonzero;stroke:none"
         d="m 6911.35,5861.53 30.83,20.6 5.71,0.5 z" /><path
         id="path142"
         style="fill:#84b414;fill-opacity:1;fill-rule:nonzero;stroke:none"
         d="m 6858.06,5862.76 c 7.49,-16.95 -11.3,-6.88 -16.12,-19.01 l -3.42,5.45 c 12.07,-1.63 7.98,9.69 19.54,13.56 v 0" /><path
         id="path144"
         style="fill:#84b414;fill-opacity:1;fill-rule:nonzero;stroke:none"
         d="m 6929.06,5863.08 -0.26,3.01 5.71,0.5 0.26,-3.01 -5.71,-0.5" /><path
         id="path146"
         style="fill:#84b414;fill-opacity:1;fill-rule:nonzero;stroke:none"
         d="m 6845.72,5832.19 -8.77,5.2 8.26,0.72 z" /><path
         id="path148"
         style="fill:#84b414;fill-opacity:1;fill-rule:nonzero;stroke:none"
         d="m 6885.36,5821.04 c 0.54,-6.13 -12.91,-18.94 -24.44,-23.06 -1.28,14.64 12.85,22.05 24.44,23.06 v 0" /><path
         id="path150"
         style="fill:#84b414;fill-opacity:1;fill-rule:nonzero;stroke:none"
         d="m 6767.17,5787.14 -6.14,2.11 5.91,0.51 z" /><path
         id="path152"
         style="fill:#84b414;fill-opacity:1;fill-rule:nonzero;stroke:none"
         d="m 6857.87,5797.72 c -5.23,-9.03 -13.45,-15.96 -21.95,-16.7 -0.78,8.92 13.12,13.28 21.95,16.7 v 0" /><path
         id="path154"
         style="fill:#84b414;fill-opacity:1;fill-rule:nonzero;stroke:none"
         d="m 6792.07,5738.79 -3,-0.26 c -6.1,5.43 8.32,6.69 10.31,15.6 3.58,-5.4 -1.73,-11.95 -7.31,-15.34 v 0" /><path
         id="path156"
         style="fill:#84b414;fill-opacity:1;fill-rule:nonzero;stroke:none"
         d="m 6784,5732.12 c -39.65,-21.07 -66.15,-56.1 -111.8,-74.88 42.48,18.5 65.38,62.04 111.8,74.88 v 0" /><path
         id="path158"
         style="fill:#84b414;fill-opacity:1;fill-rule:nonzero;stroke:none"
         d="m 6661.16,5647.45 -3.22,2.74 2.96,0.26 z" /><path
         id="path160"
         style="fill:#84b414;fill-opacity:1;fill-rule:nonzero;stroke:none"
         d="m 6594.49,5629.94 6.42,-5.32 c -7.95,-9.85 -29.38,-2.57 -33.96,-17.92 -5.14,26.1 24.7,22.99 40.93,39.11 l -13.39,-15.87" /><path
         id="path162"
         style="fill:#84b414;fill-opacity:1;fill-rule:nonzero;stroke:none"
         d="m 6599.44,5606.52 44.49,33.46 c 1.8,-20.59 -30.42,-26.27 -44.49,-33.46 v 0" /><path
         id="path164"
         style="fill:#84b414;fill-opacity:1;fill-rule:nonzero;stroke:none"
         d="m 6516,5614 5.05,9.52 5.95,0.52 z" /><path
         id="path166"
         style="fill:#84b414;fill-opacity:1;fill-rule:nonzero;stroke:none"
         d="m 6528.08,5576.67 c -25.8,-5.11 -40.4,-44.86 -64.68,-35.31 l -0.79,9.08 5.86,0.52 -2.68,-3.51 c 6.13,-2.15 20.36,1.78 16.77,10.45 9.25,-4.9 22.32,13.89 28.23,17.26 l -6.15,-0.54 c 2.13,9.01 17.26,7.48 22.68,10.81 l 30.42,26.26 c 7.93,-22.91 -31.97,-8.59 -29.66,-35.02 v 0" /><path
         id="path168"
         style="fill:#84b414;fill-opacity:1;fill-rule:nonzero;stroke:none"
         d="m 6594.49,5597.26 v 0 l -6.47,5.32 c 3.13,0.27 6.2,-2.23 6.47,-5.32 v 0" /><path
         id="path170"
         style="fill:#84b414;fill-opacity:1;fill-rule:nonzero;stroke:none"
         d="m 6586.05,5590.56 c 3.49,-5.32 -5.51,-3.33 -11.43,-3.85 l 7.95,9.51 3.48,-5.66 v 0" /><path
         id="path172"
         style="fill:#84b414;fill-opacity:1;fill-rule:nonzero;stroke:none"
         d="m 6569.27,5580.27 c 0.24,-2.83 -2.33,-6.08 -2.33,-6.08 l -0.51,5.84 2.84,0.24 v 0" /><path
         id="path174"
         style="fill:#84b414;fill-opacity:1;fill-rule:nonzero;stroke:none"
         d="m 6558.1,5573.42 -2.49,-6.1 -3.42,5.58 c 0,0 5.65,3.52 5.91,0.52 v 0" /><path
         id="path176"
         style="fill:#84b414;fill-opacity:1;fill-rule:nonzero;stroke:none"
         d="m 6384.45,5528.57 1.9,11.93 8.87,0.78 z" /><path
         id="path178"
         style="fill:#84b414;fill-opacity:1;fill-rule:nonzero;stroke:none"
         d="m 6464.16,5532.69 0.51,-5.84 c -18.47,7.13 -36.72,-21.19 -51.17,-25.05 l 13.17,18.54 c -0.28,3.17 -5.92,-0.52 -3.18,2.91 l 17.57,1.54 -9.27,5.07 2.84,0.25 c 4.66,-17.23 19.54,13.64 29.53,2.58 v 0" /><path
         id="path180"
         style="fill:#84b414;fill-opacity:1;fill-rule:nonzero;stroke:none"
         d="m 6412.5,5513.22 2.18,6.07 3.25,0.29 z" /><path
         id="path182"
         style="fill:#84b414;fill-opacity:1;fill-rule:nonzero;stroke:none"
         d="m 6382.43,5483.88 25.65,14.34 -25.14,-20.1 z" /><path
         id="path184"
         style="fill:#84b414;fill-opacity:1;fill-rule:nonzero;stroke:none"
         d="m 6374.86,5468.68 c -5.71,-0.5 -11.3,-3.84 -17.19,-4.36 l 13.34,15.95 c 3.09,-2.92 3.61,-8.84 3.85,-11.59 v 0" /><path
         id="path186"
         style="fill:#84b414;fill-opacity:1;fill-rule:nonzero;stroke:none"
         d="m 6351.48,5466.64 -5.92,-0.52 2.53,6.1 c 5.53,3.34 3.15,-2.84 3.39,-5.58 v 0" /><path
         id="path188"
         style="fill:#84b414;fill-opacity:1;fill-rule:nonzero;stroke:none"
         d="m 6331.89,5453.16 -6.05,-0.53 2.48,9.12 c 2.79,0.25 3.32,-5.76 3.57,-8.59 v 0" /><path
         id="path190"
         style="fill:#84b414;fill-opacity:1;fill-rule:nonzero;stroke:none"
         d="m 4790.31,6442.15 2.69,3.09 9.13,-2.06 z" /><path
         id="path192"
         style="fill:#84b414;fill-opacity:1;fill-rule:nonzero;stroke:none"
         d="m 4587.85,6388.82 c -5.44,-6.28 -29.66,3.41 -42.27,11.17 l -3.88,8.65 c 14.94,1.31 33.19,-6.09 46.15,-19.82 v 0" /><path
         id="path194"
         style="fill:#84b414;fill-opacity:1;fill-rule:nonzero;stroke:none"
         d="m 4833.13,6425.14 2.81,3.15 33.7,-14.82 -2.86,-3.07 -33.65,14.74" /><path
         id="path196"
         style="fill:#84b414;fill-opacity:1;fill-rule:nonzero;stroke:none"
         d="m 6588.5,6510.68 c 0.51,-5.84 -11.47,-3.86 -14.47,-4.13 -6.39,5.41 8.15,9.58 14.47,4.13 v 0" /><path
         id="path198"
         style="fill:#84b414;fill-opacity:1;fill-rule:nonzero;stroke:none"
         d="m 6477.98,6489.2 c 0.25,-2.87 -2.75,-3.13 -5.39,-6.47 l -3.11,2.83 2.07,9 20.98,-4.08 -14.55,-1.28 v 0" /><path
         id="path200"
         style="fill:#84b414;fill-opacity:1;fill-rule:nonzero;stroke:none"
         d="m 6451.51,6486.89 -2.79,-3.14 -6.18,5.34 c 5.42,3.41 5.67,0.5 8.97,-2.2 v 0" /><path
         id="path202"
         style="fill:#84b414;fill-opacity:1;fill-rule:nonzero;stroke:none"
         d="m 6507.2,6491.76 -11.93,1.94 8.71,0.76 z" /><path
         id="path204"
         style="fill:#84b414;fill-opacity:1;fill-rule:nonzero;stroke:none"
         d="m 6419.19,6484.06 -0.26,2.96 14.87,-1.68 0.25,-2.88 -14.86,1.6" /><path
         id="path206"
         style="fill:#84b414;fill-opacity:1;fill-rule:nonzero;stroke:none"
         d="m 6390.26,6478.63 c 0.79,-9 -13.82,-10.28 -22.9,-11.07 5.15,9.52 13.86,13.18 22.9,11.07 v 0" /><path
         id="path208"
         style="fill:#84b414;fill-opacity:1;fill-rule:nonzero;stroke:none"
         d="m 6361.21,6470.09 c -2.07,-9 -11.59,-1.02 -14.94,1.59 5.94,0.52 11.86,1.04 14.94,-1.59 v 0" /><path
         id="path210"
         style="fill:#84b414;fill-opacity:1;fill-rule:nonzero;stroke:none"
         d="m 6209.53,6448 -8.96,-0.79 c -3.29,5.47 2.54,5.98 8.46,6.5 l 0.5,-5.71" /><path
         id="path212"
         style="fill:#84b414;fill-opacity:1;fill-rule:nonzero;stroke:none"
         d="m 6305.94,6459.5 0.27,-3.05 -12.17,4.69 c 5.96,0.52 9.25,-4.94 11.9,-1.64 v 0" /><path
         id="path214"
         style="fill:#84b414;fill-opacity:1;fill-rule:nonzero;stroke:none"
         d="m 6194.71,6446.7 -31.43,-11.61 c 5.43,6.19 19.22,19.36 31.43,11.61 v 0" /><path
         id="path216"
         style="fill:#84b414;fill-opacity:1;fill-rule:nonzero;stroke:none"
         d="m 6265.2,6452.87 c 0,0 0.27,-3.13 -2.61,-3.38 l -3.04,-0.27 -0.54,6.17 c 3.04,0.27 5.92,0.52 6.19,-2.52 v 0" /><path
         id="path218"
         style="fill:#84b414;fill-opacity:1;fill-rule:nonzero;stroke:none"
         d="m 6291.72,6455.19 -14.95,1.75 11.54,1.01 z" /><path
         id="path220"
         style="fill:#84b414;fill-opacity:1;fill-rule:nonzero;stroke:none"
         d="m 6139.87,6430.01 -8.78,-0.77 c -0.26,3.01 2.37,8.95 8.26,6.69 l 0.52,-5.92" /><path
         id="path222"
         style="fill:#84b414;fill-opacity:1;fill-rule:nonzero;stroke:none"
         d="m 6135.24,6417.85 c -4.67,17.31 -23.74,0.86 -38.91,5.5 2.55,3.08 39.97,15.09 38.91,-5.5 v 0" /><path
         id="path224"
         style="fill:#84b414;fill-opacity:1;fill-rule:nonzero;stroke:none"
         d="m 6219.09,6439.97 c -13.16,-19.05 -46.51,-9.95 -66.64,-17.67 10.34,18.46 46.88,6.95 66.64,17.67 v 0" /><path
         id="path226"
         style="fill:#84b414;fill-opacity:1;fill-rule:nonzero;stroke:none"
         d="m 5997.55,6402.69 66.41,17.83 23.62,2.06 z" /><path
         id="path228"
         style="fill:#84b414;fill-opacity:1;fill-rule:nonzero;stroke:none"
         d="m 5983.33,6395.66 -0.77,8.83 9.01,0.79 z" /><path
         id="path230"
         style="fill:#84b414;fill-opacity:1;fill-rule:nonzero;stroke:none"
         d="m 6094.54,6411.18 c -2.69,-3.09 -19.83,-13.62 -29.29,-5.42 -36.09,-26.93 -87.53,-13.58 -127.1,-34.89 45.18,24.79 101.06,29.68 156.39,40.31 v 0" /><path
         id="path232"
         style="fill:#84b414;fill-opacity:1;fill-rule:nonzero;stroke:none"
         d="m 5916.19,6383.69 28.88,8.62 17.63,1.54 z" /><path
         id="path234"
         style="fill:#84b414;fill-opacity:1;fill-rule:nonzero;stroke:none"
         d="m 5807.88,6371.4 c 0.51,-5.92 -16.82,-7.43 -14.46,-1.27 l 14.46,1.27 v 0" /><path
         id="path236"
         style="fill:#84b414;fill-opacity:1;fill-rule:nonzero;stroke:none"
         d="m 5925.94,6375.77 c -5.34,-6.44 -17.03,-7.46 -22.64,-10.76 l -0.77,8.71 c 5.86,0.51 17.55,1.53 23.41,2.05 v 0" /><path
         id="path238"
         style="fill:#84b414;fill-opacity:1;fill-rule:nonzero;stroke:none"
         d="m 5891.44,6363.97 -48.71,-16.23 c 8.39,3.76 27.58,23.16 48.71,16.23 v 0" /><path
         id="path240"
         style="fill:#84b414;fill-opacity:1;fill-rule:nonzero;stroke:none"
         d="m 6109.7,6371.1 c 0.48,-5.47 -2.31,-5.71 -5.17,-9.28 l -3.56,8.51 8.73,0.77 v 0" /><path
         id="path242"
         style="fill:#84b414;fill-opacity:1;fill-rule:nonzero;stroke:none"
         d="m 6024.98,6358.18 c -5.71,-0.5 -11.21,-7.2 -20.05,-5.07 2.07,9 14.13,6.95 20.05,5.07 v 0" /><path
         id="path244"
         style="fill:#84b414;fill-opacity:1;fill-rule:nonzero;stroke:none"
         d="m 6060.57,6357.98 c 0.26,-2.88 -14.33,-7.05 -22.94,-7.81 5.44,6.28 13.88,10.33 22.94,7.81 v 0" /><path
         id="path246"
         style="fill:#84b414;fill-opacity:1;fill-rule:nonzero;stroke:none"
         d="m 6078.04,6359.51 c 0.25,-2.88 -5.46,-3.38 -11.28,-3.89 -0.74,8.54 8.46,3.64 11.28,3.89 v 0" /><path
         id="path248"
         style="fill:#84b414;fill-opacity:1;fill-rule:nonzero;stroke:none"
         d="m 6110.97,6356.59 c -11.57,-1.01 -23.03,-7.98 -34.97,-6.17 8.44,6.75 23.4,5.16 34.97,6.17 v 0" /><path
         id="path250"
         style="fill:#84b414;fill-opacity:1;fill-rule:nonzero;stroke:none"
         d="m 5906.37,6329.87 c -5.41,-6.57 -20.08,-7.85 -28.59,-11.66 1.88,12.18 20.12,7.64 28.59,11.66 v 0" /><path
         id="path252"
         style="fill:#84b414;fill-opacity:1;fill-rule:nonzero;stroke:none"
         d="m 5543.7,6283.4 c -53.07,-34.51 -124.24,-34.69 -184.3,-57.75 50.4,34.06 124.48,31.56 184.3,57.75 v 0" /><path
         id="path254"
         style="fill:#84b414;fill-opacity:1;fill-rule:nonzero;stroke:none"
         d="m 5659.02,6281.51 -14.95,4.45 12.11,-4.69 z" /><path
         id="path256"
         style="fill:#84b414;fill-opacity:1;fill-rule:nonzero;stroke:none"
         d="m 5324.65,6216.86 c -5.16,-9.4 -14.16,-7.29 -20,-7.8 l 13.3,16.03 6.7,-8.23 v 0" /><path
         id="path258"
         style="fill:#84b414;fill-opacity:1;fill-rule:nonzero;stroke:none"
         d="m 5214.98,6186.47 c 16.25,16.17 54.2,19.49 77.73,24.44 l -77.73,-24.44 v 0" /><path
         id="path260"
         style="fill:#84b414;fill-opacity:1;fill-rule:nonzero;stroke:none"
         d="m 5191.49,6184.42 c 0.77,-8.76 -11.25,-7.04 -17.14,-7.55 2.33,6.25 11.23,7.03 17.14,7.55 v 0" /><path
         id="path262"
         style="fill:#84b414;fill-opacity:1;fill-rule:nonzero;stroke:none"
         d="m 4886.85,6116.18 2.34,6.17 12.31,-1.7 z" /><path
         id="path264"
         style="fill:#84b414;fill-opacity:1;fill-rule:nonzero;stroke:none"
         d="m 4908.22,6106.21 -0.53,6 12.11,1.06 z" /><path
         id="path266"
         style="fill:#84b414;fill-opacity:1;fill-rule:nonzero;stroke:none"
         d="m 4835.09,6099.81 -0.53,6 11.85,-1.73 z" /><path
         id="path268"
         style="fill:#84b414;fill-opacity:1;fill-rule:nonzero;stroke:none"
         d="m 4902.8,6105.73 -9.07,-3.39 -3.28,5.59 c 5.87,0.51 8.47,3.51 12.35,-2.2 v 0" /><path
         id="path270"
         style="fill:#84b414;fill-opacity:1;fill-rule:nonzero;stroke:none"
         d="m 4885.04,6101.58 -22.89,-8.22 c 5.86,0.51 10.71,13.03 22.89,8.22 v 0" /><path
         id="path272"
         style="fill:#84b414;fill-opacity:1;fill-rule:nonzero;stroke:none"
         d="m 4839.45,6082.55 8.78,0.77 c -5.24,-6.38 -13.47,-13.11 -25.55,-11.1 l 16.77,10.33 c -3.09,2.76 -5.73,-0.5 -5.73,-0.5 2.13,9 17.14,4.52 22.45,13.94 l -16.72,-13.44" /><path
         id="path274"
         style="fill:#84b414;fill-opacity:1;fill-rule:nonzero;stroke:none"
         d="m 4803.92,6085.41 c 3.13,-2.67 3.4,-5.67 3.91,-11.55 l 11.8,-1.91 c -15.72,-21.91 -30.42,9.23 -40.11,-15.39 -0.76,8.75 -4.65,20.34 6.88,24.38 l -43.71,-9.75 c 13.93,12.93 34.26,14.71 49.94,7.27 -0.77,8.75 8.47,3.76 11.29,6.95 v 0" /><path
         id="path276"
         style="fill:#84b414;fill-opacity:1;fill-rule:nonzero;stroke:none"
         d="m 4923.93,6098.76 c 3.74,-8.49 -5.48,-6.27 -8.01,-9.52 l -0.77,8.75 8.78,0.77 v 0" /><path
         id="path278"
         style="fill:#84b414;fill-opacity:1;fill-rule:nonzero;stroke:none"
         d="m 3242.69,5942.86 -23.34,-2.05 -0.52,5.92 c 8.53,3.6 14.78,-1.65 23.86,-3.87 v 0" /><path
         id="path280"
         style="fill:#84b414;fill-opacity:1;fill-rule:nonzero;stroke:none"
         d="m 4855.38,6069.2 c 8.05,9.53 33.76,20.72 54.37,19.5 l -54.37,-19.5 v 0" /><path
         id="path282"
         style="fill:#84b414;fill-opacity:1;fill-rule:nonzero;stroke:none"
         d="m 4713.82,6065.64 8.53,3.77 8.9,0.78 z" /><path
         id="path284"
         style="fill:#84b414;fill-opacity:1;fill-rule:nonzero;stroke:none"
         d="m 4752.97,6057.34 1.31,-14.96 54.84,16.77 c -22.72,-10.64 -51.49,-22.19 -77.02,-33.2 l 19.08,16.16 c -3.06,3.05 -5.9,-0.52 -8.98,2.53 0,0 8.19,6.48 7.94,9.35 l -57.4,-19.64 c 20.05,7.72 40.66,44.89 60.23,22.99 v 0" /><path
         id="path286"
         style="fill:#84b414;fill-opacity:1;fill-rule:nonzero;stroke:none"
         d="m 4714.58,6056.88 c -2.29,-9.1 -26.13,-8.29 -37.09,-15 6.74,24.19 29.34,2.56 37.09,15 v 0" /><path
         id="path288"
         style="fill:#84b414;fill-opacity:1;fill-rule:nonzero;stroke:none"
         d="m 4670.36,6053.01 3.57,-2.58 -5.4,-6.48 -0.25,2.87 2.08,6.19" /><path
         id="path290"
         style="fill:#84b414;fill-opacity:1;fill-rule:nonzero;stroke:none"
         d="m 4788.47,6024.92 c 33.97,14.9 76.75,33.38 118.16,37 l -118.16,-37 v 0" /><path
         id="path292"
         style="fill:#84b414;fill-opacity:1;fill-rule:nonzero;stroke:none"
         d="m 4827.04,6022.29 120.58,40.33 6.07,0.53 z" /><path
         id="path294"
         style="fill:#84b414;fill-opacity:1;fill-rule:nonzero;stroke:none"
         d="m 4639.43,6035.65 3.15,-3.04 -8.32,-3.38 -3,-0.26 8.17,6.68" /><path
         id="path296"
         style="fill:#84b414;fill-opacity:1;fill-rule:nonzero;stroke:none"
         d="m 4590.55,6022.34 5.47,3.55 -5.47,-3.55" /><path
         id="path298"
         style="fill:#84b414;fill-opacity:1;fill-rule:nonzero;stroke:none"
         d="m 4539.27,6000.26 -3.06,-0.27 13.41,12.81 c 3.7,-8.46 -4.6,-12.04 -10.35,-12.54 v 0" /><path
         id="path300"
         style="fill:#84b414;fill-opacity:1;fill-rule:nonzero;stroke:none"
         d="m 3444.42,5901.32 -27.34,9.58 c 11.86,1.04 23.72,-0.82 27.34,-9.58 v 0" /><path
         id="path302"
         style="fill:#84b414;fill-opacity:1;fill-rule:nonzero;stroke:none"
         d="m 4953.53,6030.45 28.51,11.4 -11.3,-6.99 z" /><path
         id="path304"
         style="fill:#84b414;fill-opacity:1;fill-rule:nonzero;stroke:none"
         d="m 3459.09,5902.61 -9.25,5.19 8.73,0.77 z" /><path
         id="path306"
         style="fill:#84b414;fill-opacity:1;fill-rule:nonzero;stroke:none"
         d="m 4719.18,6004.32 2.84,0.25 -8.23,-6.73 -2.86,-0.24 8.25,6.72" /><path
         id="path308"
         style="fill:#84b414;fill-opacity:1;fill-rule:nonzero;stroke:none"
         d="m 5006.78,6029.48 c -8.27,-6.72 -13.68,-13.29 -25.57,-11.56 5.63,3.81 16.78,10.79 25.57,11.56 v 0" /><path
         id="path310"
         style="fill:#84b414;fill-opacity:1;fill-rule:nonzero;stroke:none"
         d="m 4775.64,5999.94 2.65,3.55 2.98,0.26 z" /><path
         id="path312"
         style="fill:#84b414;fill-opacity:1;fill-rule:nonzero;stroke:none"
         d="m 4975.07,6020.7 c -33.47,-23.84 -89.3,-28.72 -131.84,-47.31 l 0.5,-5.71 c -34.68,-9.09 -86.61,-25.39 -106.72,-30.3 74.35,27.46 156.77,64.28 238.06,83.32 v 0" /><path
         id="path314"
         style="fill:#84b414;fill-opacity:1;fill-rule:nonzero;stroke:none"
         d="m 4574.76,5964.77 -8.67,-0.76 c -0.5,5.75 5.42,3.33 8.67,0.76 v 0" /><path
         id="path316"
         style="fill:#84b414;fill-opacity:1;fill-rule:nonzero;stroke:none"
         d="m 4686.23,5941.97 76.55,36.14 9.39,-4.77 z" /><path
         id="path318"
         style="fill:#84b414;fill-opacity:1;fill-rule:nonzero;stroke:none"
         d="m 4864.64,5963.45 c -14.42,-3.95 -7.18,-18.35 -27.97,-17.35 4.56,15.31 16.85,10.5 27.97,17.35 v 0" /><path
         id="path320"
         style="fill:#84b414;fill-opacity:1;fill-rule:nonzero;stroke:none"
         d="m 4765.29,5916.54 2.1,8.92 -12.11,1.89 c 23.18,7.9 46.78,6.94 69.76,17.73 l -59.75,-28.54" /><path
         id="path322"
         style="fill:#84b414;fill-opacity:1;fill-rule:nonzero;stroke:none"
         d="m 3754.29,5842.63 -12.19,4.89 8.82,0.77 z" /><path
         id="path324"
         style="fill:#84b414;fill-opacity:1;fill-rule:nonzero;stroke:none"
         d="m 4306.84,5882.4 2.94,0.25 -0.24,2.76 -2.94,-0.26 0.24,-2.75" /><path
         id="path326"
         style="fill:#84b414;fill-opacity:1;fill-rule:nonzero;stroke:none"
         d="m 4761.96,5918.86 c -2.55,-2.83 -11.38,-3.6 -16.84,-7.27 2.42,6 7.86,9.84 16.84,7.27 v 0" /><path
         id="path328"
         style="fill:#84b414;fill-opacity:1;fill-rule:nonzero;stroke:none"
         d="m 4614.5,5882.56 -0.25,2.88 17.76,-1.35 z" /><path
         id="path330"
         style="fill:#84b414;fill-opacity:1;fill-rule:nonzero;stroke:none"
         d="m 4563.23,5857.29 c 4.94,12.14 23.38,5.15 28.07,20.18 l 6.44,-5.45 -34.51,-14.73 v 0" /><path
         id="path332"
         style="fill:#84b414;fill-opacity:1;fill-rule:nonzero;stroke:none"
         d="m 3714.33,5688.43 c 65.59,29.34 104.78,56.38 170.89,76.99 -47.63,-27.82 -110.34,-57.03 -170.89,-76.99 v 0" /><path
         id="path334"
         style="fill:#84b414;fill-opacity:1;fill-rule:nonzero;stroke:none"
         d="m 3425.29,5580.19 c -5.45,-6.23 -17.07,-7.24 -22.67,-10.93 2.16,6.24 14.19,7.29 22.67,10.93 v 0" /><path
         id="path336"
         style="fill:#84b414;fill-opacity:1;fill-rule:nonzero;stroke:none"
         d="m 3393.86,5568.49 c -5.9,-3.28 -10.65,-12.6 -16.94,-10.3 -0.28,3.22 10.52,12.94 16.94,10.3 v 0" /><path
         id="path338"
         style="fill:#84b414;fill-opacity:1;fill-rule:nonzero;stroke:none"
         d="m 3910.67,5575.41 c -12.43,7.81 -11.41,-3.86 -20.28,-1.78 -10.88,-12.67 -30.46,-23.45 -57.16,-25.79 -5.93,-0.52 -14.71,1.87 -12.69,10.86 31.93,8.76 56.92,25.69 91.16,40.4 11.98,-1.81 -1.55,-17.78 -1.03,-23.69 v 0" /><path
         id="path340"
         style="fill:#84b414;fill-opacity:1;fill-rule:nonzero;stroke:none"
         d="m 3563.51,5556.92 0.26,-2.96 -5.71,-3.44 -3.34,2.65 8.79,3.75" /><path
         id="path342"
         style="fill:#84b414;fill-opacity:1;fill-rule:nonzero;stroke:none"
         d="m 3214.71,5485.2 -3.04,-0.26 7.97,12.37 c 0.27,-3.13 3.91,-11.34 -4.93,-12.11 v 0" /><path
         id="path344"
         style="fill:#84b414;fill-opacity:1;fill-rule:nonzero;stroke:none"
         d="m 3189.14,5474.1 5.5,6.24 2.73,0.23 z" /><path
         id="path346"
         style="fill:#84b414;fill-opacity:1;fill-rule:nonzero;stroke:none"
         d="m 3182.99,5476.21 c 3.46,-5.49 -5.5,-6.28 -8.11,-9.28 -0.52,5.88 2.11,8.75 8.11,9.28 v 0" /><path
         id="path348"
         style="fill:#84b414;fill-opacity:1;fill-rule:nonzero;stroke:none"
         d="m 3155.01,5458.98 c 0.25,-2.84 -11.57,-3.87 -9.2,2.26 3.08,0.27 8.66,3.9 9.2,-2.26 v 0" /><path
         id="path350"
         style="fill:#84b414;fill-opacity:1;fill-rule:nonzero;stroke:none"
         d="m 3129.33,5447.91 c 0.51,-5.84 -5.65,-3.61 -11.49,-4.12 -0.51,5.88 8.66,3.87 11.49,4.12 v 0" /><path
         id="path352"
         style="fill:#84b414;fill-opacity:1;fill-rule:nonzero;stroke:none"
         d="m 3103.75,5436.85 v 0 l -34.04,-17.76 z" /><path
         id="path354"
         style="fill:#84b414;fill-opacity:1;fill-rule:nonzero;stroke:none"
         d="m 3691.13,5482.19 c -2.79,-0.24 -5.4,-6.18 -8.5,-3.43 l -0.49,5.59 c 2.84,0.25 5.68,3.6 8.99,-2.16 v 0" /><path
         id="path356"
         style="fill:#84b414;fill-opacity:1;fill-rule:nonzero;stroke:none"
         d="m 3663.03,5465.03 -3.56,8.68 8.74,0.77 z" /><path
         id="path358"
         style="fill:#84b414;fill-opacity:1;fill-rule:nonzero;stroke:none"
         d="m 3046.81,5411.12 c 6.16,-5.42 -5.76,-3.36 -11.45,-6.97 -3.31,5.68 8.61,6.72 11.45,6.97 v 0" /><path
         id="path360"
         style="fill:#84b414;fill-opacity:1;fill-rule:nonzero;stroke:none"
         d="m 3021.28,5396.83 c 0.23,-2.66 -2.69,-2.92 -5.73,-3.19 l 5.2,9.24 c 2.88,0.25 3.41,-5.8 0.53,-6.05 v 0" /><path
         id="path362"
         style="fill:#84b414;fill-opacity:1;fill-rule:nonzero;stroke:none"
         d="m 3006.84,5392.88 c 0.52,-5.96 -16.76,-10.28 -14.93,1.38 l 14.93,-1.38 v 0" /><path
         id="path364"
         style="fill:#84b414;fill-opacity:1;fill-rule:nonzero;stroke:none"
         d="m 2981.3,5381.83 -12.33,4.84 8.88,0.78 z" /><path
         id="path366"
         style="fill:#84b414;fill-opacity:1;fill-rule:nonzero;stroke:none"
         d="m 2987.27,5382.35 -3.46,2.51 8.86,0.78 z" /><path
         id="path368"
         style="fill:#84b414;fill-opacity:1;fill-rule:nonzero;stroke:none"
         d="m 2930.07,5359.66 c 0.52,-5.91 -8.3,-9.84 -17.24,-7.47 2.62,2.92 11.58,3.71 17.24,7.47 v 0" /><path
         id="path370"
         style="fill:#84b414;fill-opacity:1;fill-rule:nonzero;stroke:none"
         d="m 2881.9,5334.66 c 6.19,-2.53 -2.76,-3.31 -2.49,-6.31 l -3.47,5.79 5.96,0.52 v 0" /><path
         id="path372"
         style="fill:#84b414;fill-opacity:1;fill-rule:nonzero;stroke:none"
         d="m 2839.11,5316.09 -0.5,5.75 15.05,-1.83 z" /><path
         id="path374"
         style="fill:#84b414;fill-opacity:1;fill-rule:nonzero;stroke:none"
         d="m 2787.96,5293.89 c 3.15,-5.77 -2.77,-3.1 -5.27,-9.36 -6,2.33 1.99,12.1 5.27,9.36 v 0" /><path
         id="path376"
         style="fill:#84b414;fill-opacity:1;fill-rule:nonzero;stroke:none"
         d="m 2757.24,5270.37 -5.92,-0.52 2.67,6.2 c 2.98,-2.68 3.25,-5.68 3.25,-5.68 v 0" /><path
         id="path378"
         style="fill:#84b414;fill-opacity:1;fill-rule:nonzero;stroke:none"
         d="m 2734.7,5259.58 -0.76,8.75 5.88,0.52 z" /><path
         id="path380"
         style="fill:#84b414;fill-opacity:1;fill-rule:nonzero;stroke:none"
         d="m 2691.95,5241.05 -12.54,7.73 6.06,-2.33 z" /><path
         id="path382"
         style="fill:#84b414;fill-opacity:1;fill-rule:nonzero;stroke:none"
         d="m 2657.99,5223.3 -8.77,-0.77 2.1,9.09 c 3.07,0.27 3.58,-5.57 6.67,-8.32 v 0" /><path
         id="path384"
         style="fill:#84b414;fill-opacity:1;fill-rule:nonzero;stroke:none"
         d="m 5306.34,5410.39 -2.07,23.68 c 3.25,-2.57 4.28,-14.41 2.07,-23.68 v 0" /><path
         id="path386"
         style="fill:#84b414;fill-opacity:1;fill-rule:nonzero;stroke:none"
         d="m 2485.14,5137.11 -5.84,-0.51 c -0.27,3.17 2.63,6.03 5.56,3.68 l 0.28,-3.17" /><path
         id="path388"
         style="fill:#84b414;fill-opacity:1;fill-rule:nonzero;stroke:none"
         d="m 4789.31,5202.78 0.51,-5.83 -9.8,10.99 c 5.46,3.33 9.04,-2.32 9.29,-5.16 v 0" /><path
         id="path390"
         style="fill:#84b414;fill-opacity:1;fill-rule:nonzero;stroke:none"
         d="m 4888.19,5155.41 0.52,-6 c -3.11,2.41 -14.69,-1.29 -9.57,8.06 2.84,0.25 5.92,0.52 9.05,-2.06 v 0" /><path
         id="path392"
         style="fill:#84b414;fill-opacity:1;fill-rule:nonzero;stroke:none"
         d="m 3845.42,5037.42 -24.9,15.34 c 9.44,-4.72 20.84,-3.72 24.9,-15.34 v 0" /><path
         id="path394"
         style="fill:#84b414;fill-opacity:1;fill-rule:nonzero;stroke:none"
         d="m 4898.4,5138.24 -6.58,8.25 3.07,0.26 z" /><path
         id="path396"
         style="fill:#84b414;fill-opacity:1;fill-rule:nonzero;stroke:none"
         d="m 4904.89,5097.46 -10.02,14.16 c 8.71,0.76 6.6,-8.5 10.02,-14.16 v 0" /><path
         id="path398"
         style="fill:#84b414;fill-opacity:1;fill-rule:nonzero;stroke:none"
         d="m 3942.5,4977.98 2.86,0.25 68.67,-44.48 0.28,-3.17 -71.81,47.4" /><path
         id="path400"
         style="fill:#84b414;fill-opacity:1;fill-rule:nonzero;stroke:none"
         d="m 3187.33,4885.03 0.52,-5.92 c -3.3,2.95 -14.89,1.93 -6.74,8.4 0.26,-3 3.2,-2.75 6.22,-2.48 v 0" /><path
         id="path402"
         style="fill:#84b414;fill-opacity:1;fill-rule:nonzero;stroke:none"
         d="m 2961.66,4862.56 -14.96,1.41 11.87,-1.68 z" /><path
         id="path404"
         style="fill:#84b414;fill-opacity:1;fill-rule:nonzero;stroke:none"
         d="m 3058.48,4871.03 c -5.18,-9.23 -20.35,-5.02 -26.28,-2.3 -0.24,2.7 16.9,7.23 26.28,2.3 v 0" /><path
         id="path406"
         style="fill:#84b414;fill-opacity:1;fill-rule:nonzero;stroke:none"
         d="m 2976.71,4860.64 -6.2,2.69 5.92,0.52 z" /><path
         id="path408"
         style="fill:#84b414;fill-opacity:1;fill-rule:nonzero;stroke:none"
         d="m 3017.51,4867.44 -17.27,-4.74 -0.28,3.21 c 5.43,3.2 11.93,-2.19 17.55,1.53 v 0" /><path
         id="path410"
         style="fill:#84b414;fill-opacity:1;fill-rule:nonzero;stroke:none"
         d="m 2902.97,4857.42 c -8.5,-3.98 -22.51,-14.02 -31.57,-11.54 2.12,8.97 23.56,2.06 31.57,11.54 v 0" /><path
         id="path412"
         style="fill:#84b414;fill-opacity:1;fill-rule:nonzero;stroke:none"
         d="m 5378.75,5059.24 -3.15,-0.28 -6.55,5.44 c 2.78,3.1 6.31,-2.73 9.7,-5.16 v 0" /><path
         id="path414"
         style="fill:#84b414;fill-opacity:1;fill-rule:nonzero;stroke:none"
         d="m 5454.86,5065.9 -11.97,1.68 8.94,0.78 z" /><path
         id="path416"
         style="fill:#84b414;fill-opacity:1;fill-rule:nonzero;stroke:none"
         d="m 4048.68,4913.14 -28.45,17.96 27.93,-12 z" /><path
         id="path418"
         style="fill:#84b414;fill-opacity:1;fill-rule:nonzero;stroke:none"
         d="m 5825.61,5053.81 -7.98,-9.39 3.02,-2.63 5.71,3.4 c 34.16,-17.68 94.42,-30.26 113.19,-76.12 7.76,-20.02 23.93,-38.98 43.02,-52.39 -13.49,-13.19 21.65,-10.12 11.27,-25.69 l -27.52,6.67 0.53,-6.01 c -12.46,10.55 -30.07,6.36 -41.97,7.97 -15.67,10.64 -32.65,36 -49.64,25.35 15.39,-4.49 4.39,-17.3 14.4,-28.43 -3.12,2.96 -5.88,-0.51 -9.25,2.42 l -2.57,-3.45 c 3.09,-2.38 9.74,-7.89 7.22,-14.04 -8.63,-0.75 -18.35,10.41 -23.5,0.97 -19.46,15.94 -19.53,51.59 -38.11,61.86 -3.03,2.46 2.7,2.96 2.43,6 -9.13,2.15 -15.46,7.47 -19.11,16.05 l 5.4,6.44 -6.18,2.48 -2.8,-3.26 c -24.68,12.58 -66.42,47.53 -43.2,87.7 l -0.8,9.08 c 32.93,-3.12 36.06,-6 66.44,-14.98 v 0" /><path
         id="path420"
         style="fill:#84b414;fill-opacity:1;fill-rule:nonzero;stroke:none"
         d="m 3015.76,4275.54 -18.23,7.48 c 6.15,-2.4 17.2,4.28 18.23,-7.48 v 0" /><path
         id="path422"
         style="fill:#84b414;fill-opacity:1;fill-rule:nonzero;stroke:none"
         d="m 3609.29,4321.67 -0.25,2.92 15.47,-4.7 z" /><path
         id="path424"
         style="fill:#84b414;fill-opacity:1;fill-rule:nonzero;stroke:none"
         d="m 3659.77,4320.12 0.49,-5.67 -8.73,-0.76 -0.74,8.5 c 3,0.26 6.34,-5.32 8.98,-2.07 v 0" /><path
         id="path426"
         style="fill:#84b414;fill-opacity:1;fill-rule:nonzero;stroke:none"
         d="m 3106.99,4248.16 c -8.45,-3.77 -29.49,0.27 -39.15,8.5 15.1,-4.89 29.94,-3.6 39.15,-8.5 v 0" /><path
         id="path428"
         style="fill:#84b414;fill-opacity:1;fill-rule:nonzero;stroke:none"
         d="m 3722.28,4313.92 c -2.51,-3.5 6.5,-5.65 0.79,-9.01 l -8.71,-0.76 c -6.45,5.23 5.13,9.53 7.92,9.77 v 0" /><path
         id="path430"
         style="fill:#84b414;fill-opacity:1;fill-rule:nonzero;stroke:none"
         d="m 3764.72,4302.68 0.25,-2.84 -9.21,5.08 c 3.07,0.27 8.45,3.59 8.96,-2.24 v 0" /><path
         id="path432"
         style="fill:#84b414;fill-opacity:1;fill-rule:nonzero;stroke:none"
         d="m 3788.2,4304.73 c 3.88,-8.48 -14.83,-1.3 -17.52,-1.53 l 17.52,1.53 v 0" /><path
         id="path434"
         style="fill:#84b414;fill-opacity:1;fill-rule:nonzero;stroke:none"
         d="m 3824.15,4299.06 -26.61,0.52 23.82,-0.77 z" /><path
         id="path436"
         style="fill:#84b414;fill-opacity:1;fill-rule:nonzero;stroke:none"
         d="m 3307.39,4191.6 c -2.79,-3.18 -5.5,-6.28 -8.46,-6.53 l -2.96,-0.26 c -0.5,5.75 8.14,9.28 11.42,6.79 v 0" /><path
         id="path438"
         style="fill:#84b414;fill-opacity:1;fill-rule:nonzero;stroke:none"
         d="m 4654.45,3700.36 c -8.52,-3.69 -16.59,-10.19 -22.46,-10.7 5.37,6.26 10.62,12.27 22.46,10.7 v 0" /><path
         id="path440"
         style="fill:#84b414;fill-opacity:1;fill-rule:nonzero;stroke:none"
         d="m 4596.26,3689.22 c 0.24,-2.67 -5.41,-3.16 -8.56,-3.44 2.92,2.95 5.4,6.27 8.56,3.44 v 0" /><path
         id="path442"
         style="fill:#84b414;fill-opacity:1;fill-rule:nonzero;stroke:none"
         d="m 4622.04,3632.25 -2.4,-6.17 -3.5,5.66 c 2.98,0.26 5.9,0.51 5.9,0.51 v 0" /><path
         id="path444"
         style="fill:#84b414;fill-opacity:1;fill-rule:nonzero;stroke:none"
         d="m 4558.93,3609.18 -3.33,5.5 8.73,0.76 z" /><path
         id="path446"
         style="fill:#84b414;fill-opacity:1;fill-rule:nonzero;stroke:none"
         d="m 4518.55,3596.74 c -2.41,-6.09 -11.39,-4.02 -16.98,-7.37 2.33,6.09 8.27,6.61 16.98,7.37 v 0" /><path
         id="path448"
         style="fill:#84b414;fill-opacity:1;fill-rule:nonzero;stroke:none"
         d="m 4467.01,3580.47 c -2.54,-9.38 -14.18,-7.2 -22.88,-11.16 5.64,3.69 14.12,7.12 22.88,11.16 v 0" /><path
         id="path450"
         style="fill:#84b414;fill-opacity:1;fill-rule:nonzero;stroke:none"
         d="m 4549.88,3578.56 -6.41,2.64 9.04,0.79 z" /><path
         id="path452"
         style="fill:#84b414;fill-opacity:1;fill-rule:nonzero;stroke:none"
         d="m 4537.95,3577.52 c -4.79,-9.07 -11.49,-3.77 -20.5,-1.79 l 20.5,1.79 v 0" /><path
         id="path454"
         style="fill:#84b414;fill-opacity:1;fill-rule:nonzero;stroke:none"
         d="m 4512.16,3569.47 c -4.91,-12.36 -30.96,-17.49 -45.12,-27.72 4.39,18.19 34.5,14.86 45.12,27.72 v 0" /><path
         id="path456"
         style="fill:#84b414;fill-opacity:1;fill-rule:nonzero;stroke:none"
         d="m 4458.58,3541.01 -5.97,-0.52 c -6.19,2.56 5.18,9.44 8.21,6.51 l -2.24,-5.99" /><path
         id="path458"
         style="fill:#84b414;fill-opacity:1;fill-rule:nonzero;stroke:none"
         d="m 4440.76,3539.45 c 0.25,-2.92 -5.23,-6.26 -7.96,-9.35 -2.84,-0.25 -0.75,8.59 7.96,9.35 v 0" /><path
         id="path460"
         style="fill:#84b414;fill-opacity:1;fill-rule:nonzero;stroke:none"
         d="m 3271.45,3384.22 -6.47,5.24 5.97,0.52 z" /><path
         id="path462"
         style="fill:#84b414;fill-opacity:1;fill-rule:nonzero;stroke:none"
         d="m 3734.41,3264.87 c 0.25,-2.91 -2.5,-6.09 -5.41,-6.35 l -3.02,-0.26 c -0.26,2.92 2.51,6.1 8.43,6.61 v 0" /><path
         id="path464"
         style="fill:#84b414;fill-opacity:1;fill-rule:nonzero;stroke:none"
         d="m 3696.85,3252.52 c -8.13,-6.76 -19.78,-10.47 -31.8,-8.83 8.7,3.7 20.46,7.84 31.8,8.83 v 0" /><path
         id="path466"
         style="fill:#84b414;fill-opacity:1;fill-rule:nonzero;stroke:none"
         d="m 4373.37,5942.82 -66.92,-22.15 c 37.86,-0.39 57.84,8.09 66.92,22.15 z m -214.25,-243.53 c -6.57,-2 -13.4,-3.4 -21.88,-6.29 6.5,2.72 18.28,2.74 21.88,6.29 z m -649.95,-165.31 c -0.43,-0.12 -0.91,-0.16 -1.31,-0.33 -0.33,-0.11 -0.63,-0.3 -0.94,-0.37 0.78,0.28 1.59,0.35 2.25,0.7 z m -11.28,-2.58 c -3.2,-0.88 -6.45,-1.83 -9.35,-2.84 5.34,0.89 10.79,2.2 16.04,3.97 -2.16,-0.36 -4.38,-0.68 -6.69,-1.13 z m 13.25,3.84 c -0.72,-0.35 -1.28,-0.99 -1.97,-1.26 5.03,0.86 9.95,1.54 14.58,1.4 -4.42,1.76 -8.62,1.3 -12.61,-0.14 z m 1065.75,471.17 -0.11,-1.86 c 6.24,2.81 12.57,5.38 18.91,8.04 z m 85.66,-66.51 -14.24,-5.7 0.4,-4.54 z m -66.86,72.69 82.05,26.41 c -34.24,-9.08 -59.25,-17.45 -82.05,-26.41 z m -260.18,-2384.66 0.95,-0.25 c 0.62,0.06 1.3,0.45 1.93,0.51 z m -482.2,2028.35 0.09,0.01 z m 2255.25,185.59 c 3.38,-2.6 2.89,2.94 8.71,3.45 -13.82,54.99 -19.47,119.55 -39.27,177.17 -58.96,101.18 -146.92,191.02 -228.48,278.55 l 220.62,48.87 c -70.88,-0.2 -151.36,-28.11 -232.23,-49.89 -12.31,4.97 -4.56,17.37 -7.04,14.08 l -6.03,-0.52 c -6.52,8.58 -19.11,16.3 -25.84,24.83 5.73,2.9 24.03,-4.11 22.75,10.52 -5.98,2.37 -11.55,-4.04 -17.29,-4.54 -8.46,-3.85 -23.44,-2.05 -21.35,7.2 l 121.54,31.09 -40.51,-9.22 c -32.13,-5.91 -71.54,-27.08 -96.7,-11.56 -15.44,4.61 -41.02,29.08 -56.61,3.83 15.92,-45.87 -56.17,-34.44 -81.1,-54.35 26.2,5.4 57.63,19.66 78.47,15.77 l -146.92,-42.21 c 53.49,-1.54 98.05,26.17 142.47,27.2 l -21.02,-28.55 -3.94,8.56 -24.12,-28.91 -470.31,-132.87 -39.67,47.09 c 158.17,52.15 317.67,86.85 476.75,130.34 -154.18,-31.09 -321.77,-75.62 -477,-127.5 -56.03,65.91 -120.35,122.53 -189.88,175.62 l 5.68,3.48 c -18.01,1.37 -27.5,9.53 -26.26,30.13 -12.28,-30.56 -36.51,11.68 -51.21,7.53 l 34.79,-23.88 c -13.53,-12.73 -29.44,0.49 -44.33,-0.81 -119.17,78.24 -241.16,156.52 -384.26,167.57 3.63,24 10.57,45.31 2.39,74.13 -53.16,-1.55 -69.06,-56.28 -83.43,-95.97 -14.4,-1.26 -41.5,2.13 -45.79,-15.97 6.86,-11.25 5.66,-31.89 23.17,-30.36 -28.13,-114.81 -48.01,-229.03 -34.86,-343.29 -19.71,-52.47 50.12,-143.71 22.92,-185.66 l 4.86,1.64 6.71,-8.27 -83.15,-30.67 -0.75,8.62 -2.08,-8.87 -74.19,-30.05 c -19.49,-13.68 -55.56,-8.22 -63.36,-20.41 l -9.55,8.07 122.88,48.96 -131.8,-49.74 c -24.77,12.36 -66.15,11.77 -82.4,28.32 -47.59,4.57 -96.99,29.86 -148.25,37.3 l -6.42,8.13 -5.73,-3.19 c -22.1,15.67 -47.53,4.37 -66.61,20.64 -60.7,15.18 -126.8,27.25 -189.36,33.5 -153.13,25.16 -325.12,30.94 -471.15,9.3 -20.16,27.6 33.16,58.97 -18.05,69.19 -26.56,0.58 -44.55,-30.6 -54.61,-49.08 4.52,-188.74 66.97,-360.98 140.36,-525.88 l -28.01,-17.32 20.34,7.58 c -2.32,-8.77 -19.82,-13.45 -28.15,-20.1 -24.64,12.83 -57.55,-16.88 -80.45,-24.93 11.84,-1.91 25.47,14.15 37.82,6.41 -14.4,-4.36 -33.99,-14.73 -46.54,-7.18 -11.22,-6.61 -39.69,-18.21 -36.29,-26.78 -66.89,-11.94 -119.53,-51.7 -179.71,-74.86 l 14.66,1.28 -5.41,-6.43 c -7.45,-15.44 -24.76,-19.81 -34.74,-8.84 l -130.57,-61.74 0.51,-5.83 c -4.97,-9.26 -20.47,-1.79 -17.71,1.3 l -116.43,-57.39 4.93,12.36 c -5.45,-6.36 -16.82,-10.55 -13.29,-18.97 l -351.16,-175.8 -31.69,-8.73 3.1,-2.51 -11.16,-6.85 c -49.17,-13.29 -75.83,-48.05 -116,-60.3 l 3.1,-3.08 -42.97,-15.27 c -420.91,-226.44 -844.13,-461.38 -1235.744,-750.16 -4.09,-20.94 19.946,-24.89 32.422,-32.62 l -42.379,-56.87 c 25.328,14.14 51.254,-10.47 77.121,-2.25 l 163.3,94.09 c 418.06,226.04 832.87,454.49 1265.31,649.11 40.47,-90.75 100.51,-168.79 191.73,-228.72 23.24,-30.64 65.74,-44.52 97.89,-71.07 71.25,-73.99 158.87,-128.48 250.65,-161.69 l -5.48,-6.37 c 24.84,-15.55 44.64,-2.05 64.55,-29.88 53.47,-1.21 95.15,-38.8 146.57,-49.34 14.61,1.28 28.89,5.64 35.88,-5.43 l -2.91,-0.25 30.23,-9.54 -8.08,-9.44 c 13.83,12.88 30.47,-6.16 47.58,-1.8 l 4.71,12.25 c 3.16,0.28 3.41,-2.55 6.57,-5.3 l -2.9,-0.26 24.05,-3.86 -26.19,-8.17 c 9.24,0.81 15.18,-1.61 21.77,-9.94 -10.47,-12.84 -25.05,15.54 -44.33,1.84 48.28,-13.42 96.65,-26.74 146.69,-22.37 -2.43,-6.26 -11.54,-1.01 -8.33,-6.78 6.41,-5.31 11.82,1.04 14.25,7.3 l 4,-11.58 4.99,9.43 c 8.19,6.51 23.82,-1.03 24.61,-10.03 l -23.31,-4.81 c 11.93,-1.9 29.47,2.58 43.87,3.84 6.44,-5.23 15.77,-10.3 16.27,-16.05 -534.63,-144.47 -1036.33,-357.12 -1492.55,-651.31 l -6.12,2.24 c 0.24,-2.75 0.5,-5.67 -2.54,-5.94 -92.69,12.56 -90.77,-111.59 -166.07,-129.86 l 23.13,4.88 c -6.91,-21.35 -32.27,-35.33 -27.57,-55.5 -23.39,-5.07 17.83,-34.06 -14.34,-40.06 12.07,-1.64 13.34,-16.22 20.26,-27.63 -25.17,-16.9 18.06,-36.72 25.15,-50.97 l -23.45,-2.05 c 127.81,-74.84 269.86,-109.79 418.86,-123.21 184.42,-10.33 384.07,-28.31 569.04,-12.13 338.71,14.43 654.64,54.08 956.71,151.66 l 16.5,13.37 c 40.73,6.51 86.23,28.04 124.6,31.4 l -2.81,-3.19 31.6,11.76 -3.56,5.73 c 77.74,24.44 159.34,40.4 229.65,79.06 l 3.99,-8.64 c 27.82,20.17 59.76,26.23 91.22,37.72 15.15,28.04 52.77,4.62 68.36,29.75 71.34,26.91 145.26,62.86 213.96,89.7 -5.97,2.42 -14.59,-1.27 -23.87,0.86 -15.51,-25.13 -49.18,-10.43 -74.52,-27.02 -12.84,-22.21 -32.32,-2.83 -39.56,-21.44 l -106.3,-32.9 c 133.36,64.67 289.31,107.88 428.11,176.22 L 4487.63,3579 c -13.9,-9.87 -36.56,-20.84 -51.71,-16.2 l -0.5,5.75 c -10.94,-9.61 -29.31,-2.56 -24.79,-19.89 -27.23,3.58 -74.68,-27.03 -101.94,-20.77 112.45,69.23 243.01,98.21 352.23,164.3 -25.54,-8.12 -50.7,-25.69 -80.38,-25.09 l 8.22,6.6 c -29.05,-5.48 -53.77,-25.37 -78,-21.61 39.2,59.71 122.84,52.24 175.41,92.29 -9.59,8.06 -30.96,-17.49 -43.82,-6.78 -90.61,-46.23 -193.12,-58.14 -286.8,-101.78 l -4.82,-12.43 -14.27,4.29 c -63.72,-12.04 -138.6,-56.22 -211.2,-65.35 105.24,50.54 227.47,73.24 332.26,126.6 -95.24,-28.75 -186.6,-66.65 -281.29,-98.54 -198.04,-70.49 -411.7,-130.77 -609.84,-165.74 -73.03,-6.39 -153.05,-40.02 -216.13,-30.84 l -1.99,-8.91 c -33.25,5.82 -64.5,-5.64 -96.67,-11.4 -30.45,12.12 -70.51,-6.16 -97.59,0.45 -27.17,-29.09 -54.31,12.8 -81.71,-13.19 l -242.51,-0.56 c -14.88,1.64 -27.72,-19.98 -38.22,-3.34 -285.35,19.14 -594.55,1.24 -855.05,141.08 l 5.33,6.34 3.26,-2.65 -0.78,8.83 c 31.72,8.49 68.85,23.67 96.31,46.99 96.09,52.5 204.23,100.44 302.29,162.19 326.66,123.42 642.52,296.04 990.73,370.94 l -6.38,5.24 31.44,7.62 c -5.19,-0.04 -10.45,1.86 -8.8,6.04 l 226.15,52.37 27.08,-6.45 -0.76,8.75 3.25,0.29 c 2.94,-2.6 11.85,-4.84 3.45,-8.52 10.79,9.76 21.87,-15.64 26.24,2.3 0.52,-5.92 21.28,-4.11 24.39,-6.61 l -18.54,10.06 2.73,0.24 c 0.26,-2.92 2.99,0.26 6.01,0.52 8.79,0.77 20.57,1.8 21.34,-7.04 l -8.76,-0.76 c 20.88,-36.48 73.92,-2.36 108.16,-20.02 7.68,12.35 28.05,-15.19 28.84,8.31 l 27.6,-12.2 4.85,12.19 c 3.28,-2.65 12.03,-1.89 6.32,-5.24 25.33,-18.53 37.36,15.11 65.21,-0.26 l -2.6,-3.17 c 21.12,-6.97 48.89,13.18 70.83,0.32 l -31.43,-11.66 c 30.08,-6.27 79.56,3.94 112.59,-2.25 l -0.79,9.01 c 2.7,3.26 5.76,0.5 8.91,-2.16 -2.64,-3.17 -2.37,-6.34 -2.37,-6.34 l 16.83,10.54 c 33.4,-9.09 77.18,-2.32 112.41,0.76 -38.65,2.76 -100.57,0.28 -134.62,18.05 73.68,3.5 150.6,1.42 220.81,10.5 0.25,-2.92 -2.5,-3.16 -2.24,-6.16 5.9,0.52 8.41,3.76 11.26,6.95 26.51,-0.62 54.9,10.68 84.97,7.43 7.24,18.27 32.4,2.84 47.35,1.21 48.62,16.01 105.07,14.9 154.94,19.26 -49.41,22.22 -97.25,29.71 -153.06,24.83 -10.33,14.13 10.42,15.95 12.33,27.79 -6.37,5.33 -15.69,10.56 -25.21,15.52 -130.25,36.23 -271.29,26.75 -409.53,20.62 -567.72,30.22 -1147.69,100.52 -1568.91,522.44 57.96,11.08 128.36,20.1 189.44,31.36 38.81,-5.38 80.12,-1.77 111.24,12.46 l 0.23,-2.71 c -0.23,2.71 10.58,12.61 17.67,1.55 70.92,0.28 154.31,28.12 225.48,25.48 44.7,-5.08 86.69,22.37 114.96,4.31 -5.94,-0.52 -12.14,1.66 -20.91,0.89 15.73,-10.13 41.51,-2.33 56.05,2.18 l -26.82,3.41 28.72,11.37 c 100.26,3.1 241.92,6.55 338.62,15.01 3.2,-5.64 9.28,-5.11 9.81,-11.2 64.59,5.65 134.54,-14.68 198.21,-0.25 l 1.29,-14.76 c 79.75,1.27 156.9,-1.05 230.08,-27.12 l -15.97,13.39 c 38.86,-5.42 88.56,-30.85 122.01,-10.33 l 187.79,-83.91 5.44,6.31 c 9.32,-5.02 7.25,-13.98 7.51,-17.02 16.73,13.31 36.56,-11.46 50.12,1.74 -24.63,9.44 -35.18,32.07 -62.46,38.72 4.4,17.9 17.43,1.52 25.73,10.99 -48.12,7.63 -83.91,46.04 -132.29,56.55 l 2.38,6.17 c -20.92,3.92 -43.25,19.57 -58.76,30.43 l 2.36,5.92 -34.24,17.46 -8.25,-6.31 c -3.14,2.54 -6.45,8.22 -12.37,7.7 -0.53,6.04 5.39,6.56 4.87,12.52 -18.54,7.16 -39.59,14.26 -53.29,33.73 l 8.78,3.37 c -31.44,21.15 -63,42.2 -93.43,51.03 l 12.46,-7.71 c -29.12,-2.55 -21.74,13.02 -49.48,22.57 l 5.65,6.04 c -28.5,21.36 -49.13,51.9 -85.15,60.67 l 25.14,-18.55 c -24.82,-19.97 -22.58,21.89 -37.5,23.44 l 5.9,0.51 c -20.06,27.65 -36.26,44.04 -69.98,56.21 -50.2,66.17 -146.74,126.02 -195.08,201.5 l 99.31,50.19 -6.44,5.44 c 2.92,0.26 5.68,3.31 8.51,3.56 5.95,-2.29 0.77,-8.75 3.91,-11.33 l 50.74,28 28.75,11.37 c 0.37,26.49 45.13,24.7 67.25,41.42 l 6.66,-8.49 c 22.15,16.93 48.68,19.26 67.73,38.86 l -6.21,2.31 c 49.48,42.68 141.84,68.35 212.68,101.51 l -30.67,-20.82 9.26,-1.96 c 61.96,34.98 121.25,66.8 190.53,87.44 0.8,-1.91 0.29,-3.3 -0.8,-4.23 2.29,0.7 4.6,1.16 6.86,2.15 37.43,-23.56 93.21,-51.19 131.1,-80.34 27.05,-3.56 34.17,-17.72 52.72,-28.07 38.63,-34.96 92.96,-47.77 120.25,-89.82 53.94,-39.71 99.48,-89.07 151.3,-140.82 15.89,-45.73 60.97,-86.22 90.81,-125.19 14.98,-1.63 27,-0.58 34.67,12.1 13.73,9.94 15.75,-13.15 22.75,-24.55 -0.49,5.58 8.66,3.53 11.75,1.02 -2.85,-0.25 -2.6,-3.16 -8.43,-3.67 6.35,-5.41 12.06,-4.91 18.22,-7.4 -7.98,-9.6 19.31,-15.95 2.08,-23.76 42.99,-16.39 45.58,-81.54 96.25,-83.07 l -26.76,36.07 10.51,-0.68 c -5.42,2.3 -10.08,7.26 -13.81,0.39 4.56,18.46 -23.67,36.31 -15.45,43.17 l -8.22,-6.86 -13.09,13.56 14.1,7.53 -9.53,7.9 -2.35,-8.94 c -7.95,23 -30.32,44.39 -38.11,64.79 2.91,0.26 5.72,3.19 5.96,0.53 l -4.31,14.15 8.94,0.78 c -6.41,5.41 -12.89,10.8 -16.5,19.39 l -5.66,-3.43 c -9.7,10.82 -19.52,19.04 -17.93,33.71 7.2,21.46 -38.92,40.95 -16.79,60.69 l -15.94,13.47 c 2.34,3.24 5.39,6.53 8.18,6.77 -31.82,59.12 -70.13,123.98 -101.81,183.45 l 4.9,9 c -44.25,69.97 -72.82,156.47 -100.03,230.95 l 6.15,-2.57 -6.41,5.53 203.54,77.03 c -3.6,5.64 -27,3.59 -35.23,-6.28 l 3.35,-5.42 c -23.45,-2.05 -37.3,-12.25 -58.14,-10.96 -5.42,-3.58 -17.25,-4.62 -10.6,-12.94 l -97.54,-35.17 -3.4,5.67 20.15,7.65 c -12.45,4.95 -19.63,-13.57 -29.41,-2.58 64.4,38.31 128.46,52.82 203.17,76.91 l -6.25,5.21 5.21,6.67 c -60.56,-17.27 -121,-37.51 -174.78,-62.71 -11.67,-3.92 -34.22,-14.96 -35.78,2.83 34.23,14.93 80.53,27.72 114.28,45.24 l 14.25,5.83 -0.14,1.62 c 28.56,14.39 46.45,42.29 78.6,48.04 0.5,-5.75 -5.25,-6.25 -4.98,-9.34 13.64,13.29 37.36,12.17 45.11,24.65 -15.18,4.81 -32.5,0.48 -44.36,-0.56 l 53.96,25.26 c -43.64,-6.67 -70.37,-38.63 -107.14,-59.52 l -6.42,5.02 c -13.95,-10.08 -32.22,-2.82 -49.01,-13.15 -3.43,-0.3 -7.85,1.46 -10.58,4.03 -18.11,-6.54 -58.04,-1.88 -64.58,-25.31 -12.76,10.69 -21.88,16.07 -36.5,11.51 22.2,16.77 78.22,25.96 100.99,40.09 l 1.68,-19.13 19.63,1.71 c 16.24,16.25 26.47,2.32 43,15.65 -11.71,31.61 37,18.27 47.29,33.71 l -6.23,5.42 14.01,7.19 c -31.13,-17.51 -68.25,-29.75 -102.74,-41.46 l -3.84,8.36 c 14.33,7.09 37.82,9.15 45.25,24.58 -14.39,-4.07 -57.6,-16.67 -85.74,-34 l 1.21,15.98 c -25.71,-11.28 -51.19,-24.14 -87.62,-41.48 l -7.49,17.28 39.97,15.22 c -14.96,1.84 -26.09,-5.18 -37.4,-11.8 -10.98,25.5 -15.97,48.67 -27.06,74.15 -2.27,127.16 -21.85,249.68 8.61,373.64 22.7,10.64 40.17,-20.3 63.09,-12.29 l -1.81,-9.27 8.9,-1.86 c -0.5,5.7 -3.5,5.44 -6.83,8.21 5.56,6.29 11.04,9.67 20.32,7.58 8.22,-25.78 41.43,-2.17 57.88,-21.44 7.48,-17.11 -18.21,-28.26 -23.63,-34.74 0.77,-8.8 10.05,-11.01 15.61,-7.5 12.74,-46.26 57.53,-51.25 94.72,-68.49 34.57,-23.69 62.92,-44.52 99.91,-59.22 39.78,-49.81 105.23,-85.42 144.63,-132.5 l -2.63,-3.08 c 25.49,11.3 29.1,-29.93 47.05,-31.25 -48.33,-22.04 -124.03,-37.48 -171.87,-62.67 -26.23,-8 -5.43,-6.18 -21.63,-22.6 l 155.24,49.24 c -1.81,20.68 30.88,17.58 47.95,25.03 21.22,-39.64 59.61,-39.18 71.81,-76.46 l -2.64,-3.42 c 90.81,-125.03 190.3,-249.34 229.82,-396.88 l -10.61,-12.6 11.62,1.01 c 0.52,-5.91 -2.08,-9.29 -1.84,-12.08 22.07,-48.39 11.35,-96.62 33.59,-147.76 -14.27,-39.89 13.71,-87.76 14.69,-131.94 -16.21,-19.15 13.26,-19.68 9.03,-37.69 -308.6,-88.99 -580.78,-322.87 -625.8,-655.13 5.14,-58.77 22.79,-125.35 47.97,-176.15 21.45,-10.05 29.85,-38.8 52.05,-51.98 -5.68,-38.55 58.96,-65.9 33.99,-85.65 l 11.04,6.85 c 146.34,-149.74 377.81,-159.14 560.28,-80.85 9.84,-11.15 24.2,-7.04 35.55,0 l -3.58,5.66 82.7,33.94 c 13.87,12.55 47.78,-2.03 51.74,18.98 83.33,28.29 159.49,70.4 228.76,123.58 2.56,3.34 10.1,18.95 19.84,10.81 71.57,91.94 171.97,162.81 191.49,276.91 -39.32,-24.11 11.59,39.65 -26.42,30.36 l 4.82,15.12 c -17.67,-1.54 -31.63,20.93 -24.12,36.36 l -8.27,-6.68 c -9.46,7.99 4.16,20.86 -2.58,29.51 -11.45,-1 -26.29,-2.3 -27.55,12.12 -5.42,-6.35 -7.7,-12.51 -13.41,-15.7 -37.54,23.26 -14.88,69.55 -44.22,99.62 l -1.02,-21.01 c -23.43,-2.05 -31.2,18.19 -52.01,19.1 -9.21,38.04 -37.79,62 -58.6,95.42 l -5.96,-0.52 -1.55,-14.92 c 28.85,-24.06 52.74,-60.4 58.62,-95.46 l -8.71,-0.76 c 5.84,-34.82 -17.84,-66.41 -36.31,-94.57 -5.75,-0.51 -6.26,5.33 -9.29,7.84 -28.56,-11.16 -15.39,37.37 -32.91,38.61 -3.38,-29.82 -0.56,-62.04 -10.05,-89.58 -39.37,8.31 -34.55,53.25 -70.58,62.03 -0.25,2.92 -0.25,2.92 2.37,5.84 -8.22,-6.35 -25.52,-10.97 -32.38,0.02 -13.25,-15.69 -40.98,-6.44 -60.6,-16.89 l -0.27,3.08 c -25.69,-11.28 -52.96,-4.64 -79.47,-6.95 l 10.55,15.7 c -13.61,19.31 12.63,24.67 16.73,45.53 l -15.13,4.68 c -4.45,17.21 36.34,23.84 11.79,33.5 l 8.98,0.78 -14.1,25.61 c -13.36,16.55 16.15,19.14 21.11,28.26 l -6.73,11.17 c 22.99,5.08 -2.33,26.55 5.53,36.14 -3.43,5.54 -9.66,11 -15.34,7.69 -3.8,8.2 -16.87,21.75 -2.29,26.26 -7.91,23.17 -25.49,-13.99 -33.71,9.19 l 2.63,5.86 3.29,-2.78 9.61,24.41 c -12.69,10.86 -18.53,42.81 -35.02,29.36 l 3.14,-2.5 -8.61,-3.57 c -15.09,4.27 -38.02,-3.32 -37.52,23.14 l -5.69,-0.5 c -15.16,1.91 -13.88,-12.76 -21.78,-22.74 -29.64,0.6 -72.71,-14.84 -84.7,22.42 l 17.23,4.69 -3.14,2.46 c -11.1,-9.92 -39.16,8.12 -37.14,-14.93 -20.57,-1.8 -21.76,-22.78 -39.05,-27.48 l 6.44,-5.02 -16.76,-13.36 -6.58,8.42 -5.02,-6.4 -3.81,5.62 c -10.12,-18.56 -34.2,-14.96 -48.12,-24.95 -3.34,5.33 -12.07,4.57 -14.52,-1.27 -49.81,-7.55 -100.75,-32.51 -123.24,-78.7 -12.34,4.55 -27.26,-29.22 -38.3,-3.35 114.3,148.64 300.19,289.33 497.77,226.84 -9.23,5.11 -16.16,16.44 -28.53,21.23 35.45,3.1 70.21,-23.55 101.73,-47.3 l 5.07,9.27 67.94,-32.49 -22.42,21.27 4.97,6.81 c -41.32,37.63 -79.24,63.91 -126.2,95.33 l 8.55,3.69 -30.4,9.18 6.25,-5.58 c -27.05,3.76 -67.45,-5.9 -86.29,7.4 18.83,19.29 13.2,51.22 7.94,77.48 21.43,58.23 -2.43,127.13 16.55,181.96 6.21,-2.39 16.1,-16.23 21.13,-6.97 15.18,-34.29 5.42,-94.19 55.93,-95.65 7.66,12.59 -5.23,26.16 -11.68,34.17 l 5.95,166.51 8.32,6.44 c 9.54,125.15 77.21,231.62 123.32,348.22 l -7.66,19.83 c 18.98,55.04 40.68,109.9 56.34,167.55 22.1,16.76 9.52,60.14 35.8,65.09 l -6.45,5.6 13.34,16.04 c 2.42,6.18 -0.77,8.75 -7.21,14.07 l 5.41,6.44 c 66.71,-53.39 157.61,-113.52 197.25,-192.84 -51.8,51.75 -104.36,112.13 -172.22,141.6 l -4.34,-17.89 c 26.18,-24.42 63.31,-44.86 74.08,-67.57 -30.62,9.29 -42,40.76 -72.52,49.81 l 42.17,-43.56 -49.98,31.16 -4.68,-12.17 c 39.68,-46.93 108.06,-85.13 133.66,-142.28 -43.29,22.67 -61.82,65.41 -104.51,79.6 -13.1,13.68 -42.76,49.65 -61.28,24.25 3.27,-2.4 6.19,-2.15 9.22,-5.07 l -5.43,-3.29 51.08,-45.81 -2.58,-3.42 102.6,-91.61 -11.78,1.91 c 63.59,-53.62 108.01,-120.33 141.01,-194.89 65.09,-135.98 2.48,-295.26 -11.73,-438.38 21.66,-9.95 0.78,-41.6 16.29,-51.75 14.35,7.05 9.99,21.2 15.12,30.64 78.75,149.1 124.65,298.02 127.79,466.85 -11.07,22.63 6.41,59.52 -10.58,84.96 z m -1942.91,-2403.26 8.73,0.76 c -2.35,-3.07 -10.83,-9.6 -8.73,-0.76 z m -83.43,108.2 -123.52,-40.55 c 40.06,15.44 83.42,25.11 123.52,40.55 z m -155.7,-46.55 14.95,1.3 -40.99,-6.27 z m 12.87,-111.02 -43.28,-12.52 c 5.37,6.26 28.57,11.23 43.28,12.52 z m -161.67,-43.88 3.3,-5.26 -37.63,-9.17 z m -162.76,-67.41 c 87.11,16.61 179.5,42.16 265.52,73.63 0.19,-2.17 2.16,-3.85 4.38,-4.66 7.75,2.86 15.38,5.88 22.99,8.9 10.31,5.77 21.06,11.75 33.34,12.83 -11.1,-4.92 -22.25,-8.5 -33.34,-12.83 -6.99,-3.89 -13.91,-7.77 -21,-9.65 -0.68,-0.06 -1.25,0.48 -1.99,0.75 -97.95,-36.21 -196.77,-57.87 -300.58,-89.3 l -6.55,5.22 c -45.51,-21.53 -106.82,-30.09 -161.77,-43.63 l -6.51,5.05 c 66.63,18.01 138.4,41.93 205.51,53.69 z m -1003.63,-158.54 159.82,-1.05 c -49.79,-4.36 -112.31,2.1 -162.08,-5.36 z m 1366.46,1015.68 20.66,-1.13 5.86,0.51 0.26,-3 -26.52,0.7 z m -738.62,88.85 c -10.75,-9.76 -20.81,1.37 -29.63,3.71 2.6,2.99 20.19,4.53 29.63,-3.71 z m 841.44,1505.23 c -66.15,-20.45 -130.26,-67.51 -202.84,-79.78 44.73,27.69 74.95,21.42 113.83,51.33 2.31,6.21 -6.96,8.46 -6.69,5.42 -26.57,0.74 -38.36,-32.97 -62.9,-23.44 l -68.61,-26.41 c 0.88,-0.01 1.91,0.46 2.79,0.24 -0.28,-0.4 -0.28,-0.4 -0.59,-0.68 2.31,-0.22 4.49,1.02 6.49,1.2 -2.36,-3.32 -5.63,-3.6 -11.15,-4.09 2.33,0.21 2.87,0.51 4.66,2.89 -0.76,0.1 -1.42,-0.3 -2.29,0.43 -8.72,-0.35 -19.92,-9.93 -23.4,-2.05 71.53,26.67 141.04,44.68 211.57,83.57 z m -201.55,-94.54 -11.81,-1.03 8.71,3.87 z m -36.06,41.16 5.62,3.64 2.65,0.23 -5.36,-6.22 z m 36.08,27.06 3.38,-5.67 c -3.12,2.79 -11.63,-1.02 -3.38,5.67 z m 155.99,40.1 -57.52,-16.83 c 12.76,21.99 36.45,21.2 57.52,16.83 z m -53.51,1.53 c -2.61,-0.22 -5.03,-6.65 -7.99,-9.77 l 8.77,0.77 c -5.31,-3.32 -5.31,-3.32 -11.38,-0.99 z m -29.41,-35.24 -22.88,-7.97 22.63,10.8 z m -32.97,5.81 -0.26,2.95 8.82,0.78 0.25,-2.96 z m 12.13,-4.78 8.56,6.59 8.76,0.76 z m -431.29,199.07 3,0.26 0.27,-3.13 -3,-0.26 z m -781.35,-668.81 c 0.51,-5.83 -8.03,-9.6 -11.7,-4.04 3.16,0.28 5.45,6.35 11.7,4.04 z m 996.89,-205.78 0.75,-8.63 c 17.53,1.54 16.93,-25.21 42.92,-17.14 -7.12,-21.15 24.98,-15.45 37.6,-26.27 -368.87,24.19 -766.09,36.65 -1154.04,-56.63 -22.24,-16.72 -55.34,-13.65 -81.14,-21.87 l -169.57,-56.29 -3.34,5.59 c 215.36,107.78 439.36,215.91 657.88,321.13 l -6.35,5.07 23.74,2.08 c 90.26,46.37 180.55,98.87 274.54,139.44 26.45,2.31 41.38,-31.74 58.92,-33.24 -2.34,-5.91 6.87,-11.07 13.55,-16.37 l 1.86,8.74 c 102.37,-82.7 197.39,-192.91 302.68,-245.61 z m -291.57,528.07 22.64,10.29 -6.44,5.49 -73.83,-35.86 c 0.27,-3.04 3.33,-2.78 6.18,-2.53 -8.53,-3.73 -23.2,-5.01 -22.18,-16.68 l -6.04,2.33 c -3.21,2.82 19.94,7.71 13.28,18.8 l -19.95,-10.49 c -85.9,137.39 -142.86,280.5 -162.83,441.3 16.63,-19.46 45.5,-13.66 67.35,-26.7 l 7.16,-11.26 c 60.31,-15.31 118.6,-7.34 184.02,-10.7 -2.01,-11.85 10.03,-13.61 15.97,-13.09 11.51,3.82 15.11,-4.64 21.57,-10.08 69.01,-11.82 129.66,-27.21 200.81,-29.85 79.74,-31.41 168.82,-38.15 243.16,-76 l -2.63,-3.34 12.15,-4.9 c -7.7,-12.56 -30.66,-20.49 -36.53,-21.01 -1.1,-20.63 23.39,5.04 38.33,0.46 l -5.16,-6.41 3.11,-2.63 c -17.53,-1.54 -39.75,-18.26 -63.07,-23.16 l 2.07,-23.68 c 13.9,13.15 31.41,14.68 45.52,21.88 -8.01,-9.52 -28.26,-14.15 -24.89,-20.07 17.93,-1.41 33.87,17.75 50.94,25.46 l 14.57,-0.66 c -20.41,-3.34 -39.06,-33.11 -65.25,-27.76 l -13.71,-9.89 5.12,9.14 -24.1,0.87 c 8.99,0.79 13.81,13.14 4.35,18.28 -44.06,-3.86 -88.82,-31.38 -134.86,-47.34 -32.18,-2.81 -72.44,-15.03 -103.54,-32.66 -40.39,-9.54 -86.73,-22.33 -119.71,-51.72 57.45,19.81 117.13,48.64 177.91,62.48 0,0 4.42,-16.96 18.33,-6.92 l -22.19,-16.94 15.19,-4.59 -5.86,-0.51 6.35,-5.03 -2.84,-0.25 c 0.33,-3.79 0.29,-5.22 -0.03,-6.18 l 0.57,0.05 c -0.23,-0.02 -0.4,-0.29 -0.54,-0.3 l -0.03,0.25 c -14.71,-1.28 -43.5,-3.97 -47.63,-22.02 l -9.42,2.25 8.14,12.39 c -32.16,-8.36 -54.26,-22.39 -89.06,-31.49 41.75,30.45 75.19,18.6 110.84,48.26 -18.63,13.24 -52.1,-10.15 -72.69,-11.95 8.25,6.31 23.39,2.05 22.39,13.47 -50.18,1.79 -93.7,-40.66 -137.68,-47.58 -0.26,3.04 -3.41,2.77 -3.66,5.65 -2.82,-17.93 -23.23,-20.81 -41.67,-26.87 z M 3754,5674.05 c -0.27,3.17 -2.86,2.94 -5.75,2.69 14.48,1.26 25.49,13.99 42.78,15.5 -19.28,-13.45 -35.76,-32.66 -65.12,-32.36 z m -36.85,-17.8 -3.08,2.59 8.3,6.39 3.05,0.27 z m 102.26,17.47 c -13.43,-15.75 -51.31,-21.83 -71.36,-29.76 26.01,8.45 44.8,27.44 71.36,29.76 z m 9.72,-43.46 c -5.11,-9.22 -29.36,-37.93 -45.78,-18.75 10.7,13.08 32.58,-0.04 45.78,18.75 z m -210.56,-27.2 -7.99,-12.41 -6.17,2.32 z m -25.43,-13.94 -5.18,-9.23 -2.88,-0.25 z m -10.59,-12.94 c 3.57,-8.42 -23.65,-2.07 -19.81,-10.47 -9.29,2.05 13.59,13.17 19.81,10.47 z m -46.14,19.7 9.01,-2.11 c -2.57,-3.3 -20.05,-7.72 -9.01,2.11 z m -30.6,-91.43 c 9.59,24.66 32.97,29.6 49.69,39.88 -0.27,3.09 -3.09,2.84 -5.98,2.59 l 5.2,6.25 c -8.04,-6.5 -26.02,-5.22 -30.97,-17.79 0,0 -8.05,-1.12 -17.75,-2.6 -11.17,-6.53 -21.83,-18.12 -34.19,-13.41 -14.28,-5.03 -1.85,2.86 16.73,9.19 -6.09,-0.95 -12.02,-1.81 -17.24,-3.31 -0.13,1.45 13.35,4.06 26.59,6.15 3.28,0.95 6.57,1.66 9.97,2.25 1.08,0.6 2.14,1.2 3.28,1.59 3.22,1.63 6.53,3.35 9.35,6.03 l -32.35,-2.83 c 16.71,10.36 51.86,16.42 65.31,29.32 l 0.75,-8.59 c 14.69,1.29 21.6,-9.95 38.37,3.36 -4.4,-18.2 -25.24,-17.16 -36.06,-29.82 l 12.09,-1.85 c -19.84,-7.91 -39.59,-21.27 -62.79,-26.41 z m 89.07,31.61 5.42,3.37 11.86,1.04 z m 36.1,23.78 c -14.99,4.74 -28.45,-14.25 -45.33,-19.04 -0.28,35.63 59.68,26.34 87.48,46.54 42.45,21.31 88.23,40.1 134.38,53.21 -53.08,-34.46 -119.95,-49.13 -176.53,-80.71 z m 9.92,-8.04 39.72,18.43 2.79,0.25 z m 33.81,-50.21 c 20.04,7.68 29.65,32.08 50.39,31.12 -10.59,-12.64 -39.08,-24.21 -50.39,-31.12 z m 53.81,93.41 c 9.95,-11.06 20.26,7.74 29.57,2.59 -2.9,-0.25 -2.65,-3.04 -2.65,-3.04 6.01,-5.57 20.68,-1.43 29.18,2.55 l -27.87,-17.52 -6.93,11.24 -20.02,-10.49 c 2.29,8.94 2.29,8.94 -1.28,14.67 z m 10.8,-55.38 c 59.11,34.87 124.52,67.22 190.19,90.65 z m 185.48,111.19 c 57.12,25.46 116.67,54.27 174.13,71.27 -59.26,-31.69 -116.76,-48.69 -174.13,-71.27 z m 484.25,213.78 3.4,-5.71 -5.69,-3.57 z m 8.57,-31.89 -25.59,-11.01 22.73,10.76 z m -183.56,37.37 -11.69,-1.02 c 2.92,0.25 5.53,3.08 11.69,1.02 z m -16.82,-43.05 15.35,6.25 c 2.66,5.69 9.25,5.43 15.08,6.03 l -15.08,-6.03 c -0.35,-0.74 -0.97,-0.92 -1.13,-1.9 34.74,5.98 72.13,20.92 93.68,43.48 -18.01,4.21 -48.35,-21.83 -61.51,-8.2 -15.73,-19.23 -48.44,-16.12 -55.79,-34.41 -4.14,11.32 -14.96,-1.31 -21.17,3.82 56.87,25.93 113.07,60.25 174.54,68.44 l -37.1,-17.82 c 15.18,-1.45 46.64,9.88 63.12,23.25 l 6.61,-8.33 -16.71,-10.28 6.23,-5.59 -20.13,-4.36 c -0.57,-2.4 -0.21,-3.55 0.64,-4.23 -6.77,-0.34 -14.39,-2.1 -29.19,-7.17 3.47,-8.69 17.53,1.53 29.59,-0.44 -37.33,-15.19 -95.23,-26.27 -132.3,-44 -5.21,-6.67 -11.65,-1.02 -14.73,1.49 z m 51.01,25.25 c 8.54,0.75 11.09,6.97 20.09,4.66 -5.6,-3.39 -11.55,-3.91 -20.09,-4.66 z m 115.34,-1.8 c 3.61,-8.58 -11.1,-9.87 -16.51,-13.12 l -3.3,2.49 c 5.63,3.59 10.82,12.66 19.81,10.63 z m -70.21,-9 -5.68,-3.43 2.74,3.18 z m -14.21,-7.29 -5.49,-3.25 -8.9,-0.78 z m -36.63,-20.84 -11.31,-3.97 c -0.26,2.96 16.52,10.22 25.3,13.84 l -10.79,-12.57 z m 16.03,-13.51 c 25.47,14.16 50.69,28 79.74,36.75 l -5.4,-6.68 c 17.55,1.53 43.02,12.75 61.33,8.47 -46.12,-12.9 -88.03,-43.23 -135.67,-38.54 z m 186.36,-99.07 -4.65,-15.28 c -41.79,2.31 -63.32,44.82 -99.69,56.59 l -0.25,2.88 -25.7,21.35 89.13,31.41 c 17.47,-31.02 38.6,-67.73 47.27,-102.01 z m 182.2,246.86 2.86,0.25 -14.21,-4.44 z m -32.68,2.69 2.92,0.25 c -11.64,-3.71 0.76,-8.67 -8.27,-6.27 z m -87.06,-54.58 c 16.79,13.15 36.92,17.76 53.86,28.02 -10.04,-18.23 -37.07,-14.87 -53.86,-28.02 z m 59.83,43.2 11.13,17.35 c 5.69,3.65 3.01,-24.55 2.25,-15.93 -3.33,0.22 -8.13,-0.37 -13.38,-1.42 l -3.9,-5.97 -58.45,-23.76 c 1.66,9.89 38.84,25.32 62.35,29.73 z m -72.32,-35.56 6.11,0.54 -11.24,-7.12 z m 51.22,90.25 c 3.58,-5.57 -5.68,-3.19 -5.41,-6.35 -0.27,3.16 2.81,6.12 5.41,6.35 z m 999.79,238.3 c -19.71,-10.59 -37.66,-9.26 -60.8,-16.96 14.06,9.97 40.84,9.24 60.8,16.96 z m -71.95,-21.04 5.48,0.48 -242.25,-68.57 z m 102.27,-23.56 9.5,-5.05 c -2.87,-3.45 -2.65,-6.03 -2.37,-9.2 -15.11,4.48 -19.3,-13.4 -24.45,-25.82 1.28,-14.64 -26.23,-35.02 -32.61,-62.04 -56.97,-129.18 -113.13,-264.25 -106.17,-411.53 l -7.98,-9.26 c -47.11,167.28 -125.79,322.77 -232.08,455.64 l 433.2,117.75 c -4.39,-15.13 -19.82,-40.17 -37.04,-50.49 z m 163.84,23.15 c -15.9,13.48 -43.41,19.89 -45.98,49.28 l 66.98,-53.61 c -5.73,-3.15 -15.98,10.73 -21,4.33 z m 158.85,-160.66 36.56,-47.03 c -15.26,7.65 -31.66,26.8 -36.56,47.03" /><path
         id="path468"
         style="fill:#e10078;fill-opacity:1;fill-rule:nonzero;stroke:none"
         d="m 3847.92,1382.17 49.41,-564.779 5654.77,494.729 -49.41,564.77 -5654.77,-494.72" /><path
         id="path470"
         style="fill:#84b414;fill-opacity:1;fill-rule:nonzero;stroke:none"
         d="M 3591.05,4318.14 3709.64,2962.69 8251.1,3360.01 8132.51,4715.46 3591.05,4318.14" /><path
         id="path472"
         style="fill:#84b414;fill-opacity:1;fill-rule:nonzero;stroke:none"
         d="m 3719.52,2849.73 118.59,-1355.45 7909.59,692 -118.6,1355.45 -7909.58,-692" /><path
         id="path474"
         style="fill:#ffffff;fill-opacity:1;fill-rule:nonzero;stroke:none"
         d="m 4606.47,3325.17 -43.09,492.52 -342.3,-29.95 19.72,-225.33 68.95,6.04 6.78,-77.58 c -15.79,-3.86 -41.54,-7.35 -55.08,-8.54 -78.8,-6.89 -98.78,8.73 -115.91,204.51 -16.91,193.31 2.94,207.46 94.06,215.43 56.64,4.95 138.87,0.98 255.71,-29.74 l 31.77,260.85 c -150.19,29.04 -242.06,29.69 -308.55,23.87 -290.59,-25.42 -410.91,-167.46 -381.83,-499.91 27.58,-315.22 152.66,-454.4 430.93,-430.05 107.13,9.37 224.3,45.67 338.84,97.88 z m 850.59,274.17 c -8.51,-1.98 -19.49,-4.18 -29.34,-5.05 -22.16,-1.93 -27.52,2.56 -38.98,20.17 l -68.48,101.95 c 69.47,56.95 107.91,142.2 97.9,256.71 -17.56,200.7 -154.54,263.16 -341.7,246.78 l -387.86,-33.93 78.96,-902.54 286.89,25.1 -26.71,305.36 32.01,2.8 91.1,-162.01 c 55.84,-99.33 109.88,-135.55 231.78,-124.88 24.62,2.15 67.39,9.62 96.62,15.9 z m -328.35,321.16 c 5.71,-65.26 -8.58,-86.36 -47.98,-89.81 l -71.41,-6.25 -14.22,162.54 75.11,6.57 c 35.7,3.12 53.22,-12.72 58.5,-73.05 z m 743.71,503.04 c -6.24,71.42 -55.62,96.87 -119.65,91.27 -68.95,-6.03 -109.14,-43.05 -103.21,-110.77 6.03,-68.95 50.7,-97.3 118.42,-91.38 75.11,6.57 110.15,45.62 104.44,110.88 z m 262.27,22.95 c -6.25,71.41 -54.39,96.98 -119.65,91.27 -67.72,-5.93 -109.14,-43.05 -103.22,-110.77 6.04,-68.96 51.93,-97.2 119.66,-91.27 72.64,6.35 108.92,45.51 103.21,110.77 z m 179.55,-676.62 -48.48,554.08 -284.43,-24.88 49.77,-568.86 c 6.25,-71.41 -0.86,-89.41 -73.51,-95.76 -75.11,-6.57 -82.77,10.13 -89.02,81.54 l -49.77,568.86 -296.74,-25.96 48.47,-554.08 c 27.36,-312.75 199.02,-346.12 403.42,-328.24 254.88,22.3 363.02,133.5 340.29,393.3 z m 926.73,-270.04 -78.97,902.54 -267.19,-23.38 23.92,-273.35 c 3.23,-36.94 9.35,-78.59 16.39,-116.43 l -14.78,-1.3 c -13.83,44.7 -31.15,86.61 -48.4,113.64 l -148.28,262.47 -301.66,-26.4 78.96,-902.54 265.96,23.27 -29.84,341.07 c -3.02,34.48 -9.47,79.82 -15.16,116.54 l 14.77,1.3 c 10.95,-39.99 29.6,-83.02 47.18,-113.75 l 184.98,-327.49 z m 796.51,69.68 -33.86,245.18 -323.83,-28.33 -7.33,83.73 289.36,25.32 -21.44,245.02 -289.35,-25.31 -7.11,81.26 313.98,27.47 -21.55,246.26 -609.49,-53.32 78.96,-902.54 631.66,55.26" /><path
         id="path476"
         style="fill:#ffffff;fill-opacity:1;fill-rule:nonzero;stroke:none"
         d="m 4612.06,1790.18 -40.12,245.87 -253.65,-22.19 -57.31,655.05 -295.51,-25.85 78.96,-902.54 z m 741.23,64.85 -33.86,245.18 -323.83,-28.33 -7.33,83.73 289.36,25.31 -21.44,245.03 -289.35,-25.31 -7.11,81.26 313.98,27.47 -21.55,246.26 -609.49,-53.32 78.96,-902.54 z m 737.53,362.3 c -13.36,152.68 -102.32,219.34 -222.3,243.58 l -155.33,31.08 c -30.31,6.03 -35.77,11.76 -37.39,30.23 -2.37,27.08 7.05,32.87 34.14,35.24 52.95,4.63 98.94,3.69 267.48,-22.5 l 39.81,254.1 c -158.38,23.37 -235.47,25.31 -299.5,19.71 -204.39,-17.88 -344.22,-135.58 -327.42,-327.66 13.68,-156.37 103.44,-218 222.52,-246.05 l 148.27,-35.41 c 34.21,-8.18 40.8,-12.56 42.95,-37.19 2.59,-29.55 -9.29,-35.55 -41.31,-38.35 -50.48,-4.42 -74.09,-4 -289.23,44.17 l -47.3,-253.52 c 177.55,-44.02 240.89,-44.68 327.08,-37.14 201.93,17.66 355.09,139.01 337.53,339.71 z m 1030.94,701.87 -295.51,-25.86 -49.21,-486.94 c -5.33,-52.58 -4.5,-104.62 -2.02,-132.94 l -14.78,-1.29 c -2.47,28.32 -11.92,79.61 -26.3,130.46 l -133.02,471 -304.13,-26.61 310.45,-882.28 362,31.67 z m 802.95,-839.2 -33.86,245.18 -323.83,-28.33 -7.32,83.73 289.35,25.31 -21.43,245.03 -289.36,-25.31 -7.11,81.26 313.98,27.47 -21.54,246.26 -609.5,-53.32 78.97,-902.54 z m 820,327.33 c -8.51,-1.99 -19.48,-4.19 -29.33,-5.05 -22.17,-1.94 -27.52,2.56 -38.99,20.16 l -68.47,101.96 c 69.46,56.94 107.91,142.19 97.89,256.7 -17.56,200.71 -154.54,263.16 -341.7,246.79 l -387.86,-33.93 78.96,-902.54 286.9,25.1 -26.72,305.36 32.02,2.8 91.09,-162.01 c 55.84,-99.34 109.88,-135.55 231.78,-124.89 24.62,2.16 67.4,9.62 96.62,15.9 z m -328.35,321.16 c 5.71,-65.26 -8.57,-86.36 -47.97,-89.81 l -71.42,-6.25 -14.22,162.53 75.11,6.57 c 35.71,3.13 53.22,-12.71 58.5,-73.04 z m 1034.35,146.32 -21.54,246.26 -663.67,-58.06 21.54,-246.26 182.24,15.94 57.41,-656.28 296.75,25.96 -57.42,656.28 z m 123.28,-253.77 c 17.69,-14.85 38.1,-21.26 61.24,-19.23 22.94,2.01 41.89,11.86 56.83,29.56 14.94,17.7 21.39,38.12 19.37,61.25 -2.02,23.14 -11.93,42.12 -29.72,56.96 -17.78,14.84 -38.24,21.25 -61.38,19.22 -22.95,-2.01 -41.84,-11.9 -56.67,-29.69 -14.84,-17.79 -21.26,-38.15 -19.25,-61.1 2.03,-23.13 11.88,-42.13 29.58,-56.97 z m 942.21,-314.32 -33.9,245.18 -323.8,-28.33 -7.3,83.73 289.3,25.32 -21.4,245.03 -289.4,-25.32 -7.1,81.26 314,27.47 -21.5,246.26 -609.54,-53.32 78.96,-902.54 z m 84.3,404.13 c 17.7,-14.85 38.1,-21.26 61.2,-19.23 23,2 41.9,11.86 56.9,29.56 14.9,17.7 21.4,38.12 19.3,61.25 -2,23.14 -11.9,42.12 -29.7,56.96 -17.8,14.83 -38.2,21.24 -61.4,19.22 -22.9,-2.01 -41.8,-11.91 -56.6,-29.69 -14.9,-17.79 -21.3,-38.16 -19.3,-61.1 2,-23.13 11.9,-42.13 29.6,-56.97 z m 917.6,-18.7 c -13.4,152.68 -102.4,219.34 -222.3,243.58 l -155.4,31.08 c -30.3,6.03 -35.7,11.76 -37.4,30.23 -2.3,27.09 7.1,32.87 34.2,35.24 52.9,4.64 98.9,3.7 267.5,-22.5 l 39.8,254.11 c -158.4,23.36 -235.5,25.3 -299.5,19.7 -204.4,-17.88 -344.3,-135.58 -327.4,-327.66 13.6,-156.37 103.4,-218 222.5,-246.04 l 148.2,-35.42 c 34.3,-8.17 40.8,-12.56 43,-37.19 2.6,-29.55 -9.3,-35.55 -41.3,-38.35 -50.5,-4.42 -74.1,-4 -289.2,44.17 l -47.3,-253.52 c 177.5,-44.02 240.8,-44.68 327,-37.14 202,17.67 355.1,139.01 337.6,339.71" /><path
         id="path478"
         style="fill:#ffffff;fill-opacity:1;fill-rule:nonzero;stroke:none"
         d="m 4262.65,962.949 -17.86,204.101 -132.61,-11.6 6.39,-73.04 49.21,4.31 6.58,-75.12 c -18.29,-5.77 -31.11,-8.46 -44.06,-9.59 -50.24,-4.401 -71.65,13.56 -80.49,114.58 -8.88,101.53 10.43,119.4 69.49,124.57 23.31,2.04 43.27,0.65 95.71,-14.07 l 11.8,79.85 c -58,12.67 -86.72,12.77 -119.35,9.91 -116.56,-10.19 -163.28,-72.74 -151.32,-209.5 11.38,-130.03 62.15,-191.35 177.15,-181.291 37.82,3.312 84.66,16.8 129.36,36.89 z m 233.21,265.221 c 3.31,-37.82 -11.21,-56.84 -42.29,-59.55 l -44.55,-3.9 -9.06,103.6 48.17,4.22 c 31.08,2.72 45.01,-13.29 47.73,-44.37 z m 114.65,-176.84 c -4.1,-0.88 -6.64,-1.63 -11.3,-2.04 -11.4,-0.99 -14.17,0.85 -20.82,11.23 l -45.85,70.63 c 36.74,21.49 56.03,57.63 51.54,108.91 -7.11,81.33 -60.6,107.97 -136.23,101.35 l -140.38,-12.28 33.22,-379.708 86.51,7.566 -12.33,140.902 38.33,3.36 53.18,-88.79 c 22.57,-37.171 40.7,-47.589 78.52,-44.28 8.29,0.722 22.7,3.031 32.41,5.441 z m 338.51,93.82 -20.85,238.29 -85.47,-7.48 20.84,-238.29 c 4.81,-54.91 -9.37,-71.81 -53.4,-75.66 -44.55,-3.9 -58.96,11.54 -63.67,65.42 l -20.85,238.29 -88.58,-7.75 20.85,-238.29 c 10.24,-117.08 72.92,-141.348 157.87,-133.91 96.87,8.472 142.28,56.29 133.26,159.38 z m 332.1,-113.45 -11.61,73.11 -147.12,-12.88 -7.11,81.33 135.72,11.88 -6.44,73.56 -135.72,-11.88 -6.75,77.19 145.04,12.69 -6.48,74.08 -234.14,-20.49 33.22,-379.71 z m 352.9,30.87 -33.22,379.71 -80.3,-7.02 16.32,-186.49 c 1.18,-13.47 3.66,-29.95 6.44,-43.8 l -5.18,-0.46 c -5.55,15.7 -13.69,31.17 -20.95,42.54 l -113.7,177.97 -93.24,-8.16 33.22,-379.71 80.81,7.07 -17.81,203.58 c -1.27,14.51 -3.71,30.47 -6.02,44.89 l 5.18,0.45 c 4.42,-14.75 11.53,-30.31 20,-43.66 l 124.01,-194.29 z m 322.84,28.25 -11.62,73.1 -147.12,-12.87 -7.11,81.33 135.72,11.88 -6.44,73.56 -135.72,-11.88 -6.75,77.19 145.04,12.69 -6.48,74.07 -234.14,-20.48 33.22,-379.71 z m 137.4,53.78 c -2.68,30.56 -24.67,43.25 -52.64,40.81 -29.01,-2.54 -46.77,-20.28 -44.23,-49.29 2.58,-29.52 22.68,-44.47 51.69,-41.93 31.6,2.76 47.67,21.92 45.18,50.41 z m 314.76,7.18 -24.41,76.16 c -44.76,-25.32 -66.97,-34.04 -86.65,-35.77 -46.62,-4.08 -70.98,5.8 -80.45,114.07 -9.02,103.08 12.51,119.58 58.61,123.61 19.17,1.68 39.3,-1.78 84.27,-14.55 l 11.85,79.34 c -54.29,11.95 -80.51,13.31 -108.48,10.87 -97.39,-8.53 -152.47,-65.02 -139.92,-208.51 11.33,-129.51 61.12,-191.44 177.15,-181.29 28.5,2.49 57.62,9.74 108.03,36.07 z m 343.36,8.64 -33.22,379.71 -89.1,-7.8 12.91,-147.63 -112.41,-9.84 -12.91,147.64 -89.1,-7.8 33.22,-379.71 89.1,7.8 -13.74,156.96 112.41,9.83 13.74,-156.96 z m 268.56,441.24 -67.34,-5.89 -123.14,-465.94 67.34,5.89 z m 401.77,0.02 -88.58,-7.75 -40.73,-250.46 c -1.97,-13.22 -2.95,-37.84 -2.09,-47.69 l -4.66,-0.4 c -0.86,9.84 -6.1,33.91 -10.34,46.59 l -83.6,239.59 -91.17,-7.98 140.97,-370.28 105.67,9.24 z m 320.32,-354.59 -11.62,73.1 -147.11,-12.87 -7.12,81.33 135.72,11.88 -6.43,73.56 -135.72,-11.88 -6.76,77.19 145.05,12.69 -6.48,74.07 -234.15,-20.48 33.22,-379.71 z m 217.98,284.24 c 3.3,-37.82 -11.21,-56.83 -42.29,-59.55 l -44.55,-3.9 -9.07,103.6 48.18,4.22 c 31.08,2.72 45.01,-13.29 47.73,-44.37 z m 114.64,-176.84 c -4.09,-0.88 -6.64,-1.63 -11.3,-2.04 -11.4,-0.99 -14.17,0.85 -20.82,11.23 l -45.85,70.64 c 36.75,21.48 56.03,57.62 51.55,108.9 -7.12,81.33 -60.61,107.97 -136.24,101.35 l -140.38,-12.28 33.22,-379.71 86.51,7.57 -12.33,140.9 38.34,3.36 53.18,-88.79 c 22.56,-37.17 40.7,-47.59 78.51,-44.28 8.29,0.72 22.71,3.03 32.41,5.44 z m 267.16,253.04 -6.48,74.08 -261.6,-22.89 6.48,-74.07 85.99,7.52 26.74,-305.63 89.62,7.84 -26.74,305.63 z m 308.02,-166.18 c -5.08,58.02 -40.86,85.16 -88.93,97.66 l -62.51,16.45 c -21.92,5.92 -33.48,12.73 -35.02,30.35 -2.31,26.42 12.84,38.18 37.19,40.31 20.2,1.77 41.71,0.52 101.99,-8.3 l 12.12,76.23 c -56.65,9.13 -83.86,9.88 -111.32,7.48 -78.73,-6.89 -133.51,-55 -127.07,-128.56 4.94,-56.47 42.36,-84.51 89.87,-96.54 l 62.47,-15.93 c 21.35,-5.44 32.48,-13.34 34.21,-33.03 2.17,-24.86 -11.15,-39.6 -37.06,-41.87 -23.31,-2.04 -36.35,-2.13 -115.1,14.99 l -14.24,-75.89 c 65.24,-17.78 92.88,-17.45 126.03,-14.55 77.7,6.8 134.3,51.94 127.37,131.2 z m 132.35,-61.5 c -2.67,30.56 -24.66,43.25 -52.64,40.81 -29,-2.54 -46.77,-20.28 -44.23,-49.29 2.58,-29.52 22.68,-44.47 51.69,-41.93 31.6,2.76 47.67,21.92 45.18,50.41 z m 314.77,7.18 -24.41,76.16 c -44.77,-25.32 -66.97,-34.04 -86.66,-35.77 -46.62,-4.08 -70.97,5.8 -80.44,114.07 -9.02,103.08 12.5,119.58 58.6,123.61 19.17,1.68 39.31,-1.78 84.27,-14.55 l 11.85,79.34 c -54.28,11.95 -80.5,13.31 -108.48,10.87 -97.38,-8.52 -152.47,-65.02 -139.92,-208.51 11.33,-129.51 61.12,-191.44 177.16,-181.29 28.49,2.49 57.61,9.74 108.03,36.07 z m 343.35,8.64 -33.22,379.71 -89.1,-7.8 12.92,-147.63 -112.41,-9.84 -12.92,147.64 -89.1,-7.8 33.22,-379.71 89.1,7.8 -13.73,156.96 112.41,9.83 13.73,-156.96 89.1,7.8" /></g></g></svg>