<?xml version="1.0" encoding="UTF-8" standalone="no"?>
<svg
   xmlns:dc="http://purl.org/dc/elements/1.1/"
   xmlns:cc="http://creativecommons.org/ns#"
   xmlns:rdf="http://www.w3.org/1999/02/22-rdf-syntax-ns#"
   xmlns:svg="http://www.w3.org/2000/svg"
   xmlns="http://www.w3.org/2000/svg"
   viewBox="0 0 957.16929 571.31561"
   height="571.31561"
   width="957.16931"
   xml:space="preserve"
   id="svg2"
   version="1.1"><metadata
     id="metadata8"><rdf:RDF><cc:Work
         rdf:about=""><dc:format>image/svg+xml</dc:format><dc:type
           rdf:resource="http://purl.org/dc/dcmitype/StillImage" /><dc:title></dc:title></cc:Work></rdf:RDF></metadata><defs
     id="defs6"><clipPath
       id="clipPath22"
       clipPathUnits="userSpaceOnUse"><path
         id="path20"
         d="M 0,595.276 H 841.89 V 0 H 0 Z" /></clipPath></defs><g
     transform="matrix(1.3333333,0,0,-1.3333333,-82.632798,682.76322)"
     id="g10"><g
       transform="translate(375.3666,510.0201)"
       id="g12"><path
         id="path14"
         style="fill:#6ebf2a;fill-opacity:1;fill-rule:nonzero;stroke:none"
         d="M 0,0 0.757,-0.183 0.736,0.065 Z" /></g><g
       id="g16"><g
         clip-path="url(#clipPath22)"
         id="g18"><g
           transform="translate(377.5236,510.2091)"
           id="g24"><path
             id="path26"
             style="fill:#6ebf2a;fill-opacity:1;fill-rule:nonzero;stroke:none"
             d="M 0,0 C 0.275,-0.463 -0.688,-0.31 -1.169,-0.352 -0.927,-0.331 -0.502,0.205 0,0" /></g><g
           transform="translate(380.4566,509.7382)"
           id="g28"><path
             id="path30"
             style="fill:#6ebf2a;fill-opacity:1;fill-rule:nonzero;stroke:none"
             d="M 0,0 C 1.194,0.104 2.886,0.013 4.036,0.594 3.994,1.077 3.311,0.53 3.055,0.745 4.27,0.614 6.592,1.553 7.406,0.409 7.93,0.205 8.408,0.247 8.621,0.515 c 0.421,0.754 1.484,-0.602 1.63,0.622 -0.293,0.462 -0.5,0.194 -0.736,0.174 2.333,0.702 5.225,-2.183 7.706,-0.044 l -0.042,0.476 c 1.66,-0.095 3.332,0.292 4.797,-0.06 l -3.558,-0.56 c 0.546,-0.905 1.411,0.373 2.446,-0.507 1.134,0.82 2.679,-0.249 3.478,1.514 L 23.967,0.888 c 1.918,0.405 4.37,-0.332 5.454,0.96 L 29.177,1.827 c 0.833,-1.124 3.081,0.506 4.579,-0.083 l 5.531,0.001 C 39.073,1.495 39.136,0.784 39.852,0.846 l 0.936,0.311 C 40.519,1.383 40.263,1.6 40.034,1.58 40.923,2.371 42.925,1.344 44.376,1.471 44.618,1.263 42.967,0.866 44.228,0.254 l 1.335,1.321 0.567,-1.154 c 0.708,0.062 2.386,0.442 2.529,1.425 0.73,0.063 -0.165,-0.73 0.084,-0.963 0.338,-0.918 1.381,0.862 1.274,-0.606 0.702,0.062 1.807,1.13 2.617,0.229 1.832,0.878 3.628,-0.396 5.486,0.48 2.241,-1.004 4.77,0.187 7.244,-0.314 0.042,-0.483 -0.688,-0.547 -0.646,-1.035 l 0.269,-0.205 c 1.521,2.058 6.182,0.769 8.394,0.27 0.229,0.233 -0.06,0.688 0.413,0.729 0.524,-0.434 1.094,-1.6 2.288,-1.495 l 0.208,0.52 c -0.043,0.497 -0.526,0.454 -1.004,0.412 l -0.235,-0.02 -0.25,-0.022 c 0.404,0.97 1.194,0.104 1.922,0.168 -0.228,-0.267 0.317,-0.705 0.823,-0.93 -0.044,0.498 0.394,0.789 0.126,1.227 2.464,-0.731 5.53,-0.231 7.308,-1.272 0.728,-0.177 1.486,-0.609 2.424,-0.276 l -0.521,0.442 c 1.458,0.128 2.907,0.014 3.698,-0.868 0.697,0.295 1.617,0.594 1.719,-0.572 0.13,1.437 3.082,0.493 4.503,0.847 0.873,-1.591 2.506,-0.968 4.201,-1.299 0.234,0.257 -0.041,0.476 -0.062,0.711 l 1.284,-1.09 c 0.708,0.3 0.226,0.505 -0.084,0.958 1.191,0.342 1.984,-0.554 3.153,-0.204 -0.895,-0.564 -1.962,0.546 -2.605,-0.476 -0.442,-0.527 0.514,-0.192 0.556,-0.677 1.092,1.307 2.473,-0.736 2.793,0.97 0.344,-0.928 0.995,-0.15 1.453,-0.11 5.194,-1.48 11.387,-0.939 16.562,-2.388 l -0.421,-0.524 c 1.478,-0.591 3.58,0.314 3.728,-1.376 1.168,0.365 1.231,2.297 3.029,1.016 l 1.185,0.335 -0.433,-0.539 c 0.734,-0.154 1.199,-0.113 1.365,0.62 l -0.209,-0.249 1.237,-0.38 -0.439,-0.535 1.906,0.166 -1.115,-0.818 c 0.762,-3.32 4.703,-1.503 6.216,-2.327 l 0.022,-0.247 c 0.969,-0.182 1.657,0.145 2.892,-0.228 -0.317,0.932 -2.008,1.019 -2.997,1.424 l 0.231,0.021 -0.547,0.667 -0.646,-0.772 -4.125,0.355 c 0.694,0.289 1.691,-0.101 2.113,0.665 l -2.197,0.296 c 0.948,0.083 2.283,1.648 3.117,0.272 1.327,1.302 2.743,-1.214 3.852,-0.151 0.84,-1.361 1.93,-0.082 3.157,-0.203 -0.624,-1.262 0.84,-1.599 1.806,-1.515 l -3.327,-0.54 c 0.289,-0.695 2.135,0.187 2.487,-0.988 l 0.966,0.085 c -1.619,-0.62 0.187,-2.136 -0.483,-2.912 0.88,-1.624 1.476,-0.123 2.721,-0.731 1.776,-0.822 3.689,-0.897 5.634,-1.188 l -0.543,0.656 c 2.38,0.208 4.811,-2.445 6.544,-0.616 1.876,0.649 2.61,-2.197 4.603,-0.301 4.517,-2.03 10.63,-0.545 14.902,-2.569 l 1.113,0.828 c 0.283,-0.228 0.324,-0.703 0.792,-0.662 -0.447,-0.278 -1.157,-0.593 -1.549,-1.341 l 0.987,-0.631 c -0.2,-0.246 -0.722,0.176 -0.881,-0.579 6.547,-0.858 12.833,-1.264 19.108,-1.436 l 0.064,-0.726 c -12.792,0.562 -25.683,2.095 -38.194,2.431 -0.647,-1.006 -1.742,0.586 -2.098,-0.897 1.493,-0.587 3.783,0.57 5.547,-0.232 l 0.755,-0.436 c 0.102,1.73 2.131,0.459 3.137,0.042 2.854,0.25 7.193,0.158 10.381,-0.526 0.26,-0.23 0.063,-0.715 0.544,-0.673 l 0.19,0.484 c 1.72,-0.57 3.223,-1.152 4.876,-0.762 l 0.181,0.737 c 3.623,-0.148 6.638,-1.574 10.197,-1.263 -1.604,-0.878 -4.59,0.302 -6.722,0.115 -10.855,0.249 -21.529,1.505 -32.644,1.967 -1.311,1.087 -3.363,-0.059 -5.086,0.504 -5.104,0.524 -10.901,0.737 -15.542,1.53 -2.311,-0.916 -5.34,0.742 -8.238,0.755 -1.264,0.593 -2.697,-2.176 -3.12,-0.061 -0.741,0.174 -2.232,0.781 -2.86,-0.251 l -69.315,5.976 c -38.015,2.922 -81.619,-1.628 -118.931,-12.342 -41.138,-13.462 -76.001,-38.639 -108.434,-69.131 -4.604,-5.215 -9.88,-10.711 -15.521,-15.064 -1.748,-1.84 -2.729,-4.579 -4.992,-6.215 l -0.468,-0.041 c 7.929,16.575 24.399,31.472 36.686,45.069 3.995,3.955 9.264,6.812 12.25,11.161 l -0.231,-0.021 c 4.167,1.797 7.529,7.388 11.894,9.689 0.265,-0.215 0.284,-0.443 0.518,-0.422 0.231,0.249 0.462,0.269 0.441,0.507 l -0.253,0.23 c 2.447,2.154 6.15,3.926 8.838,6.064 3.783,3.708 8.513,4.354 12.047,8.035 3.016,1.237 5.217,3.582 8.776,4.107 0.376,1.267 1.77,1.857 2.95,2.197 l 0.02,-0.235 c 7.088,4.011 15.189,7.841 22.819,11.147 l 0.752,-0.419 c 1.481,2.551 4.725,1.136 6.678,3.458 1.546,-1.039 4.037,0.605 5.668,1.236 -1.004,0.607 -1.901,-0.407 -2.593,-0.715 0.438,0.767 2.755,1.694 3.77,1.059 1.043,1.761 3.754,1.284 5.082,2.365 0.19,0.487 0.04,-0.46 0.292,-0.686 1.502,2.051 5.857,1.945 7.975,2.365 l 3.978,1.317 c -0.529,0.668 -2.591,-0.71 -4.02,-0.835 l 10.339,2.824 0.509,-0.443 c 0.397,1.004 3.012,1.482 4.202,1.586 l -0.209,-0.267 c 0.501,-0.438 1.211,-0.123 1.923,-0.061 l -1.252,0.608 c 1.673,-0.093 3.519,1.022 5.039,0.202 l 0.442,0.508 -1.006,0.395 1.908,0.167 0.042,-0.479 1.409,0.123 -0.063,0.715 c 2.322,1.175 2.489,-0.733 4.981,0.919 l -0.425,-0.52 c 0.711,0.062 1.964,-0.298 2.369,0.453 l -1.7,0.088 c 0.437,0.527 1.404,0.373 2.114,0.435 -0.148,-0.746 0.569,-0.92 1.069,-0.877 0.684,0.298 1.129,0.582 1.842,0.882 -0.353,0.936 -0.733,-0.064 -1.221,0.142 1.261,2.034 1.388,-2.05 2.331,0.684 0.295,-0.454 0.359,-1.181 1.071,-1.118 l 0.187,0.499 -0.251,0.228 1.19,0.104 c 0,0 -0.206,-0.268 0.022,-0.248 0.02,-0.235 0.02,-0.235 0.266,-0.214 l 0.441,0.525 -0.265,0.216 3.759,1.057 0.083,-0.96 3.794,0.572 -1.491,0.597 2.855,0.249 -0.402,-0.762 c 1.72,-0.576 3.046,0.744 5.004,0.437 l -0.293,0.702 1.425,0.125 z" /></g><g
           transform="translate(389.2216,511.2325)"
           id="g32"><path
             id="path34"
             style="fill:#6ebf2a;fill-opacity:1;fill-rule:nonzero;stroke:none"
             d="M 0,0 C 0.298,-0.461 -1.4,-0.609 -1.443,-0.126 Z" /></g><g
           transform="translate(397.1586,511.1994)"
           id="g36"><path
             id="path38"
             style="fill:#6ebf2a;fill-opacity:1;fill-rule:nonzero;stroke:none"
             d="M 0,0 -1.494,0.597 -0.021,0.239 Z" /></g><g
           transform="translate(407.9186,511.9016)"
           id="g40"><path
             id="path42"
             style="fill:#6ebf2a;fill-opacity:1;fill-rule:nonzero;stroke:none"
             d="M 0,0 0.022,-0.248 -0.982,0.153 C -0.739,0.174 -0.26,0.216 0,0" /></g><g
           transform="translate(353.5606,506.4134)"
           id="g44"><path
             id="path46"
             style="fill:#6ebf2a;fill-opacity:1;fill-rule:nonzero;stroke:none"
             d="m 0,0 v 0 l -0.666,-0.528 -0.02,0.23 z" /></g><g
           transform="translate(448.9846,509.9495)"
           id="g48"><path
             id="path50"
             style="fill:#6ebf2a;fill-opacity:1;fill-rule:nonzero;stroke:none"
             d="M 0,0 -0.022,0.249 0.954,0.083 0.748,-0.175 Z" /></g><g
           transform="translate(492.8496,506.1006)"
           id="g52"><path
             id="path54"
             style="fill:#6ebf2a;fill-opacity:1;fill-rule:nonzero;stroke:none"
             d="M 0,0 C 0.021,-0.242 -0.439,-0.532 -0.669,-0.552 -0.46,-0.284 -0.231,-0.02 0,0" /></g><g
           transform="translate(513.2156,501.3727)"
           id="g56"><path
             id="path58"
             style="fill:#6ebf2a;fill-opacity:1;fill-rule:nonzero;stroke:none"
             d="M 0,0 -0.022,0.249 0.944,0.334 0.966,0.085 Z" /></g><g
           transform="translate(527.9186,501.223)"
           id="g60"><path
             id="path62"
             style="fill:#6ebf2a;fill-opacity:1;fill-rule:nonzero;stroke:none"
             d="m 0,0 -0.203,-0.483 0.141,1.198 C -0.062,0.715 0.46,0.293 0,0" /></g><g
           transform="translate(529.7506,502.1038)"
           id="g64"><path
             id="path66"
             style="fill:#6ebf2a;fill-opacity:1;fill-rule:nonzero;stroke:none"
             d="M 0,0 -0.02,0.236 0.726,0.064 0.746,-0.164 Z" /></g><g
           transform="translate(531.6796,502.0437)"
           id="g68"><path
             id="path70"
             style="fill:#6ebf2a;fill-opacity:1;fill-rule:nonzero;stroke:none"
             d="M 0,0 C 0.02,-0.237 -0.465,-0.041 -0.929,-0.081 -0.702,-0.061 -0.275,0.442 0,0" /></g><g
           transform="translate(532.6846,501.6399)"
           id="g72"><path
             id="path74"
             style="fill:#6ebf2a;fill-opacity:1;fill-rule:nonzero;stroke:none"
             d="m 0,0 c -0.671,-0.523 0.085,-0.973 0.355,-1.404 -0.733,0.176 -0.9,-0.563 -0.628,-1.018 -0.523,0.433 -1.706,0.329 -1.41,-0.123 0.207,0.25 0.143,0.976 -0.105,1.193 -0.523,0.436 -1.211,0.109 -1.71,0.066 0.647,0.801 -0.724,0.203 -0.546,0.932 C -2.542,-1.203 -1.407,-0.359 0,0" /></g><g
           transform="translate(535.1326,501.1403)"
           id="g76"><path
             id="path78"
             style="fill:#6ebf2a;fill-opacity:1;fill-rule:nonzero;stroke:none"
             d="M 0,0 -0.543,0.666 -0.022,0.247 Z" /></g><g
           transform="translate(537.6376,500.1535)"
           id="g80"><path
             id="path82"
             style="fill:#6ebf2a;fill-opacity:1;fill-rule:nonzero;stroke:none"
             d="m 0,0 c -0.423,-0.754 -2.924,0.229 -2.032,-1.605 1.236,-0.616 1.652,0.356 2.583,0.69 l -0.279,0.461 c 1.471,-0.11 1.07,1.511 2.365,0.207 L 2.01,-1.04 c 0.23,0.02 0.018,-0.21 0.04,-0.461 -0.286,0.692 -1.459,0.125 -1.884,-0.4 1.828,-1.531 2.275,1.398 3.983,1.048 0.33,1.73 1.711,-0.315 2.129,0.685 L 6.042,-0.435 c 0.55,-0.904 1.389,0.368 2.126,0.433 -0.918,-0.579 0.124,-1.424 0.168,-1.926 -2.61,-0.44 -4.293,2.282 -5.532,-0.227 1.8,-1.281 0.648,1.029 2.358,0.691 l -1.122,-0.839 6.363,-1.111 0.188,0.502 12.428,-1.782 1.32,1.304 c -1.526,-1.844 1.046,-1.097 1.589,-1.801 3.788,0.817 8.27,-0.95 11.881,-0.883 2.647,-0.237 6.265,-0.405 9.154,-0.398 6.847,-1.085 13.5,-2.911 21.112,-2.009 -1.717,0.348 -4.443,-1.598 -5.965,-0.522 -2.153,-0.188 -6.019,-0.028 -7.927,-0.195 -1.108,1.577 -3.334,-0.541 -5.091,0.487 0.224,0.02 -0.064,0.736 0.159,0.755 0.97,0.085 1.973,-0.295 2.645,-0.008 -1.256,0.608 -3.496,1.617 -4.55,0.084 -2.042,-1.613 -4.423,1.054 -6.264,-0.312 l -0.754,0.648 c -0.222,-0.232 -0.178,-0.73 -0.656,-0.772 -0.96,2.806 -3.956,1.106 -5.582,0.717 l 0.212,0.265 C 33.339,-7.418 32.06,-6.577 31.707,-7.807 L 31.222,-7.85 c -0.275,0.455 0.443,0.518 0.401,0.999 -0.527,0.439 -0.966,-0.085 -1.698,0.087 l 0.564,-0.903 c -0.774,0.417 -0.815,0.881 -1.929,0.063 l -0.494,-0.043 c 0.195,0.502 0.646,0.777 0.368,1.487 -0.236,-0.27 -1.436,0.093 -1.353,-0.853 l 0.02,-0.234 -0.802,0.9 c -0.184,-0.986 -0.746,-0.065 -1.458,-0.127 -1.694,0.316 -3.515,-1.042 -5.065,0.28 0.938,0.325 1.737,-0.572 2.66,-0.272 -0.315,0.942 -2.721,0.961 -3.667,0.649 -0.856,-1.263 -2.236,0.767 -3.893,0.622 l -0.639,-1.019 -0.783,0.683 0.438,0.49 0.28,-0.427 c 1.334,1.305 3.618,-0.206 5.003,0.438 -3.499,1.586 -7.918,0.011 -10.762,-0.491 L 8.077,-4.567 7.624,-4.852 c -0.53,0.903 -2.454,0.489 -3.563,-0.312 0.166,0.718 -2.22,0.51 -2.996,1.186 L -0.11,-4.333 c 0.826,1.527 2.864,0.25 4.253,0.857 l 0.042,-0.482 3.852,-0.154 c -4.751,1.999 -11.403,1.16 -17.024,2.363 1.351,0.835 4.172,-1.073 5.93,0.765 l -1.708,0.321 1.883,0.411 -0.586,1.155 C -3.119,-0.273 -1.025,0.395 0,0" /></g><g
           transform="translate(530.6846,499.7844)"
           id="g84"><path
             id="path86"
             style="fill:#6ebf2a;fill-opacity:1;fill-rule:nonzero;stroke:none"
             d="M 0,0 C -0.481,-0.042 -1.375,-0.837 -1.458,0.118 Z" /></g><g
           transform="translate(547.5776,499.1073)"
           id="g88"><path
             id="path90"
             style="fill:#6ebf2a;fill-opacity:1;fill-rule:nonzero;stroke:none"
             d="m 0,0 c 1.735,-0.589 3.596,0.079 4.643,-0.799 2.16,2.593 2.516,-1.474 5.068,-0.274 0.872,1.046 1.444,0.126 2.572,0.942 0.526,-0.439 0.082,-0.942 -0.165,-0.964 0.545,-0.697 2.073,1.131 2.004,-0.812 -0.984,0.157 -1.961,0.317 -3.154,0.213 l 1.024,-0.614 -1.912,-0.168 0.693,0.276 c -0.27,0.465 -0.564,0.938 -1.25,0.625 C 9.028,-1.618 7.936,-2.909 6.946,-2.292 l 0.886,0.569 C 7.276,-0.569 5.651,-1.428 4.643,-0.799 L 4.685,-1.281 5.94,-1.888 C 4.22,-1.554 0.209,-2.39 -1.421,-0.124 l 1.338,1.069 z" /></g><g
           transform="translate(549.7086,499.5295)"
           id="g92"><path
             id="path94"
             style="fill:#6ebf2a;fill-opacity:1;fill-rule:nonzero;stroke:none"
             d="M 0,0 -0.521,0.419 -0.04,0.461 Z" /></g><g
           transform="translate(531.2086,496.7221)"
           id="g96"><path
             id="path98"
             style="fill:#6ebf2a;fill-opacity:1;fill-rule:nonzero;stroke:none"
             d="M 0,0 C 0.446,0.251 1.202,-0.147 1.37,0.588 L 6.234,0.067 C 5.759,-0.234 5.114,-0.755 4.404,-1.07 L 4.3,0.124 C 2.186,-0.546 2.326,0.671 0.993,-0.651 -0.499,0.168 -3.788,-0.81 -3.721,1.116 -2.255,0.991 -0.103,1.18 0,0" /></g><g
           transform="translate(556.9556,499.1867)"
           id="g100"><path
             id="path102"
             style="fill:#6ebf2a;fill-opacity:1;fill-rule:nonzero;stroke:none"
             d="m 0,0 -1.222,0.149 1.2,0.105 z" /></g><g
           transform="translate(570.8846,496.5662)"
           id="g104"><path
             id="path106"
             style="fill:#6ebf2a;fill-opacity:1;fill-rule:nonzero;stroke:none"
             d="m 0,0 0.018,-0.21 c -0.871,-1.05 -2.21,0.51 -3.572,-0.313 -1.042,1.098 -3.153,0.428 -4.894,1.007 L -7.063,0.82 -7.127,1.549 C -4.636,1.032 -2.4,0.029 0,0" /></g><g
           transform="translate(568.1646,497.5509)"
           id="g108"><path
             id="path110"
             style="fill:#6ebf2a;fill-opacity:1;fill-rule:nonzero;stroke:none"
             d="m 0,0 -0.959,-0.084 c 0.234,0.02 0.42,0.741 0.92,0.538 z" /></g><g
           transform="translate(538.8066,494.9824)"
           id="g112"><path
             id="path114"
             style="fill:#6ebf2a;fill-opacity:1;fill-rule:nonzero;stroke:none"
             d="M 0,0 0.043,-0.495 -0.5,0.171 C -0.263,0.192 -0.244,-0.021 0,0" /></g><g
           transform="translate(572.2136,497.6593)"
           id="g116"><path
             id="path118"
             style="fill:#6ebf2a;fill-opacity:1;fill-rule:nonzero;stroke:none"
             d="M 0,0 C -0.589,-1.24 -2.41,0.25 -2.891,0.208 Z" /></g><g
           transform="translate(544.5216,495.4823)"
           id="g120"><path
             id="path122"
             style="fill:#6ebf2a;fill-opacity:1;fill-rule:nonzero;stroke:none"
             d="M 0,0 C 0.043,-0.495 -0.404,-0.766 -0.669,-0.557 -0.928,-0.327 -0.21,-0.018 0,0" /></g><g
           transform="translate(574.0736,496.1111)"
           id="g124"><path
             id="path126"
             style="fill:#6ebf2a;fill-opacity:1;fill-rule:nonzero;stroke:none"
             d="M 0,0 -2.426,0.044 -2.467,0.518 C -1.549,0.838 -0.768,0.189 0,0" /></g><g
           transform="translate(554.2736,493.9276)"
           id="g128"><path
             id="path130"
             style="fill:#6ebf2a;fill-opacity:1;fill-rule:nonzero;stroke:none"
             d="M 0,0 -0.731,0.158 -0.019,0.22 Z" /></g><g
           transform="translate(571.7306,495.2126)"
           id="g132"><path
             id="path134"
             style="fill:#6ebf2a;fill-opacity:1;fill-rule:nonzero;stroke:none"
             d="m 0,0 -0.963,-0.084 c 0.201,0.482 0.431,0.502 0.923,0.545 z" /></g><g
           transform="translate(575.9916,496.0498)"
           id="g136"><path
             id="path138"
             style="fill:#6ebf2a;fill-opacity:1;fill-rule:nonzero;stroke:none"
             d="M 0,0 C -0.245,-0.244 -1.397,-0.587 -0.976,-0.085 Z" /></g><g
           transform="translate(582.9216,496.434)"
           id="g140"><path
             id="path142"
             style="fill:#6ebf2a;fill-opacity:1;fill-rule:nonzero;stroke:none"
             d="M 0,0 0.222,0.242 1.728,-0.351 Z" /></g><g
           transform="translate(590.2875,494.6571)"
           id="g144"><path
             id="path146"
             style="fill:#6ebf2a;fill-opacity:1;fill-rule:nonzero;stroke:none"
             d="m 0,0 c -0.416,-0.754 -1.5,0.589 -1.857,-0.641 l 0.761,-0.425 c -0.7,-0.273 -2.399,2.68 -2.9,0.238 l -0.75,0.181 0.234,0.02 c -2.306,1.486 -6.386,1.593 -9.447,0.861 1.492,2.07 4.257,0.837 6.43,0.562 C -4.892,1.027 -2.442,0.507 0,0" /></g><g
           transform="translate(579.7275,494.4538)"
           id="g148"><path
             id="path150"
             style="fill:#6ebf2a;fill-opacity:1;fill-rule:nonzero;stroke:none"
             d="m 0,0 -0.723,0.186 0.701,0.061 z" /></g><g
           transform="translate(590.6916,495.6623)"
           id="g152"><path
             id="path154"
             style="fill:#6ebf2a;fill-opacity:1;fill-rule:nonzero;stroke:none"
             d="m 0,0 c -0.23,-0.269 0.021,-0.247 0.021,-0.247 l -0.509,0.204 z" /></g><g
           transform="translate(592.8686,495.6035)"
           id="g156"><path
             id="path158"
             style="fill:#6ebf2a;fill-opacity:1;fill-rule:nonzero;stroke:none"
             d="M 0,0 C -0.234,-0.256 -0.447,-0.507 -0.172,-0.968 0.147,-1.678 0.505,-0.424 0.569,-1.149 -0.108,-1.7 -1.849,-0.882 -2.497,-1.909 -2.581,-0.946 -0.712,-0.298 0,0" /></g><g
           transform="translate(595.0376,495.5575)"
           id="g160"><path
             id="path162"
             style="fill:#6ebf2a;fill-opacity:1;fill-rule:nonzero;stroke:none"
             d="M 0,0 C -0.222,-0.504 -1.164,-0.587 -1.42,-0.357 -1.248,0.376 -0.515,0.191 0,0" /></g><g
           transform="translate(595.6066,494.4051)"
           id="g164"><path
             id="path166"
             style="fill:#6ebf2a;fill-opacity:1;fill-rule:nonzero;stroke:none"
             d="m 0,0 c -0.167,-0.742 -0.959,-0.084 -1.649,-0.397 l 0.181,0.508 C -0.959,-0.084 -0.506,0.441 0,0" /></g><g
           transform="translate(597.9966,494.6142)"
           id="g168"><path
             id="path170"
             style="fill:#6ebf2a;fill-opacity:1;fill-rule:nonzero;stroke:none"
             d="M 0,0 C -0.675,-0.523 -0.946,-0.083 -1.632,-0.396 L -1.675,0.092 C -1.217,-0.107 -0.523,0.193 0,0" /></g><g
           transform="translate(584.9136,490.102)"
           id="g172"><path
             id="path174"
             style="fill:#6ebf2a;fill-opacity:1;fill-rule:nonzero;stroke:none"
             d="m 0,0 -19.734,0.196 0.949,0.083 -2.749,1.205 0.243,0.26 C -14.254,0.676 -6.78,0.589 0,0" /></g><g
           transform="translate(599.9226,494.5301)"
           id="g176"><path
             id="path178"
             style="fill:#6ebf2a;fill-opacity:1;fill-rule:nonzero;stroke:none"
             d="M 0,0 -1.214,0.146 C -1.005,0.404 -0.301,0.712 0,0" /></g><g
           transform="translate(573.9235,492.0437)"
           id="g180"><path
             id="path182"
             style="fill:#6ebf2a;fill-opacity:1;fill-rule:nonzero;stroke:none"
             d="M 0,0 0.462,0.505 1.67,0.358 Z" /></g><g
           transform="translate(598.3106,493.675)"
           id="g184"><path
             id="path186"
             style="fill:#6ebf2a;fill-opacity:1;fill-rule:nonzero;stroke:none"
             d="M 0,0 0.668,0.561 1.207,0.106 Z" /></g><g
           transform="translate(604.7775,494.241)"
           id="g188"><path
             id="path190"
             style="fill:#6ebf2a;fill-opacity:1;fill-rule:nonzero;stroke:none"
             d="M 0,0 C -0.782,-2.22 -3.139,-0.035 -4.549,-0.398 -3.18,0.436 -1.075,-1.764 0,0" /></g><g
           transform="translate(596.0436,492.2575)"
           id="g192"><path
             id="path194"
             style="fill:#6ebf2a;fill-opacity:1;fill-rule:nonzero;stroke:none"
             d="M 0,0 C -0.457,-0.272 -0.312,0.714 -0.353,1.188 0.403,1.019 -0.023,0.271 0,0" /></g><g
           transform="translate(597.2166,492.6333)"
           id="g196"><path
             id="path198"
             style="fill:#6ebf2a;fill-opacity:1;fill-rule:nonzero;stroke:none"
             d="M 0,0 -0.041,0.464 1.156,0.33 Z" /></g><g
           transform="translate(607.2636,493.2391)"
           id="g200"><path
             id="path202"
             style="fill:#6ebf2a;fill-opacity:1;fill-rule:nonzero;stroke:none"
             d="M 0,0 -1.929,0.104 C -1.55,0.848 -0.574,0.933 0,0" /></g><g
           transform="translate(599.6226,492.5707)"
           id="g204"><path
             id="path206"
             style="fill:#6ebf2a;fill-opacity:1;fill-rule:nonzero;stroke:none"
             d="M 0,0 0.689,0.333 1.882,0.438 Z" /></g><g
           transform="translate(565.9946,489.1778)"
           id="g208"><path
             id="path210"
             style="fill:#6ebf2a;fill-opacity:1;fill-rule:nonzero;stroke:none"
             d="M 0,0 -0.039,0.447 1.157,0.552 Z" /></g><g
           transform="translate(571.0296,489.3655)"
           id="g212"><path
             id="path214"
             style="fill:#6ebf2a;fill-opacity:1;fill-rule:nonzero;stroke:none"
             d="M 0,0 -0.041,0.468 1.181,0.356 Z" /></g><g
           transform="translate(604.9446,492.3327)"
           id="g216"><path
             id="path218"
             style="fill:#6ebf2a;fill-opacity:1;fill-rule:nonzero;stroke:none"
             d="M 0,0 C -0.23,-0.498 -1.2,-0.334 -1.472,0.124 -0.991,0.166 -0.312,0.444 0,0" /></g><g
           transform="translate(606.6406,492.0029)"
           id="g220"><path
             id="path222"
             style="fill:#6ebf2a;fill-opacity:1;fill-rule:nonzero;stroke:none"
             d="m 0,0 -0.781,0.41 0.739,0.064 z" /></g><g
           transform="translate(576.6396,488.6406)"
           id="g224"><path
             id="path226"
             style="fill:#6ebf2a;fill-opacity:1;fill-rule:nonzero;stroke:none"
             d="M 0,0 -2.442,0.275 C -1.848,1.758 -0.976,-0.085 0,0" /></g><g
           transform="translate(587.8096,490.1061)"
           id="g228"><path
             id="path230"
             style="fill:#6ebf2a;fill-opacity:1;fill-rule:nonzero;stroke:none"
             d="M 0,0 C -0.257,-0.023 -1.078,-1.304 -1.437,-0.126 -0.999,0.411 -0.474,-0.042 0,0" /></g><g
           transform="translate(582.1726,488.4038)"
           id="g232"><path
             id="path234"
             style="fill:#6ebf2a;fill-opacity:1;fill-rule:nonzero;stroke:none"
             d="m 0,0 -0.939,-0.082 0.158,0.735 C -0.76,0.415 -0.042,0.478 0,0" /></g><g
           transform="translate(564.9736,487.3807)"
           id="g236"><path
             id="path238"
             style="fill:#6ebf2a;fill-opacity:1;fill-rule:nonzero;stroke:none"
             d="M 0,0 C -0.698,-0.543 -1.406,-0.605 -2.139,-0.416 -1.469,0.111 -0.739,-0.065 0,0" /></g><g
           transform="translate(607.7416,490.4292)"
           id="g240"><path
             id="path242"
             style="fill:#6ebf2a;fill-opacity:1;fill-rule:nonzero;stroke:none"
             d="m 0,0 -5.769,-0.04 c 1.318,1.57 3.907,-0.625 5.728,0.501 z" /></g><g
           transform="translate(585.3386,488.2129)"
           id="g244"><path
             id="path246"
             style="fill:#6ebf2a;fill-opacity:1;fill-rule:nonzero;stroke:none"
             d="m 0,0 -0.976,-0.085 0.211,0.274 -1.002,0.606 C -1.059,0.857 -0.063,0.715 0,0" /></g><g
           transform="translate(583.9586,487.3611)"
           id="g248"><path
             id="path250"
             style="fill:#6ebf2a;fill-opacity:1;fill-rule:nonzero;stroke:none"
             d="M 0,0 C -0.241,-0.021 -0.995,0.398 -1.184,-0.336 L 4.7,-1.494 c -2.386,-0.209 -5.821,0.44 -7.576,1.495 z" /></g><g
           transform="translate(591.3185,485.6006)"
           id="g252"><path
             id="path254"
             style="fill:#6ebf2a;fill-opacity:1;fill-rule:nonzero;stroke:none"
             d="M 0,0 -1.891,-0.166 -1.935,0.329 C -1.44,0.14 -0.525,0.453 0,0" /></g><g
           transform="translate(602.5976,483.2469)"
           id="g256"><path
             id="path258"
             style="fill:#6ebf2a;fill-opacity:1;fill-rule:nonzero;stroke:none"
             d="M 0,0 -5.272,-0.013 -5.316,0.485 C -2.929,0.448 -2.162,0.04 0,0" /></g><g
           transform="translate(622.5686,483.0409)"
           id="g260"><path
             id="path262"
             style="fill:#6ebf2a;fill-opacity:1;fill-rule:nonzero;stroke:none"
             d="m 0,0 c -0.441,-3.157 3.608,-5.443 0.268,-8.375 -2.776,-1.449 -3.482,-4.393 -6.264,-5.613 0.146,-1.668 -1.25,-2.275 -2.64,-2.625 l -5.879,0.913 c -2.617,-2.883 -5.507,-5.534 -8.184,-8.159 l 0.314,-0.464 -1.424,-0.357 c 1.07,-1.098 -1.28,-2.031 -1.654,-3.027 -1.696,0.105 -0.311,-1.953 -1.985,-2.1 0.25,-0.203 0.497,-0.182 0.975,-0.14 -0.701,-0.338 -1.298,-1.555 -1.876,-0.656 -1.135,-0.837 -0.251,-2.672 -2.469,-1.917 l 0.04,-0.457 c -0.514,0.416 -1.43,-0.125 -1.143,-0.828 -0.182,-0.497 0.516,-0.436 0.538,-0.68 0.215,0.5 1.171,0.584 1.632,0.624 l -2.563,-3.578 -0.324,0.935 c -0.762,0.401 -1.617,-0.876 -1.321,-1.335 0.508,-0.185 0.942,0.082 1.427,0.124 l -1.536,-1.811 c -0.297,0.705 -0.963,0.155 -1.189,-0.104 l 0.549,-0.659 -2.376,-0.478 c 1.552,-1.062 -0.462,-2.68 -1.407,-3.012 -0.452,-0.258 -0.68,-0.77 -0.871,-1.006 l 0.523,-0.442 -0.271,-0.024 0.044,-0.501 c -1.19,-0.104 -2.597,-0.456 -3.413,-1.983 l 1.225,-0.104 -1.394,-0.611 0.767,-0.414 c -0.495,-0.044 -0.683,-0.545 -0.641,-1.026 -0.461,-0.041 -1.905,-0.406 -2.582,-0.943 0.02,-0.231 0.299,-0.446 0.321,-0.696 l -0.437,-0.516 c -0.297,0.704 -1.004,0.39 -1.489,0.347 l 1.06,-1.106 c -0.725,-2.717 -3.384,0.425 -4.402,-1.833 0.558,-0.918 2.107,0.663 2.023,-1.029 -0.94,-0.311 -1.027,-2.009 -2.304,-1.383 -0.811,1.111 -2.661,-2.183 -4.077,0.108 -0.719,-0.063 -2.052,-1.382 -0.845,-1.509 -0.539,0.923 -1.618,-0.636 -2.316,-0.94 l 0.564,-0.9 -2.03,-1.629 c 1.48,-0.363 1.842,1.127 2.742,1.691 l -0.104,1.183 c 0.605,-1.375 1.415,0.387 1.876,0.659 1.968,-0.323 3.998,1.068 5.928,0.983 l -0.712,-0.294 0.525,-0.419 c -0.853,-1.297 -3.118,0.192 -3.999,-1.098 0.287,-0.197 0.506,-0.43 0.526,-0.66 -0.464,-0.041 -1.445,0.358 -1.757,1.038 l -1.531,-1.562 0.947,-0.166 -1.134,-0.588 c 0.313,-0.686 1.438,0.126 2.156,0.189 l 0.019,-0.217 1.701,-0.111 c -2.077,-1.134 -3.15,-2.68 -5.495,-3.367 l 0.09,1.709 c -1.214,0.126 -1.257,-2.03 -2.497,-1.68 -0.882,-0.771 -2.653,-2.63 -4.172,-1.813 0.453,0.292 1.437,0.125 1.121,0.852 -0.772,0.626 -1.404,-0.392 -2.326,-0.705 l 0.04,-0.461 c -1.354,1.541 -2.063,-1.168 -2.968,-1.715 0.988,-0.398 1.822,0.877 3.054,0.735 l -2.212,-2.116 c 0.419,0.515 -0.586,1.144 -1.297,1.082 -0.965,-0.085 -1.651,-0.599 -2.16,0.071 l -2.528,-1.677 c 1.057,-1.103 1.63,0.621 2.865,0.251 l -0.65,-0.542 0.272,-0.687 -0.447,-0.278 -0.286,0.457 c -0.921,-0.562 -2.048,-1.146 -2.972,-1.944 l 1.071,-0.88 c -2.223,0.544 -4.15,-2.033 -5.991,-3.157 l -0.264,0.209 c -0.727,-2.7 -3.65,-2.007 -4.634,-4.507 -1.49,0.364 -2.008,-1.833 -3.92,-2 -2.801,-3.858 -8.141,-3.369 -10.665,-7.436 0.246,0.022 0.288,-0.46 0.042,-0.481 -2.662,0.252 -4.505,-3.509 -7.586,-4.011 0.566,1.976 3.231,1.717 4.042,3.222 2.048,1.382 5.003,3.56 7.226,5.442 0.484,0.042 0.914,0.565 1.352,1.088 -0.328,0.941 -1.456,0.101 -1.875,-0.417 l 0.378,0.99 c 7.911,5.999 14.816,14.79 22.471,20.75 l 1.095,1.541 c -3.753,-1.292 -6.041,-5.597 -9.747,-6.874 2.199,2.344 4.962,3.791 5.647,6.734 l 0.48,-0.177 20.329,23.405 0.326,-0.685 1.242,2.042 0.523,-0.439 c -0.382,1.643 1.345,1.071 1.945,2.564 3.813,5.877 9.117,11.146 12.708,16.758 l 0.478,0.042 c 0.022,-0.254 -0.212,-0.275 -0.435,-0.53 2.382,0.209 3.203,4.611 5.882,4.361 2.408,2.615 4.836,5.232 7.578,6.923 l -1.012,0.632 c 0.13,1.207 1.409,0.369 1.845,0.886 l -0.354,0.928 c 6.925,0.842 11.425,7.028 18.94,6.469 C -3.796,2.325 -1.676,0.102 0,0" /></g><g
           transform="translate(566.7086,420.6957)"
           id="g264"><path
             id="path266"
             style="fill:#6ebf2a;fill-opacity:1;fill-rule:nonzero;stroke:none"
             d="M 0,0 C -0.247,-0.022 -0.895,-0.816 -0.959,-0.084 Z" /></g><g
           transform="translate(560.8066,413.9117)"
           id="g268"><path
             id="path270"
             style="fill:#6ebf2a;fill-opacity:1;fill-rule:nonzero;stroke:none"
             d="m 0,0 0.255,-0.224 -2.743,-1.674 -0.528,0.685 c -1.126,-1.062 -2.57,-0.956 -3.678,-2.04 0.294,-0.425 0.752,-0.15 0.985,-0.129 -2.115,-0.902 -3.163,-2.196 -5.273,-3.105 l 1.69,-0.078 -3.074,-0.774 c 0.084,-0.963 -2.129,-0.186 -1.048,-1.526 1.194,-0.148 2.558,0.941 3.741,1.044 -3.719,-1.295 -7.398,-3.283 -10.792,-5.753 l 0.779,-0.663 c -0.885,-0.78 -1.433,0.135 -2.584,-0.444 0.563,-1.174 -1.406,-0.608 -1.799,-1.612 -0.897,-0.564 -1.776,-1.843 -3.262,-1.256 3.76,1.063 5.566,5.286 9.541,6.382 l 6.489,5.629 -0.183,-0.522 c 1.873,0.417 3.355,2.682 4.684,4.024 l 0.295,-0.445 3.983,3.937 c 1.73,-0.801 2.568,0.71 3.969,1.096 -0.126,1.43 1.43,0.125 1.844,1.097 C 4.416,1.828 1.03,1.767 0,0" /></g><g
           transform="translate(558.1946,413.4377)"
           id="g272"><path
             id="path274"
             style="fill:#6ebf2a;fill-opacity:1;fill-rule:nonzero;stroke:none"
             d="M 0,0 2.507,1.674 2.971,1.715 Z" /></g><g
           transform="translate(553.8616,413.5367)"
           id="g276"><path
             id="path278"
             style="fill:#6ebf2a;fill-opacity:1;fill-rule:nonzero;stroke:none"
             d="m 0,0 c 0.609,-1.378 -0.92,-0.559 -1.312,-1.546 l -0.277,0.444 C -0.608,-1.235 -0.941,-0.315 0,0" /></g><g
           transform="translate(559.6346,413.5637)"
           id="g280"><path
             id="path282"
             style="fill:#6ebf2a;fill-opacity:1;fill-rule:nonzero;stroke:none"
             d="M 0,0 -0.021,0.244 0.443,0.285 0.464,0.04 Z" /></g><g
           transform="translate(552.8576,411.0507)"
           id="g284"><path
             id="path286"
             style="fill:#6ebf2a;fill-opacity:1;fill-rule:nonzero;stroke:none"
             d="m 0,0 -0.713,0.423 0.671,0.059 z" /></g><g
           transform="translate(556.0806,410.1447)"
           id="g288"><path
             id="path290"
             style="fill:#6ebf2a;fill-opacity:1;fill-rule:nonzero;stroke:none"
             d="M 0,0 C 0.044,-0.499 -1.05,-1.54 -1.987,-1.875 -2.091,-0.685 -0.942,-0.083 0,0" /></g><g
           transform="translate(546.4706,407.3877)"
           id="g292"><path
             id="path294"
             style="fill:#6ebf2a;fill-opacity:1;fill-rule:nonzero;stroke:none"
             d="m 0,0 -0.5,0.171 0.481,0.042 z" /></g><g
           transform="translate(553.8456,408.2477)"
           id="g296"><path
             id="path298"
             style="fill:#6ebf2a;fill-opacity:1;fill-rule:nonzero;stroke:none"
             d="M 0,0 C -0.426,-0.734 -1.093,-1.298 -1.785,-1.358 -1.848,-0.633 -0.718,-0.278 0,0" /></g><g
           transform="translate(548.4946,403.4557)"
           id="g300"><path
             id="path302"
             style="fill:#6ebf2a;fill-opacity:1;fill-rule:nonzero;stroke:none"
             d="M 0,0 -0.244,-0.021 C -0.74,0.42 0.433,0.523 0.595,1.248 0.886,0.809 0.454,0.276 0,0" /></g><g
           transform="translate(547.8386,402.9137)"
           id="g304"><path
             id="path306"
             style="fill:#6ebf2a;fill-opacity:1;fill-rule:nonzero;stroke:none"
             d="M 0,0 C -3.225,-1.713 -5.38,-4.563 -9.092,-6.09 -5.637,-4.585 -3.775,-1.044 0,0" /></g><g
           transform="translate(537.8496,396.0287)"
           id="g308"><path
             id="path310"
             style="fill:#6ebf2a;fill-opacity:1;fill-rule:nonzero;stroke:none"
             d="m 0,0 -0.262,0.223 0.241,0.021 z" /></g><g
           transform="translate(532.4276,394.6047)"
           id="g312"><path
             id="path314"
             style="fill:#6ebf2a;fill-opacity:1;fill-rule:nonzero;stroke:none"
             d="m 0,0 0.523,-0.433 c -0.647,-0.801 -2.39,-0.209 -2.762,-1.457 -0.418,2.122 2.009,1.87 3.328,3.18 z" /></g><g
           transform="translate(532.8296,392.6997)"
           id="g316"><path
             id="path318"
             style="fill:#6ebf2a;fill-opacity:1;fill-rule:nonzero;stroke:none"
             d="M 0,0 3.618,2.721 C 3.765,1.047 1.145,0.585 0,0" /></g><g
           transform="translate(526.0446,393.3087)"
           id="g320"><path
             id="path322"
             style="fill:#6ebf2a;fill-opacity:1;fill-rule:nonzero;stroke:none"
             d="M 0,0 0.411,0.773 0.895,0.816 Z" /></g><g
           transform="translate(527.0276,390.2726)"
           id="g324"><path
             id="path326"
             style="fill:#6ebf2a;fill-opacity:1;fill-rule:nonzero;stroke:none"
             d="m 0,0 c -2.098,-0.416 -3.286,-3.648 -5.26,-2.872 l -0.064,0.739 0.476,0.042 -0.218,-0.285 c 0.499,-0.175 1.656,0.145 1.364,0.85 0.752,-0.399 1.815,1.129 2.296,1.403 l -0.501,-0.044 c 0.174,0.733 1.404,0.608 1.845,0.879 L 2.412,2.848 C 3.056,0.985 -0.188,2.149 0,0" /></g><g
           transform="translate(532.4276,391.9467)"
           id="g328"><path
             id="path330"
             style="fill:#6ebf2a;fill-opacity:1;fill-rule:nonzero;stroke:none"
             d="M 0,0 V 0 L -0.526,0.433 C -0.272,0.455 -0.022,0.251 0,0" /></g><g
           transform="translate(531.7416,391.4027)"
           id="g332"><path
             id="path334"
             style="fill:#6ebf2a;fill-opacity:1;fill-rule:nonzero;stroke:none"
             d="M 0,0 C 0.283,-0.433 -0.448,-0.272 -0.929,-0.314 L -0.283,0.46 Z" /></g><g
           transform="translate(530.3766,390.5656)"
           id="g336"><path
             id="path338"
             style="fill:#6ebf2a;fill-opacity:1;fill-rule:nonzero;stroke:none"
             d="M 0,0 C 0.02,-0.231 -0.189,-0.495 -0.189,-0.495 L -0.231,-0.02 Z" /></g><g
           transform="translate(529.4686,390.0077)"
           id="g340"><path
             id="path342"
             style="fill:#6ebf2a;fill-opacity:1;fill-rule:nonzero;stroke:none"
             d="m 0,0 -0.202,-0.495 -0.279,0.453 c 0,0 0.46,0.286 0.481,0.042" /></g><g
           transform="translate(515.3475,386.3617)"
           id="g344"><path
             id="path346"
             style="fill:#6ebf2a;fill-opacity:1;fill-rule:nonzero;stroke:none"
             d="M 0,0 0.154,0.97 0.876,1.033 Z" /></g><g
           transform="translate(521.8295,386.6957)"
           id="g348"><path
             id="path350"
             style="fill:#6ebf2a;fill-opacity:1;fill-rule:nonzero;stroke:none"
             d="M 0,0 0.041,-0.474 C -1.461,0.105 -2.945,-2.197 -4.12,-2.512 l 1.071,1.508 c -0.023,0.258 -0.481,-0.042 -0.258,0.237 l 1.428,0.125 -0.753,0.412 0.231,0.02 C -2.023,-1.611 -0.813,0.9 0,0" /></g><g
           transform="translate(517.6286,385.1127)"
           id="g352"><path
             id="path354"
             style="fill:#6ebf2a;fill-opacity:1;fill-rule:nonzero;stroke:none"
             d="M 0,0 0.177,0.494 0.442,0.517 Z" /></g><g
           transform="translate(515.1835,382.7267)"
           id="g356"><path
             id="path358"
             style="fill:#6ebf2a;fill-opacity:1;fill-rule:nonzero;stroke:none"
             d="M 0,0 2.086,1.166 0.041,-0.468 Z" /></g><g
           transform="translate(514.5676,381.4907)"
           id="g360"><path
             id="path362"
             style="fill:#6ebf2a;fill-opacity:1;fill-rule:nonzero;stroke:none"
             d="m 0,0 c -0.464,-0.04 -0.918,-0.312 -1.398,-0.354 l 1.085,1.297 C -0.061,0.705 -0.019,0.224 0,0" /></g><g
           transform="translate(512.6666,381.3246)"
           id="g364"><path
             id="path366"
             style="fill:#6ebf2a;fill-opacity:1;fill-rule:nonzero;stroke:none"
             d="m 0,0 -0.481,-0.042 0.205,0.496 C 0.174,0.726 -0.02,0.223 0,0" /></g><g
           transform="translate(511.0736,380.2287)"
           id="g368"><path
             id="path370"
             style="fill:#6ebf2a;fill-opacity:1;fill-rule:nonzero;stroke:none"
             d="M 0,0 -0.492,-0.043 -0.29,0.699 C -0.063,0.719 -0.021,0.231 0,0" /></g><g
           transform="translate(385.7146,460.6517)"
           id="g372"><path
             id="path374"
             style="fill:#6ebf2a;fill-opacity:1;fill-rule:nonzero;stroke:none"
             d="M 0,0 0.218,0.252 0.961,0.084 Z" /></g><g
           transform="translate(369.2506,456.3157)"
           id="g376"><path
             id="path378"
             style="fill:#6ebf2a;fill-opacity:1;fill-rule:nonzero;stroke:none"
             d="M 0,0 C -0.443,-0.511 -2.412,0.277 -3.437,0.908 L -3.753,1.611 C -2.538,1.718 -1.055,1.116 0,0" /></g><g
           transform="translate(389.1956,459.2697)"
           id="g380"><path
             id="path382"
             style="fill:#6ebf2a;fill-opacity:1;fill-rule:nonzero;stroke:none"
             d="M 0,0 0.229,0.255 2.969,-0.95 2.737,-1.199 Z" /></g><g
           transform="translate(531.9406,466.2247)"
           id="g384"><path
             id="path386"
             style="fill:#6ebf2a;fill-opacity:1;fill-rule:nonzero;stroke:none"
             d="M 0,0 C 0.041,-0.475 -0.932,-0.314 -1.176,-0.335 -1.696,0.105 -0.514,0.444 0,0" /></g><g
           transform="translate(522.9536,464.4787)"
           id="g388"><path
             id="path390"
             style="fill:#6ebf2a;fill-opacity:1;fill-rule:nonzero;stroke:none"
             d="m 0,0 c 0.02,-0.234 -0.224,-0.255 -0.439,-0.527 l -0.252,0.231 0.168,0.732 1.706,-0.332 z" /></g><g
           transform="translate(520.8016,464.2906)"
           id="g392"><path
             id="path394"
             style="fill:#6ebf2a;fill-opacity:1;fill-rule:nonzero;stroke:none"
             d="M 0,0 -0.227,-0.256 -0.73,0.179 C -0.29,0.456 -0.269,0.219 0,0" /></g><g
           transform="translate(525.3296,464.6867)"
           id="g396"><path
             id="path398"
             style="fill:#6ebf2a;fill-opacity:1;fill-rule:nonzero;stroke:none"
             d="M 0,0 -0.97,0.158 -0.262,0.22 Z" /></g><g
           transform="translate(518.1726,464.0607)"
           id="g400"><path
             id="path402"
             style="fill:#6ebf2a;fill-opacity:1;fill-rule:nonzero;stroke:none"
             d="M 0,0 -0.021,0.241 1.188,0.104 1.209,-0.13 Z" /></g><g
           transform="translate(515.8206,463.6187)"
           id="g404"><path
             id="path406"
             style="fill:#6ebf2a;fill-opacity:1;fill-rule:nonzero;stroke:none"
             d="M 0,0 C 0.064,-0.732 -1.124,-0.836 -1.863,-0.9 -1.444,-0.126 -0.736,0.172 0,0" /></g><g
           transform="translate(513.4576,462.9237)"
           id="g408"><path
             id="path410"
             style="fill:#6ebf2a;fill-opacity:1;fill-rule:nonzero;stroke:none"
             d="M 0,0 C -0.168,-0.732 -0.942,-0.082 -1.215,0.13 -0.732,0.172 -0.251,0.214 0,0" /></g><g
           transform="translate(501.1236,461.1277)"
           id="g412"><path
             id="path414"
             style="fill:#6ebf2a;fill-opacity:1;fill-rule:nonzero;stroke:none"
             d="m 0,0 -0.729,-0.064 c -0.268,0.445 0.207,0.486 0.688,0.528 z" /></g><g
           transform="translate(508.9636,462.0627)"
           id="g416"><path
             id="path418"
             style="fill:#6ebf2a;fill-opacity:1;fill-rule:nonzero;stroke:none"
             d="m 0,0 0.022,-0.247 -0.99,0.381 C -0.483,0.176 -0.216,-0.268 0,0" /></g><g
           transform="translate(499.9186,461.0217)"
           id="g420"><path
             id="path422"
             style="fill:#6ebf2a;fill-opacity:1;fill-rule:nonzero;stroke:none"
             d="M 0,0 -2.556,-0.944 C -2.115,-0.441 -0.993,0.631 0,0" /></g><g
           transform="translate(505.6496,461.5237)"
           id="g424"><path
             id="path426"
             style="fill:#6ebf2a;fill-opacity:1;fill-rule:nonzero;stroke:none"
             d="M 0,0 C 0,0 0.023,-0.254 -0.211,-0.275 L -0.459,-0.296 -0.503,0.205 C -0.255,0.227 -0.021,0.247 0,0" /></g><g
           transform="translate(507.8076,461.7127)"
           id="g428"><path
             id="path430"
             style="fill:#6ebf2a;fill-opacity:1;fill-rule:nonzero;stroke:none"
             d="m 0,0 -1.217,0.143 0.939,0.082 z" /></g><g
           transform="translate(495.4586,459.6656)"
           id="g432"><path
             id="path434"
             style="fill:#6ebf2a;fill-opacity:1;fill-rule:nonzero;stroke:none"
             d="m 0,0 -0.714,-0.063 c -0.021,0.244 0.193,0.728 0.672,0.544 z" /></g><g
           transform="translate(495.0826,458.6757)"
           id="g436"><path
             id="path438"
             style="fill:#6ebf2a;fill-opacity:1;fill-rule:nonzero;stroke:none"
             d="M 0,0 C -0.38,1.409 -1.931,0.071 -3.165,0.448 -2.957,0.698 0.085,1.675 0,0" /></g><g
           transform="translate(501.9006,460.4747)"
           id="g440"><path
             id="path442"
             style="fill:#6ebf2a;fill-opacity:1;fill-rule:nonzero;stroke:none"
             d="M 0,0 C -1.07,-1.549 -3.782,-0.809 -5.419,-1.437 -4.578,0.064 -1.607,-0.871 0,0" /></g><g
           transform="translate(483.8856,457.4437)"
           id="g444"><path
             id="path446"
             style="fill:#6ebf2a;fill-opacity:1;fill-rule:nonzero;stroke:none"
             d="M 0,0 5.4,1.449 7.32,1.617 Z" /></g><g
           transform="translate(482.7296,456.8717)"
           id="g448"><path
             id="path450"
             style="fill:#6ebf2a;fill-opacity:1;fill-rule:nonzero;stroke:none"
             d="M 0,0 -0.063,0.718 0.669,0.782 Z" /></g><g
           transform="translate(491.7726,458.1337)"
           id="g452"><path
             id="path454"
             style="fill:#6ebf2a;fill-opacity:1;fill-rule:nonzero;stroke:none"
             d="M 0,0 C -0.219,-0.251 -1.613,-1.107 -2.382,-0.441 -5.317,-2.63 -9.5,-1.545 -12.718,-3.278 -9.043,-1.262 -4.5,-0.865 0,0" /></g><g
           transform="translate(477.2696,455.8987)"
           id="g456"><path
             id="path458"
             style="fill:#6ebf2a;fill-opacity:1;fill-rule:nonzero;stroke:none"
             d="M 0,0 2.348,0.701 3.782,0.826 Z" /></g><g
           transform="translate(468.4616,454.8987)"
           id="g460"><path
             id="path462"
             style="fill:#6ebf2a;fill-opacity:1;fill-rule:nonzero;stroke:none"
             d="M 0,0 C 0.042,-0.481 -1.368,-0.604 -1.176,-0.103 Z" /></g><g
           transform="translate(478.0616,455.2537)"
           id="g464"><path
             id="path466"
             style="fill:#6ebf2a;fill-opacity:1;fill-rule:nonzero;stroke:none"
             d="m 0,0 c -0.434,-0.523 -1.385,-0.606 -1.841,-0.875 l -0.062,0.709 C -1.427,-0.124 -0.476,-0.041 0,0" /></g><g
           transform="translate(475.2566,454.2947)"
           id="g468"><path
             id="path470"
             style="fill:#6ebf2a;fill-opacity:1;fill-rule:nonzero;stroke:none"
             d="M 0,0 -3.961,-1.32 C -3.279,-1.014 -1.718,0.564 0,0" /></g><g
           transform="translate(493.0056,454.8747)"
           id="g472"><path
             id="path474"
             style="fill:#6ebf2a;fill-opacity:1;fill-rule:nonzero;stroke:none"
             d="m 0,0 c 0.039,-0.445 -0.189,-0.465 -0.421,-0.755 l -0.29,0.692 z" /></g><g
           transform="translate(486.1156,453.8237)"
           id="g476"><path
             id="path478"
             style="fill:#6ebf2a;fill-opacity:1;fill-rule:nonzero;stroke:none"
             d="M 0,0 C -0.464,-0.041 -0.912,-0.585 -1.63,-0.412 -1.462,0.32 -0.481,0.153 0,0" /></g><g
           transform="translate(489.0106,453.8077)"
           id="g480"><path
             id="path482"
             style="fill:#6ebf2a;fill-opacity:1;fill-rule:nonzero;stroke:none"
             d="M 0,0 C 0.02,-0.234 -1.166,-0.574 -1.866,-0.635 -1.424,-0.125 -0.737,0.205 0,0" /></g><g
           transform="translate(490.4306,453.9317)"
           id="g484"><path
             id="path486"
             style="fill:#6ebf2a;fill-opacity:1;fill-rule:nonzero;stroke:none"
             d="M 0,0 C 0.02,-0.234 -0.444,-0.275 -0.917,-0.316 -0.978,0.379 -0.229,-0.02 0,0" /></g><g
           transform="translate(493.1086,453.6947)"
           id="g488"><path
             id="path490"
             style="fill:#6ebf2a;fill-opacity:1;fill-rule:nonzero;stroke:none"
             d="M 0,0 C -0.941,-0.082 -1.873,-0.649 -2.844,-0.502 -2.158,0.047 -0.941,-0.082 0,0" /></g><g
           transform="translate(476.4706,451.5217)"
           id="g492"><path
             id="path494"
             style="fill:#6ebf2a;fill-opacity:1;fill-rule:nonzero;stroke:none"
             d="M 0,0 C -0.44,-0.534 -1.633,-0.638 -2.325,-0.948 -2.172,0.042 -0.689,-0.327 0,0" /></g><g
           transform="translate(446.9796,447.7427)"
           id="g496"><path
             id="path498"
             style="fill:#6ebf2a;fill-opacity:1;fill-rule:nonzero;stroke:none"
             d="M 0,0 C -4.316,-2.806 -10.104,-2.821 -14.988,-4.696 -10.889,-1.926 -4.865,-2.13 0,0" /></g><g
           transform="translate(456.3566,447.5897)"
           id="g500"><path
             id="path502"
             style="fill:#6ebf2a;fill-opacity:1;fill-rule:nonzero;stroke:none"
             d="M 0,0 -1.216,0.361 -0.231,-0.02 Z" /></g><g
           transform="translate(429.1666,442.3317)"
           id="g504"><path
             id="path506"
             style="fill:#6ebf2a;fill-opacity:1;fill-rule:nonzero;stroke:none"
             d="M 0,0 C -0.42,-0.764 -1.152,-0.593 -1.627,-0.634 L -0.545,0.67 Z" /></g><g
           transform="translate(420.2476,439.8607)"
           id="g508"><path
             id="path510"
             style="fill:#6ebf2a;fill-opacity:1;fill-rule:nonzero;stroke:none"
             d="M 0,0 C 1.321,1.315 4.408,1.585 6.321,1.988 Z" /></g><g
           transform="translate(418.3376,439.6937)"
           id="g512"><path
             id="path514"
             style="fill:#6ebf2a;fill-opacity:1;fill-rule:nonzero;stroke:none"
             d="M 0,0 C 0.063,-0.712 -0.915,-0.572 -1.394,-0.614 -1.205,-0.106 -0.481,-0.042 0,0" /></g><g
           transform="translate(393.5646,434.1447)"
           id="g516"><path
             id="path518"
             style="fill:#6ebf2a;fill-opacity:1;fill-rule:nonzero;stroke:none"
             d="M 0,0 0.19,0.502 1.191,0.364 Z" /></g><g
           transform="translate(395.3026,433.3337)"
           id="g520"><path
             id="path522"
             style="fill:#6ebf2a;fill-opacity:1;fill-rule:nonzero;stroke:none"
             d="M 0,0 -0.043,0.488 0.942,0.574 Z" /></g><g
           transform="translate(389.3556,432.8137)"
           id="g524"><path
             id="path526"
             style="fill:#6ebf2a;fill-opacity:1;fill-rule:nonzero;stroke:none"
             d="M 0,0 -0.043,0.488 0.921,0.347 Z" /></g><g
           transform="translate(394.8616,433.2957)"
           id="g528"><path
             id="path530"
             style="fill:#6ebf2a;fill-opacity:1;fill-rule:nonzero;stroke:none"
             d="M 0,0 -0.737,-0.277 -1.005,0.178 C -0.527,0.22 -0.316,0.464 0,0" /></g><g
           transform="translate(393.4176,432.9577)"
           id="g532"><path
             id="path534"
             style="fill:#6ebf2a;fill-opacity:1;fill-rule:nonzero;stroke:none"
             d="M 0,0 -1.861,-0.669 C -1.385,-0.627 -0.991,0.391 0,0" /></g><g
           transform="translate(389.7106,431.4106)"
           id="g536"><path
             id="path538"
             style="fill:#6ebf2a;fill-opacity:1;fill-rule:nonzero;stroke:none"
             d="M 0,0 0.713,0.062 C 0.287,-0.457 -0.382,-1.004 -1.365,-0.841 L 0,0 c -0.252,0.223 -0.466,-0.041 -0.466,-0.041 0.173,0.732 1.394,0.368 1.825,1.133 z" /></g><g
           transform="translate(386.8206,431.6427)"
           id="g540"><path
             id="path542"
             style="fill:#6ebf2a;fill-opacity:1;fill-rule:nonzero;stroke:none"
             d="m 0,0 c 0.255,-0.217 0.276,-0.461 0.318,-0.939 l 0.96,-0.155 c -1.279,-1.782 -2.474,0.75 -3.262,-1.252 -0.062,0.712 -0.379,1.654 0.559,1.982 l -3.554,-0.793 c 1.133,1.052 2.786,1.197 4.061,0.591 C -0.981,0.146 -0.23,-0.259 0,0" /></g><g
           transform="translate(396.5796,432.7286)"
           id="g544"><path
             id="path546"
             style="fill:#6ebf2a;fill-opacity:1;fill-rule:nonzero;stroke:none"
             d="m 0,0 c 0.305,-0.691 -0.445,-0.511 -0.651,-0.774 l -0.063,0.711 z" /></g><g
           transform="translate(259.8636,420.0497)"
           id="g548"><path
             id="path550"
             style="fill:#6ebf2a;fill-opacity:1;fill-rule:nonzero;stroke:none"
             d="M 0,0 -1.898,-0.166 -1.94,0.315 C -1.247,0.608 -0.739,0.182 0,0" /></g><g
           transform="translate(391.0056,430.3247)"
           id="g552"><path
             id="path554"
             style="fill:#6ebf2a;fill-opacity:1;fill-rule:nonzero;stroke:none"
             d="M 0,0 C 0.655,0.775 2.745,1.685 4.421,1.586 Z" /></g><g
           transform="translate(379.4936,430.0347)"
           id="g556"><path
             id="path558"
             style="fill:#6ebf2a;fill-opacity:1;fill-rule:nonzero;stroke:none"
             d="M 0,0 0.694,0.307 1.418,0.37 Z" /></g><g
           transform="translate(382.6776,429.3607)"
           id="g560"><path
             id="path562"
             style="fill:#6ebf2a;fill-opacity:1;fill-rule:nonzero;stroke:none"
             d="M 0,0 0.107,-1.217 4.566,0.146 C 2.719,-0.719 0.379,-1.658 -1.697,-2.553 l 1.551,1.314 c -0.249,0.248 -0.479,-0.042 -0.73,0.206 0,0 0.666,0.526 0.646,0.76 L -4.898,-1.87 C -3.267,-1.242 -1.591,1.78 0,0" /></g><g
           transform="translate(379.5566,429.3227)"
           id="g564"><path
             id="path566"
             style="fill:#6ebf2a;fill-opacity:1;fill-rule:nonzero;stroke:none"
             d="M 0,0 C -0.187,-0.74 -2.126,-0.674 -3.017,-1.22 -2.469,0.748 -0.631,-1.011 0,0" /></g><g
           transform="translate(375.9596,429.0087)"
           id="g568"><path
             id="path570"
             style="fill:#6ebf2a;fill-opacity:1;fill-rule:nonzero;stroke:none"
             d="m 0,0 0.29,-0.211 -0.439,-0.526 -0.02,0.233 z" /></g><g
           transform="translate(385.5646,426.7237)"
           id="g572"><path
             id="path574"
             style="fill:#6ebf2a;fill-opacity:1;fill-rule:nonzero;stroke:none"
             d="M 0,0 C 2.762,1.212 6.241,2.714 9.609,3.009 Z" /></g><g
           transform="translate(388.7016,426.5096)"
           id="g576"><path
             id="path578"
             style="fill:#6ebf2a;fill-opacity:1;fill-rule:nonzero;stroke:none"
             d="m 0,0 9.805,3.279 0.493,0.043 z" /></g><g
           transform="translate(373.4446,427.5967)"
           id="g580"><path
             id="path582"
             style="fill:#6ebf2a;fill-opacity:1;fill-rule:nonzero;stroke:none"
             d="M 0,0 0.256,-0.248 -0.42,-0.522 -0.664,-0.544 Z" /></g><g
           transform="translate(369.4706,426.5137)"
           id="g584"><path
             id="path586"
             style="fill:#6ebf2a;fill-opacity:1;fill-rule:nonzero;stroke:none"
             d="M 0,0 0.444,0.289 Z" /></g><g
           transform="translate(365.2996,424.7177)"
           id="g588"><path
             id="path590"
             style="fill:#6ebf2a;fill-opacity:1;fill-rule:nonzero;stroke:none"
             d="M 0,0 -0.249,-0.021 0.842,1.02 C 1.143,0.333 0.468,0.041 0,0" /></g><g
           transform="translate(276.2676,416.6727)"
           id="g592"><path
             id="path594"
             style="fill:#6ebf2a;fill-opacity:1;fill-rule:nonzero;stroke:none"
             d="M 0,0 -2.223,0.779 C -1.259,0.863 -0.294,0.712 0,0" /></g><g
           transform="translate(398.9866,427.1737)"
           id="g596"><path
             id="path598"
             style="fill:#6ebf2a;fill-opacity:1;fill-rule:nonzero;stroke:none"
             d="M 0,0 2.319,0.927 1.4,0.358 Z" /></g><g
           transform="translate(277.4606,416.7777)"
           id="g600"><path
             id="path602"
             style="fill:#6ebf2a;fill-opacity:1;fill-rule:nonzero;stroke:none"
             d="m 0,0 -0.752,0.422 0.71,0.062 z" /></g><g
           transform="translate(379.9306,425.0487)"
           id="g604"><path
             id="path606"
             style="fill:#6ebf2a;fill-opacity:1;fill-rule:nonzero;stroke:none"
             d="m 0,0 0.23,0.02 -0.669,-0.547 -0.233,-0.02 z" /></g><g
           transform="translate(403.3176,427.0947)"
           id="g608"><path
             id="path610"
             style="fill:#6ebf2a;fill-opacity:1;fill-rule:nonzero;stroke:none"
             d="M 0,0 C -0.673,-0.547 -1.113,-1.081 -2.08,-0.94 -1.622,-0.63 -0.715,-0.062 0,0" /></g><g
           transform="translate(384.5206,424.6917)"
           id="g612"><path
             id="path614"
             style="fill:#6ebf2a;fill-opacity:1;fill-rule:nonzero;stroke:none"
             d="M 0,0 0.216,0.289 0.458,0.31 Z" /></g><g
           transform="translate(400.7386,426.3807)"
           id="g616"><path
             id="path618"
             style="fill:#6ebf2a;fill-opacity:1;fill-rule:nonzero;stroke:none"
             d="m 0,0 c -2.722,-1.939 -7.262,-2.336 -10.721,-3.848 l 0.04,-0.464 c -2.82,-0.739 -7.043,-2.065 -8.678,-2.464 C -13.312,-4.542 -6.61,-1.548 0,0" /></g><g
           transform="translate(368.1856,421.8317)"
           id="g620"><path
             id="path622"
             style="fill:#6ebf2a;fill-opacity:1;fill-rule:nonzero;stroke:none"
             d="M 0,0 -0.705,-0.061 C -0.746,0.406 -0.264,0.21 0,0" /></g><g
           transform="translate(377.2506,419.9777)"
           id="g624"><path
             id="path626"
             style="fill:#6ebf2a;fill-opacity:1;fill-rule:nonzero;stroke:none"
             d="M 0,0 6.225,2.939 6.988,2.552 Z" /></g><g
           transform="translate(391.7586,421.7257)"
           id="g628"><path
             id="path630"
             style="fill:#6ebf2a;fill-opacity:1;fill-rule:nonzero;stroke:none"
             d="M 0,0 C -1.173,-0.322 -0.584,-1.493 -2.275,-1.412 -1.904,-0.167 -0.905,-0.558 0,0" /></g><g
           transform="translate(383.6796,417.9106)"
           id="g632"><path
             id="path634"
             style="fill:#6ebf2a;fill-opacity:1;fill-rule:nonzero;stroke:none"
             d="M 0,0 0.17,0.725 -0.815,0.878 C 1.071,1.521 2.99,1.443 4.859,2.321 Z" /></g><g
           transform="translate(301.4666,411.8997)"
           id="g636"><path
             id="path638"
             style="fill:#6ebf2a;fill-opacity:1;fill-rule:nonzero;stroke:none"
             d="m 0,0 -0.991,0.398 0.716,0.063 z" /></g><g
           transform="translate(346.3986,415.1337)"
           id="g640"><path
             id="path642"
             style="fill:#6ebf2a;fill-opacity:1;fill-rule:nonzero;stroke:none"
             d="M 0,0 0.239,0.021 0.22,0.245 -0.019,0.224 Z" /></g><g
           transform="translate(383.4086,418.0987)"
           id="g644"><path
             id="path646"
             style="fill:#6ebf2a;fill-opacity:1;fill-rule:nonzero;stroke:none"
             d="M 0,0 C -0.207,-0.23 -0.925,-0.293 -1.369,-0.591 -1.172,-0.103 -0.73,0.209 0,0" /></g><g
           transform="translate(371.4176,415.1477)"
           id="g648"><path
             id="path650"
             style="fill:#6ebf2a;fill-opacity:1;fill-rule:nonzero;stroke:none"
             d="M 0,0 -0.021,0.234 1.423,0.124 Z" /></g><g
           transform="translate(367.2476,413.0916)"
           id="g652"><path
             id="path654"
             style="fill:#6ebf2a;fill-opacity:1;fill-rule:nonzero;stroke:none"
             d="M 0,0 C 0.402,0.988 1.902,0.419 2.283,1.641 L 2.807,1.198 Z" /></g><g
           transform="translate(298.2166,399.3607)"
           id="g656"><path
             id="path658"
             style="fill:#6ebf2a;fill-opacity:1;fill-rule:nonzero;stroke:none"
             d="M 0,0 C 5.333,2.386 8.521,4.584 13.897,6.26 10.023,3.999 4.924,1.623 0,0" /></g><g
           transform="translate(274.7116,390.5587)"
           id="g660"><path
             id="path662"
             style="fill:#6ebf2a;fill-opacity:1;fill-rule:nonzero;stroke:none"
             d="M 0,0 C -0.442,-0.506 -1.388,-0.589 -1.843,-0.889 -1.667,-0.381 -0.689,-0.296 0,0" /></g><g
           transform="translate(272.1566,389.6077)"
           id="g664"><path
             id="path666"
             style="fill:#6ebf2a;fill-opacity:1;fill-rule:nonzero;stroke:none"
             d="M 0,0 C -0.48,-0.267 -0.866,-1.025 -1.378,-0.838 -1.401,-0.577 -0.522,0.214 0,0" /></g><g
           transform="translate(314.1826,390.1697)"
           id="g668"><path
             id="path670"
             style="fill:#6ebf2a;fill-opacity:1;fill-rule:nonzero;stroke:none"
             d="m 0,0 c -1.01,0.635 -0.927,-0.313 -1.649,-0.144 -0.885,-1.03 -2.477,-1.908 -4.648,-2.098 -0.483,-0.042 -1.196,0.152 -1.032,0.883 2.597,0.713 4.628,2.089 7.413,3.286 C 1.058,1.78 -0.042,0.481 0,0" /></g><g
           transform="translate(285.9526,388.6667)"
           id="g672"><path
             id="path674"
             style="fill:#6ebf2a;fill-opacity:1;fill-rule:nonzero;stroke:none"
             d="m 0,0 0.021,-0.241 -0.464,-0.28 -0.272,0.215 z" /></g><g
           transform="translate(257.5876,382.8347)"
           id="g676"><path
             id="path678"
             style="fill:#6ebf2a;fill-opacity:1;fill-rule:nonzero;stroke:none"
             d="M 0,0 -0.247,-0.022 0.401,0.984 C 0.423,0.73 0.719,0.063 0,0" /></g><g
           transform="translate(255.5086,381.9317)"
           id="g680"><path
             id="path682"
             style="fill:#6ebf2a;fill-opacity:1;fill-rule:nonzero;stroke:none"
             d="M 0,0 0.448,0.507 0.669,0.526 Z" /></g><g
           transform="translate(255.0086,382.1027)"
           id="g684"><path
             id="path686"
             style="fill:#6ebf2a;fill-opacity:1;fill-rule:nonzero;stroke:none"
             d="M 0,0 C 0.281,-0.446 -0.447,-0.51 -0.66,-0.754 -0.702,-0.276 -0.488,-0.042 0,0" /></g><g
           transform="translate(252.7336,380.7017)"
           id="g688"><path
             id="path690"
             style="fill:#6ebf2a;fill-opacity:1;fill-rule:nonzero;stroke:none"
             d="M 0,0 C 0.02,-0.23 -0.941,-0.314 -0.749,0.184 -0.498,0.206 -0.044,0.502 0,0" /></g><g
           transform="translate(250.6456,379.8017)"
           id="g692"><path
             id="path694"
             style="fill:#6ebf2a;fill-opacity:1;fill-rule:nonzero;stroke:none"
             d="M 0,0 C 0.041,-0.474 -0.46,-0.293 -0.934,-0.335 -0.976,0.144 -0.231,-0.02 0,0" /></g><g
           transform="translate(248.5656,378.9027)"
           id="g696"><path
             id="path698"
             style="fill:#6ebf2a;fill-opacity:1;fill-rule:nonzero;stroke:none"
             d="M 0,0 V 0 L -2.769,-1.444 Z" /></g><g
           transform="translate(296.3306,382.5897)"
           id="g700"><path
             id="path702"
             style="fill:#6ebf2a;fill-opacity:1;fill-rule:nonzero;stroke:none"
             d="m 0,0 c -0.227,-0.02 -0.44,-0.503 -0.691,-0.279 l -0.04,0.454 C -0.501,0.195 -0.27,0.468 0,0" /></g><g
           transform="translate(294.0446,381.1946)"
           id="g704"><path
             id="path706"
             style="fill:#6ebf2a;fill-opacity:1;fill-rule:nonzero;stroke:none"
             d="m 0,0 -0.289,0.705 0.71,0.062 z" /></g><g
           transform="translate(243.9346,376.8107)"
           id="g708"><path
             id="path710"
             style="fill:#6ebf2a;fill-opacity:1;fill-rule:nonzero;stroke:none"
             d="M 0,0 C 0.501,-0.442 -0.468,-0.274 -0.931,-0.567 -1.2,-0.105 -0.231,-0.021 0,0" /></g><g
           transform="translate(241.8586,375.6487)"
           id="g712"><path
             id="path714"
             style="fill:#6ebf2a;fill-opacity:1;fill-rule:nonzero;stroke:none"
             d="m 0,0 c 0.019,-0.217 -0.218,-0.238 -0.466,-0.26 l 0.423,0.751 C 0.191,0.512 0.234,0.02 0,0" /></g><g
           transform="translate(240.6846,375.3267)"
           id="g716"><path
             id="path718"
             style="fill:#6ebf2a;fill-opacity:1;fill-rule:nonzero;stroke:none"
             d="M 0,0 C 0.042,-0.484 -1.363,-0.836 -1.214,0.113 Z" /></g><g
           transform="translate(238.6076,374.4287)"
           id="g720"><path
             id="path722"
             style="fill:#6ebf2a;fill-opacity:1;fill-rule:nonzero;stroke:none"
             d="M 0,0 -1.002,0.394 -0.28,0.457 Z" /></g><g
           transform="translate(239.0926,374.4706)"
           id="g724"><path
             id="path726"
             style="fill:#6ebf2a;fill-opacity:1;fill-rule:nonzero;stroke:none"
             d="m 0,0 -0.281,0.204 0.72,0.063 z" /></g><g
           transform="translate(234.4416,372.6257)"
           id="g728"><path
             id="path730"
             style="fill:#6ebf2a;fill-opacity:1;fill-rule:nonzero;stroke:none"
             d="M 0,0 C 0.042,-0.481 -0.675,-0.8 -1.402,-0.607 -1.189,-0.37 -0.46,-0.306 0,0" /></g><g
           transform="translate(230.5246,370.5927)"
           id="g732"><path
             id="path734"
             style="fill:#6ebf2a;fill-opacity:1;fill-rule:nonzero;stroke:none"
             d="m 0,0 c 0.503,-0.206 -0.224,-0.269 -0.203,-0.513 l -0.282,0.47 z" /></g><g
           transform="translate(227.0446,369.0827)"
           id="g736"><path
             id="path738"
             style="fill:#6ebf2a;fill-opacity:1;fill-rule:nonzero;stroke:none"
             d="M 0,0 -0.041,0.468 1.183,0.318 Z" /></g><g
           transform="translate(222.8856,367.2767)"
           id="g740"><path
             id="path742"
             style="fill:#6ebf2a;fill-opacity:1;fill-rule:nonzero;stroke:none"
             d="M 0,0 C 0.256,-0.469 -0.226,-0.252 -0.429,-0.761 -0.917,-0.571 -0.267,0.223 0,0" /></g><g
           transform="translate(220.3866,365.3647)"
           id="g744"><path
             id="path746"
             style="fill:#6ebf2a;fill-opacity:1;fill-rule:nonzero;stroke:none"
             d="m 0,0 -0.481,-0.042 0.217,0.504 C -0.021,0.244 0,0 0,0" /></g><g
           transform="translate(218.5546,364.4867)"
           id="g748"><path
             id="path750"
             style="fill:#6ebf2a;fill-opacity:1;fill-rule:nonzero;stroke:none"
             d="M 0,0 -0.062,0.712 0.416,0.754 Z" /></g><g
           transform="translate(215.0786,362.9807)"
           id="g752"><path
             id="path754"
             style="fill:#6ebf2a;fill-opacity:1;fill-rule:nonzero;stroke:none"
             d="M 0,0 -1.02,0.628 -0.527,0.439 Z" /></g><g
           transform="translate(212.3166,361.5367)"
           id="g756"><path
             id="path758"
             style="fill:#6ebf2a;fill-opacity:1;fill-rule:nonzero;stroke:none"
             d="m 0,0 -0.714,-0.063 0.171,0.74 C -0.293,0.699 -0.252,0.224 0,0" /></g><g
           transform="translate(427.6766,376.7507)"
           id="g760"><path
             id="path762"
             style="fill:#6ebf2a;fill-opacity:1;fill-rule:nonzero;stroke:none"
             d="M 0,0 -0.168,1.926 C 0.096,1.716 0.18,0.754 0,0" /></g><g
           transform="translate(198.2606,354.5277)"
           id="g764"><path
             id="path766"
             style="fill:#6ebf2a;fill-opacity:1;fill-rule:nonzero;stroke:none"
             d="m 0,0 -0.475,-0.041 c -0.022,0.257 0.214,0.49 0.452,0.299 z" /></g><g
           transform="translate(385.6326,359.8687)"
           id="g768"><path
             id="path770"
             style="fill:#6ebf2a;fill-opacity:1;fill-rule:nonzero;stroke:none"
             d="M 0,0 0.042,-0.475 -0.756,0.419 C -0.311,0.69 -0.02,0.23 0,0" /></g><g
           transform="translate(393.6736,356.0157)"
           id="g772"><path
             id="path774"
             style="fill:#6ebf2a;fill-opacity:1;fill-rule:nonzero;stroke:none"
             d="M 0,0 0.042,-0.488 C -0.211,-0.291 -1.152,-0.592 -0.736,0.168 -0.505,0.188 -0.255,0.21 0,0" /></g><g
           transform="translate(308.8766,346.4217)"
           id="g776"><path
             id="path778"
             style="fill:#6ebf2a;fill-opacity:1;fill-rule:nonzero;stroke:none"
             d="M 0,0 -2.025,1.247 C -1.257,0.863 -0.33,0.944 0,0" /></g><g
           transform="translate(394.5036,354.6197)"
           id="g780"><path
             id="path782"
             style="fill:#6ebf2a;fill-opacity:1;fill-rule:nonzero;stroke:none"
             d="m 0,0 -0.535,0.671 0.249,0.021 z" /></g><g
           transform="translate(395.0316,351.3037)"
           id="g784"><path
             id="path786"
             style="fill:#6ebf2a;fill-opacity:1;fill-rule:nonzero;stroke:none"
             d="M 0,0 -0.815,1.151 C -0.106,1.213 -0.278,0.46 0,0" /></g><g
           transform="translate(316.7716,341.5877)"
           id="g788"><path
             id="path790"
             style="fill:#6ebf2a;fill-opacity:1;fill-rule:nonzero;stroke:none"
             d="M 0,0 0.232,0.02 5.816,-3.596 5.839,-3.854 Z" /></g><g
           transform="translate(255.3616,334.0287)"
           id="g792"><path
             id="path794"
             style="fill:#6ebf2a;fill-opacity:1;fill-rule:nonzero;stroke:none"
             d="m 0,0 0.042,-0.481 c -0.268,0.24 -1.211,0.157 -0.548,0.683 C -0.484,-0.042 -0.246,-0.021 0,0" /></g><g
           transform="translate(237.0106,332.2017)"
           id="g796"><path
             id="path798"
             style="fill:#6ebf2a;fill-opacity:1;fill-rule:nonzero;stroke:none"
             d="m 0,0 -1.216,0.115 0.965,-0.137 z" /></g><g
           transform="translate(244.8836,332.8907)"
           id="g800"><path
             id="path802"
             style="fill:#6ebf2a;fill-opacity:1;fill-rule:nonzero;stroke:none"
             d="M 0,0 C -0.421,-0.751 -1.655,-0.408 -2.137,-0.187 -2.156,0.033 -0.762,0.401 0,0" /></g><g
           transform="translate(238.2346,332.0457)"
           id="g804"><path
             id="path806"
             style="fill:#6ebf2a;fill-opacity:1;fill-rule:nonzero;stroke:none"
             d="m 0,0 -0.504,0.219 0.481,0.042 z" /></g><g
           transform="translate(241.5516,332.5987)"
           id="g808"><path
             id="path810"
             style="fill:#6ebf2a;fill-opacity:1;fill-rule:nonzero;stroke:none"
             d="m 0,0 -1.404,-0.386 -0.023,0.261 C -0.985,0.136 -0.456,-0.303 0,0" /></g><g
           transform="translate(232.2376,331.7837)"
           id="g812"><path
             id="path814"
             style="fill:#6ebf2a;fill-opacity:1;fill-rule:nonzero;stroke:none"
             d="M 0,0 C -0.691,-0.323 -1.83,-1.14 -2.567,-0.938 -2.395,-0.209 -0.651,-0.77 0,0" /></g><g
           transform="translate(433.5646,348.1957)"
           id="g816"><path
             id="path818"
             style="fill:#6ebf2a;fill-opacity:1;fill-rule:nonzero;stroke:none"
             d="M 0,0 -0.256,-0.022 -0.788,0.42 C -0.562,0.672 -0.275,0.198 0,0" /></g><g
           transform="translate(439.7546,348.7367)"
           id="g820"><path
             id="path822"
             style="fill:#6ebf2a;fill-opacity:1;fill-rule:nonzero;stroke:none"
             d="m 0,0 -0.974,0.137 0.727,0.064 z" /></g><g
           transform="translate(325.4056,336.3147)"
           id="g824"><path
             id="path826"
             style="fill:#6ebf2a;fill-opacity:1;fill-rule:nonzero;stroke:none"
             d="M 0,0 -2.314,1.461 -0.042,0.485 Z" /></g><g
           transform="translate(469.9026,347.7547)"
           id="g828"><path
             id="path830"
             style="fill:#6ebf2a;fill-opacity:1;fill-rule:nonzero;stroke:none"
             d="m 0,0 -0.648,-0.764 0.245,-0.214 0.465,0.276 c 2.778,-1.437 7.678,-2.46 9.205,-6.189 0.631,-1.629 1.945,-3.171 3.498,-4.261 -1.097,-1.072 1.76,-0.822 0.916,-2.089 l -2.238,0.543 0.043,-0.489 c -1.013,0.858 -2.445,0.517 -3.413,0.648 -1.274,0.865 -2.655,2.927 -4.036,2.062 1.251,-0.366 0.357,-1.407 1.171,-2.313 -0.254,0.241 -0.478,-0.041 -0.752,0.197 l -0.21,-0.281 c 0.251,-0.193 0.793,-0.641 0.587,-1.141 -0.701,-0.061 -1.491,0.847 -1.911,0.079 -1.582,1.296 -1.588,4.195 -3.099,5.03 -0.246,0.2 0.22,0.241 0.198,0.488 -0.742,0.175 -1.257,0.608 -1.554,1.306 l 0.44,0.523 -0.503,0.202 -0.228,-0.266 c -2.007,1.024 -5.401,3.866 -3.513,7.132 L -5.402,1.218 C -2.724,0.964 -2.47,0.73 0,0" /></g><g
           transform="translate(241.4096,284.4667)"
           id="g832"><path
             id="path834"
             style="fill:#6ebf2a;fill-opacity:1;fill-rule:nonzero;stroke:none"
             d="M 0,0 -1.482,0.608 C -0.982,0.413 -0.083,0.956 0,0" /></g><g
           transform="translate(289.6756,288.2177)"
           id="g836"><path
             id="path838"
             style="fill:#6ebf2a;fill-opacity:1;fill-rule:nonzero;stroke:none"
             d="M 0,0 -0.021,0.237 1.237,-0.145 Z" /></g><g
           transform="translate(293.7796,288.0917)"
           id="g840"><path
             id="path842"
             style="fill:#6ebf2a;fill-opacity:1;fill-rule:nonzero;stroke:none"
             d="M 0,0 0.04,-0.461 -0.67,-0.523 -0.73,0.168 C -0.486,0.189 -0.214,-0.265 0,0" /></g><g
           transform="translate(248.8286,282.2397)"
           id="g844"><path
             id="path846"
             style="fill:#6ebf2a;fill-opacity:1;fill-rule:nonzero;stroke:none"
             d="M 0,0 C -0.687,-0.306 -2.398,0.022 -3.184,0.691 -1.955,0.293 -0.749,0.399 0,0" /></g><g
           transform="translate(298.8636,287.5867)"
           id="g848"><path
             id="path850"
             style="fill:#6ebf2a;fill-opacity:1;fill-rule:nonzero;stroke:none"
             d="M 0,0 C -0.204,-0.284 0.528,-0.459 0.064,-0.732 L -0.645,-0.794 C -1.169,-0.368 -0.227,-0.019 0,0" /></g><g
           transform="translate(302.3146,286.6727)"
           id="g852"><path
             id="path854"
             style="fill:#6ebf2a;fill-opacity:1;fill-rule:nonzero;stroke:none"
             d="M 0,0 0.02,-0.23 -0.729,0.183 C -0.479,0.204 -0.042,0.475 0,0" /></g><g
           transform="translate(304.2236,286.8397)"
           id="g856"><path
             id="path858"
             style="fill:#6ebf2a;fill-opacity:1;fill-rule:nonzero;stroke:none"
             d="M 0,0 C 0.315,-0.689 -1.206,-0.105 -1.425,-0.124 Z" /></g><g
           transform="translate(307.1476,286.3787)"
           id="g860"><path
             id="path862"
             style="fill:#6ebf2a;fill-opacity:1;fill-rule:nonzero;stroke:none"
             d="M 0,0 -2.164,0.043 -0.228,-0.02 Z" /></g><g
           transform="translate(265.1246,277.6407)"
           id="g864"><path
             id="path866"
             style="fill:#6ebf2a;fill-opacity:1;fill-rule:nonzero;stroke:none"
             d="m 0,0 c -0.227,-0.259 -0.447,-0.511 -0.688,-0.532 l -0.24,-0.021 C -0.969,-0.085 -0.267,0.202 0,0" /></g><g
           transform="translate(262.2026,211.9856)"
           id="g868"><path
             id="path870"
             style="fill:#6ebf2a;fill-opacity:1;fill-rule:nonzero;stroke:none"
             d="m 0,0 -0.526,0.425 0.485,0.043 z" /></g><g
           transform="translate(299.8496,202.2796)"
           id="g872"><path
             id="path874"
             style="fill:#6ebf2a;fill-opacity:1;fill-rule:nonzero;stroke:none"
             d="M 0,0 C 0.02,-0.237 -0.203,-0.495 -0.44,-0.516 L -0.686,-0.538 C -0.707,-0.3 -0.482,-0.042 0,0" /></g><g
           transform="translate(296.7946,201.2757)"
           id="g876"><path
             id="path878"
             style="fill:#6ebf2a;fill-opacity:1;fill-rule:nonzero;stroke:none"
             d="M 0,0 C -0.66,-0.55 -1.608,-0.852 -2.585,-0.719 -1.878,-0.418 -0.922,-0.081 0,0" /></g><g
           transform="translate(351.8096,420.0477)"
           id="g880"><path
             id="path882"
             style="fill:#6ebf2a;fill-opacity:1;fill-rule:nonzero;stroke:none"
             d="M 0,0 -5.442,-1.802 C -2.364,-1.833 -0.739,-1.144 0,0 m -70.65,-33.365 c -0.175,-0.029 -0.355,-0.055 -0.543,-0.092 -0.261,-0.071 -0.525,-0.148 -0.761,-0.231 0.434,0.073 0.878,0.18 1.304,0.323 m 0.374,0.118 c -0.035,-0.01 -0.074,-0.013 -0.107,-0.027 -0.027,-0.008 -0.051,-0.024 -0.076,-0.03 0.063,0.023 0.129,0.029 0.183,0.057 m 0.16,0.103 c -0.059,-0.029 -0.104,-0.081 -0.16,-0.103 0.409,0.07 0.809,0.126 1.185,0.114 -0.359,0.143 -0.701,0.106 -1.025,-0.011 m 50.914,12.829 c 0.528,0.221 1.487,0.222 1.779,0.511 -0.534,-0.163 -1.09,-0.276 -1.779,-0.511 m 42.717,20.077 -1.158,-0.464 0.032,-0.369 z M 24.75,7.821 C 21.966,7.082 19.932,6.402 18.078,5.673 Z M 16.55,5.17 16.54,5.019 c 0.508,0.229 1.022,0.438 1.538,0.654 z m 5.712,-4.78 0.232,0.02 -1.155,-0.361 z m -3.093,-0.271 0.435,0.489 0.237,0.021 c -0.947,-0.301 0.062,-0.705 -0.672,-0.51 m -2.265,-1.67 c -0.817,-1.482 -3.015,-1.21 -4.379,-2.279 1.364,1.069 3.002,1.445 4.379,2.279 m -4.585,-1.183 c 0.135,0.804 3.159,2.059 5.071,2.418 l 0.904,1.411 c 0.463,0.296 0.245,-1.997 0.184,-1.296 -0.272,0.018 -0.662,-0.03 -1.088,-0.115 l -0.318,-0.486 z m -0.81,-0.474 0.496,0.043 -0.914,-0.578 z m 4.165,7.339 c 0.291,-0.453 -0.463,-0.26 -0.44,-0.517 -0.023,0.257 0.228,0.498 0.44,0.517 M 28.379,-110.68 c 0.418,-4.779 1.853,-10.193 3.9,-14.324 0.083,-0.039 0.153,-0.096 0.232,-0.142 l -91.845,-8.035 c -36.507,3.872 -71.836,13.084 -99.028,40.321 4.713,0.901 10.438,1.634 15.404,2.55 3.157,-0.437 6.516,-0.143 9.046,1.014 l 0.019,-0.22 c -0.019,0.22 0.86,1.024 1.437,0.125 5.767,0.023 12.549,2.287 18.336,2.072 3.635,-0.413 7.049,1.819 9.348,0.35 -0.483,-0.042 -0.987,0.136 -1.7,0.073 1.279,-0.823 3.376,-0.189 4.558,0.177 l -2.181,0.277 2.335,0.925 c 8.153,0.253 19.673,0.533 27.536,1.221 0.261,-0.459 0.755,-0.416 0.799,-0.911 5.252,0.46 10.94,-1.194 16.118,-0.021 l 0.105,-1.199 c 6.485,0.102 12.759,-0.086 18.709,-2.206 l -1.299,1.089 c 3.16,-0.441 7.202,-2.509 9.922,-0.84 l 15.272,-6.824 0.441,0.514 c 0.758,-0.409 0.59,-1.137 0.612,-1.385 1.36,1.083 2.972,-0.932 4.075,0.142 -2.003,0.767 -2.861,2.608 -5.079,3.149 0.358,1.455 1.417,0.124 2.092,0.893 -3.913,0.621 -6.823,3.744 -10.758,4.599 l 0.194,0.502 c -1.702,0.319 -3.517,1.591 -4.778,2.474 l 0.192,0.482 -2.785,1.419 -0.671,-0.512 c -0.255,0.206 -0.524,0.667 -1.006,0.625 -0.043,0.492 0.439,0.534 0.396,1.019 -1.507,0.582 -3.219,1.159 -4.333,2.742 l 0.714,0.274 c -2.557,1.72 -5.123,3.432 -7.597,4.15 l 1.013,-0.627 c -2.368,-0.207 -1.768,1.059 -4.024,1.836 l 0.459,0.491 c -2.317,1.737 -3.995,4.22 -6.924,4.933 l 2.045,-1.508 c -2.019,-1.624 -1.837,1.78 -3.05,1.906 l 0.48,0.042 c -1.631,2.248 -2.949,3.581 -5.691,4.57 -4.082,5.381 -11.933,10.248 -15.863,16.387 l 8.075,4.08 -0.524,0.443 c 0.238,0.021 0.462,0.269 0.692,0.289 0.485,-0.186 0.063,-0.711 0.319,-0.921 l 4.126,2.277 2.337,0.925 c 0.03,2.154 3.67,2.008 5.469,3.368 l 0.542,-0.691 c 1.801,1.377 3.958,1.566 5.507,3.16 l -0.504,0.188 c 4.023,3.471 11.534,5.559 17.294,8.255 l -2.494,-1.693 0.754,-0.16 c 5.038,2.845 9.86,5.433 15.493,7.111 0.065,-0.155 0.024,-0.268 -0.065,-0.344 0.186,0.057 0.374,0.094 0.558,0.175 3.044,-1.916 7.58,-4.163 10.661,-6.533 2.199,-0.29 2.778,-1.441 4.286,-2.283 3.142,-2.843 7.56,-3.884 9.779,-7.304 4.386,-3.229 8.09,-7.243 12.304,-11.451 1.292,-3.719 4.958,-7.012 7.385,-10.181 1.217,-0.132 2.195,-0.047 2.819,0.984 1.116,0.808 1.28,-1.069 1.85,-1.996 -0.04,0.454 0.704,0.287 0.955,0.083 -0.232,-0.02 -0.211,-0.257 -0.686,-0.299 0.517,-0.439 0.981,-0.399 1.483,-0.601 -0.649,-0.781 1.57,-1.297 0.169,-1.932 3.496,-1.333 3.706,-6.631 7.826,-6.756 l -2.176,2.933 0.855,-0.054 c -0.441,0.186 -0.82,0.59 -1.123,0.031 0.371,1.501 -1.925,2.953 -1.256,3.51 l -0.669,-0.557 -1.065,1.102 1.147,0.613 -0.775,0.642 -0.19,-0.727 c -0.647,1.87 -2.467,3.61 -3.1,5.269 0.237,0.021 0.466,0.26 0.485,0.043 l -0.35,1.151 0.727,0.063 c -0.522,0.44 -1.049,0.879 -1.342,1.577 l -0.461,-0.279 c -0.789,0.88 -1.587,1.548 -1.457,2.741 0.585,1.745 -3.165,3.33 -1.366,4.935 l -1.296,1.096 c 0.19,0.263 0.438,0.53 0.665,0.55 -2.587,4.808 -5.703,10.083 -8.279,14.918 l 0.398,0.732 c -3.598,5.69 -5.922,12.724 -8.134,18.781 l 0.5,-0.209 -0.521,0.449 16.552,6.264 c -0.293,0.459 -2.196,0.293 -2.866,-0.51 l 0.273,-0.441 c -1.907,-0.167 -3.033,-0.996 -4.728,-0.892 -0.44,-0.291 -1.403,-0.375 -0.862,-1.052 l -7.932,-2.859 -0.276,0.461 1.638,0.621 c -1.012,0.403 -1.596,-1.103 -2.391,-0.209 5.237,3.115 10.446,4.295 16.521,6.254 l -0.508,0.424 0.424,0.542 c -4.925,-1.404 -9.839,-3.05 -14.213,-5.099 -0.949,-0.319 -2.783,-1.217 -2.909,0.23 2.783,1.214 6.548,2.254 9.292,3.679 l 1.159,0.473 -0.012,0.133 c 2.323,1.17 3.778,3.438 6.392,3.906 0.041,-0.468 -0.426,-0.509 -0.404,-0.76 1.109,1.081 3.038,0.99 3.668,2.005 -1.235,0.391 -2.643,0.039 -3.608,-0.046 L 32.782,6.59 C 29.233,6.048 27.059,3.45 24.069,1.75 L 23.547,2.159 C 22.413,1.339 20.927,1.93 19.562,1.089 19.283,1.065 18.923,1.208 18.701,1.417 17.228,0.885 13.981,1.264 13.449,-0.641 12.412,0.228 11.67,0.665 10.481,0.295 c 1.806,1.364 6.361,2.111 8.213,3.26 l 0.136,-1.556 1.597,0.14 c 1.32,1.321 2.152,0.188 3.497,1.272 -0.953,2.571 3.008,1.486 3.845,2.741 l -0.507,0.441 1.139,0.584 C 25.871,5.754 22.851,4.758 20.047,3.806 l -0.313,0.68 C 20.9,5.063 22.81,5.23 23.414,6.485 22.244,6.154 18.73,5.129 16.443,3.72 L 16.54,5.019 C 14.45,4.102 12.378,3.057 9.415,1.646 L 8.806,3.052 12.057,4.289 C 10.84,4.438 9.935,3.868 9.016,3.329 8.122,5.403 7.716,7.287 6.814,9.36 6.63,19.7 5.038,29.663 7.515,39.744 c 1.846,0.864 3.266,-1.651 5.131,-1 l -0.148,-0.754 0.724,-0.151 c -0.041,0.463 -0.285,0.442 -0.556,0.668 0.453,0.511 0.898,0.786 1.652,0.616 0.669,-2.097 3.37,-0.177 4.707,-1.743 0.609,-1.392 -1.481,-2.299 -1.921,-2.826 0.062,-0.715 0.817,-0.895 1.269,-0.609 1.036,-3.762 4.679,-4.168 7.703,-5.57 2.811,-1.926 5.117,-3.62 8.124,-4.815 3.236,-4.051 8.558,-6.947 11.762,-10.775 l -0.214,-0.251 c 2.073,0.919 2.366,-2.433 3.825,-2.541 C 45.644,8.201 39.488,6.945 35.597,4.897 33.465,4.246 35.156,4.394 33.839,3.059 l 12.623,4.004 c -0.147,1.682 2.512,1.429 3.9,2.036 1.725,-3.224 4.847,-3.187 5.839,-6.218 L 55.987,2.603 c 7.384,-10.168 15.475,-20.276 18.688,-32.274 l -0.863,-1.025 0.945,0.083 c 0.043,-0.481 -0.169,-0.756 -0.149,-0.983 1.794,-3.935 0.923,-7.857 2.732,-12.016 -1.162,-3.244 1.114,-7.136 1.194,-10.729 -1.319,-1.557 1.078,-1.6 0.734,-3.064 C 54.173,-64.642 32.04,-83.661 28.379,-110.68 m 38.846,125.093 35.228,9.575 c -0.357,-1.23 -1.612,-3.266 -3.012,-4.106 l 0.772,-0.411 c -0.233,-0.28 -0.215,-0.49 -0.192,-0.748 -1.23,0.364 -1.57,-1.09 -1.989,-2.1 0.104,-1.19 -2.133,-2.847 -2.651,-5.044 C 90.748,1.074 86.181,-9.91 86.747,-21.886 L 86.098,-22.64 C 82.267,-9.036 75.869,3.608 67.225,14.413 m 29.751,9.096 c -1.604,-0.861 -3.063,-0.753 -4.945,-1.379 1.143,0.81 3.321,0.751 4.945,1.379 M 91.57,21.837 71.871,16.261 91.124,21.798 Z m -83.628,-41.932 -0.497,0.41 -0.379,-1.242 c -3.397,0.188 -5.148,3.645 -8.106,4.602 l -0.02,0.234 -2.09,1.737 7.248,2.553 c 1.421,-2.522 3.139,-5.508 3.844,-8.294 m -4.345,11.14 -2.08,-0.896 1.848,0.876 z m -0.274,0.461 c -3.75,-1.049 -7.158,-3.516 -11.033,-3.134 2.072,1.151 4.122,2.276 6.485,2.989 l -0.439,-0.544 c 1.426,0.125 3.498,1.037 4.987,0.689 M 3.177,-6.827 2.714,-7.116 2.901,-6.362 Z M 0.831,-7.51 c 0.293,-0.698 -0.903,-0.803 -1.343,-1.067 l -0.269,0.202 c 0.458,0.293 0.88,1.03 1.612,0.865 m -5.949,-0.753 0.239,0.021 -0.462,-0.279 z m -0.917,-0.572 -0.446,-0.264 -0.723,-0.064 z m -1.841,-0.892 -0.877,-1.022 -0.26,0.219 -0.92,-0.323 c -0.021,0.241 1.344,0.832 2.057,1.126 m 0.961,2.742 c -0.456,-0.276 -0.939,-0.318 -1.634,-0.379 0.695,0.061 0.902,0.567 1.634,0.379 m 8.579,3.633 -1.359,-0.836 0.507,-0.455 -1.637,-0.354 c -0.046,-0.196 -0.017,-0.289 0.052,-0.344 -0.551,-0.028 -1.17,-0.171 -2.374,-0.584 0.282,-0.706 1.425,0.125 2.406,-0.035 -3.036,-1.236 -7.744,-2.136 -10.758,-3.578 -0.424,-0.543 -0.947,-0.083 -1.198,0.121 l 1.249,0.508 c 0.215,0.463 0.752,0.442 1.226,0.49 l -1.226,-0.49 c -0.029,-0.06 -0.079,-0.075 -0.092,-0.155 2.824,0.487 5.865,1.702 7.618,3.536 -1.465,0.343 -3.932,-1.775 -5.002,-0.667 -1.279,-1.563 -3.94,-1.311 -4.537,-2.798 -0.337,0.92 -1.217,-0.106 -1.721,0.311 4.624,2.109 9.194,4.899 14.192,5.566 l -3.017,-1.45 c 1.235,-0.117 3.793,0.804 5.134,1.891 z M -11.329,-5.916 -12.28,-6 c 0.237,0.021 0.45,0.251 0.951,0.084 m -10.988,-12.035 c -4.819,-2.577 -9.496,-3.959 -14.161,-5.795 4.645,2.07 9.488,4.413 14.161,5.795 m -1.491,0.577 c -5.379,-1.663 -10.592,-5.49 -16.494,-6.488 3.637,2.252 6.095,1.742 9.256,4.174 0.188,0.505 -0.565,0.689 -0.544,0.441 -2.16,0.06 -3.119,-2.681 -5.115,-1.906 l -5.579,-2.148 c 0.072,-0.001 0.156,0.038 0.227,0.02 -0.023,-0.033 -0.023,-0.033 -0.048,-0.056 0.188,-0.017 0.365,0.084 0.528,0.098 -0.192,-0.27 -0.458,-0.293 -0.907,-0.332 0.19,0.016 0.234,0.041 0.379,0.234 -0.062,0.009 -0.116,-0.023 -0.186,0.035 -0.71,-0.028 -1.62,-0.807 -1.903,-0.166 5.816,2.169 11.469,3.633 17.205,6.796 z m -3.702,1.121 -4.678,-1.369 c 1.037,1.788 2.964,1.724 4.678,1.369 m -4.635,-0.143 c -0.116,-0.173 -0.235,-0.388 -0.367,-0.527 l 0.714,0.062 c -0.433,-0.27 -0.433,-0.27 -0.926,-0.081 l 0.579,0.546 c 0.094,0.142 0.187,0.259 0.283,0.267 z m -2.109,-2.599 -1.861,-0.648 1.841,0.879 z m -0.998,0.62 0.712,0.062 -1.408,-0.598 z m -0.987,0.156 0.021,-0.241 -0.717,-0.063 -0.021,0.241 z m -3.956,-1.296 0.274,-0.461 c -0.254,0.227 -0.946,-0.083 -0.274,0.461 m -2.477,-1.904 0.215,0.019 -0.436,-0.506 -0.237,0.191 z m -25.389,-6.794 0.732,-0.172 c -0.208,-0.268 -1.63,-0.628 -0.732,0.172 m 2.141,-2.453 c -0.756,0.166 1.105,1.07 1.611,0.851 0.291,-0.685 -1.924,-0.168 -1.611,-0.851 m 2.051,1.153 -0.234,-0.021 0.655,0.772 z m 1.839,0.875 -0.501,0.188 1.151,0.821 z m 8.666,5.334 -0.25,0.211 0.675,0.52 0.248,0.021 z m 5.384,-3.638 c 0.87,1.064 2.649,-0.003 3.723,1.525 -0.416,-0.75 -2.388,-3.084 -3.723,-1.525 m 2.932,5.059 c -1.092,-1.281 -4.172,-1.775 -5.803,-2.42 2.115,0.687 3.644,2.231 5.803,2.42 m -5.319,0.027 c -0.022,0.257 -0.232,0.239 -0.468,0.218 1.178,0.103 2.073,1.138 3.479,1.261 -1.567,-1.094 -2.908,-2.656 -5.295,-2.632 z m 9.209,-3.29 0.709,0.315 0.252,-0.231 z m 5.063,-0.271 -15.465,-7.371 c 4.806,2.835 10.125,5.466 15.465,7.371 m -16.344,-2.868 c 0.809,-0.899 1.647,0.63 2.404,0.211 -0.235,-0.021 -0.215,-0.248 -0.215,-0.248 0.489,-0.452 1.682,-0.116 2.373,0.208 l -2.267,-1.425 -0.563,0.914 -1.628,-0.853 c 0.186,0.727 0.186,0.727 -0.104,1.193 m -3.686,-7.22 c 1.196,0.813 1.979,2.221 3.408,2.155 -0.692,-0.827 -2.316,-1.593 -3.408,-2.155 -0.215,-0.147 -0.44,-0.28 -0.689,-0.376 0.18,0.11 0.423,0.239 0.689,0.376 m -3.439,3.708 3.23,1.498 0.227,0.02 z m -3.302,-1.007 0.965,0.085 -1.405,-0.358 z m -1.191,0.112 c -0.023,2.897 4.853,2.142 7.114,3.785 3.452,1.733 7.174,3.261 10.927,4.327 -4.316,-2.803 -9.753,-3.996 -14.355,-6.564 -1.219,0.385 -2.313,-1.159 -3.686,-1.548 m -2.515,1.005 c -0.654,-0.528 -2.116,-0.424 -2.519,-1.446 0,0 -0.654,-0.091 -1.443,-0.212 -0.908,-0.53 -1.775,-1.473 -2.78,-1.09 -1.162,-0.409 -0.15,0.233 1.36,0.747 -0.495,-0.077 -0.978,-0.146 -1.402,-0.269 -0.011,0.119 1.086,0.331 2.163,0.5 0.266,0.078 0.534,0.136 0.81,0.183 0.088,0.05 0.174,0.098 0.267,0.13 0.262,0.132 0.531,0.272 0.76,0.49 l -2.63,-0.23 c 1.358,0.843 4.217,1.335 5.31,2.384 l 0.061,-0.698 c 1.195,0.104 1.757,-0.81 3.12,0.273 -0.357,-1.48 -2.052,-1.396 -2.931,-2.425 l 0.983,-0.15 c -1.614,-0.644 -3.22,-1.73 -5.106,-2.148 0.779,2.005 2.68,2.407 4.04,3.243 -0.022,0.251 -0.251,0.231 -0.486,0.21 z m 32.084,15.172 c -1.66,-0.272 -3.176,-2.693 -5.306,-2.258 l -1.115,-0.804 0.417,0.743 -1.96,0.071 c 0.73,0.064 1.122,1.068 0.353,1.486 -3.582,-0.313 -7.222,-2.551 -10.966,-3.849 -2.617,-0.229 -5.891,-1.222 -8.42,-2.656 -3.284,-0.776 -7.052,-1.816 -9.734,-4.206 4.671,1.611 9.524,3.955 14.467,5.081 0,0 0.36,-1.379 1.49,-0.563 l -1.804,-1.377 1.235,-0.374 -0.476,-0.041 0.516,-0.409 -0.231,-0.021 c 0.027,-0.308 0.024,-0.424 -0.002,-0.502 l 0.046,0.004 c -0.019,-10e-4 -0.032,-0.023 -0.044,-0.024 l -0.002,0.02 c -1.196,-0.104 -3.537,-0.323 -3.873,-1.79 l -0.766,0.182 0.661,1.008 c -2.615,-0.68 -4.412,-1.821 -7.242,-2.56 3.395,2.476 6.115,1.511 9.013,3.923 -1.515,1.077 -4.236,-0.824 -5.91,-0.971 0.67,0.513 1.901,0.166 1.82,1.095 -4.081,0.145 -7.619,-3.307 -11.196,-3.869 -0.021,0.248 -0.277,0.225 -0.298,0.459 -0.229,-1.458 -1.889,-1.692 -3.388,-2.185 l 1.841,0.837 -0.524,0.447 -6.003,-2.917 c 0.021,-0.247 0.27,-0.225 0.503,-0.205 -0.695,-0.303 -1.888,-0.408 -1.805,-1.357 l -0.491,0.19 c -0.261,0.23 1.622,0.626 1.08,1.529 l -1.622,-0.853 c -6.986,11.172 -11.617,22.81 -13.241,35.886 1.352,-1.583 3.7,-1.111 5.477,-2.172 l 0.582,-0.915 c 4.904,-1.245 9.644,-0.597 14.964,-0.87 -0.163,-0.964 0.816,-1.107 1.299,-1.065 0.936,0.311 1.228,-0.377 1.754,-0.82 5.612,-0.96 10.544,-2.213 16.33,-2.427 6.484,-2.554 13.728,-3.102 19.773,-6.18 l -0.214,-0.271 0.988,-0.399 c -0.626,-1.022 -2.493,-1.667 -2.971,-1.708 -0.089,-1.678 1.903,0.409 3.117,0.037 l -0.419,-0.522 0.253,-0.213 c -1.426,-0.125 -3.233,-1.486 -5.129,-1.884 l 0.168,-1.925 c 1.131,1.069 2.554,1.194 3.702,1.779 -0.651,-0.774 -2.298,-1.151 -2.024,-1.632 1.458,-0.115 2.754,1.443 4.143,2.07 z m -36.266,13.559 -0.244,-0.021 -0.022,0.254 0.244,0.021 z m -13.397,-47.592 c 2.151,0.189 3.365,-2.581 4.791,-2.702 -0.19,-0.481 0.559,-0.9 1.102,-1.331 l 0.151,0.71 c 8.325,-6.725 16.052,-15.687 24.614,-19.972 l 0.061,-0.702 c 1.426,0.125 1.377,-2.05 3.49,-1.394 -0.579,-1.72 2.031,-1.257 3.058,-2.137 -29.996,1.968 -62.298,2.981 -93.845,-4.605 -1.809,-1.359 -4.5,-1.109 -6.599,-1.778 l -13.788,-4.577 -0.272,0.454 c 17.512,8.765 35.728,17.558 53.498,26.114 l -0.516,0.413 1.93,0.169 c 7.339,3.771 14.682,8.04 22.325,11.338 m -50.408,-6.561 c 0.041,-0.475 -0.652,-0.781 -0.952,-0.329 0.258,0.022 0.444,0.516 0.952,0.329 m 39.917,-82.367 c 0.211,0.244 1.642,0.369 2.409,-0.302 -0.873,-0.793 -1.692,0.112 -2.409,0.302 m 29.806,-5.351 1.999,-0.476 5.069,-57.931 c -2.642,-0.557 -5.269,-1.084 -7.855,-1.541 -5.939,-0.52 -12.446,-3.255 -17.575,-2.508 l -0.162,-0.724 c -2.704,0.473 -5.246,-0.459 -7.862,-0.927 -2.475,0.986 -5.733,-0.501 -7.935,0.036 -2.21,-2.365 -4.417,1.042 -6.645,-1.073 l -19.721,-0.045 c -1.21,0.133 -2.253,-1.624 -3.108,-0.271 -23.204,1.556 -48.347,0.1 -69.531,11.472 l 0.433,0.516 0.265,-0.216 -0.063,0.718 c 2.58,0.691 5.599,1.925 7.832,3.821 7.813,4.27 16.607,8.168 24.581,13.189 26.564,10.036 52.249,24.074 80.565,30.165 l -0.518,0.426 2.556,0.62 c -0.421,-0.003 -0.85,0.15 -0.715,0.49 z m -78.635,-85.291 0.183,0.521 12.997,-0.085 c -4.049,-0.354 -9.133,0.171 -13.18,-0.436 m 65.086,9.048 c 5.418,1.465 11.254,3.41 16.712,4.365 1.643,0.314 3.313,0.675 4.99,1.063 l 0.05,-0.567 c -2.482,-0.681 -4.989,-1.377 -7.535,-2.148 l -0.533,0.424 c -3.701,-1.751 -8.687,-2.447 -13.155,-3.548 z m 187.41,246.842 5.447,-4.36 c -0.466,-0.256 -1.299,0.873 -1.708,0.353 -1.293,1.096 -3.53,1.617 -3.739,4.007 M 125.682,8.7 128.655,4.876 C 127.414,5.498 126.08,7.055 125.682,8.7 M 416.193,-91.578 128.131,-116.78 c 3.288,3.783 6.067,7.766 6.924,12.776 -3.198,-1.96 0.943,3.225 -2.149,2.469 l 0.393,1.23 c -1.437,-0.126 -2.572,1.701 -1.961,2.957 l -0.673,-0.544 c -0.77,0.65 0.338,1.696 -0.21,2.4 -0.931,-0.082 -2.138,-0.187 -2.24,0.986 -0.441,-0.517 -0.627,-1.018 -1.091,-1.277 -3.053,1.891 -1.21,5.655 -3.596,8.1 l -0.083,-1.708 c -1.905,-0.166 -2.537,1.479 -4.229,1.553 -0.749,3.094 -3.073,5.042 -4.766,7.76 l -0.484,-0.043 -0.126,-1.213 c 2.346,-1.957 4.289,-4.912 4.767,-7.763 l -0.708,-0.062 c 0.475,-2.831 -1.451,-5.4 -2.953,-7.69 -0.468,-0.041 -0.509,0.434 -0.756,0.638 -2.322,-0.907 -1.251,3.039 -2.676,3.14 -0.274,-2.425 -0.045,-5.045 -0.817,-7.285 -3.202,0.676 -2.809,4.331 -5.739,5.044 -0.021,0.238 -0.021,0.238 0.192,0.475 -0.668,-0.516 -2.075,-0.892 -2.633,0.002 -1.077,-1.276 -3.332,-0.524 -4.928,-1.374 l -0.022,0.251 c -2.088,-0.917 -4.306,-0.377 -6.462,-0.566 l 0.858,1.278 c -1.107,1.569 1.027,2.006 1.36,3.702 l -1.23,0.38 c -0.362,1.4 2.955,1.939 0.959,2.724 l 0.73,0.064 -1.147,2.083 c -1.086,1.346 1.314,1.556 1.717,2.298 l -0.548,0.908 c 1.87,0.413 -0.189,2.159 0.45,2.939 -0.278,0.451 -0.785,0.895 -1.247,0.626 -0.309,0.666 -1.372,1.768 -0.187,2.135 -0.642,1.884 -2.072,-1.138 -2.741,0.747 l 0.215,0.477 0.267,-0.226 0.781,1.984 c -1.032,0.883 -1.507,3.482 -2.847,2.388 l 0.255,-0.204 -0.7,-0.289 c -1.228,0.346 -3.092,-0.271 -3.051,1.881 l -0.463,-0.04 c -1.233,0.155 -1.128,-1.039 -1.771,-1.85 -2.411,0.049 -5.913,-1.207 -6.888,1.823 l 1.401,0.382 -0.255,0.2 c -0.903,-0.807 -3.185,0.66 -3.021,-1.214 -1.672,-0.146 -1.769,-1.852 -3.175,-2.235 l 0.524,-0.408 -1.363,-1.086 -0.535,0.684 -0.409,-0.521 -0.309,0.458 c -0.823,-1.51 -2.782,-1.217 -3.913,-2.03 -0.272,0.434 -0.982,0.372 -1.181,-0.103 -4.05,-0.614 -8.193,-2.643 -10.021,-6.399 -1.004,0.37 -2.217,-2.377 -3.115,-0.273 9.294,12.087 24.411,23.528 40.478,18.446 -0.75,0.416 -1.314,1.337 -2.32,1.727 2.883,0.252 5.709,-1.915 8.272,-3.846 l 0.412,0.753 5.526,-2.641 -1.824,1.729 0.405,0.554 c -3.361,3.06 -6.444,5.197 -10.263,7.752 l 0.695,0.3 -2.472,0.747 0.508,-0.454 c -2.199,0.306 -5.484,-0.48 -7.017,0.602 1.531,1.568 1.074,4.165 0.646,6.3 1.743,4.736 -0.197,10.338 1.346,14.797 0.505,-0.195 1.309,-1.32 1.718,-0.567 1.234,-2.788 0.441,-7.66 4.549,-7.778 0.622,1.024 -0.426,2.128 -0.951,2.778 l 0.484,13.541 0.677,0.523 c 0.776,10.178 6.279,18.836 10.028,28.317 l -0.623,1.613 c 1.543,4.476 3.308,8.937 4.582,13.625 1.797,1.363 0.774,4.89 2.911,5.293 l -0.525,0.456 1.085,1.304 c 0.197,0.502 -0.062,0.712 -0.586,1.144 l 0.44,0.523 c 5.425,-4.341 12.817,-9.231 16.04,-15.681 -4.213,4.209 -8.486,9.119 -14.005,11.515 l -0.352,-1.455 c 2.128,-1.986 5.148,-3.648 6.023,-5.495 -2.489,0.756 -3.415,3.315 -5.897,4.051 l 3.43,-3.542 -4.064,2.534 -0.382,-0.99 c 3.227,-3.816 8.788,-6.923 10.87,-11.57 -3.521,1.843 -5.027,5.319 -8.499,6.473 -1.066,1.112 -3.477,4.037 -4.983,1.972 0.266,-0.195 0.503,-0.175 0.75,-0.413 l -0.442,-0.267 4.154,-3.725 -0.21,-0.278 8.343,-7.45 -0.958,0.155 c 5.172,-4.36 8.784,-9.785 11.467,-15.848 5.294,-11.057 0.202,-24.01 -0.954,-35.649 1.762,-0.809 0.064,-3.382 1.325,-4.208 1.167,0.573 0.812,1.724 1.23,2.492 6.404,12.125 10.136,24.235 10.392,37.963 -0.901,1.841 0.52,4.841 -0.861,6.909 0.275,-0.211 0.235,0.239 0.708,0.281 -1.124,4.472 -1.583,9.722 -3.194,14.407 -4.794,8.228 -11.946,15.533 -18.579,22.651 l 17.941,3.974 c -5.764,-0.015 -12.309,-2.286 -18.885,-4.056 -1.002,0.404 -0.371,1.412 -0.573,1.145 l -0.49,-0.043 c -0.53,0.698 -1.554,1.326 -2.101,2.019 0.466,0.236 1.954,-0.334 1.85,0.856 -0.487,0.193 -0.94,-0.328 -1.406,-0.369 -0.688,-0.313 -1.906,-0.167 -1.737,0.586 l 9.884,2.528 -3.294,-0.75 c -2.613,-0.481 -5.818,-2.203 -7.863,-0.94 -1.256,0.375 -3.336,2.365 -4.604,0.311 1.294,-3.73 -4.568,-2.801 -6.595,-4.42 2.131,0.439 4.686,1.599 6.381,1.283 L 96.598,27.82 c 4.351,-0.125 7.974,2.128 11.587,2.212 l -1.71,-2.321 -0.32,0.696 -1.962,-2.351 -38.245,-10.805 -3.226,3.83 c 12.862,4.24 25.833,7.062 38.769,10.598 C 88.953,27.151 75.325,23.53 62.702,19.311 c -4.556,5.36 -9.787,9.964 -15.441,14.282 l 0.462,0.283 c -1.465,0.11 -2.237,0.774 -2.136,2.45 -0.998,-2.486 -2.969,0.949 -4.164,0.612 l 2.829,-1.942 c -1.1,-1.035 -2.394,0.04 -3.604,-0.066 C 30.956,41.292 21.036,47.658 9.4,48.556 9.695,50.508 10.259,52.242 9.595,54.585 5.272,54.459 3.979,50.008 2.81,46.781 1.639,46.678 -0.565,46.954 -0.914,45.482 -0.356,44.567 -0.453,42.889 0.97,43.013 -1.317,33.677 -2.933,24.389 -1.864,15.097 -3.467,10.831 2.212,3.411 0,0 l 0.394,0.133 0.546,-0.673 -6.761,-2.494 -0.062,0.702 -0.169,-0.722 -6.033,-2.444 c -1.585,-1.112 -4.518,-0.668 -5.152,-1.66 l -0.776,0.657 9.992,3.982 -10.717,-4.046 c -2.015,1.006 -5.38,0.957 -6.702,2.303 -3.869,0.372 -7.887,2.428 -12.055,3.034 l -0.522,0.661 -0.466,-0.259 c -1.797,1.274 -3.865,0.355 -5.417,1.678 -4.936,1.235 -10.311,2.216 -15.398,2.724 -12.452,2.046 -26.439,2.516 -38.314,0.756 -1.639,2.245 2.697,4.796 -1.467,5.627 -2.16,0.047 -3.623,-2.489 -4.441,-3.992 0.367,-15.347 5.445,-29.354 11.414,-42.763 l -2.278,-1.408 1.654,0.615 c -0.189,-0.713 -1.612,-1.093 -2.289,-1.634 -2.004,1.044 -4.68,-1.373 -6.543,-2.028 0.963,-0.154 2.072,1.152 3.076,0.522 -1.17,-0.355 -2.764,-1.198 -3.784,-0.583 -0.913,-0.538 -3.228,-1.482 -2.952,-2.178 -5.439,-0.972 -9.719,-4.204 -14.613,-6.088 l 1.192,0.104 -0.44,-0.523 c -0.605,-1.255 -2.014,-1.611 -2.825,-0.718 l -10.618,-5.021 0.042,-0.475 c -0.404,-0.752 -1.665,-0.145 -1.441,0.107 l -9.467,-4.668 0.401,1.006 c -0.444,-0.518 -1.368,-0.858 -1.081,-1.543 l -28.557,-14.296 -2.576,-0.71 0.252,-0.204 -0.908,-0.557 c -3.998,-1.081 -6.166,-3.907 -9.433,-4.903 l 0.253,-0.251 -3.495,-1.242 c -34.227,-18.414 -68.643,-37.518 -100.489,-61.002 -0.332,-1.703 1.622,-2.023 2.637,-2.652 l -3.447,-4.625 c 2.06,1.15 4.169,-0.851 6.272,-0.182 l 13.279,7.651 c 33.996,18.381 67.728,36.958 102.893,52.784 3.291,-7.379 8.174,-13.725 15.592,-18.599 1.89,-2.492 5.346,-3.621 7.96,-5.779 5.794,-6.017 12.919,-10.448 20.382,-13.149 l -0.445,-0.518 c 2.02,-1.264 3.63,-0.167 5.249,-2.43 4.348,-0.098 7.737,-3.155 11.919,-4.012 1.188,0.104 2.349,0.459 2.918,-0.441 l -0.237,-0.021 2.459,-0.775 -0.657,-0.768 c 1.124,1.048 2.477,-0.501 3.869,-0.147 l 0.382,0.997 c 0.258,0.022 0.278,-0.208 0.535,-0.431 l -0.236,-0.021 1.956,-0.314 -2.13,-0.664 c 0.751,0.065 1.234,-0.131 1.77,-0.809 -0.851,-1.044 -2.037,1.263 -3.605,0.149 3.927,-1.091 7.86,-2.174 11.929,-1.818 -0.198,-0.51 -0.938,-0.082 -0.677,-0.551 0.521,-0.433 0.961,0.084 1.159,0.593 l 0.325,-0.942 0.405,0.767 c 0.666,0.529 1.938,-0.084 2.002,-0.816 l -1.896,-0.391 c 0.97,-0.154 2.397,0.21 3.568,0.312 0.523,-0.425 1.282,-0.837 1.323,-1.305 -43.476,-11.748 -84.273,-29.04 -121.372,-52.963 l -0.498,0.181 c 0.02,-0.223 0.04,-0.46 -0.207,-0.482 -7.537,1.021 -7.381,-9.075 -13.505,-10.56 l 1.881,0.397 c -0.562,-1.737 -2.624,-2.874 -2.241,-4.514 -1.903,-0.412 1.449,-2.769 -1.167,-3.258 0.982,-0.132 1.085,-1.319 1.648,-2.246 -2.047,-1.375 1.469,-2.986 2.045,-4.145 l -1.907,-0.167 c 10.393,-6.085 21.945,-8.928 34.062,-10.019 14.997,-0.84 31.232,-2.302 46.273,-0.986 27.544,1.173 53.234,4.398 77.799,12.332 l 1.341,1.088 c 0.326,0.052 0.657,0.124 0.989,0.197 l 4.417,-50.487 480.056,41.999 z" /></g><g
           transform="translate(755.5666,213.6736)"
           id="g884"><path
             id="path886"
             style="fill:#ffffff;fill-opacity:1;fill-rule:nonzero;stroke:none"
             d="m 0,0 -7.896,90.254 -29.551,-2.586 7.896,-90.254 z m -76.706,40.064 c 1.713,-19.578 1.479,-22.576 -8.372,-23.438 l -6.772,-0.592 -3.749,42.849 6.896,0.603 c 7.757,0.679 10.381,-0.953 11.997,-19.422 m 30.739,3.185 c -2.714,31.029 -20.537,41.877 -44.671,39.766 l -36.323,-3.178 7.896,-90.254 36.693,3.21 c 26.227,2.294 39.034,20.413 36.405,50.456 m -121.695,2.629 c 0.571,-6.526 -0.857,-8.636 -4.797,-8.98 l -7.142,-0.625 -1.422,16.253 7.511,0.657 c 3.571,0.312 5.322,-1.271 5.85,-7.305 m 32.835,-32.115 c -0.851,-0.199 -1.948,-0.419 -2.933,-0.505 -2.217,-0.194 -2.752,0.255 -3.899,2.016 l -6.847,10.195 c 6.946,5.695 10.791,14.22 9.789,25.671 -1.756,20.07 -15.454,26.316 -34.17,24.679 l -38.786,-3.394 7.897,-90.254 28.689,2.51 -2.672,30.537 3.202,0.28 9.109,-16.201 c 5.584,-9.934 10.988,-13.555 23.178,-12.489 2.462,0.216 6.74,0.962 9.662,1.59 z m -82,-32.733 -3.385,24.518 -32.384,-2.833 -0.732,8.373 28.935,2.531 -2.143,24.503 -28.936,-2.532 -0.711,8.127 31.398,2.747 -2.154,24.626 -60.949,-5.333 7.896,-90.254 z m -80.295,83.92 -29.551,-2.586 -4.921,-48.694 c -0.533,-5.258 -0.45,-10.462 -0.202,-13.294 l -1.478,-0.129 c -0.247,2.832 -1.192,7.96 -2.63,13.046 l -13.302,47.1 -30.413,-2.661 31.045,-88.229 36.2,3.167 z m -108.46,-100.434 -7.896,90.254 -29.551,-2.586 7.896,-90.254 z" /></g><g
           transform="translate(300.7936,139.6297)"
           id="g888"><path
             id="path890"
             style="fill:#ec008c;fill-opacity:1;fill-rule:nonzero;stroke:none"
             d="m 0,0 4.903,-56.044 283.352,24.791 -4.903,56.043 z" /></g><g
           transform="translate(567.9706,134.7426)"
           id="g892"><path
             id="path894"
             style="fill:#ffffff;fill-opacity:1;fill-rule:nonzero;stroke:none"
             d="m 0,0 c 0.906,-10.361 -0.744,-12.384 -5.509,-12.801 -4.818,-0.422 -6.747,1.341 -7.649,11.649 -0.92,10.516 0.687,12.432 5.453,12.849 C -3.146,12.095 -0.92,10.515 0,0 m 9.376,0.82 c -1.228,14.038 -7.51,19.022 -17.664,18.133 -10.049,-0.879 -15.415,-7.56 -14.232,-21.08 1.223,-13.987 7.388,-18.824 17.645,-17.927 9.998,0.875 15.461,7.043 14.251,20.874 m -36.518,-22.3 -3.322,37.971 -8.03,-0.702 1.632,-18.649 c 0.118,-1.347 0.366,-2.995 0.644,-4.381 l -0.518,-0.045 c -0.555,1.57 -1.369,3.117 -2.095,4.254 l -11.37,17.797 -9.324,-0.816 3.322,-37.971 8.081,0.707 -1.781,20.358 c -0.127,1.45 -0.371,3.047 -0.602,4.489 l 0.518,0.045 c 0.442,-1.475 1.153,-3.031 2,-4.366 l 12.401,-19.429 z m -37.142,-3.249 -3.322,37.971 -8.91,-0.78 3.322,-37.971 z m -14.224,0.896 -2.441,7.616 c -4.476,-2.532 -6.697,-3.405 -8.665,-3.577 -4.662,-0.408 -7.098,0.58 -8.045,11.406 -0.902,10.309 1.251,11.959 5.861,12.362 1.917,0.168 3.931,-0.178 8.427,-1.455 l 1.185,7.933 c -5.429,1.196 -8.051,1.332 -10.848,1.087 -9.739,-0.852 -15.247,-6.502 -13.992,-20.851 1.133,-12.95 6.112,-19.144 17.716,-18.129 2.849,0.25 5.761,0.974 10.802,3.608 m -33.07,-5.034 -3.322,37.971 -8.91,-0.779 3.322,-37.971 z m -16.712,29.335 -0.648,7.408 -26.16,-2.289 0.648,-7.408 8.599,0.753 2.674,-30.563 8.962,0.784 -2.674,30.563 z m -34.053,-33.776 -1.331,7.452 -13.054,-1.142 -2.665,30.46 -8.91,-0.78 3.322,-37.971 z m -28.957,-2.534 -1.162,7.311 -14.712,-1.287 -0.711,8.133 13.572,1.187 -0.643,7.356 -13.573,-1.187 -0.675,7.718 14.505,1.269 -0.648,7.408 -23.415,-2.049 3.322,-37.971 z m -41.44,16.054 c 0.884,-10.102 -0.843,-12.445 -6.437,-12.935 l -4.507,-0.394 -2.058,23.518 4.559,0.399 c 4.818,0.422 7.591,-0.85 8.443,-10.588 m 9.358,1.027 c -1.187,13.572 -8.64,17.618 -18.483,16.757 l -13.313,-1.165 3.322,-37.971 13.469,1.179 c 10.723,0.938 16.156,8.042 15.005,21.2" /></g></g></g></g></svg>