<?xml version="1.0" standalone="no"?>
<!DOCTYPE svg PUBLIC "-//W3C//DTD SVG 20010904//EN"
        "http://www.w3.org/TR/2001/REC-SVG-20010904/DTD/svg10.dtd">
<svg version="1.0" xmlns="http://www.w3.org/2000/svg"
     width="260.000000pt" height="260.000000pt" viewBox="0 0 260.000000 260.000000"
     preserveAspectRatio="xMidYMid meet">
    <metadata>
        Created by potrace 1.11, written by Peter Selinger 2001-2013
    </metadata>
    <g transform="translate(0.000000,260.000000) scale(0.100000,-0.100000)"
       fill="#000000" stroke="none">
        <path d="M2107 2123 c-2 -1 -43 -5 -92 -8 -50 -3 -101 -8 -115 -10 -14 -2 -63
-7 -110 -10 -47 -4 -101 -8 -120 -10 -19 -2 -69 -6 -110 -10 -41 -3 -97 -8
-125 -10 -102 -9 -162 -15 -225 -20 -152 -13 -187 -16 -220 -20 -19 -3 -71 -7
-115 -10 -44 -3 -98 -7 -120 -9 -22 -2 -76 -7 -120 -10 -44 -4 -96 -9 -115
-11 -19 -3 -69 -7 -110 -11 -41 -3 -91 -7 -110 -9 -19 -2 -76 -7 -126 -10 -50
-3 -99 -8 -110 -10 -10 -2 -29 -4 -41 -4 l-23 -1 0 -366 0 -366 97 7 c54 4
105 8 114 10 8 2 56 6 105 10 49 3 105 7 124 10 19 2 71 6 115 9 106 8 183 16
220 21 17 2 75 7 130 11 55 3 108 8 119 10 10 2 62 6 114 10 53 3 104 8 114 9
9 2 61 7 115 10 54 4 105 9 114 10 8 2 55 6 105 10 49 3 100 8 114 10 14 2 66
7 115 10 50 4 106 8 125 10 19 3 63 7 98 10 195 16 207 18 198 33 -2 4 -7 48
-10 97 -4 50 -9 106 -11 125 -2 19 -7 73 -10 120 -4 47 -8 92 -10 100 -2 8 -6
60 -10 115 -4 55 -8 111 -9 125 -2 21 -8 25 -35 25 -18 1 -33 0 -34 -2z"/>
        <path d="M2407 1363 c-1 0 -40 -4 -87 -8 -47 -3 -107 -8 -135 -11 -27 -2 -75
-7 -105 -9 -30 -3 -75 -7 -100 -10 -25 -2 -79 -7 -120 -10 -41 -3 -96 -8 -122
-11 -27 -2 -74 -7 -105 -9 -156 -12 -191 -15 -233 -20 -25 -2 -76 -7 -115 -10
-38 -3 -88 -8 -110 -10 -22 -2 -76 -7 -120 -10 -44 -4 -98 -8 -120 -10 -22 -2
-71 -6 -110 -10 -38 -3 -88 -8 -110 -10 -22 -2 -76 -7 -120 -10 -44 -4 -91 -8
-105 -10 -14 -2 -63 -7 -110 -10 -47 -3 -103 -7 -125 -10 -22 -2 -76 -7 -120
-10 -74 -7 -109 -11 -127 -14 -5 0 -8 -165 -8 -366 l0 -365 68 5 c37 3 85 7
107 10 22 2 76 7 120 10 44 3 96 8 115 10 19 2 69 7 110 10 41 3 95 8 120 10
25 2 74 7 110 10 36 3 85 7 110 10 25 2 77 7 115 10 124 10 179 15 235 20 30
3 80 8 110 10 30 3 80 7 110 10 30 3 84 7 120 10 110 9 183 15 230 20 25 3 74
7 110 10 65 5 146 12 230 20 25 3 81 7 125 10 44 4 91 8 105 10 14 2 68 7 120
10 120 8 129 10 125 38 -2 12 -6 64 -10 115 -3 51 -8 101 -10 110 -1 9 -6 62
-9 117 -4 55 -9 111 -11 125 -3 25 -17 193 -18 218 0 9 -17 12 -64 10 -36 -2
-65 -4 -66 -5z"/>
    </g>
</svg>
